<?xml version="1.0" encoding="UTF-8"?>
<svg width="161px" height="58px" viewBox="0 0 161 58" version="1.1" xmlns="http://www.w3.org/2000/svg" xmlns:xlink="http://www.w3.org/1999/xlink">
    <!-- Generator: sketchtool 46 (44423) - http://www.bohemiancoding.com/sketch -->
    <title>46995551-C7DF-4150-8514-51780F2DC73A</title>
    <desc>Created with sketchtool.</desc>
    <defs>
        <rect id="path-1" x="0" y="0" width="170" height="170"></rect>
    </defs>
    <g id="Web" stroke="none" stroke-width="1" fill="none" fill-rule="evenodd">
        <g id="Focused-—-Main" transform="translate(-640.000000, -2396.000000)">
            <g id="Clients" transform="translate(205.000000, 2236.000000)">
                <g id="dubai-logo" transform="translate(430.000000, 110.000000)">
                    <g id="Rectangle" opacity="0">
                        <use fill="#D8D8D8" fill-rule="evenodd" xlink:href="#path-1"></use>
                        <rect stroke="#979797" stroke-width="1" x="0.5" y="0.5" width="169" height="169"></rect>
                    </g>
                    <g id="Group-4" transform="translate(5.000000, 50.000000)" fill-rule="nonzero" fill="#000000">
                        <g id="government-of-dubai-logo" transform="translate(0.522624, 0.961039)">
                            <path d="M105.714244,27.6671769 C105.648766,27.6352379 103.602779,26.9911975 103.087314,26.1227974 C103.087314,26.1227974 104.891623,23.9818016 105.859013,27.6671769 C105.874519,27.6997207 105.77821,27.6997207 105.714186,27.6671769 L105.714247,27.6671769 L105.714244,27.6671769 Z M105.483163,22.8313337 C103.750995,22.4771016 102.162325,25.146241 102.162325,25.146241 C102.162325,25.146241 101.910771,24.9700325 101.857165,24.9912038 C101.803196,25.0127384 100.599153,26.5162906 100.416106,26.7632094 C98.5671592,29.2616464 96.7153606,28.966027 96.7040318,28.9763725 C93.2731952,29.0194417 92.1539526,25.9683031 92.0686063,25.8498064 C91.2993463,24.1851685 91.1831112,24.304459 90.9813443,24.1853529 C90.7129514,24.0258395 89.6918955,24.1316978 88.2175837,25.3881422 C86.7211015,26.6626124 85.5418319,30.0672566 85.5204515,30.110933 C83.7074804,36.0410404 82.8586893,35.8943601 82.1916748,35.8736179 C81.5246595,35.8520833 80.9790906,35.0804068 80.4195921,34.0169229 C79.8598481,32.9534389 79.566078,30.2132251 79.5766784,29.096211 C79.5874601,27.9786489 79.6841932,27.5523744 79.5766784,27.5629606 C79.4693456,27.5739093 79.228755,27.9890553 79.1695159,28.2886648 C78.8628417,29.8510106 79.1227545,31.9128276 79.1227545,32.0743963 C79.2308145,34.0390018 80.5043345,37.7100675 82.2571546,37.7211812 C84.0107034,37.7315856 84.7358687,35.129891 84.8935361,34.7077906 C85.250727,33.7531901 85.7576508,31.4700414 86.8293476,29.1802859 C87.870997,26.9538734 89.9484245,26.9357278 90.1420729,26.9994242 C90.3357197,27.0639072 92.2836455,31.5545362 95.6291519,31.7481042 C98.9745855,31.9414918 100.104428,29.2120444 100.383418,28.708097 C100.663381,28.2026392 100.943162,28.0740987 101.019237,27.9984845 C101.093982,27.9232345 101.298411,28.1169852 101.298411,28.1056734 C101.857366,29.1268126 105.79513,31.3182605 106.601073,30.5666669 C107.40837,29.8145305 107.934616,28.2759537 107.957335,27.9126483 C107.979867,27.5495243 107.214788,23.1855044 105.483164,22.8312743 L105.483164,22.8313348 L105.483163,22.8313337 Z" id="_373763848"></path>
                            <path d="M70.5318911,16.5214654 L70.4777398,16.3496122 L71.4673002,16.3388449 L71.9034161,16.3222101 C71.9034161,16.3222101 71.8165565,16.0129829 71.4673002,15.7915897 C71.27232,15.6889375 68.5839094,14.0511584 67.9282231,13.8358753 C67.9068413,13.8466425 67.4113062,16.8439447 67.4113062,16.8439447 C67.411488,16.8439447 68.0785621,16.8868324 68.2399888,17.1233498 C68.4016543,17.3596255 69.6770532,19.1711338 70.2093554,19.6911681 C70.728939,20.1994689 72.8230232,22.3336325 77.1366936,24.0738795 C78.7560162,24.5243516 79.2455577,25.5175442 79.2455577,25.5175442 C79.2455577,25.5173628 77.4579672,26.9634471 75.9534899,27.9741794 C75.4780028,28.2930847 68.5139786,32.7465105 65.5513027,34.0548083 C65.4542063,34.0978776 62.6640964,35.3721661 61.9647367,34.1922424 C61.3658064,33.1827802 61.2509611,32.1421638 62.4345303,29.0696964 C62.4345303,29.0801008 62.7788197,28.2103716 62.7788197,28.2103716 L63.0084468,27.293399 C63.0084468,27.293399 62.2913992,28.0778984 61.3446046,30.9035289 C60.8297442,32.1942753 60.14359,35.5879645 61.4025108,36.7470826 C62.6608865,37.908316 63.9268317,37.492807 66.2228619,36.4592086 C68.8865009,35.2603475 78.074232,29.6910666 79.4251547,27.891876 C80.0086995,27.1147568 80.0956213,26.1431581 80.1382021,25.7548699 C80.1650961,25.5218002 80.3893926,23.4033027 79.4251547,22.4736288 C78.7987824,21.8692688 78.395439,21.5817568 77.1047134,20.9585239 C75.8139929,20.3360183 72.3821865,18.6170001 71.0373051,17.0160636 C71.0259781,17.0160636 70.5318952,16.5217359 70.5318952,16.5215546 L70.5318952,16.5214941 L70.5318911,16.5214654 Z" id="_373767928"></path>
                            <polygon id="_373768360" points="66.7773905 24.4646382 68.0994916 21.8526622 70.82062 23.7764593 69.4872363 26.482825"></polygon>
                            <polygon id="_373768600" points="41.3370976 39.6691555 42.6592501 37.0587672 45.382122 38.9825132 44.0470972 41.68893"></polygon>
                            <polygon id="_373768816" points="45.686595 39.1026128 47.0103885 36.4921732 49.7316194 38.4143827 48.3982357 41.1223873"></polygon>
                            <polygon id="_373769056" points="80.2999515 20.4026569 81.6241041 17.7922686 84.3452328 19.7143756 83.0118492 22.4224314"></polygon>
                            <polygon id="_373769296" points="84.6513982 19.8360118 85.9734993 17.2256746 88.6946272 19.1494718 87.3612436 21.8558887"></polygon>
                            <path d="M60.6792118,10.4620907 L60.6230014,10.229989 L62.0669072,10.2869106 C62.0669072,10.2869106 62.102281,10.0489412 61.838976,9.7468513 C61.6468426,9.52624281 58.8590328,6.97487893 58.8590328,6.97487893 L57.9659633,9.97236214 C57.9659633,9.97236214 58.5896689,10.3267755 58.6441838,10.4878638 C58.6977289,10.6487077 59.2786692,12.3570194 59.5800139,12.8619297 C59.8809945,13.3673876 61.5697915,16.3643233 61.8927011,16.8263511 C61.8927011,16.8475228 62.2334166,17.2809973 62.2478325,18.040331 C62.2478325,18.0615027 62.1828998,18.2015985 62.1404997,18.2337186 C62.096767,18.2660205 60.2360689,19.4476985 58.0954651,19.6628024 L56.782754,19.6943784 L55.5493947,22.0801829 C55.5493947,22.0801829 56.9652584,22.5955002 57.0843398,22.7028729 C57.2024545,22.8102435 58.9987659,23.5446564 60.1396345,23.884495 C61.1767403,24.193964 62.7534818,24.5396656 63.0115172,24.7550103 C63.6104475,25.0306045 63.6677522,25.5716318 63.6677522,25.5716318 C63.6677522,25.5716318 59.6223535,28.7262074 50.586746,30.7163539 C49.7690279,30.8458639 37.7637495,33.3387932 27.0919624,29.3852038 C26.9201205,29.2991863 21.8708937,27.6373924 18.2706553,24.6582391 C17.926548,24.3144114 15.086648,21.778894 15.086648,21.778894 L13.6088794,20.189143 L14.2978798,21.7361856 C14.2978798,21.7361856 18.6149401,28.0961937 18.8303328,28.3103245 C19.045544,28.5258519 22.8753675,31.8344333 32.2986357,33.9829731 C36.4294376,34.9277709 44.6052537,34.5415416 48.3487796,33.8975604 C52.0928335,33.2527916 61.171776,30.7885356 64.0118831,27.494122 C64.1843306,27.2795624 65.6039483,24.6153248 65.5178168,23.8845401 C65.6181237,22.9679311 64.8295396,22.2089575 64.3134124,22.0804124 C63.7968596,21.9511441 61.301304,21.2637909 61.0427249,21.1774113 C61.129221,21.2636101 63.5409423,19.8033121 63.4956944,17.1381645 C63.5814638,15.0323126 63.0656357,14.4739233 62.9363759,14.1729827 C62.8074792,13.8718613 60.826604,10.7915698 60.826604,10.7915698 L60.6793544,10.46226 L60.6791727,10.4620786 L60.6792118,10.4620907 Z" id="_373769344"></path>
                            <path d="M44.7057887,16.3710463 L43.2160916,18.8375404 L43.2160916,18.9131535 C43.2160916,18.9131535 46.908477,18.9501737 47.3705201,19.1101103 C47.7504251,19.2416771 47.3604651,19.4949502 47.3604651,19.4949502 C47.3604651,19.4949502 44.2909955,20.795494 43.3669145,21.134421 C43.1971322,21.1913426 43.1217812,21.3786207 43.1217812,21.3786207 C43.1217812,21.3786207 46.5790911,21.1378084 47.4204921,20.757626 C48.4846758,19.9523179 49.7956893,17.8588038 49.8895749,17.6134574 C49.9844303,17.3690158 49.9841877,17.2560197 49.9092607,17.1996425 C49.8333645,17.1433257 49.3809536,16.3331169 47.2316315,16.2953098 C45.0826735,16.2586526 44.7057927,16.3709229 44.7057927,16.3709229 L44.7057927,16.3710439 L44.7057887,16.3710463 Z" id="_373769560"></path>
                            <path d="M65.5865764,0.758389802 C65.5865764,0.758389802 52.5286479,5.07873644 45.3986354,7.45242344 C38.2682126,9.82588511 27.8691537,14.0706074 27.8691537,14.0706074 L26.3709741,16.6508863 C26.3709741,16.6508863 44.1843127,10.0821763 45.0111131,9.77278513 C45.8377341,9.46277178 64.4177938,3.02605106 64.4177938,3.02605106 L65.5866431,0.758446139 L65.5865824,0.758385649 L65.5865764,0.758389802 Z" id="_373769752"></path>
                            <path d="M75.5531061,3.36558745 C75.5531061,3.36558745 74.397883,2.35727252 74.2282818,2.24784609 C73.9543771,2.07073004 73.9543771,1.78152539 73.9543771,1.78152539 C75.0741629,1.01765044 75.5336008,1.50230158 75.6838782,1.83784216 C75.9604481,2.45556937 75.5531041,3.36577132 75.5531041,3.36558694 L75.5531061,3.36558745 Z M76.095224,3.68806202 C77.3267064,0.911551978 76.3590739,0.30513821 76.1132138,0.141812885 C75.9688109,0.0461776877 75.815262,0.00456020286 75.655716,0.00401578512 C75.1773816,0.00214058094 74.6462266,0.369801518 74.1533568,0.757120177 C73.4142007,1.33837191 73.0155806,1.96789399 73.1278206,2.86254699 C73.2306107,3.68485338 74.6288465,4.57121977 74.8512651,4.70750346 C74.8713144,4.71978302 74.8813692,4.72583206 74.8813692,4.72583206 L74.9186814,4.74718516 C74.3210793,5.55679018 71.9237787,7.8259674 69.4984769,9.42799473 C67.9580804,10.4461072 63.7976978,13.2976885 63.7976978,13.2976885 C63.7976978,13.2976885 64.7395846,12.9498685 64.8699998,12.8566527 C65.4488216,12.5871076 68.1289381,11.0795666 70.3860027,9.77484874 C72.6436263,8.47031018 75.2919416,5.04298786 75.2919416,5.04298786 C75.2919416,5.04298786 75.4229579,5.1355988 75.4414929,5.11745172 C75.9077125,5.32178813 76.411791,6.32877353 76.411791,6.32877353 C76.411791,6.32859205 76.411791,6.44049952 76.5615243,6.23519462 C76.7102884,6.03007153 76.8413046,4.8749492 76.8413046,4.57703029 C76.8413046,4.27893366 76.0953021,3.68800071 76.0953021,3.68800071 L76.0951811,3.6880612 L76.095224,3.68806202 Z" id="_373769944"></path>
                            <path d="M91.5039645,4.10659481 C91.5039645,4.10659481 90.3480131,3.09737336 90.17914,2.98806473 C89.9039019,2.81076738 89.9039019,2.52174404 89.9039019,2.52174404 C91.0236883,1.75805346 91.4831256,2.24270152 91.6341932,2.57848384 C91.9105814,3.19566817 91.5039645,4.10659225 91.5039645,4.10659225 L91.5039645,4.10659481 Z M92.0447483,4.42852495 C93.2760464,1.65219417 92.3092047,1.04541678 92.0627384,0.882639454 C91.4859728,0.4996746 90.7606275,0.981117607 90.1036078,1.49734496 C89.3636675,2.07878108 88.9658321,2.70866678 89.0778876,3.60277178 C89.1814039,4.4254418 90.5783695,5.31162381 90.8021214,5.44791262 C90.8214439,5.46037364 90.8322257,5.46624122 90.8322257,5.46624122 L90.8689321,5.48838068 C90.2711508,6.29725844 87.8740297,8.56619499 85.4487278,10.168463 C83.9081468,11.1863962 79.7487691,14.0377931 79.7487691,14.0377931 C79.7487691,14.0377931 80.6895069,13.6903363 80.8197381,13.5969996 C81.3987439,13.3276357 84.0784914,11.8197292 86.3361,10.5150113 C88.5939077,9.21089773 91.2422177,5.783514 91.2422177,5.783514 C91.2422177,5.78333253 91.3724473,5.87630624 91.391769,5.85761474 C91.8578076,6.06291912 92.3620673,7.06875217 92.3620673,7.06875217 C92.3620673,7.06875217 92.3620673,7.18065947 92.5102862,6.97553638 C92.6605645,6.77101815 92.790067,5.61547022 92.790067,5.31755642 C92.790067,5.0196411 92.0448539,4.42852685 92.0448539,4.42852685 L92.0447331,4.42852685 L92.0447483,4.42852495 Z" id="_373770136"></path>
                            <path d="M138.191879,10.7837735 C138.191879,10.7837735 137.267619,9.97677025 137.132059,9.88948418 C136.91176,9.74715041 136.91176,9.51631879 136.91176,9.51631879 C137.807856,8.90518299 138.175829,9.29286733 138.296002,9.56114223 C138.517088,10.0561957 138.191698,10.7840182 138.19188,10.7837724 L138.191879,10.7837735 Z M138.625209,11.0418255 C139.61083,8.82049861 138.83624,8.33506034 138.639201,8.20500445 C138.177705,7.8983784 137.596823,8.28382357 137.071911,8.69667051 C136.480371,9.16166011 136.161097,9.66584678 136.250618,10.3807856 C136.332753,11.0395874 137.451812,11.7480526 137.630137,11.857479 C137.645644,11.8669156 137.654184,11.8718757 137.654184,11.8718757 L137.684288,11.889055 C137.205591,12.5363026 135.288315,14.3523481 133.348509,15.6335941 C132.114544,16.4483411 128.787102,18.729011 128.787102,18.729011 C128.787102,18.729011 129.540248,18.4509365 129.645159,18.3766545 C130.107381,18.1604013 132.252221,16.9544027 134.057803,15.9111232 C135.864168,14.8678436 137.9823,12.1257553 137.9823,12.1257553 C137.9823,12.1257553 138.086421,12.1996747 138.102474,12.1850964 C138.474989,12.3492068 138.878944,13.154457 138.878944,13.154457 C138.879126,13.154457 138.878944,13.2433174 138.997785,13.079207 C139.116627,12.9153382 139.220931,11.9909246 139.220931,11.7525895 C139.220931,11.51462 138.625267,11.0418247 138.625267,11.0418247 L138.625207,11.0418247 L138.625209,11.0418255 Z" id="_373770328"></path>
                            <path d="M99.1724584,6.62735143 L99.1716714,6.97329587 C99.1716714,6.97329587 98.680859,6.5825883 98.0230531,6.37861551 C98.0084556,6.38653973 97.8647795,6.31092691 97.8647795,6.28068177 C97.8647795,6.25043658 97.9931312,5.08048903 98.0838071,4.98201241 C98.1746646,4.88371556 98.4158004,4.75571797 98.4919389,4.75571797 C98.5674711,4.75571797 99.955712,5.30599987 100.594741,7.85851503 C100.602131,7.85851503 100.883244,9.032209 100.883244,9.032209 L100.967499,8.35586603 C100.967499,8.35586603 101.267147,5.54058093 101.32263,5.27575216 C101.398163,4.91486619 101.674491,4.2842563 102.119876,4.27669181 C102.566046,4.26894904 103.356687,5.01787842 103.356687,5.01787842 L102.965454,6.04718135 C102.965454,6.04718135 102.334964,5.48123273 102.085831,5.46441877 C101.563765,5.42945532 101.466305,6.29501178 101.330018,7.77460914 C101.193732,9.25457016 101.102875,9.58665986 101.004809,9.8129543 C100.907349,10.0396118 100.800379,10.2059604 100.800379,10.2059604 C100.326406,7.77630027 99.1957758,6.59752573 99.1957758,6.59752573 L99.1725159,6.62740801 L99.1724552,6.62734753 L99.1724584,6.62735143 Z" id="_373770520"></path>
                            <path d="M122.263073,13.4437895 L122.263073,13.7891291 C122.263073,13.7891291 121.772261,13.3979979 121.114455,13.194085 C121.099131,13.2018278 120.95491,13.1262146 120.95491,13.0963326 C120.95491,13.0659059 121.083079,11.8954177 121.174482,11.7976632 C121.26534,11.6997295 121.507081,11.5708244 121.581826,11.5708244 C121.658692,11.5708244 123.046328,12.1216491 123.685357,14.6741643 C123.694079,14.6741643 123.97386,15.8474947 123.97386,15.8474947 L124.057328,15.1713309 C124.057328,15.1713309 124.357703,12.355503 124.413973,12.0914014 C124.489506,11.7305155 124.764501,11.0999056 125.21049,11.0919775 C125.656661,11.0845977 126.44785,11.8331641 126.44785,11.8331641 L126.056618,12.862467 C126.056618,12.862467 125.425522,12.296882 125.17718,12.2798837 C124.654385,12.2449202 124.556864,13.1106611 124.420582,14.5902533 C124.284295,16.0697892 124.193619,16.402304 124.095373,16.6285984 C123.997913,16.8550747 123.890398,17.0212419 123.890398,17.0212419 C123.417576,14.5921913 122.285794,13.4131709 122.285794,13.4131709 L122.26308,13.4437791 L122.263073,13.4437895 Z" id="_373770712"></path>
                            <path d="M99.9899255,17.6177783 C99.9899255,17.6177783 99.7326775,17.7151072 99.6224974,17.8557478 C99.5131052,17.9950573 98.6997497,19.0507985 98.2395887,20.9201898 C97.7635569,22.8613899 98.8453045,23.2087827 98.8453045,23.2087827 C98.8453045,23.2087827 99.5363658,23.5324065 100.16219,21.9845802 C100.16219,21.9745389 100.392544,21.4760977 100.381217,21.2067338 C100.381217,21.2067338 100.371949,20.9967109 100.202894,21.1467879 C99.8884662,21.4233501 99.9451014,21.7766122 99.8322557,21.9046143 C99.622739,22.1445192 99.6125019,22.1146372 99.5432079,22.1344779 C99.4730053,22.1543189 98.4601263,22.1218355 98.7805484,20.5749747 C99.1477941,19.4093829 99.3421695,19.0213406 99.6660435,18.3302373 C99.6660435,18.3100335 99.9899199,17.6177825 99.9899199,17.6177825 L99.9899255,17.6177783 Z" id="_373770904"></path>
                            <path d="M52.3358202,22.3440209 C52.3358202,22.3440209 52.0782089,22.4413498 51.9685745,22.581446 C51.8585765,22.7211186 51.044673,23.7764967 50.5854813,25.6460108 C50.1086613,27.5873902 51.1908324,27.9338816 51.1908324,27.9338816 C51.1908324,27.9338816 51.88232,28.2575055 52.5079025,26.7108264 C52.5080842,26.700785 52.7378933,26.2015577 52.7276565,25.9325549 C52.7278382,25.9325549 52.7172381,25.722532 52.548001,25.8724272 C52.2337553,26.1491707 52.2909349,26.5020722 52.1779691,26.6304329 C51.9686335,26.8701564 51.9582151,26.8400926 51.8885576,26.8599334 C51.8187186,26.8801372 50.8060194,26.8472909 51.1255391,25.3009729 C51.4933299,24.1352019 51.6878886,23.7467345 52.0117623,23.0559898 C52.0117623,23.0361489 52.3358206,22.3438985 52.3358206,22.3438985 L52.3358206,22.3440195 L52.3358202,22.3440209 Z" id="_373771096"></path>
                            <path d="M109.22771,9.84586926 C109.22771,9.84586926 102.624076,12.1500111 99.6799132,13.1832473 C96.7344384,14.2163044 91.2174919,16.6001679 91.2174919,16.6001679 L90.6873075,18.0305833 C90.6873075,18.0305833 106.867098,11.7000752 108.167147,11.4613099 C108.141222,11.4346336 109.227515,9.84603315 109.227694,9.84585392 L109.22771,9.84586926 Z" id="_373771288"></path>
                            <path d="M135.728709,27.2638571 C133.591315,28.0436395 130.36261,28.7203461 130.36261,28.7203461 C130.36261,28.7203461 129.170683,24.9017089 129.231977,24.6145605 C129.294063,24.3266864 129.828968,23.48569 130.608829,23.2183825 C131.390202,22.9520434 133.060829,22.8520524 134.782397,23.7115609 C136.438484,24.5376163 139.084134,25.6833672 139.324481,25.7434939 C139.577004,25.807009 139.715168,25.8461461 139.715168,25.8461461 C139.715168,25.8461461 136.127268,27.1185011 135.728587,27.2639215 L135.728708,27.2638611 L135.728709,27.2638571 Z M112.335057,28.3956314 C112.308346,28.3734919 112.237598,28.2126481 112.297018,28.1485887 C112.356439,28.0845291 112.727865,27.2459512 113.717426,27.4663763 C113.734083,27.4663763 114.936067,27.9083191 115.347349,28.7822233 C115.347349,28.7822233 113.067007,28.9971459 112.335061,28.3956288 L112.335057,28.3956314 Z M145.403946,24.539187 C144.34564,24.4089514 140.975979,23.6609281 137.329949,21.7751377 C133.684084,19.8895317 131.779689,20.3936585 131.730097,20.4095659 C128.181747,21.3044596 128.116997,25.2541207 128.148982,25.7745134 C128.181751,26.2945476 128.816787,28.651984 128.816787,28.651984 C128.816787,28.651984 128.514292,28.5669345 128.470741,28.5669345 C125.846657,27.4928643 124.167671,24.6140673 123.910061,24.2274744 C121.715065,20.5313285 117.110881,15.7620088 116.680814,15.2886778 C116.250211,14.8164893 112.291674,11.120343 112.291674,11.120343 L114.658877,9.87424096 C121.930843,6.7801556 129.016393,4.77507989 132.601553,4.28794123 C135.127756,3.94502105 134.796549,5.66294688 134.667046,5.83498391 C134.538877,6.00641353 133.348099,8.0693194 133.175831,8.32718802 C133.004172,8.58499825 131.467711,11.6764839 131.138564,12.6248515 C130.623161,14.1144256 130.82341,14.486627 130.82341,14.486627 C130.82341,14.486627 131.311557,13.5267054 131.311557,13.4843606 C132.028784,11.7936541 133.405641,9.35818616 134.581454,7.33889313 C135.323457,6.06442296 136.244871,4.88957663 136.345603,2.87016577 C136.448575,0.798551238 130.88073,2.01023155 130.794573,2.05354426 C119.634973,4.68904857 111.731342,8.84304307 111.731342,8.84304307 L110.871406,10.4326098 L110.269686,12.3667882 C110.269686,12.3667882 112.678921,15.2886573 112.721686,15.2886573 C116.107276,19.3571839 120.433618,26.2512232 120.467671,26.3759834 C120.553198,26.6907153 120.754053,27.0060535 120.581788,27.2062128 C120.217208,27.6321257 117.800037,28.3810591 117.800037,28.3810591 L117.585008,28.0092244 C113.927024,21.3910405 111.043633,26.934975 110.957322,27.2782603 C109.853039,29.4698875 111.002205,30.4338039 111.002205,30.4761486 C112.479184,32.4649533 116.340817,31.1455367 116.469745,31.3175123 C116.599429,31.4900916 116.816336,32.1386714 116.816336,32.1823426 C111.736073,37.7068255 106.393276,39.02362 105.465036,39.0958335 C100.125809,39.4767415 100.433595,35.0093406 100.605858,33.4549383 C100.763526,32.0455109 101.837946,28.7712863 101.837946,28.7712863 L101.341077,29.2466803 C101.341077,29.2466803 101.275599,29.3839329 101.103878,29.6842677 C99.914007,31.9231972 99.6121188,35.0112135 99.6121188,35.4410629 C99.5248355,43.2324338 105.808968,43.1061882 110.763719,39.6929962 C115.861548,36.1815274 116.590709,34.9350617 117.227091,33.9732809 C117.731895,33.2092266 117.991627,30.8304386 117.991627,30.8304386 L119.945609,29.9688143 C119.945609,29.9688143 121.150013,29.042162 121.378494,27.0590423 C121.606183,25.0761069 121.020576,24.0029432 121.020576,24.0029432 L121.052013,23.7105325 C121.052013,23.7105325 122.420203,26.0346944 124.715264,28.9444716 C127.010381,31.8548479 129.549246,31.6100444 129.549246,31.6100444 L129.728115,33.4795585 L129.939146,33.4150754 C129.939146,33.4150754 130.020554,33.3982592 130.216261,32.9436133 C130.411241,32.4878783 130.450613,31.4472019 130.450613,31.4472019 C130.450795,31.4470205 131.094371,31.2874468 131.110479,31.3031745 C133.549033,30.902607 139.938248,27.6272331 142.441727,27.1782703 C143.56079,26.9776838 145.080529,27.2062168 145.080529,27.2062168 L146.323945,24.6034339 C146.287239,24.6181936 146.116306,24.6266622 145.403803,24.5391327 L145.403984,24.5391327 L145.403946,24.539187 Z M146.335551,24.5875794 L146.324027,24.6123895 C146.353216,24.6008806 146.335551,24.5875794 146.335551,24.5875794 L146.335551,24.5875794 Z" id="_373771480"></path>
                            <path d="M7.26463298,48.2380758 C6.83003146,47.9881901 6.2990581,47.8638216 5.67274729,47.8638216 C5.25553002,47.8638216 4.83952613,47.9530452 4.4276388,48.1301608 C4.01387396,48.3065505 3.64511184,48.5722853 3.32354074,48.9271207 C3.00081523,49.280264 2.74071876,49.7217812 2.54010606,50.2537382 C2.34118882,50.7837542 2.24179071,51.4083187 2.24179071,52.1247684 C2.24179071,52.669181 2.31544579,53.1746393 2.46572428,53.6375736 C2.61618432,54.1006883 2.83012316,54.5010724 3.11081016,54.8416946 C3.39283156,55.1821345 3.73851588,55.4465976 4.14506968,55.6375074 C4.55295891,55.8282338 5.02069245,55.9227802 5.54542506,55.9227802 C5.66505419,55.9227802 5.79849358,55.9169127 5.94840795,55.9033023 C6.09868593,55.8902364 6.24272572,55.8745694 6.38300948,55.8556358 C6.52517124,55.8380331 6.6537043,55.8119618 6.7713949,55.7800227 C6.88896445,55.7494145 6.97546054,55.7149953 7.0295513,55.6779753 C7.04548164,55.5690929 7.05493081,55.4329895 7.05983711,55.2681528 C7.06401655,55.1061595 7.06534911,54.9237202 7.06534911,54.7231922 C7.06534911,53.9878696 7.05244734,53.4441842 7.02694668,53.0944868 C7.00193062,52.7440051 6.98527342,52.5050662 6.97679336,52.3774942 C7.06843835,52.3956414 7.18879417,52.4119133 7.33834546,52.4262495 C7.48710953,52.4385291 7.70328948,52.4457274 7.98531345,52.4457274 C8.31161293,52.4457274 8.55620166,52.4387106 8.71465891,52.4262495 C8.87517366,52.4118528 9.00031482,52.3956414 9.08965763,52.3774942 C9.07148613,52.4510505 9.0561615,52.5690069 9.04216954,52.7323312 C9.02835921,52.895111 9.01757738,53.0841434 9.00885513,53.2969482 C8.9986185,53.5105397 8.99256134,53.7371973 8.98686767,53.9781926 C8.98311217,54.2190049 8.98117392,54.4477797 8.98117392,54.6651218 L8.98117392,55.1146259 C8.98117392,55.3411021 8.98305163,55.5528187 8.98668588,55.747477 C8.99122875,55.9429214 9.0003145,56.0822309 9.01600254,56.1623807 C8.41804154,56.3361094 7.81177767,56.4708817 7.19982126,56.5706909 C6.58708019,56.6703188 5.98100093,56.7204047 5.38303478,56.7204047 C4.60238995,56.7204047 3.88255255,56.6181157 3.22516877,56.4135975 C2.56681574,56.2098055 1.99992769,55.911527 1.5232892,55.5156769 C1.04646916,55.1223077 0.675103361,54.6449773 0.407436855,54.0867723 C0.140376526,53.5274152 0.00669507304,52.8996497 0.00669507304,52.2008028 C0.00669507304,51.3378469 0.148856845,50.5830472 0.435057896,49.9339251 C0.721440493,49.2846186 1.11594512,48.7447436 1.61959488,48.3142951 C2.12270309,47.8831193 2.72011845,47.5588912 3.41136503,47.3405812 C4.10091411,47.1231787 4.84691148,47.0137513 5.6451262,47.0137513 C6.33412655,47.0137513 6.93209269,47.0848278 7.43574246,47.2266171 C7.93963788,47.3685882 8.437052,47.5717754 8.9271372,47.8370257 C8.85542013,48.0719704 8.78461232,48.3031645 8.71762007,48.530367 C8.64875027,48.7572058 8.59266094,48.9882188 8.54668691,49.2246763 L8.35552282,49.2246763 C8.06611133,48.8176967 7.70116991,48.4874179 7.26468678,48.2379589 L7.26462621,48.2380798 L7.26463298,48.2380758 Z" id="_373771672"></path>
                            <path d="M18.3855652,50.0065885 C18.2401931,49.5383323 18.0387927,49.1417581 17.7798501,48.8149281 C17.5197557,48.487917 17.2079927,48.2372461 16.8389326,48.058797 C16.4707782,47.8816809 16.0713703,47.7930023 15.6337384,47.7930023 C15.1716979,47.7930023 14.7559925,47.9056353 14.3872965,48.1264256 C14.0208381,48.349091 13.7090761,48.651904 13.4550408,49.034328 C13.2008215,49.4144499 13.0081435,49.8608084 12.8777319,50.3751577 C12.7459884,50.8883598 12.6789962,51.4354356 12.6789962,52.0155964 C12.6789962,52.7418436 12.7550739,53.355279 12.9116516,53.8546888 C13.0655641,54.3548842 13.2739304,54.7559947 13.5370547,55.0595984 C13.8003595,55.3630184 14.104912,55.5838067 14.4488378,55.7191276 C14.794278,55.8559567 15.1575261,55.9231013 15.5394892,55.9231013 C15.9478025,55.9231013 16.3386731,55.8384149 16.7098564,55.6652911 C17.0818268,55.4919255 17.4071596,55.2301231 17.6842727,54.8758905 C17.9608426,54.5208723 18.1828376,54.072334 18.350744,53.5271378 C18.5197996,52.9827251 18.6034489,52.3394672 18.6034489,51.5942857 C18.6034489,51.0029907 18.5303995,50.4748492 18.3855724,50.0065936 L18.3855652,50.0065885 Z M10.8188183,49.9956396 C11.0678887,49.405497 11.4201744,48.8884844 11.873735,48.4442437 C12.3299,47.9994575 12.8777114,47.6497626 13.5222536,47.3958836 C14.1680677,47.1425495 14.8849358,47.0142498 15.6755758,47.0142498 C16.4022545,47.0142498 17.0785365,47.1152083 17.7045447,47.3138588 C18.3312811,47.5144453 18.875635,47.811937 19.3397961,48.2132902 C19.8028059,48.6117405 20.1686582,49.1178021 20.4369298,49.7304488 C20.7039902,50.3432747 20.8380352,51.0583928 20.8380352,51.8750143 C20.8380352,52.5549885 20.7098657,53.1904976 20.4503765,53.7799182 C20.1912508,54.3698816 19.8323634,54.8857418 19.3737154,55.3259929 C18.91434,55.7655162 18.3682261,56.1080134 17.7316791,56.3535442 C17.0966449,56.5996799 16.3972236,56.7208419 15.6338409,56.7208419 C14.9167934,56.7208419 14.2429937,56.6329493 13.6112928,56.4563777 C12.9803768,56.2792617 12.431115,55.9921138 11.9627743,55.5987431 C11.4948582,55.2027122 11.125553,54.6993117 10.8531632,54.0872694 C10.5805909,53.473834 10.4446683,52.741902 10.4446683,51.888805 C10.4446683,51.2171789 10.5688401,50.5862023 10.8188799,49.9956345 L10.8188193,49.9956345 L10.8188183,49.9956396 Z" id="_373771864"></path>
                            <path d="M27.3192355,50.5475747 C27.7642554,49.3804721 28.1649957,48.2636988 28.5193424,47.1916875 C28.7466678,47.2385676 28.9452215,47.2614329 29.1176675,47.2614329 C29.2904786,47.2614329 29.4900015,47.2385675 29.7176901,47.1916875 C29.4900015,47.7256983 29.2170051,48.370462 28.8997926,49.1239915 C28.5819735,49.8780639 28.2511322,50.6765398 27.9054474,51.5197727 C27.561158,52.365126 27.2192933,53.2229399 26.8842704,54.0936395 C26.5480978,54.9635505 26.2489952,55.7822923 25.9849648,56.5440469 C25.8036133,56.5200322 25.6040903,56.5082971 25.3851216,56.5082971 C25.1682144,56.5082971 24.9669955,56.5200322 24.7864324,56.5440469 C24.649601,56.1807415 24.4835743,55.7404904 24.2895633,55.2234831 C24.0932508,54.7064705 23.8848845,54.156793 23.663191,53.5764478 C23.4390759,52.9950116 23.2053301,52.4010585 22.961103,51.7919816 C22.7159696,51.1844155 22.4799217,50.5971152 22.2522352,50.029835 C22.0252733,49.4625548 21.8117581,48.933266 21.6118726,48.4440173 C21.4127133,47.9536818 21.2400837,47.5349677 21.0951351,47.1916824 C21.3039256,47.2094666 21.5098693,47.2268273 21.7150252,47.2406191 C21.9192729,47.2547738 22.1198861,47.2614278 22.3207403,47.2614278 C22.5198997,47.2614278 22.7201498,47.2550158 22.9203989,47.2406191 C23.1202854,47.2268273 23.3190206,47.209406 23.5196933,47.1916824 C23.6741509,47.6990761 23.848658,48.2351412 24.0436361,48.7984881 C24.2399486,49.3605033 24.441107,49.9341957 24.6493513,50.5190786 C24.8585053,51.1051087 25.0748668,51.692409 25.2963192,52.2818295 C25.5192835,52.8731246 25.7344942,53.4534698 25.9438924,54.0252826 C26.4156245,52.8731194 26.8757276,51.7140064 27.3192315,50.547626 L27.3192315,50.5475655 L27.3192355,50.5475747 Z" id="_373772056"></path>
                            <path d="M30.949834,48.9567277 C30.9322076,48.3705132 30.9055561,47.7818814 30.8693951,47.1930703 C31.2795865,47.2015994 31.6850515,47.2159357 32.0855538,47.2348692 C32.4872043,47.2543471 32.8923073,47.2628157 33.3011637,47.2628157 C33.9723583,47.2628157 34.5703193,47.2564038 35.0923903,47.242007 C35.614092,47.2282153 35.9659566,47.210794 36.1483942,47.1930703 C36.1125964,47.3384288 36.094667,47.5286103 36.094667,47.7662146 C36.0948488,47.9108475 36.0982408,48.024811 36.1081139,48.1055052 C36.1162306,48.1888611 36.1296774,48.2780846 36.1484547,48.379587 C35.8844227,48.3607141 35.5965262,48.3431113 35.282463,48.3255083 C34.9708826,48.3066353 34.6654193,48.2892142 34.3695261,48.2700992 C34.0755719,48.2532828 33.8094177,48.2388861 33.5739781,48.2292681 C33.3373851,48.220739 33.1691172,48.2162022 33.0699012,48.2162022 C33.0318622,48.7142804 33.0098748,49.2080617 33.0053315,49.6970697 C33.0011521,50.1868608 32.9979418,50.6796746 32.9979418,51.1787208 C33.5886974,51.1689213 34.1223329,51.1563998 34.5987304,51.1382527 C35.0755504,51.12065 35.5724184,51.0985711 36.0910329,51.0717134 C36.0630488,51.2261452 36.0457858,51.3439202 36.0353676,51.4254011 C36.0262819,51.5068814 36.021739,51.5915683 36.021739,51.6832113 C36.021739,51.7561628 36.0291288,51.8304448 36.0425757,51.9085383 C36.0571735,51.9846958 36.0718923,52.0949094 36.091033,52.240691 C35.0552555,52.1586662 34.0245704,52.1163225 32.9978804,52.1163225 C32.9978804,52.4068578 32.995397,52.6947318 32.9897638,52.9856906 C32.9835249,53.2755001 32.9808598,53.5654314 32.9808598,53.8557859 C32.9808598,54.4444177 32.9926107,55.0098235 33.0160518,55.5529045 C33.5337586,55.5529045 34.0506755,55.5398386 34.5680181,55.5145536 C35.0868736,55.489813 35.6094881,55.4480142 36.1354926,55.3883101 C36.1178662,55.487938 36.1035108,55.5790366 36.0946067,55.6605169 C36.0849758,55.7418159 36.0815233,55.8552357 36.0815233,56.0004123 C36.0815233,56.1463153 36.0849153,56.2590087 36.0946067,56.3416389 C36.1035108,56.422333 36.1178662,56.491534 36.1354926,56.5454308 C35.8913285,56.5336957 35.5880463,56.5246221 35.2289764,56.5182102 C34.8716039,56.5123426 34.3783084,56.5096811 33.7519976,56.5096811 L32.4044596,56.5096811 L31.5963726,56.5096811 C31.3926701,56.5096811 31.2376673,56.5123427 31.1346958,56.5182102 C31.0300282,56.5246221 30.9425624,56.5336957 30.8693314,56.5454308 C30.9054926,55.9828676 30.9322045,55.4083916 30.9497704,54.8236931 C30.9677601,54.2382673 30.9772092,53.5692429 30.9772092,52.8146226 L30.9772092,50.9630696 C30.9772092,50.2089972 30.9677601,49.5408179 30.9497704,48.9566622 L30.9498309,48.9567228 L30.949834,48.9567277 Z" id="_373772248"></path>
                            <path d="M41.9572748,48.7998555 C41.8741707,48.5654552 41.7506045,48.3856775 41.5830633,48.2639702 C41.4147954,48.1409329 41.1963738,48.0620532 40.9283463,48.0255777 C40.6606803,47.9885576 40.3408011,47.9701685 39.9688332,47.9701685 C39.9446045,49.2030212 39.9332776,50.4370263 39.9332776,51.6704884 C39.9876105,51.6790175 40.0402473,51.685611 40.0897949,51.6914786 C40.1390396,51.6960154 40.1872544,51.6978905 40.2325018,51.6978905 C40.8294935,51.6978905 41.2875979,51.5370466 41.6042663,51.216024 C41.9205716,50.8935495 42.0807228,50.4058146 42.0807228,49.7533072 C42.0807228,49.3540702 42.0385043,49.0363146 41.9572775,48.7998591 L41.9572748,48.7998555 Z M39.9332755,52.2591207 L39.9332755,52.8167827 C39.9332755,53.5695235 39.9423611,54.2383072 39.960351,54.8225857 C39.9785225,55.4093431 40.0037203,55.9823082 40.0402447,56.5443235 C39.8844542,56.5203087 39.7177008,56.5085737 39.5361678,56.5085737 L38.922519,56.5085737 L38.3088702,56.5085737 C38.1273372,56.5085737 37.9604017,56.5203088 37.8055805,56.5443235 C37.8407726,55.9817602 37.8674849,55.4072842 37.8843234,54.8225857 C37.9026766,54.2371599 37.9123075,53.5681356 37.9123075,52.8135152 L37.9123075,50.9619622 C37.9123075,50.2078899 37.9026766,49.5397105 37.8843234,48.9555549 C37.8674846,48.3693404 37.8407724,47.7807086 37.8055805,47.1918974 C37.9604017,47.2096816 38.1273372,47.2270424 38.3096574,47.2408342 C38.4908273,47.2549889 38.6965284,47.2616429 38.9234909,47.2616429 C39.1684426,47.2616429 39.4484029,47.2506941 39.7624096,47.2270424 C40.0758676,47.2030277 40.464072,47.1918974 40.927869,47.1918974 C41.2733092,47.1918974 41.5691393,47.2004266 41.8133639,47.2187552 C42.0596481,47.2369023 42.2699529,47.2649094 42.4478494,47.3000542 C42.6250212,47.3373163 42.7804481,47.3847406 42.9115859,47.4433559 C43.0426021,47.5033018 43.1680463,47.572261 43.2861611,47.6537414 C43.559097,47.8543278 43.7752769,48.1017332 43.9340983,48.3968076 C44.0944315,48.6916981 44.1723873,49.0435124 44.1723873,49.4510369 C44.1723873,50.1134085 43.9914599,50.6540721 43.6282129,51.070667 C43.263632,51.4888372 42.7413846,51.7852421 42.0595896,51.9557017 C42.4941912,52.7286469 42.9622904,53.4959072 43.461822,54.2643813 C43.9625071,55.0309143 44.4612546,55.7915832 44.9600016,56.5443239 C44.7518168,56.5203092 44.5475691,56.5085741 44.3467118,56.5085741 L43.7351195,56.5085741 L43.1152295,56.5085741 C42.909831,56.5085741 42.704493,56.5203093 42.4941906,56.5443239 L40.0560012,52.2591212 L39.9333438,52.2591212 L39.9332832,52.2591212 L39.9332755,52.2591207 Z" id="_373772440"></path>
                            <path d="M46.3308244,48.3213517 C46.3122895,47.8948944 46.2980552,47.5185225 46.2889694,47.1920562 C46.5426436,47.2389363 46.7477996,47.2618016 46.90129,47.2618016 C47.0578072,47.2618016 47.2613277,47.2389362 47.515908,47.1920562 C48.5074069,48.2894139 49.4875157,49.3698911 50.4559317,50.4313163 C51.4237477,51.4934686 52.4179083,52.5732236 53.4368441,53.6726351 L53.4368441,52.4866597 L53.4368441,51.1666387 C53.4368441,50.7223969 53.434179,50.2834784 53.4298178,49.852487 C53.4260624,49.4218556 53.4220646,49.0247364 53.4171583,48.6627012 C53.4127973,48.2992145 53.4031663,47.9865374 53.3902646,47.7222566 C53.3768177,47.4591231 53.3620382,47.2820076 53.3431398,47.1919999 C53.59851,47.2388799 53.8023335,47.2617453 53.958122,47.2617453 C54.1116104,47.2617453 54.3173725,47.2388799 54.5717708,47.1919999 C54.5227683,48.0171487 54.4847295,48.7642046 54.457048,49.4303251 C54.4273074,50.0972343 54.403866,50.7276629 54.3841801,51.3162947 C54.3656452,51.9062581 54.3525617,52.4892666 54.348988,53.0661599 C54.3421434,53.6425103 54.3415984,54.2580045 54.3415984,54.9111164 L54.3415984,56.5443593 C54.1600653,56.5203446 53.9730804,56.5086095 53.7833721,56.5086095 C53.5825164,56.5086095 53.4061318,56.5203447 53.2514906,56.5443593 C51.3806149,54.3659764 49.397258,52.1739293 47.2991634,49.9688889 C47.2883818,50.2320225 47.2789325,50.495156 47.2739657,50.756958 C47.2663941,51.0219665 47.264153,51.2896372 47.264153,51.5624504 L47.264153,53.1404629 C47.264153,53.6848755 47.2663941,54.1472669 47.2713611,54.5288971 C47.2753587,54.9111363 47.283112,55.2334291 47.2933485,55.4960197 C47.3037669,55.7596977 47.3124892,55.9746197 47.3232709,56.1419357 C47.3330836,56.3105224 47.3435019,56.443662 47.3530116,56.5443782 C47.2438008,56.5203635 47.1351352,56.5086285 47.0267121,56.5086285 L46.7128906,56.5086285 C46.5039186,56.5086285 46.2954912,56.5203636 46.0873079,56.5443782 C46.1049343,56.4714268 46.1280121,56.2130118 46.1544818,55.7676227 C46.1821025,55.3233809 46.2114798,54.7816274 46.2430979,54.1421235 C46.2758672,53.5011086 46.3025187,52.807583 46.3265657,52.0574439 C46.3477658,51.3090564 46.3600618,50.5907323 46.3600618,49.9019286 C46.3602435,49.2739788 46.350007,48.7492227 46.3309269,48.3212529 L46.3308058,48.3213739 L46.3308244,48.3213517 Z" id="_373772632"></path>
                            <path d="M57.6021726,53.49583 C57.5286991,54.5103726 57.4554681,55.5283058 57.3841147,56.5441852 C57.2745408,56.5201705 57.1662383,56.5084354 57.0572095,56.5084354 L56.743388,56.5084354 L56.4240544,56.5084354 C56.3187806,56.5084354 56.2124171,56.5201706 56.1039941,56.5441852 C56.3932234,54.9825667 56.6518045,53.4308019 56.8806439,51.8886606 C57.1076058,50.3444604 57.3160326,48.7802401 57.5060469,47.1917592 C57.6054451,47.2095434 57.6987256,47.226904 57.7854641,47.2406959 C57.8715971,47.2548507 57.9658464,47.2615047 58.0642752,47.2615047 C58.1473794,47.2615047 58.2335123,47.2550926 58.3237639,47.2406959 C58.4151664,47.2269041 58.5096582,47.2094829 58.609965,47.1917592 C58.8547348,47.7350246 59.1111952,48.2891169 59.3797684,48.8518594 C59.6481611,49.4144228 59.9148604,49.9758337 60.183491,50.5327684 C60.4513386,51.0926686 60.7195523,51.640528 60.9870341,52.1737501 C61.2550638,52.710419 61.5117667,53.2183612 61.7561144,53.6982887 C62.3010786,52.6824145 62.8439196,51.6183877 63.3845246,50.5059061 C63.9243399,49.3936089 64.4401695,48.2891118 64.9306137,47.1917592 C65.1583022,47.2386392 65.3529193,47.2615046 65.5154921,47.2615046 C65.6703134,47.2615046 65.8620831,47.2386392 66.0890471,47.1917592 C66.1800865,47.9726324 66.2762742,48.8121165 66.3818504,49.709489 C66.4851857,50.6089204 66.5876121,51.4862114 66.6887062,52.3438461 C66.7876801,53.2020236 66.8870782,54.0024304 66.987203,54.7468281 C67.0867827,55.4918303 67.1776405,56.0910483 67.2603206,56.5441186 C67.0787875,56.5201039 66.8944073,56.5083688 66.7091202,56.5083688 L66.1565865,56.5083688 L65.5974475,56.5083688 C65.4071921,56.5083688 65.2158465,56.520104 65.025226,56.5441186 C64.9797972,55.6097226 64.9054153,54.5970544 64.8018986,53.5075019 C64.6972311,52.4192195 64.5902613,51.3381943 64.480869,50.2676938 L64.4536118,50.2675124 C63.9355409,51.3381921 63.427891,52.3926007 62.928903,53.4260777 C62.4278544,54.4610092 61.9341936,55.5003554 61.4437496,56.5441778 C61.3977756,56.5324427 61.3540431,56.5233692 61.3140657,56.5169571 C61.2735432,56.5110896 61.2298107,56.5084281 61.1848059,56.5084281 C61.1391955,56.5084281 61.0958262,56.5110896 61.0557277,56.5169571 C61.0146602,56.5233692 60.9707455,56.5324427 60.9260439,56.5441778 C60.43505,55.5283036 59.9481762,54.5103704 59.4617271,53.4958226 C58.9748523,52.4772851 58.4736847,51.44768 57.9565216,50.4051276 L57.9292643,50.4049462 C57.7829235,51.4476214 57.6758327,52.477288 57.6021777,53.4958255 L57.6021726,53.49583 Z" id="_373772824"></path>
                            <path d="M68.7918255,48.9567277 C68.7738357,48.3705132 68.7471842,47.7818814 68.7122948,47.1930703 C69.1209717,47.2015994 69.5269819,47.2159357 69.9263919,47.2348692 C70.3290117,47.2543471 70.7336889,47.2628157 71.1429146,47.2628157 C71.8147143,47.2628157 72.4117112,47.2564038 72.9331719,47.242007 C73.4561455,47.2282153 73.8086152,47.210794 73.9903298,47.1930703 C73.9536234,47.3384288 73.9348461,47.5286103 73.9348461,47.7662146 C73.9348461,47.9108475 73.9401764,48.024811 73.9488382,48.1055052 C73.9588931,48.1888611 73.9715525,48.2780846 73.9902692,48.379587 C73.7264192,48.3607141 73.437915,48.3431113 73.1240929,48.3255083 C72.8123309,48.3066353 72.5070491,48.2892142 72.2126739,48.2700992 C71.9160546,48.2532828 71.6515963,48.2388861 71.4154285,48.2292681 C71.1782298,48.220739 71.0107496,48.2162022 70.9104428,48.2162022 C70.8725855,48.7142804 70.8525364,49.2080617 70.8470245,49.6970697 C70.8424816,50.1868608 70.8404222,50.6796746 70.8404222,51.1787208 C71.430029,51.1689213 71.9628748,51.1563998 72.4404825,51.1382527 C72.9173025,51.12065 73.4166527,51.0985711 73.9327849,51.0717134 C73.9055278,51.2261452 73.8873562,51.3439202 73.8780886,51.4254011 C73.8680336,51.5068814 73.8646416,51.5915683 73.8646416,51.6832113 C73.8648234,51.7561628 73.8706987,51.8304448 73.8841457,51.9085383 C73.8987434,51.9846958 73.9140681,52.0949094 73.9327847,52.240691 C72.8964635,52.1586662 71.8661427,52.1163225 70.8404219,52.1163225 C70.8404219,52.4068578 70.8383625,52.6947318 70.8311544,52.9856906 C70.8258242,53.2755001 70.8224321,53.5654314 70.8224321,53.8557859 C70.8224321,54.4444177 70.8343647,55.0098235 70.8584117,55.5529045 C71.3753286,55.5529045 71.8921276,55.5398386 72.4103779,55.5145536 C72.9279,55.489813 73.4501504,55.4480142 73.9776678,55.3883101 C73.9594963,55.487938 73.9455043,55.5790366 73.9354494,55.6605169 C73.9261819,55.7418159 73.9221842,55.8552357 73.9221842,56.0004123 C73.9221842,56.1463153 73.9261819,56.2590087 73.9354494,56.3416389 C73.9455043,56.422333 73.9594963,56.491534 73.9776678,56.5454308 C73.7325345,56.5336957 73.4306471,56.5246221 73.0713361,56.5182102 C72.7136001,56.5123426 72.2193348,56.5096811 71.5935676,56.5096811 L70.2468194,56.5096811 L69.4387325,56.5096811 C69.2331524,56.5096811 69.0802092,56.5123427 68.976692,56.5182102 C68.8718424,56.5246221 68.7838319,56.5336957 68.7122364,56.5454308 C68.7470651,55.9828676 68.7737771,55.4083916 68.791767,54.8236931 C68.8091511,54.2382673 68.8184791,53.5692429 68.8184791,52.8146226 L68.8184791,50.9630696 C68.8184791,50.2089972 68.8092117,49.5408179 68.791767,48.9566622 L68.7918276,48.9567228 L68.7918255,48.9567277 Z" id="_373773016"></path>
                            <path d="M75.8495276,48.3213517 C75.8302052,47.8948944 75.8162132,47.5185225 75.8074908,47.1920562 C76.0618918,47.2389363 76.2668661,47.2618016 76.4211397,47.2618016 C76.576748,47.2618016 76.7796629,47.2389362 77.0347885,47.1920562 C78.0251335,48.2894139 79.006032,49.3698911 79.9749967,50.4313163 C80.942449,51.4934686 81.9354601,52.5732236 82.9551196,53.6726351 L82.9551196,52.4866597 L82.9551196,51.1666387 C82.9551196,50.7223969 82.952454,50.2834784 82.9471843,49.852487 C82.943187,49.4218556 82.9384619,49.0247364 82.9337377,48.6627012 C82.9297396,48.2992145 82.9224105,47.9865374 82.9083584,47.7222566 C82.8943664,47.4591231 82.8795866,47.2820076 82.8623842,47.1919999 C83.1167851,47.2388799 83.3217599,47.2617453 83.4773663,47.2617453 C83.6303094,47.2617453 83.8332248,47.2388799 84.088415,47.1919999 C84.0416538,48.0171487 84.002888,48.7642046 83.9748431,49.4303251 C83.9447389,50.0972343 83.9214798,50.7276629 83.9033082,51.3162947 C83.8826532,51.9062581 83.871326,52.4892666 83.8659963,53.0661599 C83.8599388,53.6425103 83.8599388,54.2580045 83.8599388,54.9111164 L83.8599388,56.5443593 C83.677073,56.5203446 83.4914207,56.5086095 83.3009842,56.5086095 C83.1007344,56.5086095 82.9244715,56.5203447 82.7694673,56.5443593 C80.899925,54.3659764 78.9144446,52.1739293 76.8177553,49.9688889 C76.8064283,50.2320225 76.797706,50.495156 76.7897712,50.756958 C76.7857735,51.0219665 76.7831689,51.2896372 76.7831689,51.5624504 L76.7831689,53.1404629 C76.7831689,53.6848755 76.7845014,54.1472669 76.7897712,54.5288971 C76.7944958,54.9111363 76.8018855,55.2334291 76.8124855,55.4960197 C76.8212078,55.7596977 76.8325347,55.9746197 76.8418023,56.1419357 C76.8518571,56.3105224 76.8618515,56.443662 76.8705738,56.5443782 C76.7617266,56.5203635 76.6547569,56.5086285 76.5440322,56.5086285 L76.231543,56.5086285 C76.0231162,56.5086285 75.8141437,56.5203636 75.6057758,56.5443782 C75.6231599,56.4714268 75.6466616,56.2130118 75.6725865,55.7676227 C75.7000255,55.3233809 75.7306749,54.7816274 75.7627171,54.1421235 C75.7928212,53.5011086 75.8208055,52.807583 75.8435196,52.0574439 C75.866234,51.3090564 75.8783483,50.5907323 75.8783483,49.9019286 C75.8783483,49.2739788 75.8682935,48.7492227 75.8495768,48.3212529 L75.8495162,48.3213739 L75.8495276,48.3213517 Z" id="_373773208"></path>
                            <path d="M87.9592152,48.6958374 C87.9550356,48.4777087 87.9444354,48.3200709 87.9257191,48.2191124 C87.7896144,48.2191124 87.6213468,48.2244355 87.4209147,48.2340534 C87.2206649,48.2417962 87.0076948,48.2529265 86.7818859,48.2652665 C86.5535913,48.2777275 86.3225102,48.2973869 86.0861003,48.3181954 C85.8512035,48.3403349 85.6319952,48.3643496 85.4324708,48.3909656 C85.4510056,48.2913377 85.46633,48.1917102 85.4797766,48.0902073 C85.4937695,47.9892488 85.5004316,47.8909519 85.5004316,47.7919288 C85.5006139,47.6923009 85.4938294,47.5913424 85.4797766,47.4917754 C85.4665116,47.3921474 85.4510056,47.2923388 85.4324708,47.1927108 C85.7415682,47.2012399 86.0208004,47.2123702 86.2717534,47.2201129 C86.5200975,47.2310618 86.7744984,47.2371107 87.0330796,47.2422524 C87.2914777,47.2467892 87.5733204,47.2515075 87.8784189,47.2560442 C88.183579,47.2611254 88.5494347,47.2624562 88.9755525,47.2624562 C89.4035522,47.2624562 89.7709211,47.2611254 90.0760764,47.2560442 C90.379904,47.2513259 90.6604111,47.2469707 90.9153598,47.2422524 C91.1697606,47.2369293 91.4175585,47.2313036 91.6579057,47.2201129 C91.8977083,47.2123702 92.157985,47.2012399 92.4398269,47.1927108 C92.422443,47.2923388 92.4057861,47.3921474 92.3917333,47.4917754 C92.3790737,47.5914034 92.3724108,47.6923618 92.3724108,47.7919288 C92.3724108,47.8907701 92.3790129,47.9892488 92.3917333,48.0902073 C92.4057254,48.1917102 92.4223823,48.2913381 92.4398269,48.3909656 C92.2581119,48.3642893 92.0551973,48.3403351 91.8261781,48.3181954 C91.5992167,48.2972052 91.3754648,48.2777273 91.1538347,48.2652665 C90.9287504,48.252987 90.7195975,48.2417962 90.5193494,48.2340534 C90.3190996,48.224254 90.1513767,48.2191124 90.0145458,48.2191124 C90.0066104,48.2646616 89.9986151,48.3285393 89.9952233,48.4098388 C89.9898928,48.4913192 89.9872879,48.5877411 89.9872879,48.6958374 L89.9872879,49.4166404 L89.9872879,52.8175305 C89.9872879,53.5702712 89.9958287,54.2390549 90.0140004,54.8233334 C90.0306572,55.4100909 90.0579143,55.9830559 90.0940761,56.5450712 C89.9397997,56.5210565 89.7728646,56.5093214 89.5906049,56.5093214 L88.9756229,56.5093214 L88.3638512,56.5093214 C88.1823177,56.5093214 88.0140493,56.5210566 87.8590468,56.5450712 C87.8946023,55.9830559 87.9213139,55.4100909 87.9398495,54.8233334 C87.9566879,54.2390549 87.9665611,53.5702149 87.9665611,52.8175305 L87.9667427,49.4166404 C87.9667427,49.1523575 87.9638963,48.9132393 87.9593536,48.6958374 L87.959232,48.6958374 L87.9592152,48.6958374 Z" id="_373773400"></path>
                            <path d="M104.926009,50.0065885 C104.77991,49.5383323 104.578873,49.1417581 104.318417,48.8149281 C104.061351,48.487917 103.747529,48.2372461 103.380889,48.058797 C103.012371,47.8816809 102.609752,47.7930023 102.174361,47.7930023 C101.712321,47.7930023 101.296257,47.9056353 100.927555,48.1264256 C100.561097,48.349091 100.249878,48.651904 99.9960846,49.034328 C99.7403513,49.4144499 99.5473091,49.8608084 99.4164725,50.3751577 C99.2856983,50.8883598 99.2188876,51.4354356 99.2188876,52.0155964 C99.2188876,52.7418436 99.2955715,53.355279 99.4511195,53.8546888 C99.6061229,54.3548842 99.814368,54.7559947 100.076159,55.0595984 C100.342129,55.3630184 100.64438,55.5838067 100.990973,55.7191276 C101.334353,55.8559567 101.697599,55.9231013 102.078778,55.9231013 C102.488787,55.9231013 102.878141,55.8384149 103.250658,55.6652911 C103.621296,55.4919255 103.947776,55.2301231 104.224346,54.8758905 C104.501461,54.5208723 104.72388,54.072334 104.890818,53.5271378 C105.060418,52.9827251 105.142371,52.3394672 105.142371,51.5942857 C105.142371,51.0029907 105.071745,50.4748492 104.926009,50.0065936 L104.926009,50.0065885 Z M97.3582876,49.9956396 C97.6100235,49.405497 97.9600077,48.8884844 98.4147175,48.4442437 C98.8688227,47.9994575 99.4190574,47.6497626 100.063415,47.3958836 C100.707958,47.1425495 101.4244,47.0142498 102.215584,47.0142498 C102.941472,47.0142498 103.619329,47.1152083 104.244916,47.3138588 C104.872017,47.5144453 105.416797,47.811937 105.880353,48.2132902 C106.341848,48.6117405 106.708307,49.1178021 106.977486,49.7304488 C107.245334,50.3432747 107.37744,51.0583928 107.37744,51.8750143 C107.37744,52.5549885 107.249877,53.1904976 106.989419,53.7799182 C106.730476,54.3698816 106.373104,54.8857418 105.914999,55.3259929 C105.455623,55.7655162 104.907997,56.1080134 104.273691,56.3535442 C103.635995,56.5996799 102.936753,56.7208419 102.17434,56.7208419 C101.457113,56.7208419 100.783251,56.6329493 100.152217,56.4563777 C99.5192451,56.2792617 98.9697373,55.9921138 98.5021864,55.5987431 C98.0348154,55.2027122 97.666298,54.6993117 97.3931801,54.0872694 C97.1206076,53.473834 96.9845029,52.741902 96.9845029,51.888805 C96.9845029,51.2171789 97.108675,50.5862023 97.3583515,49.9956345 L97.3582908,49.9956345 L97.3582876,49.9956396 Z" id="_373773592"></path>
                            <path d="M108.908723,48.9567277 C108.891339,48.3705132 108.864627,47.7818814 108.829192,47.1930703 C109.238596,47.2015994 109.645213,47.2159357 110.045167,47.2348692 C110.445908,47.2543471 110.849802,47.2628157 111.259807,47.2628157 C111.932335,47.2628157 112.528604,47.2564038 113.050065,47.242007 C113.573643,47.2282153 113.926051,47.210794 114.107828,47.1930703 C114.070515,47.3384288 114.052344,47.5286103 114.052344,47.7662146 C114.052344,47.9108475 114.057069,48.024811 114.065791,48.1055052 C114.075059,48.1888611 114.089051,48.2780846 114.107828,48.379587 C113.843372,48.3607141 113.55493,48.3431113 113.24238,48.3255083 C112.928558,48.3066353 112.624003,48.2892142 112.328899,48.2700992 C112.034339,48.2532828 111.768611,48.2388861 111.532202,48.2292681 C111.296518,48.220739 111.127524,48.2162022 111.027398,48.2162022 C110.992751,48.7142804 110.970037,49.2080617 110.965312,49.6970697 C110.961315,50.1868608 110.957922,50.6796746 110.957922,51.1787208 C111.550981,51.1689213 112.084555,51.1563998 112.561372,51.1382527 C113.037405,51.12065 113.534332,51.0985711 114.052403,51.0717134 C114.025691,51.2261452 114.008307,51.3439202 113.99692,51.4254011 C113.988985,51.5068814 113.985593,51.5915683 113.985593,51.6832113 C113.985774,51.7561628 113.991105,51.8304448 114.006429,51.9085383 C114.018362,51.9846958 114.034413,52.0949094 114.052403,52.240691 C113.01681,52.1586662 111.985033,52.1163225 110.957917,52.1163225 L110.958099,52.8106319 C110.958099,53.5654314 110.967911,54.2355416 110.986083,54.8209724 C111.002741,55.4077298 111.029452,55.9827538 111.063494,56.545312 C110.909217,56.5212973 110.742827,56.5095622 110.560023,56.5095622 L109.945584,56.5095622 L109.334535,56.5095622 C109.150337,56.5095622 108.984007,56.5212973 108.829125,56.545312 C108.864499,55.9827487 108.891211,55.4082727 108.908656,54.8235742 C108.92604,54.2381484 108.934035,53.5691241 108.934035,52.8145037 L108.934035,50.9629507 C108.934035,50.2088783 108.925919,49.5406991 108.908656,48.9565434 L108.908717,48.9567248 L108.908723,48.9567277 Z" id="_373773784"></path>
                            <path d="M121.678436,53.8205344 L121.678436,54.6371559 C121.678436,54.90162 121.681646,55.141888 121.688248,55.3600177 C121.694306,55.577602 121.696365,55.7187864 121.696365,55.7826641 C121.833984,55.7911933 121.99674,55.7983312 122.189054,55.8055295 C122.378705,55.814603 122.615116,55.8172646 122.898287,55.8172646 C123.925341,55.8172646 124.737182,55.4689003 125.33763,54.7687252 C125.937109,54.0692739 126.237121,53.0116592 126.237121,51.5952768 C126.237121,51.0327135 126.163465,50.529314 126.013974,50.0850733 C125.86309,49.6389565 125.652059,49.2605288 125.379669,48.9473067 C125.105945,48.6340873 124.778676,48.3932759 124.396713,48.2257765 C124.013961,48.0571898 123.58675,47.9724425 123.114655,47.9724425 C122.787386,47.9724425 122.522202,47.9796409 122.317169,47.9939771 C122.112921,48.0075874 121.906614,48.0232544 121.696309,48.0408571 C121.696309,48.1040091 121.69425,48.2459802 121.688192,48.4635036 C121.68159,48.6816322 121.680258,48.9277674 121.680258,49.1999732 L121.67838,50.0165947 L121.67838,50.6991706 L121.67838,53.1236887 L121.67838,53.8204769 L121.678441,53.8205373 L121.678436,53.8205344 Z M119.630933,48.9551708 C119.612398,48.3689563 119.586292,47.7803244 119.550857,47.1915134 C119.705859,47.2092976 119.873946,47.2266583 120.055661,47.2404501 C120.238709,47.2546048 120.442956,47.2612588 120.670643,47.2612588 C120.96914,47.2612588 121.303616,47.25031 121.677646,47.2266583 C122.049616,47.2026436 122.536975,47.1915134 123.13609,47.1915134 C123.918617,47.1915134 124.629183,47.2612587 125.270089,47.4026855 C125.909302,47.5425998 126.462806,47.7803874 126.925571,48.1162927 C127.390278,48.4523772 127.748803,48.9049661 128.002596,49.4716419 C128.257785,50.039465 128.384561,50.7538558 128.384561,51.6154801 C128.384561,52.3682209 128.259057,53.0494653 128.008654,53.6577586 C127.759583,54.2658676 127.419596,54.784939 126.986872,55.216171 C126.554935,55.6484961 126.056734,55.9760512 125.488451,56.2021664 C124.92023,56.4293684 124.312391,56.5439373 123.667547,56.5439373 C122.98648,56.5439373 122.404083,56.5380698 121.921932,56.5257901 C121.441114,56.5140551 121.023231,56.5081875 120.670582,56.5081875 L120.0556,56.5081875 C119.874067,56.5081875 119.705617,56.5199226 119.550796,56.5439373 C119.58617,55.9813739 119.612095,55.406898 119.630872,54.8221995 C119.649043,54.2367737 119.657584,53.5677493 119.657584,52.813129 L119.657766,50.961576 C119.657766,50.2075036 119.648862,49.5393243 119.630872,48.9551687 L119.630933,48.9551687 L119.630933,48.9551708 Z" id="_373773976"></path>
                            <path d="M132.77988,56.5364773 C132.277135,56.4145287 131.839685,56.2113411 131.467779,55.9249779 C131.096596,55.639705 130.802641,55.272409 130.591793,54.8230825 C130.378823,54.3729735 130.272459,53.826501 130.272459,53.1819165 C130.272641,52.8204861 130.275851,52.4934764 130.280575,52.2083818 C130.287178,51.9237138 130.289843,51.6565891 130.289843,51.4117854 C130.289843,51.1669808 130.292508,50.9312494 130.299292,50.7051947 C130.304623,50.4785372 130.309105,50.2422614 130.309105,49.9961252 C130.309286,49.2613456 130.303774,48.6681812 130.293174,48.2137128 C130.286572,47.7588853 130.272337,47.4192316 130.253803,47.1923942 C130.435335,47.2101784 130.622926,47.2275392 130.812577,47.241331 C131.002227,47.2554857 131.188667,47.2621397 131.369476,47.2621397 C131.551917,47.2621397 131.736903,47.2557277 131.927097,47.241331 C132.117534,47.2275392 132.304337,47.2101179 132.484718,47.1923942 C132.393861,48.0721692 132.341042,48.8916281 132.321719,49.6483073 C132.303729,50.4055857 132.29428,51.1741776 132.29428,51.9548665 C132.294462,52.7807426 132.354488,53.4449885 132.471997,53.9548616 C132.587447,54.4627998 132.76371,54.8536887 132.993458,55.1310396 C133.224599,55.4077831 133.506257,55.591553 133.842792,55.683196 C134.177451,55.7732057 134.56741,55.8181501 135.010857,55.8181501 C135.552975,55.8181501 135.978309,55.683196 136.286254,55.4103843 C136.594806,55.1376331 136.827823,54.7740864 136.985311,54.3221019 C137.144311,53.8682424 137.241045,53.3480244 137.277205,52.7631415 C137.313912,52.1788629 137.330569,51.5686387 137.330569,50.9331245 C137.330569,50.3080171 137.321846,49.6839956 137.303857,49.0634259 C137.2872,48.4420675 137.260488,47.8176875 137.224326,47.1923958 C137.353223,47.21018 137.476062,47.2275407 137.595691,47.2413325 C137.713806,47.2554873 137.824713,47.2621412 137.924837,47.2621412 C138.042407,47.2621412 138.155736,47.2557293 138.267249,47.2413325 C138.375551,47.2275408 138.489668,47.2101195 138.60851,47.1923958 C138.587855,47.3918324 138.567805,47.660047 138.549815,47.9948614 C138.528434,48.3302202 138.508384,48.7195977 138.488275,49.1593008 C138.468407,49.5988241 138.450962,50.0859531 138.436243,50.6167578 C138.421646,51.1481055 138.412984,51.7063103 138.412984,52.2976668 C138.412984,53.8768317 138.074328,55.008606 137.394653,55.6930564 C136.716253,56.3794427 135.718513,56.7213914 134.404294,56.7213914 C133.823349,56.7213914 133.28257,56.6609011 132.779643,56.5365326 L132.779886,56.5364721 L132.77988,56.5364773 Z" id="_373774168"></path>
                            <path d="M144.717766,52.5340081 C144.432716,52.2207887 144.01853,52.0636953 143.477016,52.0636953 C143.348302,52.0636953 143.240061,52.0676876 143.14993,52.0716194 C143.060405,52.0788178 142.974272,52.0820239 142.892137,52.0820239 C142.892137,52.2727503 142.890078,52.4687996 142.883415,52.6746505 C142.878085,52.8778376 142.87336,53.1200415 142.87336,53.401502 C142.87336,53.6194488 142.878085,53.8422954 142.883415,54.068954 C142.890259,54.2954303 142.892137,54.5164014 142.892137,54.736406 C142.892137,54.9545347 142.895529,55.1532457 142.900072,55.3348968 C142.906917,55.5160051 142.909521,55.665719 142.909521,55.7842197 C143.035752,55.7946241 143.15314,55.8036976 143.261381,55.8095652 C143.371561,55.8161587 143.501791,55.8188203 143.653946,55.8188203 C143.853651,55.8188203 144.041968,55.7783522 144.224291,55.6963273 C144.403946,55.6143026 144.56216,55.4931401 144.697719,55.3348969 C144.831946,55.1753835 144.942065,54.9812092 145.02214,54.754731 C145.10373,54.5267428 145.144435,54.2622787 145.144435,53.9613406 C145.144435,53.3244999 145.003606,52.8490435 144.717768,52.5339469 L144.717768,52.5340074 L144.717766,52.5340081 Z M144.980102,48.9423874 C144.931463,48.7496047 144.846663,48.5804127 144.729093,48.440317 C144.610251,48.3002214 144.459912,48.1875879 144.277652,48.1004216 C144.096725,48.0157352 143.869521,47.9713352 143.595857,47.9713352 C143.395607,47.9713352 143.257443,47.9739968 143.179791,47.9785336 C143.10238,47.9844011 143.01758,47.994987 142.92745,48.0123476 C142.909459,48.3478877 142.8968,48.688327 142.886745,49.0310644 C142.878023,49.3741659 142.873298,49.6652471 142.873298,49.8996437 C142.873298,50.1438435 142.878023,50.3769737 142.883353,50.5984908 C142.890198,50.8217609 142.892076,51.0491442 142.892076,51.2835455 L143.50518,51.2835455 C143.695436,51.2835455 143.882966,51.2489449 144.068679,51.1753886 C144.255724,51.1031629 144.421872,50.9963977 144.564034,50.8568459 C144.711708,50.7169315 144.829823,50.5372148 144.920074,50.319629 C145.010931,50.1035571 145.056906,49.8494974 145.056906,49.5602918 C145.056906,49.3434941 145.031526,49.1376453 144.98004,48.9423238 L144.980101,48.9423843 L144.980102,48.9423874 Z M140.8387,48.9567842 C140.818045,48.3705697 140.788546,47.7819378 140.745176,47.1931267 C140.90018,47.2109109 141.067721,47.2282717 141.250769,47.2420635 C141.432301,47.2562182 141.638063,47.2628722 141.865028,47.2628722 C142.257046,47.2628722 142.664391,47.2519234 143.094448,47.2282717 C143.521841,47.204257 143.930521,47.1931267 144.321812,47.1931267 C144.729944,47.1931267 145.103734,47.2335948 145.440326,47.3150753 C145.77765,47.3971 146.068032,47.5195935 146.314436,47.6893294 C146.559569,47.8560411 146.747706,48.0736249 146.880601,48.341294 C147.012163,48.6084198 147.077641,48.929383 147.077641,49.3006114 C147.077641,49.6724461 146.999443,49.9915354 146.843895,50.2592015 C146.689074,50.5268716 146.498637,50.7489925 146.275068,50.925322 C146.051317,51.1018936 145.809636,51.2406587 145.547846,51.3394999 C145.287388,51.4404584 145.053036,51.5083288 144.841219,51.5440181 L144.841401,51.5682143 C145.049586,51.5772879 145.295325,51.6247123 145.576378,51.7107298 C145.856885,51.7980779 146.125337,51.9322459 146.378408,52.1131723 C146.63299,52.2942806 146.848626,52.530012 147.024827,52.8146774 C147.202544,53.1018252 147.290616,53.4501917 147.290616,53.8584998 C147.290798,54.3496215 147.202605,54.7688811 147.024827,55.1127093 C146.848624,55.4578676 146.613485,55.7399369 146.317652,55.9593942 C146.023334,56.1769784 145.685464,56.3285672 145.304772,56.4151291 C144.923534,56.5018724 144.529999,56.5453649 144.119446,56.5453649 C143.756197,56.5453649 143.418876,56.5394973 143.10711,56.5272177 C142.793834,56.5154826 142.464686,56.509615 142.120155,56.509615 L141.364885,56.509615 C141.107092,56.509615 140.899998,56.5213502 140.745175,56.5453648 C140.788726,55.9828015 140.818043,55.4083256 140.838697,54.823627 C140.859534,54.2382012 140.868801,53.5691768 140.868801,52.8145565 L140.868801,50.9630035 C140.868801,50.2089311 140.859352,49.5407519 140.838697,48.9565962 L140.838697,48.9567776 L140.8387,48.9567842 Z" id="_373774360"></path>
                            <path d="M151.538536,49.7489759 C151.302852,50.2928457 151.079161,50.8287309 150.871521,51.3595357 C150.662004,51.8895517 150.458302,52.4307583 150.258596,52.9831604 L152.752633,52.9831604 C152.551051,52.4308249 152.353224,51.8896132 152.158303,51.3595357 C151.964111,50.8287309 151.755683,50.2928457 151.538593,49.7489759 L151.538532,49.7489759 L151.538536,49.7489759 Z M156.360646,56.5439035 C156.144284,56.5198888 155.936463,56.5081537 155.740936,56.5081537 L155.163263,56.5081537 L154.582318,56.5081537 C154.388125,56.5081537 154.194477,56.5198889 154.003496,56.5439035 C153.857942,56.0972423 153.709542,55.6414453 153.555265,55.1764572 C153.400444,54.7121933 153.237447,54.2464196 153.063908,53.7802792 C152.772801,53.7678182 152.484902,53.7600754 152.193194,53.7542079 C151.903419,53.7481589 151.611526,53.7456787 151.322479,53.7456787 C151.08528,53.7456787 150.850202,53.7483403 150.611124,53.7542079 C150.378105,53.759894 150.139816,53.7678182 149.904738,53.7802792 C149.723205,54.2464181 149.554937,54.7121964 149.400662,55.1764572 C149.247718,55.6412655 149.104829,56.0972403 148.978538,56.5439035 C148.86969,56.5198888 148.762176,56.5081537 148.657326,56.5081537 L148.337447,56.5081537 L148.011693,56.5081537 C147.902846,56.5081537 147.784004,56.5198889 147.657168,56.5439035 C147.764682,56.3081722 147.910841,55.9813402 148.093101,55.5631731 C148.273484,55.1457891 148.473189,54.6729963 148.692759,54.1467293 C148.910454,53.6199193 149.143473,53.0565724 149.393879,52.4509422 C149.642949,51.8479137 149.892868,51.2382887 150.141758,50.6209252 C150.392949,50.0029573 150.638082,49.3933324 150.878431,48.794903 C151.118841,48.1958643 151.33914,47.6376594 151.538662,47.1200425 C151.631034,47.1387341 151.715652,47.1557923 151.798574,47.1694027 C151.879983,47.1850697 151.964783,47.1915422 152.056973,47.1915422 C152.148619,47.1915422 152.234509,47.1851302 152.314766,47.1694027 C152.397507,47.1557924 152.484912,47.1387946 152.574437,47.1200425 C152.864999,47.8922655 153.176762,48.7186845 153.507241,49.5979115 C153.838508,50.4784086 154.172379,51.3438485 154.508371,52.1931299 C154.845513,53.0416892 155.171996,53.8471817 155.489813,54.6104472 C155.807088,55.3724425 156.098196,56.0178157 156.360713,56.5438421 L156.360653,56.5439025 L156.360646,56.5439035 Z" id="_373774552"></path>
                            <path d="M157.7839,48.9567277 C157.767243,48.3705132 157.740531,47.7818814 157.705157,47.1930703 C157.857313,47.2108545 158.02752,47.2282152 158.209234,47.242007 C158.390162,47.2561618 158.59459,47.2628157 158.821555,47.2628157 C159.049243,47.2628157 159.252946,47.2564038 159.43466,47.242007 C159.616193,47.2282153 159.783916,47.210794 159.938736,47.1930703 C159.903362,47.7818865 159.876651,48.3705747 159.858661,48.9567277 C159.841277,49.5408219 159.833887,50.2090627 159.833887,50.963135 L159.833887,52.8145036 C159.833887,53.5693033 159.841277,54.2382662 159.858661,54.8237534 C159.876651,55.4084519 159.903302,55.982933 159.938736,56.5454912 C159.783915,56.5214764 159.616193,56.5097414 159.43466,56.5097414 L158.821555,56.5097414 L158.209234,56.5097414 C158.027701,56.5097414 157.857373,56.5214765 157.705157,56.5454912 C157.740531,55.9829279 157.767243,55.4084519 157.7839,54.8237534 C157.801284,54.2383276 157.811158,53.5693033 157.811158,52.8146829 L157.811339,50.9631299 C157.811339,50.2090576 157.801284,49.5408782 157.7839,48.9567226 L157.7839,48.9567277 Z" id="_373774744"></path>
                        </g>
                    </g>
                </g>
            </g>
        </g>
    </g>
</svg>