<?xml version="1.0" encoding="UTF-8"?>
<svg width="64px" height="71px" viewBox="0 0 64 71" version="1.1" xmlns="http://www.w3.org/2000/svg" xmlns:xlink="http://www.w3.org/1999/xlink">
    <!-- Generator: sketchtool 46 (44423) - http://www.bohemiancoding.com/sketch -->
    <title>9C41C565-B802-4549-8A6D-763EFAD5C8DA</title>
    <desc>Created with sketchtool.</desc>
    <defs>
        <rect id="path-1" x="0" y="0" width="170" height="170"></rect>
        <rect id="path-2" x="0" y="0" width="63.724788" height="70.5626079"></rect>
    </defs>
    <g id="Web" stroke="none" stroke-width="1" fill="none" fill-rule="evenodd">
        <g id="Focused-—-Main" transform="translate(-258.000000, -2396.000000)">
            <g id="Clients" transform="translate(205.000000, 2236.000000)">
                <g id="unilever-logo" transform="translate(0.000000, 110.000000)">
                    <g id="Rectangle-Copy" opacity="0">
                        <use fill="#D8D8D8" fill-rule="evenodd" xlink:href="#path-1"></use>
                        <rect stroke="#979797" stroke-width="1" x="0.5" y="0.5" width="169" height="169"></rect>
                    </g>
                    <g id="unilever" transform="translate(53.000000, 50.383117)">
                        <g id="Clipped">
                            <g id="Shape-Clipped">
                                <mask id="mask-3" fill="white">
                                    <use xlink:href="#path-2"></use>
                                </mask>
                                <g id="path-1"></g>
                                <path d="M8.20745602,62.0381707 C8.1031892,61.7055183 7.79868276,60.9577919 7.71574328,60.4057432 C7.5326839,59.1830533 8.17131809,58.3778094 8.75781886,58.193398 C9.41600304,58.0095794 9.67311546,58.3404528 9.92785824,59.1095259 C10.2572465,60.280628 10.2939769,61.8152165 10.1831934,64.0121448 C10.0392341,67.0131312 8.53921401,70.6373215 4.81049103,70.5620149 C1.59184598,70.4914524 0.167656276,68.4048155 0.0195500252,65.2211962 C-0.0503561254,63.7204069 0.0568728004,62.2202103 0.677734205,60.0985884 C1.0071225,58.9624711 1.30096531,58.5580702 2.32289844,58.3404528 C3.12622675,58.193398 3.0539509,59.0342196 2.87207642,60.0256539 C2.47159712,62.2202103 2.28557566,63.2798354 2.43368191,65.7696874 C2.57704877,68.4048155 3.7861882,69.4300488 5.10255656,69.4300488 C7.07710909,69.4679982 7.95389812,67.8213399 8.32120164,65.4399998 C8.61089741,63.5377743 8.39229263,62.6228322 8.20745602,62.0381707 L8.20745602,62.0381707 Z M50.3075465,64.6371276 C51.0765141,64.6371276 51.2968963,65.5473264 51.1132445,66.098782 C50.9295928,66.6466796 50.2725934,67.2716627 49.2494755,67.4537029 C49.0290933,66.9034326 48.9189023,64.6371276 50.3075465,64.6371276 L50.3075465,64.6371276 Z M36.0147009,65.8776064 C36.0147009,65.2579603 35.6835353,64.7450472 35.2848332,64.7450472 C34.9518904,64.7450472 34.1870697,65.1097192 34.1870697,66.2814145 C34.1870697,67.1993212 34.5129035,67.6345563 34.6621946,67.8213399 C35.7196732,67.4904663 36.0147009,66.6099161 36.0147009,65.8776064 L36.0147009,65.8776064 Z M24.6413256,58.4133873 C24.5897846,57.8263538 24.1300629,57.4266966 23.5080166,57.4266966 C22.8142869,57.4266966 22.1608421,58.1554483 22.2301558,59.0709833 C22.2745877,59.6746197 22.6300427,60.1709298 23.3285118,60.1709298 C24.1300629,60.1715228 24.7147863,59.2565808 24.6413256,58.4133873 L24.6413256,58.4133873 Z M30.5874954,60.5628785 C30.5241059,59.5394242 30.2764723,59.0775059 29.7272943,59.1154556 C28.999204,59.1593348 28.6627065,61.4523231 28.8114053,63.862718 C28.9061932,65.4352564 29.1402011,65.6777778 29.3582135,65.6623608 C29.7610625,65.6380493 30.7273077,62.8285904 30.5874954,60.5628785 L30.5874954,60.5628785 Z M54.8419675,64.4153596 C54.3887624,66.2968315 53.0149288,69.0647831 50.9651383,69.0647831 C50.4906058,69.0647831 49.6493623,68.8803716 49.6493623,68.4048155 C49.6493623,67.8919024 52.8691922,67.8213399 52.8691922,65.3676583 C52.8691922,64.4539021 52.0285411,63.1713231 50.7844486,63.1713231 C49.1392844,63.1713231 47.534405,64.9662222 47.534405,67.4542952 C47.534405,69.6850228 48.9189023,70.4173319 50.3081389,70.4173319 C52.7222709,70.4173319 54.1849682,68.4398 54.9521585,66.7943277 C55.319462,67.8924954 55.5351047,70.4173319 56.4527711,70.4173319 C56.8171125,70.4173319 57.0748173,70.2341064 57.5138042,69.2474156 C58.6080132,66.7937346 59.6696389,63.975974 61.1329286,63.975974 C61.6797369,63.975974 61.3521258,64.9662222 62.6679018,64.9662222 C63.2881707,64.9662222 63.7253804,64.4539021 63.7253804,63.8656829 C63.7253804,63.0230823 62.9587825,62.3666722 61.789928,62.3666722 C58.3520856,62.3666722 57.6234029,67.5272298 57.0742249,67.5272298 C56.1595207,67.5272298 56.4521787,63.3913124 55.7928096,63.3913124 C55.2074937,63.3907194 54.9201676,64.0886371 54.8419675,64.4153596 L54.8419675,64.4153596 Z M25.5927602,68.8062516 C26.1407533,68.8062516 27.0833015,68.6283626 27.8250176,67.4394712 C27.4008413,66.4966601 27.0981121,64.5914696 27.0560499,63.8977029 C26.8380375,60.3500047 28.2035772,57.0128085 29.6982655,56.9203062 C30.7942517,56.8538943 31.6710407,57.8921727 31.771753,59.574409 C32.0413063,63.9949488 30.570315,65.8402499 29.8339308,67.4323558 C29.95834,68.0496304 31.0045626,69.1003612 31.9915426,69.1003612 C32.355884,69.1003612 32.7966483,68.9171356 32.9074317,68.7688945 C32.833971,68.5145135 32.7593254,68.1854189 32.7593254,67.7080839 C32.7593254,65.1464833 34.4050821,62.9863186 35.8316415,62.9863186 C36.9649506,62.9863186 37.6231348,64.4865151 37.6231348,65.4767639 C37.6231348,66.6460865 36.6349698,67.5995713 35.1734574,68.5145135 C35.4305698,68.7688945 35.9033249,68.9538991 36.3073588,68.9538991 C38.3932873,68.9538991 39.4845341,66.4278766 40.2926018,64.1212501 C40.4383384,63.6812714 40.6960433,63.060439 41.2067136,63.060439 C42.084095,63.060439 42.4513985,68.8430151 43.9099489,68.8430151 C44.5337724,68.8430151 45.0444428,67.5610288 45.0444428,66.5755241 C45.0444428,65.842622 44.7885152,65.7690944 44.7885152,64.7076907 C44.7885152,63.5377743 45.4105614,62.5504908 46.2535822,62.5504908 C46.764845,62.5504908 46.9496816,63.060439 46.9496816,63.6812714 C46.9496816,66.0240685 45.2654173,70.3799754 42.7825641,70.3799754 C40.9146481,70.3799754 41.0603846,67.1589997 40.4027928,67.1589997 C39.6681859,67.1589997 38.6444755,70.4161459 35.0283132,70.4161459 C34.4406276,70.4161459 33.8203587,70.1238154 33.3096883,69.5367817 C32.4334917,70.1238154 31.7000696,70.3799754 30.8588261,70.3799754 C29.5075046,70.3799754 28.9210039,68.9888842 28.3741956,68.9888842 C27.7148266,68.9888842 26.9855514,70.4161459 24.7894318,70.4161459 C23.034669,70.4161459 22.742011,68.076314 22.1217421,68.076314 C21.5719717,68.076314 20.7313206,70.4161459 19.8178013,70.4161459 C18.2798659,70.4161459 17.9540322,66.3549421 16.5985638,66.3549421 C15.5387154,66.3549421 12.188552,70.4795935 11.2791797,70.3853119 C10.9136534,70.3473624 10.7596229,70.0740063 10.7981306,69.7075553 C10.8496715,69.2011646 11.2851039,67.8456514 11.4616466,67.2046583 C11.7572666,66.0916665 12.0285973,64.8719412 12.1802581,64.4829577 C12.330734,64.0904161 12.7365452,63.8105373 13.0623789,63.8407784 C13.2264806,63.8561955 13.2756519,64.1627576 13.3266005,64.4159526 C13.5114371,65.3208143 13.769142,66.2434651 14.0600226,66.2434651 C14.5736551,66.2434651 16.2697679,62.9857257 17.2567479,62.9857257 C18.465295,62.9857257 18.6098466,68.1107054 20.2544185,68.1107054 C20.8041888,68.1107054 21.2076303,67.4531098 21.5719717,66.6454942 C21.6092945,65.2893873 21.9748207,63.3539557 23.0713994,63.3539557 C23.8397746,63.3539557 24.2058932,65.0723628 23.6555304,66.574931 C23.6543456,68.3668654 24.8232001,68.8062516 25.5927602,68.8062516 L25.5927602,68.8062516 Z" id="Shape" fill="#000000" fill-rule="nonzero" mask="url(#mask-3)"></path>
                            </g>
                        </g>
                        <path d="M51.0599263,11.4169114 C50.7885956,11.4169114 50.3999648,11.4169114 50.1860994,10.9905709 C50.0107416,10.6407227 50.0699841,10.0768148 49.7400033,9.82480551 C50.0699841,9.92145848 50.4189224,9.92145848 50.690253,9.92145848 C51.5646724,9.92145848 52.3999916,9.31960095 53.0409955,9.31960095 C53.4633945,9.31960095 53.5996522,9.59177101 53.5996522,9.86275511 C53.6002447,10.7184008 51.8762879,11.4169114 51.0599263,11.4169114 L51.0599263,11.4169114 Z M51.4864723,13.6114678 C53.5024946,13.6114678 55.3484909,11.9997941 55.3484909,10.5826123 C55.3484909,9.92145848 55.0368753,9.37830425 54.2412485,9.28105834 C54.3769139,9.45598242 54.4349715,9.59177101 54.4349715,9.90248368 C54.4349715,10.9710032 52.8087648,12.1557434 51.0409687,12.1557434 C50.3999648,12.1557434 50.2056494,12.6016517 50.2056494,12.8346862 C50.2056494,13.3790263 50.730538,13.6114678 51.4864723,13.6114678 L51.4864723,13.6114678 Z M51.3318493,14.427385 C51.5848148,16.2715002 54.3769139,18.7577945 55.1334406,18.6990912 C55.6393715,18.6563978 55.8330945,16.291068 55.8330945,14.427385 C55.8330945,13.3594585 55.8917446,12.5239735 55.3283484,12.3294816 C54.4343791,14.1362402 52.0895609,14.5050632 51.3318493,14.427385 L51.3318493,14.427385 Z" id="Shape" fill="#000000" fill-rule="nonzero"></path>
                        <path d="M7.66183258,26.6418318 C8.32060916,26.6418318 8.18494386,22.6019742 9.2519013,22.6019742 C9.5048668,22.6019742 9.58247447,22.8545765 9.58247447,23.1652891 C9.58247447,24.0778593 9.13578599,25.4185489 9.13578599,26.155602 C9.13578599,26.525018 9.23294372,26.6418318 9.40770906,26.6418318 C9.87394754,26.6418318 10.688532,22.1940156 11.4835663,22.1940156 C11.7359393,22.1940156 11.8520547,22.4466179 11.8520547,22.6992202 C11.8520547,23.6313581 10.6695743,26.3109584 10.6695743,27.0681722 C10.6695743,27.184986 10.7074895,27.2816389 10.8052397,27.2816389 C11.2904357,27.2816389 12.2602354,25.1849215 12.5700737,24.1365627 C12.7448391,23.5922226 12.9776621,23.3004848 13.1915276,23.3004848 C13.3852506,23.3004848 13.5606083,23.5145444 13.5606083,23.9616386 C13.5606083,25.0099973 12.5896238,27.4761308 11.7359393,29.127533 C11.0771628,30.4089263 10.0487129,32.2524486 10.0487129,33.2818325 C10.0487129,33.8066048 10.1440933,34.349759 10.9012125,35.0103199 C9.65948968,34.9326417 9.15533604,34.816421 8.69028238,33.8457404 C6.61383272,37.981658 12.5120161,37.5742923 10.4942166,41.242955 C10.1251357,40.5841729 7.21573657,39.9040443 7.21573657,36.0592716 C7.21573657,32.7386783 10.1251357,30.7967241 10.1251357,29.418678 C10.1251357,29.1471008 10.0291629,28.9140663 9.77678987,28.7005996 C9.13578599,28.1556665 9.11623593,27.7103513 8.6120823,27.7103513 C8.24418637,27.7103513 7.79631306,28.5642181 8.26255154,29.321432 C8.4183593,29.5740343 8.55402461,29.7293906 8.55402461,29.9624251 C8.55402461,30.5055793 7.69974781,31.9613037 7.09902884,31.9613037 C6.497125,31.9613037 6.03266382,30.4682226 6.03266382,28.0590135 C6.03266382,25.9219746 6.51667506,23.7677397 7.11857883,23.7677397 C7.29275177,23.7677397 7.35080946,23.8839604 7.35080946,24.0399097 C7.35080946,24.292512 7.27379419,24.7965306 7.27379419,25.6509904 C7.27379419,26.5635606 7.48706723,26.6418318 7.66183258,26.6418318" id="Shape" fill="#000000" fill-rule="nonzero"></path>
                        <path d="M12.607989,32.3307197 C13.4237582,32.3307197 14.1020848,31.7276762 14.1020848,30.3899515 L14.1020848,28.4082688 C14.1020848,27.651055 14.1607349,26.7971881 14.665481,26.1941446 C14.6068309,26.4473398 14.6068309,26.718917 14.6068309,26.9715193 C14.6068309,28.6418963 15.5375306,29.7880939 15.5375306,31.3991747 C15.5375306,32.0004392 15.3627652,32.3313126 14.898304,32.3313126 C14.4516155,32.3313126 14.4907156,31.9233541 14.3929655,31.9233541 C14.3159502,31.9233541 14.1992425,32.1753634 14.1992425,32.4475334 C14.1992425,32.855492 14.4901232,33.4958921 15.3047076,33.4958921 C16.0037691,33.4958921 16.5653879,32.855492 16.5653879,32.1368207 C16.5653879,30.3905445 15.2075498,28.4474044 15.2075498,26.5837214 C15.2075498,25.7678041 15.4208229,25.22465 15.5955882,24.7965306 C15.5955882,28.6614641 18.8740682,31.4768529 18.8740682,33.0879336 C18.8740682,33.4573495 18.6027376,33.7490874 18.1951492,33.7490874 C17.7490531,33.7490874 17.5351877,33.3986462 17.5351877,33.1264762 C17.5351877,32.9906876 17.5156377,32.952145 17.45758,32.952145 C17.3420571,32.952145 16.9925264,33.3405358 16.9925264,33.8463334 C16.9925264,34.4861405 17.5156377,35.2641081 18.4860298,35.2641081 C19.5909024,35.2641081 20.1928063,34.3307842 20.1928063,33.4958921 C20.1928063,31.457878 16.2158572,28.3697262 16.2158572,25.0692936 C16.2158572,24.5053857 16.31183,23.5928155 16.7206033,22.894305 C14.1595501,24.5439283 13.3645157,26.7390777 13.3645157,28.6614641 C13.3645157,30.3318411 13.306458,31.1655472 12.4527736,31.1655472 C12.0060851,31.1655472 11.8899698,30.7587745 11.734162,30.7587745 C11.6180467,30.7587745 11.5593967,31.1080298 11.5593967,31.2046828 C11.5605815,31.922761 12.0848777,32.3307197 12.607989,32.3307197" id="Shape" fill="#000000" fill-rule="nonzero"></path>
                        <path d="M42.0011555,10.4657986 C42.2476044,10.3003619 43.3412209,10.5624516 44.7553394,9.86275511 C44.9295123,9.7672881 45.1042777,9.72815248 45.2594931,9.72815248 C45.9395969,9.72815248 45.7648316,10.5043412 46.3862854,10.5043412 C46.8702967,10.5043412 47.4929353,10.0963826 47.8620161,10.0963826 C48.4402229,10.0963826 49.2749497,11.922116 49.2749497,12.7765757 C49.2749497,13.7668241 47.783816,14.3692747 46.0172046,14.3692747 C43.4383786,14.3692747 41.8844478,12.1166079 41.8844478,10.6596975 C41.8850402,10.5434768 41.9436903,10.5043412 42.0011555,10.4657986 L42.0011555,10.4657986 Z M46.2310701,12.9319321 C47.0853469,12.9319321 47.7257583,12.5435412 47.7257583,12.3099138 C47.7257583,12.2334216 47.609643,12.1747182 47.3566775,12.1747182 C47.1043045,12.1747182 46.5995584,12.1557434 45.6481239,11.9997941 C44.8317622,11.8640055 44.2109008,11.5532929 43.9780778,11.5532929 C43.9004701,11.5532929 43.86137,11.5918355 43.86137,11.6499459 C43.86137,12.1557434 44.793847,12.9319321 46.2310701,12.9319321 L46.2310701,12.9319321 Z" id="Shape" fill="#000000" fill-rule="nonzero"></path>
                        <path d="M13.0161698,39.651442 C12.3763508,39.8073913 11.3473085,40.8154286 11.3473085,42.4099064 C11.3473085,44.311539 13.3846581,47.2449274 16.7407458,47.2449274 C19.5725373,47.2449274 20.2715988,45.2834055 20.2715988,43.9616907 C20.2715988,41.0300812 18.4682571,38.9713133 16.1210692,38.9713133 C14.8402463,38.9713133 13.6950888,39.9034514 13.6950888,41.2814975 C13.6950888,42.5646697 14.665481,44.4864631 16.9735688,44.4864631 C18.0600763,44.4864631 18.6998953,43.7084955 18.6998953,42.8178649 C18.6998953,41.9432444 17.9048609,40.7401223 16.7401534,40.7401223 C16.391215,40.7401223 16.1394344,40.9707849 16.1394344,41.3413869 C16.1394344,41.8062699 16.778661,42.2735248 17.5748802,42.2735248 C17.7680107,42.2735248 17.9238185,42.2343893 18.0020186,42.1952537 C18.0399338,42.255143 18.0600763,42.351203 18.0600763,42.4288812 C18.0600763,42.8759754 17.6329379,43.1481454 16.9735688,43.1481454 C15.984219,43.1481454 15.0333769,42.4104993 15.0333769,41.242955 C15.0333769,40.5456304 15.6352807,40.0410188 16.5079227,40.0410188 C18.2342492,40.0410188 19.2621066,41.5744213 19.2621066,43.1096028 C19.2621066,44.4870561 18.5067647,45.2845914 16.9540187,45.2845914 C13.8497118,45.2839984 12.3378431,42.4869915 13.0161698,39.651442" id="Shape" fill="#000000" fill-rule="nonzero"></path>
                        <path d="M35.1622013,51.0292178 C36.0929009,51.0292178 36.0443221,50.9515397 36.3357952,50.9515397 C36.6260834,50.9515397 36.6462259,51.1264638 36.6462259,51.2432775 C36.6462259,51.6708039 35.6947914,52.1949833 34.0069725,52.1949833 C33.0176227,52.1949833 32.415719,51.670211 32.241546,51.0879212 C31.2717463,51.7093465 29.7977928,52.2726615 28.3422046,52.2726615 C24.365848,52.2726615 23.3569482,50.5429881 22.114633,49.9814521 C21.1637909,49.5539257 19.708795,50.3894107 17.6714454,48.1171761 C17.9433685,48.1758795 18.3124493,48.1948543 18.60333,48.1948543 C20.3871217,48.1948543 21.3379638,47.3226056 21.3379638,45.9232127 C21.3379638,45.7476956 21.3184137,45.5555755 21.2988638,45.3812444 C21.8427099,45.5947111 23.0850252,46.5256631 23.3764982,48.1758795 C23.4144135,48.3703714 24.2094478,48.5447025 24.7141939,48.5447025 C25.4132554,48.5447025 26.3054475,48.2529646 26.4411128,47.1085459 C28.769343,46.9146469 30.341639,45.5366007 30.6716198,43.7867667 C31.5045693,44.0589367 32.4554114,44.8161506 32.6882344,45.2057273 C33.0182152,45.0895065 33.4056611,45.0308032 33.8517571,45.0308032 C34.4726186,45.0308032 35.1716801,45.147617 36.0052221,45.4002192 C36.0443221,45.147617 36.0828297,44.8369043 36.4714605,44.8369043 C37.0532219,44.8369043 36.8980065,45.4778974 37.0923219,45.8449416 C37.1894796,46.0394334 37.6752682,46.1556542 37.6752682,46.544638 C37.6752682,46.9146469 37.3630602,47.0510285 37.1693372,47.0510285 C37.0917295,47.0510285 36.9945718,47.0314607 36.9359217,47.0124859 C36.5484758,47.1482744 36.5283334,49.9429094 34.8991646,49.9429094 C33.6971343,49.9429094 32.5910768,48.9526611 32.1052882,47.7109964 C31.9696229,47.3421733 31.6787422,47.1085459 31.4068191,47.1085459 C31.0969809,47.1085459 30.9222155,47.1672492 30.5543196,47.5752078 C29.5069122,48.7196266 27.7604433,49.7098749 25.6069784,49.7098749 C24.9470169,49.7098749 24.4233132,49.6505787 24.2870555,49.6505787 C24.2088553,49.6505787 24.2088553,49.6701464 24.2088553,49.6891212 C24.2088553,49.8255028 24.8682244,50.3502751 26.3042626,50.3502751 C29.7190004,50.3502751 30.5537272,48.4272958 31.0963885,48.4272958 C31.175181,48.4272958 31.4062267,48.4272958 31.541892,48.7386014 C32.3387037,50.6016914 34.0756938,51.0292178 35.1622013,51.0292178 L35.1622013,51.0292178 Z M33.6580342,47.1482744 C33.6580342,47.5758008 34.007565,47.925649 34.4347033,47.925649 C34.8618418,47.925649 35.2107801,47.5758008 35.2107801,47.1482744 C35.2107801,46.720155 34.8618418,46.3703068 34.4347033,46.3703068 C34.007565,46.3703068 33.6580342,46.720155 33.6580342,47.1482744 L33.6580342,47.1482744 Z" id="Shape" fill="#000000" fill-rule="nonzero"></path>
                        <path d="M49.0231691,37.4568856 C48.751246,37.4568856 48.4603653,37.6709453 48.4603653,38.1963106 C48.4603653,38.7768214 48.9070538,39.1468304 49.1588344,39.2624583 C49.2950922,39.3413223 49.5089576,39.4190005 49.7204533,39.4190005 C50.2838495,39.4190005 50.7311304,39.2624583 50.7311304,38.7957963 C50.730538,38.1963106 49.8561186,37.4568856 49.0231691,37.4568856 L49.0231691,37.4568856 Z M46.9301316,38.6600077 C46.5225431,38.6600077 44.2689584,41.6698884 42.8169248,41.6698884 C42.4679864,41.6698884 42.1765133,41.0099205 42.1765133,40.5070878 C42.1765133,40.2349177 42.3506863,40.0404258 42.9733249,39.9034514 C46.3092702,39.1462375 45.5711086,36.6403754 48.4206729,36.6403754 C49.991784,36.6403754 51.7406226,37.7100809 51.7406226,40.116918 C51.7406226,42.6802975 48.0954316,45.8639164 47.5515854,45.8639164 C47.1048969,45.8639164 46.6197009,45.2235162 46.6197009,44.7965828 C46.6197009,44.6607942 46.678351,44.4858701 47.0663893,44.3305138 C48.9266038,43.5916818 49.9923764,41.8833551 49.9923764,41.0087345 C49.9923764,40.8142426 49.8958112,40.6221226 49.6434381,40.6221226 C49.3140498,40.6221226 47.9017086,43.8442841 46.3282277,43.8442841 C45.239943,43.8442841 44.1332931,42.8564075 44.1332931,42.3891526 C44.1332931,41.6111851 47.2796623,40.1756214 47.2796623,39.0869412 C47.2790699,38.6783896 47.0853469,38.6600077 46.9301316,38.6600077 L46.9301316,38.6600077 Z" id="Shape" fill="#000000" fill-rule="nonzero"></path>
                        <path d="M8.53447462,13.2041021 C8.53447462,13.2041021 7.97226329,13.6304426 7.27379419,13.6304426 C6.44025219,13.6304426 5.78029077,13.0096103 5.78029077,12.1355827 C5.78029077,11.5331322 6.09072147,10.9122998 6.80814812,10.6009942 C6.78919054,10.7178079 6.78919054,10.8144609 6.78919054,10.9312746 C6.78859813,12.0389297 7.40945956,12.8732288 8.53447462,13.2041021 L8.53447462,13.2041021 Z M12.6861891,16.9326541 C12.259643,17.4366727 11.8129546,18.2917255 11.8129546,19.1651602 C11.8129546,20.2135189 12.4539584,21.0869535 13.4433082,21.0869535 C14.3935579,21.0869535 14.8402463,20.2716292 14.8402463,19.4373302 C14.8402463,18.1363692 13.6565812,17.222613 12.6861891,16.9326541 L12.6861891,16.9326541 Z M6.24593682,17.7088428 C6.20920647,17.768732 6.18728674,17.8452243 6.18728674,17.9229024 C6.18728674,18.0978266 6.38160214,18.2917255 6.55518269,18.2917255 C6.71039805,18.2917255 6.80755571,18.2531829 6.88516339,18.2531829 C7.35021705,18.2531829 7.87451315,18.5828704 8.63103988,18.5828704 C9.07654348,18.5828704 9.60083965,18.4464888 10.2602086,18.1173943 C11.6571468,17.4176979 12.2009929,15.6898034 12.2009929,15.3980656 C12.2009929,15.0286496 11.9047805,15.0772726 11.6571468,14.7375047 C11.4095132,14.3989228 11.5043012,14.0994764 11.3467161,13.9411553 C11.2572599,13.8504319 10.9788202,13.8445023 10.628697,13.8053667 C10.5119893,13.7929145 10.3567739,13.785799 10.2015585,13.785799 C9.56233201,13.785799 8.80343559,13.864663 7.95152842,14.4078172 C6.2690414,15.4828594 6.51667506,17.2623416 6.24593682,17.7088428 L6.24593682,17.7088428 Z M10.8046472,15.3008197 C10.9391277,15.4840452 11.3099858,15.7093713 11.3099858,15.8451598 C11.3099858,16.1161439 11.1535855,16.4665851 10.8437472,16.4665851 C10.1642358,16.4665851 9.62157452,15.4372012 9.62157452,14.8537255 C9.62157452,14.4854954 9.83543991,14.4469528 10.1257282,14.4469528 C10.2613935,14.4469528 10.3200436,14.4665206 10.4166089,14.524631 C10.5907818,14.6218769 10.5907818,15.0096748 10.8046472,15.3008197 L10.8046472,15.3008197 Z M9.01907827,17.6703002 C8.37925926,17.6703002 7.68079016,16.8745437 7.68079016,16.1552795 C7.68079016,15.7674816 7.97167088,15.2812518 8.18494386,15.2812518 C8.26255154,15.2812518 8.30165158,15.3399552 8.32060916,15.4763367 C8.43672448,16.4274496 9.05817831,16.9717897 9.6405321,17.2427738 C9.69858972,17.2813164 9.73768977,17.3008841 9.73768977,17.3394267 C9.73768977,17.4758083 9.36860902,17.6703002 9.01907827,17.6703002 L9.01907827,17.6703002 Z M10.6689819,12.7765757 C10.7655472,12.4652701 10.8431548,12.0780653 10.8431548,11.6499459 C10.8431548,10.7184008 10.415424,9.30062608 9.09668594,9.30062608 C8.34075163,9.30062608 7.79631306,9.90248368 7.79631306,10.6211549 C7.79631306,12.1557434 9.32950898,12.7765757 10.6689819,12.7765757 L10.6689819,12.7765757 Z M5.64403302,20.5437993 C5.64403302,22.0190915 6.09072147,22.7187879 6.8857558,22.7187879 C7.50661722,22.7187879 8.34075163,22.2716938 9.32950898,21.4172339 C8.57357466,21.5921581 7.99062846,21.7089718 7.46751718,21.7089718 C6.76904808,21.7089718 6.22638679,21.4368018 5.64403302,20.5437993 L5.64403302,20.5437993 Z M6.32354449,18.8153119 C6.30458689,18.9131508 6.30458689,19.0098038 6.30458689,19.1064568 C6.30458689,20.019027 6.78859813,20.5242316 7.42900955,20.5242316 C7.91242838,20.5242316 8.47641693,20.2330866 8.97938581,19.5915006 C8.76729765,19.6300432 8.51433216,19.649611 8.28150912,19.649611 C7.56467485,19.649611 6.78859813,19.456305 6.32354449,18.8153119 L6.32354449,18.8153119 Z M11.0765703,18.5437348 C10.6292894,18.6599556 9.69858972,19.2037027 9.69858972,20.1743833 C9.69858972,20.8728938 10.2412511,21.320581 10.9207625,21.320581 C11.2702933,21.320581 11.5220739,21.2423099 11.6772892,21.1260891 C11.134628,20.6019097 10.9403126,20.019027 10.9403126,19.4373302 C10.9403126,19.0287786 10.9983702,18.7767693 11.0765703,18.5437348 L11.0765703,18.5437348 Z M11.774447,13.2230769 C11.774447,13.6500104 12.1233853,14.0004516 12.5499313,14.0004516 C12.9770697,14.0004516 13.3266005,13.6506033 13.3266005,13.2230769 C13.3266005,12.7961436 12.9770697,12.4457024 12.5499313,12.4457024 C12.1233853,12.4457024 11.774447,12.7961436 11.774447,13.2230769 L11.774447,13.2230769 Z M12.7827543,14.9705392 C12.7827543,15.3980656 13.1328775,15.7479138 13.5606083,15.7479138 C13.9865619,15.7479138 14.3360927,15.3980656 14.3360927,14.9705392 C14.3360927,14.5441987 13.9865619,14.1943505 13.5606083,14.1943505 C13.1322851,14.1943505 12.7827543,14.5441987 12.7827543,14.9705392 L12.7827543,14.9705392 Z" id="Shape" fill="#000000" fill-rule="nonzero"></path>
                        <path d="M43.0503402,24.5047928 C43.0503402,24.1169949 43.399871,23.7867145 43.78317,23.7867145 C44.2109008,23.7867145 44.5408815,24.1169949 44.5408815,24.5047928 C44.5408815,24.951294 44.2103083,25.2625996 43.78317,25.2625996 C43.399871,25.2625996 43.0503402,24.951294 43.0503402,24.5047928 L43.0503402,24.5047928 Z M36.2386375,18.524167 C36.2386375,18.9511005 36.5887607,19.3009487 37.0141218,19.3009487 C37.4424451,19.3009487 37.7919759,18.9511005 37.7919759,18.524167 C37.7919759,18.0978266 37.4418527,17.7479783 37.0141218,17.7479783 C36.5887607,17.7479783 36.2386375,18.0978266 36.2386375,18.524167 L36.2386375,18.524167 Z M35.5798609,21.2618776 C35.5798609,21.8643281 36.0828297,22.3683468 36.6853259,22.3683468 C37.2860449,22.3683468 37.7919759,21.8643281 37.7919759,21.2618776 C37.7919759,20.660613 37.2860449,20.1548155 36.6853259,20.1548155 C36.0828297,20.1548155 35.5798609,20.660613 35.5798609,21.2618776 L35.5798609,21.2618776 Z M38.0247989,20.019027 C38.0247989,20.6801808 38.549095,21.2037673 39.2049095,21.2037673 C39.8642786,21.2037673 40.3903519,20.6801808 40.3903519,20.019027 C40.3903519,19.359059 39.8642786,18.8348797 39.2049095,18.8348797 C38.549095,18.8348797 38.0247989,19.359059 38.0247989,20.019027 L38.0247989,20.019027 Z M38.122549,17.4947831 C38.122549,17.9033347 38.4525298,18.234208 38.8559712,18.234208 C39.2635596,18.234208 39.5935403,17.9033347 39.5935403,17.4947831 C39.5935403,17.0880104 39.2629671,16.75773 38.8559712,16.75773 C38.4525298,16.75773 38.122549,17.0880104 38.122549,17.4947831 L38.122549,17.4947831 Z M41.6326671,15.6316931 C41.6326671,16.0384657 41.9626479,16.3687462 42.3708287,16.3687462 C42.7784171,16.3687462 43.1089903,16.0384657 43.1089903,15.6316931 C43.1089903,15.2231415 42.7784171,14.8928611 42.3708287,14.8928611 C41.9626479,14.8928611 41.6326671,15.2231415 41.6326671,15.6316931 L41.6326671,15.6316931 Z M40.1764865,18.0201484 C40.1764865,18.6990912 40.7392902,19.2618131 41.4188018,19.2618131 C42.0989056,19.2618131 42.6623018,18.6990912 42.6623018,18.0201484 C42.6623018,17.3394267 42.0994981,16.7772977 41.4188018,16.7772977 C40.7392902,16.7772977 40.1764865,17.3394267 40.1764865,18.0201484 L40.1764865,18.0201484 Z M38.1800142,22.5634316 C38.1800142,22.990958 38.529545,23.3396203 38.9531289,23.3396203 C39.3802673,23.3396203 39.7303905,22.990958 39.7303905,22.5634316 C39.7303905,22.1359052 39.3802673,21.78665 38.9531289,21.78665 C38.529545,21.78665 38.1800142,22.1359052 38.1800142,22.5634316 L38.1800142,22.5634316 Z M40.7203327,21.0092754 C40.7203327,21.4368018 41.069271,21.78665 41.4975942,21.78665 C41.9241403,21.78665 42.273671,21.4368018 42.273671,21.0092754 C42.273671,20.5829349 41.9241403,20.2330866 41.4975942,20.2330866 C41.069271,20.2330866 40.7203327,20.5829349 40.7203327,21.0092754 L40.7203327,21.0092754 Z M40.0023136,23.7475789 C40.0023136,24.485225 40.6036249,25.0876755 41.3417865,25.0876755 C42.0793556,25.0876755 42.6824443,24.485225 42.6824443,23.7475789 C42.6824443,23.0099329 42.0793556,22.4074823 41.3417865,22.4074823 C40.6036249,22.4074823 40.0023136,23.0099329 40.0023136,23.7475789 L40.0023136,23.7475789 Z M42.7973747,22.0961767 C42.7973747,22.6019742 43.2055556,23.0099329 43.7067471,23.0099329 C44.2114932,23.0099329 44.6190816,22.6019742 44.6190816,22.0961767 C44.6190816,21.5921581 44.2114932,21.1841994 43.7067471,21.1841994 C43.2055556,21.1841994 42.7973747,21.5921581 42.7973747,22.0961767 L42.7973747,22.0961767 Z M42.7393171,19.649611 C42.7393171,20.0972981 43.1089903,20.4661211 43.5503469,20.4661211 C43.9976278,20.4661211 44.3667086,20.0972981 44.3667086,19.649611 C44.3667086,19.2037027 43.9976278,18.8348797 43.5503469,18.8348797 C43.1089903,18.8348797 42.7393171,19.2037027 42.7393171,19.649611 L42.7393171,19.649611 Z" id="Shape" fill="#000000" fill-rule="nonzero"></path>
                        <path d="M44.7156469,45.1280491 C44.2109008,45.5170329 43.0307902,46.3892817 41.069271,46.3892817 C40.0212711,46.3892817 39.5550327,46.0590012 39.3998173,46.0590012 C39.2055019,46.0590012 38.9922289,46.2529001 38.7783635,46.5060954 C38.3174569,47.0504355 37.7149606,48.0602516 37.7149606,49.1661278 C37.7149606,49.9423165 38.3174569,50.7179122 39.4383249,50.7179122 C43.0698902,50.7179122 45.7837892,48.4468636 45.7837892,46.6033413 C45.7837892,45.5555755 45.1629277,45.1280491 44.7156469,45.1280491 L44.7156469,45.1280491 Z M43.7067471,44.9145824 C43.8637397,44.7805728 43.9004701,44.5653272 43.9004701,44.3506745 L43.9004701,43.9041733 C43.9004701,43.3402655 43.0503402,43.0117639 41.8850402,43.0117639 C40.4673672,43.0117639 39.710248,43.6509781 39.710248,43.9237411 L39.710248,44.8167435 C39.710248,45.1867525 40.5651173,45.5555755 41.6137096,45.5555755 C42.4484364,45.5555755 43.2055556,45.3421088 43.7067471,44.9145824 L43.7067471,44.9145824 Z M43.5503469,46.8369688 C43.648097,46.8369688 43.7636199,46.8944862 43.7636199,47.2449274 C43.7636199,47.6712678 43.5704893,48.2339898 42.8749824,48.6798981 C42.3897863,49.0113644 41.7292325,49.2835345 40.7588403,49.3007305 C40.9140556,48.8364404 41.0307634,48.3496177 41.0307634,47.8859205 C41.0307634,47.7299712 41.0118058,47.6131575 40.9922557,47.4388264 L41.2446288,47.4388264 C42.7784171,47.4394193 43.438971,46.8369688 43.5503469,46.8369688 L43.5503469,46.8369688 Z" id="Shape" fill="#000000" fill-rule="nonzero"></path>
                        <path d="M36.1414798,23.1077717 C36.3547528,24.7573951 38.5686451,23.9225031 38.5686451,25.9219746 C38.5686451,26.2137124 38.4910374,26.6418318 38.4910374,27.0100619 C38.4910374,27.4375882 38.5289526,27.8064113 38.8559712,27.8064113 C39.1853594,27.8064113 39.2635596,27.5739697 39.2635596,27.2626641 C39.2635596,26.9513585 39.1853594,26.5635606 39.1853594,26.3500939 C39.1853594,25.6699653 39.671148,25.5152019 39.9632135,25.5152019 C40.7007827,25.5152019 41.2635864,26.2724158 42.3708287,26.2724158 C42.1178633,27.5152664 39.5550327,27.184986 39.5550327,28.5446503 C39.5550327,29.224779 40.2345442,29.3789494 40.6812326,29.3789494 C41.088821,29.3789494 41.2250788,29.320839 41.2250788,28.9721767 C41.2250788,28.7770919 41.1859787,28.5636252 41.1859787,28.4278366 C41.1859787,28.3495655 41.2446288,28.2718873 41.3417865,28.2718873 C41.7701098,28.2718873 43.86137,29.8645862 43.86137,30.3508159 C43.86137,30.7967241 41.6522172,31.2432253 41.0118058,31.2432253 C40.8174904,31.2432253 40.7783903,31.1074368 40.7783903,31.0297587 C40.7783903,30.8939701 41.108371,30.4860115 41.108371,30.25357 C41.108371,30.0786458 40.8174904,29.9618321 40.0402288,29.9618321 C39.671148,29.9618321 39.3992249,30.0009677 39.3992249,30.2927055 C39.3992249,30.8156989 40.2535018,31.457285 40.2535018,31.9417359 C40.2535018,32.3307197 40.0206787,32.5637542 39.3992249,32.5637542 C38.8749288,32.5637542 38.0822641,32.1552026 38.0822641,31.4762598 C38.0822641,30.9325127 38.6421058,30.3899515 38.6421058,30.0590781 C38.6421058,29.9618321 38.5680526,29.8064758 38.3352296,29.8064758 C37.6160257,29.8064758 37.4223027,31.7087014 34.8796145,31.922761 C35.287203,31.553938 35.6355489,31.1459794 35.6355489,30.3122733 C35.6355489,29.9043147 35.539576,29.5734413 35.539576,29.127533 C35.539576,28.5446503 35.8103142,28.2529125 36.1983526,28.2529125 C36.9157793,28.2529125 37.26531,29.2621357 37.7327334,29.2621357 C37.9856988,29.2621357 38.2570295,29.0302871 38.2570295,28.6804389 C38.2570295,27.2045538 35.4234607,27.4180205 35.4234607,25.3402777 C35.4240531,24.7769628 35.6171837,24.0778593 36.1414798,23.1077717 L36.1414798,23.1077717 Z M45.3951584,28.7972526 C45.3951584,29.2817035 45.5515585,29.8450184 46.0367547,29.8450184 C46.444343,29.8450184 46.7932814,29.224779 46.7932814,28.5446503 C46.7932814,27.7678687 46.657616,27.1654181 46.657616,26.8541125 C46.657616,26.718917 46.7162661,26.6608066 46.7932814,26.6608066 C47.0847545,26.6803743 47.3560851,27.4761308 47.6677007,27.4761308 C48.0172314,27.4761308 48.537973,26.8345448 48.7506536,26.8345448 C48.8093037,26.8345448 48.8282612,26.9128159 48.8282612,26.9317907 C48.8282612,27.2235286 48.3815728,27.8651146 48.3815728,28.117124 C48.3815728,28.3305907 49.5077728,28.3691333 49.5077728,28.5636252 C49.5077728,28.855363 48.3270697,28.855363 47.7648584,29.1079653 C47.2216046,29.3404068 46.8898466,29.6315517 46.8898466,30.0205355 C46.8898466,30.4089263 47.2784774,30.4860115 47.8223236,30.4860115 C49.1185495,30.4860115 50.030884,29.787501 50.3217647,29.787501 C50.3798223,29.787501 50.41833,29.8254506 50.41833,29.8841539 C50.41833,30.0786458 49.758961,30.719046 49.758961,31.0107839 C49.758961,31.3404713 50.9627686,31.7276762 50.9432185,31.922761 C50.924261,31.9808715 50.8460608,31.9998463 50.7103955,31.9998463 C50.4959376,31.9998463 50.1665494,31.9417359 49.9135839,31.9417359 C49.7583685,31.9417359 49.6227032,31.9607107 49.5634607,32.0383889 C49.4289802,32.1943382 49.6025607,33.2237221 49.3324149,33.2237221 C49.0794495,33.2237221 48.419488,30.9325127 46.9289467,30.9325127 C46.7150813,30.9325127 46.5598659,31.1074368 46.5598659,31.3985817 C46.5598659,32.1747704 47.3169851,33.0677728 48.0355966,33.4952992 C48.360838,33.7093589 48.9052765,33.9228256 48.9052765,34.0402323 C48.9052765,34.2720809 47.6665158,34.0592071 47.6665158,34.447005 C47.6665158,34.7968532 47.8217312,35.3222185 47.8217312,35.6317452 C47.8217312,35.7289912 47.8021811,35.844619 47.6860659,35.844619 C47.4532429,35.844619 46.8892542,34.7772854 46.6179236,34.7772854 C46.3851005,34.7772854 45.8803544,35.4176856 45.666489,35.4176856 C45.6084314,35.4176856 45.5699237,35.3595752 45.5699237,35.3020577 C45.5699237,34.8549636 46.2885353,33.8457404 46.2885353,32.8548991 C46.2885353,32.38883 46.2298852,31.3790139 45.666489,31.3790139 C45.200843,31.3790139 44.6759544,32.11666 44.4431314,32.8548991 C44.3080585,33.2818325 44.4046238,34.9326417 44.0936006,34.9326417 C43.80272,34.9326417 43.8803276,33.8261726 43.4911044,33.8261726 C43.2049632,33.8261726 42.5835093,34.349759 42.3696439,34.349759 C42.3305438,34.349759 42.2914438,34.3301912 42.2914438,34.2916486 C42.2914438,34.0592071 42.8548399,33.3014002 42.8548399,33.1460439 C42.8548399,32.8548991 41.5734247,32.8163564 41.5734247,32.5833219 C41.5734247,32.4469405 42.0781707,32.3502874 42.5438168,32.2720163 C43.5307969,32.0970922 44.9863851,31.3790139 44.9863851,30.3697907 C44.9863851,29.2437538 43.8992852,28.7575241 43.1848207,28.2914551 C42.8157399,28.0584206 42.4081515,27.8651146 42.4081515,27.7097583 C42.4081515,27.553809 42.8737976,27.553809 43.068113,27.553809 C43.3589936,27.553809 43.6469122,27.5342412 43.6469122,27.3017997 C43.6469122,27.1262826 43.6078121,26.7776203 43.6078121,26.5054503 C43.6078121,26.3109584 43.6267697,26.155602 43.7055623,26.155602 C43.9964429,26.155602 44.4040313,27.1067148 44.5989392,27.1067148 C44.9087774,27.1067148 45.3359159,26.3299332 45.6279814,26.3299332 C45.7239543,26.3299332 45.7636467,26.3886365 45.7636467,26.5629677 C45.7648316,27.2816389 45.3951584,28.0969632 45.3951584,28.7972526 L45.3951584,28.7972526 Z" id="Shape" fill="#000000" fill-rule="nonzero"></path>
                        <path d="M36.704876,34.1748349 C37.5982529,34.2916486 37.8121183,34.6017683 37.8121183,34.8549636 C37.8121183,35.2824899 37.4234875,35.4176856 37.0538143,35.4176856 C36.7830761,35.4176856 36.472053,35.3595752 36.1420723,35.3595752 C35.7143413,35.3595752 35.2883878,35.4568211 34.9394495,35.8647797 C35.1912301,35.9033223 35.5603109,36.0788394 35.5603109,36.4678232 C35.5603109,37.5938601 32.4370462,36.6605362 32.4370462,39.555382 C32.4370462,41.0887846 34.0282998,42.7597546 36.4329529,42.7597546 C37.676453,42.7597546 38.4720798,42.3517959 38.4720798,41.884541 C38.4720798,41.516311 37.8127108,41.7677273 37.8127108,41.4570146 C37.8127108,41.3212261 38.0455338,41.0680309 38.0455338,40.8533782 C38.0455338,40.75969 37.9679261,40.58358 37.8127108,40.58358 C37.4619951,40.58358 36.8020337,41.1451161 35.4631532,41.1451161 C34.4151534,41.1451161 33.3867035,40.5450374 33.3867035,39.7285272 C33.3867035,39.5541961 33.4649036,39.4563571 33.5810189,39.4563571 C33.6977267,39.4563571 33.8523496,39.5346283 33.9886073,39.5346283 C34.105315,39.5346283 34.1242727,39.4563571 34.1242727,39.2434834 C34.1242727,39.0294238 34.1242727,38.4269732 34.4921686,38.4269732 C34.8618418,38.4269732 35.5603109,39.7866376 38.2392567,39.7866376 C39.1284867,39.7866376 40.8565904,39.6128994 41.4975942,39.0294238 C41.4780443,41.1658698 39.8074058,43.9812585 36.3168376,43.9812585 C32.6888269,43.9812585 30.748635,41.0680309 30.748635,38.3878377 C30.748635,35.4176856 33.1728381,32.7191105 36.491603,32.7191105 C37.3441026,32.7191105 38.063899,33.0096624 38.063899,33.3790784 C38.0633065,33.8848759 36.8014412,33.5735703 36.704876,34.1748349 L36.704876,34.1748349 Z M42.6617094,35.2054048 C42.7973747,35.4176856 42.8560248,35.6317452 42.8560248,35.8256442 C42.8560248,36.3699843 42.486944,36.8745959 42.486944,37.4385038 C42.486944,38.0789039 42.9727325,38.6024903 43.7067471,38.6024903 C44.5023739,38.6024903 45.04622,37.9632761 45.04622,37.2048763 C45.04622,36.1754924 44.1143355,35.3020577 42.6617094,35.2054048 L42.6617094,35.2054048 Z M36.2386375,36.4476624 C36.431768,36.6409684 36.4910105,36.8354603 36.4910105,37.0299522 C36.4910105,37.3210971 36.3553452,37.6324027 36.3553452,37.9626831 C36.3553452,38.4269732 36.704876,38.8355248 37.2084372,38.8355248 C37.7528758,38.8355248 38.122549,38.4074055 38.122549,37.9045728 C38.122549,37.1663337 37.3630602,36.4476624 36.2386375,36.4476624 L36.2386375,36.4476624 Z M38.8174635,33.1460439 C40.855998,33.5344347 41.9626479,35.0690232 41.9626479,36.5063658 C41.9626479,37.4972071 41.3417865,38.4079984 40.2540942,38.4079984 C39.2635596,38.4079984 38.549095,37.7290557 38.549095,36.6415614 C38.549095,35.8262371 39.1853594,34.9717773 39.1853594,34.1362923 C39.1853594,33.8066048 39.0887942,33.4763244 38.8174635,33.1460439 L38.8174635,33.1460439 Z M39.8269557,35.7289912 C39.8269557,36.0005682 40.0212711,36.2146279 40.2931942,36.2146279 C40.6030325,36.2146279 40.7979403,35.9424579 40.7979403,35.6317452 C40.7979403,35.2243796 40.4288596,34.6610647 40.0793288,34.6610647 C39.923521,34.6610647 39.9821711,34.8940992 39.9436635,35.1467014 C39.923521,35.3400074 39.8269557,35.5730418 39.8269557,35.7289912 L39.8269557,35.7289912 Z" id="Shape" fill="#000000" fill-rule="nonzero"></path>
                        <path d="M18.4101994,15.7479138 C19.0695684,15.7479138 19.8255028,12.1747182 19.8255028,11.5722677 C19.8255028,11.4169114 19.7680375,11.3000977 19.6323722,11.3000977 C19.0304684,11.3000977 18.1969264,14.6989621 18.1969264,15.4567689 C18.196334,15.5925575 18.2348416,15.7479138 18.4101994,15.7479138 L18.4101994,15.7479138 Z M23.1632253,16.8158403 C23.6472365,16.8158403 24.1904902,14.9509714 24.1904902,13.785799 C24.1904902,13.5331967 24.1519825,13.2622126 24.0346824,13.2622126 C23.627094,13.2622126 22.948175,15.1845989 22.948175,16.2329576 C22.9487674,16.6409163 23.0465175,16.8158403 23.1632253,16.8158403 L23.1632253,16.8158403 Z M19.9990833,15.087353 C20.2123563,15.087353 20.4842793,14.8531325 20.9902103,14.2915965 C21.0281255,14.0389942 21.0281255,13.8053667 21.0281255,13.5142219 C21.0281255,13.126424 20.8729101,12.6988976 20.6406796,12.6988976 C20.0577334,12.6988976 19.7674451,14.2524609 19.7674451,14.6610125 C19.7680375,14.8928611 19.8835604,15.087353 19.9990833,15.087353 L19.9990833,15.087353 Z M22.6578867,14.2915965 C22.6578867,13.9607231 22.5796866,13.8830449 22.5026714,13.8830449 C22.308356,13.8830449 22.0956754,14.1166723 21.7852447,14.6408517 C21.8237523,15.3399552 21.9404601,15.6506679 22.134183,15.6506679 C22.347456,15.6506679 22.6578867,14.9705392 22.6578867,14.2915965 L22.6578867,14.2915965 Z M24.1519825,11.9997941 C25.4328054,11.9997941 26.0139743,13.1068562 26.0139743,14.3497068 C26.0139743,14.8928611 25.8599439,15.6898034 25.6075708,15.6898034 C25.3551978,15.6898034 25.3942978,15.2427093 25.3551978,14.8347507 C25.3166901,14.3105713 25.21894,14.1943505 25.0441746,14.1943505 C24.7141939,14.1943505 24.5015133,14.9705392 24.5015133,15.6898034 C24.5015133,16.1357117 24.579121,16.6409163 24.9274669,16.6409163 C25.1217823,16.6409163 25.2965477,16.5436703 25.4132554,16.4274496 C25.3356477,17.319859 24.6750938,18.0978266 23.7443942,18.0978266 C22.0370253,18.0978266 21.3966139,16.0971691 21.2034833,14.9319966 C20.1750335,16.0194909 19.2247838,16.8158403 17.5168225,16.8158403 C15.9267538,16.8158403 15.2087347,15.6506679 15.2087347,14.5441987 C15.2087347,14.2133253 15.32485,13.3594585 15.7330308,13.3594585 C16.2176345,13.3594585 15.7910885,14.9509714 16.7413382,14.9509714 C16.9747537,14.9509714 17.4001148,14.7564795 17.6341227,14.1166723 C17.769788,13.7276886 17.8473956,13.3209159 17.8473956,12.9704747 C17.8473956,12.4457024 17.7312804,12.1166079 17.343242,12.1166079 C17.0126688,12.1166079 16.6050805,12.3680242 16.4694151,12.5044057 C16.9356536,11.1061987 18.0606687,10.3881204 19.3006142,10.3881204 C20.834995,10.3881204 21.6489869,11.7471918 21.6489869,13.2622126 C21.6489869,13.4750863 21.6294369,13.7081208 21.5903368,13.9221805 C22.2502983,12.8346862 23.1632253,11.9997941 24.1519825,11.9997941 L24.1519825,11.9997941 Z" id="Shape" fill="#000000" fill-rule="nonzero"></path>
                        <path d="M20.5239719,17.222613 C19.6898375,17.222613 19.6513298,18.234208 19.6513298,20.2716292 C19.029876,18.9321257 18.002611,17.4947831 16.7993959,17.4947831 C15.9848114,17.4947831 15.6749732,18.0391232 15.6749732,18.9896431 C15.6749732,19.184135 15.6939308,19.4758728 15.7330308,19.649611 C15.8301886,19.3205164 16.1406193,19.184135 16.5280652,19.184135 C17.3633845,19.184135 18.3716918,19.8245351 19.0310608,20.6991556 C18.2751266,20.5633671 17.5375574,20.4269856 16.9172884,20.4269856 C16.5286576,20.4269856 16.1797193,20.4661211 15.8888386,20.6019097 C15.3260349,20.853919 14.5695081,21.689404 14.5695081,22.9518224 C14.5695081,23.1463143 14.5890582,23.3591881 14.6281582,23.5922226 C15.3070773,22.0772019 17.1110114,21.3976662 18.2751266,21.3976662 C18.508542,21.3976662 18.6821225,21.4172339 18.8183802,21.4368018 C18.2164765,21.9799559 18.0814036,22.9316617 18.041711,23.5726548 C18.0233459,23.8833674 17.9060457,23.9035282 17.6921804,23.9035282 C17.6921804,24.5433354 18.1975189,25.4956341 18.1975189,25.9806779 C18.1975189,26.155602 18.1003611,26.3109584 18.0037959,26.3500939 C18.0037959,27.2045538 18.8562955,27.825979 18.8562955,28.3691333 C18.8562955,28.5049218 18.8183802,28.6217355 18.7591377,28.6804389 C18.8183802,29.0302871 19.7567815,29.6179135 19.8782286,29.9126162 C20.0275197,30.2707659 20.195176,30.3312482 20.2923336,30.3312482 C20.6223144,30.3312482 21.1448332,29.9422644 21.1448332,29.5924161 C21.1448332,29.4761954 21.0476756,29.3404068 20.9712528,29.2817035 C20.6021719,29.0107193 20.4078565,28.4278366 20.2526412,28.0400387 C20.1163834,28.0400387 19.9410257,27.9825213 19.8794135,27.7536376 C19.7733693,27.3516086 19.7680375,26.6026962 19.6128222,26.155602 C19.3604492,26.0974917 19.2437414,26.0002457 19.2437414,25.4760663 C19.2437414,25.223464 19.3995492,24.2326227 19.3995492,23.8827745 C19.2834339,23.8827745 19.1282185,23.8050963 19.1282185,23.5720618 C19.1282185,22.9512295 19.7496724,22.4655927 19.9232529,21.6698363 C21.0293104,22.4845675 21.3000486,23.3194596 21.3000486,24.0582916 C21.3000486,24.4454965 21.241991,24.8149125 21.1643833,25.1653537 C21.9795601,24.7568021 23.2017329,24.1549445 23.2017329,22.9316617 C23.2017329,22.2123975 22.8717521,21.416641 20.6791872,21.1059283 C21.3581063,20.8533261 22.2123831,20.7181305 22.9298098,20.7181305 C24.172125,20.7181305 24.8895517,21.1059283 25.0441746,21.979363 C25.2965477,21.5915651 25.4908631,21.1444709 25.4908631,20.7371053 C25.4908631,19.7848065 24.6946439,19.1645671 23.6863365,19.1645671 C22.5026714,19.1645671 21.4552639,19.7848065 20.3296565,20.5432064 C20.8355874,19.4948476 21.1827484,18.8734223 21.8047947,18.8734223 C21.90136,18.8734223 21.9985177,18.8929901 22.0956754,18.9125578 C21.8628524,18.058691 20.9902103,17.222613 20.5239719,17.222613" id="Shape" fill="#000000" fill-rule="nonzero"></path>
                        <path d="M53.2116139,31.2236576 C54.1831909,31.2236576 54.9592676,32.4854831 54.9592676,33.9619611 C54.9592676,35.5344993 54.2211061,37.2440119 52.9053302,38.4079984 C52.8857801,35.7871015 49.6807608,36.6219936 49.6807608,34.719768 C49.6807608,33.9044437 50.2642995,33.3601036 50.963361,33.3601036 C51.5848148,33.3601036 52.0700109,33.5350277 52.4195416,33.8854689 C52.0700109,33.5545955 51.8952455,33.0879336 51.8952455,32.6420253 C51.8952455,31.9026003 52.361484,31.2236576 53.2116139,31.2236576" id="Shape" fill="#000000" fill-rule="nonzero"></path>
                        <path d="M35.8891068,12.7765757 C36.3944453,13.2622126 36.8393565,13.4750863 37.3832026,13.4750863 C37.5976605,13.4750863 37.8506259,13.4175689 37.9868837,13.4175689 C38.161649,13.4175689 38.2771719,13.4946541 38.2771719,13.6304426 C38.2771719,13.8445023 38.0828565,14.1943505 37.8506259,14.3888424 C38.0828565,14.4854954 38.335822,14.524631 38.6077451,14.524631 C39.7096556,14.524631 40.9715209,13.8249345 40.9715209,12.0780653 C41.2055288,12.387592 41.3411941,13.0291781 41.3411941,13.3209159 C41.3411941,15.4372012 39.7872633,16.2525254 38.3547796,16.2525254 C37.4228951,16.2525254 36.9560642,15.9412198 36.8387641,15.9412198 C36.4708681,15.9412198 36.4904181,16.6800518 36.2380451,16.660484 C35.7913566,16.5828058 35.3849531,15.5925575 35.3849531,14.5441987 C35.3855455,13.9221805 35.5407608,13.2622126 35.8891068,12.7765757 L35.8891068,12.7765757 Z M38.8174635,11.358801 C38.6622482,11.1061987 38.0828565,10.9710032 37.8121183,10.9710032 C36.9566566,10.9710032 36.3743028,11.5722677 36.2581875,12.1166079 C36.1805798,11.922116 36.1225222,11.6890815 36.1225222,11.456047 C36.1225222,10.6015871 36.704876,9.5532284 38.1231415,9.5532284 C39.3613097,9.5532284 39.8465058,10.2131963 40.0218636,10.2131963 C40.2155865,10.2131963 40.4099019,10.0187044 40.5657098,10.0187044 C40.7789827,10.0187044 40.7789827,10.3489849 40.7789827,10.5826123 C40.7789827,11.358801 40.4288596,12.6988976 39.5556251,13.1845344 C39.3998173,12.8542539 39.0893866,12.4848379 38.5881951,12.2523964 C38.4525298,12.194286 38.3944721,12.0780653 38.3944721,11.9612515 C38.3938797,11.7471918 38.5876027,11.4750218 38.8174635,11.358801 L38.8174635,11.358801 Z" id="Shape" fill="#000000" fill-rule="nonzero"></path>
                        <path d="M22.4055136,7.12563752 C22.4055136,7.80517322 24.8303092,11.1257665 25.2965477,11.1257665 C25.6851785,11.1257665 25.9754667,10.4462308 25.9754667,9.86275511 C25.9754667,9.70858473 25.9363667,9.55382134 25.8599439,9.43641467 C25.5104131,8.95077792 23.0465175,7.00882373 22.5026714,7.00882373 C22.4440213,7.00882373 22.4055136,7.0675271 22.4055136,7.12563752 L22.4055136,7.12563752 Z M8.14584382,5.12557297 C8.14584382,5.51455676 6.67189041,6.81492485 6.14877912,6.81492485 C5.95505614,6.81492485 5.89581364,6.58248329 5.89581364,6.36901658 C5.89581364,5.98121872 6.07057902,5.4368786 6.28444444,5.26136152 C6.53563264,5.02832703 7.11798643,4.91329219 7.56408244,4.91329219 C7.83541311,4.91329219 8.14584382,4.97021664 8.14584382,5.12557297 L8.14584382,5.12557297 Z M25.8599439,6.25220285 C25.8599439,5.08643741 22.7123898,2.97015213 22.6774367,2.0581749 C22.6738822,1.9745671 22.7194989,1.89155226 22.7899975,1.81743188 C23.3291042,1.24818731 25.5678783,0.833113148 25.5678783,0.348069336 C25.5678783,0.0966529842 25.1016398,0.0966529842 24.8688168,0.0966529842 C23.0648827,0.0966529842 20.4262217,0.756620906 20.4262217,1.39702105 C20.4262217,2.0581749 22.7929596,3.66984859 22.7929596,4.46619801 C22.7929596,4.67966473 22.6572943,4.75734289 22.4434289,4.75734289 C21.7846522,4.75734289 20.348614,3.9604005 19.669695,3.9604005 C19.3592643,3.9604005 19.2419642,4.17386721 19.2419642,4.4857658 C19.2419642,5.41731082 20.3480216,7.18434082 20.3480216,7.70733429 C20.3480216,7.76603766 20.3284716,7.84371576 20.2508639,7.84371576 C19.9013331,7.84371576 18.2537992,5.90294759 17.670853,5.90294759 C17.4581724,5.90294759 17.43803,6.19349951 17.43803,6.6210259 L17.43803,7.28099379 C17.43803,7.72749505 17.41848,7.99966511 17.2063918,7.99966511 C16.7004609,7.99966511 16.4682303,6.58248329 15.9836266,6.58248329 C15.4788805,6.58248329 15.3817228,9.10613419 14.8977116,9.10613419 C14.3343154,9.10613419 14.8195115,6.32928805 14.2762578,6.32928805 C13.6749463,6.32928805 12.9954349,8.17458919 12.5682965,8.17458919 C12.4136736,8.17458919 12.3751659,8.01863991 12.3751659,7.88285138 C12.3751659,7.32012941 12.7039618,6.40755921 12.7039618,5.86440499 C12.7039618,5.59164197 12.6263541,5.4368786 12.3947159,5.4368786 C11.7922197,5.4368786 10.4734816,6.40755921 9.96932798,6.40755921 C9.8917203,6.40755921 9.79456257,6.36901658 9.79456257,6.29074545 C9.79456257,5.82586239 11.9089275,4.34938429 11.9089275,3.68941636 C11.9089275,3.0478303 8.99775099,3.47594965 8.99775099,2.73711763 C8.99775099,2.11628528 11.0753855,1.47529217 11.0753855,0.834299073 C11.0753855,0.270984133 8.61089741,0.0195677821 7.6606477,0.0195677821 C6.51549017,0.0195677821 5.89522122,0.154170404 5.89522122,0.484450847 C5.89522122,0.989655402 8.49537457,1.1456047 8.49537457,1.59151294 C8.49537457,2.01903933 5.79806352,3.16464403 5.79806352,3.82461195 C5.79806352,4.40749467 9.60024717,3.86315455 9.60024717,4.46619801 C9.60024717,5.12557297 6.28385202,7.97950435 6.28385202,8.93121011 C6.28385202,9.14526981 6.43906738,9.24251573 6.65174795,9.24251573 C7.6606477,9.24251573 10.2785738,7.32012941 10.9971854,7.32012941 C11.2495584,7.32012941 11.2691085,7.63024907 11.2691085,7.90241913 C11.2691085,8.40762369 11.0949355,9.18381236 11.0949355,9.74772029 C11.0949355,10.1936285 11.2110508,10.5043412 11.5984967,10.5043412 C12.3177007,10.5043412 12.9758849,9.28105834 13.4622658,9.28105834 C14.0825348,9.28105834 13.7140464,12.8732288 14.6453385,12.8732288 C15.4403729,12.8732288 15.7697612,8.98991348 16.2745073,8.98991348 C16.7792534,8.98991348 17.1874342,10.1159504 17.6524878,10.1159504 C18.2336567,10.1159504 17.9623261,8.15502144 18.58378,8.15502144 C19.2621066,8.15502144 21.2022985,10.4853663 22.0755329,10.4853663 C22.3468636,10.4853663 22.4434289,10.2713067 22.4434289,9.99913664 C22.4434289,8.96975272 21.0085755,6.64059365 21.0085755,5.90294759 C21.0085755,5.70904866 21.0660407,5.65034531 21.2793137,5.65034531 C22.0358404,5.65034531 24.2485479,6.69870407 25.2953628,6.69870407 C25.6472633,6.69870407 25.8599439,6.50480513 25.8599439,6.25220285 L25.8599439,6.25220285 Z M23.8415519,2.40743016 C23.8415519,2.75668542 25.0637246,3.51449225 25.6271208,3.51449225 C25.9565091,3.51449225 26.0536669,3.06739808 26.0536669,2.60132909 C26.0536669,2.01903933 25.8024786,1.99947155 25.2971401,1.99947155 C24.6567287,1.99947155 23.8415519,2.17439566 23.8415519,2.40743016 L23.8415519,2.40743016 Z M19.282249,0.426340464 C19.282249,0.309526734 18.7004877,0.192713005 17.9054533,0.192713005 C16.6441805,0.192713005 16.8189458,1.24285064 15.8491461,1.24285064 C14.8402463,1.24285064 15.0914345,0.154170404 13.8112041,0.154170404 C13.0351273,0.154170404 12.3182931,0.290551916 12.3182931,0.464883065 C12.3182931,0.698510523 13.2294428,0.601264576 13.2294428,1.24285064 C13.2294428,1.92179339 11.2697009,2.11628528 11.2697009,2.52424389 C11.2697009,2.66003243 11.4243238,2.71814282 11.6186392,2.71814282 C12.04637,2.71814282 12.7241042,2.52424389 13.2098927,2.52424389 C13.4818158,2.52424389 13.7341888,2.58176131 13.7341888,2.83436359 C13.7341888,3.32000036 12.6855966,4.19402795 12.6855966,4.58241879 C12.6855966,4.69923251 12.7821619,4.73836807 12.8793196,4.73836807 C13.2679504,4.73836807 13.9279118,3.74752675 14.5481809,3.74752675 C15.5766307,3.74752675 14.898304,5.94149019 15.4599229,5.94149019 C16.0416842,5.94149019 15.7899036,3.78547638 16.624038,3.78547638 C17.304142,3.78547638 17.8077032,5.28092931 18.2733493,5.28092931 C18.390057,5.28092931 18.4866222,5.18427632 18.4866222,5.04789481 C18.4866222,4.64112213 17.9048609,3.80504417 17.9048609,3.26188998 C17.9048609,2.93160953 18.1376839,2.77566024 18.4481146,2.77566024 C18.8936182,2.77566024 19.4955221,3.0478303 19.8243179,3.0478303 C19.9404332,3.0478303 20.0571409,3.00928769 20.0571409,2.87349915 C20.0571409,2.40743016 18.3319994,1.90281857 18.3319994,1.30096103 C18.3325918,0.698510523 19.282249,0.698510523 19.282249,0.426340464 L19.282249,0.426340464 Z" id="Shape" fill="#000000" fill-rule="nonzero"></path>
                        <path d="M53.6772599,3.5731956 C53.6772599,5.30049709 52.4195416,6.6210259 50.1469994,6.98984893 C50.3999648,7.00882373 50.6327878,7.00882373 50.8662033,7.00882373 C53.5220446,7.00882373 54.4936216,5.80570164 54.4936216,4.79647846 C54.4936216,4.23257056 54.1825985,3.72855193 53.6772599,3.5731956 L53.6772599,3.5731956 Z M50.3999648,5.53353158 C50.3999648,4.15489239 47.1043045,3.80504417 47.1043045,3.49492447 C47.1043045,3.24291516 48.9443766,2.8147958 49.8952187,2.79522802 C48.4402229,0.931545019 46.3667354,1.12603691 46.3667354,0.795756469 C46.3667354,0.601264576 47.9194813,0.212280787 49.3531498,0.212280787 C50.5557726,0.212280787 51.6813801,0.484450847 51.6813801,1.39702105 C51.6813801,1.90281857 51.2737917,2.4275909 51.2737917,3.20318663 C51.2737917,3.63071302 51.4858798,3.99953606 52.0504609,3.99953606 C52.6535495,3.99953606 52.78803,3.35913592 52.78803,2.67841429 C52.78803,2.11628528 52.6914647,1.68875889 52.6914647,1.41658883 C52.6914647,0.601264576 53.2501215,0.0581103831 54.0463407,0.0581103831 C54.7063022,0.0581103831 54.8621099,0.348069336 55.8330945,0.348069336 C55.308206,0.659967925 55.114483,1.22328286 55.114483,1.49426699 C55.114483,2.31077717 55.6399639,2.87349915 55.6399639,4.54387618 C55.6399639,7.61068132 52.7690724,8.69817561 49.2559921,8.69817561 C48.2903394,8.69817561 47.2601123,8.62049744 46.2500276,8.46573405 C46.0954047,8.4461663 46.0563047,8.40762369 46.0563047,8.31037778 C46.0563047,8.05777547 47.4354701,7.92139393 47.4354701,6.67972927 C47.4354701,6.19349951 47.2796623,5.72802348 47.2796623,5.55369233 C47.2796623,5.45644638 47.35727,5.39774303 47.4354701,5.39774303 C47.7263508,5.39774303 48.3098894,6.52377993 49.3928423,6.52377993 C49.6807608,6.52377993 50.3999648,6.42653401 50.3999648,5.53353158 L50.3999648,5.53353158 Z M53.5611447,1.24285064 C53.5611447,1.51383478 53.7744176,1.72730149 54.0463407,1.72730149 C54.3182638,1.72730149 54.5321292,1.51383478 54.5321292,1.24285064 C54.5321292,0.970680583 54.3182638,0.756620906 54.0463407,0.756620906 C53.7744176,0.756620906 53.5611447,0.970680583 53.5611447,1.24285064 L53.5611447,1.24285064 Z" id="Shape" fill="#000000" fill-rule="nonzero"></path>
                        <path d="M51.8371879,19.184135 C51.8371879,18.7767693 50.8075532,18.7382267 50.7109879,17.5920291 C50.6908455,17.4176979 50.6327878,17.1075782 50.4189224,17.1075782 C50.0699841,17.1075782 50.3413148,18.1755047 49.9532764,18.1755047 C49.0610843,18.1755047 48.7702036,16.4274496 48.4402229,16.4274496 C48.3620228,16.4274496 48.2696045,16.4855599 48.2696045,16.7185944 C48.2696045,16.9326541 48.3087045,17.0684426 48.3087045,17.319859 C48.3087045,17.5730542 48.249462,17.7479783 48.0172314,17.7479783 C47.4929353,17.7479783 47.0266968,16.5241025 46.5800084,16.5241025 C46.4828507,16.5241025 46.3862854,16.5828058 46.3862854,16.6800518 C46.3862854,16.9130863 46.7737313,17.3394267 46.7737313,17.5534865 C46.7737313,18.0201484 45.5118661,17.7669531 45.5118661,18.1559369 C45.5118661,18.3308611 45.686039,18.3883785 45.9194545,18.3883785 C46.3276353,18.3883785 46.9686392,18.2146403 47.2986199,18.2146403 C47.4929353,18.2146403 47.783816,18.2531829 47.783816,18.5045993 C47.783816,18.7767693 47.0847545,19.1260245 47.0847545,19.3786269 C47.0847545,19.4954406 47.2008698,19.552958 47.2980275,19.552958 C47.8223236,19.552958 48.7500612,18.6409807 49.4100226,18.6409807 C49.5261379,18.6409807 49.8170186,18.6990912 49.8170186,18.8740152 C49.8170186,19.1260245 49.1576496,19.5719328 49.1576496,19.9413488 C49.1576496,20.0385947 49.216892,20.1548155 49.3330074,20.1548155 C49.6801684,20.1548155 50.1464069,19.2428383 50.8069608,19.2428383 C51.0593339,19.2428383 51.4284146,19.3400842 51.6233225,19.3400842 C51.7791302,19.3400842 51.8371879,19.2428383 51.8371879,19.184135 L51.8371879,19.184135 Z M52.341934,28.6021678 C52.6529571,27.6320801 53.0415879,26.9513585 53.6772599,25.9029997 C53.0415879,25.5739053 51.3513994,24.8736158 51.3513994,23.7280112 C51.3513994,22.3879146 53.0202606,21.3395558 53.3662368,21.3395558 C53.5220446,21.3395558 53.5605522,21.4759373 53.5605522,21.7285396 C53.5605522,22.4270501 53.2305715,23.553087 53.2305715,24.1555375 C53.2305715,24.6986917 53.5801022,25.224057 53.8905329,25.224057 C54.2205136,25.224057 55.1328481,24.0588845 55.1328481,22.9126869 C55.1328481,20.853919 53.3271367,20.2330866 52.76848,20.2330866 C52.2441838,20.2330866 51.2927493,21.0869535 49.0604919,21.0869535 C44.8904123,21.0869535 43.9389777,16.9522219 43.9389777,15.1454633 C43.9389777,15.0677852 43.9573429,15.0482173 43.9768929,15.0482173 C44.0740506,15.0482173 44.4828239,15.5540149 45.8021543,15.5540149 C46.4816658,15.5540149 47.1031196,15.3784978 48.0936543,15.3784978 C50.4177376,15.3784978 51.4473722,16.9913574 52.8845953,19.0483464 C53.7536828,19.5915006 55.8319096,20.4661211 55.8319096,22.9322547 C55.8319096,25.1072433 53.5214521,26.3109584 52.962203,28.6413033 C53.8508404,28.5446503 54.375729,26.9513585 55.2880635,26.9513585 C55.754302,26.9513585 55.967575,27.3207745 55.967575,27.9042502 C55.967575,28.7575241 55.4817865,30.0401032 54.5499019,30.8358597 C54.5688596,30.7581815 54.5688596,30.6603427 54.5688596,30.5441219 C54.5688596,30.0009677 54.356179,29.224779 53.7335403,29.224779 C52.7672951,29.224779 52.4568644,30.2731377 51.9136107,31.1459794 C51.3502145,29.1660756 50.5930954,27.3788849 49.2352573,26.2913906 C47.8614236,25.1849215 45.4917236,25.786186 45.4917236,23.7671467 C45.4917236,23.2228066 45.8418468,22.4466179 45.8418468,21.8251926 C45.8418468,21.6117258 45.8027468,21.4172339 45.6854466,21.2618776 C47.5498081,21.9615741 46.8892542,23.2032388 48.0361891,24.485225 C48.7500612,25.3017352 50.7299456,26.0779239 51.8751031,29.4370598 C51.8940607,29.3404068 51.9136107,29.0883975 51.9136107,28.9134734 C51.9136107,26.0393813 48.1126119,23.2228066 47.7826311,22.0576341 C49.9905991,22.3102364 50.3786375,22.8545765 51.4272298,25.7672112 C51.64228,26.3696617 52.341934,27.8651146 52.341934,28.6021678 L52.341934,28.6021678 Z" id="Shape" fill="#000000" fill-rule="nonzero"></path>
                        <path d="M41.7298249,8.05777547 C40.3702095,8.05777547 39.477425,7.37883271 39.477425,7.02839154 C39.477425,6.85346746 39.5935403,6.73783963 39.7499405,6.73783963 C40.1764865,6.73783963 41.108371,7.39721457 41.4182093,7.39721457 C41.4970018,7.39721457 41.5544671,7.35926497 41.5544671,7.24245124 C41.5544671,6.89260302 41.2244864,6.31031323 41.2244864,6.01976132 C41.2244864,5.94149019 41.2831364,5.88397277 41.3992517,5.88397277 C41.9229554,5.88397277 42.6996246,6.09743949 43.1083978,6.09743949 C43.2440632,6.09743949 43.2825708,6.01976132 43.2825708,5.94149019 C43.2825708,5.51455676 42.0201131,4.67966473 42.0201131,4.42706245 C42.0201131,4.19402795 43.5888546,3.84358677 43.5888546,3.47594965 C43.5888546,3.08696586 41.4561245,3.35913592 41.4561245,2.98971992 C41.4561245,2.71814282 41.8643054,2.25207383 41.8643054,2.03860711 C41.8643054,1.94136117 41.7861053,1.90281857 41.6510323,1.90281857 C41.476267,1.90281857 40.5443824,2.27164161 40.1557516,2.27164161 C39.9620286,2.27164161 39.7286132,2.23309901 39.7286132,1.96033598 C39.7286132,1.51383478 40.4857324,1.02879097 41.6705824,1.02879097 C43.5882621,1.02879097 44.7346045,2.34931978 44.7346045,4.562851 C44.7357893,7.35926497 42.7784171,8.05777547 41.7298249,8.05777547 L41.7298249,8.05777547 Z M37.9477837,4.36895207 C37.9477837,4.15489239 37.1894796,3.74752675 37.1894796,3.51449225 C37.1894796,3.47594965 37.2273949,3.45638187 37.2860449,3.45638187 C37.5005028,3.45638187 37.8695836,3.53406004 38.161649,3.53406004 C38.4140221,3.53406004 38.4525298,2.44656572 38.6432906,2.44656572 C38.778956,2.44656572 39.0111865,3.47594965 39.2262368,3.47594965 C39.4780175,3.47594965 39.9436635,3.18421181 40.1379789,3.18421181 C40.1764865,3.18421181 40.2155865,3.20318663 40.2155865,3.24291516 C40.2155865,3.37870371 39.7303905,3.90229012 39.7303905,4.05764644 C39.7303905,4.23257056 40.8180828,4.44663024 40.8180828,4.60198656 C40.8180828,4.79647846 39.7108404,4.77691068 39.7108404,4.95183479 C39.7108404,5.08643741 40.1190213,5.63077753 40.1190213,5.80570164 C40.1190213,5.84483721 40.0988788,5.86440499 40.0603712,5.86440499 C39.9045634,5.86440499 39.3032521,5.59164197 39.1284867,5.59164197 C38.9146213,5.59164197 38.5692375,6.3879914 38.3944721,6.3879914 C38.3364145,6.3879914 38.2979068,6.31031323 38.2979068,6.21306729 L38.2588068,5.4368786 C38.2588068,5.35920044 38.2208915,5.28092931 38.1231415,5.28092931 C37.889726,5.28092931 37.4430375,5.26136152 37.3061874,5.26136152 C37.2090297,5.26136152 37.1705221,5.2423867 37.1705221,5.20325114 C37.1699296,5.04789481 37.9477837,4.50474062 37.9477837,4.36895207 L37.9477837,4.36895207 Z M37.3832026,7.55197796 C37.6948182,7.55197796 37.7528758,8.31037778 37.8121183,8.75628596 C37.8506259,8.98991348 37.889726,9.00888828 37.9868837,9.00888828 C38.2202991,9.00888828 38.5881951,8.11588582 38.837606,8.11588582 C39.2055019,8.11588582 40.196629,9.14526981 41.8465326,9.14526981 C44.1925356,9.14526981 46.4058354,7.4938676 46.4058354,4.58241879 C46.4058354,1.76643705 44.4241738,0.115627803 41.6907248,0.115627803 C40.3909444,0.115627803 39.4383249,0.756620906 38.9335788,0.756620906 C38.6272951,0.776188691 38.161649,0 37.9276412,0 C37.8310759,0 37.7339182,0.192713005 37.7339182,0.523586411 C37.7339182,0.737646086 37.7339182,1.41658883 37.5005028,1.41658883 C37.0336719,1.41658883 35.2303302,0.077678165 35.2303302,0.562129012 C35.2303302,1.00922319 36.431768,2.36888755 36.431768,2.71814282 C36.431768,3.06739808 35.2492878,3.39827148 35.2492878,3.63071302 C35.2492878,4.05764644 36.5099682,4.13532461 36.5099682,4.67966473 C36.5099682,5.22281893 35.1900452,5.65034531 35.1900452,6.05830392 C35.1900452,6.3879914 36.5099682,6.15554987 36.5099682,6.56291548 C36.5099682,6.97028118 35.5401684,8.32994553 35.5401684,8.71715041 C35.5401684,8.81498933 35.5591261,8.81498933 35.6361413,8.81498933 C36.0052221,8.81498933 37.1112796,7.55197796 37.3832026,7.55197796 L37.3832026,7.55197796 Z" id="Shape" fill="#000000" fill-rule="nonzero"></path>
                        <path d="M28.5951701,41.6515065 C28.5951701,41.8264307 28.53652,42.0209226 28.3813047,42.2142285 C28.1692166,41.8264307 27.5667203,41.6319388 27.2947972,41.6325317 C25.2965477,41.6325317 26.0530744,44.5261916 23.9191596,44.5261916 C23.0269675,44.5261916 22.9487674,44.4093779 22.6199715,44.4093779 C22.4837137,44.4093779 22.4061061,44.4680813 22.4061061,44.584302 C22.4061061,45.0900995 23.1241252,46.3317642 25.1223747,46.3317642 C27.1206243,46.3317642 29.0418585,45.1090743 29.0418585,43.5928677 C29.0418585,43.3402655 28.9838009,43.0704672 28.8670932,42.7982972 C28.9447009,42.6814834 29.1396087,42.6038053 29.3137816,42.6038053 C29.6236199,42.6038053 29.7983853,42.9548394 30.089266,42.9548394 C30.4002891,42.9548394 30.6331121,42.720619 30.6331121,42.4104993 C30.6331121,42.1567111 30.4974468,41.9829729 30.2652162,41.8649732 C30.4204316,41.7493455 30.5365469,41.5548536 30.5365469,41.3413869 C30.5365469,41.0099205 30.3031314,40.7009867 29.9145006,40.7009867 C29.7397352,40.7009867 29.6242123,40.760283 29.488547,40.8931068 C29.4506318,40.5456304 29.255724,40.2153499 28.8866432,40.2153499 C28.5957625,40.2153499 28.3813047,40.4282237 28.3813047,40.75969 C28.3813047,41.0680309 28.5951701,41.3218191 28.5951701,41.6515065" id="Shape" fill="#000000" fill-rule="nonzero"></path>
                        <path d="M17.963511,38.0409543 C19.5156645,38.4269732 20.2917412,39.2624583 20.4463642,40.2532996 C20.6015795,41.2044124 20.7953025,41.98238 21.1637909,42.3695848 C21.6489869,42.9145179 22.599829,43.3971899 23.4345559,43.3971899 C24.133025,43.3971899 24.6946439,43.1665273 24.6946439,42.5249412 C24.6946439,41.8252447 23.7443942,40.2527066 22.347456,40.2527066 C22.2117907,40.2527066 22.0370253,40.2728673 21.8427099,40.2728673 C21.6679445,40.2728673 21.4155715,40.2343248 21.2609485,40.0979432 C20.9511103,39.8251802 20.8533602,38.3688629 20.2715988,37.4954282 C19.6317798,36.5241547 18.9333107,36.2519846 17.983061,36.2519846 C17.3047344,36.2519846 16.5470228,36.6202147 16.5470228,37.1645548 C16.5470228,37.4966142 16.7217882,37.7290557 17.963511,38.0409543 L17.963511,38.0409543 Z M23.3764982,42.3897456 C22.793552,42.3897456 21.92091,41.7671344 21.92091,41.4172861 C21.92091,41.1255483 22.1928331,40.9701919 22.4049212,40.9701919 C22.8907098,40.9701919 23.7627593,41.5738284 23.7627593,42.07844 C23.7633517,42.2142285 23.6661941,42.3897456 23.3764982,42.3897456 L23.3764982,42.3897456 Z" id="Shape" fill="#000000" fill-rule="nonzero"></path>
                        <path d="M21.5909293,27.2626641 C21.5909293,26.0198135 24.5406134,25.3598456 24.5406134,23.8252571 C24.5406134,23.5726548 24.4434557,23.1267466 24.2686903,22.7964661 C25.2959552,23.3591881 26.0530744,24.3114868 26.0530744,25.0876755 C26.0530744,26.4277721 24.6567287,27.0491974 24.6567287,27.8846824 C24.6567287,28.855363 26.1502321,29.0107193 26.1502321,30.2144344 C26.1502321,31.2040898 24.7337439,32.3502874 24.7337439,33.6316807 C24.7337439,34.6219291 25.4328054,35.4366604 26.498578,35.5730418 C26.1496397,35.65072 25.8398014,35.7088304 25.5098207,35.7088304 C23.5494864,35.7088304 21.5322792,34.0977497 21.5322792,32.1747704 C21.5322792,31.2236576 21.9398676,30.3899515 22.5595442,29.787501 C23.1039827,30.25357 23.646644,30.5636896 23.9961748,30.5636896 C24.3060131,30.5636896 24.4428633,30.4089263 24.4428633,30.1758918 C24.4434557,29.4566276 21.5909293,28.7972526 21.5909293,27.2626641 L21.5909293,27.2626641 Z M27.7799933,37.0690878 C27.1147,37.3738708 26.8492936,37.32169 26.8492936,38.0018187 C26.8492936,38.253828 26.7906435,38.5823296 26.7906435,38.7578466 C26.7906435,38.9908812 26.8291512,39.1272626 27.1004818,39.1272626 C27.7995433,39.1272626 28.9056008,37.9431154 28.9056008,36.9327062 C28.9056008,36.6599432 28.7497931,36.5455014 28.5750276,36.5455014 C28.4198123,36.5455014 28.2462318,36.8550281 27.7799933,37.0690878 L27.7799933,37.0690878 Z M27.7023856,35.6702878 C27.7023856,34.7968532 25.8978591,34.7772854 25.8978591,33.4567566 C25.8978591,33.1258832 26.1105397,32.5637542 26.5382705,31.9607107 C26.7136283,32.9705269 27.1194394,33.4952992 27.9938587,33.8261726 C29.7195928,34.4659798 29.9530082,35.4366604 29.9530082,36.4672302 C29.9530082,38.2152854 28.7308354,40.389681 25.5880208,40.389681 C23.0654751,40.389681 21.2609485,38.1364213 21.2609485,36.2336027 C21.2609485,35.7088304 21.3966139,35.1271337 21.7265946,35.1271337 C22.0180677,35.1271337 22.114633,35.3595752 22.347456,35.5920167 C23.2212829,36.4672302 24.1715326,36.6990788 25.5489207,36.6990788 C26.7906435,36.6996717 27.7023856,36.1950601 27.7023856,35.6702878 L27.7023856,35.6702878 Z" id="Shape" fill="#000000" fill-rule="nonzero"></path>
                        <path d="M13.9634574,36.0912916 C14.0108513,36.4968783 13.7211555,36.8627366 13.3165293,36.9101736 C12.9113105,36.9576107 12.5440071,36.6670588 12.4977979,36.262065 C12.4504039,35.8558853 12.7400997,35.4888411 13.1453184,35.4414041 C13.5505371,35.393967 13.9166558,35.6851119 13.9634574,36.0912916 L13.9634574,36.0912916 Z M10.3378163,36.8550281 C10.4201634,37.5179608 11.0380627,38.0207935 11.7353469,37.9431154 C11.9871275,37.9152461 12.220543,37.8464623 12.3763508,37.7492164 C12.5315661,38.3700488 13.0523077,38.7697059 13.7561086,38.6772037 C14.4705732,38.5841085 14.9563616,38.0207935 14.8793464,37.3021222 C14.859204,37.1088163 14.8206963,36.9908166 14.7632311,36.8550281 C14.7632311,36.8550281 14.8574267,36.8449477 14.9285177,36.8319025 C15.6293565,36.6990788 16.1015192,36.1363568 16.0428691,35.4568211 C15.9658539,34.7577176 15.3390682,34.2388749 14.6868083,34.3195179 C14.4338428,34.350352 14.2004273,34.447005 14.0446196,34.5827935 C13.8692618,34.0010967 13.3224535,33.4952992 12.575998,33.6186355 C11.9012259,33.7307055 11.4551299,34.3035079 11.5226664,35.0298877 C11.5339224,35.1478874 11.5611739,35.2824899 11.619824,35.4176856 C11.619824,35.4176856 11.505486,35.4348815 11.4266935,35.4461478 C10.8603352,35.5303485 10.2459905,36.100779 10.3378163,36.8550281 L10.3378163,36.8550281 Z" id="Shape" fill="#000000" fill-rule="nonzero"></path>
                    </g>
                </g>
            </g>
        </g>
    </g>
</svg>