<svg xmlns="http://www.w3.org/2000/svg">
<symbol id="braces-1000" viewBox="0 0 960 30"><path d="M708.1 17.3v-3c54.4-.1 111.3-.2 155.7-.3 76.6-.1 91-8.2 93.6-11.7.5-.7.4-1.1.4-1.1l.1.1 2.6-1.4c.4.7.5 2.2-.4 3.7-3.6 6-23.3 13.3-96.3 13.4-44.4.1-101.3.2-155.7.3zM482 29.6h-3c0-5.3 7.3-9.2 22.2-12 12.6-2.3 27.2-3.2 36.6-3.2 23.3.1 80.6 0 170.3-.1v3c-89.7.1-147 .2-170.3.1-26.3 0-55.8 5.2-55.8 12.2z"/><path d="M481 29.8l-2.9-.8c0-.1.2-.7-.6-1.6-2.9-3.8-17.7-12.5-93.4-12.5H71.3c-2.4 0-59.4.1-70.1-10.5-1.3-1.3-2-2.8-2-4.3h3c0 .7.4 1.5 1.1 2.2 8.1 8.1 51.8 9.7 67.9 9.7H384c70.5 0 91 7.4 95.8 13.7 1.6 1.8 1.4 3.4 1.2 4.1z"/><path d="M480.9 30.2l-2.2-1.1 2.4.6c-.2.4-.2.5-.2.5z"/></symbol>
<symbol id="braces-320" viewBox="0 0 282.8 30"><path d="M282.7.4l-4 .6c0 .1.3 3-2.3 6-2.7 3-8.9 6.6-23.5 6.6h-91c-6 .2-16.1 2.3-20.4 8.8-.5-.9-1.1-1.8-1.9-2.7-4.8-5.5-13.6-8.3-26.2-8.3H22.5c-.1 0-10.8 0-15.9-5C4.8 4.6 4 2.6 4 0H0c0 3.6 1.3 6.7 3.8 9.2 6.2 6.2 18.2 6.1 18.7 6.1h90.9c11.2 0 19.2 2.4 23.1 6.8 3 3.4 2.6 7 2.6 7.1h.3v.4h2.4l1.3.2v-.2h.3c0-11.5 18.4-12 18.7-12H253c13 0 22-2.7 26.6-8.1 3.8-4.4 3.1-8.9 3.1-9.1z"/></symbol>
<symbol id="braces-480" viewBox="0 0 441.3 31"><path d="M222.9 30.1h-4c0-4.6 3.1-10.8 17.7-14.1 8.2-1.8 16.2-2 16.5-2h142.8c28.5 0 37.4-5.5 40.1-8.8 1.7-2 1.4-3.6 1.4-3.7l3.9-.9c.1.3.7 3.4-2 6.8-5.5 7-20.1 10.5-43.4 10.5H253c-8.3.3-30.1 2.7-30.1 12.2z"/><path d="M222.4 30.5l-3.9-.9 2 .4-2-.4c0-.1.3-2.1-1.7-4.6-2.9-3.5-12-9.3-39.8-9.3H34.2c-.9 0-22.9.1-31-8C1.1 5.7 0 3.3 0 .5h4c0 1.7.7 3.2 2 4.5 5.8 5.7 22.3 6.9 28.2 6.9h142.7c22.7 0 37.2 3.7 43.1 10.9 3.1 3.9 2.5 7.3 2.4 7.7z"/></symbol>
<symbol id="braces-768" viewBox="0 0 727 30"><path d="M365.8 29.8h-4c0-14.8 46.2-15.9 55.4-16h236.9c55 0 67-7.4 69.6-10.6.8-1 .7-1.6.7-1.7v.1l3.7-1.5c.1.4.8 2.4-.9 4.9-5.6 8.3-30.9 12.7-73.2 12.7H417.2c-21.3.2-51.4 4.1-51.4 12.1z"/><path d="M365 30.5l-3.8-1.4v.1s.2-.9-.9-2.2c-2.7-3.4-15-11.4-69.4-11.4H54c-1.7 0-43 .1-52.9-9.9C-.5 4.1-1.4 2.2-1.4.2h4c-.1.9.4 1.8 1.2 2.7 7.3 7.3 38.6 8.7 50.1 8.7h236.9c41.6 0 66.8 4.6 72.9 13.4 2.1 2.9 1.4 5.2 1.3 5.5z"/></symbol>
<symbol id="braces-desktop" viewBox="0 0 1167 30"><path d="M585.6 29.6h-3c0-4.2 4.6-10.3 44.2-13.6 21.3-1.8 42.8-1.9 43-1.9h380.3c40.8 0 71.6-1.6 91.5-4.7 17.6-2.7 21.8-6 22.8-7.3.4-.5.3-.8.3-.8l.1.1 2.5-1.6c.4.7.7 2-.1 3.4-4.9 8.9-46.5 13.8-117.1 13.8H669.8c-.2 0-21.6.1-42.8 1.9-38.4 3.3-41.4 9-41.4 10.7z"/><path d="M584.2 30.3l-2.6-1.5c0 .1-.1.1-.1.1s.1-.4-.4-1.1c-2.2-3-16.9-13-114.2-13H86.7c-3 0-74.4.1-85.5-11C0 2.7-.6 1.4-.6 0h3c0 .6.3 1.1.9 1.7 8.5 8.5 63.1 10.2 83.4 10.1H467c70 0 111.5 5.2 117 14.8.8 1.6.6 3 .2 3.7z"/></symbol>
<symbol id="check" viewBox="0 0 20 20"><path d="M10 0C4.5 0 0 4.5 0 10s4.5 10 10 10 10-4.5 10-10S15.5 0 10 0zM8 15l-5-5 1.4-1.4L8 12.2l7.6-7.6L17 6l-9 9z"/></symbol>
<symbol id="click" viewBox="0 0 24 32"><path d="M8.5 7.1c0-.5.2-.9.5-1.3.3-.3.8-.5 1.2-.5.5 0 .9.2 1.2.5.3.3.5.8.5 1.3V15l2.1.2 8.5 3.9c.9.4 1.5 1.4 1.5 2.4v7.8c-.1 1.5-1.2 2.6-2.6 2.7H10.2c-.7 0-1.3-.3-1.7-.8L0 23.8l1.3-1.4c.3-.4.8-.6 1.3-.6H3l5.5 3.1V7.1zM10.2 0c1.8 0 3.6.7 4.9 2.1 1.3 1.3 2 3.1 2 5 0 2.7-1.4 4.9-3.5 6.2v-2.2c1.1-1 1.7-2.4 1.7-4 0-1.4-.5-2.8-1.5-3.8s-2.3-1.6-3.7-1.6c-1.4 0-2.7.6-3.7 1.6C5.6 4.3 5 5.7 5 7.1c0 1.6.7 3 1.7 4v2.2c-2-1.3-3.4-3.5-3.4-6.2 0-1.9.7-3.7 2-5C6.6.7 8.4 0 10.2 0z"/></symbol>
<symbol id="clock-2" viewBox="0 0 32 34"><path d="M16 0C7.2 0 0 7.6 0 17s7.2 17 16 17 16-7.6 16-17S24.8 0 16 0zm0 30.3c-6.9 0-12.5-6-12.5-13.3C3.5 9.7 9.1 3.7 16 3.7S28.5 9.6 28.5 17c0 7.3-5.6 13.3-12.5 13.3z"/><path d="M23.3 7.7c-.7-.7-1.8-.6-2.5.2l-5.2 6.5-3.5-2.7c-.8-.6-1.9-.4-2.5.4-.6.8-.4 2 .4 2.6l4.8 3.7c.3.2.7.4 1 .4.5 0 1-.2 1.3-.7l6.2-7.8c.9-.7.8-1.9 0-2.6z"/></symbol>
<symbol id="clock" viewBox="0 0 24 24"><path d="M12 0C5.4 0 0 5.4 0 12s5.4 12 12 12 12-5.4 12-12S18.6 0 12 0zm5 17l-6.2-3.8V6h1.8v6.2l5.4 3.2-1 1.6z"/></symbol>
<symbol id="close" viewBox="0 0 14 14"><path d="M13.7 1.7c.4-.4.4-1 0-1.4s-1-.4-1.4 0l1.4 1.4zM.3 12.3c-.4.4-.4 1 0 1.4s1 .4 1.4 0L.3 12.3zM1.7.3C1.3-.1.7-.1.3.3s-.4 1 0 1.4L1.7.3zm10.6 13.4c.4.4 1 .4 1.4 0s.4-1 0-1.4l-1.4 1.4zm0-13.4l-12 12 1.4 1.4 12-12L12.3.3zM.3 1.7l12 12 1.4-1.4-12-12L.3 1.7z"/></symbol>
<symbol id="curve" viewBox="0 0 48.5 143.5"><path d="M3.5 143.5c-.5 0-.9-.4-1-.9C-2 104-.6 75.4 7 52.5 14.1 30.9 26.8 14.3 47 .2c.4-.3 1-.2 1.4.2s.2 1.1-.2 1.4C28.3 15.6 15.8 31.9 8.9 53.1c-7.4 22.6-8.8 51-4.3 89.3.1.5-.3 1-.9 1.1h-.2z"/></symbol>
<symbol id="logo" viewBox="0 0 197 60"><path d="M103.7 0h-.2c-2.6 0-4.4.6-5.5 1.5-1.1 1-1.7 2.8-1.7 5.2l.2 46.1c0 2.4.6 4.1 1.5 5.1 1.1 1 3 1.5 5.5 1.5h.3c2.4 0 4.2-.6 5.3-1.5 1.1-1 1.5-2.6 1.5-5V6.6c0-2.4-.6-4.1-1.7-5.1-.8-.9-2.6-1.5-5.2-1.5zM195.1 47.7c-1.2-.9-3.2-1.3-5.7-1.3h-12.5v-.2l15.6-14.3c2.4-2.3 3.6-4.7 3.6-7.5s-.8-4.7-2.2-6.1c-1.4-1.3-3.9-1.9-7.3-1.9h-21.4c-1.8 0-3.2.6-4.2 1.8-1 1.2-1.5 2.6-1.5 4.3 0 2.8.4 4.6 1.3 5.6 1 1.1 2.3 1.7 4.3 1.7h12.4v.6c-1.1 1.2-3.5 3.6-7.5 7.3-4.1 3.7-6.9 6.7-8.8 8.8-1.7 2-2.5 4-2.5 5.9l.3-.4c0 2.5.7 4.4 1.9 5.6 1.3 1.2 3.3 1.8 6.1 1.8h23.2c2.4 0 4.2-.4 5.3-1.3 1.1-.9 1.5-2.6 1.5-5.3 0-2.5-.7-4.1-1.9-5.1zM36.2 29.5c2.1-1 3.9-2.4 5.3-4.6 1.4-2.2 2.2-4.6 2.2-7 0-4.5-1.8-8.1-5.4-10.8-3.6-2.5-8.7-3.7-15.5-3.7H7c-2.5 0-4.4.6-5.4 1.5-1 1-1.6 2.8-1.6 5.2l.2 42.7c0 2.4.6 4.1 1.5 5.1 1.1 1 3 1.5 5.5 1.5H24c6.5 0 11.9-1.4 16.1-4.4 4.2-3 6.3-7 6.3-12.4 0-3.9-1-6.8-3.1-8.9-2.1-2.2-4.5-3.5-7.1-4.2zM15.4 15.6h6.5c4.6 0 7 1.8 7 5.3 0 3.6-2.2 5.4-6.7 5.4h-6.8V15.6zm7.4 31.5h-7.4V35.8H23c5 0 7.4 1.9 7.4 5.5 0 3.8-2.6 5.8-7.6 5.8zM85.6 39.5c2.9-2.2 4.3-5.3 4.3-9.5s-1.5-7.7-4.6-10.5c-3.1-2.9-7.3-4.3-12.8-4.3-6.5 0-11.7 2-15.7 6.1-4.2 3.9-6.2 9.5-6.2 16.7l.4.1c0 7.2 2.1 12.6 6.2 16.3 4.1 3.6 9.6 5.5 16.4 5.5 2.5 0 5-.3 7.3-1 2.4-.7 4.4-1.7 6.1-3.1 1.7-1.4 2.5-3.1 2.5-5 0-1.2-.4-2.4-1.2-3.6-.8-1.1-1.7-1.9-2.8-2.3-2.4 2.3-5.8 3.4-10 3.4-3.3 0-6.1-.7-8.3-2-2.2-1.3-3.3-3.2-3.3-5.4 2.9 1.3 6.4 1.9 10.8 1.9 4.3-.1 8-1.1 10.9-3.3zm-20.9-6.3c.2-2.1 1-3.7 2.3-5 1.4-1.2 3-1.9 4.7-1.9 1.9 0 3.3.4 4.5 1.2 1.2.9 1.8 1.9 1.8 3.1 0 2.8-1.8 4.1-5.2 4.1-3.8.2-6.5-.4-8.1-1.5zM153.2 47.7c-1.2-.9-3.2-1.3-5.7-1.3H135v-.2l15.6-14.3c2.4-2.3 3.6-4.7 3.6-7.5s-.8-4.7-2.2-6.1-3.9-1.9-7.3-1.9h-21.4c-1.8 0-3.2.6-4.2 1.8-1 1.2-1.5 2.6-1.5 4.3 0 2.8.4 4.6 1.3 5.6 1 1.1 2.3 1.7 4.3 1.7h12.4v.6c-1.1 1.2-3.5 3.6-7.5 7.3-4.1 3.7-6.9 6.7-8.8 8.8-1.7 2-2.5 4-2.5 5.9l.2-.3c0 2.5.7 4.4 1.9 5.6 1.3 1.2 3.3 1.8 6.1 1.8h23.2c2.4 0 4.2-.4 5.3-1.3 1.1-.9 1.5-2.6 1.5-5.3.1-2.6-.6-4.2-1.8-5.2z"/></symbol>
<symbol id="no-calls" viewBox="0 0 30 33"><path d="M21.8 26.9H8.7L5.4 30v1.4c0 .8.7 1.5 1.5 1.5h16.3c.8 0 1.5-.7 1.5-1.5V11.7l-2.8 2.6-.1 12.6zM15 31.5c-.8 0-1.5-.7-1.5-1.6 0-.9.7-1.6 1.5-1.6s1.5.7 1.5 1.6c0 .9-.7 1.6-1.5 1.6zM29.6 1C29 .3 27.9.2 27.2.9l-2.6 2.5V1.5c0-.8-.7-1.5-1.5-1.5H6.9c-.8 0-1.5.7-1.5 1.5v20.2L.5 26.4c-.7.6-.7 1.7-.1 2.4.3.4.8.6 1.2.6.4 0 .8-.2 1.1-.5L29.5 3.5c.6-.7.7-1.8.1-2.5zm-7.7 5.1l-13.7 13V2.9h13.7v3.2z"/></symbol>
<symbol id="pizza" viewBox="0 0 26 28"><path d="M13 18.2c-.8 0-1.5-.3-2-.8s-.8-1.2-.8-2c0-1.6 1.3-2.8 2.9-2.8.8 0 1.5.3 2 .8s.8 1.2.8 2-.3 1.5-.8 2c-.6.5-1.3.8-2.1.8zM5.8 7c0-1.6 1.3-2.8 2.9-2.8.8 0 1.5.3 2 .8s.8 1.2.8 2-.3 1.5-.8 2-1.3.8-2 .8C7.1 9.8 5.8 8.5 5.8 7zM13 0C7.8 0 3.2 2.2 0 5.6L13 28 26 5.6C22.8 2.2 18.2 0 13 0z"/></symbol>
<symbol id="silent-mode" viewBox="0 0 26 29"><path d="M15.8 26.1c0 .8-.3 1.5-.8 2.1-.5.5-1.3.8-2 .8-.8 0-1.5-.3-2-.8s-.8-1.3-.8-2.1h5.6zm8.2 2.3l-3.7-3.7H0l4.3-4.4v-8.7c0-.9.1-1.9.4-2.7l-4-4.1 2-2 3.4 3.5 19.9 20-2 2.1zM11.5 3V1.5c0-.4.2-.8.4-1 .3-.3.6-.4 1-.4s.7.2 1 .4c.3.3.4.6.4 1V3c4.1.7 7.2 4.3 7.2 8.6v6L8.3 4.3c.9-.7 2-1.1 3.2-1.3z"/></symbol>
<symbol id="speed" viewBox="0 0 34 24"><path d="M28.1 4.2C25.1 1.6 21.2 0 17 0 7.6 0 0 7.8 0 17.3V24h33.9V20.2v-2.9c.1-8.5-5.8-13.1-5.8-13.1zm-24 16v-2.6h3.5v-1.1H4.4h-.2c.1-3 1.2-5.9 3.4-8.3l.1-.1.2.1 2.3 2.4.7-.7-2.6-2.6c2.2-2.1 5.1-3.3 8.1-3.4H16.7v3.5h.9V3.9c.4.1.9.1 1.3.2 2.6.3 5 1.5 7 3.3l-2.5 2.5.7.7 2.4-2.4.1-.1.1.1c2 2.3 3.2 5.2 3.3 8.2h-3.5v1.1H30v2.6l-25.9.1zm17.5-8.3s-5.5 1.7-6.6 2.8c-1.1 1.1-1.1 2.8 0 3.9s2.8 1.1 3.8 0c1.1-1 2.8-6.7 2.8-6.7z"/></symbol>
<symbol id="star" viewBox="0 0 33 34"><path d="M32.9 12.9c-.2-.6-.7-1.1-1.3-1.2l-9.4-1.5L17.9 1c-.3-.6-.8-1-1.5-1-.6 0-1.2.4-1.5 1l-4.2 9.2-9.4 1.5c-.6.1-1.1.5-1.3 1.2-.2.6 0 1.3.4 1.8l6.8 7.2L5.7 32c-.1.7.1 1.3.6 1.7.3.2.7.3 1 .3.3 0 .5-.1.8-.2l8.4-4.8 8.4 4.8c.2.1.5.2.8.2.3 0 .7-.1.9-.3.5-.4.7-1 .6-1.7l-1.6-10.1 6.8-7.2c.6-.5.7-1.2.5-1.8zm-10.5 8.6l1.2 7.6-6.3-3.6c-.5-.3-1-.3-1.5 0l-6.3 3.6 1.2-7.6c.1-.6-.1-1.1-.5-1.5l-5.1-5.4 7.1-1.1c.5-.1 1-.4 1.2-.9l3.2-6.9 3.1 6.9c.2.5.7.9 1.2.9l7.1 1.1-5.2 5.4c-.4.4-.5.9-.4 1.5z"/></symbol>
<symbol id="wallet" viewBox="0 0 32 33"><path d="M30.2 14.6H30V11c0-2.2-1.6-4-3.6-4.3V4.5c0-1.5-.6-2.8-1.8-3.6-1.1-.9-2.5-1.1-3.8-.7l-.3.1C16 1.8 5.2 5.4 1.5 6.7.6 7 0 7.6 0 8.5v22.6c0 1 .8 1.9 1.8 1.9h24.1c2.3 0 4.2-1.9 4.2-4.3v-3.3h.2c1 0 1.8-.8 1.8-1.9v-7c-.1-1-.9-1.9-1.9-1.9zm-3.7 0h-3c-2.8 0-5.2 2.4-5.2 5.4 0 3 2.3 5.4 5.2 5.4h3v3.3c0 .3-.3.6-.6.6H3.6V10.4h22.3c.3 0 .6.3.6.6v3.6zm-3 3.8h5v3.3h-5c-.9 0-1.6-.7-1.6-1.6 0-1 .7-1.7 1.6-1.7zM13.3 6.6l8.6-2.8c.2-.1.5 0 .7.1.2.1.3.4.3.6v2.1h-9.6z"/></symbol>
</svg>