<svg id="svg2" xmlns="http://www.w3.org/2000/svg" viewBox="0 0 384.83 379.3"><defs><style>.cls-1{fill:#8080ce;}.cls-1,.cls-2,.cls-3,.cls-4,.cls-5{stroke:#000;}.cls-2,.cls-3,.cls-4,.cls-5{fill:none;}.cls-2,.cls-3,.cls-6,.cls-7{stroke-linecap:round;}.cls-2,.cls-6{stroke-linejoin:round;}.cls-2,.cls-3{stroke-width:1.08px;}.cls-3,.cls-7{stroke-linejoin:bevel;}.cls-4{stroke-width:0.36px;}.cls-5{stroke-width:0.18px;}.cls-11,.cls-6,.cls-7{fill:#316192;}.cls-6,.cls-7,.cls-8,.cls-9{stroke:#fff;}.cls-6,.cls-7{stroke-width:1px;}.cls-8,.cls-9{fill:#fff;}.cls-8{stroke-width:0.33px;}.cls-9{stroke-width:0.17px;}.cls-10{fill:#1a1a1a;}</style></defs><title>07</title><g id="layer1"><path id="path2484-3" class="cls-1" d="M0-552.36" transform="translate(-38.42 -69.62)"/><path id="path2484" class="cls-1" d="M0-552.36" transform="translate(-38.42 -69.62)"/><g id="g6015"><path id="path2466-5" class="cls-2" d="M208.26,254c-.93,33.22,1.49,59.57,4.74,67.7s14,20.18,37.91,15c20-4.29,29.15-12.58,32.31-30.89,2.33-13.47,5.55-41.28,6.13-48.95" transform="translate(-38.42 -69.62)"/><path id="path2468-0" class="cls-2" d="M191.06,83.7S80.82,39.42,85.86,140.13c1.07,21.43,32.59,162.12,67.94,119.62C175.19,239.82,178.4,232,178.4,232" transform="translate(-38.42 -69.62)"/><path id="path2470-7" class="cls-2" d="M241.87,75.62c-3.75,1.18,60.27-23.4,96.66,23.09,12.85,16.42-2,83.53-37.67,136.4" transform="translate(-38.42 -69.62)"/><path id="path2472-2" class="cls-3" d="M300.86,224.25s2.32,11.43,36.07,4.46c14.79-3.05,5.89,19.43-9.11,26.39-12.31,5.71-39.9,7.18-40.35-.72-1.16-20.36,14.52-25,13.39-30.14-1-4.6-8,1.75-12.67-9.49-4-9.82-55.54-85.1,14.28-73.92,2.56-.53-18.21-66.41-83.56-67.49s-63.19,80.34-63.19,80.34" transform="translate(-38.42 -69.62)"/><path id="path2474-7" class="cls-2" d="M193.74,242.07c-9.11,10.17-6.43,12-24.64,15.71-18.42,3.8-7.59,7.53-.53,9.62,15.15,2.77,27.13,7.25,41.77-8.36,4.08-5.71,0-17.33-5.63-19.65C202,238.27,198.39,236.87,193.74,242.07Z" transform="translate(-38.42 -69.62)"/><path id="path2476-1" class="cls-2" d="M193.14,241.9c-.92-6,2-13.1,5.06-21.43,4.64-12.5,15.36-25,6.79-64.63-6.39-29.54-49.24-6.15-49.26-2.14S157.66,174,155,193c-3.46,24.76,15.76,45.71,37.89,43.56" transform="translate(-38.42 -69.62)"/><path id="path2478-4" class="cls-4" d="M182.95,153.1c-.19,1.37,2.5,5,6,5.51s6.52-2.36,6.71-3.73-2.5-2.87-6-3.36-6.52.22-6.71,1.59Z" transform="translate(-38.42 -69.62)"/><path id="path2480-8" class="cls-5" d="M289.9,150.31c.19,1.37-2.5,5-6,5.51s-6.52-2.36-6.71-3.73,2.51-2.87,6-3.36,6.52.22,6.71,1.59Z" transform="translate(-38.42 -69.62)"/><path id="path2482-4" class="cls-2" d="M302.46,140.84c.58,10.73-2.31,18-2.68,29.46-.54,16.6,7.92,35.6-4.82,54.63" transform="translate(-38.42 -69.62)"/><path id="path11678" d="M171.64,236.41l21-.48-9.21,13.49L167.51,248Z" transform="translate(-38.42 -69.62)"/><path id="path2464" class="cls-6" d="M330.37,234.63c-31.1,6.41-33.24-4.11-33.24-4.11C330,181.79,343.7,119.95,331.85,104.81,299.54,63.52,243.6,83,242.66,83.55l-.3.05a110.94,110.94,0,0,0-20.75-2.16c-14.07-.23-24.75,3.69-32.85,9.83,0,0-99.79-41.11-95.15,51.71,1,19.75,28.3,149.41,60.88,110.24,11.91-14.32,23.41-26.43,23.41-26.43a30.2,30.2,0,0,0,19.73,5l.56-.47a21.72,21.72,0,0,0,.22,5.58c-8.39,9.38-5.93,11-22.7,14.48-17,3.5-7,9.73-.49,11.36,7.89,2,26.16,4.77,38.5-12.5l-.49,2c3.29,2.63,5.6,17.13,5.21,30.28s-.65,22.17,1.95,29.22,5.17,22.91,27.23,18.18c18.43-3.95,28-14.18,29.31-31.26.94-12.14,3.08-10.34,3.21-21.19l1.71-5.14c2-16.45.31-21.76,11.67-19.29l2.76.24c8.36.38,19.29-1.34,25.71-4.33,13.82-6.41,22-17.13,8.39-14.31h0Z" transform="translate(-38.42 -69.62)"/><path id="path2466" class="cls-6" d="M215.05,244.06c-.86,30.61.21,61.44,3.21,68.93s9.41,22.06,31.47,17.34c18.43-4,25.13-11.6,28-28.47,2.14-12.42,6.27-46.9,6.8-54" transform="translate(-38.42 -69.62)"/><path id="path2468" class="cls-6" d="M188.61,90.59s-99.86-40.82-95.22,52c1,19.75,28.3,149.41,60.88,110.25,11.91-14.32,22.67-25.56,22.67-25.56" transform="translate(-38.42 -69.62)"/><path id="path2470" class="cls-6" d="M242.55,83.15c-3.46,1.08,55.55-21.57,89.08,21.28,11.85,15.14-1.88,77-34.72,125.71" transform="translate(-38.42 -69.62)"/><path id="path2472" class="cls-7" d="M296.92,230.13s2.14,10.53,33.24,4.11c13.63-2.81,5.43,7.9-8.39,14.32-11.34,5.26-36.77,6.61-37.19-.66-1.07-18.77,13.38-13.07,12.34-17.77-.94-4.23-7.41-8.39-11.68-18.76-3.73-9-51.19-78.43,13.16-68.12,2.36-.49-16.78-61.21-77-62.2s-58.23,74-58.23,74" transform="translate(-38.42 -69.62)"/><path id="path2474" class="cls-6" d="M198.2,236.55c-8.39,9.38-5.93,11-22.7,14.48-17,3.5-7,9.73-.49,11.35,7.89,2,26.16,4.77,38.5-12.51,3.76-5.26,0-13.65-5.18-15.79-2.49-1-5.83-2.33-10.12,2.47h0Z" transform="translate(-38.42 -69.62)"/><path id="path2476" class="cls-6" d="M197.65,236.39c-.85-5.51,1.81-12.07,4.66-19.75,4.28-11.52,14.15-23,6.25-59.56-5.89-27.22-45.38-5.67-45.4-2s1.79,18.71-.66,36.2c-3.19,22.82,14.52,42.12,34.92,40.15" transform="translate(-38.42 -69.62)"/><path id="path2478" class="cls-8" d="M188.25,154.55c-.18,1.26,2.31,4.62,5.55,5.07s6-2.18,6.18-3.44-2.31-2.65-5.55-3.1-6,.21-6.18,1.46h0Z" transform="translate(-38.42 -69.62)"/><path id="path2480" class="cls-9" d="M286.82,152c.18,1.26-2.31,4.62-5.55,5.07s-6-2.18-6.19-3.44,2.31-2.65,5.55-3.1,6,.21,6.18,1.46Z" transform="translate(-38.42 -69.62)"/><path id="path2482" class="cls-6" d="M298.4,143.26c.53,9.89-2.13,16.62-2.47,27.15-.5,15.3,7.29,32.81-4.45,50.35" transform="translate(-38.42 -69.62)"/><path id="path5731" class="cls-10" d="M76.12,400.34q0,6.61-3.92,10.35t-10.75,3.74H43.3l0,20.84-4.93.08v-49l24.4-.08q6.3,0,9.78,3.74t3.52,10.35m-5,.18q0-10.31-9.87-10.31l-18-.08v20.39h17q10.79,0,10.79-10" transform="translate(-38.42 -69.62)"/><path id="path5733" class="cls-10" d="M111.84,419.24q0,7.84-4.1,12.25-4.58,4.93-13.35,4.93a21.17,21.17,0,0,1-7.31-1.15,14.41,14.41,0,0,1-5.42-3.7q-4.23-4.71-4.23-12.33t4.1-12.16q4.54-5,12.86-5,8.81,0,13.3,4.89,4.14,4.4,4.14,12.29m-4.27,0q0-13.7-13.17-13.7-5.95,0-9.34,3.66a12,12,0,0,0-2.51,4.32,18.08,18.08,0,0,0-.84,5.73q0,6.3,3.26,10T94.4,433q6.78,0,10.09-3.83a10.61,10.61,0,0,0,2.33-4.19,19.76,19.76,0,0,0,.75-5.73" transform="translate(-38.42 -69.62)"/><path id="path5735" class="cls-10" d="M146.3,426.42q0,9.91-14.84,9.91a35.41,35.41,0,0,1-7.66-.7,12.06,12.06,0,0,1-5-2.29,8.29,8.29,0,0,1-2.38-3.13,15.56,15.56,0,0,1-1.15-4.89l4.58-.08q0,3.88,2.42,5.73,2.6,2.2,9.21,2.2,10.4,0,10.4-6.21a5,5,0,0,0-3.48-5,80.6,80.6,0,0,0-8.41-1.41q-7.66-1.15-9.56-2-4.1-1.94-4.1-7a8.22,8.22,0,0,1,3.66-7.36,15.28,15.28,0,0,1,4.49-1.54,31.14,31.14,0,0,1,6.3-.57q14.27,0,14.27,10.7h-4.36q0-7.53-10-7.53-5.11,0-7.62,1.54a5.05,5.05,0,0,0-2.51,4.67q0,3,3.39,4.23a55.71,55.71,0,0,0,9.12,1.59q6.39.71,8.77,1.94a7.34,7.34,0,0,1,4.54,7.18" transform="translate(-38.42 -69.62)"/><path id="path5737" class="cls-10" d="M166.28,435.41c-.7.15-1.34.25-1.89.31a7.64,7.64,0,0,1-1.15.08q-4.49,0-6.48-1.54t-2-5.51V406.51h-5.46v-3.3h5.42l0-10.62H159v10.66l7.31-.08v3.35l-7.31-.08v21.63a4.31,4.31,0,0,0,1.06,3.35,6.13,6.13,0,0,0,3.88.92,3.63,3.63,0,0,0,.88-.08l1.45-.31,0,3.35" transform="translate(-38.42 -69.62)"/><path id="path5739" class="cls-10" d="M200.53,434.3q0,14.62-16.43,14.62-8.59,0-12.2-2.82-3.13-2.42-3.83-7.8l4.32-.08q.75,3.92,2.73,5.46,2.64,2.07,8.85,2.07,6.61,0,9.47-3t2.91-8.5l0-5.73q-4,6.21-13.43,6.21-7.88,0-12.2-4.32a14.34,14.34,0,0,1-3-5.11,21.82,21.82,0,0,1-1-6.92q0-7.75,4.1-11.85,4.32-4.49,12.51-4.49a16.22,16.22,0,0,1,9.12,2.33,29.28,29.28,0,0,1,4,4.27l0-5.55h4.18v31.14m-4.18-16q0-5.77-3.22-9.21t-9.34-3.48q-6.12,0-9.51,3.44t-3.35,9.43q0,13,13.17,13a13.57,13.57,0,0,0,5.07-.88,11.57,11.57,0,0,0,3.92-2.6q3.26-3.39,3.26-9.69" transform="translate(-38.42 -69.62)"/><path id="path5741" class="cls-10" d="M224.89,406.47a19.62,19.62,0,0,0-3.52-.36q-10.35,0-10.35,13.52l0,15.64h-4.18l0-32,4.18-.08v5.77h.22a9.78,9.78,0,0,1,3.35-5.11q2.51-1.67,7.49-1.67h1.67a4.89,4.89,0,0,1,1.15.08v4.23" transform="translate(-38.42 -69.62)"/><path id="path5743" class="cls-10" d="M259.38,420.12H229.47a13.17,13.17,0,0,0,3,9q3.52,4.05,10.09,4.05,9.29,0,11.63-8.33h4.54a14.25,14.25,0,0,1-4.8,8,15.67,15.67,0,0,1-5.07,2.64,19.32,19.32,0,0,1-6.25,1q-8.5,0-13.17-5.11-4.32-4.58-4.32-12.38t4.49-12.25q4.49-4.54,12.64-4.54a20.8,20.8,0,0,1,7.62,1.28,13.12,13.12,0,0,1,5.46,3.83q4,4.67,4,12.82m-4.4-2.91a11.56,11.56,0,0,0-3.57-8.28,12.1,12.1,0,0,0-9.12-3.66,14.27,14.27,0,0,0-5.15.88,11.42,11.42,0,0,0-4.1,2.6,15.38,15.38,0,0,0-3.57,8.46H255" transform="translate(-38.42 -69.62)"/><path id="path5724" class="cls-11" d="M314.16,422.3q0,17.25-23.23,17.25-13.92,0-20.32-5.93-5.24-4.87-5.24-14.82h6.24q0,16,19.31,16,9.26,0,13.39-3.33,3.49-2.86,3.49-9T303,413.84q-2.7-1.32-13.17-3.33-13.17-2.38-17.09-4.82-5.66-3.54-5.66-12,0-7.94,4.81-11.75,5.19-4.23,17.78-4.23,22.75,0,22.75,18h-6.3q0-13.49-16.88-13.49-8.47,0-12.38,2.7-3.7,2.91-3.7,8.52,0,5.87,4.76,8.31,2.54,1.38,14.92,3.81,11.64,2.12,15.71,4.87,5.56,3.44,5.56,11.8" transform="translate(-38.42 -69.62)"/><path id="path5726" class="cls-11" d="M376,439.39l-3.81,4.13L363,435.85a22.39,22.39,0,0,1-7.09,2.8,44.54,44.54,0,0,1-9.79,1q-14.34,0-22.65-8.52T315.2,408.6q0-14.23,8.2-22.59T346,377.64a36.47,36.47,0,0,1,13.17,2.22,25.16,25.16,0,0,1,9.84,6.77q7.62,8.25,7.62,22a36.57,36.57,0,0,1-2.33,13.55,24.68,24.68,0,0,1-7.2,9.89l8.89,7.35m-5.34-30.79A32.57,32.57,0,0,0,369,397.86a22.11,22.11,0,0,0-5.08-8.31q-6.51-7.25-17.88-7.25-11.22,0-18,6.93t-6.77,19.37q0,12,6.83,19.15t18,7.14a27.16,27.16,0,0,0,9.84-1.69,23.65,23.65,0,0,0,7.88-5q6.88-7.2,6.88-19.58" transform="translate(-38.42 -69.62)"/><path id="path5728" class="cls-11" d="M423.19,438l-42.59.08V379.26l5.87-.11v54h36.77l-.05,4.92" transform="translate(-38.42 -69.62)"/></g></g></svg>