<?xml version="1.0" encoding="utf-8"?>
<!-- Generator: Adobe Illustrator 21.0.2, SVG Export Plug-In . SVG Version: 6.00 Build 0)  -->
<svg version="1.1"
	 id="Layer_1" xmlns:cc="http://creativecommons.org/ns#" xmlns:dc="http://purl.org/dc/elements/1.1/" xmlns:rdf="http://www.w3.org/1999/02/22-rdf-syntax-ns#" xmlns:svg="http://www.w3.org/2000/svg"
	 xmlns="http://www.w3.org/2000/svg" xmlns:xlink="http://www.w3.org/1999/xlink" x="0px" y="0px" viewBox="0 0 631.9 666.4"
	 style="enable-background:new 0 0 631.9 666.4;" xml:space="preserve">
<style type="text/css">
	.st0{fill:#FFFFFF;}
</style>
<g id="g24" transform="translate(-190.99973,-181.12168)">
	<g id="g6">
		<path id="path4" class="st0" d="M751.6,246.1c-16.6-15.2-83.5-63.8-232.5-64.5c0,0-175.8-10.6-261.5,68
			c-47.7,47.7-64.5,117.5-66.2,204.1c-1.8,86.6-4.1,248.7,152.3,292.7h0.1l-0.1,67.1c0,0-1,27.2,16.9,32.7
			c21.6,6.7,34.3-13.9,55-36.2c11.3-12.2,27-30.2,38.8-43.9c106.9,9,189.2-11.6,198.5-14.6c21.6-7,143.8-22.7,163.6-184.8
			C837,399.6,806.6,293.8,751.6,246.1z M769.7,554.7c-16.8,135.4-115.9,144-134.1,149.8c-7.8,2.5-80,20.5-170.8,14.5
			c0,0-67.7,81.6-88.8,102.9c-3.3,3.3-7.2,4.7-9.8,4c-3.6-0.9-4.6-5.2-4.6-11.5c0.1-9,0.6-111.5,0.6-111.5c-0.1,0-0.1,0,0,0
			c-132.2-36.7-124.5-174.8-123-247.1s15.1-131.5,55.4-171.3c72.5-65.6,221.8-55.8,221.8-55.8c126.1,0.6,186.5,38.5,200.5,51.2
			C763.3,319.8,787,415.1,769.7,554.7L769.7,554.7z"/>
	</g>
	<g id="g10">
		<path id="path8" class="st0" d="M580.4,458.4c-4.5,0-8.2-3.5-8.4-8c-1.4-28.6-14.9-42.6-42.4-44.1c-4.6-0.2-8.2-4.2-8-8.9
			c0.2-4.6,4.2-8.2,8.9-8c36.3,2,56.5,22.7,58.3,60.1c0.2,4.6-3.3,8.6-8,8.8C580.7,458.4,580.6,458.4,580.4,458.4L580.4,458.4z"/>
	</g>
	<g id="g14">
		<path id="path12" class="st0" d="M623.7,472.9c-0.1,0-0.1,0-0.2,0c-4.7-0.1-8.3-4-8.2-8.6c0.7-28.8-7.6-52.1-25.2-71.3
			c-17.5-19.1-41.5-29.6-73.5-31.9c-4.6-0.3-8.1-4.4-7.8-9c0.3-4.6,4.4-8.1,9-7.8c35.9,2.6,64.4,15.2,84.7,37.3
			c20.4,22.2,30.3,50.2,29.6,83.1C632,469.2,628.2,472.9,623.7,472.9L623.7,472.9z"/>
	</g>
	<g id="g18">
		<path id="path16" class="st0" d="M668,490.2c-4.6,0-8.4-3.7-8.4-8.4c-0.4-51.5-15.2-90.9-45.4-120.3
			c-29.8-29-67.4-43.9-111.8-44.2c-4.7,0-8.4-3.8-8.4-8.5c0-4.6,3.8-8.4,8.4-8.4c0,0,0,0,0.1,0c48.9,0.4,90.5,16.8,123.5,49
			c33.1,32.3,50,76.8,50.5,132.3C676.4,486.3,672.7,490.2,668,490.2L668,490.2z"/>
	</g>
	<g id="g22">
		<path id="path20" class="st0" d="M531.7,562.8c0,0,11.9,1,18.2-6.9l12.4-15.6c6-7.8,20.5-12.7,34.7-4.8
			c7.9,4.5,22.1,13.2,30.9,19.7c9.4,6.9,28.7,23,28.7,23c9.2,7.7,11.3,19.1,5.1,31.1c0,0.1-0.1,0.2-0.1,0.2
			c-6.4,11.3-15,22-25.9,31.9c-0.1,0.1-0.1,0.1-0.2,0.2c-8.9,7.4-17.7,11.7-26.3,12.7c-1,0.2-2.3,0.3-3.8,0.2
			c-3.8,0-7.5-0.5-11.2-1.7l-0.3-0.4c-13.3-3.7-35.4-13.1-72.3-33.4c-24-13.2-43.9-26.7-60.7-40.1c-8.9-7-18-15-27.3-24.2
			c-0.3-0.3-0.6-0.6-0.9-0.9c-0.3-0.3-0.6-0.6-0.9-0.9l0,0l0,0c-0.3-0.3-0.6-0.6-0.9-0.9c-0.3-0.3-0.6-0.6-0.9-0.9
			c-9.2-9.3-17.2-18.4-24.2-27.3c-13.4-16.8-26.9-36.8-40.1-60.7c-20.3-36.9-29.7-59-33.4-72.3l-0.4-0.3c-1.2-3.7-1.8-7.4-1.7-11.2
			c-0.1-1.5,0-2.8,0.2-3.8c1-8.6,5.3-17.4,12.7-26.3c0.1-0.1,0.1-0.1,0.2-0.2c9.9-10.9,20.5-19.5,31.9-25.9c0.1,0,0.2-0.1,0.2-0.1
			c12-6.2,23.4-4.1,31.1,5.1c0.1,0.1,16.1,19.3,23,28.7c6.5,8.9,15.3,23,19.7,30.9c7.9,14.2,3,28.7-4.8,34.7l-15.6,12.4
			c-7.9,6.4-6.9,18.2-6.9,18.2S445.1,540.7,531.7,562.8L531.7,562.8z"/>
	</g>
</g>
</svg>
