<svg id="Слой_1" data-name="Слой 1" xmlns="http://www.w3.org/2000/svg" xmlns:xlink="http://www.w3.org/1999/xlink" viewBox="0 0 1442.64 1361.71"><defs><style>.cls-1{opacity:.35}.cls-4{fill:#333}.cls-11,.cls-12,.cls-18,.cls-23{isolation:isolate}.cls-6{fill:#1a1a1a}.cls-12,.cls-18,.cls-23,.cls-7{fill:#fff}.cls-9{fill:#2affd5}.cls-10{fill:#2d4b86}.cls-12{font-size:116.31px}.cls-12,.cls-18,.cls-23{font-family:SegoeUI-Bold,Segoe UI;font-weight:700}.cls-15{fill:#93c704}.cls-18{font-size:52.12px}.cls-23{font-size:18.56px}</style><linearGradient id="Безымянный_градиент" x1="-2156.07" y1="-2929.25" x2="-2156.07" y2="-2122.44" gradientTransform="matrix(.27 0 0 .27 1410.5 1643.13)" gradientUnits="userSpaceOnUse"><stop offset="0" stop-color="#666"/><stop offset=".38" stop-color="#ccc"/><stop offset=".62" stop-color="#b3b3b3"/><stop offset=".79" stop-color="#e6e6e6"/><stop offset="1" stop-color="#666"/></linearGradient><linearGradient id="Безымянный_градиент_2" x1="-1406.18" y1="-2622.55" x2="-1406.18" y2="-2567.44" gradientTransform="matrix(.27 0 0 .27 1208.04 1778.11)" gradientUnits="userSpaceOnUse"><stop offset="0"/><stop offset=".19" stop-color="#b3b3b3"/><stop offset=".92" stop-color="#b3b3b3"/><stop offset="1" stop-color="#1a1a1a"/></linearGradient><linearGradient id="Безымянный_градиент_3" x1="2743.46" y1="-3505.97" x2="2743.46" y2="-5932.65" gradientTransform="matrix(.27 0 0 .27 87.63 1607)" gradientUnits="userSpaceOnUse"><stop offset="0" stop-opacity="0"/><stop offset="1" stop-color="#fff" stop-opacity=".66"/></linearGradient><linearGradient id="Безымянный_градиент_4" x1="-415.83" y1="-3093.17" x2="-479.03" y2="-2991.76" gradientTransform="matrix(.27 0 0 .27 1519.15 1658.96)" gradientUnits="userSpaceOnUse"><stop offset="0"/><stop offset="1" stop-color="#4d4d4d"/></linearGradient><linearGradient id="Безымянный_градиент_5" x1="-4297.41" y1="-4749.49" x2="-4297.41" y2="-7176.17" gradientTransform="matrix(.11 0 0 .21 730.29 2111.06)" xlink:href="#Безымянный_градиент_3"/><linearGradient id="Безымянный_градиент_6" x1="-504.99" y1="-3104.4" x2="-568.21" y2="-3002.97" gradientTransform="matrix(.27 0 0 .27 394.43 2071.54)" xlink:href="#Безымянный_градиент_4"/><linearGradient id="Безымянный_градиент_7" x1="-18898.4" y1="-9905.23" x2="-18898.4" y2="-12331.91" gradientTransform="matrix(.05 0 0 .11 1500.53 2360.74)" xlink:href="#Безымянный_градиент_3"/><linearGradient id="Безымянный_градиент_8" x1="-4273.77" y1="-6581.3" x2="-4336.99" y2="-6479.87" gradientTransform="matrix(.15 0 0 .15 1195.78 2317.08)" xlink:href="#Безымянный_градиент_4"/></defs><ellipse cx="828.27" cy="1084.94" rx="574.46" ry="22.67"/><ellipse cx="274.02" cy="1279.15" rx="265.33" ry="13.74"/><path d="M696.95 852.23c-5.72 98.47-13.6 181.79-81.53 217.84h425.88c-67.92-36-75.81-119.37-81.53-217.84z" fill="url(#Безымянный_градиент)"/><path fill="url(#Безымянный_градиент_2)" d="M615.43 1070.07h425.88v14.88H615.43z"/><rect class="cls-4" x="214.09" width="1228.55" height="869.51" rx="16.2" ry="16.2"/><rect class="cls-4" x="214.09" y="5.4" width="1228.55" height="869.51" rx="16.2" ry="16.2"/><rect x="214.09" y="5.4" width="1228.55" height="869.51" rx="16.2" ry="16.2" style="isolation:isolate" fill="url(#Безымянный_градиент_3)" opacity=".9"/><path class="cls-6" d="M230.29 5.4h598.08l614.27 710.11v143.21a16.16 16.16 0 0 1-16.12 16.2H230.29a16.16 16.16 0 0 1-16.2-16.12V21.6a16.16 16.16 0 0 1 16.12-16.2z"/><rect x="242.11" y="38.33" width="1172.29" height="761.53" rx="14.19" ry="14.19"/><path class="cls-7" d="M263.44 59.04h1129.64v720.07H263.44z"/><circle cx="1398.29" cy="837.58" r="16.13" fill="url(#Безымянный_градиент_4)"/><path class="cls-9" d="M1400.64 823.49l-.24 2.12a12.17 12.17 0 0 1-2.11 24.16 12.18 12.18 0 0 1-2.11-24.17l-.24-2.1a14.29 14.29 0 0 0 2.35 28.39 14.3 14.3 0 0 0 14.3-14.3 14.3 14.3 0 0 0-12-14.1z"/><path class="cls-9" d="M1397.23 823.27h2.11v14.32h-2.11z"/><path class="cls-10" d="M263.44 58.27h1129.64v723.81H263.44z"/><g class="cls-11"><text class="cls-12" transform="translate(404 415.15)">One Logic S</text><text transform="translate(1046.3 415.15)" style="isolation:isolate" letter-spacing="-.02em" font-family="SegoeUI-Bold,Segoe UI" font-weight="700" font-size="116.31" fill="#fff">o</text><text transform="translate(1115.64 415.15)" style="isolation:isolate" letter-spacing=".02em" font-family="SegoeUI-Bold,Segoe UI" font-weight="700" font-size="116.31" fill="#fff">f</text><text class="cls-12" transform="translate(1162.44 415.15)">t</text></g><path class="cls-15" d="M617.36 473.69h422v7.86h-422z"/><rect class="cls-4" x=".02" y="596.25" width="515.11" height="678.68" rx="12.64" ry="12.64"/><rect class="cls-4" x=".02" y="600.47" width="515.11" height="678.68" rx="12.64" ry="12.64"/><rect x=".02" y="600.47" width="515.11" height="678.68" rx="12.64" ry="12.64" style="isolation:isolate" fill="url(#Безымянный_градиент_5)" opacity=".9"/><path class="cls-6" d="M12.66 600.47h245.46l252.72 554.26v111.78a12.61 12.61 0 0 1-12.58 12.64H12.64A12.61 12.61 0 0 1 0 1266.57V613.11a12.61 12.61 0 0 1 12.58-12.64h.08z"/><path d="M35.03 639.34h443.74v592.41H35.03z"/><path class="cls-7" d="M48.52 652.83h416.74v565.41H48.52z"/><circle cx="246.57" cy="1251.82" r="15.96" fill="url(#Безымянный_градиент_6)"/><path class="cls-9" d="M248.89 1237.87l-.24 2.1a12 12 0 1 1-2.09 23.91 12 12 0 0 1-2.09-23.92l-.23-2.07a14.14 14.14 0 0 0 2.32 28.09 14.15 14.15 0 0 0 14.15-14.15 14.15 14.15 0 0 0-11.83-14z"/><path class="cls-9" d="M245.52 1237.66h2.09v14.17h-2.09z"/><path class="cls-10" d="M48.51 650.58h418.24v567.66H48.51z"/><g class="cls-11"><text class="cls-18" transform="translate(73.28 924.93)">One Logic S</text><text transform="translate(361.13 924.93)" style="isolation:isolate" letter-spacing="-.02em" font-size="52.12" font-family="SegoeUI-Bold,Segoe UI" font-weight="700" fill="#fff">o</text><text transform="translate(392.21 924.93)" style="isolation:isolate" letter-spacing=".02em" font-size="52.12" font-family="SegoeUI-Bold,Segoe UI" font-weight="700" fill="#fff">f</text><text class="cls-18" transform="translate(413.18 924.93)">t</text></g><path class="cls-15" d="M168.9 951.17h189.12v3.52H168.9z"/><ellipse cx="555.62" cy="1352.03" rx="117.71" ry="9.68"/><rect class="cls-4" x="443.16" y="988.46" width="224.9" height="362.17" rx="6.75" ry="6.75"/><rect class="cls-4" x="443.16" y="990.6" width="224.9" height="360.02" rx="6.71" ry="6.71"/><rect x="443.16" y="990.6" width="224.9" height="360.02" rx="6.71" ry="6.71" style="isolation:isolate" fill="url(#Безымянный_градиент_7)" opacity=".9"/><path class="cls-6" d="M449.59 990.6h98l120.53 282.12v71.47a6.42 6.42 0 0 1-6.41 6.43h-212a6.42 6.42 0 0 1-6.43-6.41V997a6.42 6.42 0 0 1 6.41-6.43z"/><path d="M460 1023.68h191.87v286.79H460z"/><path class="cls-7" d="M466.75 1030.42h178.37v273.29H466.75z"/><circle cx="555.95" cy="1327.9" r="9.24" fill="url(#Безымянный_градиент_8)"/><path class="cls-9" d="M557.29 1319.83l-.14 1.21a7 7 0 0 1-1.21 13.84 7 7 0 0 1-1.21-13.84l-.14-1.2a8.18 8.18 0 0 0 1.34 16.26 8.19 8.19 0 0 0 8.19-8.19 8.19 8.19 0 0 0-6.84-8.08z"/><path class="cls-9" d="M555.34 1319.7h1.21v8.2h-1.21z"/><path class="cls-10" d="M466.16 1028.08H646.5v276.75H466.16z"/><g class="cls-11"><text class="cls-23" transform="translate(489.64 1164.49)">One Logic S</text><text transform="translate(592.12 1164.49)" style="isolation:isolate" letter-spacing="-.02em" font-size="18.56" font-family="SegoeUI-Bold,Segoe UI" font-weight="700" fill="#fff">o</text><text transform="translate(603.18 1164.49)" style="isolation:isolate" letter-spacing=".02em" font-size="18.56" font-family="SegoeUI-Bold,Segoe UI" font-weight="700" fill="#fff">f</text><text class="cls-23" transform="translate(610.64 1164.49)">t</text></g><path class="cls-15" d="M518.67 1179.71H586v1.25h-67.33z"/></svg>