<svg id="Слой_1" data-name="Слой 1" xmlns="http://www.w3.org/2000/svg" viewBox="0 0 210.06 62.28"><defs><style>.cls-2{fill:#fff}</style></defs><path d="M202.58 62.28H7.36A7.38 7.38 0 0 1 0 54.91V7.36A7.37 7.37 0 0 1 7.36 0h195.22a7.47 7.47 0 0 1 7.48 7.36v47.55a7.48 7.48 0 0 1-7.48 7.37z" fill="#a6a6a6"/><path d="M208.55 54.91a6 6 0 0 1-6 6H7.36a6 6 0 0 1-6-6V7.36a6 6 0 0 1 6-6h195.22a6 6 0 0 1 6 6z"/><path class="cls-2" d="M46.88 30.8a9 9 0 0 1 4.29-7.57 9.24 9.24 0 0 0-7.27-3.94c-3.06-.32-6 1.84-7.59 1.84s-4-1.81-6.58-1.75a9.69 9.69 0 0 0-8.15 5c-3.53 6.11-.9 15.09 2.48 20 1.69 2.42 3.66 5.12 6.25 5s3.47-1.62 6.52-1.62 3.91 1.62 6.55 1.56 4.42-2.43 6-4.87a20.06 20.06 0 0 0 2.77-5.64 8.73 8.73 0 0 1-5.27-8.01zM41.9 16.05a8.9 8.9 0 0 0 2-6.37 9 9 0 0 0-5.85 3A8.46 8.46 0 0 0 36 18.84a7.5 7.5 0 0 0 5.9-2.79zM83.47 49.05h-3.53L78 43h-6.73l-1.84 6.09H66l6.66-20.72h4.12zm-6-8.64L75.67 35q-.28-.82-1-3.9h-.06c-.2.88-.53 2.18-1 3.9l-1.72 5.41zM100.61 41.4a8.44 8.44 0 0 1-2.06 6 6 6 0 0 1-4.57 2 4.58 4.58 0 0 1-4.24-2.12h-.07v7.87h-3.31V39c0-1.6 0-3.24-.13-4.92h2.92l.19 2.37h.06a5.89 5.89 0 0 1 9.44-.59 8.25 8.25 0 0 1 1.77 5.54zm-3.38.12a6.12 6.12 0 0 0-1-3.6 3.41 3.41 0 0 0-2.89-1.48 3.47 3.47 0 0 0-2.23.82 3.77 3.77 0 0 0-1.3 2.14 4.39 4.39 0 0 0-.15 1v2.5a4 4 0 0 0 1 2.75 3.33 3.33 0 0 0 2.6 1.13 3.41 3.41 0 0 0 2.92-1.45 6.39 6.39 0 0 0 1.05-3.81zM117.79 41.4a8.45 8.45 0 0 1-2.07 6 6 6 0 0 1-4.57 2 4.58 4.58 0 0 1-4.24-2.12h-.06v7.87h-3.32V39q0-2.4-.12-4.92h2.92l.18 2.37h.06a5.9 5.9 0 0 1 9.45-.59 8.25 8.25 0 0 1 1.77 5.54zm-3.38.12a6.12 6.12 0 0 0-1-3.6 3.5 3.5 0 0 0-5.11-.66 3.79 3.79 0 0 0-1.3 2.14 4.39 4.39 0 0 0-.15 1v2.5a4 4 0 0 0 1 2.75 3.33 3.33 0 0 0 2.6 1.13 3.4 3.4 0 0 0 2.92-1.45 6.32 6.32 0 0 0 1.04-3.81zM137 43.24a5.5 5.5 0 0 1-1.84 4.3 8.16 8.16 0 0 1-5.64 1.82 9.88 9.88 0 0 1-5.37-1.29l.77-2.77a9.07 9.07 0 0 0 4.79 1.32 4.53 4.53 0 0 0 2.92-.84 2.77 2.77 0 0 0 1-2.27 2.89 2.89 0 0 0-.86-2.12 7.89 7.89 0 0 0-2.86-1.6q-5.44-2-5.44-5.95a5.26 5.26 0 0 1 1.91-4.18 7.51 7.51 0 0 1 5.11-1.66 10.13 10.13 0 0 1 4.7 1l-.83 2.71a8.11 8.11 0 0 0-4-1 4.05 4.05 0 0 0-2.74.86 2.49 2.49 0 0 0-.83 1.88 2.52 2.52 0 0 0 1 2 10.83 10.83 0 0 0 3 1.6 10.26 10.26 0 0 1 3.93 2.52 5.26 5.26 0 0 1 1.28 3.67zM148 36.6h-3.7v7.25c0 1.85.64 2.77 1.93 2.77a6.07 6.07 0 0 0 1.48-.15l.09 2.53a7.63 7.63 0 0 1-2.58.37 4 4 0 0 1-3.07-1.2 5.89 5.89 0 0 1-1.11-4V36.6h-2.18v-2.49H141v-2.74l3.26-1v3.72H148zM164.45 41.46a8.23 8.23 0 0 1-2 5.65 7 7 0 0 1-5.45 2.28 6.68 6.68 0 0 1-5.23-2.18 8 8 0 0 1-1.95-5.51 8.12 8.12 0 0 1 2-5.68 7 7 0 0 1 5.42-2.22 6.8 6.8 0 0 1 5.3 2.2 7.81 7.81 0 0 1 1.91 5.46zm-3.44.1a6.67 6.67 0 0 0-.89-3.54 3.29 3.29 0 0 0-3-1.79 3.33 3.33 0 0 0-3 1.79 6.83 6.83 0 0 0-.89 3.61 6.67 6.67 0 0 0 .89 3.54 3.39 3.39 0 0 0 6 0 6.79 6.79 0 0 0 .88-3.61zM175.24 37a5.87 5.87 0 0 0-1.05-.09 3.12 3.12 0 0 0-2.7 1.32 4.92 4.92 0 0 0-.83 3v7.84h-3.32V38.83c0-1.72 0-3.29-.12-4.7h2.89l.12 2.86h.09A5.14 5.14 0 0 1 172 34.6a4 4 0 0 1 2.4-.8 5.31 5.31 0 0 1 .83.06zM190.07 40.87a8 8 0 0 1-.12 1.51H180a4.36 4.36 0 0 0 1.44 3.38 4.93 4.93 0 0 0 3.26 1.05 11 11 0 0 0 4-.71l.52 2.3a12.36 12.36 0 0 1-5 .93 7.22 7.22 0 0 1-5.46-2 7.54 7.54 0 0 1-2-5.48 8.58 8.58 0 0 1 1.85-5.63 6.34 6.34 0 0 1 5.22-2.4 5.57 5.57 0 0 1 4.89 2.4 8.13 8.13 0 0 1 1.35 4.65zm-3.16-.87a4.53 4.53 0 0 0-.65-2.55 2.89 2.89 0 0 0-2.64-1.38 3.15 3.15 0 0 0-2.62 1.36 5 5 0 0 0-1 2.57zM76.32 15.58a5.09 5.09 0 0 1-1.65 4.14A6.5 6.5 0 0 1 70.34 21a20.24 20.24 0 0 1-2.34-.12v-10a17.65 17.65 0 0 1 2.81-.21 6.09 6.09 0 0 1 4 1.16 4.72 4.72 0 0 1 1.51 3.75zm-1.72.05a3.73 3.73 0 0 0-.94-2.74 3.74 3.74 0 0 0-2.76-1 7 7 0 0 0-1.31.11v7.61a8.55 8.55 0 0 0 1.1.05 3.84 3.84 0 0 0 2.89-1.05 4.14 4.14 0 0 0 1.02-2.98zM85.44 17.18a4 4 0 0 1-1 2.78 3.43 3.43 0 0 1-2.69 1.12A3.3 3.3 0 0 1 79.21 20a3.91 3.91 0 0 1-1-2.7 4 4 0 0 1 1-2.8 3.44 3.44 0 0 1 2.66-1.08 3.33 3.33 0 0 1 2.6 1.07 3.87 3.87 0 0 1 .97 2.69zm-1.69.06a3.37 3.37 0 0 0-.44-1.75 1.61 1.61 0 0 0-1.46-.87 1.64 1.64 0 0 0-1.5.87 3.43 3.43 0 0 0-.44 1.78 3.36 3.36 0 0 0 .44 1.73 1.66 1.66 0 0 0 1.48.88 1.62 1.62 0 0 0 1.46-.9 3.31 3.31 0 0 0 .46-1.74zM97.66 13.58l-2.29 7.33h-1.5l-1-3.18a24.11 24.11 0 0 1-.59-2.37 17.84 17.84 0 0 1-.59 2.37l-1 3.18h-1.5L87 13.58h1.68l.83 3.48c.2.83.36 1.62.5 2.36.12-.61.32-1.4.6-2.34l1-3.5H93L94 17c.24.83.44 1.64.59 2.41a23.09 23.09 0 0 1 .5-2.41l.89-3.43zM106.11 20.91h-1.63v-4.2c0-1.29-.49-1.94-1.48-1.94a1.47 1.47 0 0 0-1.17.53 1.92 1.92 0 0 0-.46 1.26v4.35h-1.63v-5.24q0-1-.06-2.1h1.44l.07 1.15a2.38 2.38 0 0 1 .84-.89 2.82 2.82 0 0 1 1.48-.41 2.31 2.31 0 0 1 1.71.67 3.23 3.23 0 0 1 .84 2.43zM110.61 20.91H109v-10.7h1.63zM120.21 17.18a4 4 0 0 1-1 2.78 3.46 3.46 0 0 1-2.69 1.12A3.31 3.31 0 0 1 114 20a4 4 0 0 1-1-2.7 4.05 4.05 0 0 1 1-2.8 3.46 3.46 0 0 1 2.67-1.08 3.36 3.36 0 0 1 2.6 1.07 3.87 3.87 0 0 1 .94 2.69zm-1.69.06a3.37 3.37 0 0 0-.44-1.75 1.61 1.61 0 0 0-1.46-.87 1.64 1.64 0 0 0-1.5.87 3.43 3.43 0 0 0-.43 1.78 3.35 3.35 0 0 0 .43 1.74 1.67 1.67 0 0 0 1.48.88 1.64 1.64 0 0 0 1.47-.9 3.3 3.3 0 0 0 .45-1.75zM128.1 20.91h-1.46l-.12-.84a2.51 2.51 0 0 1-2.14 1 2.24 2.24 0 0 1-1.68-.66 2.13 2.13 0 0 1-.57-1.5 2.26 2.26 0 0 1 1.13-2.05 5.76 5.76 0 0 1 3.16-.7V16c0-1-.51-1.45-1.52-1.45a3.45 3.45 0 0 0-1.92.54l-.33-1.07a4.74 4.74 0 0 1 2.52-.63q2.88 0 2.88 3v2.7a11.51 11.51 0 0 0 .05 1.82zm-1.69-2.52v-1.13c-1.8 0-2.7.46-2.7 1.48a1.1 1.1 0 0 0 .31.86 1.17 1.17 0 0 0 .8.29 1.7 1.7 0 0 0 1-.34 1.43 1.43 0 0 0 .56-.87 1.23 1.23 0 0 0 .03-.29zM137.37 20.91h-1.45l-.07-1.17a2.45 2.45 0 0 1-2.36 1.34 2.77 2.77 0 0 1-2.2-1 4.07 4.07 0 0 1-.87-2.7 4.25 4.25 0 0 1 .95-2.89 2.92 2.92 0 0 1 2.26-1 2.21 2.21 0 0 1 2.07 1v-4.28h1.63v8.73c-.02.71 0 1.37.04 1.97zm-1.69-3.09V16.6a2.34 2.34 0 0 0-.05-.52 1.88 1.88 0 0 0-.59-1 1.61 1.61 0 0 0-1.09-.4 1.67 1.67 0 0 0-1.43.73 3.08 3.08 0 0 0-.52 1.86 2.85 2.85 0 0 0 .5 1.76 1.66 1.66 0 0 0 1.42.73 1.56 1.56 0 0 0 1.29-.61 2 2 0 0 0 .47-1.33zM151.32 17.18a4 4 0 0 1-1 2.78 3.44 3.44 0 0 1-2.69 1.12 3.3 3.3 0 0 1-2.54-1.08 3.91 3.91 0 0 1-1-2.7 4 4 0 0 1 1-2.8 3.44 3.44 0 0 1 2.66-1.08 3.33 3.33 0 0 1 2.6 1.07 3.87 3.87 0 0 1 .97 2.69zm-1.7.06a3.36 3.36 0 0 0-.43-1.75 1.69 1.69 0 0 0-3 0 3.43 3.43 0 0 0-.44 1.78 3.36 3.36 0 0 0 .44 1.74 1.65 1.65 0 0 0 1.48.88 1.62 1.62 0 0 0 1.46-.9 3.3 3.3 0 0 0 .49-1.75zM160.08 20.91h-1.63v-4.2c0-1.29-.49-1.94-1.48-1.94a1.47 1.47 0 0 0-1.17.53 1.86 1.86 0 0 0-.45 1.26v4.35h-1.64v-5.24q0-1-.06-2.1h1.44l.07 1.15h.05a2.38 2.38 0 0 1 .84-.89 2.82 2.82 0 0 1 1.48-.41 2.33 2.33 0 0 1 1.71.67 3.23 3.23 0 0 1 .84 2.43zM171.06 14.8h-1.8v3.56c0 .91.32 1.36 1 1.36a3 3 0 0 0 .73-.07v1.23a3.65 3.65 0 0 1-1.27.19 1.94 1.94 0 0 1-1.5-.59 2.88 2.88 0 0 1-.55-2V14.8h-1.07v-1.23h1.07v-1.34l1.6-.48v1.82h1.79v1.23zM179.69 20.91h-1.63v-4.17c0-1.31-.49-2-1.48-2a1.56 1.56 0 0 0-1.58 1.17 2.45 2.45 0 0 0-.07.59v4.41h-1.63v-10.7h1.7v4.42a2.47 2.47 0 0 1 2.2-1.21 2.28 2.28 0 0 1 1.68.67 3.34 3.34 0 0 1 .83 2.46zM188.59 16.9a3.88 3.88 0 0 1-.06.74h-4.89a2.15 2.15 0 0 0 .71 1.66 2.44 2.44 0 0 0 1.6.51 5.41 5.41 0 0 0 2-.34l.25 1.13a6.14 6.14 0 0 1-2.46.45 3.53 3.53 0 0 1-2.67-1 3.72 3.72 0 0 1-1-2.7 4.17 4.17 0 0 1 .91-2.76 3.09 3.09 0 0 1 2.56-1.18 2.71 2.71 0 0 1 2.4 1.18 3.89 3.89 0 0 1 .65 2.31zm-1.59-.42a2.23 2.23 0 0 0-.32-1.26 1.42 1.42 0 0 0-1.29-.68 1.53 1.53 0 0 0-1.3.67 2.52 2.52 0 0 0-.49 1.27z"/></svg>