<svg version="1.1" id="Слой_1" xmlns="http://www.w3.org/2000/svg" x="0" y="0" viewBox="0 0 188.5 55.5" xml:space="preserve"><style>.st1{fill:#fff}</style><path d="M181.5 55.5H7c-3.8 0-7-3.1-7-6.9V6.9C0 3.1 3.1 0 7 0h174.5c3.8 0 7 3.1 7 6.9v41.6c0 3.8-3.2 7-7 7z"/><path d="M181.5 1.1c3.2 0 5.9 2.6 5.9 5.8v41.6c0 3.2-2.6 5.8-5.9 5.8H7c-3.2 0-5.9-2.6-5.9-5.8V6.9c0-3.2 2.6-5.8 5.9-5.8h174.5zm0-1.1H7C3.1 0 0 3.1 0 6.9v41.6c0 3.8 3.1 6.9 7 6.9h174.5c3.8 0 7-3.1 7-6.9V6.9c0-3.8-3.2-6.9-7-6.9z" fill="#a6a6a6"/><path class="st1" d="M66.2 14.2c0 1.2-.3 2.1-1 2.8-.8.8-1.8 1.2-3.1 1.2-1.2 0-2.2-.4-3.1-1.2-.8-.8-1.3-1.9-1.3-3.1 0-1.2.4-2.3 1.3-3.1.8-.8 1.9-1.3 3.1-1.3.6 0 1.2.1 1.7.4.5.2 1 .5 1.3.9l-.7.7c-.6-.7-1.3-1-2.3-1-.9 0-1.6.3-2.3.9-.6.6-1 1.4-1 2.4s.3 1.8 1 2.4c.6.6 1.4.9 2.3.9.9 0 1.7-.3 2.3-.9.4-.4.6-1 .7-1.7h-3v-1h4.1v.7z"/><path class="st1" d="M62.1 18.3c-1.2 0-2.3-.4-3.1-1.3-.9-.9-1.3-1.9-1.3-3.2 0-1.2.4-2.3 1.3-3.2.9-.8 1.9-1.3 3.1-1.3.6 0 1.2.1 1.8.4.6.2 1 .6 1.3.9v.1l-.8.8-.1-.1c-.5-.6-1.3-1-2.2-1-.9 0-1.6.3-2.2.9-.6.6-.9 1.4-.9 2.3 0 1 .3 1.7.9 2.3.6.6 1.4.9 2.2.9.9 0 1.7-.3 2.3-.9.4-.4.6-.9.7-1.5h-3v-1.2h4.2v.1c0 .2.1.4.1.6 0 1.2-.4 2.1-1.1 2.8-.9 1.2-1.9 1.6-3.2 1.6zm0-8.7c-1.2 0-2.2.4-3 1.2-.8.8-1.2 1.8-1.2 3s.4 2.2 1.2 3c.8.8 1.8 1.2 3 1.2s2.3-.4 3-1.2c.7-.7 1-1.6 1-2.7v-.5h-3.9v.8h3v.1c-.1.7-.3 1.3-.7 1.7-.6.6-1.4 1-2.4 1-.9 0-1.7-.3-2.3-.9-.7-.6-1-1.5-1-2.5s.3-1.8 1-2.5c.7-.6 1.4-.9 2.3-.9 1 0 1.7.3 2.3.9l.6-.6c-.3-.3-.7-.6-1.2-.8-.6-.2-1.2-.3-1.7-.3zM72.6 10.7h-3.8v2.6h3.4v1h-3.4V17h3.8v1h-4.9V9.7h4.9v1z"/><path class="st1" d="M72.7 18.1h-5V9.6h5v1.2h-3.8v2.5h3.4v1.2h-3.4V17h3.8v1.1zm-4.9-.2h4.7V17h-3.8v-2.8h3.4v-.8h-3.4v-2.8h3.8v-.8h-4.7v8.1zM77.2 18h-1.1v-7.3h-2.3v-1h5.8v1h-2.3V18z"/><path class="st1" d="M77.2 18.1H76v-7.3h-2.3V9.6h5.9v1.2h-2.3v7.3zm-1-.2h.9v-7.3h2.3v-.8h-5.6v.9h2.3v7.2zM83.7 18V9.7h1.1V18h-1.1z"/><path class="st1" d="M84.8 18.1h-1.2V9.6h1.2v8.5zm-1.1-.2h.9V9.8h-.9v8.1zM89.5 18h-1.1v-7.3h-2.3v-1h5.8v1h-2.3V18z"/><path class="st1" d="M89.6 18.1h-1.2v-7.3H86V9.6h5.9v1.2h-2.3v7.3zm-1.1-.2h.9v-7.3h2.3v-.8h-5.6v.9h2.3v7.2zM102.8 16.9c-.8.8-1.8 1.3-3.1 1.3-1.2 0-2.2-.4-3.1-1.3-.8-.8-1.2-1.9-1.2-3.1 0-1.2.4-2.2 1.2-3.1.8-.8 1.8-1.3 3.1-1.3 1.2 0 2.2.4 3.1 1.3.8.8 1.2 1.9 1.2 3.1 0 1.3-.4 2.3-1.2 3.1zm-5.4-.6c.6.6 1.4.9 2.3.9.9 0 1.7-.3 2.3-.9.6-.6.9-1.4.9-2.4s-.3-1.8-.9-2.4c-.6-.6-1.4-.9-2.3-.9-.9 0-1.7.3-2.3.9-.6.6-.9 1.4-.9 2.4s.3 1.7.9 2.4z"/><path class="st1" d="M99.7 18.3c-1.2 0-2.3-.4-3.1-1.3-.8-.8-1.3-1.9-1.3-3.1 0-1.2.4-2.3 1.3-3.1.8-.9 1.9-1.3 3.1-1.3 1.2 0 2.3.4 3.1 1.3.8.9 1.3 1.9 1.3 3.1 0 1.2-.4 2.3-1.3 3.1-.8.9-1.9 1.3-3.1 1.3zm0-8.7c-1.2 0-2.2.4-3 1.2-.8.8-1.2 1.8-1.2 3s.4 2.2 1.2 3c.8.8 1.8 1.2 3 1.2s2.2-.4 3-1.2c.8-.8 1.2-1.8 1.2-3s-.4-2.2-1.2-3c-.8-.8-1.8-1.2-3-1.2zm0 7.7c-.9 0-1.7-.3-2.3-1-.6-.6-1-1.5-1-2.4s.3-1.8 1-2.4c.6-.6 1.4-1 2.3-1 .9 0 1.7.3 2.3 1 .6.6 1 1.5 1 2.4 0 1-.3 1.8-1 2.4-.6.6-1.4 1-2.3 1zm-2.2-1.1c.6.6 1.3.9 2.2.9.9 0 1.6-.3 2.2-.9.6-.6.9-1.4.9-2.3 0-.9-.3-1.7-.9-2.3-.6-.6-1.3-.9-2.2-.9-.9 0-1.6.3-2.2.9-.6.6-.9 1.4-.9 2.3s.3 1.7.9 2.3zM105.5 18V9.7h1.3l4.1 6.5V9.7h1.1V18h-1.1l-4.3-6.8V18h-1.1z"/><path class="st1" d="M112 18.1h-1.2l-4.2-6.6V18.2h-1.2V9.6h1.4l4 6.3V9.6h1.2v8.5zm-1.1-.2h1V9.8h-.9v6.5h-.2l-4-6.4h-1.2v8.2h.9v-6.8h.2l4.2 6.6zM95.1 30.2c-3.3 0-6 2.5-6 5.9 0 3.4 2.7 5.9 6 5.9s6-2.5 6-5.9c0-3.5-2.7-5.9-6-5.9zm0 9.4c-1.8 0-3.3-1.5-3.3-3.6s1.5-3.6 3.3-3.6c1.8 0 3.4 1.4 3.4 3.6s-1.6 3.6-3.4 3.6zm-13-9.4c-3.3 0-6 2.5-6 5.9 0 3.4 2.7 5.9 6 5.9s6-2.5 6-5.9c0-3.5-2.7-5.9-6-5.9zm0 9.4c-1.8 0-3.4-1.5-3.4-3.6s1.6-3.6 3.4-3.6c1.8 0 3.3 1.4 3.3 3.6.1 2.2-1.5 3.6-3.3 3.6zM66.6 32v2.5h6c-.2 1.4-.6 2.4-1.4 3.1-.9.9-2.2 1.8-4.7 1.8-3.7 0-6.6-3-6.6-6.7s2.9-6.7 6.6-6.7c2 0 3.5.8 4.5 1.8l1.8-1.8c-1.5-1.4-3.5-2.5-6.3-2.5-5.1 0-9.4 4.1-9.4 9.2s4.3 9.2 9.4 9.2c2.7 0 4.8-.9 6.4-2.6 1.7-1.7 2.2-4 2.2-5.8 0-.6 0-1.1-.1-1.6h-8.4zm63.3 1.9c-.5-1.3-2-3.8-5.1-3.8-3.1 0-5.6 2.4-5.6 5.9 0 3.3 2.5 5.9 5.9 5.9 2.7 0 4.3-1.7 4.9-2.6l-2-1.3c-.7 1-1.6 1.6-2.9 1.6-1.3 0-2.3-.6-2.9-1.8l7.9-3.3-.2-.6zm-8.1 2c-.1-2.3 1.8-3.4 3.1-3.4 1 0 1.9.5 2.2 1.3l-5.3 2.1zm-6.5 5.7h2.6V24.3h-2.6v17.3zm-4.2-10.1c-.7-.7-1.8-1.3-3.2-1.3-3 0-5.7 2.6-5.7 5.9 0 3.3 2.7 5.9 5.7 5.9 1.4 0 2.5-.6 3.1-1.3h.1v.8c0 2.3-1.2 3.5-3.2 3.5-1.6 0-2.6-1.1-3-2.1l-2.3.9c.7 1.6 2.4 3.5 5.3 3.5 3.1 0 5.6-1.8 5.6-6.1V30.5H111v1zm-3 8.1c-1.8 0-3.3-1.5-3.3-3.6s1.5-3.6 3.3-3.6c1.8 0 3.2 1.5 3.2 3.6s-1.4 3.6-3.2 3.6zm34-15.3h-6.2v17.3h2.6V35h3.6c2.9 0 5.7-2.1 5.7-5.4 0-3.3-2.8-5.3-5.7-5.3zm.1 8.3h-3.7v-5.9h3.7c1.9 0 3.1 1.6 3.1 3-.1 1.3-1.2 2.9-3.1 2.9zm16.1-2.5c-1.9 0-3.8.8-4.6 2.7l2.3 1c.5-1 1.4-1.3 2.4-1.3 1.4 0 2.7.8 2.7 2.2v.2c-.5-.3-1.5-.7-2.7-.7-2.5 0-5 1.4-5 3.9 0 2.3 2 3.8 4.3 3.8 1.8 0 2.7-.8 3.3-1.7h.1v1.3h2.5v-6.6c0-3.1-2.3-4.8-5.3-4.8zm-.3 9.5c-.9 0-2-.4-2-1.5 0-1.3 1.5-1.9 2.8-1.9 1.1 0 1.7.3 2.4.6-.3 1.7-1.7 2.8-3.2 2.8zm14.7-9.1l-3 7.5h-.1l-3.1-7.5h-2.8l4.6 10.5-2.7 5.8h2.7l7.2-16.3h-2.8zm-23.4 11.1h2.6V24.3h-2.6v17.3z"/><linearGradient id="SVGID_1_" gradientUnits="userSpaceOnUse" x1="30.381" y1="13.692" x2="7.115" y2="37.119" gradientTransform="matrix(1 0 0 -1 0 57.122)"><stop offset="0" stop-color="#00a0ff"/><stop offset=".007" stop-color="#00a1ff"/><stop offset=".26" stop-color="#00beff"/><stop offset=".512" stop-color="#00d2ff"/><stop offset=".76" stop-color="#00dfff"/><stop offset="1" stop-color="#00e3ff"/></linearGradient><path d="M14.6 10.5c-.4.4-.6 1.1-.6 1.9v30.7c0 .9.2 1.5.6 1.9l.1.1L32 27.9v-.4L14.7 10.4l-.1.1z" fill="url(#SVGID_1_)"/><linearGradient id="SVGID_2_" gradientUnits="userSpaceOnUse" x1="47.23" y1="29.395" x2="13.453" y2="29.395" gradientTransform="matrix(1 0 0 -1 0 57.122)"><stop offset="0" stop-color="#ffe000"/><stop offset=".409" stop-color="#ffbd00"/><stop offset=".775" stop-color="orange"/><stop offset="1" stop-color="#ff9c00"/></linearGradient><path d="M37.7 33.7L32 27.9v-.4l5.8-5.7.1.1 6.8 3.9c1.9 1.1 1.9 2.9 0 4l-6.8 3.9h-.2z" fill="url(#SVGID_2_)"/><linearGradient id="SVGID_3_" gradientUnits="userSpaceOnUse" x1="23.031" y1="21.032" x2="-8.52" y2="52.8" gradientTransform="matrix(1 0 0 -1 0 57.122)"><stop offset="0" stop-color="#ff3a44"/><stop offset="1" stop-color="#c31162"/></linearGradient><path d="M37.9 33.6L32 27.7 14.6 45c.6.7 1.7.8 2.9.1l20.4-11.5z" fill="url(#SVGID_3_)"/><linearGradient id="SVGID_4_" gradientUnits="userSpaceOnUse" x1="-1.268" y1="13.288" x2="12.82" y2="27.474" gradientTransform="matrix(1 0 0 -1 0 57.122)"><stop offset="0" stop-color="#32a071"/><stop offset=".069" stop-color="#2da771"/><stop offset=".476" stop-color="#15cf74"/><stop offset=".801" stop-color="#06e775"/><stop offset="1" stop-color="#00f076"/></linearGradient><path d="M37.9 21.9L17.5 10.4c-1.2-.7-2.3-.6-2.9.1L32 27.7l5.9-5.8z" fill="url(#SVGID_4_)"/></svg>