<svg width="197" height="60" fill="none" xmlns="http://www.w3.org/2000/svg"><path d="M103.673 0h-.22c-2.642 0-4.403.55-5.503 1.541-1.1.991-1.651 2.753-1.651 5.175l.22 46.128c0 2.422.55 4.073 1.54 5.064 1.101.991 2.972 1.541 5.504 1.541h.33c2.421 0 4.182-.55 5.282-1.54 1.101-.992 1.541-2.643 1.541-4.955V6.605c0-2.422-.55-4.073-1.651-5.064-.99-.99-2.751-1.541-5.392-1.541zM195.129 47.67c-1.211-.881-3.192-1.321-5.723-1.321H176.86v-.22l15.628-14.312c2.421-2.312 3.632-4.734 3.632-7.487 0-2.752-.771-4.734-2.202-6.055-1.43-1.32-3.852-1.871-7.263-1.871h-21.351c-1.761 0-3.192.55-4.182 1.761-.991 1.211-1.541 2.642-1.541 4.294 0 2.752.44 4.624 1.321 5.614.99 1.101 2.311 1.652 4.292 1.652h12.436v.55c-1.1 1.211-3.522 3.633-7.484 7.266-4.072 3.743-6.933 6.716-8.804 8.808-1.651 1.981-2.531 3.963-2.531 5.945l.22-.33c0 2.531.66 4.403 1.871 5.614 1.32 1.211 3.301 1.761 6.053 1.761h23.222c2.421 0 4.182-.44 5.282-1.32 1.101-.881 1.541-2.643 1.541-5.285 0-2.422-.66-4.073-1.871-5.064zM36.208 29.505c2.091-.991 3.852-2.422 5.283-4.624 1.43-2.202 2.201-4.624 2.201-7.046 0-4.514-1.76-8.147-5.393-10.79-3.631-2.531-8.694-3.742-15.517-3.742H7.044c-2.532 0-4.403.55-5.393 1.541C.55 5.945 0 7.706 0 10.128l.22 42.716c0 2.422.55 4.073 1.54 5.064 1.101.991 2.972 1.541 5.504 1.541h16.728c6.493 0 11.886-1.43 16.068-4.403 4.182-2.973 6.273-7.046 6.273-12.44 0-3.854-.99-6.826-3.081-8.918-2.091-2.202-4.402-3.523-7.044-4.183zm-20.8-13.872H21.9c4.622 0 7.044 1.762 7.044 5.284 0 3.633-2.201 5.395-6.714 5.395h-6.823V15.633zm7.374 31.486h-7.374V35.78h7.594c4.952 0 7.373 1.872 7.373 5.505 0 3.854-2.53 5.835-7.593 5.835zM85.624 39.523c2.86-2.202 4.292-5.285 4.292-9.468s-1.541-7.706-4.623-10.459c-3.081-2.862-7.263-4.293-12.766-4.293-6.493 0-11.666 1.981-15.738 6.055-4.182 3.853-6.163 9.468-6.163 16.734l.44.11c0 7.156 2.091 12.55 6.163 16.293C61.301 58.128 66.804 60 73.627 60c2.532 0 4.953-.33 7.264-.99 2.421-.661 4.402-1.652 6.053-3.083 1.651-1.432 2.531-3.083 2.531-4.955 0-1.21-.44-2.422-1.21-3.633-.77-1.1-1.651-1.871-2.752-2.311-2.42 2.312-5.833 3.412-10.015 3.412-3.301 0-6.053-.66-8.254-1.981-2.201-1.321-3.301-3.193-3.301-5.395 2.86 1.321 6.383 1.872 10.785 1.872 4.292-.22 7.924-1.211 10.896-3.413zm-20.911-6.275c.22-2.092.99-3.743 2.311-4.954 1.43-1.211 2.972-1.872 4.732-1.872 1.871 0 3.302.44 4.513 1.211 1.21.88 1.76 1.872 1.76 3.083 0 2.752-1.76 4.073-5.172 4.073-3.852.11-6.603-.44-8.144-1.541zM153.198 47.67c-1.211-.881-3.192-1.321-5.723-1.321h-12.547v-.22l15.628-14.312c2.422-2.312 3.632-4.734 3.632-7.487 0-2.752-.77-4.734-2.201-6.055-1.431-1.32-3.852-1.871-7.264-1.871h-21.35c-1.761 0-3.192.55-4.183 1.761-.99 1.211-1.54 2.642-1.54 4.294 0 2.752.44 4.624 1.32 5.614.991 1.101 2.312 1.652 4.293 1.652h12.436v.55c-1.101 1.211-3.522 3.633-7.484 7.266-4.072 3.743-6.933 6.716-8.804 8.808-1.651 1.981-2.532 3.963-2.532 5.945l.22-.33c0 2.531.661 4.403 1.871 5.614 1.321 1.211 3.302 1.761 6.053 1.761h23.222c2.421 0 4.182-.44 5.283-1.32 1.1-.881 1.541-2.643 1.541-5.285 0-2.422-.661-4.073-1.871-5.064z" fill="#37DDD0"/></svg>