<svg version="1.1" id="Слой_1" xmlns="http://www.w3.org/2000/svg" x="0" y="0" viewBox="0 0 1026 309" xml:space="preserve"><style>.st0{fill:#fff}</style><path class="st0" d="M539.9 0h-1.1c-13.8 0-22.9 2.8-28.7 7.9-5.7 5.1-8.6 14.2-8.6 26.6l1.1 237.2c0 12.5 2.9 20.9 8 26 5.7 5.1 15.5 7.9 28.7 7.9h1.7c12.6 0 21.8-2.8 27.5-7.9s8-13.6 8-25.5V34c0-12.5-2.9-20.9-8.6-26-5-5.2-14.2-8-28-8zM1016.3 245.2c-6.3-4.5-16.6-6.8-29.8-6.8h-65.3v-1.1l81.4-73.6c12.6-11.9 18.9-24.3 18.9-38.5s-4-24.3-11.5-31.1c-7.5-6.8-20.1-9.6-37.8-9.6H860.9c-9.2 0-16.6 2.8-21.8 9.1-5.2 6.2-8 13.6-8 22.1 0 14.2 2.3 23.8 6.9 28.9 5.2 5.7 12 8.5 22.4 8.5h64.8v2.8c-5.7 6.2-18.3 18.7-39 37.4-21.2 19.2-36.1 34.5-45.9 45.3-8.6 10.2-13.2 20.4-13.2 30.6l1.1-1.7c0 13 3.4 22.6 9.7 28.9 6.9 6.2 17.2 9.1 31.5 9.1h120.9c12.6 0 21.8-2.3 27.5-6.8s8-13.6 8-27.2c.2-12.8-3.2-21.3-9.5-26.3zM188.6 151.7c10.9-5.1 20.1-12.5 27.5-23.8 7.5-11.3 11.5-23.8 11.5-36.2 0-23.2-9.2-41.9-28.1-55.5-18.9-13-45.3-19.2-80.8-19.2h-82c-13.2 0-22.9 2.8-28.1 7.9C2.9 30.6 0 39.6 0 52.1l1.1 219.7c0 12.5 2.9 20.9 8 26 5.7 5.1 15.5 7.9 28.7 7.9H125c33.8 0 61.9-7.4 83.7-22.6 21.8-15.3 32.7-36.2 32.7-64 0-19.8-5.2-35.1-16.1-45.9-10.9-11.3-23-18.1-36.7-21.5zM80.2 80.4H114c24.1 0 36.7 9.1 36.7 27.2 0 18.7-11.5 27.7-35 27.7H80.2V80.4zm38.4 161.9H80.2V184h39.6c25.8 0 38.4 9.6 38.4 28.3 0 19.8-13.2 30-39.6 30zM445.9 203.3c14.9-11.3 22.4-27.2 22.4-48.7s-8-39.6-24.1-53.8c-16-14.7-37.8-22.1-66.5-22.1-33.8 0-60.8 10.2-82 31.1-21.8 19.8-32.1 48.7-32.1 86.1l2.3.6c0 36.8 10.9 64.5 32.1 83.8 21.2 18.7 49.9 28.3 85.4 28.3 13.2 0 25.8-1.7 37.8-5.1 12.6-3.4 22.9-8.5 31.5-15.9s13.2-15.9 13.2-25.5c0-6.2-2.3-12.5-6.3-18.7-4-5.7-8.6-9.6-14.3-11.9-12.6 11.9-30.4 17.6-52.2 17.6-17.2 0-31.5-3.4-43-10.2s-17.2-16.4-17.2-27.7c14.9 6.8 33.2 9.6 56.2 9.6 22.4-1.1 41.4-6.2 56.8-17.5zM337 171c1.1-10.8 5.2-19.2 12-25.5 7.5-6.2 15.5-9.6 24.6-9.6 9.7 0 17.2 2.3 23.5 6.2 6.3 4.5 9.2 9.6 9.2 15.9 0 14.2-9.2 20.9-26.9 20.9-20 .6-34.3-2.3-42.4-7.9zM797.9 245.2c-6.3-4.5-16.6-6.8-29.8-6.8h-65.3v-1.1l81.4-73.6c12.6-11.9 18.9-24.3 18.9-38.5s-4-24.3-11.5-31.1c-7.5-6.8-20.1-9.6-37.8-9.6H642.5c-9.2 0-16.6 2.8-21.8 9.1-5.2 6.2-8 13.6-8 22.1 0 14.2 2.3 23.8 6.9 28.9 5.2 5.7 12 8.5 22.4 8.5h64.8v2.8c-5.7 6.2-18.3 18.7-39 37.4-21.2 19.2-36.1 34.5-45.9 45.3-8.6 10.2-13.2 20.4-13.2 30.6l1.1-1.7c0 13 3.4 22.6 9.7 28.9 6.9 6.2 17.2 9.1 31.5 9.1h120.9c12.6 0 21.8-2.3 27.5-6.8s8-13.6 8-27.2c.2-12.8-3.2-21.3-9.5-26.3z"/><path d="M443.3 256c76.4-6.8 192.4 19.9 286.4 19.9 96.2 0 302.4 32.4 341.4-39.8 26.7-49.3 38.2 242.5 33.4 271.4-209 10.3-642 2.8-670.8 0s-351-3.1-510.4-17.1l-3.5-228.5c118 15.8 142.2 13.6 288.8 21.2 142.6 7.5 141.1-18.8 234.7-27.1z" fill="#0073ba"/><path d="M452.3 259.9c92.3-18.4 164.2-23.5 271.1 7.3 112 32.2 306.9 61.9 345.9-10.3 26.7-49.3 39.9 221.6 35.1 250.5-209 10.3-642 2.8-670.8 0s-351-3.1-510.4-17.1l-3.5-228.5C37.7 277.6 65.3 232 208.5 283c134.6 48 151.7-4.7 243.8-23.1z" fill="#0086e4"/></svg>