<svg width="1026" height="309" fill="none" xmlns="http://www.w3.org/2000/svg"><path d="M539.94 0h-1.147c-13.756 0-22.927 2.83-28.659 7.926-5.732 5.096-8.598 14.155-8.598 26.61l1.147 237.229c0 12.456 2.866 20.948 8.024 26.044 5.732 5.095 15.476 7.926 28.659 7.926h1.72c12.61 0 21.781-2.831 27.513-7.926 5.732-5.096 8.024-13.588 8.024-25.478V33.971c0-12.456-2.865-20.949-8.597-26.045C562.867 2.831 553.696 0 539.94 0zM1016.26 245.154c-6.31-4.529-16.626-6.794-29.81-6.794h-65.343v-1.132l81.393-73.603c12.61-11.89 18.91-24.346 18.91-38.5s-4.01-24.346-11.46-31.14c-7.45-6.794-20.061-9.625-37.829-9.625H860.923c-9.171 0-16.622 2.831-21.781 9.06-5.159 6.227-8.025 13.587-8.025 22.08 0 14.154 2.293 23.779 6.879 28.875 5.158 5.662 12.036 8.493 22.354 8.493h64.77v2.831c-5.732 6.227-18.342 18.683-38.977 37.367-21.208 19.25-36.111 34.537-45.855 45.294-8.597 10.191-13.183 20.383-13.183 30.574l1.146-1.699c0 13.022 3.439 22.647 9.745 28.875 6.878 6.228 17.195 9.059 31.525 9.059h120.942c12.607 0 21.777-2.265 27.517-6.794 5.73-4.529 8.02-13.588 8.02-27.176 0-12.456-3.44-20.949-9.74-26.045zM188.578 151.735c10.89-5.095 20.061-12.456 27.513-23.779 7.451-11.324 11.463-23.78 11.463-36.235 0-23.214-9.171-41.898-28.086-55.486-18.915-13.022-45.281-19.25-80.819-19.25H36.684c-13.183 0-22.928 2.831-28.086 7.927C2.866 30.574 0 39.632 0 52.088l1.146 219.677c0 12.456 2.866 20.948 8.025 26.044 5.732 5.095 15.476 7.926 28.66 7.926h87.123c33.818 0 61.904-7.36 83.685-22.647 21.781-15.287 32.672-36.235 32.672-63.978 0-19.816-5.159-35.103-16.05-45.86-10.89-11.324-22.927-18.118-36.683-21.515zM80.246 80.397h33.818c24.073 0 36.683 9.059 36.683 27.177 0 18.683-11.463 27.742-34.964 27.742H80.246V80.397zm38.403 161.926H80.246v-58.316h39.55c25.793 0 38.403 9.625 38.403 28.309 0 19.816-13.183 30.007-39.55 30.007zM445.937 203.257c14.903-11.323 22.355-27.176 22.355-48.691 0-21.515-8.025-39.632-24.074-53.787-16.049-14.72-37.83-22.08-66.489-22.08-33.818 0-60.758 10.19-81.966 31.139-21.781 19.816-32.098 48.691-32.098 86.059l2.293.566c0 36.802 10.89 64.544 32.098 83.794 21.208 18.684 49.867 28.309 85.404 28.309 13.184 0 25.794-1.698 37.83-5.095 12.611-3.397 22.928-8.493 31.526-15.853 8.597-7.361 13.183-15.853 13.183-25.478 0-6.228-2.293-12.456-6.305-18.684-4.012-5.662-8.598-9.625-14.33-11.89-12.61 11.89-30.379 17.552-52.16 17.552-17.195 0-31.525-3.397-42.988-10.192-11.464-6.794-17.196-16.419-17.196-27.742 14.903 6.794 33.245 9.625 56.172 9.625 22.354-1.133 41.269-6.228 56.745-17.552zm-108.905-32.272c1.147-10.757 5.159-19.25 12.037-25.478 7.452-6.228 15.476-9.625 24.647-9.625 9.744 0 17.196 2.265 23.501 6.228 6.305 4.53 9.171 9.625 9.171 15.853 0 14.155-9.171 20.949-26.94 20.949-20.061.566-34.391-2.265-42.416-7.927zM797.873 245.154c-6.305-4.529-16.623-6.794-29.806-6.794h-65.343v-1.132l81.392-73.603c12.61-11.89 18.915-24.346 18.915-38.5s-4.012-24.346-11.463-31.14c-7.452-6.794-20.062-9.625-37.831-9.625H642.54c-9.171 0-16.623 2.831-21.781 9.06-5.159 6.227-8.025 13.587-8.025 22.08 0 14.154 2.293 23.779 6.878 28.875 5.159 5.662 12.037 8.493 22.354 8.493h64.77v2.831c-5.732 6.227-18.342 18.683-38.976 37.367-21.208 19.25-36.111 34.537-45.855 45.294-8.598 10.191-13.183 20.383-13.183 30.574l1.146-1.699c0 13.022 3.439 22.647 9.744 28.875 6.878 6.228 17.196 9.059 31.525 9.059h120.942c12.61 0 21.781-2.265 27.513-6.794 5.732-4.529 8.025-13.588 8.025-27.176 0-12.456-3.439-20.949-9.744-26.045z" fill="#fff"/><mask id="a" maskUnits="userSpaceOnUse" x="0" y="0" width="1026" height="309"><path d="M539.94 0h-1.147c-13.756 0-22.927 2.83-28.659 7.926-5.732 5.096-8.598 14.155-8.598 26.61l1.147 237.229c0 12.456 2.866 20.948 8.024 26.044 5.732 5.095 15.476 7.926 28.659 7.926h1.72c12.61 0 21.781-2.831 27.513-7.926 5.732-5.096 8.024-13.588 8.024-25.478V33.971c0-12.456-2.865-20.949-8.597-26.045C562.867 2.831 553.696 0 539.94 0zM1016.26 245.154c-6.31-4.529-16.626-6.794-29.81-6.794h-65.343v-1.132l81.393-73.603c12.61-11.89 18.91-24.346 18.91-38.5s-4.01-24.346-11.46-31.14c-7.45-6.794-20.061-9.625-37.829-9.625H860.923c-9.171 0-16.622 2.831-21.781 9.06-5.159 6.227-8.025 13.587-8.025 22.08 0 14.154 2.293 23.779 6.879 28.875 5.158 5.662 12.036 8.493 22.354 8.493h64.77v2.831c-5.732 6.227-18.342 18.683-38.977 37.367-21.208 19.25-36.111 34.537-45.855 45.294-8.597 10.191-13.183 20.383-13.183 30.574l1.146-1.699c0 13.022 3.439 22.647 9.745 28.875 6.878 6.228 17.195 9.059 31.525 9.059h120.942c12.607 0 21.777-2.265 27.517-6.794 5.73-4.529 8.02-13.588 8.02-27.176 0-12.456-3.44-20.949-9.74-26.045zM188.578 151.735c10.89-5.095 20.061-12.456 27.513-23.779 7.451-11.324 11.463-23.78 11.463-36.235 0-23.214-9.171-41.898-28.086-55.486-18.915-13.022-45.281-19.25-80.819-19.25H36.684c-13.183 0-22.928 2.831-28.086 7.927C2.866 30.574 0 39.632 0 52.088l1.146 219.677c0 12.456 2.866 20.948 8.025 26.044 5.732 5.095 15.476 7.926 28.66 7.926h87.123c33.818 0 61.904-7.36 83.685-22.647 21.781-15.287 32.672-36.235 32.672-63.978 0-19.816-5.159-35.103-16.05-45.86-10.89-11.324-22.927-18.118-36.683-21.515zM80.246 80.397h33.818c24.073 0 36.683 9.059 36.683 27.177 0 18.683-11.463 27.742-34.964 27.742H80.246V80.397zm38.403 161.926H80.246v-58.316h39.55c25.793 0 38.403 9.625 38.403 28.309 0 19.816-13.183 30.007-39.55 30.007zM445.937 203.257c14.903-11.323 22.355-27.176 22.355-48.691 0-21.515-8.025-39.632-24.074-53.787-16.049-14.72-37.83-22.08-66.489-22.08-33.818 0-60.758 10.19-81.966 31.139-21.781 19.816-32.098 48.691-32.098 86.059l2.293.566c0 36.802 10.89 64.544 32.098 83.794 21.208 18.684 49.867 28.309 85.404 28.309 13.184 0 25.794-1.698 37.83-5.095 12.611-3.397 22.928-8.493 31.526-15.853 8.597-7.361 13.183-15.853 13.183-25.478 0-6.228-2.293-12.456-6.305-18.684-4.012-5.662-8.598-9.625-14.33-11.89-12.61 11.89-30.379 17.552-52.16 17.552-17.195 0-31.525-3.397-42.988-10.192-11.464-6.794-17.196-16.419-17.196-27.742 14.903 6.794 33.245 9.625 56.172 9.625 22.354-1.133 41.269-6.228 56.745-17.552zm-108.905-32.272c1.147-10.757 5.159-19.25 12.037-25.478 7.452-6.228 15.476-9.625 24.647-9.625 9.744 0 17.196 2.265 23.501 6.228 6.305 4.53 9.171 9.625 9.171 15.853 0 14.155-9.171 20.949-26.94 20.949-20.061.566-34.391-2.265-42.416-7.927zM797.873 245.154c-6.305-4.529-16.623-6.794-29.806-6.794h-65.343v-1.132l81.392-73.603c12.61-11.89 18.915-24.346 18.915-38.5s-4.012-24.346-11.463-31.14c-7.452-6.794-20.062-9.625-37.831-9.625H642.54c-9.171 0-16.623 2.831-21.781 9.06-5.159 6.227-8.025 13.587-8.025 22.08 0 14.154 2.293 23.779 6.878 28.875 5.159 5.662 12.037 8.493 22.354 8.493h64.77v2.831c-5.732 6.227-18.342 18.683-38.976 37.367-21.208 19.25-36.111 34.537-45.855 45.294-8.598 10.191-13.183 20.383-13.183 30.574l1.146-1.699c0 13.022 3.439 22.647 9.744 28.875 6.878 6.228 17.196 9.059 31.525 9.059h120.942c12.61 0 21.781-2.265 27.513-6.794 5.732-4.529 8.025-13.588 8.025-27.176 0-12.456-3.439-20.949-9.744-26.045z" fill="#fff"/></mask><g mask="url(#a)"><path class="dark-wave" d="M392.1 275.1c79.4 36.5 189-99.1 298.7-30.3 118.5 74.3 291.8-36.1 346.1-107.1 23-30 59.1 330.2 54.3 359.1-209 10.3-678.4-2.5-707.2-5.3s-414.4 7.9-573.8-6.1c0 0-25.6-307.4 28.8-289.3 114.3 37.9 172.8 143.5 251.5 70 66.1-61.6 174.7-49.4 301.6 9z" fill="#2c7fbe"/><path class="hidden" d="M421.4 220.6c76.2 43.2 183 67.8 281.3 16.6 145.7-75.9 335.6 161.5 354.6-109.3 2.6-37.7 59.1 330.2 54.3 359.1-209 10.3-678.4-2.5-707.2-5.3s-414.4 7.9-573.8-6.1c0 0-21.1-261.1 28.8-289.3 106.6-60.2 159.1 14.8 251.5 70 130.4 77.9 187.4-105.5 310.5-35.7z" fill="#2c7fbe"/><path class="hidden" d="M412.5 265.3c69.2 53.3 185.2-94.6 295.7-49.3 152 62.2 309.8 82.4 349.1-88.1 8.5-36.9 59.1 330.2 54.3 359.1-209 10.3-678.4-2.5-707.2-5.3s-414.4 7.9-573.8-6.1c0 0-21.1-261.1 28.8-289.3 106.6-60.2 156.1 119.8 251.5 70 118.1-61.5 189.4-77.3 301.6 9z" fill="#2c7fbe"/><path d="M392.1 275.1c79.4 36.5 189-99.1 298.7-30.3 118.5 74.3 291.8-36.1 346.1-107.1 23-30 59.1 330.2 54.3 359.1-209 10.3-678.4-2.5-707.2-5.3s-414.4 7.9-573.8-6.1c0 0-25.6-307.4 28.8-289.3 114.3 37.9 172.8 143.5 251.5 70 66.1-61.6 174.7-49.4 301.6 9z" fill="#32bafa"/><path class="hidden" d="M421.4 220.6c76.2 43.2 183 67.8 281.3 16.6 145.7-75.9 335.6 161.5 354.6-109.3 2.6-37.7 59.1 330.2 54.3 359.1-209 10.3-678.4-2.5-707.2-5.3s-414.4 7.9-573.8-6.1c0 0-21.1-261.1 28.8-289.3 106.6-60.2 159.1 14.8 251.5 70 130.4 77.9 187.4-105.5 310.5-35.7z" fill="#32bafa"/><path class="hidden" d="M412.5 265.3c69.2 53.3 185.2-94.6 295.7-49.3 152 62.2 309.8 82.4 349.1-88.1 8.5-36.9 59.1 330.2 54.3 359.1-209 10.3-678.4-2.5-707.2-5.3s-414.4 7.9-573.8-6.1c0 0-21.1-261.1 28.8-289.3 106.6-60.2 156.1 119.8 251.5 70 118.1-61.5 189.4-77.3 301.6 9z" fill="#32bafa"/></g></svg>