<?xml version="1.0" encoding="utf-8"?>
<!-- Generator: Adobe Illustrator 21.0.2, SVG Export Plug-In . SVG Version: 6.00 Build 0)  -->
<svg version="1.1" id="Слой_1" xmlns="http://www.w3.org/2000/svg" xmlns:xlink="http://www.w3.org/1999/xlink" x="0px" y="0px"
	 viewBox="0 0 24 22" style="enable-background:new 0 0 24 22;" xml:space="preserve">
<style type="text/css">
	.st0{fill:#FFFFFF;}
	.st1{fill:#33A768;}
</style>
<g id="XMLID_3_">
	<g>
		<path class="st0" d="M16.9,9.4c-0.1,0.5-0.3,0.9-0.7,1.2c-0.3,0.3-0.8,0.4-1.5,0.4c-0.5,0-1-0.1-1.4-0.3l0.2-1
			c0.4,0.2,0.8,0.3,1.3,0.3c0.2,0,0.4,0,0.6-0.1c0.3-0.2,0.3-0.5,0-0.7c-0.1-0.1-0.3-0.2-0.6-0.3c-0.9-0.3-1.4-0.8-1.4-1.5
			c0-0.4,0.2-0.8,0.5-1.1C14.3,6.1,14.7,6,15.3,6c0.5,0,0.9,0.1,1.3,0.3l-0.3,0.9c-0.3-0.2-0.6-0.3-1-0.3c-0.2,0-0.4,0-0.5,0.1
			c-0.2,0.2-0.2,0.4,0,0.6c0.1,0.1,0.4,0.2,0.8,0.3c0.4,0.2,0.8,0.4,1,0.6C16.8,8.7,16.9,9,16.9,9.4z"/>
		<path class="st1" d="M19.8,19c0.7,0.4,0.8,0.5,1.7,0.8c-0.2-0.8-0.2-1.1-0.1-1.9c1.8-2.1,1.2-4.1-0.5-5.4c0.2-0.5,0.4-0.9,0.6-1.4
			c2.9,2,3.1,5.3,1.4,7.4c0,1,0.6,2.4,1.1,3.5c-1.4-0.3-3.4-0.8-4.4-1.4c-3.3,0.8-6.1-0.2-7.6-2.1c0.6-0.1,1.2-0.2,1.7-0.4
			C15.5,19.7,17.7,19.5,19.8,19z"/>
		<path class="st1" d="M16.2,10.6c0.4-0.3,0.6-0.7,0.7-1.2c0-0.4-0.1-0.7-0.3-0.9c-0.2-0.2-0.6-0.4-1-0.6c-0.4-0.1-0.7-0.2-0.8-0.3
			c-0.2-0.2-0.2-0.4,0-0.6c0.1-0.1,0.3-0.1,0.5-0.1c0.4,0,0.7,0.1,1,0.3l0.3-0.9C16.2,6.1,15.8,6,15.3,6c-0.6,0-1,0.1-1.4,0.3
			c-0.3,0.3-0.5,0.7-0.5,1.1c0,0.7,0.5,1.2,1.4,1.5c0.3,0.1,0.5,0.2,0.6,0.3c0.3,0.2,0.3,0.5,0,0.7C15.2,10,15,10,14.8,10
			c-0.5,0-0.9-0.1-1.3-0.3l-0.2,1c0.4,0.2,0.9,0.3,1.4,0.3C15.4,11,15.9,10.9,16.2,10.6z M20,8.4c0,5-5.6,9.7-13.4,7.9
			C5.3,17.1,2.2,18,0,18.4c0.8-1.6,1.7-3.8,1.7-5.3C0.6,11.8,0,10.1,0,8.4C0,3.5,4.7,0,10,0S20,3.5,20,8.4z"/>
	</g>
	<g>
	</g>
</g>
<g id="XMLID_2_">
	<g>
		<path class="st0" d="M8.5,7l-0.2,3.9h-1l0.3-4.8h1.5l0.8,3.3l1-3.3h1.5l0.3,4.8h-1.1C11.5,9,11.5,7.7,11.5,7
			c-0.1,0.5-0.5,1.8-1.2,3.8H9.5C9.1,9.4,8.5,7,8.5,7z"/>
	</g>
	<g>
	</g>
</g>
<g id="XMLID_1_">
	<g>
		<path class="st0" d="M6.3,8.6c0.2,0.2,0.3,0.5,0.3,0.9s-0.2,0.8-0.5,1.1C5.7,10.8,5.3,11,4.6,11c-0.5,0-1-0.1-1.4-0.3l0.2-0.9
			c0.4,0.2,0.8,0.3,1.3,0.3c0.2,0,0.4,0,0.6-0.1c0.3-0.2,0.3-0.5,0-0.7C5.2,9.1,5,9,4.7,8.9c-1-0.3-1.4-0.8-1.4-1.4
			c0-0.4,0.2-0.8,0.5-1C4.1,6.2,4.6,6,5.1,6S6,6.1,6.4,6.3L6.2,7.1C5.8,7,5.5,6.9,5.1,6.9C4.9,6.9,4.7,7,4.6,7
			c-0.3,0.2-0.2,0.5,0,0.7C4.7,7.8,4.9,7.9,5.3,8C5.7,8.2,6.1,8.4,6.3,8.6z"/>
	</g>
	<g>
	</g>
</g>
</svg>
