<?xml version="1.0" encoding="utf-8"?>
<!-- Generator: Adobe Illustrator 21.0.2, SVG Export Plug-In . SVG Version: 6.00 Build 0)  -->
<svg version="1.1"
	 id="svg136830" xmlns:cc="http://creativecommons.org/ns#" xmlns:dc="http://purl.org/dc/elements/1.1/" xmlns:rdf="http://www.w3.org/1999/02/22-rdf-syntax-ns#" xmlns:svg="http://www.w3.org/2000/svg"
	 xmlns="http://www.w3.org/2000/svg" xmlns:xlink="http://www.w3.org/1999/xlink" x="0px" y="0px" viewBox="0 0 300 150.8"
	 style="enable-background:new 0 0 300 150.8;" xml:space="preserve">
<style type="text/css">
	.st0{fill:#665CAC;}
	.st1{fill:#FFFFFF;}
	.st2{clip-path:url(#SVGID_2_);}
	.st3{clip-path:url(#SVGID_4_);}
</style>
<g id="layer1" transform="translate(-591.85218,18.997123)">
	<g id="g134900" transform="matrix(3.8492895,0,0,-3.8492895,884.40846,102.38874)">
		<path id="path134902" class="st0" d="M0,0C0,0,0,0,0,0C0-0.1,0-0.1,0,0c0-0.1,0-0.1,0-0.1s0,0,0,0h-0.3v-1.1c0,0,0,0,0,0
			c0,0,0,0,0,0c0,0,0,0,0,0c0,0,0,0-0.1,0c0,0,0,0-0.1,0s0,0,0,0c0,0,0,0,0,0c0,0,0,0,0,0v1.1H-1c0,0,0,0,0,0c0,0,0,0,0,0
			c0,0,0,0,0,0C-1,0-1,0-1,0s0,0,0,0.1c0,0,0,0,0,0c0,0,0,0,0,0c0,0,0,0,0,0H0c0,0,0,0,0,0C0,0.1,0,0.1,0,0C0,0.1,0,0.1,0,0
			C0,0,0,0,0,0"/>
	</g>
	<g id="g134904" transform="matrix(3.8492895,0,0,-3.8492895,890.85218,106.85083)">
		<path id="path134906" class="st0" d="M0,0C0,0,0,0,0,0C0,0,0,0,0,0C0,0,0,0,0,0c-0.1,0-0.1,0-0.1,0c0,0,0,0-0.1,0c0,0,0,0,0,0
			c0,0,0,0,0,0c0,0,0,0,0,0v1.1h0L-0.6,0c0,0,0,0,0,0c0,0,0,0,0,0c0,0,0,0,0,0c0,0,0,0-0.1,0s0,0-0.1,0c0,0,0,0,0,0c0,0,0,0,0,0
			c0,0,0,0,0,0l-0.4,1.1h0V0c0,0,0,0,0,0c0,0,0,0,0,0c0,0,0,0,0,0s0,0-0.1,0c0,0,0,0-0.1,0c0,0,0,0,0,0c0,0,0,0,0,0c0,0,0,0,0,0v1.2
			c0,0,0,0.1,0,0.1c0,0,0,0,0.1,0h0.2c0,0,0.1,0,0.1,0c0,0,0,0,0.1,0c0,0,0,0,0,0c0,0,0,0,0-0.1l0.3-0.8h0l0.3,0.8c0,0,0,0.1,0,0.1
			c0,0,0,0,0,0c0,0,0,0,0,0c0,0,0,0,0.1,0h0.2c0,0,0,0,0,0c0,0,0,0,0,0c0,0,0,0,0,0c0,0,0,0,0,0V0z"/>
	</g>
	<g id="g134908" transform="matrix(3.8492895,0,0,-3.8492895,644.54615,85.156239)">
		<path id="path134910" class="st0" d="M0,0c0,0-2.5,0.3-4.2,0.8c-1.6,0.4-6.2,1.6-7,7.4c-0.2,1.4-0.3,2.7-0.3,3.8
			c-0.1,3.7,0.7,6,2,7.6c0.1,0.1,1.1,1.5,3.7,2.5c2,1,11.2,1.8,18.8,2.2c5,0.3,11.1,0.3,17.8,0.2c5.3-0.1,10.9-0.3,16.5-0.9
			c9.1-1,10.7-2.5,12.1-4.1c0.7-1.1,1.1-2.4,1.5-4.6c0.2-1.8,0.1-3.6-0.1-5.5c-0.7-5.7-2.1-8.6-15.9-9.8c-1.2-0.1-2.5-0.2-3.9-0.3
			c0,0-5.8-0.3-12.6-0.4c-5-0.1-10.6,0-14.9,0.2c-1.9,0.1-4.1,0.2-4.1,0.2S4.9-6.5,3.9-7.8C3-9,2.2-10,1-9.6c-0.7,0.2-0.9,1-1,2
			C0-6.7,0,0,0,0"/>
	</g>
	<g id="g134912" transform="matrix(3.8492895,0,0,-3.8492895,672.48004,95.777198)">
		<path id="path134914" class="st0" d="M0,0c1.4-0.1,3.5-0.2,5.4-0.3C10-0.5,15.9-0.6,21.1-0.5c7.3,0,16,0.7,17.3,0.8
			C53.2,0.8,55.5,6,55.5,14.2c0,5.3-0.8,7.8-2,9.3c-1.4,2-3.1,3.6-12.6,4.8c-5.9,0.7-11.7,0.9-17.3,1.1c-7,0.2-13.4,0.1-18.6-0.2
			c-7.9-0.4-17.5-1.4-19.7-2.6c-2.7-1.2-3.8-2.8-3.8-2.9c-1.4-1.8-2.2-4.6-2.1-8.9c0-1.3,0-2.8,0.3-4.5c0.8-6.8,5.7-8.3,7.5-8.8
			C-8.8,0.3-1.4,0.1,0,0"/>
	</g>
	<g id="g134916" transform="matrix(3.8492895,0,0,-3.8492895,700.51368,63.403134)">
		<path id="path134918" class="st1" d="M0,0l-4.2,10.3c-0.1,0.1-0.1,0.3-0.1,0.4c0,0.2,0,0.3,0,0.5c0,0.4,0.2,0.8,0.5,1.1
			s0.7,0.4,1.2,0.4c0.3,0,0.6-0.1,0.8-0.3s0.4-0.5,0.6-1l2.8-7.6l2.7,7.5c0.2,0.5,0.4,0.9,0.6,1.1c0.2,0.2,0.5,0.3,0.9,0.3
			c0.5,0,0.8-0.1,1.1-0.4c0.3-0.3,0.4-0.6,0.4-1c0-0.2,0-0.4-0.1-0.5c0-0.2-0.1-0.4-0.2-0.5L3,0.1c-0.2-0.5-0.4-0.8-0.6-1
			S1.9-1.2,1.5-1.2c-0.4,0-0.6,0.1-0.9,0.3C0.4-0.7,0.2-0.4,0,0"/>
	</g>
	<g id="g134920" transform="matrix(3.8492895,0,0,-3.8492895,742.61717,59.920296)">
		<path id="path134922" class="st1" d="M0,0c0-0.7-0.1-1.2-0.3-1.6c-0.2-0.3-0.6-0.5-1.1-0.5c-0.5,0-0.8,0.2-1.1,0.5
			C-2.7-1.2-2.8-0.7-2.8,0v5.7c0,0.7,0.1,1.2,0.3,1.6c0.2,0.3,0.6,0.5,1.1,0.5c0.5,0,0.8-0.2,1.1-0.5C-0.1,6.9,0,6.4,0,5.7V0z"/>
	</g>
	<g id="g134924" transform="matrix(3.8492895,0,0,-3.8492895,759.15837,30.342359)">
		<path id="path134926" class="st1" d="M0,0c0.3,0.3,0.7,0.5,1.1,0.6s0.8,0.2,1.3,0.2c1.3,0,2.4-0.5,3.3-1.5C6.6-1.7,7-3,7-4.6
			C7-6,6.6-7.3,5.6-8.3c-0.9-1-2-1.5-3.3-1.5c-0.5,0-1,0.1-1.4,0.3C0.6-9.4,0.2-9.1-0.1-8.8c-0.2-0.3-0.4-0.6-0.6-0.7
			s-0.5-0.2-0.8-0.2c-0.5,0-0.9,0.2-1.1,0.5C-2.9-8.9-3-8.3-3-7.6V2c0,0.7,0.1,1.3,0.4,1.7C-2.4,4-2,4.2-1.5,4.2S-0.6,4-0.4,3.6
			C-0.1,3.3,0,2.7,0,2V0z M-0.2-4.5c0-0.8,0.2-1.5,0.6-2C0.8-7,1.3-7.2,1.9-7.2c0.6,0,1.1,0.3,1.6,0.8c0.4,0.5,0.6,1.2,0.6,2
			c0,0.8-0.2,1.5-0.6,2C3.1-2,2.6-1.7,1.9-1.7C1.3-1.7,0.8-2,0.4-2.5C0-3-0.2-3.7-0.2-4.5"/>
	</g>
	<g id="g134928" transform="matrix(3.8492895,0,0,-3.8492895,799.20521,50.839053)">
		<path id="path134930" class="st1" d="M0,0c0.1-0.6,0.5-1,0.9-1.3s0.9-0.5,1.6-0.5c0.6,0,1.2,0.2,1.9,0.5C5-1,5.5-0.8,5.6-0.8
			c0.4,0,0.6-0.1,0.9-0.3C6.7-1.4,6.8-1.6,6.8-2c0-0.6-0.5-1.2-1.4-1.7c-0.9-0.5-2-0.8-3.2-0.8C0.8-4.5-0.4-4-1.4-3
			c-1,1-1.5,2.3-1.5,3.8c0,1.5,0.5,2.8,1.5,3.8c1,1,2.2,1.5,3.6,1.5c1.4,0,2.6-0.5,3.5-1.4s1.4-2.1,1.4-3.5c0-0.5-0.1-0.8-0.3-1
			C6.5,0.1,6.2,0,5.6,0H0z M-0.1,1.8h4.4c0,0.6-0.3,1.1-0.7,1.5C3.2,3.7,2.7,3.8,2.2,3.8c-0.6,0-1.1-0.2-1.5-0.5
			C0.3,3,0,2.4-0.1,1.8"/>
	</g>
	<g id="g134932" transform="matrix(3.8492895,0,0,-3.8492895,829.62384,59.362919)">
		<path id="path134934" class="st1" d="M0,0v6.1c0,0.7,0.1,1.3,0.4,1.7C0.6,8.1,1,8.3,1.5,8.3c0.3,0,0.6-0.1,0.8-0.2
			c0.2-0.2,0.4-0.4,0.6-0.7c0.3,0.3,0.6,0.6,1,0.8C4.3,8.2,4.6,8.3,5,8.3c0.4,0,0.8-0.1,1.1-0.4c0.3-0.3,0.5-0.6,0.5-1.1
			c0-0.6-0.6-1.1-1.7-1.5C4.5,5.2,4.2,5,4,4.9C3.6,4.8,3.3,4.6,3.2,4.3C3.1,4.1,3,3.7,3,3.1V0c0-0.7-0.1-1.3-0.4-1.7
			C2.4-2,2-2.2,1.5-2.2C1-2.2,0.6-2,0.4-1.7C0.1-1.3,0-0.7,0,0"/>
	</g>
	<g id="g134936" transform="matrix(3.8492895,0,0,-3.8492895,731.34301,20.324968)">
		<path id="path134938" class="st1" d="M0,0c0,0.4,0.2,0.8,0.5,1.1c0.3,0.3,0.7,0.5,1.1,0.5c0.4,0,0.8-0.2,1.1-0.5S3.2,0.4,3.2,0
			c0-0.4-0.2-0.8-0.5-1.1C2.4-1.4,2-1.6,1.6-1.6c-0.4,0-0.8,0.2-1.1,0.5C0.2-0.8,0-0.4,0,0"/>
	</g>
	<g id="g134940" transform="matrix(3.8492895,0,0,-3.8492895,662.84068,38.330401)">
		<path id="path134942" class="st1" d="M0,0c-0.2,0-0.3,0.1-0.3,0.3C-0.4,1.4-0.9,2-2,2c-0.2,0-0.3,0.2-0.3,0.3
			c0,0.2,0.2,0.3,0.3,0.3c1.4-0.1,2.2-0.9,2.3-2.3C0.3,0.2,0.2,0,0,0C0,0,0,0,0,0"/>
	</g>
	<g id="g134944" transform="matrix(3.8492895,0,0,-3.8492895,669.3502,40.510639)">
		<path id="path134946" class="st1" d="M0,0C0,0,0,0,0,0c-0.2,0-0.3,0.2-0.3,0.3c0,1.1-0.3,2-1,2.8C-2,3.9-2.9,4.3-4.2,4.4
			c-0.2,0-0.3,0.2-0.3,0.4C-4.5,4.9-4.3,5-4.1,5c1.4-0.1,2.5-0.6,3.3-1.5c0.8-0.9,1.2-2,1.2-3.2C0.3,0.1,0.2,0,0,0"/>
	</g>
	<g id="g134948" transform="matrix(3.8492895,0,0,-3.8492895,676.01446,43.118918)">
		<path id="path134950" class="st1" d="M0,0c-0.2,0-0.3,0.1-0.3,0.3c0,2-0.6,3.6-1.8,4.7c-1.2,1.1-2.6,1.7-4.4,1.7
			c-0.2,0-0.3,0.2-0.3,0.3c0,0.2,0.1,0.3,0.3,0.3h0c1.9,0,3.5-0.7,4.8-1.9c1.3-1.3,2-3,2-5.2C0.3,0.2,0.2,0,0,0L0,0z"/>
	</g>
	<g id="g134952" transform="matrix(3.8492895,0,0,-3.8492895,655.51163,54.0509)">
		<path id="path134954" class="st1" d="M0,0c0,0,0.5,0,0.7,0.3l0.5,0.6C1.4,1.2,2,1.4,2.6,1.1c0.3-0.2,0.9-0.5,1.2-0.8
			C4.1,0,4.9-0.6,4.9-0.6c0.4-0.3,0.4-0.7,0.2-1.2c0,0,0,0,0,0c-0.3-0.4-0.6-0.9-1-1.2c0,0,0,0,0,0C3.7-3.4,3.4-3.5,3-3.6
			c0,0-0.1,0-0.2,0c-0.1,0-0.3,0-0.4,0.1l0,0C1.9-3.4,1.1-3-0.4-2.2c-0.9,0.5-1.7,1-2.4,1.6C-3.1-0.4-3.5,0-3.8,0.3c0,0,0,0,0,0
			c0,0,0,0,0,0l0,0l0,0c0,0,0,0,0,0c0,0,0,0,0,0c-0.4,0.4-0.7,0.7-0.9,1.1C-5.4,2.2-6,3-6.5,3.9c-0.8,1.4-1.2,2.3-1.3,2.8l0,0
			c0,0.1-0.1,0.3-0.1,0.4c0,0.1,0,0.1,0,0.2c0,0.3,0.2,0.7,0.5,1c0,0,0,0,0,0c0.4,0.4,0.8,0.8,1.2,1c0,0,0,0,0,0
			c0.5,0.2,0.9,0.2,1.2-0.2c0,0,0.6-0.8,0.9-1.1c0.3-0.3,0.6-0.9,0.8-1.2c0.3-0.6,0.1-1.1-0.2-1.4L-4,5c-0.3-0.2-0.3-0.7-0.3-0.7
			S-3.4,0.9,0,0"/>
	</g>
	<g id="g134956" transform="matrix(3.8492895,0,0,-3.8492895,710.18617,111.95345)">
		<path id="path134958" class="st0" d="M0,0c-0.3,0-0.6-0.1-0.8-0.4C-1-0.6-1-1-1-1.4c0-0.9,0.3-1.4,1-1.4c0.3,0,0.6,0.1,1.1,0.2
			v-0.7C0.7-3.5,0.3-3.6-0.1-3.6c-0.6,0-1.1,0.2-1.4,0.6S-2-2.1-2-1.4C-2-1-1.9-0.6-1.7-0.3C-1.6,0.1-1.3,0.3-1,0.5s0.6,0.3,1,0.3
			c0.4,0,0.8-0.1,1.2-0.3L0.9-0.3C0.8-0.2,0.6-0.1,0.5-0.1S0.2,0,0,0"/>
	</g>
	<g id="g134960" transform="matrix(3.8492895,0,0,-3.8492895,728.5919,119.24863)">
		<path id="path134962" class="st0" d="M0,0c0-0.5-0.1-0.9-0.4-1.2s-0.7-0.4-1.1-0.4c-0.3,0-0.6,0.1-0.8,0.2
			c-0.2,0.1-0.4,0.3-0.5,0.6C-3-0.6-3.1-0.3-3.1,0c0,0.5,0.1,0.9,0.4,1.2C-2.4,1.5-2,1.6-1.5,1.6c0.3,0,0.6-0.1,0.8-0.2
			c0.2-0.1,0.4-0.3,0.5-0.6C-0.1,0.6,0,0.3,0,0 M-2.2,0c0-0.3,0.1-0.6,0.2-0.7C-1.9-0.9-1.8-1-1.5-1C-1.3-1-1.1-0.9-1-0.7
			C-0.9-0.6-0.9-0.3-0.9,0c0,0.3-0.1,0.6-0.2,0.7s-0.3,0.2-0.5,0.2c-0.2,0-0.4-0.1-0.5-0.2C-2.2,0.6-2.2,0.3-2.2,0"/>
	</g>
	<g id="g134964" transform="matrix(3.8492895,0,0,-3.8492895,742.69302,125.40749)">
		<path id="path134966" class="st0" d="M0,0h-0.9v1.9c0,0.2,0,0.4-0.1,0.5s-0.2,0.2-0.4,0.2c-0.2,0-0.4-0.1-0.5-0.2
			C-2,2.1-2.1,1.9-2.1,1.5V0h-0.9v3.2h0.7l0.1-0.4h0C-2,2.9-1.9,3.1-1.7,3.1c0.2,0.1,0.4,0.1,0.6,0.1c0.4,0,0.7-0.1,0.8-0.3
			C-0.1,2.7,0,2.5,0,2.1V0z"/>
	</g>
	<g id="g134968" transform="matrix(3.8492895,0,0,-3.8492895,757.47506,125.40749)">
		<path id="path134970" class="st0" d="M0,0h-0.9v1.9c0,0.2,0,0.4-0.1,0.5s-0.2,0.2-0.4,0.2c-0.2,0-0.4-0.1-0.5-0.2
			C-2,2.1-2.1,1.9-2.1,1.5V0h-0.9v3.2h0.7l0.1-0.4h0C-2,2.9-1.9,3.1-1.7,3.1s0.4,0.1,0.6,0.1c0.4,0,0.7-0.1,0.8-0.3
			C-0.1,2.7,0,2.5,0,2.1V0z"/>
	</g>
	<g id="g134972" transform="matrix(3.8492895,0,0,-3.8492895,766.48009,125.62613)">
		<path id="path134974" class="st0" d="M0,0c-0.5,0-0.9,0.1-1.2,0.4s-0.4,0.7-0.4,1.2c0,0.5,0.1,0.9,0.4,1.2s0.6,0.4,1.1,0.4
			c0.5,0,0.8-0.1,1.1-0.4c0.3-0.3,0.4-0.6,0.4-1.1V1.4h-2.1c0-0.2,0.1-0.4,0.2-0.6S-0.2,0.6,0,0.6c0.2,0,0.4,0,0.5,0.1
			c0.2,0,0.3,0.1,0.5,0.2V0.2C1,0.1,0.8,0.1,0.6,0.1S0.2,0,0,0 M-0.1,2.7c-0.2,0-0.3-0.1-0.4-0.2C-0.7,2.4-0.7,2.2-0.7,2h1.2
			c0,0.2-0.1,0.4-0.2,0.5C0.2,2.6,0.1,2.7-0.1,2.7"/>
	</g>
	<g id="g134976" transform="matrix(3.8492895,0,0,-3.8492895,779.19737,125.62613)">
		<path id="path134978" class="st0" d="M0,0c-1,0-1.5,0.5-1.5,1.6c0,0.5,0.1,1,0.4,1.2c0.3,0.3,0.7,0.4,1.2,0.4c0.4,0,0.7-0.1,1-0.2
			L0.8,2.4C0.7,2.5,0.5,2.5,0.4,2.6c-0.1,0-0.2,0.1-0.4,0.1c-0.5,0-0.7-0.3-0.7-1c0-0.6,0.2-0.9,0.7-0.9c0.2,0,0.3,0,0.5,0.1
			C0.7,0.8,0.8,0.9,1,1V0.2C0.8,0.1,0.7,0.1,0.5,0.1C0.4,0,0.2,0,0,0"/>
	</g>
	<g id="g134980" transform="matrix(3.8492895,0,0,-3.8492895,790.94812,122.95934)">
		<path id="path134982" class="st0" d="M0,0c0.2,0,0.3,0,0.5,0.1v-0.6C0.3-0.6,0.1-0.7-0.3-0.7c-0.3,0-0.6,0.1-0.8,0.3
			C-1.2-0.3-1.3,0-1.3,0.4v1.5h-0.4v0.4l0.5,0.3l0.3,0.7h0.6V2.6h0.9V1.9h-0.9V0.4c0-0.1,0-0.2,0.1-0.3C-0.2,0-0.1,0,0,0"/>
	</g>
	<g id="g134984" transform="matrix(3.8492895,0,0,-3.8492895,795.06645,123.83698)">
		<path id="path134986" class="st0" d="M0,0c0,0.2,0,0.3,0.1,0.4c0.1,0.1,0.2,0.1,0.4,0.1c0.2,0,0.3,0,0.4-0.1C1,0.3,1,0.2,1,0
			c0-0.2,0-0.3-0.1-0.4C0.8-0.4,0.7-0.5,0.5-0.5c-0.2,0-0.3,0-0.4,0.1C0-0.3,0-0.2,0,0"/>
	</g>
	<g id="g134988" transform="matrix(3.8492895,0,0,-3.8492895,811.40746,125.40749)">
		<path id="path134990" class="st0" d="M0,0h-0.9v4.2h2.4V3.4H0V2.4h1.4V1.6H0V0z"/>
	</g>
	<g id="g134992" transform="matrix(3.8492895,0,0,-3.8492895,-1097.1535,3236.2615)">
		<g>
			<defs>
				<rect id="SVGID_1_" x="-1072.2" y="-20514.9" width="2897" height="55429.8"/>
			</defs>
			<clipPath id="SVGID_2_">
				<use xlink:href="#SVGID_1_"  style="overflow:visible;"/>
			</clipPath>
			<g id="g134994" class="st2">
				<g id="g135000" transform="translate(499.8701,811.4126)">
					<path id="path135002" class="st0" d="M0,0c0.1,0,0.2,0,0.3,0L0.2-0.8c-0.1,0-0.2,0-0.3,0c-0.3,0-0.5-0.1-0.6-0.2
						c-0.2-0.1-0.2-0.3-0.2-0.6v-1.6h-0.9v3.2h0.7L-1-0.6h0c0.1,0.2,0.2,0.3,0.4,0.4C-0.4-0.1-0.2,0,0,0"/>
				</g>
				<g id="g135004" transform="translate(502.1867,808.106)">
					<path id="path135006" class="st0" d="M0,0c-0.5,0-0.9,0.1-1.2,0.4s-0.4,0.7-0.4,1.2c0,0.5,0.1,0.9,0.4,1.2s0.6,0.4,1.1,0.4
						c0.5,0,0.8-0.1,1.1-0.4c0.3-0.3,0.4-0.6,0.4-1.1V1.4h-2.1c0-0.2,0.1-0.4,0.2-0.6S-0.2,0.6,0,0.6c0.2,0,0.4,0,0.5,0.1
						c0.2,0,0.3,0.1,0.5,0.2V0.2C1,0.1,0.8,0.1,0.6,0.1S0.2,0,0,0 M-0.1,2.7c-0.2,0-0.3-0.1-0.4-0.2C-0.7,2.4-0.7,2.2-0.7,2h1.2
						c0,0.2-0.1,0.4-0.2,0.5C0.2,2.6,0.1,2.7-0.1,2.7"/>
				</g>
				<g id="g135008" transform="translate(505.6388,808.106)">
					<path id="path135010" class="st0" d="M0,0c-0.5,0-0.9,0.1-1.2,0.4s-0.4,0.7-0.4,1.2c0,0.5,0.1,0.9,0.4,1.2s0.6,0.4,1.1,0.4
						c0.5,0,0.8-0.1,1.1-0.4c0.3-0.3,0.4-0.6,0.4-1.1V1.4h-2.1c0-0.2,0.1-0.4,0.2-0.6S-0.2,0.6,0,0.6c0.2,0,0.4,0,0.5,0.1
						c0.2,0,0.3,0.1,0.5,0.2V0.2C1,0.1,0.8,0.1,0.6,0.1S0.2,0,0,0 M-0.1,2.7c-0.2,0-0.3-0.1-0.4-0.2C-0.7,2.4-0.7,2.2-0.7,2h1.2
						c0,0.2-0.1,0.4-0.2,0.5C0.2,2.6,0.1,2.7-0.1,2.7"/>
				</g>
			</g>
		</g>
	</g>
	<path id="path135012" class="st0" d="M856.9,125.4h3.4v-17.1h-3.4V125.4z"/>
	<g id="g135014" transform="matrix(3.8492895,0,0,-3.8492895,-1097.1535,3236.2615)">
		<g>
			<defs>
				<rect id="SVGID_3_" x="-1072.2" y="-20514.9" width="2897" height="55429.8"/>
			</defs>
			<clipPath id="SVGID_4_">
				<use xlink:href="#SVGID_3_"  style="overflow:visible;"/>
			</clipPath>
			<g id="g135016" class="st3">
				<g id="g135022" transform="translate(508.974,811.3527)">
					<path id="path135024" class="st0" d="M0,0h1l0.6-1.8C1.6-2,1.6-2.1,1.7-2.3h0c0,0.2,0.1,0.4,0.1,0.6L2.4,0h0.9L2-3.6
						C1.9-3.9,1.7-4.2,1.4-4.3C1.2-4.5,0.9-4.6,0.6-4.6c-0.2,0-0.3,0-0.4,0v0.7c0.1,0,0.2,0,0.3,0c0.2,0,0.3,0,0.4,0.1
						s0.2,0.2,0.3,0.4l0.1,0.2L0,0z"/>
				</g>
				<g id="g135026" transform="translate(512.6315,808.571)">
					<path id="path135028" class="st0" d="M0,0c0,0.2,0,0.3,0.1,0.4c0.1,0.1,0.2,0.1,0.4,0.1c0.2,0,0.3,0,0.4-0.1C1,0.3,1,0.2,1,0
						c0-0.2,0-0.3-0.1-0.4C0.8-0.4,0.7-0.5,0.5-0.5c-0.2,0-0.3,0-0.4,0.1C0-0.3,0-0.2,0,0"/>
				</g>
			</g>
		</g>
	</g>
</g>
</svg>
