<svg viewBox="0 0 123.64 16.11" xmlns="http://www.w3.org/2000/svg"><path d="m15 6.8h-3.6a3.58 3.58 0 0 0 -2.6 1.6c-.1.1 0 .1 0 .2h4.2q.9 0 .6.9a5.53 5.53 0 0 1 -7.46 3.5 2.26 2.26 0 0 0 -1.8-.1l-1.1.3c-.4.1-.5-.1-.4-.5a6.47 6.47 0 0 1 .4-1.3 3.42 3.42 0 0 0 -.24-1.3 16 16 0 0 1 -.46-2.1 5.75 5.75 0 0 1 7-5.9 6.14 6.14 0 0 1 2.6 1.5c.5.5.7.5 1.2 0l.1-.1a.65.65 0 0 0 0-1.1 7.09 7.09 0 0 0 -5.1-2.3 5.28 5.28 0 0 0 -1.34.1 7.62 7.62 0 0 0 -5.9 10 3.78 3.78 0 0 1 0 1.5c-.26 1.3-.66 2.6-1.1 3.9 0 .1-.1.3 0 .4a.75.75 0 0 0 .5.1c1.3-.4 2.5-.8 3.8-1.1a3.79 3.79 0 0 1 1.5 0 8 8 0 0 0 4.6.1 7.78 7.78 0 0 0 5.4-7.4c-.06-.7-.26-.8-.8-.9zm6.74-6.2h3.2a6.05 6.05 0 0 1 3.9 1.2 3.75 3.75 0 0 1 1.5 3.1 3.94 3.94 0 0 1 -1 2.7 5.41 5.41 0 0 1 -3.1 1.6l4.4 6.4h-2.3l-4.2-6.2h-.5v6.2h-2v-15zm2 1.8v5.2c3 .1 4.5-.8 4.5-2.6a2.77 2.77 0 0 0 -.5-1.6 2.48 2.48 0 0 0 -1.4-.8 16.12 16.12 0 0 0 -2.6-.2zm19.7-2.4 7.1 15.6h-2.1l-1.7-3.8h-6.4l-1.7 3.8h-2.1zm0 4.7-2.44 5.3h4.8zm9.9-4.1h2.2l4.7 10.6 4.7-10.6h2.2l-6.9 15.5zm19.8 0h2v15h-2zm8.2 0h9.2v2h-3.6v12.9h-2v-12.9h-3.6zm15.2 0h8.3v2h-6.3v3.7h6.3v2h-6.3v5.1h6.3v2h-8.3zm27.1.5v2.3a10.12 10.12 0 0 0 -4.5-1.2 6.37 6.37 0 0 0 -4.4 1.7 5.39 5.39 0 0 0 -1.8 4.1 5.45 5.45 0 0 0 1.8 4.2 6.52 6.52 0 0 0 4.6 1.7 8.15 8.15 0 0 0 4.2-1.3v2.3a9.56 9.56 0 0 1 -4.4 1.1 8.47 8.47 0 0 1 -6-2.4 7.89 7.89 0 0 1 -2.5-5.7 7.57 7.57 0 0 1 2.36-5.6 8.34 8.34 0 0 1 5.8-2.3 13.43 13.43 0 0 1 4.84 1.1z" fill="#fff"/></svg>