<?xml version="1.0" encoding="utf-8"?>
<!-- Generator: Adobe Illustrator 21.0.2, SVG Export Plug-In . SVG Version: 6.00 Build 0)  -->
<svg version="1.1" id="Слой_1" xmlns="http://www.w3.org/2000/svg" xmlns:xlink="http://www.w3.org/1999/xlink" x="0px" y="0px"
	 viewBox="0 0 124 18" style="enable-background:new 0 0 124 18;" xml:space="preserve">
<style type="text/css">
	.st0{fill:#FFFFFF;}
</style>
<g>
	<path class="st0" d="M15,7.7c0,0-0.1,0-0.1,0l-3.3,0h-0.2c-1.4,0-2.1,1.1-2.6,1.6c-0.1,0.1,0,0.1,0,0.2c0.2,0,0.4,0,0.6,0
		c0.5,0,0.9,0,1.4,0c0.7,0,1.5,0,2.2,0c0.6,0,0.8,0.3,0.6,0.9c-1,3.2-4.4,4.8-7.5,3.5c-0.6-0.3-1.2-0.3-1.8-0.1
		c-0.4,0.1-0.7,0.2-1.1,0.3c-0.4,0.1-0.5-0.1-0.4-0.5c0.1-0.4,0.2-0.9,0.4-1.3C3.2,12,3.2,11.5,3,11c-0.2-0.7-0.4-1.4-0.5-2.1
		C2.4,5,5.9,2.1,9.5,3c1,0.3,1.9,0.8,2.6,1.5c0.5,0.5,0.7,0.5,1.2,0c0,0,0,0,0,0c0,0,0.1-0.1,0.1-0.1c0,0,0,0,0,0
		c0.4-0.4,0.4-0.7,0-1.1C11.9,1.8,10.2,1,8.3,1C7.8,1,7.4,1,7,1.1c-4.5,0.7-7.4,5.4-5.9,10c0.1,0.4,0.1,1,0,1.5
		c-0.3,1.3-0.7,2.6-1.1,3.9c0,0.1-0.1,0.3,0,0.4C0.1,17,0.3,17,0.5,17c1.3-0.4,2.5-0.8,3.8-1.1c0.5-0.1,1-0.1,1.5,0
		c1.5,0.5,3,0.5,4.6,0.1c3.1-0.9,5.4-4,5.4-7.4C15.7,7.9,15.5,7.8,15,7.7z"/>
	<g>
		<path class="st0" d="M21.7,1.5h3.2c1.6,0,2.9,0.4,3.9,1.2c1,0.8,1.5,1.8,1.5,3.1c0,1-0.3,1.9-1,2.7c-0.7,0.8-1.7,1.3-3.1,1.6
			l4.4,6.4h-2.3l-4.2-6.2h-0.5v6.2h-2V1.5z M23.7,3.3v5.2c3,0.1,4.5-0.8,4.5-2.6c0-0.6-0.2-1.2-0.5-1.6c-0.4-0.4-0.8-0.7-1.4-0.8
			C25.7,3.4,24.8,3.3,23.7,3.3z"/>
		<path class="st0" d="M43.4,0.9l7.1,15.6h-2.1l-1.7-3.8h-6.4l-1.7,3.8h-2.1L43.4,0.9z M43.4,5.6L41,10.9h4.8L43.4,5.6z"/>
		<path class="st0" d="M53.3,1.5h2.2l4.7,10.6l4.7-10.6h2.2L60.2,17L53.3,1.5z"/>
		<path class="st0" d="M73.1,1.5h2v15h-2V1.5z"/>
		<path class="st0" d="M81.3,1.5h9.2v2h-3.6v12.9h-2V3.5h-3.6V1.5z"/>
		<path class="st0" d="M96.5,1.5h8.3v2h-6.3v3.7h6.3v2h-6.3v5.1h6.3v2h-8.3V1.5z"/>
		<path class="st0" d="M123.6,2v2.3c-1.6-0.8-3.1-1.2-4.5-1.2c-1.7,0-3.2,0.6-4.4,1.7c-1.2,1.1-1.8,2.5-1.8,4.1
			c0,1.7,0.6,3.1,1.8,4.2c1.2,1.1,2.7,1.7,4.6,1.7c1.3,0,2.7-0.4,4.2-1.3v2.3c-1.4,0.7-2.8,1.1-4.4,1.1c-2.3,0-4.3-0.8-6-2.4
			c-1.6-1.6-2.5-3.5-2.5-5.7c0-2.2,0.8-4,2.4-5.6c1.6-1.5,3.6-2.3,5.8-2.3C120.5,1,122,1.3,123.6,2z"/>
	</g>
</g>
</svg>
