<svg enable-background="new 0 0 128 113" viewBox="0 0 128 113" xmlns="http://www.w3.org/2000/svg" xmlns:xlink="http://www.w3.org/1999/xlink"><linearGradient id="a"><stop offset="0" stop-color="#0e4e95"/><stop offset=".5217" stop-color="#1068b2"/><stop offset="1" stop-color="#009cc9"/></linearGradient><linearGradient id="b" gradientUnits="userSpaceOnUse" x1="80.98" x2="41.8027" xlink:href="#a" y1="11.7413" y2="79.5983"/><linearGradient id="c" gradientUnits="userSpaceOnUse" x1="9.5444" x2="9.5444" xlink:href="#a" y1="96.0059" y2="111.96"/><linearGradient id="d" gradientUnits="userSpaceOnUse" x1="29.1709" x2="29.1709" xlink:href="#a" y1="96.4761" y2="111.4526"/><linearGradient id="e" gradientUnits="userSpaceOnUse" x1="46.4072" x2="46.4072" xlink:href="#a" y1="95.8994" y2="111.4526"/><linearGradient id="f" gradientUnits="userSpaceOnUse" x1="63.2104" x2="63.2104" xlink:href="#a" y1="96.4995" y2="111.96"/><linearGradient id="g" gradientUnits="userSpaceOnUse" x1="77.1084" x2="77.1084" xlink:href="#a" y1="96.4761" y2="111.4526"/><linearGradient id="h" gradientUnits="userSpaceOnUse" x1="88.8857" x2="88.8857" xlink:href="#a" y1="96.4761" y2="111.4526"/><linearGradient id="i" gradientUnits="userSpaceOnUse" x1="103.6836" x2="103.6836" xlink:href="#a" y1="96.4761" y2="111.4526"/><linearGradient id="j" gradientUnits="userSpaceOnUse" x1="120.1816" x2="120.1816" xlink:href="#a" y1="96.0059" y2="111.96"/><path d="m88.6 19.8c-.1.1-.3.3-.4.4s-.1.1-.2.2c.3-.2.7-.5 1.1-.9-.1 0-.2.1-.4.1 0 .1 0 .2-.1.2z" fill="none"/><path d="m99 33.6h-1.1c2.3.1 2.7.7 2.8 3.5.2 14.9-10.6 29-24.9 32.9-7.1 1.9-14 1.6-21.1-.4-2.1-.6-4.7-.5-6.8 0-5.9 1.4-11.7 3.3-17.5 4.9-.6.2-1.5.2-1.9-.1-.3-.3-.3-1.3-.1-1.9 1.7-5.8 3.6-11.5 5-17.3.5-2.1.6-4.6-.1-6.6-7-20.5 6.5-41.3 27.1-44.6 2.1-.3 4.1-.5 6.1-.5 9 0 17 3.4 23.8 10 2 1.9 2 2.9 0 5-.2.2-.3.3-.4.5-.3.3-.5.5-.7.7.7-.3 1.4-.9 2.4-1.9.2-.2.3-.3.5-.5 2.1-2.2 2.2-3.2 0-5.3-7.5-7.2-16-10.8-25.6-10.8-2.1 0-4.3.2-6.5.5-22.1 3.6-36.5 25.8-29 47.8.7 2.1.6 4.8.1 7.1-1.6 6.2-3.6 12.3-5.4 18.5-.2.6-.3 1.7.1 2 .4.4 1.4.3 2 .1 6.2-1.8 12.4-3.7 18.7-5.3 2.3-.6 5-.6 7.3 0 7.5 2.2 14.9 2.5 22.5.5 15.4-4.1 26.9-19.3 26.7-35.2 0-3.3-.7-3.6-4-3.6z" fill="#8dd7f7"/><path d="m90.3 18.4c2-2 2-3 0-5-6.9-6.6-14.9-10-23.8-10-2 0-4 .2-6.1.5-20.6 3.4-34.1 24.2-27.1 44.7.7 2 .6 4.5.1 6.6-1.5 5.8-3.4 11.5-5 17.3-.2.6-.2 1.5.1 1.9.3.3 1.3.3 1.9.1 5.8-1.6 11.6-3.5 17.5-4.9 2.2-.5 4.7-.6 6.8 0 7 2.1 14 2.3 21.1.4 14.4-3.9 25.2-18 24.9-32.9 0-2.8-.4-3.4-2.8-3.5h-2.6c2.3.1 2.8.8 2.8 3.4.2 13.7-9.7 26.7-23 30.3-6.5 1.7-12.9 1.5-19.4-.4-1.9-.6-4.3-.5-6.3 0-5.4 1.3-10.7 3-16.1 4.5-.6.2-1.4.2-1.7-.1s-.2-1.2-.1-1.7c1.5-5.3 3.3-10.6 4.6-15.9.5-1.9.6-4.2-.1-6.1-6.3-18.9 6-38.1 25.1-41.1 1.9-.3 3.7-.5 5.6-.5 8.3 0 15.6 3.1 22 9.2 1.8 1.7 1.8 2.6.1 4.4.1 0 .2-.1.4-.1.2-.2.5-.4.7-.7.1-.1.2-.2.4-.4z" fill="#53b6e7"/><path d="m95.3 33.6c-.2 0-.4 0-.6 0h-14.1-.9c-5.8 0-8.8 4.5-11.1 6.6-.3.4-.2.5.2.6.8.1 1.6.2 2.4.2h5.9 9.4c2.7 0 3.5 1.2 2.6 3.8-4.3 13-18.8 19.6-31.9 14.5-2.6-1-5.1-1.2-7.8-.3-1.5.5-3.1 1-4.7 1.3s-2.2-.3-1.8-2c.4-1.8.9-3.5 1.5-5.2.7-2.2.4-4.1-.3-6.2-.9-2.8-1.8-5.8-1.9-8.7-.7-15.7 14.3-27.7 29.6-23.9 4.3 1.1 8 3.1 11.2 6.1 2.2 2.1 2.9 2.1 5 .1.1-.1.1-.1.2-.2s.3-.3.4-.4.1-.1.2-.2c1.7-1.8 1.7-2.7-.1-4.4-6.4-6.2-13.8-9.3-22-9.3-1.8 0-3.7.2-5.6.5-19 3.1-31.4 22.2-25 41.1.6 1.8.5 4.2.1 6.1-1.3 5.4-3.1 10.6-4.6 15.9-.2.5-.2 1.4.1 1.7s1.2.3 1.7.1c5.4-1.5 10.7-3.2 16.1-4.5 2-.5 4.3-.6 6.3 0 6.5 1.9 12.9 2.2 19.4.4 13.3-3.6 23.2-16.6 23-30.3-.1-2.6-.6-3.3-2.9-3.4z" fill="url(#b)"/><path d="m16.4 98.9-1.5 1.5c-1.5-1.5-3.3-2.2-5.3-2.2-1.8 0-3.2.6-4.4 1.7s-1.8 2.5-1.8 4.2c0 1.5.6 2.8 1.7 4s2.7 1.8 4.7 1.8c3 0 4.9-1.3 5.6-3.9h-4v-2h6.4c0 1-.1 1.8-.2 2.5-.1.6-.4 1.3-.9 2-.4.7-1 1.4-1.7 2s-1.5 1-2.3 1.3c-.8.2-1.8.4-2.9.4-2.6 0-4.6-.8-6.2-2.4-1.5-1.6-2.3-3.5-2.3-5.6 0-2.2.8-4.1 2.4-5.6 1.5-1.8 3.4-2.6 5.7-2.6 1.3 0 2.5.2 3.7.6 1 .4 2.2 1.2 3.3 2.3z" fill="url(#c)"/><path d="m24.7 96.5h3.2c1.6 0 2.9.4 3.9 1.2s1.5 1.8 1.5 3.1c0 1-.3 1.9-1 2.7s-1.7 1.3-3.1 1.6l4.4 6.4h-2.3l-4.2-6.2h-.5v6.2h-2v-15zm2 1.8v5.2c3 .1 4.5-.8 4.5-2.6 0-.6-.2-1.2-.5-1.6-.4-.4-.8-.7-1.4-.8s-1.5-.2-2.6-.2z" fill="url(#d)"/><path d="m46.4 95.9 7.1 15.6h-2.1l-1.7-3.8h-6.4l-1.7 3.8h-2.1zm0 4.7-2.4 5.3h4.8z" fill="url(#e)"/><path d="m56.3 96.5h2.2l4.7 10.6 4.7-10.6h2.2l-6.9 15.5z" fill="url(#f)"/><path d="m76.1 96.5h2v15h-2z" fill="url(#g)"/><path d="m84.3 96.5h9.2v2h-3.6v12.9h-2v-12.9h-3.6z" fill="url(#h)"/><path d="m99.5 96.5h8.3v2h-6.3v3.7h6.3v2h-6.3v5.1h6.3v2h-8.3z" fill="url(#i)"/><path d="m126.6 97v2.3c-1.6-.8-3.1-1.2-4.5-1.2-1.7 0-3.2.6-4.4 1.7s-1.8 2.5-1.8 4.1c0 1.7.6 3.1 1.8 4.2s2.7 1.7 4.6 1.7c1.3 0 2.7-.4 4.2-1.3v2.3c-1.4.7-2.8 1.1-4.4 1.1-2.3 0-4.3-.8-6-2.4-1.6-1.6-2.5-3.5-2.5-5.7s.8-4 2.4-5.6c1.6-1.5 3.6-2.3 5.8-2.3 1.7.1 3.2.4 4.8 1.1z" fill="url(#j)"/></svg>