<?xml version="1.0" encoding="utf-8"?>
<!-- Generator: Adobe Illustrator 21.0.2, SVG Export Plug-In . SVG Version: 6.00 Build 0)  -->
<svg version="1.1" id="Слой_1" xmlns="http://www.w3.org/2000/svg" xmlns:xlink="http://www.w3.org/1999/xlink" x="0px" y="0px"
	 viewBox="0 0 18 18" style="enable-background:new 0 0 18 18;" xml:space="preserve">
<style type="text/css">
	.st0{fill:#1268B2;}
</style>
<path class="st0" d="M16,7.8h-0.1h-3.3h-0.2c-1.4,0-2.1,1.1-2.6,1.6c-0.1,0.1,0,0.1,0,0.2c0.2,0,0.4,0,0.6,0c0.5,0,0.9,0,1.4,0
	c0.7,0,1.5,0,2.2,0c0.6,0,0.8,0.3,0.6,0.9c-1,3.2-4.4,4.8-7.5,3.5c-0.6-0.3-1.2-0.3-1.8-0.1c-0.4,0.1-0.7,0.2-1.1,0.3
	s-0.5-0.1-0.4-0.5s0.2-0.9,0.4-1.3c0-0.3,0-0.8-0.2-1.3C3.8,10.4,3.6,9.7,3.5,9c-0.1-3.9,3.4-6.8,7-5.9c1,0.3,1.9,0.8,2.6,1.5
	c0.5,0.5,0.7,0.5,1.2,0l0,0l0.1-0.1l0,0c0.4-0.4,0.4-0.7,0-1.1c-1.5-1.5-3.2-2.3-5.1-2.3c-0.5,0-0.9,0-1.3,0.1
	c-4.5,0.7-7.4,5.4-5.9,10c0.1,0.4,0.1,1,0,1.5C1.8,14,1.4,15.3,1,16.6c0,0.1-0.1,0.3,0,0.4c0.1,0.1,0.3,0.1,0.5,0.1
	C2.8,16.7,4,16.3,5.3,16c0.5-0.1,1-0.1,1.5,0c1.5,0.5,3,0.5,4.6,0.1c3.1-0.9,5.4-4,5.4-7.4C16.7,8,16.5,7.9,16,7.8z"/>
</svg>
