<?xml version="1.0" encoding="utf-8"?>
<!-- Generator: Adobe Illustrator 21.0.2, SVG Export Plug-In . SVG Version: 6.00 Build 0)  -->
<svg version="1.1" id="Слой_1" xmlns="http://www.w3.org/2000/svg" xmlns:xlink="http://www.w3.org/1999/xlink" x="0px" y="0px"
	 viewBox="0 0 15.8 16" style="enable-background:new 0 0 15.8 16;" xml:space="preserve">
<style type="text/css">
	.st0{fill:#FFFFFF;}
</style>
<path class="st0" d="M15,6.7h-0.1h-3.3h-0.2c-1.4,0-2.1,1.1-2.6,1.6c-0.1,0.1,0,0.1,0,0.2c0.2,0,0.4,0,0.6,0c0.5,0,0.9,0,1.4,0
	c0.7,0,1.5,0,2.2,0c0.6,0,0.8,0.3,0.6,0.9c-1,3.2-4.4,4.8-7.5,3.5c-0.6-0.3-1.2-0.3-1.8-0.1c-0.4,0.1-0.7,0.2-1.1,0.3
	S2.7,13,2.8,12.6s0.2-0.9,0.4-1.3c0-0.3,0-0.8-0.2-1.3C2.8,9.3,2.6,8.6,2.5,7.9C2.4,4,5.9,1.1,9.5,2c1,0.3,1.9,0.8,2.6,1.5
	c0.5,0.5,0.7,0.5,1.2,0l0,0l0.1-0.1l0,0c0.4-0.4,0.4-0.7,0-1.1C11.9,0.8,10.2,0,8.3,0C7.8,0,7.4,0,7,0.1c-4.5,0.7-7.4,5.4-5.9,10
	c0.1,0.4,0.1,1,0,1.5c-0.3,1.3-0.7,2.6-1.1,3.9c0,0.1-0.1,0.3,0,0.4S0.3,16,0.5,16c1.3-0.4,2.5-0.8,3.8-1.1c0.5-0.1,1-0.1,1.5,0
	c1.5,0.5,3,0.5,4.6,0.1c3.1-0.9,5.4-4,5.4-7.4C15.7,6.9,15.5,6.8,15,6.7z"/>
</svg>
