<svg enable-background="new 0 0 15.8 16" viewBox="0 0 15.8 16" xmlns="http://www.w3.org/2000/svg"><path d="m15 6.7h-.1-3.3-.2c-1.4 0-2.1 1.1-2.6 1.6-.1.1 0 .1 0 .2h.6 1.4 2.2c.6 0 .8.3.6.9-1 3.2-4.4 4.8-7.5 3.5-.6-.3-1.2-.3-1.8-.1-.4.1-.7.2-1.1.3s-.5-.1-.4-.5.2-.9.4-1.3c0-.3 0-.8-.2-1.3-.2-.7-.4-1.4-.5-2.1-.1-3.9 3.4-6.8 7-5.9 1 .3 1.9.8 2.6 1.5.5.5.7.5 1.2 0l .1-.1c.4-.4.4-.7 0-1.1-1.5-1.5-3.2-2.3-5.1-2.3-.5 0-.9 0-1.3.1-4.5.7-7.4 5.4-5.9 10 .1.4.1 1 0 1.5-.3 1.3-.7 2.6-1.1 3.9 0 .1-.1.3 0 .4s.3.1.5.1c1.3-.4 2.5-.8 3.8-1.1.5-.1 1-.1 1.5 0 1.5.5 3 .5 4.6.1 3.1-.9 5.4-4 5.4-7.4-.1-.7-.3-.8-.8-.9z" fill="#fff"/></svg>