<?xml version="1.0" standalone="no"?>
<!DOCTYPE svg PUBLIC "-//W3C//DTD SVG 20010904//EN"
 "http://www.w3.org/TR/2001/REC-SVG-20010904/DTD/svg10.dtd">
<svg version="1.0" xmlns="http://www.w3.org/2000/svg"
 width="1500.000000pt" height="840.000000pt" viewBox="0 0 1500.000000 840.000000"
 preserveAspectRatio="xMidYMid meet">

<g transform="translate(0.000000,840.000000) scale(0.100000,-0.100000)"
fill="#000000" stroke="none">
<path d="M7822 3804 c-12 -8 -29 -29 -38 -46 -44 -86 58 -188 144 -144 43 22
62 54 62 102 0 60 -44 104 -104 104 -23 0 -52 -7 -64 -16z"/>
<path d="M7067 3794 c-4 -4 -7 -245 -7 -536 l0 -528 80 0 80 0 2 192 3 193
105 -193 105 -192 93 0 c50 0 92 2 92 4 0 2 -63 114 -140 250 -77 135 -141
250 -143 255 -1 5 42 63 96 130 53 66 97 124 97 128 0 5 -44 7 -97 6 l-98 -2
-55 -68 -55 -68 -5 215 -5 215 -70 3 c-39 1 -74 0 -78 -4z"/>
<path d="M8290 3788 c-1 -7 -2 -74 -3 -148 -1 -99 -5 -135 -14 -136 -7 -1 -38
-2 -68 -3 l-55 -1 0 -75 0 -74 68 -3 c44 -2 67 -7 68 -15 1 -7 2 -146 3 -308
l1 -295 75 0 75 0 2 308 3 307 68 3 68 3 -3 76 -3 76 -65 1 -65 1 -3 148 -3
147 -74 0 c-53 0 -75 -4 -75 -12z"/>
<path d="M10565 3557 c-118 -30 -241 -133 -293 -244 -24 -53 -27 -69 -27 -173
0 -109 2 -119 32 -183 42 -88 117 -163 208 -208 67 -32 74 -34 180 -34 103 0
114 2 175 31 76 37 132 83 178 148 l33 46 -23 9 c-13 5 -46 17 -75 27 l-51 18
-47 -43 c-71 -65 -148 -89 -244 -76 -102 14 -107 6 159 273 l241 242 -23 31
c-32 43 -103 94 -167 119 -67 26 -188 34 -256 17z m209 -168 c3 -3 -75 -86
-174 -184 -99 -98 -183 -176 -187 -171 -4 4 -9 39 -11 77 -5 87 15 145 72 207
49 53 85 73 151 81 48 6 139 0 149 -10z"/>
<path d="M9465 3541 c-44 -11 -70 -27 -99 -62 l-26 -31 0 26 c0 28 1 28 -100
28 l-55 0 -3 -386 -2 -386 80 0 80 0 0 278 c0 161 4 293 11 314 15 56 69 81
122 57 44 -20 47 -43 47 -354 l0 -295 80 0 80 0 0 265 c0 312 7 359 55 382 38
18 76 12 104 -16 27 -27 33 -106 29 -389 l-3 -242 78 0 78 0 -3 359 c-3 345
-4 361 -24 387 -41 55 -70 69 -142 68 -84 -2 -144 -30 -175 -81 l-21 -36 -7
28 c-11 39 -46 73 -88 85 -40 11 -53 11 -96 1z"/>
<path d="M7817 3502 c-16 -3 -17 -38 -17 -388 l0 -384 80 0 80 0 -2 386 -3
386 -61 2 c-33 0 -68 0 -77 -2z"/>
<path d="M8779 2926 c-15 -9 -34 -32 -44 -52 -55 -117 105 -212 187 -110 11
13 18 39 18 67 0 37 -5 50 -29 73 -35 33 -94 43 -132 22z"/>
</g>
</svg>
