<svg xmlns="http://www.w3.org/2000/svg" viewBox="0 0 223.38 223.5"><defs><style>.g{isolation:isolate;opacity:.05}</style><radialGradient id="a" cx="182.28" cy="-2.22" r="1" gradientTransform="matrix(90 0 0 90 -16294.04 266.27)" gradientUnits="userSpaceOnUse"><stop offset=".1" stop-color="#7fb3df"/><stop offset=".9" stop-color="#0f5b94"/></radialGradient><radialGradient id="b" cx="182.28" cy="-2.22" r="1" gradientTransform="matrix(90 0 0 90 -16294.04 266.27)" gradientUnits="userSpaceOnUse"><stop offset="0" stop-color="#f6f0ee"/><stop offset="1" stop-color="#ddd"/></radialGradient><radialGradient id="c" cx="183.47" cy="-1.57" r=".5" gradientTransform="matrix(193 0 0 127.18 -35293 199.82)" gradientUnits="userSpaceOnUse"><stop offset="1" stop-color="#f06b59"/><stop offset="1" stop-color="#df2227"/></radialGradient><radialGradient id="d" cx="183.32" cy="-.85" r=".76" gradientTransform="matrix(149.98 0 0 174 -27396.54 249)" gradientUnits="userSpaceOnUse"><stop offset=".65" stop-color="#4cb749"/><stop offset="1" stop-color="#388b41"/></radialGradient><radialGradient id="e" cx="182.7" cy="-.99" r=".8" gradientTransform="matrix(120.44 0 0 161.32 -21858.56 262)" gradientUnits="userSpaceOnUse"><stop offset=".6" stop-color="#fcd209"/><stop offset=".7" stop-color="#f7c616"/><stop offset="1" stop-color="#bc821e"/></radialGradient></defs><path d="M181.96 132.17a70 70 0 0 0-140 0h20a50 50 0 0 1 100 0" fill-opacity=".1"/><circle cx="111.46" cy="111.77" r="45" stroke-width="9" fill="url(#a)" stroke="url(#b)"/><path d="M212.5 62.5A111.88 111.88 0 0 0 62.4 12.1a113 113 0 0 0-42.9 37.4l45 78a50 50 0 0 1 47-65" transform="translate(-.54 -.33)" fill="url(#c)"/><path d="M19.5 49.5a112 112 0 0 0 84 174l47-80a50 50 0 0 1-70.4 6.7 51 51 0 0 1-15.6-22.7" transform="translate(-.54 -.33)" fill="url(#d)"/><path d="M103.5 223.5a112 112 0 0 0 109-161h-101a50 50 0 0 1 39 81" transform="translate(-.54 -.33)" fill="url(#e)"/><path d="M18.96 49.17l45 78a50.37 50.37 0 0 1 2-34l-45-47" style="isolation:isolate" opacity=".08"/><path class="g" d="M102.96 223.17l47-80a50 50 0 0 1-29 17l-20 63M211.96 62.17h-101a50.18 50.18 0 0 1 39 19l64-16"/></svg>