<svg xmlns="http://www.w3.org/2000/svg" viewBox="0 0 953.35 984"><defs><radialGradient id="a" cx="-15036.76" cy="10084.96" fx="-15065.513" r="450.87" gradientTransform="matrix(.76 .03 .05 -1.12 11861.6 12051.92)" gradientUnits="userSpaceOnUse"><stop offset=".04" stop-color="#ffea00"/><stop offset=".12" stop-color="#ffde00"/><stop offset=".25" stop-color="#ffbf00"/><stop offset=".43" stop-color="#ff8e00"/><stop offset=".77" stop-color="#ff272d"/><stop offset=".87" stop-color="#e0255a"/><stop offset=".95" stop-color="#cc2477"/><stop offset="1" stop-color="#c42482"/></radialGradient><radialGradient id="b" cx="-7304.9" cy="9622.29" r="791.23" gradientTransform="matrix(1.23 0 0 -1.23 9611.2 11984.91)" gradientUnits="userSpaceOnUse"><stop offset="0" stop-color="#00ccda"/><stop offset=".22" stop-color="#0083ff"/><stop offset=".26" stop-color="#007af9"/><stop offset=".33" stop-color="#0060e8"/><stop offset=".33" stop-color="#005fe7"/><stop offset=".44" stop-color="#2639ad"/><stop offset=".52" stop-color="#401e84"/><stop offset=".57" stop-color="#4a1475"/></radialGradient><linearGradient id="c" x1="540.83" y1="1234.86" x2="349.4" y2="1861.09" gradientTransform="matrix(1 0 0 -1 0 1964)" gradientUnits="userSpaceOnUse"><stop offset="0" stop-color="#000f43" stop-opacity=".4"/><stop offset=".48" stop-color="#001962" stop-opacity=".17"/><stop offset="1" stop-color="#002079" stop-opacity="0"/></linearGradient><radialGradient id="d" cx="-8147.77" cy="8096.15" r="266.89" gradientTransform="matrix(1.22 .12 .12 -1.22 9928.4 11510.92)" gradientUnits="userSpaceOnUse"><stop offset="0" stop-color="#ffea00"/><stop offset=".5" stop-color="#ff272d"/><stop offset="1" stop-color="#c42482"/></radialGradient><radialGradient id="e" cx="-8171.92" cy="8352.06" r="445.68" gradientTransform="matrix(1.22 .12 .12 -1.22 9928.4 11510.92)" gradientUnits="userSpaceOnUse"><stop offset="0" stop-color="#ffe900"/><stop offset=".16" stop-color="#ffaf0e"/><stop offset=".32" stop-color="#ff7a1b"/><stop offset=".47" stop-color="#ff4e26"/><stop offset=".62" stop-color="#ff2c2e"/><stop offset=".76" stop-color="#ff1434"/><stop offset=".89" stop-color="#ff0538"/><stop offset="1" stop-color="#ff0039"/></radialGradient><radialGradient id="f" cx="-8108.88" cy="7938.92" r="408.96" gradientTransform="matrix(1.22 .12 .12 -1.22 9928.4 11510.92)" gradientUnits="userSpaceOnUse"><stop offset="0" stop-color="#ff272d"/><stop offset=".5" stop-color="#c42482"/><stop offset=".99" stop-color="#620700"/></radialGradient><radialGradient id="g" cx="715.19" cy="1569.96" fx="743.167" fy="1556.132" r="782.18" gradientTransform="matrix(1 0 0 -1 0 1964)" gradientUnits="userSpaceOnUse"><stop offset=".16" stop-color="#ffea00"/><stop offset=".23" stop-color="#ffde00"/><stop offset=".36" stop-color="#ffbf00"/><stop offset=".54" stop-color="#ff8e00"/><stop offset=".76" stop-color="#ff272d"/><stop offset=".8" stop-color="#f92433"/><stop offset=".84" stop-color="#e91c45"/><stop offset=".89" stop-color="#cf0e62"/><stop offset=".94" stop-color="#b5007f"/></radialGradient><radialGradient id="h" cx="656.34" cy="1962.71" r="923.61" gradientTransform="matrix(1 0 0 -1 0 1964)" gradientUnits="userSpaceOnUse"><stop offset=".28" stop-color="#ffea00"/><stop offset=".4" stop-color="#fd0"/><stop offset=".63" stop-color="#ffba00"/><stop offset=".86" stop-color="#ff9100"/><stop offset=".93" stop-color="#ff6711"/><stop offset=".99" stop-color="#ff4a1d"/></radialGradient><linearGradient id="i" x1="-8821.42" y1="8217.87" x2="-8537.06" y2="8290.36" gradientTransform="matrix(1.22 .12 .12 -1.22 9928.4 11510.92)" gradientUnits="userSpaceOnUse"><stop offset="0" stop-color="#c42482" stop-opacity=".5"/><stop offset=".47" stop-color="#ff272d" stop-opacity=".5"/><stop offset=".49" stop-color="#ff2c2c" stop-opacity=".51"/><stop offset=".68" stop-color="#ff7a1a" stop-opacity=".72"/><stop offset=".83" stop-color="#ffb20d" stop-opacity=".87"/><stop offset=".94" stop-color="#ffd605" stop-opacity=".96"/><stop offset="1" stop-color="#ffe302"/></linearGradient><linearGradient id="j" x1="73.64" y1="2897.23" x2="19.07" y2="3037.07" gradientTransform="matrix(1 .1 .1 -1 -222.13 3140.75)" gradientUnits="userSpaceOnUse"><stop offset="0" stop-color="#891551" stop-opacity=".6"/><stop offset="1" stop-color="#c42482" stop-opacity="0"/></linearGradient><linearGradient id="k" x1="-146.92" y1="1097.39" x2="-52.81" y2="990.51" gradientTransform="matrix(1 .1 .1 -1 257.01 1580.34)" gradientUnits="userSpaceOnUse"><stop offset=".01" stop-color="#891551" stop-opacity=".5"/><stop offset=".48" stop-color="#ff272d" stop-opacity=".5"/><stop offset="1" stop-color="#ff272d" stop-opacity="0"/></linearGradient><linearGradient id="l" x1="30.84" y1="911.72" x2="30.91" y2="986.5" gradientTransform="matrix(1 .1 .1 -1 257.01 1580.34)" gradientUnits="userSpaceOnUse"><stop offset="0" stop-color="#c42482"/><stop offset=".08" stop-color="#c42482" stop-opacity=".81"/><stop offset=".21" stop-color="#c42482" stop-opacity=".56"/><stop offset=".33" stop-color="#c42482" stop-opacity=".36"/><stop offset=".45" stop-color="#c42482" stop-opacity=".2"/><stop offset=".56" stop-color="#c42482" stop-opacity=".09"/><stop offset=".67" stop-color="#c42482" stop-opacity=".02"/><stop offset=".77" stop-color="#c42482" stop-opacity="0"/></linearGradient><linearGradient id="m" x1="620.52" y1="1927.87" x2="926.18" y2="1244.38" gradientTransform="matrix(1 0 0 -1 0 1964)" gradientUnits="userSpaceOnUse"><stop offset="0" stop-color="#fff14f"/><stop offset=".27" stop-color="#ffee4c"/><stop offset=".45" stop-color="#ffe643"/><stop offset=".61" stop-color="#ffd834"/><stop offset=".76" stop-color="#ffc41e"/><stop offset=".89" stop-color="#ffab02"/><stop offset=".9" stop-color="#ffa900"/><stop offset=".95" stop-color="#ffa000"/><stop offset="1" stop-color="#ff9100"/></linearGradient><linearGradient id="n" x1="680.89" y1="1534.79" x2="536.1" y2="1146.04" gradientTransform="matrix(1 0 0 -1 0 1964)" gradientUnits="userSpaceOnUse"><stop offset="0" stop-color="#ff8e00"/><stop offset=".04" stop-color="#ff8e00" stop-opacity=".86"/><stop offset=".08" stop-color="#ff8e00" stop-opacity=".73"/><stop offset=".13" stop-color="#ff8e00" stop-opacity=".63"/><stop offset=".18" stop-color="#ff8e00" stop-opacity=".56"/><stop offset=".23" stop-color="#ff8e00" stop-opacity=".51"/><stop offset=".28" stop-color="#ff8e00" stop-opacity=".5"/><stop offset=".39" stop-color="#ff8e00" stop-opacity=".48"/><stop offset=".52" stop-color="#ff8e00" stop-opacity=".42"/><stop offset=".68" stop-color="#ff8e00" stop-opacity=".31"/><stop offset=".84" stop-color="#ff8e00" stop-opacity=".17"/><stop offset="1" stop-color="#ff8e00" stop-opacity="0"/></linearGradient></defs><path d="M770.3 91.6c-23.9 27.9-35.1 90.6-10.8 154.3s61.5 49.8 84.7 114.7c30.6 85.6 16.4 200.6 16.4 200.6s36.8 106.6 62.5-6.6c56.7-212.9-152.8-410.7-152.8-463z" fill="url(#a)"/><path d="M478.1 974.6c245.2 0 443.9-199.7 443.9-446s-198.7-446-443.7-446-443.6 199.7-443.6 446c-.5 246.5 198.4 446 443.4 446z" fill="url(#b)"/><path d="M810.7 803.6a256.15 256.15 0 0 1-30.1 18.2 695.48 695.48 0 0 0 38.3-63c9.5-10.5 18.1-20.6 25.2-31.7 3.4-5.4 7.3-12.1 11.4-19.8 24.9-44.9 52.4-117.6 53.2-192.2v-5.6a260.71 260.71 0 0 0-5.7-55.7c.2 1.4.4 2.9.6 4.3l-.6-3.3c.4 2 .7 4 1 6 5.1 43.2 1.5 85.4-16.7 116.4a14.6 14.6 0 0 1-.9 1.3c9.4-47.2 12.6-99.4 2.1-151.6 0 0-4.2-25.4-35.4-102.4-18-44.4-49.8-80.7-78-107.2-24.7-30.5-47.1-51-59.5-64.1-25.8-27.2-36.6-47.6-41.1-60.9-3.9-1.9-53.1-49.8-57-51.6-21.5 33.4-89.2 137.7-57 235.1 14.6 44.2 51.5 90 90.1 115.7 1.7 1.9 23 25 33.1 77.2 10.4 53.8 5 95.9-16.5 158-25.3 54.5-90.1 108.4-150.7 113.9-129.7 11.8-177.1-65.1-177.1-65.1 46.3 18.5 97.6 14.7 128.7-4.6 31.4-19.4 50.4-33.8 65.8-28.1 15.2 5.7 27.3-10.8 16.4-27.8a78.56 78.56 0 0 0-79.4-34.6c-31.4 5.1-60.2 30-101.4 5.9a64.14 64.14 0 0 1-7.7-5.1c-2.7-1.8 8.8 2.7 6.1.7-8-4.4-22.2-13.8-25.9-17.2-.6-.6 6.2 2.2 5.6 1.6-38.5-31.7-33.7-53.1-32.5-66.6 1-10.7 8-24.5 19.8-30.1 5.7 3.1 9.2 5.5 9.2 5.5s-2.4-5-3.7-7.6c.5-.2.9-.1 1.4-.3 4.7 2.3 15 8.1 20.4 11.7 7.1 5 9.3 9.4 9.3 9.4s1.9-1 .5-5.4c-.5-1.8-2.6-7.5-9.7-13.2h.4a81.1 81.1 0 0 1 11.9 8.2c2-7.2 5.5-14.7 4.7-28.1-.5-9.4-.3-11.9-1.9-15.5-1.5-3.1.8-4.3 3.4-1.1a33 33 0 0 0-2.2-7.4v-.2c3.2-11.2 68.2-40.5 73-43.9a66.62 66.62 0 0 0 19.1-20.8c3.6-5.8 6.3-13.8 7-26.1.4-8.8-3.8-14.7-69.5-21.6-18-1.8-28.5-14.8-34.5-26.8-1.1-2.6-2.2-4.9-3.3-7.3a62.68 62.68 0 0 1-2.6-8.4c10.7-30.9 28.8-57 55.4-76.7 1.4-1.3-5.8.3-4.3-1 1.7-1.5 12.7-6 14.8-7 2.5-1.2-10.9-6.9-22.7-5.5-12.1 1.4-14.6 2.8-21.1 5.5 2.7-2.7 11.2-6.1 9.2-6.1-13 2-29.2 9.6-43 18.1a12.17 12.17 0 0 1 .8-4.3c-6.4 2.7-22.3 13.8-26.9 23.1a48.86 48.86 0 0 0 .3-5.4 86.24 86.24 0 0 0-13.2 13.8l-.2.2c-37.4-15.1-70.2-16-98.1-9.3-6.1-6.1-9.1-1.6-22.9-32.1-.9-1.8.7 1.8 0 0-2.3-5.9 1.4 7.9 0 0-23.3 18.4-53.9 39.2-68.6 53.9-.2.6 17.2-4.9 0 0-6 1.7-5.6 5.3-6.5 37.5-.2 2.4 0 5.2-.2 7.4-11.7 15-19.7 27.6-22.8 34.2-15.2 26.2-31.9 67-48.1 131.6a337.07 337.07 0 0 1 25.8-50.4C62 432.5 49 486.3 46.4 569.1a493.41 493.41 0 0 1 12.5-50.7 474.14 474.14 0 0 0 34.7 201.1 491.67 491.67 0 0 0 51 95.4A449.21 449.21 0 0 0 472.2 956c134.6 0 255.4-58.9 338.5-152.4z" fill="url(#c)"/><path d="M711.1 866.7c162.9-18.9 235-186.7 142.4-190-83.7-2.7-219.5 198.9-142.4 190z" fill="url(#d)"/><path d="M865.2 642.4C977.3 577.2 948 436.3 948 436.3s-43.2 50.2-72.6 130.3c-29 79.4-77.6 115.2-10.2 75.8z" fill="url(#e)"/><path d="M509.5 950.1C665.7 1000 800 876.9 717.2 835.8c-75.2-37.1-281.9 90.7-207.7 114.3z" fill="url(#f)"/><path d="M876.8 702.2c3.8-5.4 8.9-22.5 13.5-30.2 27.6-44.5 27.8-80 27.8-80.8 16.7-83.2 15.1-117.2 4.9-180-8.3-50.6-44.3-123.1-75.6-158-32.2-36-9.5-24.2-40.7-50.5-27.3-30.3-53.8-60.3-68.3-72.4C634.2 43.1 636.6 24.6 638.6 21.4a18 18 0 0 1-1.5 1.6c-1.2-4.9-2.1-9.1-2.1-9.1s-57 57-69 152c-7.8 62 15.4 126.7 49 168a380.72 380.72 0 0 0 59 58c25.4 36.5 39.4 81.5 39.4 129.9 0 121.2-98.3 219.5-219.7 219.5a219.34 219.34 0 0 1-49.1-5.5c-57.2-10.9-90.3-39.8-106.8-59.4-9.4-11.2-13.5-19.4-13.5-19.4 51.3 18.4 108 14.5 142.5-4.5 34.7-19.3 55.8-33.5 72.8-27.9 16.8 5.6 30.2-10.7 18.2-27.5-11.8-16.8-42.4-41-87.9-34.3-34.8 5.1-66.7 29.8-112.2 5.8-2.9-1.5-5.8-3.2-8.6-5-3-1.8 9.8 2.7 6.8.7-8.9-4.3-24.6-13.7-28.6-17.1-.7-.6 6.9 2.2 6.2 1.6-42.6-31.4-37.3-52.7-36-66 1.1-10.7 8.8-24.3 21.9-29.9 6.3 3.1 10.2 5.4 10.2 5.4s-2.7-4.9-4.1-7.5c.5-.2 1-.1 1.5-.3a244.16 244.16 0 0 1 22.6 11.6c7.8 4.9 10.3 9.4 10.3 9.4s2.1-1 .5-5.3c-.6-1.8-2.9-7.4-10.7-13.1h.5a84.57 84.57 0 0 1 13.1 8.2c2.2-7.1 6.1-14.6 5.3-27.9-.5-9.4-.3-11.8-2.1-15.4-1.6-3.1.9-4.3 3.8-1.1a31.24 31.24 0 0 0-2.4-7.3v-.2c3.6-11.1 75.5-40.1 80.8-43.5a70.59 70.59 0 0 0 21.2-20.6c4-5.7 7-13.7 7.7-25.9.2-5.5-1.4-9.8-20.5-14-11.4-2.5-29.1-4.9-56.4-7.5-19.9-1.8-31.6-14.7-38.2-26.6-1.2-2.6-2.4-4.9-3.7-7.2a48.71 48.71 0 0 1-2.8-8.4 158.72 158.72 0 0 1 61.3-76.1c1.6-1.3-6.4.3-4.8-1 1.9-1.5 14.1-5.9 16.4-6.9 2.8-1.2-12-6.8-25.2-5.5-13.4 1.3-16.2 2.8-23.3 5.5 3-2.6 12.4-6.1 10.2-6.1-14.4 2-32.3 9.5-47.6 18a10.36 10.36 0 0 1 .9-4.3c-7.1 2.7-24.6 13.7-29.7 22.9a48.86 48.86 0 0 0 .3-5.4 86.23 86.23 0 0 0-14.6 13.7l-.3.2c-41.5-14.7-77.9-15.7-108.6-9-6.7-6.1-17.6-15.2-32.9-45.4-1-1.8-1.6 3.8-2.4 2-6-13.8-9.6-36.4-9-52 0 0-12.3 5.6-22.5 29.1-1.9 4.2-3.1 6.5-4.3 8.9-.6.7 1.3-7.7 1-7.2-1.8 3-6.4 7.2-8.4 12.6-1.4 4-3.3 6.3-4.6 11.3l-.3.5c-.1-1.5.4-6.1 0-5.1a233.59 233.59 0 0 0-12.3 29.8c-5.5 18-11.9 42.6-12.9 74.6-.2 2.4 0 5.1-.2 7.3-13 14.8-21.9 27.4-25.2 33.9-16.8 26-35.3 66.4-53.3 130.5a320.84 320.84 0 0 1 28.5-50C17.3 416.3 2.9 469.6 0 551.8a433.63 433.63 0 0 1 13.9-50.2c-2.6 54.8 3.8 122.7 38.4 199.4 20.6 45.1 67.9 136.6 183.6 208.1s39.4 29.3 107 51.3c5 1.8 10.1 3.6 15.2 5.3-1.6-.7-3.2-1.3-4.7-2.1A483.28 483.28 0 0 0 492.2 984c175.2.1 226.8-70.2 226.8-70.2a2.22 2.22 0 0 0-.5.4 81.56 81.56 0 0 0 7.1-7.3c-27.6 26.1-90.7 27.8-114.3 25.9C651.5 921 678 911 729.5 891.3c6-2.2 12.2-4.8 18.5-7.6l2.1-.9c1.2-.6 2.5-1.1 3.7-1.7a348.42 348.42 0 0 0 70.3-44c51.7-41.3 62.9-81.6 68.8-108.1-.8 2.5-3.4 8.5-5.2 12.3-13.3 28.5-42.8 46-74.9 60.9a691.54 691.54 0 0 0 42.4-62.4c10.6-10.4 13.8-26.7 21.6-37.6z" fill="url(#g)"/><path d="M813.9 801c21.1-23.2 40-49.8 54.3-80 36.9-77.6 94-206.6 49-341.3C881.8 273.2 833 215 771.1 158.1 670.6 65.8 642.5 24.5 642.5 0c0 0-116.1 129.4-65.7 264.4s153.5 130 221.7 270.9c80.3 165.7-64.9 346.6-185 397.2 7.4-1.6 267-60.4 280.6-208.9-.4 2.7-6.3 43.8-80.2 77.4z" fill="url(#h)"/><path d="M477.6 319.4c.4-8.8-4.2-14.7-76.7-21.5-29.8-2.8-41.3-30.3-44.7-41.9-10.6 27.6-15 56.5-12.6 91.5 1.6 22.9 17 47.5 24.4 62 0 0 1.6-2.1 2.4-2.9 13.9-14.4 71.9-36.4 77.4-39.5 5.9-3.9 28.8-20.7 29.8-47.7z" fill="url(#i)"/><path d="M158.3 156.5c-1-1.8-1.6 3.8-2.4 2-6-13.8-9.6-36.2-8.7-52 0 0-12.3 5.6-22.5 29.1-1.9 4.2-3.1 6.5-4.3 8.9-.6.7 1.3-7.7 1-7.2-1.8 3-6.4 7.2-8.3 12.4-1.7 4.2-3.3 6.5-4.6 11.8-.4 1.4.4-6.3.1-5.4C84.7 201.7 80.2 271 82.7 268c50.5-53.9 108.3-66.7 108.3-66.7-6.1-4.5-19.5-17.6-32.7-44.8z" fill="url(#j)"/><path d="M349.8 720.1c-69.7-29.8-149-71.8-146-167.1C207.9 427.3 321 452.2 321 452.2c-4.3 1-15.7 9.2-19.7 17.8-4.3 10.8-12.1 35.3 11.6 60.9 37.1 40.2-76.2 95.4 98.7 199.6 4.3 2.4-41.1-1.5-61.8-10.4z" fill="url(#k)"/><path d="M325.1 657.5c49.4 17.2 107 14.2 141.5-4.9 23.1-12.9 52.7-33.4 70.9-28.4-15.8-6.2-27.7-9.2-42.1-9.9-2.4 0-5.4-.1-8-.3a139.47 139.47 0 0 0-15.8.9c-8.9.8-18.8 6.4-27.7 5.5-.5 0 8.7-3.8 8-3.6-4.8 1-9.9 1.2-15.4 1.9-3.5.4-6.4.8-9.9 1-103 8.7-190-55.8-190-55.8-7.5 25 33.1 74.3 88.5 93.6z" fill="url(#l)"/><path d="M813.7 801.6c104.2-102.3 156.9-226.6 134.6-366 0 0 8.9 71.5-24.8 144.6 16.2-71.4 18.1-160.1-25-252C841 205.6 746.5 141 710.4 114.1c-54.7-40.8-77.4-82.3-77.8-90.9-16.3 33.5-65.8 148.2-5.3 247 56.6 92.6 145.9 120 208.3 204.9 115.1 156.6-21.9 326.5-21.9 326.5z" fill="url(#m)"/><path d="M798.8 535.6C762.4 460.4 717 427.5 674 392c5 7 6.2 9.5 9 14 37.8 40.3 93.6 138.7 53.1 262.1-76.2 232.4-381.1 123-413.1 92.2 12.9 134.5 238 198.8 384.6 111.6C791 793 858.5 658.8 798.8 535.6z" fill="url(#n)"/></svg>