<?xml version="1.0" encoding="utf-8"?>
<!-- Generator: Adobe Illustrator 21.0.2, SVG Export Plug-In . SVG Version: 6.00 Build 0)  -->
<svg version="1.1" id="Слой_1" xmlns="http://www.w3.org/2000/svg" xmlns:xlink="http://www.w3.org/1999/xlink" x="0px" y="0px"
	 viewBox="0 0 35.1 35.1" style="enable-background:new 0 0 35.1 35.1;" xml:space="preserve">
<style type="text/css">
	.st0{fill:#00DE67;}
</style>
<title>envelope-o</title>
<path class="st0" d="M29.5,26V14c-0.3,0.4-0.7,0.7-1.1,1c-2.2,1.7-4.5,3.5-6.7,5.3c-1.2,1-2.6,2.2-4.3,2.2l0,0
	c-1.6,0-3.1-1.2-4.3-2.2c-2-1.8-4.3-3.6-6.5-5.3c-0.4-0.3-0.8-0.6-1.1-1v12c0,0.3,0.2,0.5,0.5,0.5h23C29.3,26.5,29.5,26.3,29.5,26
	L29.5,26z M29.5,9.6c0-0.4,0.1-1.1-0.5-1.1H6C5.7,8.5,5.5,8.7,5.5,9c0,1.8,0.9,3.3,2.3,4.4c2.1,1.6,4.2,3.3,6.3,5
	c0.8,0.7,2.3,2.1,3.4,2.1l0,0c1.1,0,2.6-1.4,3.4-2.1c2.1-1.7,4.2-3.3,6.3-5C28.2,12.6,29.5,10.9,29.5,9.6L29.5,9.6z M31.5,9v17
	c0,1.4-1.1,2.5-2.5,2.5H6c-1.4,0-2.5-1.1-2.5-2.5V9c0-1.4,1.1-2.5,2.5-2.5h23C30.4,6.5,31.5,7.6,31.5,9z"/>
</svg>
