<svg xmlns="http://www.w3.org/2000/svg" viewBox="0 0 100.5 100.6"><defs><linearGradient id="a" x1="89.22" y1="68.86" x2="90.22" y2="68.86" gradientTransform="matrix(0 97.4 97.4 0 -6665.42 -8688.47)" gradientUnits="userSpaceOnUse"><stop offset="0" stop-color="#ff1b2d"/><stop offset=".3" stop-color="#ff1b2d"/><stop offset=".61" stop-color="#ff1b2d"/><stop offset="1" stop-color="#a70014"/></linearGradient><linearGradient id="b" x1="89.09" y1="68.73" x2="90.09" y2="68.73" gradientTransform="matrix(0 86.14 86.14 0 -5853.23 -7666.87)" gradientUnits="userSpaceOnUse"><stop offset="0" stop-color="#9c0000"/><stop offset=".7" stop-color="#ff4b4b"/><stop offset="1" stop-color="#ff4b4b"/></linearGradient></defs><path d="M50.3 0A50.27 50.27 0 0 0 0 50.24v.06a50.25 50.25 0 0 0 47.9 50.2c.8 0 1.6.1 2.4.1a49.82 49.82 0 0 0 33.5-12.8A36.4 36.4 0 0 1 63.7 94c-12 0-22.7-5.9-29.9-15.3-5.6-6.6-9.2-16.3-9.4-27.1v-2.4c.3-10.9 3.8-20.6 9.4-27.1C41 12.7 51.7 6.8 63.7 6.8A35.91 35.91 0 0 1 83.8 13 49.93 49.93 0 0 0 50.4 0z" fill="url(#a)"/><path d="M33.7 22c4.6-5.4 10.6-8.7 17.1-8.7 14.6 0 26.5 16.6 26.5 37 0 20.5-11.9 37-26.5 37-6.5 0-12.5-3.3-17.1-8.7 7.2 9.4 17.9 15.3 29.9 15.3a35.91 35.91 0 0 0 20.1-6.2 50.17 50.17 0 0 0 16.8-37.5 50.17 50.17 0 0 0-16.8-37.5 36.79 36.79 0 0 0-20.1-6c-12 0-22.7 5.9-29.9 15.3" fill="url(#b)"/></svg>