<?xml version="1.0" encoding="utf-8"?>
<!-- Generator: Adobe Illustrator 21.0.2, SVG Export Plug-In . SVG Version: 6.00 Build 0)  -->
<svg version="1.1" id="Capa_1" xmlns="http://www.w3.org/2000/svg" xmlns:xlink="http://www.w3.org/1999/xlink" x="0px" y="0px"
	 viewBox="0 0 488.4 488.4" style="enable-background:new 0 0 488.4 488.4;" xml:space="preserve">
<style type="text/css">
	.st0{fill:#F14E4E;}
	.st1{fill:#E89595;}
</style>
<g>
	<path class="st0" d="M417.1,148.3v224.6c0,1.4-1.2,2.6-2.6,2.6h-331c-1.4,0-2.6-1.2-2.6-2.6V179.2H47.9v193.8
		c0,19.6,15.9,35.5,35.5,35.5h331c19.6,0,35.5-15.9,35.5-35.5V148.3c0-19.6-15.9-35.5-35.5-35.5H249.1v14.4c0,6.5-1.2,12.7-3.4,18.5
		h168.9C415.9,145.7,417.1,146.9,417.1,148.3z"/>
	<path class="st0" d="M475.5,422h-453c-7.1,0-12.9,5.8-12.9,12.9c0,18.7,15.2,33.9,33.9,33.9h411.1c18.7,0,33.9-15.2,33.9-33.9
		C488.4,427.7,482.6,422,475.5,422z"/>
	<path class="st1" d="M115.5,146.2l48.2,52.4c0.7,0.7,1.6,1.2,2.6,1.2c0.4,0,0.9-0.1,1.3-0.2c1.4-0.5,2.3-1.8,2.3-3.3v-50h27.2
		c10.5,0,19.1-8.5,19.1-19.1V38.7c0-10.5-8.5-19.1-19.1-19.1h-178C8.5,19.7,0,28.2,0,38.7v88.4c0,10.5,8.5,19.1,19.1,19.1H115.5z
		 M38.2,60.1h44.2c3.8,0,7,3.1,7,7s-3.1,7-7,7H38.2c-3.8,0-7-3.1-7-7C31.2,63.3,34.3,60.1,38.2,60.1z M38.2,90.7h87.6
		c3.8,0,7,3.1,7,7c0,3.8-3.1,7-7,7H38.2c-3.8,0-7-3.1-7-7C31.2,93.8,34.3,90.7,38.2,90.7z"/>
</g>
</svg>
