<svg xmlns="http://www.w3.org/2000/svg" viewBox="0 0 248 248"><defs><style>.c{fill:#f3f3f3}.d{fill:#fff}</style><linearGradient id="a" x1="211.65" y1="-3.86" x2="211.65" y2="-4.86" gradientTransform="matrix(248 0 0 248 -52364 1204)" gradientUnits="userSpaceOnUse"><stop offset=".25" stop-color="#dbdbda"/><stop offset="1" stop-color="#fff"/></linearGradient><radialGradient id="b" cx="211.65" cy="-4.53" r=".61" gradientTransform="translate(-48411.5 1138.9) scale(229.4)" gradientUnits="userSpaceOnUse"><stop offset="0" stop-color="#2abce1"/><stop offset=".11" stop-color="#2abbe1"/><stop offset="1" stop-color="#3375f8"/></radialGradient><linearGradient id="c" x1="211.64" y1="-4.53" x2="211.4" y2="-4.11" gradientTransform="translate(-48410.82 1138.8) scale(229.4)" gradientUnits="userSpaceOnUse"><stop offset="0" stop-opacity="0"/><stop offset="1"/></linearGradient></defs><circle cx="124" cy="124" r="124" fill="url(#a)"/><circle cx="124" cy="124" r="114.7" fill="url(#b)"/><path class="c" d="M124.19 37.2a1.41 1.41 0 0 1-1.45-1.36V15.6a1.46 1.46 0 0 1 2.91 0v20.24a1.47 1.47 0 0 1-1.45 1.36z"/><path class="d" d="M124.19 37.3a1.51 1.51 0 0 1-1.55-1.45V15.6a1.55 1.55 0 0 1 3.1 0v20.24a1.58 1.58 0 0 1-1.55 1.45zm0-23a1.37 1.37 0 0 0-1.36 1.26v20.28a1.31 1.31 0 0 0 1.36 1.26 1.37 1.37 0 0 0 1.36-1.26V15.6a1.45 1.45 0 0 0-1.36-1.26z"/><path class="c" d="M133.88 26.35a1.47 1.47 0 0 1-1.36-1.45l.68-9a1.41 1.41 0 0 1 1.55-1.26 1.47 1.47 0 0 1 1.36 1.45l-.68 9a1.41 1.41 0 0 1-1.55 1.26z"/><path class="d" d="M133.88 26.45a1.57 1.57 0 0 1-1.45-1.55l.68-9a1.52 1.52 0 0 1 1.65-1.36 1.57 1.57 0 0 1 1.45 1.55l-.68 9a1.46 1.46 0 0 1-1.53 1.37zm.87-11.72a1.29 1.29 0 0 0-1.36 1.16l-.68 9a1.36 1.36 0 0 0 1.29 1.36 1.29 1.29 0 0 0 1.36-1.16l.68-9a1.45 1.45 0 0 0-1.26-1.36z"/><path class="c" d="M141.15 38.94A1.49 1.49 0 0 1 140 37.3l4-19.86a1.35 1.35 0 0 1 1.57-1.09h.08a1.49 1.49 0 0 1 1.12 1.65l-4 19.86a1.45 1.45 0 0 1-1.65 1.07z"/><path class="d" d="M141.15 39a1.58 1.58 0 0 1-1.26-1.74l4-19.86a1.56 1.56 0 0 1 1.84-1.16A1.58 1.58 0 0 1 147 18l-4 19.86a1.64 1.64 0 0 1-1.85 1.14zm4.55-22.57a1.39 1.39 0 0 0-1.55 1l-4 19.86a1.37 1.37 0 0 0 1.07 1.55 1.39 1.39 0 0 0 1.55-1l4-19.86a1.4 1.4 0 0 0-1.07-1.55z"/><path class="c" d="M152.77 30.23a1.44 1.44 0 0 1-1.07-1.73l2.42-8.72a1.39 1.39 0 0 1 1.68-1h.06a1.44 1.44 0 0 1 1.07 1.73l-2.42 8.72a1.39 1.39 0 0 1-1.68 1z"/><path class="d" d="M152.77 30.32a1.47 1.47 0 0 1-1.09-1.77v-.07l2.42-8.72a1.55 1.55 0 0 1 1.9-1.06 1.47 1.47 0 0 1 1 1.82l-2.42 8.72a1.5 1.5 0 0 1-1.83 1.07zM156 19a1.35 1.35 0 0 0-1.65.87l-2.42 8.72a1.23 1.23 0 0 0 .85 1.52h.15a1.35 1.35 0 0 0 1.65-.87l2.42-8.69a1.39 1.39 0 0 0-1-1.55z"/><path class="c" d="M157.52 43.88a1.39 1.39 0 0 1-.8-1.8l7.75-18.7a1.34 1.34 0 0 1 1.75-.72h.09a1.39 1.39 0 0 1 .79 1.8l-7.75 18.7a1.34 1.34 0 0 1-1.75.72h-.09z"/><path class="d" d="M157.52 44a1.5 1.5 0 0 1-.87-1.93l7.75-18.7a1.54 1.54 0 0 1 2-.78 1.5 1.5 0 0 1 .87 1.93l-7.75 18.7a1.52 1.52 0 0 1-2 .78zm8.82-21.22a1.31 1.31 0 0 0-1.73.66l-7.75 18.7a1.26 1.26 0 0 0 .72 1.63h.06a1.31 1.31 0 0 0 1.73-.66l7.75-18.7a1.38 1.38 0 0 0-.77-1.65z"/><path class="c" d="M170.6 37.68a1.46 1.46 0 0 1-.68-1.84l4.07-8a1.42 1.42 0 0 1 1.92-.59 1.46 1.46 0 0 1 .68 1.84l-4.07 8a1.42 1.42 0 0 1-1.92.59z"/><path class="d" d="M170.6 37.78a1.48 1.48 0 0 1-.69-2l4.07-8a1.52 1.52 0 1 1 2.71 1.36l-4.07 8a1.48 1.48 0 0 1-2 .69zm5.33-10.56a1.28 1.28 0 0 0-1.72.55l-4.07 8a1.43 1.43 0 0 0 .58 1.74 1.28 1.28 0 0 0 1.72-.55l4.07-8a1.43 1.43 0 0 0-.58-1.74z"/><path class="c" d="M172.53 52a1.34 1.34 0 0 1-.46-1.84l.07-.1 11.24-16.76a1.39 1.39 0 0 1 1.92-.4 1.34 1.34 0 0 1 .46 1.84l-.07.1-11.22 16.79a1.31 1.31 0 0 1-1.79.49l-.15-.1z"/><path class="d" d="M172.53 52.12a1.67 1.67 0 0 1-.48-2.13l11.24-16.76a1.53 1.53 0 0 1 2.13-.39 1.67 1.67 0 0 1 .48 2.16l-11.23 16.73a1.55 1.55 0 0 1-2.13.39zM185.32 33a1.36 1.36 0 0 0-1.84.29l-11.24 16.79a1.26 1.26 0 0 0 .39 1.74 1.36 1.36 0 0 0 1.84-.29l11.24-16.66a1.38 1.38 0 0 0-.39-1.84z"/><path class="c" d="M186.68 48.44a1.4 1.4 0 0 1-.29-1.94l5.61-7.07a1.38 1.38 0 0 1 1.94-.19 1.4 1.4 0 0 1 .29 1.94l-5.62 7.07a1.38 1.38 0 0 1-1.94.19z"/><path class="d" d="M186.58 48.53a1.53 1.53 0 0 1-.29-2.13l5.62-7.07a1.44 1.44 0 0 1 2-.28l.11.09a1.53 1.53 0 0 1 .29 2.13l-5.62 7.07a1.44 1.44 0 0 1-2 .28zm7.27-9.2a1.27 1.27 0 0 0-1.79.13v.06l-5.62 7.07a1.37 1.37 0 0 0 .29 1.84 1.27 1.27 0 0 0 1.79-.13v-.06l5.62-7.07a1.36 1.36 0 0 0-.29-1.84z"/><path class="c" d="M185.71 63a1.29 1.29 0 0 1-.12-1.82l.12-.12L200 46.79a1.39 1.39 0 1 1 2 1.94L187.74 63a1.4 1.4 0 0 1-2 0z"/><path class="d" d="M185.61 63.07a1.52 1.52 0 0 1 0-2.13l14.34-14.24a1.51 1.51 0 0 1 2.28 2l-.15.15-14.34 14.22a1.52 1.52 0 0 1-2.13 0zM202 46.79a1.35 1.35 0 0 0-1.84 0L185.81 61a1.3 1.3 0 0 0 1.84 1.84L202 48.63a1.35 1.35 0 0 0 0-1.84z"/><path class="c" d="M200.24 62.19a1.37 1.37 0 0 1 .09-1.94l6.88-5.81a1.41 1.41 0 0 1 1.84 2.13l-6.88 5.81a1.38 1.38 0 0 1-1.93-.19z"/><path class="d" d="M200.14 62.29a1.51 1.51 0 0 1 .1-2.13l6.88-5.81a1.45 1.45 0 0 1 2 .09l.08.1a1.51 1.51 0 0 1-.1 2.13l-6.88 5.81a1.45 1.45 0 0 1-2-.09zm8.91-7.65a1.36 1.36 0 0 0-1.84-.19l-6.88 5.81a1.34 1.34 0 0 0 1.74 2l6.93-5.78a1.26 1.26 0 0 0 .16-1.77l-.06-.07z"/><path class="c" d="M196.37 76.14a1.31 1.31 0 0 1 .24-1.84l.15-.1L213.61 63a1.48 1.48 0 0 1 1.94.39 1.31 1.31 0 0 1-.24 1.84l-.15.1-16.86 11.2a1.52 1.52 0 0 1-1.94-.39z"/><path class="d" d="M196.27 76.14a1.55 1.55 0 0 1 .39-2.13l16.86-11.24a1.49 1.49 0 0 1 2.07.39l.06.09a1.55 1.55 0 0 1-.39 2.13L198.4 76.63a1.49 1.49 0 0 1-2.07-.39l-.06-.09zm19.18-12.69a1.26 1.26 0 0 0-1.74-.39L196.85 74.3a1.33 1.33 0 0 0 1.45 2.23l16.86-11.24a1.37 1.37 0 0 0 .29-1.84z"/><path class="c" d="M210.8 78.18a1.41 1.41 0 0 1 .47-1.94l7.85-4.46a1.44 1.44 0 0 1 1.94.58 1.41 1.41 0 0 1-.47 1.94l-7.85 4.46a1.44 1.44 0 0 1-1.94-.58z"/><path class="d" d="M210.7 78.28a1.5 1.5 0 0 1 .48-2l7.82-4.5a1.56 1.56 0 0 1 2 .58 1.5 1.5 0 0 1-.48 2l-7.85 4.46a1.56 1.56 0 0 1-2-.58zm10.3-5.82a1.21 1.21 0 0 0-1.62-.55l-.12.07-7.85 4.46a1.39 1.39 0 0 0-.48 1.74 1.21 1.21 0 0 0 1.62.55l.12-.07 7.85-4.46a1.33 1.33 0 0 0 .48-1.74z"/><path class="c" d="M204.31 91.06a1.36 1.36 0 0 1 .68-1.8h.1l18.7-7.75a1.47 1.47 0 0 1 1.84.77A1.36 1.36 0 0 1 225 84h-.1l-18.7 7.75a1.39 1.39 0 0 1-1.82-.74z"/><path class="d" d="M204.21 91.16a1.61 1.61 0 0 1 .78-2l18.7-7.75a1.5 1.5 0 0 1 1.94.86 1.61 1.61 0 0 1-.77 2L206.15 92a1.5 1.5 0 0 1-1.94-.86zm21.22-8.82a1.38 1.38 0 0 0-1.65-.78l-18.7 7.75a1.31 1.31 0 0 0-.69 1.72 1.38 1.38 0 0 0 1.65.78l18.7-7.75a1.31 1.31 0 0 0 .69-1.72z"/><path class="c" d="M218 95.91a1.4 1.4 0 0 1 .8-1.81h.07l8.53-2.81a1.37 1.37 0 0 1 1.74.86 1.4 1.4 0 0 1-.8 1.81h-.07l-8.53 2.81A1.33 1.33 0 0 1 218 96z"/><path class="d" d="M217.87 96a1.48 1.48 0 0 1 .88-1.9h.12l8.53-2.81a1.56 1.56 0 0 1 1.94 1 1.48 1.48 0 0 1-.88 1.9h-.12L219.81 97a1.65 1.65 0 0 1-1.94-1zm11.24-3.68a1.35 1.35 0 0 0-1.65-.87l-8.52 2.81a1.3 1.3 0 0 0-.77 1.65 1.35 1.35 0 0 0 1.65.87l8.51-2.78a1.34 1.34 0 0 0 .77-1.65z"/><path class="c" d="M209.25 107.43a1.31 1.31 0 0 1 .91-1.62h.16l19.86-3.87a1.41 1.41 0 0 1 1.64 1.13 1.31 1.31 0 0 1-.91 1.62h-.16l-19.85 3.91a1.43 1.43 0 0 1-1.65-1.16z"/><path class="d" d="M209.06 107.43a1.56 1.56 0 0 1 1.16-1.84l19.86-3.87a1.5 1.5 0 0 1 1.73 1.22 1.56 1.56 0 0 1-1.16 1.84l-19.85 3.92a1.5 1.5 0 0 1-1.73-1.22zm22.57-4.36a1.3 1.3 0 0 0-1.45-1.07l-19.86 3.88a1.26 1.26 0 0 0-1 1.46v.09a1.3 1.3 0 0 0 1.45 1.07l19.86-3.87a1.3 1.3 0 0 0 1-1.54z"/><path class="c" d="M221.65 114.89a1.34 1.34 0 0 1 1.1-1.54h.06l8.91-1.07a1.41 1.41 0 0 1 1.55 1.26 1.34 1.34 0 0 1-1.1 1.54h-.06l-8.91 1.07a1.47 1.47 0 0 1-1.55-1.26z"/><path class="d" d="M221.55 114.89a1.54 1.54 0 0 1 1.26-1.74l8.91-1.07a1.51 1.51 0 0 1 1.65 1.36 1.54 1.54 0 0 1-1.26 1.74l-8.91 1.07a1.51 1.51 0 0 1-1.65-1.36zm11.72-1.36a1.37 1.37 0 0 0-1.45-1.16l-8.91 1.07a1.3 1.3 0 0 0-1.07 1.45 1.37 1.37 0 0 0 1.45 1.16l8.91-1.05a1.3 1.3 0 0 0 1.07-1.47z"/><path class="c" d="M210.8 124.29a1.41 1.41 0 0 1 1.36-1.45h20.24a1.46 1.46 0 0 1 0 2.91h-20.24a1.41 1.41 0 0 1-1.36-1.45z"/><path class="d" d="M210.7 124.29a1.51 1.51 0 0 1 1.45-1.55h20.25a1.55 1.55 0 0 1 0 3.1h-20.24a1.51 1.51 0 0 1-1.45-1.55zm23 .1a1.37 1.37 0 0 0-1.3-1.39h-20.24a1.31 1.31 0 0 0-1.26 1.36 1.37 1.37 0 0 0 1.26 1.36h20.24a1.45 1.45 0 0 0 1.26-1.36z"/><path class="c" d="M221.55 134.07a1.47 1.47 0 0 1 1.45-1.36l9 .68a1.41 1.41 0 0 1 1.26 1.55 1.47 1.47 0 0 1-1.45 1.36l-9-.68a1.57 1.57 0 0 1-1.26-1.55z"/><path class="d" d="M221.46 134.07a1.57 1.57 0 0 1 1.55-1.45l9 .68a1.52 1.52 0 0 1 1.36 1.65 1.57 1.57 0 0 1-1.55 1.45l-9-.68a1.67 1.67 0 0 1-1.36-1.65zm11.82.87a1.23 1.23 0 0 0-1.09-1.35h-.07l-9-.68a1.36 1.36 0 0 0-1.36 1.26 1.23 1.23 0 0 0 1.09 1.35h.07l9 .68a1.45 1.45 0 0 0 1.36-1.26z"/><path class="c" d="M209.06 141.15a1.49 1.49 0 0 1 1.64-1.15l19.86 4a1.35 1.35 0 0 1 1.09 1.57v.08a1.49 1.49 0 0 1-1.65 1.16l-19.86-4a1.45 1.45 0 0 1-1.07-1.65z"/><path class="d" d="M209 141.15a1.58 1.58 0 0 1 1.74-1.26l19.86 4a1.56 1.56 0 0 1 1.16 1.84A1.58 1.58 0 0 1 230 147l-19.86-4a1.64 1.64 0 0 1-1.16-1.84zm22.57 4.55a1.39 1.39 0 0 0-1-1.55l-19.86-4a1.37 1.37 0 0 0-1.55 1.07 1.39 1.39 0 0 0 1 1.55l19.86 4a1.4 1.4 0 0 0 1.55-1.07z"/><path class="c" d="M217.77 152.77a1.44 1.44 0 0 1 1.73-1.07l8.72 2.42a1.39 1.39 0 0 1 1 1.68v.06a1.44 1.44 0 0 1-1.73 1.07l-8.72-2.42a1.39 1.39 0 0 1-1-1.68z"/><path class="d" d="M217.68 152.77a1.47 1.47 0 0 1 1.77-1.09h.07l8.72 2.42a1.55 1.55 0 0 1 1.06 1.9 1.47 1.47 0 0 1-1.77 1.09h-.07l-8.72-2.42a1.5 1.5 0 0 1-1.07-1.83zM229 156a1.35 1.35 0 0 0-.87-1.65l-8.72-2.42a1.23 1.23 0 0 0-1.55 1 1.35 1.35 0 0 0 .87 1.65l8.72 2.42a1.39 1.39 0 0 0 1.55-1z"/><path class="c" d="M204.12 157.42a1.39 1.39 0 0 1 1.8-.79l18.7 7.75a1.47 1.47 0 0 1 .78 1.84 1.39 1.39 0 0 1-1.8.79l-18.7-7.75a1.39 1.39 0 0 1-.79-1.8z"/><path class="d" d="M204 157.32a1.5 1.5 0 0 1 1.93-.87l18.7 7.75a1.54 1.54 0 0 1 .78 2 1.5 1.5 0 0 1-1.93.87l-18.7-7.75a1.61 1.61 0 0 1-.77-2zm21.22 8.82a1.31 1.31 0 0 0-.66-1.73l-18.7-7.75a1.26 1.26 0 0 0-1.63.72v.05a1.31 1.31 0 0 0 .66 1.73l18.7 7.75a1.3 1.3 0 0 0 1.63-.77z"/><path class="c" d="M210.41 170.5a1.46 1.46 0 0 1 1.84-.68l8 4.07a1.39 1.39 0 0 1 .62 1.87v.07a1.46 1.46 0 0 1-1.84.68l-8-4.07a1.44 1.44 0 0 1-.62-1.94z"/><path class="d" d="M210.32 170.4a1.48 1.48 0 0 1 2-.69l8 4.07a1.52 1.52 0 0 1-1.32 2.72l-8-4.07a1.46 1.46 0 0 1-.71-1.94v-.06zm10.46 5.33a1.28 1.28 0 0 0-.55-1.72l-8-4.07a1.43 1.43 0 0 0-1.74.58 1.28 1.28 0 0 0 .55 1.72l8 4.07a1.28 1.28 0 0 0 1.72-.55z"/><path class="c" d="M196.17 172.34a1.33 1.33 0 0 1 1.82-.47l.12.08L215 183.19a1.39 1.39 0 0 1 .4 1.92 1.33 1.33 0 0 1-1.82.47l-.12-.08-16.86-11.24a1.34 1.34 0 0 1-.46-1.84l.07-.1z"/><path class="d" d="M196.07 172.24a1.67 1.67 0 0 1 2.13-.48L215.06 183a1.53 1.53 0 0 1 .39 2.13 1.67 1.67 0 0 1-2.13.48l-16.86-11.24a1.47 1.47 0 0 1-.46-2l.07-.1zM215.16 185a1.36 1.36 0 0 0-.29-1.84L198 172a1.26 1.26 0 0 0-1.74.39 1.36 1.36 0 0 0 .29 1.84l16.86 11.24a1.26 1.26 0 0 0 1.74-.39z"/><path class="c" d="M199.76 186.39a1.4 1.4 0 0 1 1.94-.29l7.07 5.52a1.38 1.38 0 0 1 .19 1.94 1.4 1.4 0 0 1-1.94.29l-7.07-5.52a1.38 1.38 0 0 1-.19-1.94z"/><path class="d" d="M199.66 186.29a1.53 1.53 0 0 1 2.13-.29l7.07 5.52a1.52 1.52 0 1 1-1.84 2.42l-7.02-5.52a1.53 1.53 0 0 1-.29-2.13zm9.3 7.27a1.27 1.27 0 0 0-.13-1.79h-.06l-7.07-5.52a1.37 1.37 0 0 0-1.84.29 1.27 1.27 0 0 0 .13 1.79h.06l7.07 5.52a1.37 1.37 0 0 0 1.88-.29z"/><path class="c" d="M185.32 185.42a1.29 1.29 0 0 1 1.82-.12l.12.12 14.34 14.24a1.37 1.37 0 0 1 0 1.94 1.29 1.29 0 0 1-1.82.12l-.12-.12-14.34-14.24a1.47 1.47 0 0 1 0-1.94z"/><path class="d" d="M185.32 185.32a1.52 1.52 0 0 1 2.13 0l14.34 14.24a1.51 1.51 0 0 1-2.13 2.13l-14.34-14.24a1.37 1.37 0 0 1 0-2.13zm16.28 16.18a1.35 1.35 0 0 0 0-1.84l-14.34-14.24a1.3 1.3 0 0 0-1.84 1.84l14.34 14.24a1.19 1.19 0 0 0 1.84 0z"/><path class="c" d="M186.19 199.85a1.37 1.37 0 0 1 1.94.09l5.91 6.78a1.41 1.41 0 0 1-2.13 1.84l-5.91-6.77a1.39 1.39 0 0 1 .19-1.94z"/><path class="d" d="M186.1 199.85a1.52 1.52 0 0 1 2.13.1l5.91 6.78a1.45 1.45 0 0 1-.09 2l-.1.08a1.52 1.52 0 0 1-2.13-.1L185.9 202a1.52 1.52 0 0 1 .19-2.13zm7.75 8.82a1.36 1.36 0 0 0 .19-1.84l-5.91-6.83a1.34 1.34 0 0 0-2 1.74l5.91 6.78a1.26 1.26 0 0 0 1.77.16l.07-.06z"/><path class="c" d="M172.24 196.17a1.31 1.31 0 0 1 1.84.24l.1.15 11.24 16.76a1.48 1.48 0 0 1-.39 1.94 1.31 1.31 0 0 1-1.84-.24l-.1-.15-11.24-16.76a1.48 1.48 0 0 1 .39-1.94z"/><path class="d" d="M172.24 196.07a1.55 1.55 0 0 1 2.13.39l11.24 16.76a1.49 1.49 0 0 1-.39 2.07l-.09.06A1.55 1.55 0 0 1 183 215l-11.24-16.76a1.47 1.47 0 0 1 .35-2l.13-.08zM185 215.16a1.26 1.26 0 0 0 .39-1.74l-11.24-16.76a1.34 1.34 0 0 0-1.84-.29 1.26 1.26 0 0 0-.39 1.74l11.24 16.76a1.47 1.47 0 0 0 1.84.29z"/><path class="c" d="M170.21 210.51a1.41 1.41 0 0 1 1.94.47l4.46 7.85a1.44 1.44 0 0 1-.58 1.94 1.41 1.41 0 0 1-1.94-.47l-4.46-7.85a1.54 1.54 0 0 1 .58-1.94z"/><path class="d" d="M170.21 210.41a1.5 1.5 0 0 1 2 .48l4.46 7.85a1.47 1.47 0 0 1-.58 2 1.5 1.5 0 0 1-2-.48l-4.46-7.85a1.49 1.49 0 0 1 .58-2zm5.79 10.27a1.29 1.29 0 0 0 .48-1.74l-4.48-7.85a1.39 1.39 0 0 0-1.74-.48 1.29 1.29 0 0 0-.48 1.74l4.46 7.85a1.27 1.27 0 0 0 1.73.49z"/><path class="c" d="M157.32 204.12a1.39 1.39 0 0 1 1.84.68l7.84 18.7a1.47 1.47 0 0 1-.77 1.84 1.43 1.43 0 0 1-1.84-.68L156.55 206a1.47 1.47 0 0 1 .77-1.84z"/><path class="d" d="M157.32 204a1.61 1.61 0 0 1 2 .77l7.85 18.7a1.5 1.5 0 0 1-.86 1.94 1.61 1.61 0 0 1-2-.78L156.45 206a1.58 1.58 0 0 1 .87-1.94zm8.82 21.22a1.24 1.24 0 0 0 .7-1.61L159 204.89a1.31 1.31 0 0 0-1.72-.69 1.24 1.24 0 0 0-.7 1.61l7.85 18.7a1.35 1.35 0 0 0 1.74.68z"/><path class="c" d="M152.58 217.87a1.4 1.4 0 0 1 1.81.8v.07l2.81 8.53a1.37 1.37 0 0 1-.86 1.74 1.4 1.4 0 0 1-1.81-.8v-.07l-2.81-8.52a1.33 1.33 0 0 1 .78-1.71h.09z"/><path class="d" d="M152.48 217.77a1.5 1.5 0 0 1 1.94.86l2.81 8.52a1.56 1.56 0 0 1-1 1.94 1.5 1.5 0 0 1-1.94-.86l-2.81-8.53a1.65 1.65 0 0 1 1-1.94zm3.78 11.14a1.35 1.35 0 0 0 .87-1.65l-2.81-8.53a1.3 1.3 0 0 0-1.65-.77 1.35 1.35 0 0 0-.87 1.65l2.81 8.52a1.22 1.22 0 0 0 1.52.82h.13z"/><path class="c" d="M141.15 209.06a1.31 1.31 0 0 1 1.65 1.07l4.06 19.87a1.41 1.41 0 0 1-1.13 1.64 1.31 1.31 0 0 1-1.65-1.07L140 210.7a1.55 1.55 0 0 1 1.16-1.65z"/><path class="d" d="M141.15 209a1.56 1.56 0 0 1 1.84 1.16l4.07 19.84a1.46 1.46 0 0 1-1.12 1.73 1.56 1.56 0 0 1-1.84-1.16L140 210.7a1.44 1.44 0 0 1 1.08-1.72h.08zm4.55 22.57a1.34 1.34 0 0 0 1.07-1.55l-4.07-19.86a1.26 1.26 0 0 0-1.46-1h-.09a1.34 1.34 0 0 0-1.07 1.55l4.07 19.86a1.39 1.39 0 0 0 1.55 1z"/><path class="c" d="M133.78 221.65a1.49 1.49 0 0 1 1.65 1.16l1.16 8.91a1.41 1.41 0 0 1-1.26 1.55 1.49 1.49 0 0 1-1.65-1.16l-1.16-8.91a1.41 1.41 0 0 1 1.26-1.55z"/><path class="d" d="M133.78 221.55a1.54 1.54 0 0 1 1.74 1.26l1.16 8.91a1.51 1.51 0 0 1-1.36 1.65 1.54 1.54 0 0 1-1.74-1.26l-1.16-8.91a1.51 1.51 0 0 1 1.36-1.65zm1.45 11.63a1.37 1.37 0 0 0 1.16-1.45l-1.16-8.91a1.3 1.3 0 0 0-1.45-1.07 1.37 1.37 0 0 0-1.16 1.45l1.16 8.91a1.3 1.3 0 0 0 1.45 1.07z"/><path class="c" d="M123.81 210.8a1.41 1.41 0 0 1 1.45 1.36v20.24a1.46 1.46 0 0 1-2.91 0v-20.24a1.47 1.47 0 0 1 1.45-1.36z"/><path class="d" d="M123.81 210.7a1.51 1.51 0 0 1 1.55 1.45v20.25a1.55 1.55 0 0 1-3.1 0v-20.24a1.58 1.58 0 0 1 1.55-1.45zm0 23a1.37 1.37 0 0 0 1.36-1.26v-20.28a1.31 1.31 0 0 0-1.36-1.26 1.37 1.37 0 0 0-1.36 1.26v20.24a1.45 1.45 0 0 0 1.36 1.26z"/><path class="c" d="M114.12 221.65a1.47 1.47 0 0 1 1.36 1.45l-.68 9a1.41 1.41 0 0 1-1.55 1.26 1.47 1.47 0 0 1-1.36-1.45l.68-9a1.41 1.41 0 0 1 1.55-1.26z"/><path class="d" d="M114.12 221.55a1.57 1.57 0 0 1 1.45 1.55l-.68 9a1.52 1.52 0 0 1-1.65 1.36 1.57 1.57 0 0 1-1.45-1.55l.68-9a1.46 1.46 0 0 1 1.54-1.37zm-.87 11.72a1.29 1.29 0 0 0 1.36-1.16l.68-9a1.36 1.36 0 0 0-1.26-1.36 1.29 1.29 0 0 0-1.36 1.16l-.68 9a1.45 1.45 0 0 0 1.26 1.36z"/><path class="c" d="M106.85 209.06a1.49 1.49 0 0 1 1.15 1.64l-4 19.86a1.35 1.35 0 0 1-1.57 1.09h-.08a1.49 1.49 0 0 1-1.16-1.65l4-19.86a1.45 1.45 0 0 1 1.65-1.07z"/><path class="d" d="M106.85 209a1.58 1.58 0 0 1 1.26 1.74l-4 19.86a1.56 1.56 0 0 1-1.84 1.16A1.58 1.58 0 0 1 101 230l4-19.86a1.64 1.64 0 0 1 1.84-1.16zm-4.55 22.57a1.39 1.39 0 0 0 1.55-1l4-19.86a1.37 1.37 0 0 0-1.07-1.55 1.39 1.39 0 0 0-1.55 1l-4 19.86a1.4 1.4 0 0 0 1.07 1.55z"/><path class="c" d="M95.23 217.77a1.44 1.44 0 0 1 1.07 1.73l-2.42 8.72a1.39 1.39 0 0 1-1.68 1h-.06a1.44 1.44 0 0 1-1.07-1.73l2.42-8.72a1.39 1.39 0 0 1 1.68-1z"/><path class="d" d="M95.23 217.68a1.47 1.47 0 0 1 1.09 1.77v.07l-2.42 8.72a1.55 1.55 0 0 1-1.9 1.06 1.47 1.47 0 0 1-1-1.82l2.42-8.72a1.5 1.5 0 0 1 1.83-1.07zM92 229a1.35 1.35 0 0 0 1.65-.87l2.42-8.72a1.23 1.23 0 0 0-.85-1.52h-.15a1.35 1.35 0 0 0-1.65.87L91 227.45a1.39 1.39 0 0 0 1 1.55z"/><path class="c" d="M90.48 204.12a1.39 1.39 0 0 1 .8 1.8l-7.75 18.7a1.34 1.34 0 0 1-1.75.72h-.09a1.51 1.51 0 0 1-.78-1.84l7.75-18.7a1.34 1.34 0 0 1 1.75-.72z"/><path class="d" d="M90.48 204a1.5 1.5 0 0 1 .87 1.93l-7.75 18.7a1.54 1.54 0 0 1-2 .78 1.5 1.5 0 0 1-.87-1.93l7.75-18.7a1.52 1.52 0 0 1 2-.77zm-8.82 21.22a1.31 1.31 0 0 0 1.73-.66l7.75-18.7a1.26 1.26 0 0 0-.72-1.63h-.06a1.31 1.31 0 0 0-1.73.66l-7.75 18.7a1.38 1.38 0 0 0 .78 1.63z"/><path class="c" d="M77.4 210.32a1.46 1.46 0 0 1 .68 1.84l-4.07 8a1.42 1.42 0 0 1-1.92.59 1.46 1.46 0 0 1-.68-1.84l4.07-8a1.42 1.42 0 0 1 1.92-.59z"/><path class="d" d="M77.4 210.22a1.48 1.48 0 0 1 .69 2l-4.07 8a1.52 1.52 0 1 1-2.71-1.36l4.07-8a1.48 1.48 0 0 1 2-.69zm-5.33 10.56a1.28 1.28 0 0 0 1.72-.55l4.07-8a1.43 1.43 0 0 0-.58-1.74 1.28 1.28 0 0 0-1.72.55l-4.07 8a1.43 1.43 0 0 0 .58 1.74z"/><path class="c" d="M75.47 196a1.34 1.34 0 0 1 .46 1.84l-.07.1-11.24 16.74a1.39 1.39 0 0 1-1.92.4 1.34 1.34 0 0 1-.46-1.84l.07-.1 11.24-16.76a1.31 1.31 0 0 1 1.79-.49l.15.1z"/><path class="d" d="M75.47 195.88A1.67 1.67 0 0 1 76 198l-11.29 16.77a1.53 1.53 0 0 1-2.13.39 1.67 1.67 0 0 1-.48-2.16l11.24-16.76a1.55 1.55 0 0 1 2.13-.39zM62.68 215a1.36 1.36 0 0 0 1.84-.29L75.76 198a1.26 1.26 0 0 0-.39-1.74 1.36 1.36 0 0 0-1.84.29l-11.24 16.58a1.38 1.38 0 0 0 .39 1.84z"/><path class="c" d="M61.32 199.56a1.4 1.4 0 0 1 .29 1.94L56 208.57a1.38 1.38 0 0 1-1.94.19 1.4 1.4 0 0 1-.29-1.94l5.62-7.07a1.38 1.38 0 0 1 1.94-.19z"/><path class="d" d="M61.42 199.47a1.53 1.53 0 0 1 .29 2.13l-5.62 7.07a1.44 1.44 0 0 1-2 .28l-.11-.09a1.53 1.53 0 0 1-.29-2.13l5.62-7.07a1.44 1.44 0 0 1 2-.28zm-7.27 9.2a1.27 1.27 0 0 0 1.79-.13v-.06l5.62-7.07a1.37 1.37 0 0 0-.29-1.84 1.27 1.27 0 0 0-1.79.13v.06l-5.62 7.07a1.36 1.36 0 0 0 .29 1.84z"/><path class="c" d="M62.29 185a1.29 1.29 0 0 1 .12 1.82l-.12.12L48 201.21a1.39 1.39 0 1 1-2-1.94L60.26 185a1.4 1.4 0 0 1 2 0z"/><path class="d" d="M62.39 184.93a1.52 1.52 0 0 1 0 2.13L48 201.31a1.51 1.51 0 0 1-2.13-2.13l14.34-14.24a1.52 1.52 0 0 1 2.13 0zM46 201.21a1.35 1.35 0 0 0 1.84 0L62.19 187a1.3 1.3 0 1 0-1.84-1.84L46 199.37a1.35 1.35 0 0 0 0 1.84z"/><path class="c" d="M47.76 185.81a1.37 1.37 0 0 1-.09 1.94l-6.88 5.81a1.41 1.41 0 0 1-1.84-2.13l6.88-5.81a1.38 1.38 0 0 1 1.93.19z"/><path class="d" d="M47.86 185.71a1.51 1.51 0 0 1-.1 2.13l-6.88 5.81a1.45 1.45 0 0 1-2-.09l-.08-.1a1.51 1.51 0 0 1 .1-2.13l6.88-5.81a1.45 1.45 0 0 1 2 .09zM39 193.36a1.36 1.36 0 0 0 1.84.19l6.88-5.81a1.34 1.34 0 0 0-1.74-2L39 191.52a1.26 1.26 0 0 0-.16 1.77l.06.07z"/><path class="c" d="M51.63 171.86a1.31 1.31 0 0 1-.24 1.84l-.15.1L34.39 185a1.48 1.48 0 0 1-1.94-.39 1.31 1.31 0 0 1 .24-1.84l.15-.1 16.86-11.2a1.52 1.52 0 0 1 1.94.39z"/><path class="d" d="M51.73 171.86a1.55 1.55 0 0 1-.39 2.13l-16.85 11.24a1.49 1.49 0 0 1-2.07-.39l-.06-.09a1.55 1.55 0 0 1 .39-2.13l16.85-11.25a1.49 1.49 0 0 1 2.07.39l.06.09zm-19.18 12.69a1.26 1.26 0 0 0 1.74.39l16.86-11.24a1.33 1.33 0 0 0-1.45-2.23l-16.86 11.24a1.37 1.37 0 0 0-.29 1.84z"/><path class="c" d="M37.2 169.82a1.41 1.41 0 0 1-.47 1.94l-7.85 4.46a1.44 1.44 0 0 1-1.94-.58 1.41 1.41 0 0 1 .47-1.94l7.85-4.46a1.44 1.44 0 0 1 1.94.58z"/><path class="d" d="M37.3 169.73a1.5 1.5 0 0 1-.48 2L29 176.22a1.56 1.56 0 0 1-2-.58 1.5 1.5 0 0 1 .48-2l7.85-4.46a1.56 1.56 0 0 1 2 .58zM27 175.54a1.21 1.21 0 0 0 1.62.55l.12-.07 7.85-4.46a1.39 1.39 0 0 0 .48-1.74 1.21 1.21 0 0 0-1.62-.55l-.12.07-7.85 4.46a1.33 1.33 0 0 0-.48 1.74z"/><path class="c" d="M43.69 156.94a1.36 1.36 0 0 1-.67 1.8h-.1l-18.7 7.75a1.47 1.47 0 0 1-1.84-.77 1.36 1.36 0 0 1 .67-1.8h.1l18.7-7.75a1.39 1.39 0 0 1 1.82.73z"/><path class="d" d="M43.79 156.84a1.61 1.61 0 0 1-.77 2l-18.7 7.75a1.5 1.5 0 0 1-1.94-.86 1.61 1.61 0 0 1 .77-2l18.7-7.73a1.5 1.5 0 0 1 1.94.86zm-21.22 8.82a1.38 1.38 0 0 0 1.65.77l18.7-7.75a1.31 1.31 0 0 0 .69-1.72 1.38 1.38 0 0 0-1.65-.77l-18.7 7.75a1.31 1.31 0 0 0-.69 1.72z"/><path class="c" d="M30 152.09a1.4 1.4 0 0 1-.8 1.81h-.07l-8.52 2.81a1.37 1.37 0 0 1-1.74-.86 1.4 1.4 0 0 1 .8-1.81h.07l8.53-2.81A1.33 1.33 0 0 1 30 152v.09z"/><path class="d" d="M30.13 152a1.48 1.48 0 0 1-.88 1.9h-.12l-8.52 2.81a1.56 1.56 0 0 1-1.94-1 1.48 1.48 0 0 1 .88-1.9h.12l8.52-2.81a1.65 1.65 0 0 1 1.94 1zm-11.24 3.68a1.35 1.35 0 0 0 1.65.87l8.52-2.81a1.3 1.3 0 0 0 .77-1.65 1.35 1.35 0 0 0-1.65-.87L19.67 154a1.34 1.34 0 0 0-.77 1.65z"/><path class="c" d="M38.75 140.57a1.31 1.31 0 0 1-.91 1.62h-.16l-19.86 3.91a1.41 1.41 0 0 1-1.64-1.1 1.31 1.31 0 0 1 .91-1.62h.16l19.85-3.98a1.43 1.43 0 0 1 1.65 1.16z"/><path class="d" d="M38.94 140.57a1.56 1.56 0 0 1-1.16 1.84l-19.86 3.88a1.5 1.5 0 0 1-1.73-1.23V145a1.56 1.56 0 0 1 1.16-1.84l19.86-3.87a1.5 1.5 0 0 1 1.73 1.22v.06zm-22.57 4.36a1.3 1.3 0 0 0 1.45 1.07l19.86-3.87a1.26 1.26 0 0 0 1-1.46v-.09a1.3 1.3 0 0 0-1.45-1.07l-19.86 3.88a1.3 1.3 0 0 0-1 1.54z"/><path class="c" d="M26.35 133.11a1.34 1.34 0 0 1-1.1 1.54h-.06l-8.91 1.07a1.41 1.41 0 0 1-1.55-1.26 1.34 1.34 0 0 1 1.1-1.54h.06l8.91-1.07a1.47 1.47 0 0 1 1.55 1.26z"/><path class="d" d="M26.45 133.11a1.54 1.54 0 0 1-1.26 1.74l-8.91 1.07a1.51 1.51 0 0 1-1.65-1.36 1.54 1.54 0 0 1 1.26-1.74l8.91-1.07a1.51 1.51 0 0 1 1.65 1.36zm-11.72 1.36a1.37 1.37 0 0 0 1.45 1.16l8.91-1.07a1.3 1.3 0 0 0 1.07-1.45 1.37 1.37 0 0 0-1.45-1.16L15.79 133a1.3 1.3 0 0 0-1.07 1.45z"/><path class="c" d="M37.2 123.71a1.41 1.41 0 0 1-1.36 1.45H15.6a1.46 1.46 0 0 1 0-2.91h20.24a1.41 1.41 0 0 1 1.36 1.45z"/><path class="d" d="M37.3 123.71a1.51 1.51 0 0 1-1.45 1.55H15.6a1.55 1.55 0 0 1 0-3.1h20.24a1.51 1.51 0 0 1 1.45 1.55zm-23-.1a1.37 1.37 0 0 0 1.3 1.39h20.24a1.31 1.31 0 0 0 1.26-1.36 1.37 1.37 0 0 0-1.26-1.36H15.6a1.45 1.45 0 0 0-1.26 1.36z"/><path d="M26.45 113.93a1.47 1.47 0 0 1-1.45 1.35l-9-.68a1.41 1.41 0 0 1-1.26-1.55 1.47 1.47 0 0 1 1.45-1.36l9 .68a1.57 1.57 0 0 1 1.26 1.55z" fill="#e2e2e2"/><path class="d" d="M26.54 113.93a1.57 1.57 0 0 1-1.54 1.45l-9-.68a1.52 1.52 0 0 1-1.36-1.7 1.57 1.57 0 0 1 1.55-1.45l9 .68a1.67 1.67 0 0 1 1.36 1.65zm-11.82-.87a1.23 1.23 0 0 0 1.09 1.35h.07l9 .68a1.36 1.36 0 0 0 1.36-1.26 1.23 1.23 0 0 0-1.09-1.35h-.07l-9-.68a1.45 1.45 0 0 0-1.36 1.26z"/><path class="c" d="M38.94 106.85A1.49 1.49 0 0 1 37.3 108l-19.86-4.07a1.35 1.35 0 0 1-1.09-1.57v-.08a1.49 1.49 0 0 1 1.65-1.14l19.86 4a1.62 1.62 0 0 1 1.07 1.74z"/><path class="d" d="M39 106.85a1.58 1.58 0 0 1-1.74 1.26l-19.86-4a1.56 1.56 0 0 1-1.16-1.84A1.58 1.58 0 0 1 18 101l19.86 4a1.64 1.64 0 0 1 1.14 1.85zm-22.53-4.55a1.39 1.39 0 0 0 1 1.55l19.86 4a1.37 1.37 0 0 0 1.55-1.07 1.39 1.39 0 0 0-1-1.55l-19.86-4a1.4 1.4 0 0 0-1.55 1.07z"/><path class="c" d="M30.23 95.23a1.44 1.44 0 0 1-1.73 1.07l-8.72-2.42a1.39 1.39 0 0 1-1-1.68v-.06a1.44 1.44 0 0 1 1.73-1.07l8.72 2.42a1.39 1.39 0 0 1 1 1.68z"/><path class="d" d="M30.32 95.23a1.47 1.47 0 0 1-1.77 1.09h-.07l-8.72-2.42A1.55 1.55 0 0 1 18.7 92a1.47 1.47 0 0 1 1.82-1l8.72 2.42a1.5 1.5 0 0 1 1.07 1.83zM19 92a1.35 1.35 0 0 0 .87 1.65l8.72 2.42a1.23 1.23 0 0 0 1.55-1 1.35 1.35 0 0 0-.87-1.65L20.55 91A1.39 1.39 0 0 0 19 92z"/><path class="c" d="M43.88 90.58a1.39 1.39 0 0 1-1.8.8L23.35 83.6a1.47 1.47 0 0 1-.78-1.84 1.39 1.39 0 0 1 1.81-.76l18.7 7.75a1.39 1.39 0 0 1 .8 1.8z"/><path class="d" d="M44 90.68a1.5 1.5 0 0 1-1.93.87L23.35 83.8a1.54 1.54 0 0 1-.78-2 1.5 1.5 0 0 1 1.93-.87l18.7 7.75a1.61 1.61 0 0 1 .78 2zm-21.23-8.82a1.31 1.31 0 0 0 .66 1.73l18.7 7.75a1.26 1.26 0 0 0 1.63-.72v-.06a1.31 1.31 0 0 0-.66-1.73l-18.7-7.75a1.3 1.3 0 0 0-1.63.78z"/><path class="c" d="M37.59 77.5a1.46 1.46 0 0 1-1.84.68l-8-4.07a1.39 1.39 0 0 1-.62-1.87v-.07a1.46 1.46 0 0 1 1.87-.68l8 4.07a1.44 1.44 0 0 1 .58 1.94z"/><path class="d" d="M37.68 77.6a1.48 1.48 0 0 1-2 .69l-8-4.07A1.52 1.52 0 1 1 29 71.49l8 4.07a1.46 1.46 0 0 1 .71 1.94v.06zm-10.46-5.33a1.28 1.28 0 0 0 .56 1.73l8 4.07a1.43 1.43 0 0 0 1.74-.58 1.28 1.28 0 0 0-.52-1.73l-8.14-4.07a1.2 1.2 0 0 0-1.62.51v.07z"/><path class="c" d="M51.83 75.66a1.33 1.33 0 0 1-1.82.47l-.12-.08-16.76-11.14a1.39 1.39 0 0 1-.39-1.91 1.31 1.31 0 0 1 1.79-.49l.15.1 16.86 11.21a1.27 1.27 0 0 1 .35 1.76z"/><path class="d" d="M51.92 75.76a1.67 1.67 0 0 1-2.13.48L33 65a1.53 1.53 0 0 1-.39-2.13 1.67 1.67 0 0 1 2.13-.48l16.8 11.24a1.47 1.47 0 0 1 .46 2l-.07.1zM32.84 63a1.36 1.36 0 0 0 .29 1.84L50 76a1.26 1.26 0 0 0 1.74-.39 1.36 1.36 0 0 0-.29-1.84L34.58 62.58a1.26 1.26 0 0 0-1.74.39z"/><path class="c" d="M48.24 61.61a1.4 1.4 0 0 1-1.94.29l-7.07-5.52a1.38 1.38 0 0 1-.23-1.94 1.4 1.4 0 0 1 2-.33l7 5.52a1.38 1.38 0 0 1 .19 1.94z"/><path class="d" d="M48.34 61.71a1.53 1.53 0 0 1-2.13.29l-7.07-5.52A1.53 1.53 0 1 1 41 54.06l7 5.52a1.53 1.53 0 0 1 .29 2.13zM39 54.44a1.27 1.27 0 0 0 .13 1.79h.06l7.07 5.52a1.37 1.37 0 0 0 1.84-.29 1.27 1.27 0 0 0-.05-1.8l-7.07-5.52a1.37 1.37 0 0 0-1.84.29z"/><path class="c" d="M62.68 62.58a1.29 1.29 0 0 1-1.82.12l-.12-.12-14.43-14.24a1.37 1.37 0 0 1 0-1.94 1.29 1.29 0 0 1 1.82-.12l.12.12 14.33 14.24a1.38 1.38 0 0 1 .1 1.94z"/><path class="d" d="M62.68 62.68a1.52 1.52 0 0 1-2.13 0L46.21 48.44a1.51 1.51 0 0 1 2-2.28l.15.15 14.32 14.24a1.37 1.37 0 0 1 0 2.13zM46.4 46.5a1.35 1.35 0 0 0 0 1.84l14.34 14.24a1.3 1.3 0 0 0 1.84-1.84L48.24 46.4a1.27 1.27 0 0 0-1.8.05z"/><path class="c" d="M61.81 48.15a1.37 1.37 0 0 1-1.94-.09L54 41.27a1.41 1.41 0 0 1 2.13-1.84L62 46.21a1.39 1.39 0 0 1-.19 1.94z"/><path class="d" d="M61.9 48.15a1.52 1.52 0 0 1-2.13-.1l-5.91-6.78a1.45 1.45 0 0 1 .09-2l.1-.08a1.52 1.52 0 0 1 2.13.1L62.1 46a1.52 1.52 0 0 1-.19 2.13zm-7.75-8.82a1.36 1.36 0 0 0-.15 1.84L59.87 48a1.34 1.34 0 0 0 2-1.74L56 39.43a1.26 1.26 0 0 0-1.77-.16l-.07.06z"/><path class="c" d="M75.76 51.83a1.31 1.31 0 0 1-1.84-.24l-.1-.15-11.34-16.76a1.48 1.48 0 0 1 .39-1.94 1.31 1.31 0 0 1 1.84.24l.1.15L76 49.89a1.37 1.37 0 0 1-.26 1.92z"/><path class="d" d="M75.76 51.92a1.55 1.55 0 0 1-2.13-.39L62.39 34.78a1.49 1.49 0 0 1 .39-2.07l.09-.06A1.55 1.55 0 0 1 65 33l11.24 16.79a1.47 1.47 0 0 1-.35 2zM63 32.84a1.26 1.26 0 0 0-.39 1.74l11.21 16.76a1.34 1.34 0 0 0 1.84.29 1.26 1.26 0 0 0 .34-1.74L64.81 33.23a1.38 1.38 0 0 0-1.81-.39z"/><path class="c" d="M77.79 37.49a1.41 1.41 0 0 1-1.94-.49l-4.45-7.84a1.44 1.44 0 0 1 .6-1.94 1.41 1.41 0 0 1 1.94.47l4.46 7.85a1.54 1.54 0 0 1-.58 1.94z"/><path class="d" d="M77.79 37.59a1.5 1.5 0 0 1-2-.48l-4.49-7.85a1.47 1.47 0 0 1 .58-2 1.5 1.5 0 0 1 2 .48l4.46 7.85a1.49 1.49 0 0 1-.58 2zM72 27.32a1.29 1.29 0 0 0-.48 1.74L76 36.91a1.39 1.39 0 0 0 1.74.48 1.29 1.29 0 0 0 .48-1.74l-4.5-7.85a1.27 1.27 0 0 0-1.72-.48z"/><path class="c" d="M90.68 43.88a1.39 1.39 0 0 1-1.84-.68L81 24.51a1.47 1.47 0 0 1 .77-1.84 1.39 1.39 0 0 1 1.84.68L91.45 42a1.47 1.47 0 0 1-.77 1.84z"/><path class="d" d="M90.68 44a1.61 1.61 0 0 1-2-.78l-7.85-18.7a1.5 1.5 0 0 1 .86-1.94 1.61 1.61 0 0 1 2 .78L91.55 42a1.58 1.58 0 0 1-.87 2zm-8.82-21.23a1.24 1.24 0 0 0-.7 1.61L89 43.11a1.31 1.31 0 0 0 1.72.69 1.24 1.24 0 0 0 .7-1.61L83.6 23.44a1.35 1.35 0 0 0-1.74-.68z"/><path class="c" d="M95.42 30.13a1.4 1.4 0 0 1-1.81-.8v-.07l-2.81-8.53a1.37 1.37 0 0 1 .84-1.73 1.52 1.52 0 0 1 1.84.87l2.81 8.52a1.33 1.33 0 0 1-.78 1.71z"/><path class="d" d="M95.52 30.23a1.5 1.5 0 0 1-1.94-.86l-2.81-8.52a1.56 1.56 0 0 1 1-1.94 1.5 1.5 0 0 1 1.94.86l2.81 8.53a1.65 1.65 0 0 1-1 1.94zm-3.78-11.15a1.35 1.35 0 0 0-.87 1.65l2.81 8.53a1.3 1.3 0 0 0 1.65.77 1.35 1.35 0 0 0 .87-1.65l-2.81-8.52a1.22 1.22 0 0 0-1.52-.86h-.13z"/><path class="c" d="M106.85 38.94a1.31 1.31 0 0 1-1.65-1.07L101.14 18a1.41 1.41 0 0 1 1.13-1.64 1.31 1.31 0 0 1 1.73 1.06l4 19.88a1.55 1.55 0 0 1-1.16 1.7z"/><path class="d" d="M106.85 39a1.56 1.56 0 0 1-1.85-1.12L100.94 18a1.46 1.46 0 0 1 1.12-1.73 1.56 1.56 0 0 1 1.84 1.16L108 37.3a1.44 1.44 0 0 1-1.13 1.7zm-4.55-22.53a1.34 1.34 0 0 0-1.07 1.53l4.07 19.86a1.26 1.26 0 0 0 1.46 1h.09a1.34 1.34 0 0 0 1.07-1.55l-4.07-19.86a1.39 1.39 0 0 0-1.55-1z"/><path class="c" d="M114.22 26.35a1.49 1.49 0 0 1-1.65-1.16l-1.16-8.91a1.41 1.41 0 0 1 1.26-1.55 1.49 1.49 0 0 1 1.65 1.16l1.16 8.91a1.41 1.41 0 0 1-1.26 1.55z"/><path class="d" d="M114.22 26.45a1.54 1.54 0 0 1-1.74-1.26l-1.16-8.91a1.51 1.51 0 0 1 1.36-1.65 1.54 1.54 0 0 1 1.74 1.26l1.16 8.91a1.51 1.51 0 0 1-1.36 1.65zm-1.45-11.62a1.37 1.37 0 0 0-1.16 1.45l1.16 8.91a1.3 1.3 0 0 0 1.45 1.07 1.37 1.37 0 0 0 1.16-1.45l-1.16-8.91a1.3 1.3 0 0 0-1.45-1.07z"/><circle cx="124.68" cy="123.9" r="114.7" fill-opacity=".2" fill="url(#c)"/><path style="isolation:isolate" opacity=".05" d="M204.12 51.15l-92.52 59.29h-.1v.09l-.09.1-57.74 95.23 84.86-68.3.1-.09v-.1l65.49-86.22z"/><path d="M202.37 45.63l-91.45 65L138 137.56l64.32-91.93" fill="#cd151e"/><path d="M111 110.44l13.66 13.47 77.69-78.27z" fill="#fa5153"/><path d="M111 110.44l27.13 26.93-91.45 65z" fill="#acacac"/><path d="M46.69 202.37l78-78.47L111 110.44z" fill="#eee"/></svg>