<?xml version="1.0" encoding="utf-8"?>
<!-- Generator: Adobe Illustrator 21.0.2, SVG Export Plug-In . SVG Version: 6.00 Build 0)  -->
<svg version="1.1" id="Слой_1" xmlns="http://www.w3.org/2000/svg" xmlns:xlink="http://www.w3.org/1999/xlink" x="0px" y="0px"
	 viewBox="0 0 24 22" style="enable-background:new 0 0 24 22;" xml:space="preserve">
<style type="text/css">
	.st0{fill:#FE9700;}
</style>
<path class="st0" d="M20,8.4C20,3.5,15.3,0,10,0C4.7,0,0,3.5,0,8.4c0,1.7,0.6,3.4,1.7,4.7c0,1.5-0.9,3.7-1.7,5.3
	c2.2-0.4,5.3-1.3,6.6-2.1C14.4,18.1,20,13.4,20,8.4z M6.1,10.6C5.7,10.8,5.3,11,4.6,11c-0.5,0-1-0.1-1.4-0.3l0.2-0.9
	c0.4,0.2,0.8,0.3,1.3,0.3c0.2,0,0.4,0,0.6-0.1c0.3-0.2,0.3-0.5,0-0.7C5.2,9.1,5,9,4.7,8.9C3.7,8.6,3.3,8.1,3.3,7.5
	c0-0.4,0.2-0.8,0.5-1C4.1,6.2,4.6,6,5.1,6C5.6,6,6,6.1,6.4,6.3L6.2,7.1C5.8,7,5.5,6.9,5.1,6.9C4.9,6.9,4.7,7,4.6,7
	c-0.3,0.2-0.2,0.5,0,0.7C4.7,7.8,4.9,7.9,5.3,8c0.4,0.2,0.8,0.4,1,0.6c0.2,0.2,0.3,0.5,0.3,0.9C6.6,9.9,6.4,10.3,6.1,10.6z
	 M11.6,10.9C11.5,9,11.5,7.7,11.5,7h0c-0.1,0.5-0.5,1.8-1.2,3.8H9.5C9.1,9.4,8.5,7,8.5,7h0l-0.2,3.9h-1l0.3-4.8h1.5l0.8,3.3l1-3.3
	h1.5l0.3,4.8H11.6z M16.2,10.6c-0.3,0.3-0.8,0.4-1.5,0.4c-0.5,0-1-0.1-1.4-0.3l0.2-1c0.4,0.2,0.8,0.3,1.3,0.3c0.2,0,0.4,0,0.6-0.1
	c0.3-0.2,0.3-0.5,0-0.7c-0.1-0.1-0.3-0.2-0.6-0.3c-0.9-0.3-1.4-0.8-1.4-1.5c0-0.4,0.2-0.8,0.5-1.1C14.3,6.1,14.7,6,15.3,6
	c0.5,0,0.9,0.1,1.3,0.3l0,0l-0.3,0.9C16,7,15.7,6.9,15.3,6.9c-0.2,0-0.4,0-0.5,0.1c-0.2,0.2-0.2,0.4,0,0.6c0.1,0.1,0.4,0.2,0.8,0.3
	c0.4,0.2,0.8,0.4,1,0.6c0.2,0.2,0.3,0.5,0.3,0.9C16.8,9.9,16.6,10.3,16.2,10.6z M22.9,18.5c0,1,0.6,2.4,1.1,3.5
	c-1.4-0.3-3.4-0.8-4.4-1.4c-3.3,0.8-6.1-0.2-7.6-2.1c0.6-0.1,1.2-0.2,1.7-0.4c1.8,1.6,4,1.4,6.1,0.9c0.7,0.4,0.8,0.5,1.7,0.8
	c-0.2-0.8-0.2-1.1-0.1-1.9c1.8-2.1,1.2-4.1-0.5-5.4c0.2-0.5,0.4-0.9,0.6-1.4C24.4,13.1,24.6,16.4,22.9,18.5z"/>
</svg>
