<svg id="Слой_1" data-name="Слой 1" xmlns="http://www.w3.org/2000/svg" viewBox="0 0 400 400">
	<title>телеграм белый на синемМонтажная область 1</title>
	<circle cx="205.96" cy="190" r="169.5" fill="none" stroke="#009cc9" stroke-miterlimit="10" stroke-width="20px" />
	<path fill="#fff" d="M253.22,281.57a8.08,8.08,0,0,1-4.53-1.39l-51.3-34.8-27.52,19.8a8.08,8.08,0,0,1-12.53-4.49l-13.82-52.36L94.15,189.45a8.08,8.08,0,0,1-.1-15L281.76,99.71a8.08,8.08,0,0,1,2.66-.63,8.43,8.43,0,0,1,1,0,8.05,8.05,0,0,1,5.17,2.29c.15.15.29.3.43.45a8,8,0,0,1,2,4.73,8.2,8.2,0,0,1,0,1.29,7.85,7.85,0,0,1-.13.92L261.15,275a8.08,8.08,0,0,1-7.93,6.56Zm-51.33-52.66,45.7,31,24.65-129.36-89,85.68,18.47,12.53Zm-38-6.89L170,245.21l13.18-9.49L165.88,224A8.05,8.05,0,0,1,163.84,222Zm-44.58-40.27,33.9,13a8.08,8.08,0,0,1,4.92,5.48l4.3,16.29a8.08,8.08,0,0,1,2.43-5l84.85-81.64Z"/>
</svg>