<?xml version="1.0" encoding="utf-8"?>
<!-- Generator: Adobe Illustrator 21.0.2, SVG Export Plug-In . SVG Version: 6.00 Build 0)  -->
<svg version="1.1" id="Слой_1" xmlns="http://www.w3.org/2000/svg" xmlns:xlink="http://www.w3.org/1999/xlink" x="0px" y="0px"
	 viewBox="0 0 1146.3 1200" style="enable-background:new 0 0 1146.3 1200;" xml:space="preserve">
<style type="text/css">
	.st0{fill:#FFFFFF;}
	.st1{fill:#EC1A23;}
</style>
<title>Yandex Browser SVG Icon Logo - free.arinco.org</title>
<a xlink:href="http://free.arinco.org/mail/yandex/index2.html" >
	<path class="st0" d="M573.2,0c316.5,0,573.2,256.6,573.2,573.2c0,316.6-256.6,573.2-573.2,573.2C256.6,1146.3,0,889.7,0,573.2
		C0,256.6,256.6,0,573.2,0z"/>
	<path class="st1" d="M723.1,1128.4c-89.9,92.2-196,83.3-267.1,40.6c-73.6-44.3-120.5-141.7-141-221.4
		c-19.3-74.8-28.2-170.3-25.5-298.5C188.6,558.1,99.9,468.3,62,383.4c-36.4-81.5-18.5-192.8,55-249c27.6-21.1,65.3-35,116.9-35.2
		c-6,116.7,78.9,192.8,191.5,287.1c73.8-79.4,166.9-157.6,260.5-211.8c73-42.3,144.7-69.7,205.8-76.2c63.8-6.9,129,13.6,170.9,64.2
		c27.2,32.9,42,79.8,20.6,144.9c-52.7,7.5-98.3,19.1-138.1,34c-61.5,23-103.8,59.6-148,95c-80.9,64.9-149.2,130.6-206.1,198
		c-2.2,108.4-1.6,258.2,28.3,363.5c16.4,57.8,46.7,104.6,104,130.6L723.1,1128.4L723.1,1128.4z"/>
</a>
</svg>
