<?xml version="1.0" standalone="no"?>
<!DOCTYPE svg PUBLIC "-//W3C//DTD SVG 1.1//EN" "http://www.w3.org/Graphics/SVG/1.1/DTD/svg11.dtd" >
<svg xmlns="http://www.w3.org/2000/svg">
<metadata>Generated by IcoMoon</metadata>
<defs>
<font id="opt" horiz-adv-x="1024">
<font-face units-per-em="1024" ascent="960" descent="-64" />
<missing-glyph horiz-adv-x="1024" />
<glyph unicode="&#x20;" horiz-adv-x="512" d="" />
<glyph unicode="&#xe900;" glyph-name="down-arrow" d="M520.191 252.853l-477.457 459.412-42.734-44.43 521.876-502.147 502.124 521.899-44.419 42.723z" />
<glyph unicode="&#xe901;" glyph-name="cross" d="M853.333 959.999l170.666-170.666-853.332-853.332-170.666 170.666zM170.666 959.999l853.332-853.332-170.666-170.666-853.332 853.332z" />
<glyph unicode="&#xe902;" glyph-name="plus" d="M409.6 960h204.8v-1024h-204.8v1024zM0 550.4h1024v-204.8h-1024v204.8z" />
<glyph unicode="&#xe903;" horiz-adv-x="1092" d="M233.919 960h624.123v-236.21h233.664v-605.288h-210.247v-182.503h-670.958v182.503h-210.502v605.288h233.919v236.21z" />
<glyph unicode="&#xe904;" horiz-adv-x="1092" d="M233.664 960v-236.21h-233.664v-605.542h210.502v-182.248h670.958v182.248h210.502v605.542h-233.919v236.21zM303.916 889.748h485.146v-165.958h-483.619zM279.99 4.979v350.751h531.217v-349.478zM1021.2 188.5h-139.74v167.23h73.561v69.743h-818.335v-70.252h73.816v-167.23h-140.25v466.565h951.457z" />
<glyph unicode="&#xe905;" horiz-adv-x="1092" d="M761.064 568.523h175.376v-70.252h-175.376v70.252z" />
<glyph unicode="&#xe906;" horiz-adv-x="1092" d="M361.187 270.206h228.065v-70.252h-228.065v70.252z" />
<glyph unicode="&#xe907;" horiz-adv-x="1092" d="M361.187 153.374h368.314v-70.252h-368.314v70.252z" />
<glyph unicode="&#xe908;" glyph-name="programm" d="M45.559 38.692c-25.162 0-45.559 20.398-45.559 45.559v0 818.435c0 25.162 20.398 45.559 45.559 45.559v0h818.435c25.162 0 45.559-20.398 45.559-45.559v0-255.134c0-25.162-20.398-45.559-45.559-45.559s-45.559 20.398-45.559 45.559v0 209.575h-727.315v-727.498h212.308c25.162 0 45.559-20.398 45.559-45.559s-20.398-45.559-45.559-45.559v0zM250.032 652.654c-25.162 0-45.559 20.398-45.559 45.559s20.398 45.559 45.559 45.559v0h409.308c25.162 0 45.559-20.398 45.559-45.559s-20.398-45.559-45.559-45.559v0zM250.032 448c-25.162 0-45.559 20.398-45.559 45.559s20.398 45.559 45.559 45.559v0h153.445c25.162 0 45.559-20.398 45.559-45.559s-20.398-45.559-45.559-45.559v0zM768.318 224.393c0-25.162-20.398-45.559-45.559-45.559s-45.559 20.398-45.559 45.559v0 130.666c0 25.162 20.398 45.559 45.559 45.559s45.559-20.398 45.559-45.559v0zM250.032 243.346c-25.162 0-45.559 20.398-45.559 45.559s20.398 45.559 45.559 45.559v0h51.209c25.162 0 45.559-20.398 45.559-45.559s-20.398-45.559-45.559-45.559v0zM742.623 178.834c-25.162 0-45.559 20.398-45.559 45.559s20.398 45.559 45.559 45.559v0h73.989c25.162 0 45.559-20.398 45.559-45.559s-20.398-45.559-45.559-45.559v0zM728.955-52.246c-0.217-0.001-0.473-0.001-0.729-0.001-163.352 0-295.773 132.422-295.773 295.773s132.422 295.773 295.773 295.773c163.352 0 295.773-132.422 295.773-295.773 0-0.064 0-0.127 0-0.192v0.010c-0.206-162.976-132.113-295.074-294.994-295.591h-0.050zM728.955 448.183c-0.162 0-0.355 0.001-0.546 0.001-113.027 0-204.654-91.627-204.654-204.654s91.627-204.654 204.654-204.654c112.963 0 204.55 91.522 204.654 204.462v0.010c-0.103 112.831-91.335 204.319-204.058 204.836h-0.049z" />
<glyph unicode="&#xe909;" glyph-name="speaker" d="M551.825-58.28h-551.825v144.459c0.334 84.318 68.764 152.542 153.129 152.542 0.104 0 0.207 0 0.311 0h245.844c0.483 0.006 1.055 0.009 1.626 0.009 83.353 0 150.925-67.572 150.925-150.925 0-0.571-0.003-1.142-0.010-1.712l0.001 0.086zM73.332 15.199h405.015v70.981c0.013 0.53 0.021 1.156 0.021 1.783 0 42.772-34.674 77.447-77.447 77.447-0.627 0-1.253-0.008-1.876-0.022l0.092 0.002h-245.713c-43.796-0.322-79.272-35.489-80.091-79.133l-0.001-0.076zM275.397 286.923c-93.986 0-170.176 76.191-170.176 170.176s76.191 170.176 170.176 170.176c93.986 0 170.176-76.191 170.176-170.176 0-0.104 0-0.206 0-0.31v0.016c-0.581-93.692-76.461-169.469-170.136-169.882h-0.040zM275.397 553.945c-53.486 0-96.844-43.359-96.844-96.844s43.359-96.844 96.844-96.844c53.486 0 96.844 43.359 96.844 96.844v0c-0.25 53.326-43.495 96.468-96.836 96.552h-0.008zM544.624 380.975l39.384 155.774c-28.427 27.569-49.777 62.275-61.166 101.234l-0.41 1.637c-4.477 17.883-7.045 38.413-7.045 59.543 0 140.897 114.22 255.117 255.117 255.117 115.885 0 213.724-77.267 244.809-183.093l0.454-1.803c5.229-19.295 8.232-41.449 8.232-64.303 0-117.407-79.263-216.3-187.196-246.089l-1.792-0.423zM769.468 885.921c-100.13-0.032-181.29-81.211-181.29-181.346 0-16.405 2.178-32.3 6.261-47.413l-0.293 1.27c9.799-33.412 28.931-61.535 54.365-82.205l0.303-0.239 17.194-14.695-19.546-77.006 169.882 45.263c78.249 21.199 134.863 91.575 134.863 175.174 0 100.073-81.125 181.198-181.198 181.198-0.192 0-0.383 0-0.574-0.001h0.029z" />
<glyph unicode="&#xe90a;" glyph-name="stairs" d="M5.879-64l-5.878 94.87 187.284 11.608 14.212 229.102 229.176 14.212 14.137 229.176 229.25 14.212 14.212 229.25 229.25 14.212 11.608 187.359 94.87-5.878-16.891-271.142-229.176-14.212-14.212-229.176-229.25-14.212-14.137-229.176-229.176-14.212-14.212-229.176-271.068-16.816z" />
<glyph unicode="&#xe90b;" glyph-name="telegram" d="M1023.999 918.053l-146.297-876.692c-1.861-11.094-8.573-20.32-17.835-25.563l-0.179-0.094c-4.878-2.751-10.71-4.371-16.921-4.371-0.192 0-0.384 0.002-0.576 0.005h0.030c-4.932 0.072-9.612 1.069-13.903 2.822l0.254-0.092-258.75 105.356-138.655-168.132c-6.25-8.013-15.907-13.118-26.756-13.118-0.381 0-0.762 0.007-1.139 0.018l0.056-0.002c-1.888-0.407-4.056-0.64-6.278-0.64s-4.391 0.233-6.48 0.676l0.204-0.036c-14.136 5.274-24.018 18.658-24.018 34.351 0 0.013 0 0.028 0 0.041v-0.002 201.431l491.297 604.842-608.116-528.417-225.451 92.254c-14.357 4.962-24.485 18.362-24.485 34.129 0 13.010 6.895 24.409 17.231 30.742l0.158 0.090 949.84 545.886c5.105 3.087 11.271 4.913 17.865 4.913 0.053 0 0.105 0 0.158 0h-0.008c20.178-0.028 36.524-16.393 36.524-36.575 0-2.121-0.181-4.2-0.527-6.221l0.031 0.217z" />
<glyph unicode="&#xe90c;" glyph-name="vk" d="M562.359 163.403c10.803 1.175 20.427 5.478 28.146 11.971l-0.080-0.065c5.315 7.021 8.513 15.9 8.513 25.525 0 0.295-0.003 0.59-0.009 0.883l0.001-0.044s0 80.37 36.996 92.278 85.048-77.819 136.927-112.263c16.47-12.917 37.493-20.714 60.336-20.714 2.711 0 5.397 0.11 8.052 0.325l-0.349-0.023h136.502s71.44 4.253 37.421 59.533c-27.82 45.682-61.748 84.486-101.246 116.724l-0.812 0.642c-85.048 77.819-73.992 65.487 28.917 200.288 63.786 82.071 88.45 132.25 80.37 152.661s-53.155 16.159-53.155 16.159h-153.937c-1.274 0.161-2.749 0.253-4.246 0.253-5.731 0-11.147-1.35-15.947-3.748l0.206 0.094c-5.784-4.162-10.4-9.595-13.497-15.909l-0.111-0.25c-18.211-46.403-37.347-85.453-59.193-122.723l2.21 4.081c-68.038-113.964-95.254-119.918-106.311-113.114-26.365 16.585-21.262 65.062-21.262 102.058 0 110.562 17.009 156.914-33.169 170.096-16.804 3.756-36.105 5.909-55.909 5.909-5.015 0-9.997-0.138-14.944-0.41l0.688 0.031c-9.152 0.874-19.789 1.374-30.542 1.374-34.596 0-67.986-5.164-99.44-14.764l2.41 0.633c-17.86-8.505-31.042-27.216-24.238-29.767 18.133-1.587 34.059-9.938 45.449-22.481l0.051-0.058c10.182-19.188 16.161-41.951 16.161-66.111 0-0.229-0.001-0.458-0.002-0.688v0.035s9.356-130.124-19.136-146.283c-20.837-11.057-49.328 11.481-110.137 115.241-18.886 31.068-37.948 67.938-54.589 106.104l-2.392 6.159c-2.959 6.787-7.292 12.483-12.682 16.949l-0.075 0.060c-7.101 4.153-15.455 7.021-24.368 8.052l-0.296 0.028h-146.283s-21.688 0-29.767-9.78 0-25.515 0-25.515 113.964-262.799 243.238-395.473c63.864-68.761 154.306-112.081 254.88-113.537l0.264-0.003z" />
<glyph unicode="&#xe90d;" glyph-name="zigzag" d="M367.442 743.605l145.831 143.284 145.831-143.284 133.732 131.821c-19.741 13.373-40.756 24.836-61.771 35.024l-71.961-70.687-120.996 119.721c-8.916 0-17.831 0-26.747 0-7.642 0-15.284 0-22.288-0.637l-120.996-119.721-73.234 72.597c-21.652-10.189-42.030-21.652-62.408-34.388l135.005-133.732zM222.248 695.843l145.195-143.921 145.831 143.921 145.831-143.921 145.831 143.284 145.195-143.284 49.035 48.398c-7.642 23.563-16.557 46.487-27.383 69.413l-21.652-21.652-145.831 143.921-145.831-143.921-145.195 143.921-145.831-143.921-145.195 143.921-145.831-143.921-24.836 24.199c-10.826-21.652-19.741-45.214-27.383-68.777l52.219-51.582 145.831 143.921zM222.248 504.161l145.831-143.921 145.831 143.921 145.831-143.921 145.831 143.921 145.831-143.921 71.961 71.323c0 5.731 0.637 10.826 0.637 16.557 0 24.836-1.911 49.671-5.731 74.507l-68.139-66.229-145.831 143.921-145.831-143.284-145.195 143.284-145.831-143.284-145.195 143.284-145.831-143.284-70.687 68.777c-3.821-25.472-5.731-51.582-5.731-77.691 0-4.457 0-8.279 0-12.1l76.418-75.145 145.831 143.284zM804.299 408.638l-145.195-143.284-145.831 143.284-145.831-143.284-145.195 143.284-145.831-143.284-61.771 61.134c13.373-54.13 35.662-105.712 65.592-152.836l142.010 139.463 145.831-143.921 145.831 143.921 145.831-143.921 145.831 143.921 138.826-137.553c28.656 44.578 49.671 93.613 63.045 145.195l-56.040-55.403-147.105 143.284zM903.642 120.16l-98.706 97.433-145.831-143.284-145.831 143.284-145.831-143.284-145.831 143.284-100.617-99.344c14.647-17.194 30.567-33.751 47.762-49.035l53.493 52.856 145.831-143.921 145.831 143.921 145.831-143.921 145.831 143.921 51.582-50.946c15.92 14.647 31.204 31.204 46.487 49.035zM513.274 25.911l-83.423-82.786c55.403-8.916 111.443-8.916 166.847 0.637l-83.423 82.15z" />
<glyph unicode="&#xe90e;" glyph-name="arrow-left" d="M336.305 111.695l-336.305 336.305 336.305 336.305 63.002-62.558-273.747-273.747 273.747-273.747-63.002-62.558zM92.284 492.367h931.716v-88.735h-931.716v88.735z" />
<glyph unicode="&#xe90f;" glyph-name="arrow-right" d="M687.695 784.305l336.305-336.305-336.305-336.305-63.002 62.558 273.747 273.747-273.747 273.747 63.002 62.558zM0 492.367h931.716v-88.735h-931.716v88.735z" />
<glyph unicode="&#xe910;" glyph-name="arrow-round-left" d="M480.853 204.373l60.16 60.587-183.040 183.040 183.040 183.040-60.16 60.587-243.627-243.627 243.627-243.627zM512-64c282.77 0 512 229.23 512 512s-229.23 512-512 512c-282.77 0-512-229.23-512-512v0c0-282.77 229.23-512 512-512v0zM512 874.667c235.641 0 426.667-191.025 426.667-426.667s-191.025-426.667-426.667-426.667c-235.641 0-426.667 191.025-426.667 426.667v0c0 235.641 191.025 426.667 426.667 426.667v0zM766.72 490.667h-469.333v-85.333h469.333v85.333z" />
<glyph unicode="&#xe911;" glyph-name="arrow-round-right" d="M543.147 204.373l-60.16 60.587 183.040 183.040-183.040 183.040 60.16 60.587 243.627-243.627-243.627-243.627zM512-64c-282.77 0-512 229.23-512 512s229.23 512 512 512c282.77 0 512-229.23 512-512v0c0-282.77-229.23-512-512-512v0zM512 874.667c-235.641 0-426.667-191.025-426.667-426.667s191.025-426.667 426.667-426.667c235.641 0 426.667 191.025 426.667 426.667v0c0 235.641-191.025 426.667-426.667 426.667v0zM257.28 490.667h469.333v-85.333h-469.333v85.333z" />
<glyph unicode="&#xe912;" glyph-name="circles" d="M512-64c-282.77 0-512 229.231-512 512s229.231 512 512 512c282.666 0 511.833-229.063 512-511.69v-0.016c-0.334-282.695-229.33-511.793-511.953-512.294h-0.047zM512 919.335c-260.019 0-470.805-210.786-470.805-470.805s210.786-470.805 470.805-470.805c260.019 0 470.805 210.786 470.805 470.805v0c-0.435 259.843-210.961 470.37-470.763 470.805h-0.042zM512 21.981c-235.389 0.033-426.196 190.862-426.196 426.255 0 235.414 190.841 426.255 426.255 426.255 235.311 0 426.087-190.673 426.255-425.944v-0.016c-0.134-235.44-190.893-426.282-426.288-426.549h-0.026zM512 833.354c-212.637-0.034-385-172.418-385-385.059 0-212.662 172.397-385.059 385.059-385.059s385.059 172.397 385.059 385.059c0 0.083 0 0.166 0 0.249v-0.013c-0.401 212.474-172.621 384.59-385.096 384.824h-0.022zM512 107.961c-0.070 0-0.153 0-0.235 0-187.928 0-340.274 152.346-340.274 340.274s152.346 340.274 340.274 340.274c187.825 0 340.107-152.179 340.274-339.964v-0.016c-0.067-187.878-152.203-340.2-340.003-340.568h-0.035zM512 747.373c-0.070 0-0.152 0-0.235 0-165.176 0-299.079-133.902-299.079-299.079s133.902-299.079 299.079-299.079c165.176 0 299.079 133.902 299.079 299.079 0 0.083 0 0.165 0 0.248v-0.013c-0.334 164.912-133.931 298.509-298.812 298.844h-0.032zM512 193.943c-140.417 0.034-254.235 113.872-254.235 254.294 0 140.443 113.851 254.294 254.294 254.294 140.339 0 254.126-113.684 254.294-253.983v-0.016c-0.033-140.509-113.862-254.421-254.337-254.588h-0.016zM512 661.392c-117.666-0.034-213.039-95.428-213.039-213.098 0-117.691 95.407-213.098 213.098-213.098s213.098 95.407 213.098 213.098c0 0.083 0 0.165 0 0.248v-0.013c-0.268 117.556-95.577 212.762-213.147 212.862h-0.010zM512 279.923c-92.989 0-168.371 75.383-168.371 168.371s75.383 168.371 168.371 168.371c92.906 0 168.237-75.248 168.371-168.123v-0.013c0-0.018 0-0.038 0-0.059 0-93.024-75.361-168.447-168.362-168.548h-0.010zM512 575.412c-70.237 0-127.176-56.938-127.176-127.176s56.938-127.176 127.176-127.176c70.237 0 127.176 56.938 127.176 127.176 0 0.103 0 0.207 0 0.31v-0.016c-0.234 70.084-57.069 126.816-127.17 126.882h-0.006z" />
<glyph unicode="&#xe913;" glyph-name="close" d="M0 10.581l949.046 949.046 74.581-74.581-949.046-949.046-74.581 74.581zM0 885.419l74.581 74.581 949.419-949.419-74.581-74.581-949.419 949.419z" />
<glyph unicode="&#xe914;" glyph-name="coffee" d="M955.306 541.135h-690.388c-21.845-0.045-40.128-15.248-44.889-35.649l-0.061-0.312h-2.17c0 0 0 0 0 0-107.755 0-195.128-87.264-195.305-194.978v-0.017c1.395-77.614 31.921-147.838 81.072-200.438l-0.16 0.173c58.108-54.951 136.732-88.735 223.247-88.735 5.547 0 11.061 0.139 16.539 0.414l-0.77-0.031c61.458-53.169 142.167-85.563 230.441-85.563 0.072 0 0.144 0 0.217 0h74.081c195.554 0.353 353.987 158.785 354.339 354.305v203.709c0.006 0.277 0.009 0.603 0.009 0.93 0 25.511-20.68 46.191-46.191 46.191-0.003 0-0.007 0-0.010 0h0.001zM170.055 174.086c-32.317 35.358-52.713 82.095-54.551 133.558l-0.010 0.366c-0.011 0.553-0.017 1.207-0.017 1.862 0 56.63 45.737 102.578 102.287 102.921h0.033v-122.143c0-0.069 0-0.151 0-0.233 0-60.749 15.381-117.905 42.463-167.786l-0.921 1.854c-35.038 8.788-65.23 26.103-89.32 49.638l0.038-0.037zM647.158 29.001h-74.092c-142.248 0.119-257.983 113.465-261.949 254.77l-0.008 0.367h598.006c-3.974-141.671-119.709-255.017-261.946-255.136h-0.011zM909.115 370.010h-598.006v80.602h598.006v-80.602zM567.486 604.067c0.511-0.16 1.097-0.252 1.705-0.252s1.195 0.092 1.746 0.264l-0.042-0.011c0.031-0.001 0.068-0.001 0.105-0.001 3.253 0 5.89 2.637 5.89 5.89 0 0.781-0.152 1.528-0.429 2.211l0.014-0.040c-5.020 15.332-7.915 32.978-7.915 51.3 0 35.054 10.597 67.632 28.763 94.707l-0.387-0.612c20.333 26.405 32.587 59.945 32.587 96.347 0 7.896-0.576 15.659-1.69 23.247l0.104-0.861c-6.042 34.771-25.85 64.033-53.49 82.489l-0.452 0.284c-0.912 0.609-2.034 0.972-3.241 0.972-3.253 0-5.89-2.637-5.89-5.89 0-0.455 0.052-0.897 0.149-1.322l-0.008 0.040c14.57-62.002 0-103.543-31.001-161.514-13.414-23.065-21.332-50.761-21.332-80.306 0-6.878 0.43-13.657 1.262-20.311l-0.081 0.793c4.337-36.649 24.421-67.878 53.192-87.145l0.44-0.277zM717.53 603.757h2.79c2.712 0.035 4.898 2.242 4.898 4.959 0 0.554-0.091 1.088-0.259 1.585l0.010-0.035c-4.1 12.516-6.464 26.92-6.464 41.876 0 28.636 8.667 55.247 23.52 77.354l-0.316-0.499c16.278 21.428 26.076 48.551 26.076 77.963 0 6.399-0.464 12.69-1.36 18.84l0.084-0.7c-4.679 28.404-20.784 52.345-43.344 67.352l-0.367 0.23c-0.737 0.459-1.632 0.73-2.591 0.73-2.739 0-4.96-2.221-4.96-4.96 0-0.369 0.040-0.727 0.116-1.073l-0.006 0.033c2.765-11.273 4.352-24.215 4.352-37.527 0-35.292-11.148-67.98-30.115-94.736l0.343 0.51c-10.925-18.808-17.372-41.388-17.372-65.474 0-5.551 0.343-11.021 1.007-16.391l-0.065 0.642c3.799-29.688 20.237-54.911 43.654-70.453l0.367-0.229z" />
<glyph unicode="&#xe915;" glyph-name="contacts" d="M98.298 39.425c-54.289 0-98.298 44.010-98.298 98.298v0 620.552c0 54.289 44.010 98.298 98.298 98.298v0h827.404c54.289 0 98.298-44.010 98.298-98.298v0-620.552c0-54.289-44.010-98.298-98.298-98.298v0zM159.116 131.713h707.182l-250.873 250.519-70.719-70.719c-8.468-8.413-20.136-13.613-33.020-13.613-0.014 0-0.030 0-0.044 0h0.002c-0.077-0.001-0.168-0.001-0.26-0.001-12.814 0-24.413 5.204-32.799 13.613l-70.719 70.719zM681.194 448l249.812-249.812v499.271zM92.995 198.188l249.812 249.812-249.812 249.459zM512 410.342l353.591 353.591h-706.475z" />
<glyph unicode="&#xe916;" glyph-name="cross-bg" d="M1024 226.258l-221.599 221.742 221.599 221.599-290.258 290.401-221.742-221.599-221.599 221.599-290.401-290.401 221.599-221.599-221.599-221.742 290.401-290.258 221.599 221.599 221.742-221.599 290.258 290.258z" />
<glyph unicode="&#xe917;" glyph-name="email" d="M77.013 780.478c-9.752-0.212-18.979-2.208-27.45-5.673l0.513 0.186 438.981-381.614c6.399-6.348 15.213-10.272 24.942-10.272s18.543 3.923 24.944 10.274l-0.003-0.003 436.486 381.614c-8.112 3.34-17.52 5.341-27.378 5.487l-0.058 0.001zM0.191 714.631c-0.122-1.642-0.191-3.557-0.191-5.487s0.070-3.845 0.206-5.741l-0.015 0.254v-511.812c0.043-10.635 2.24-20.745 6.177-29.932l-0.19 0.5 303.794 283.841-309.781 268.377zM1022.318 714.631l-307.785-268.377 303.296-284.34c3.785 8.809 5.986 19.063 5.986 29.83 0 0.035 0 0.070 0 0.105v-0.005 511.812c0.118 1.642 0.185 3.557 0.185 5.487s-0.068 3.846-0.2 5.743l0.014-0.256zM656.168 395.871l-68.84-59.861c-19.999-17.156-46.193-27.599-74.826-27.599s-54.827 10.443-74.981 27.729l0.155-0.129-69.339 59.362-299.305-279.85h885.444l-299.305 280.349z" />
<glyph unicode="&#xe918;" glyph-name="fb" d="M592.367-63.999h-216.624v510.845h-108.082v176.441h108.082v105.772c0 143.647 60.969 230.943 235.1 230.943h145.494v-175.978h-92.377c-67.435 0-72.054-24.481-72.054-70.669v-88.22h164.431l-19.399-175.978h-144.57v-513.154z" />
<glyph unicode="&#xe919;" d="M948.86-64h-873.72v712.956l327.52 311.044h546.2zM150.030 11.39h723.94v873.221h-441.353l-282.586-267.608z" />
<glyph unicode="&#xe91a;" d="M110.588 636.973l320.53 283.085h478.299v-946.613h-798.83v663.528z" />
<glyph unicode="&#xe91b;" d="M948.86-64h-873.72v712.956l327.52 311.044h546.2zM150.030 11.39h723.94v873.221h-441.353l-282.586-267.608z" />
<glyph unicode="&#xe91c;" d="M264.862 492.685h508.255v-74.89h-508.255v74.89z" />
<glyph unicode="&#xe91d;" d="M264.862 339.409h508.255v-74.89h-508.255v74.89z" />
<glyph unicode="&#xe91e;" d="M264.862 186.633h508.255v-74.89h-508.255v74.89z" />
<glyph unicode="&#xe91f;" d="M403.16 960l-328.020-312.043v-53.422h379.943v365.465zM380.193 669.426h-173.745l173.745 165.258z" />
<glyph unicode="&#xe920;" glyph-name="fork" d="M324.116 318.084h-12.946c-12.329 0.091-24.257 1.62-35.683 4.426l1.055-0.219-261.819-262.143c-6.11-5.895-9.904-14.155-9.904-23.302s3.794-17.406 9.894-23.293l0.010-0.009 67.64-67.64c5.895-6.11 14.155-9.904 23.302-9.904s17.406 3.794 23.293 9.894l0.009 0.010 314.896 314.572-58.254 62.785zM1013.456 737.838c-5.777 5.441-13.583 8.786-22.169 8.786s-16.392-3.344-22.185-8.801l0.016 0.015-169.584-168.937c-7.335-6.902-17.241-11.142-28.139-11.142-22.699 0-41.102 18.401-41.102 41.102 0 10.816 4.179 20.658 11.009 27.996l-0.023-0.025 168.937 168.614c5.922 5.922 9.585 14.103 9.585 23.14 0 18.073-14.651 32.725-32.725 32.725-9.036 0-17.218-3.663-23.14-9.585v0l-168.937-169.261c-7.314-6.808-17.155-10.986-27.971-10.986-22.699 0-41.102 18.401-41.102 41.102 0 10.897 4.241 20.804 11.162 28.16l-0.020-0.021 169.584 169.584c9.095 5.832 15.036 15.889 15.036 27.334 0 17.874-14.489 32.364-32.364 32.364-11.445 0-21.503-5.941-27.257-14.907l-0.078-0.129-190.944-190.944c-31.731-31.887-51.347-75.855-51.347-124.405 0-15.828 2.085-31.17 5.996-45.765l-0.281 1.234 129.453-129.453c13.362-3.629 28.703-5.714 44.532-5.714 48.55 0 92.518 19.615 124.412 51.354l190.937 190.937c5.439 5.777 8.782 13.581 8.782 22.166 0 9.23-3.865 17.559-10.063 23.454l-0.014 0.013zM86.246 927.487c-6.255 6.201-14.869 10.033-24.376 10.033-0.078 0-0.154 0-0.232-0.001h-5.49c-11.329-1.908-20.651-9.093-25.477-18.891l-0.090-0.203c-18.996-38.385-30.11-83.578-30.11-131.367 0-83.302 33.768-158.717 88.364-213.302l161.818-161.818c15.402-15.397 36.677-24.92 60.176-24.92 0.007 0 0.014 0 0.021 0h7.119l94.177 8.091 411.015-443.379c6.177-6.61 14.878-10.793 24.558-11.003l0.038-0.001c0.026 0 0.057 0 0.087 0 9.55 0 18.205 3.83 24.513 10.037l70.547 70.547c6.235 6.261 10.091 14.898 10.091 24.435s-3.855 18.173-10.092 24.436l0.001-0.001z" />
<glyph unicode="&#xe921;" glyph-name="news" d="M817.331 541.831c-17.281 0.070-31.902 11.381-36.935 26.996l-0.077 0.276c-0.995 3.077-1.568 6.616-1.568 10.29 0 13.854 8.155 25.803 19.927 31.309l0.212 0.089c14.026 5.194 29.739 11.299 45.842 17.662 32.207 12.986 64.933 25.973 90.906 33.116l3.377 0.649h2.857c15.877-1.491 28.881-12.312 33.558-26.867l0.076-0.276c1.224-3.345 1.932-7.207 1.932-11.234 0-12.975-7.347-24.235-18.109-29.845l-0.186-0.088-1.948-0.779c-32.986-14.026-82.855-35.324-116.1-45.324l-19.22-5.844zM749.41 742.864c-10.47 0.503-19.699 5.425-25.926 12.927l-0.048 0.059c-5.874 6.453-9.47 15.069-9.47 24.525 0 11.698 5.504 22.111 14.065 28.789l0.081 0.061 8.96 8.701c17.662 16.883 51.947 45.583 69.349 59.609 5.799 4.901 13.001 8.318 20.923 9.578l0.245 0.032h5.065c0.092 0.001 0.2 0.002 0.309 0.002 17.772 0 32.398-13.471 34.223-30.76l0.013-0.149c0.419-1.999 0.659-4.296 0.659-6.649 0-10.39-4.675-19.689-12.036-25.906l-0.051-0.041-4.415-4.156c-16.493-15.584-44.804-39.61-64.933-57.141l-8.831-7.532c-6.358-5.898-14.414-10.050-23.354-11.647l-0.281-0.042zM902.523 340.148c-0.675-0.010-1.473-0.015-2.271-0.015-8.363 0-16.579 0.619-24.609 1.815l0.907-0.111c-16.909 3.030-29.575 17.627-29.575 35.182 0 0.919 0.034 1.829 0.103 2.729l-0.007-0.12c1.169 19.35 13.896 30.648 37.662 33.765h2.337l10.649-0.909h8.052c9.22 0 19.74 0.779 30.779 1.558s24.285 1.818 35.843 1.818c0.686 0.015 1.495 0.022 2.306 0.022 8.098 0 16.007-0.812 23.649-2.359l-0.761 0.129c15.265-3.74 26.414-17.304 26.414-33.472 0-1.938-0.16-3.838-0.468-5.689l0.027 0.201c-2.029-15.974-14.208-28.592-29.785-31.268l-0.215-0.031h-18.182c-11.168 0-23.506-0.649-35.973-1.299s-24.934-1.948-36.882-1.948zM349.811 8.859c-0.028 0-0.063 0-0.096 0-16.927 0-32.070 7.638-42.171 19.655l-0.069 0.084-90.906 107.919s-20.389 21.948-24.934 22.077c-0.771-0.011-1.68-0.018-2.592-0.018-85.45 0-157.57 57.074-180.319 135.181l-0.331 1.327c-1.729 5.517-3.397 12.473-4.648 19.572l-0.157 1.076c-0.779 3.766-1.429 7.272-2.208 10.649-0.879 6.884-1.381 14.849-1.381 22.93 0 83.596 53.695 154.651 128.478 180.556l1.341 0.404 5.325 1.818q94.023 31.428 188.176 62.466c12.735 4.094 23.498 11.335 31.744 20.823l0.073 0.086 63.635 72.985q59.219 67.79 118.178 135.84c7.62 11.655 19.164 20.201 32.723 23.806l0.393 0.089h3.896c2.589-0.025 5.097-0.308 7.519-0.823l-0.246 0.044c19.22-3.766 27.272-17.402 34.025-38.181q66.232-202.072 132.854-404.015l34.414-103.893q12.986-38.96 25.973-77.141c1.768-4.633 2.791-9.992 2.791-15.59 0-8.375-2.292-16.216-6.282-22.928l0.114 0.207c-5.408-8.448-14.249-14.291-24.509-15.567l-0.166-0.017c-0.913-0.063-1.978-0.099-3.052-0.099s-2.139 0.036-3.195 0.106l0.143-0.008c-4.395 0.043-8.646 0.561-12.733 1.505l0.396-0.077-28.181 6.103c-76.492 16.363-155.84 33.376-232.331 51.947-9.852 2.513-21.172 3.978-32.826 4.026h-0.030c-0.117 0-0.256 0.001-0.394 0.001-5.813 0-11.538-0.377-17.151-1.11l0.661 0.070c-11.523-1.586-21.907-4.266-31.776-7.993l0.998 0.33c-26.622-9.61-55.193-19.22-84.803-28.7l-5.714-1.818 72.076-86.621c8.092-9.541 13.013-21.994 13.013-35.597 0-16.958-7.648-32.13-19.683-42.254l-0.084-0.069-10.26-8.571c-9.461-7.842-21.726-12.6-35.102-12.6-0.215 0-0.43 0.001-0.644 0.003h0.033zM323.838 515.338h-4.026c-3.816-0.58-7.228-1.486-10.481-2.714l0.352 0.117c-28.051-9.87-56.232-19.22-84.413-28.571-24.805-8.311-49.090-16.363-73.244-24.674-44.999-16.94-76.432-59.628-76.432-109.658 0-64.551 52.329-116.88 116.88-116.88 1.212 0 2.42 0.019 3.624 0.055l-0.176-0.004c0.055 0 0.119 0 0.184 0 6.482 0 12.865 0.425 19.122 1.248l-0.736-0.079h2.078l40.778 12.986 132.204 43.376c6.65 1.837 12.040 6.253 15.131 12.076l0.063 0.131c1.423 3.297 2.251 7.136 2.251 11.168s-0.828 7.871-2.323 11.356l0.072-0.188-7.272 21.948c-16.103 48.31-32.207 96.75-47.661 145.191-5.065 15.065-13.766 22.727-26.233 22.727zM510.976 681.568c-32.077-36.753-62.985-72.206-94.023-107.529-5.118-5.819-8.242-13.499-8.242-21.91 0-4.705 0.978-9.182 2.74-13.239l-0.083 0.214q34.804-103.893 68.699-207.786c4.284-15.492 17.060-27.137 32.88-29.708l0.236-0.032c31.817-6.753 63.635-13.766 95.452-20.908l63.375-14.026 2.337-0.649c3.647-1.414 7.864-2.306 12.268-2.466l0.069-0.002h2.987c5.836 0.788 10.851 3.798 14.25 8.134l0.036 0.047c3.208 4.272 5.138 9.665 5.138 15.507 0 4.76-1.281 9.221-3.516 13.057l0.067-0.124-1.299 2.597-25.973 80.387q-21.557 65.972-43.376 131.814c-14.805 45.064-29.869 89.998-45.193 136.23l-28.96 87.27z" />
<glyph unicode="&#xe922;" glyph-name="partners" d="M198.822 529.063c-0.756-0.010-1.647-0.017-2.54-0.017-54.304 0-103.318 22.648-138.111 59.015l-0.067 0.071c-35.856 34.858-58.103 83.551-58.103 137.441 0 0.865 0.006 1.728 0.017 2.591l-0.001-0.131c-0.007 0.635-0.012 1.384-0.012 2.135 0 54.218 22.159 103.259 57.915 138.563l0.021 0.021c34.96 35.866 83.746 58.113 137.727 58.113 1.109 0 2.217-0.009 3.322-0.028l-0.166 0.002c0.942 0.017 2.052 0.026 3.165 0.026 53.713 0 102.258-22.12 137.025-57.747l0.037-0.038c36.254-35.143 58.756-84.292 58.756-138.697 0-0.826-0.006-1.651-0.016-2.474l0.001 0.125c0.014-0.854 0.022-1.861 0.022-2.87 0-54.037-22.524-102.815-58.694-137.455l-0.069-0.065c-34.642-36.142-83.311-58.602-137.225-58.602-1.055 0-2.109 0.008-3.16 0.026l0.158-0.002zM198.822 845.188c-0.8 0.021-1.742 0.033-2.687 0.033-31.416 0-59.801-12.982-80.081-33.875l-0.027-0.028c-21.218-20.806-34.371-49.77-34.371-81.806 0-0.52 0.004-1.040 0.010-1.558l-0.001 0.079c-0.006-0.414-0.008-0.904-0.008-1.394 0-31.601 13.174-60.125 34.33-80.38l0.040-0.038c20.278-21.491 48.953-34.871 80.753-34.871 0.717 0 1.434 0.007 2.148 0.021l-0.108-0.002c0.469-0.007 1.020-0.011 1.574-0.011 31.607 0 60.104 13.316 80.187 34.644l0.052 0.056c21.674 20.22 35.184 48.949 35.184 80.833 0 0.344-0.002 0.688-0.005 1.032v-0.052c0.013 0.639 0.021 1.393 0.021 2.147 0 31.941-13.302 60.775-34.67 81.264l-0.039 0.037c-20.23 20.913-48.545 33.896-79.893 33.896-0.847 0-1.693-0.009-2.535-0.028l0.125 0.002zM825.018 529.063c-0.824-0.013-1.797-0.020-2.77-0.020-54.283 0-103.277 22.651-138.043 59.017l-0.068 0.072c-35.855 34.832-58.104 83.503-58.104 137.372 0 0.888 0.006 1.776 0.018 2.663l-0.002-0.135c-0.006 0.56-0.009 1.221-0.009 1.885 0 54.356 22.292 103.506 58.231 138.806l0.029 0.028c36.003 35.836 85.651 57.991 140.473 57.991s104.471-22.154 140.48-57.998l-0.007 0.007c36.255-35.168 58.756-84.34 58.756-138.765 0-0.802-0.005-1.602-0.015-2.402l0.001 0.122c0.009-0.693 0.014-1.511 0.014-2.332 0-54.215-22.652-103.139-59.008-137.825l-0.075-0.071c-34.654-36.043-83.28-58.435-137.136-58.435-0.972 0-1.943 0.007-2.911 0.022l0.147-0.002zM825.018 845.188c-0.8 0.021-1.742 0.033-2.687 0.033-31.416 0-59.801-12.982-80.081-33.875l-0.027-0.028c-21.218-20.806-34.371-49.77-34.371-81.806 0-0.52 0.004-1.040 0.010-1.558l-0.001 0.079c-0.006-0.414-0.008-0.904-0.008-1.394 0-31.601 13.174-60.125 34.33-80.38l0.040-0.038c20.864-21.624 50.097-35.052 82.467-35.052s61.603 13.428 82.434 35.018l0.033 0.034c21.674 20.22 35.184 48.949 35.184 80.833 0 0.344-0.002 0.688-0.005 1.032v-0.052c0.007 0.479 0.011 1.044 0.011 1.61 0 32.118-13.43 61.098-34.981 81.633l-0.046 0.043c-20.23 20.913-48.545 33.896-79.893 33.896-0.847 0-1.693-0.009-2.535-0.028l0.125 0.002zM1014.17-30.864h-374.376v186.207l-74.614-71.831c-43.851-42.216-80.504-18.49-98.176 0-7.691 7.691-43.688 42.379-78.214 75.431v-189.152h-374.867v426.736c-0.006 0.546-0.009 1.191-0.009 1.837 0 51.156 21.187 97.363 55.264 130.325l0.051 0.049c32.944 33.839 78.938 54.832 129.836 54.832 0.892 0 1.783-0.007 2.672-0.020l-0.135 0.002c0.519 0.006 1.133 0.008 1.746 0.008 51.060 0 97.155-21.262 129.913-55.415l0.060-0.063c3.272-3.109 6.545-6.545 9.817-10.308l172.625-172.461 170.171 170.498c5.097 5.917 10.446 11.266 16.165 16.196l0.197 0.166c14.696 12.538 31.372 23.458 49.34 32.123l1.384 0.601c20.619 9.252 44.69 14.641 70.021 14.641 1.845 0 3.684-0.029 5.515-0.085l-0.268 0.007c51.131-0.56 97.291-21.393 130.91-54.823l-0.008 0.008c33.935-32.957 54.992-79.015 54.992-129.991 0-0.78-0.005-1.559-0.015-2.336l0.001 0.118zM721.443 50.949h211.077v341.978c0.018 0.695 0.027 1.514 0.027 2.335 0 28.363-11.869 53.953-30.911 72.076l-0.041 0.039c-19.421 19.122-46.092 30.929-75.521 30.929-0.314 0-0.628-0.001-0.941-0.004h0.048c-0.352 0.005-0.767 0.007-1.183 0.007-13.856 0-27.007-3.016-38.834-8.428l0.584 0.239-3.272-1.309c-10.214-6.305-18.916-12.455-27.223-19.078l0.552 0.425-2.618-2.29c-1.799-1.637-4.582-4.418-5.89-6.054l-2.454-2.781-182.607-182.771c-11.626-12.485-28.157-20.268-46.506-20.268-18.738 0-35.581 8.118-47.201 21.029l-0.051 0.057-185.552 185.879c-2.127 2.454-4.418 4.745-6.545 6.872-18.154 19.461-43.948 31.592-72.575 31.592-0.544 0-1.088-0.005-1.63-0.013l0.082 0.001c-0.88 0.028-1.914 0.044-2.953 0.044-28.132 0-53.537-11.677-71.632-30.448l-0.029-0.030c-19.37-18.223-31.433-44.022-31.433-72.639 0-0.637 0.006-1.272 0.018-1.906l-0.002 0.095v-344.923h210.096v298.453l68.886-65.45c4.745-4.582 106.356-101.776 139.573-134.173l206.824 197.169zM780.839 488.157v0z" />
<glyph unicode="&#xe923;" d="M264.862 492.685h508.255v-74.89h-508.255v74.89z" />
<glyph unicode="&#xe924;" d="M264.862 339.409h508.255v-74.89h-508.255v74.89z" />
<glyph unicode="&#xe925;" d="M264.862 186.633h508.255v-74.89h-508.255v74.89z" />
<glyph unicode="&#xe926;" d="M403.16 960l-328.020-312.043v-53.422h379.943v365.465zM380.193 669.426h-173.745l173.745 165.258z" />
<glyph unicode="&#xe927;" glyph-name="fb-round" d="M512.247 960c-0.073 0-0.16 0-0.247 0-282.769 0-512-229.23-512-512s229.23-512 512-512c282.769 0 512 229.23 512 512v0c0 282.682-229.088 511.859-511.739 512h-0.014zM632.892 448h-77.628v-273.429h-115.948v273.429h-57.85v94.439h57.85v56.614c0 76.886 32.633 123.612 125.59 123.612h78.123v-94.192h-49.445c-36.094 0-38.567-13.103-38.567-37.825v-47.22h88.012z" />
<glyph unicode="&#xe928;" glyph-name="telegram-round" d="M512.247 960c-0.073 0-0.16 0-0.247 0-282.77 0-512-229.23-512-512s229.23-512 512-512c282.77 0 512 229.23 512 512v0c0 282.683-229.089 511.859-511.739 512h-0.014zM677.392 263.325c-0.843-5.025-3.882-9.203-8.077-11.577l-0.081-0.042c-2.209-1.246-4.851-1.98-7.663-1.98-0.087 0-0.174 0.001-0.261 0.002h0.013c-2.233 0.033-4.353 0.484-6.296 1.278l0.116-0.042-117.184 47.714-62.548-76.145c-2.83-3.629-7.204-5.942-12.117-5.942-0.173 0-0.345 0.003-0.516 0.009l0.025-0.001c-0.855-0.184-1.837-0.29-2.843-0.29s-1.989 0.106-2.935 0.306l0.092-0.016c-6.401 2.388-10.877 8.45-10.877 15.557 0 0.006 0 0.012 0 0.019v-0.001 90.978l222.501 273.924-275.654-239.312-102.103 41.781c-6.102 2.454-10.329 8.323-10.329 15.178 0 6.087 3.332 11.394 8.271 14.199l0.081 0.042 430.169 247.223c2.312 1.398 5.105 2.225 8.091 2.225 0.024 0 0.047 0 0.071 0h-0.004c0.131 0.004 0.286 0.006 0.441 0.006 3.339 0 6.44-1.019 9.010-2.761l-0.056 0.036c4.383-2.916 7.232-7.836 7.232-13.422 0-1.112-0.113-2.197-0.328-3.246l0.018 0.104z" />
<glyph unicode="&#xe929;" glyph-name="email-round" d="M512.247 960c-0.073 0-0.16 0-0.247 0-282.77 0-512-229.23-512-512s229.23-512 512-512c282.77 0 512 229.23 512 512v0c0 282.683-229.089 511.859-511.739 512h-0.014zM296.915 613.887h430.911c0.003 0 0.006 0 0.009 0 5.074 0 9.915-0.999 14.336-2.811l-0.252 0.092-217.309-190.115c-3.171-3.146-7.539-5.091-12.361-5.091s-9.19 1.945-12.362 5.092l0.001-0.001-217.556 189.126c4.257 2.1 9.235 3.44 14.496 3.705l0.090 0.004zM258.842 322.164v252.662c-0.060 0.814-0.095 1.763-0.095 2.719s0.034 1.906 0.102 2.845l-0.007-0.126 153.279-133.006-150.56-140.67c-1.857 4.305-2.945 9.316-2.966 14.578v0.008zM728.567 284.092h-435.854l148.334 138.692 34.117-31.397c9.912-8.502 22.893-13.678 37.083-13.678s27.172 5.176 37.16 13.743l-0.077-0.064 34.117 29.667 148.334-138.939zM766.639 321.175c0-0.015 0-0.032 0-0.049 0-5.337-1.091-10.418-3.061-15.034l0.095 0.25-150.312 140.917 153.279 133.006c0.057-0.814 0.090-1.763 0.090-2.719s-0.033-1.907-0.097-2.846l0.007 0.127z" />
<glyph unicode="&#xe92a;" glyph-name="vk-round" d="M512.247 960c-0.073 0-0.16 0-0.247 0-282.77 0-512-229.23-512-512s229.23-512 512-512c282.77 0 512 229.23 512 512v0c0 282.683-229.089 511.859-511.739 512h-0.014zM782.462 271.236h-79.359c-1.341-0.112-2.902-0.176-4.478-0.176-13.281 0-25.502 4.533-35.202 12.137l0.125-0.094c-29.667 20.025-57.85 71.942-79.606 65.267s-21.509-55.872-21.509-55.872c0.003-0.145 0.005-0.317 0.005-0.488 0-5.597-1.86-10.758-4.994-14.901l0.045 0.062c-4.441-3.738-10.037-6.239-16.181-6.91l-0.136-0.012h-35.353c-58.625 0.848-111.205 26.033-148.215 65.879l-0.119 0.129c-74.167 76.886-141.907 229.67-141.907 229.67s-3.956 10.137 0 14.833 17.553 5.687 17.553 5.687h85.044c5.232-0.931 9.891-2.833 13.985-5.526l-0.14 0.086c3.177-2.631 5.697-5.944 7.351-9.721l0.066-0.169c10.663-24.996 21.253-45.703 33.053-65.608l-1.409 2.566c35.6-60.322 51.916-74.167 64.030-66.998 17.553 9.395 12.361 85.044 12.361 85.044 0.020 0.678 0.031 1.475 0.031 2.274 0 13.688-3.301 26.605-9.15 37.998l0.219-0.469c-6.652 7.325-15.911 12.18-26.301 13.092l-0.152 0.011c-4.697 0 2.966 11.619 13.35 16.317 16.886 5.213 36.297 8.215 56.41 8.215 6.251 0 12.435-0.29 18.539-0.858l-0.782 0.059c1.631 0.061 3.546 0.096 5.469 0.096 12.886 0 25.406-1.568 37.379-4.522l-1.068 0.223c29.42-6.922 19.283-33.623 19.283-98.889 0-20.52-3.708-49.445 11.372-59.087 6.427-4.203 22.498 0 62.3 65.761 11.519 19.447 22.728 42.313 32.181 66.068l1.195 3.402c1.865 3.816 4.549 6.974 7.838 9.345l0.073 0.050c2.67 1.341 5.82 2.125 9.151 2.125 0.87 0 1.728-0.054 2.569-0.157l-0.101 0.010h89.495s26.947 3.214 31.15-8.653-9.395-41.286-45.984-88.259c-60.075-78.37-66.75-71.201-16.811-116.442 23.279-18.785 42.908-40.932 58.444-65.89l0.642-1.107c19.778-32.881-21.756-35.6-21.756-35.6z" />
</font>
</defs>
</svg>
