<svg version="1.1" id="Layer_1" xmlns="http://www.w3.org/2000/svg" xmlns:xlink="http://www.w3.org/1999/xlink" x="0" y="0" viewBox="0 0 1440 300" xml:space="preserve"><style>.st3{fill:#ffc313}.st21,.st25{opacity:.2;enable-background:new}.st25{opacity:.1}.st28{fill:none}.st29{fill:#fdde10}.st30{opacity:.1;fill:none;stroke:#000;stroke-width:1.094;stroke-linecap:round;stroke-miterlimit:10;enable-background:new}.st45{fill:#63dcff}.st135{fill:#fff}.st136{fill:#ffb624}</style><defs><path id="SVGID_1_" d="M0 0h1440v300H0z"/></defs><clipPath id="SVGID_2_"><use xlink:href="#SVGID_1_" overflow="visible"/></clipPath><g clip-path="url(#SVGID_2_)"><path d="M-31-35h1496v462H-31V-35z" fill="#191919"/><linearGradient id="SVGID_3_" gradientUnits="userSpaceOnUse" x1="261.664" y1="604.385" x2="1172.336" y2="-392.385" gradientTransform="matrix(1 0 0 -1 0 302)"><stop offset="0" stop-color="#fff"/><stop offset="1" stop-color="#fff" stop-opacity="0"/></linearGradient><path d="M-31-35h1496v462H-31V-35z" opacity=".6" fill="url(#SVGID_3_)" fill-opacity=".25"/><circle class="st3" cx="108" cy="139" r="200"/><linearGradient id="SVGID_4_" gradientUnits="userSpaceOnUse" x1="-132.163" y1="244.18" x2="348.163" y2="81.82" gradientTransform="matrix(1 0 0 -1 0 302)"><stop offset="0" stop-color="#fff"/><stop offset="1" stop-color="#fff" stop-opacity="0"/></linearGradient><circle cx="108" cy="139" r="200" opacity=".6" fill="url(#SVGID_4_)" fill-opacity=".4"/><circle class="st3" cx="1381.3" cy="148.9" r="200"/><linearGradient id="SVGID_5_" gradientUnits="userSpaceOnUse" x1="1141.127" y1="234.28" x2="1621.454" y2="71.92" gradientTransform="matrix(1 0 0 -1 0 302)"><stop offset="0" stop-color="#fff"/><stop offset="1" stop-color="#fff" stop-opacity="0"/></linearGradient><circle cx="1381.3" cy="148.9" r="200" opacity=".6" fill="url(#SVGID_5_)" fill-opacity=".4"/><linearGradient id="SVGID_6_" gradientUnits="userSpaceOnUse" x1="952.709" y1="186.817" x2="1088.941" y2="104.955" gradientTransform="matrix(1 0 0 -1 0 302)"><stop offset=".124" stop-color="#a91feb" stop-opacity="0"/><stop offset=".505" stop-color="#a91feb"/><stop offset=".796" stop-color="#a91feb" stop-opacity="0"/></linearGradient><path d="M958.2 117.5l130.4 75.9-3.8 2.2-130.3-75.9 3.7-2.2z" fill="url(#SVGID_6_)"/><linearGradient id="SVGID_7_" gradientUnits="userSpaceOnUse" x1="980.803" y1="186.882" x2="1059.297" y2="105.581" gradientTransform="matrix(1 0 0 -1 0 302)"><stop offset=".124" stop-color="#f7e041" stop-opacity="0"/><stop offset=".468" stop-color="#f7e041"/><stop offset=".796" stop-color="#f7e041" stop-opacity="0"/></linearGradient><path d="M976.7 128l89.5 52.3-3.8 2.2-89.5-52.3 3.8-2.2z" fill="url(#SVGID_7_)"/><linearGradient id="SVGID_8_" gradientUnits="userSpaceOnUse" x1="1138.958" y1="134.584" x2="1275.198" y2="52.723" gradientTransform="matrix(1 0 0 -1 0 302)"><stop offset=".124" stop-color="#a91feb" stop-opacity="0"/><stop offset=".505" stop-color="#a91feb"/><stop offset=".796" stop-color="#a91feb" stop-opacity="0"/></linearGradient><path d="M1144.5 169.7l130.3 75.9-3.7 2.2-130.4-75.9 3.8-2.2z" fill="url(#SVGID_8_)"/><linearGradient id="SVGID_9_" gradientUnits="userSpaceOnUse" x1="1167.014" y1="134.619" x2="1245.514" y2="53.318" gradientTransform="matrix(1 0 0 -1 0 302)"><stop offset=".124" stop-color="#f7e041" stop-opacity="0"/><stop offset=".468" stop-color="#f7e041"/><stop offset=".796" stop-color="#f7e041" stop-opacity="0"/></linearGradient><path d="M1162.9 180.2l89.5 52.4-3.8 2.1-89.5-52.3 3.8-2.2z" fill="url(#SVGID_9_)"/><linearGradient id="SVGID_10_" gradientUnits="userSpaceOnUse" x1="1104.233" y1="134.582" x2="968" y2="52.719" gradientTransform="matrix(1 0 0 -1 0 302)"><stop offset=".124" stop-color="#a91feb" stop-opacity="0"/><stop offset=".505" stop-color="#a91feb"/><stop offset=".796" stop-color="#a91feb" stop-opacity="0"/></linearGradient><path d="M1098.7 169.7l-130.3 75.9 3.7 2.2 130.4-75.9-3.8-2.2z" fill="url(#SVGID_10_)"/><linearGradient id="SVGID_11_" gradientUnits="userSpaceOnUse" x1="1076.155" y1="134.639" x2="997.659" y2="53.339" gradientTransform="matrix(1 0 0 -1 0 302)"><stop offset=".124" stop-color="#f7e041" stop-opacity="0"/><stop offset=".468" stop-color="#f7e041"/><stop offset=".796" stop-color="#f7e041" stop-opacity="0"/></linearGradient><path d="M1080.3 180.2l-89.5 52.4 3.8 2.1 89.4-52.3-3.7-2.2z" fill="url(#SVGID_11_)"/><linearGradient id="SVGID_12_" gradientUnits="userSpaceOnUse" x1="1253.764" y1="192.5" x2="1117.534" y2="110.639" gradientTransform="matrix(1 0 0 -1 0 302)"><stop offset=".124" stop-color="#a91feb" stop-opacity="0"/><stop offset=".505" stop-color="#a91feb"/><stop offset=".796" stop-color="#a91feb" stop-opacity="0"/></linearGradient><path d="M1248.2 111.8l-130.3 75.9 3.8 2.2L1252 114l-3.8-2.2z" fill="url(#SVGID_12_)"/><linearGradient id="SVGID_13_" gradientUnits="userSpaceOnUse" x1="1225.699" y1="192.532" x2="1147.199" y2="111.231" gradientTransform="matrix(1 0 0 -1 0 302)"><stop offset=".124" stop-color="#f7e041" stop-opacity="0"/><stop offset=".468" stop-color="#f7e041"/><stop offset=".796" stop-color="#f7e041" stop-opacity="0"/></linearGradient><path d="M1229.8 122.3l-89.5 52.4 3.8 2.2 89.5-52.4-3.8-2.2z" fill="url(#SVGID_13_)"/><linearGradient id="SVGID_14_" gradientUnits="userSpaceOnUse" x1="1035.973" y1="73.525" x2="968.973" y2="33.262" gradientTransform="matrix(1 0 0 -1 0 302)"><stop offset=".124" stop-color="#a91feb" stop-opacity="0"/><stop offset=".505" stop-color="#a91feb"/><stop offset=".796" stop-color="#a91feb" stop-opacity="0"/></linearGradient><path d="M1031.9 229.4L968.6 266l3.8 2.2 63.3-36.6-3.8-2.2z" fill="url(#SVGID_14_)"/><linearGradient id="SVGID_15_" gradientUnits="userSpaceOnUse" x1="1014.108" y1="64.816" x2="993.858" y2="43.842" gradientTransform="matrix(1 0 0 -1 0 302)"><stop offset=".124" stop-color="#f7e041" stop-opacity="0"/><stop offset=".468" stop-color="#f7e041"/><stop offset=".796" stop-color="#f7e041" stop-opacity="0"/></linearGradient><path d="M1013.4 239.9L991 253l3.8 2.2 22.4-13.1-3.8-2.2z" fill="url(#SVGID_15_)"/><linearGradient id="SVGID_16_" gradientUnits="userSpaceOnUse" x1="1255.146" y1="89.191" x2="1322.156" y2="48.928" gradientTransform="matrix(1 0 0 -1 0 302)"><stop offset=".124" stop-color="#a91feb" stop-opacity="0"/><stop offset=".505" stop-color="#a91feb"/><stop offset=".796" stop-color="#a91feb" stop-opacity="0"/></linearGradient><path d="M1259.3 213.7l63.2 36.7-3.8 2.1-63.2-36.6 3.8-2.2z" fill="url(#SVGID_16_)"/><linearGradient id="SVGID_17_" gradientUnits="userSpaceOnUse" x1="1277.019" y1="80.488" x2="1297.269" y2="59.514" gradientTransform="matrix(1 0 0 -1 0 302)"><stop offset=".124" stop-color="#f7e041" stop-opacity="0"/><stop offset=".468" stop-color="#f7e041"/><stop offset=".796" stop-color="#f7e041" stop-opacity="0"/></linearGradient><path d="M1277.7 224.2l22.4 13.1-3.8 2.2-22.4-13.1 3.8-2.2z" fill="url(#SVGID_17_)"/><linearGradient id="SVGID_18_" gradientUnits="userSpaceOnUse" x1="1043.265" y1="11.37" x2="976.263" y2="-28.893" gradientTransform="matrix(1 0 0 -1 0 302)"><stop offset=".124" stop-color="#a91feb" stop-opacity="0"/><stop offset=".505" stop-color="#a91feb"/><stop offset=".796" stop-color="#a91feb" stop-opacity="0"/></linearGradient><path d="M1039.2 291.5l-63.3 36.7 3.8 2.2 63.3-36.7-3.8-2.2z" fill="url(#SVGID_18_)"/><linearGradient id="SVGID_19_" gradientUnits="userSpaceOnUse" x1="937.349" y1="97.59" x2="870.344" y2="57.327" gradientTransform="matrix(1 0 0 -1 0 302)"><stop offset=".124" stop-color="#a91feb" stop-opacity="0"/><stop offset=".505" stop-color="#a91feb"/><stop offset=".796" stop-color="#a91feb" stop-opacity="0"/></linearGradient><path d="M933.3 205.3L870 242l3.8 2.2 63.2-36.7-3.7-2.2z" fill="url(#SVGID_19_)"/><linearGradient id="SVGID_20_" gradientUnits="userSpaceOnUse" x1="915.497" y1="88.854" x2="895.247" y2="67.881" gradientTransform="matrix(1 0 0 -1 0 302)"><stop offset=".124" stop-color="#f7e041" stop-opacity="0"/><stop offset=".468" stop-color="#f7e041"/><stop offset=".796" stop-color="#f7e041" stop-opacity="0"/></linearGradient><path d="M914.8 215.9l-22.4 13 3.8 2.2 22.4-13-3.8-2.2z" fill="url(#SVGID_20_)"/><path class="st21" d="M1152.9 217.5l-34.9-20.1 40.3-23.3 34.9 20.2-40.3 23.2zm-90.9 2.4l-34.9-20.1 40.3-23.3 34.9 20.1-40.3 23.3zm43.4 25.1l-34.9-20.2 40.3-23.3 34.9 20.2-40.3 23.3z"/><linearGradient id="SVGID_21_" gradientUnits="userSpaceOnUse" x1="1080.258" y1="172.238" x2="1140.648" y2="67.65" gradientTransform="matrix(1 0 0 -1 0 302)"><stop offset="0" stop-color="#305eff"/><stop offset=".725" stop-color="#8731f1"/><stop offset="1" stop-color="#a91feb"/></linearGradient><path d="M1085.3 246.8l-88.8-51.3c-6.3-3.6-6.3-12.7 0-16.3l107.2-61.9c9.9-5.7 22-5.7 31.9 0l88.8 51.3c6.3 3.6 6.3 12.7 0 16.3l-107.2 61.9c-9.8 5.7-22 5.7-31.9 0h0z" fill="none" stroke="url(#SVGID_21_)" stroke-width="2.188" stroke-miterlimit="10"/><linearGradient id="SVGID_22_" gradientUnits="userSpaceOnUse" x1="1080.256" y1="191.043" x2="1140.646" y2="86.455" gradientTransform="matrix(1 0 0 -1 0 302)"><stop offset="0" stop-color="#a91feb"/><stop offset=".275" stop-color="#8731f1"/><stop offset="1" stop-color="#305eff"/></linearGradient><path d="M996.5 176.7c-6.3-3.6-6.3-12.7 0-16.3l107.2-61.9c9.9-5.7 22-5.7 31.9 0l88.8 51.3c6.3 3.6 6.3 12.7 0 16.3" fill="none" stroke="url(#SVGID_22_)" stroke-width="2.188" stroke-miterlimit="10"/><linearGradient id="SVGID_23_" gradientUnits="userSpaceOnUse" x1="1074.6" y1="155.4" x2="1149.8" y2="155.4" gradientTransform="matrix(1 0 0 -1 0 302)"><stop offset="0" stop-color="#305eff"/><stop offset=".725" stop-color="#8731f1"/><stop offset="1" stop-color="#a91feb"/></linearGradient><path d="M1109.5 168.3l-34.9-20.2 40.3-23.2 34.9 20.1-40.3 23.3z" fill="url(#SVGID_23_)"/><path class="st25" d="M1110.4 161.3l-23.7-13.7 27.4-15.8 23.7 13.7-27.4 15.8z"/><linearGradient id="SVGID_24_" gradientUnits="userSpaceOnUse" x1="1114.918" y1="161.364" x2="1075.188" y2="119.296" gradientTransform="matrix(1 0 0 -1 0 302)"><stop offset="0" stop-color="#163fd0"/><stop offset="1" stop-color="#a91feb"/></linearGradient><path d="M1074.6 148.1v13.4l34.9 20.1v-13.3l-34.9-20.2z" fill="url(#SVGID_24_)"/><linearGradient id="SVGID_25_" gradientUnits="userSpaceOnUse" x1="1138.418" y1="124.528" x2="1120.238" y2="153.912" gradientTransform="matrix(1 0 0 -1 0 302)"><stop offset="0" stop-color="#1c0eac"/><stop offset="1" stop-color="#a91feb"/></linearGradient><path d="M1109.5 181.6l40.3-23.3V145l-40.3 23.3v13.3z" fill="url(#SVGID_25_)"/><path class="st28" d="M1106.1 161.8h17v20.6h-17v-20.6z"/><path class="st29" d="M1116.5 173.5l-3.8 2.2v-5l3.8-2.2v5z"/><path class="st28" d="M1071.1 146.2h42v37.7h-42v-37.7z"/><path class="st29" d="M1077.7 152.8v7.7l28.7 16.6v-7.7l-28.7-16.6z"/><path class="st30" d="M1119.6 164.4v10m2.9-8.4l24.8-14.3v4.5l-24.8 14.4V166z"/><linearGradient id="SVGID_26_" gradientUnits="userSpaceOnUse" x1="1074.6" y1="173.25" x2="1149.8" y2="173.25" gradientTransform="matrix(1 0 0 -1 0 302)"><stop offset="0" stop-color="#305eff"/><stop offset=".725" stop-color="#8731f1"/><stop offset="1" stop-color="#a91feb"/></linearGradient><path d="M1109.5 150.5l-34.9-20.2 40.3-23.3 34.9 20.2-40.3 23.3z" fill="url(#SVGID_26_)"/><path class="st25" d="M1110.4 143.5l-23.7-13.7 27.4-15.8 23.7 13.7-27.4 15.8z"/><linearGradient id="SVGID_27_" gradientUnits="userSpaceOnUse" x1="1114.94" y1="179.188" x2="1075.21" y2="137.119" gradientTransform="matrix(1 0 0 -1 0 302)"><stop offset="0" stop-color="#163fd0"/><stop offset="1" stop-color="#a91feb"/></linearGradient><path d="M1074.6 130.3v13.3l34.9 20.2v-13.3l-34.9-20.2z" fill="url(#SVGID_27_)"/><linearGradient id="SVGID_28_" gradientUnits="userSpaceOnUse" x1="1138.399" y1="142.359" x2="1120.218" y2="171.744" gradientTransform="matrix(1 0 0 -1 0 302)"><stop offset="0" stop-color="#1c0eac"/><stop offset="1" stop-color="#a91feb"/></linearGradient><path d="M1109.5 163.8l40.3-23.3v-13.3l-40.3 23.3v13.3z" fill="url(#SVGID_28_)"/><path class="st28" d="M1106.1 144h17v20.6h-17V144z"/><path class="st29" d="M1116.5 155.7l-3.8 2.1v-5l3.8-2.1v5z"/><path class="st28" d="M1071.1 128.2h42v37.7h-42v-37.7z"/><path class="st29" d="M1077.7 135v7.7l28.7 16.5v-7.6l-28.7-16.6z"/><path class="st30" d="M1119.6 146.6v9.9m2.9-8.3l24.8-14.4v4.6l-24.8 14.3v-4.5z"/><linearGradient id="SVGID_29_" gradientUnits="userSpaceOnUse" x1="1074.6" y1="191.1" x2="1149.8" y2="191.1" gradientTransform="matrix(1 0 0 -1 0 302)"><stop offset="0" stop-color="#305eff"/><stop offset=".725" stop-color="#8731f1"/><stop offset="1" stop-color="#a91feb"/></linearGradient><path d="M1109.5 132.6l-34.9-20.2 40.3-23.2 34.9 20.1-40.3 23.3z" fill="url(#SVGID_29_)"/><path class="st25" d="M1110.4 125.6l-23.7-13.7 27.4-15.8 23.7 13.7-27.4 15.8z"/><linearGradient id="SVGID_30_" gradientUnits="userSpaceOnUse" x1="1114.913" y1="197.058" x2="1075.183" y2="154.991" gradientTransform="matrix(1 0 0 -1 0 302)"><stop offset="0" stop-color="#163fd0"/><stop offset="1" stop-color="#a91feb"/></linearGradient><path d="M1074.6 112.4v13.4l34.9 20.1v-13.3l-34.9-20.2z" fill="url(#SVGID_30_)"/><linearGradient id="SVGID_31_" gradientUnits="userSpaceOnUse" x1="1138.423" y1="160.22" x2="1120.243" y2="189.605" gradientTransform="matrix(1 0 0 -1 0 302)"><stop offset="0" stop-color="#1c0eac"/><stop offset="1" stop-color="#a91feb"/></linearGradient><path d="M1109.5 145.9l40.3-23.3v-13.3l-40.3 23.3v13.3z" fill="url(#SVGID_31_)"/><path class="st28" d="M1106.1 126h17v20.6h-17V126z"/><path class="st29" d="M1116.5 137.8l-3.8 2.2v-5l3.8-2.2v5z"/><path class="st28" d="M1071.1 110.4h42v37.7h-42v-37.7z"/><path class="st29" d="M1077.7 117.2v7.6l28.7 16.6v-7.7l-28.7-16.5z"/><path class="st30" d="M1119.6 128.8v9.9m2.9-8.4l24.8-14.3v4.6l-24.8 14.3v-4.6z"/><linearGradient id="SVGID_32_" gradientUnits="userSpaceOnUse" x1="1074.6" y1="208.95" x2="1149.8" y2="208.95" gradientTransform="matrix(1 0 0 -1 0 302)"><stop offset="0" stop-color="#305eff"/><stop offset=".725" stop-color="#8731f1"/><stop offset="1" stop-color="#a91feb"/></linearGradient><path d="M1109.5 114.8l-34.9-20.2 40.3-23.3 34.9 20.2-40.3 23.3z" fill="url(#SVGID_32_)"/><path class="st25" d="M1110.4 107.8l-23.7-13.7 27.4-15.8 23.7 13.7-27.4 15.8z"/><linearGradient id="SVGID_33_" gradientUnits="userSpaceOnUse" x1="1114.935" y1="214.882" x2="1075.205" y2="172.814" gradientTransform="matrix(1 0 0 -1 0 302)"><stop offset="0" stop-color="#163fd0"/><stop offset="1" stop-color="#a91feb"/></linearGradient><path d="M1074.6 94.6v13.3l34.9 20.2v-13.3l-34.9-20.2z" fill="url(#SVGID_33_)"/><linearGradient id="SVGID_34_" gradientUnits="userSpaceOnUse" x1="1138.403" y1="178.052" x2="1120.223" y2="207.437" gradientTransform="matrix(1 0 0 -1 0 302)"><stop offset="0" stop-color="#1c0eac"/><stop offset="1" stop-color="#a91feb"/></linearGradient><path d="M1109.5 128.1l40.3-23.3V91.5l-40.3 23.3v13.3z" fill="url(#SVGID_34_)"/><path class="st28" d="M1106.1 108.3h17v20.6h-17v-20.6z"/><path class="st29" d="M1116.5 120l-3.8 2.2v-5.1l3.8-2.1v5z"/><path class="st28" d="M1071.1 92.7h42v37.7h-42V92.7z"/><path class="st29" d="M1077.7 99.3v7.7l28.7 16.5v-7.6l-28.7-16.6z"/><path class="st30" d="M1119.6 110.9v10m2.9-8.4l24.8-14.4v4.6l-24.8 14.3v-4.5z"/><linearGradient id="SVGID_35_" gradientUnits="userSpaceOnUse" x1="1030.041" y1="137.049" x2="1101.501" y2="321.083" gradientTransform="matrix(1 0 0 -1 0 302)"><stop offset="0" stop-color="#fdde10"/><stop offset="1" stop-color="#fdde10" stop-opacity="0"/></linearGradient><path d="M1086.7 94.1L1028.4-42h164l-54.6 134-27.4 15.8-23.7-13.7z" fill="url(#SVGID_35_)"/><linearGradient id="SVGID_36_" gradientUnits="userSpaceOnUse" x1="1234.042" y1="55.464" x2="1131.211" y2="321.29" gradientTransform="matrix(1 0 0 -1 0 302)"><stop offset="0" stop-color="#fdde10"/><stop offset="1" stop-color="#fdde10" stop-opacity="0"/></linearGradient><path d="M1110.4 107.8V-42h82l-54.6 134-27.4 15.8z" fill="url(#SVGID_36_)"/><linearGradient id="SVGID_37_" gradientUnits="userSpaceOnUse" x1="1118" y1="130" x2="1193.2" y2="130" gradientTransform="matrix(1 0 0 -1 0 302)"><stop offset="0" stop-color="#305eff"/><stop offset=".725" stop-color="#8731f1"/><stop offset="1" stop-color="#a91feb"/></linearGradient><path d="M1152.9 193.7l-34.9-20.1 40.3-23.3 34.9 20.1-40.3 23.3z" fill="url(#SVGID_37_)"/><path class="st25" d="M1153.8 186.7l-23.8-13.6 27.4-15.9 23.7 13.7-27.3 15.8z"/><linearGradient id="SVGID_38_" gradientUnits="userSpaceOnUse" x1="1158.314" y1="135.909" x2="1118.584" y2="93.842" gradientTransform="matrix(1 0 0 -1 0 302)"><stop offset="0" stop-color="#163fd0"/><stop offset="1" stop-color="#a91feb"/></linearGradient><path d="M1118 173.6v13.3l34.9 20.1v-13.3l-34.9-20.1z" fill="url(#SVGID_38_)"/><linearGradient id="SVGID_39_" gradientUnits="userSpaceOnUse" x1="1181.813" y1="99.129" x2="1163.643" y2="128.514" gradientTransform="matrix(1 0 0 -1 0 302)"><stop offset="0" stop-color="#1c0eac"/><stop offset="1" stop-color="#a91feb"/></linearGradient><path d="M1152.9 207l40.3-23.2v-13.4l-40.3 23.3V207z" fill="url(#SVGID_39_)"/><path class="st28" d="M1149.3 187.2h17.3v20.6h-17.3v-20.6z"/><path class="st45" d="M1159.8 198.9l-3.7 2.2v-5l3.7-2.2v5z"/><path class="st28" d="M1114.5 171.6h42v37.7h-42v-37.7z"/><path class="st45" d="M1121.1 178.3v7.6l28.6 16.6v-7.7l-28.6-16.5z"/><path class="st30" d="M1162.9 189.9v9.9m2.9-8.4l24.8-14.3v4.6l-24.8 14.3v-4.6z"/><linearGradient id="SVGID_40_" gradientUnits="userSpaceOnUse" x1="1118" y1="147.85" x2="1193.2" y2="147.85" gradientTransform="matrix(1 0 0 -1 0 302)"><stop offset="0" stop-color="#305eff"/><stop offset=".725" stop-color="#8731f1"/><stop offset="1" stop-color="#a91feb"/></linearGradient><path d="M1152.9 175.9l-34.9-20.2 40.3-23.3 34.9 20.2-40.3 23.3z" fill="url(#SVGID_40_)"/><path class="st25" d="M1153.8 168.9l-23.8-13.7 27.4-15.8 23.7 13.7-27.3 15.8z"/><linearGradient id="SVGID_41_" gradientUnits="userSpaceOnUse" x1="1158.312" y1="153.757" x2="1118.582" y2="111.69" gradientTransform="matrix(1 0 0 -1 0 302)"><stop offset="0" stop-color="#163fd0"/><stop offset="1" stop-color="#a91feb"/></linearGradient><path d="M1118 155.7V169l34.9 20.2v-13.3l-34.9-20.2z" fill="url(#SVGID_41_)"/><linearGradient id="SVGID_42_" gradientUnits="userSpaceOnUse" x1="1181.793" y1="116.962" x2="1163.623" y2="146.346" gradientTransform="matrix(1 0 0 -1 0 302)"><stop offset="0" stop-color="#1c0eac"/><stop offset="1" stop-color="#a91feb"/></linearGradient><path d="M1152.9 189.2l40.3-23.3v-13.3l-40.3 23.3v13.3z" fill="url(#SVGID_42_)"/><path class="st28" d="M1149.3 169.5h17.3v20.6h-17.3v-20.6z"/><path class="st45" d="M1159.8 181.1l-3.7 2.2v-5.1l3.7-2.1v5z"/><path class="st28" d="M1114.5 153.6h42v37.7h-42v-37.7z"/><path class="st45" d="M1121.1 160.4v7.7l28.6 16.5V177l-28.6-16.6z"/><path class="st30" d="M1162.9 172v10m2.9-8.4l24.8-14.3v4.5l-24.8 14.3v-4.5z"/><linearGradient id="SVGID_43_" gradientUnits="userSpaceOnUse" x1="1118" y1="165.7" x2="1193.2" y2="165.7" gradientTransform="matrix(1 0 0 -1 0 302)"><stop offset="0" stop-color="#305eff"/><stop offset=".725" stop-color="#8731f1"/><stop offset="1" stop-color="#a91feb"/></linearGradient><path d="M1152.9 158l-34.9-20.1 40.3-23.3 34.9 20.2-40.3 23.2z" fill="url(#SVGID_43_)"/><path class="st25" d="M1153.8 151.1l-23.8-13.7 27.4-15.8 23.7 13.7-27.3 15.8z"/><linearGradient id="SVGID_44_" gradientUnits="userSpaceOnUse" x1="1158.309" y1="171.604" x2="1118.579" y2="129.537" gradientTransform="matrix(1 0 0 -1 0 302)"><stop offset="0" stop-color="#163fd0"/><stop offset="1" stop-color="#a91feb"/></linearGradient><path d="M1118 137.9v13.3l34.9 20.1V158l-34.9-20.1z" fill="url(#SVGID_44_)"/><linearGradient id="SVGID_45_" gradientUnits="userSpaceOnUse" x1="1181.795" y1="134.807" x2="1163.625" y2="164.192" gradientTransform="matrix(1 0 0 -1 0 302)"><stop offset="0" stop-color="#1c0eac"/><stop offset="1" stop-color="#a91feb"/></linearGradient><path d="M1152.9 171.3l40.3-23.2v-13.3l-40.3 23.2v13.3z" fill="url(#SVGID_45_)"/><path class="st28" d="M1149.3 151.5h17.3v20.6h-17.3v-20.6z"/><path class="st45" d="M1159.8 163.2l-3.7 2.2v-5l3.7-2.2v5z"/><path class="st28" d="M1114.5 135.9h42v37.7h-42v-37.7z"/><path class="st45" d="M1121.1 142.6v7.6l28.6 16.6v-7.7l-28.6-16.5z"/><path class="st30" d="M1162.9 154.2v9.9m2.9-8.4l24.8-14.3v4.6l-24.8 14.3v-4.6z"/><linearGradient id="SVGID_46_" gradientUnits="userSpaceOnUse" x1="1118" y1="183.55" x2="1193.2" y2="183.55" gradientTransform="matrix(1 0 0 -1 0 302)"><stop offset="0" stop-color="#305eff"/><stop offset=".725" stop-color="#8731f1"/><stop offset="1" stop-color="#a91feb"/></linearGradient><path d="M1152.9 140.2L1118 120l40.3-23.3 34.9 20.2-40.3 23.3z" fill="url(#SVGID_46_)"/><path class="st25" d="M1153.8 133.2l-23.8-13.7 27.4-15.8 23.7 13.7-27.3 15.8z"/><linearGradient id="SVGID_47_" gradientUnits="userSpaceOnUse" x1="1158.307" y1="189.451" x2="1118.577" y2="147.384" gradientTransform="matrix(1 0 0 -1 0 302)"><stop offset="0" stop-color="#163fd0"/><stop offset="1" stop-color="#a91feb"/></linearGradient><path d="M1118 120v13.3l34.9 20.2v-13.3L1118 120z" fill="url(#SVGID_47_)"/><linearGradient id="SVGID_48_" gradientUnits="userSpaceOnUse" x1="1181.797" y1="152.654" x2="1163.627" y2="182.038" gradientTransform="matrix(1 0 0 -1 0 302)"><stop offset="0" stop-color="#1c0eac"/><stop offset="1" stop-color="#a91feb"/></linearGradient><path d="M1152.9 153.5l40.3-23.3v-13.3l-40.3 23.3v13.3z" fill="url(#SVGID_48_)"/><path class="st28" d="M1149.3 133.7h17.3v20.6h-17.3v-20.6z"/><path class="st45" d="M1159.8 145.4l-3.7 2.2v-5l3.7-2.2v5z"/><path class="st28" d="M1114.5 118.1h42v37.7h-42v-37.7z"/><path class="st45" d="M1121.1 124.7v7.7l28.6 16.5v-7.6l-28.6-16.6z"/><path class="st30" d="M1162.9 136.3v10m2.9-8.4l24.8-14.3v4.5l-24.8 14.4v-4.6z"/><linearGradient id="SVGID_49_" gradientUnits="userSpaceOnUse" x1="1073.397" y1="111.635" x2="1144.847" y2="295.669" gradientTransform="matrix(1 0 0 -1 0 302)"><stop offset="0" stop-color="#63dcff"/><stop offset="1" stop-color="#63dcff" stop-opacity="0"/></linearGradient><path d="M1130 119.5l-58.3-136.1h164.1l-54.7 134-27.3 15.8-23.8-13.7z" fill="url(#SVGID_49_)"/><linearGradient id="SVGID_50_" gradientUnits="userSpaceOnUse" x1="1282.476" y1="17.047" x2="1179.646" y2="282.874" gradientTransform="matrix(1 0 0 -1 0 302)"><stop offset="0" stop-color="#63dcff"/><stop offset="1" stop-color="#63dcff" stop-opacity="0"/></linearGradient><path d="M1153.8 133.2V-16.6h82l-54.7 134-27.3 15.8z" fill="url(#SVGID_50_)"/><linearGradient id="SVGID_51_" gradientUnits="userSpaceOnUse" x1="1027.1" y1="127.6" x2="1102.3" y2="127.6" gradientTransform="matrix(1 0 0 -1 0 302)"><stop offset="0" stop-color="#305eff"/><stop offset=".725" stop-color="#8731f1"/><stop offset="1" stop-color="#a91feb"/></linearGradient><path d="M1062 196.1l-34.9-20.2 40.3-23.2 34.9 20.1-40.3 23.3z" fill="url(#SVGID_51_)"/><path class="st25" d="M1062.9 189.1l-23.7-13.7 27.3-15.8 23.8 13.7-27.4 15.8z"/><linearGradient id="SVGID_52_" gradientUnits="userSpaceOnUse" x1="1067.412" y1="133.557" x2="1027.682" y2="91.49" gradientTransform="matrix(1 0 0 -1 0 302)"><stop offset="0" stop-color="#163fd0"/><stop offset="1" stop-color="#a91feb"/></linearGradient><path d="M1027.1 175.9v13.3l34.9 20.2v-13.3l-34.9-20.2z" fill="url(#SVGID_52_)"/><linearGradient id="SVGID_53_" gradientUnits="userSpaceOnUse" x1="1090.912" y1="96.737" x2="1072.732" y2="126.122" gradientTransform="matrix(1 0 0 -1 0 302)"><stop offset="0" stop-color="#1c0eac"/><stop offset="1" stop-color="#a91feb"/></linearGradient><path d="M1062 209.4l40.3-23.3v-13.3l-40.3 23.3v13.3z" fill="url(#SVGID_53_)"/><path class="st28" d="M1058.6 189.6h17v20.6h-17v-20.6z"/><path class="st45" d="M1069 201.3l-3.8 2.2v-5l3.8-2.2v5z"/><path class="st28" d="M1023.5 174h42v37.7h-42V174z"/><path class="st45" d="M1030.2 180.6v7.7l28.7 16.6v-7.7l-28.7-16.6z"/><path class="st30" d="M1072 192.2v10m3-8.4l24.7-14.3v4.5l-24.7 14.4v-4.6z"/><linearGradient id="SVGID_54_" gradientUnits="userSpaceOnUse" x1="1027.1" y1="145.5" x2="1102.3" y2="145.5" gradientTransform="matrix(1 0 0 -1 0 302)"><stop offset="0" stop-color="#305eff"/><stop offset=".725" stop-color="#8731f1"/><stop offset="1" stop-color="#a91feb"/></linearGradient><path d="M1062 178.2l-34.9-20.1 40.3-23.3 34.9 20.2-40.3 23.2z" fill="url(#SVGID_54_)"/><path class="st25" d="M1062.9 171.3l-23.7-13.7 27.3-15.8 23.8 13.7-27.4 15.8z"/><linearGradient id="SVGID_55_" gradientUnits="userSpaceOnUse" x1="1067.435" y1="151.381" x2="1027.705" y2="109.314" gradientTransform="matrix(1 0 0 -1 0 302)"><stop offset="0" stop-color="#163fd0"/><stop offset="1" stop-color="#a91feb"/></linearGradient><path d="M1027.1 158.1v13.3l34.9 20.2v-13.4l-34.9-20.1z" fill="url(#SVGID_55_)"/><linearGradient id="SVGID_56_" gradientUnits="userSpaceOnUse" x1="1090.892" y1="114.57" x2="1072.712" y2="143.954" gradientTransform="matrix(1 0 0 -1 0 302)"><stop offset="0" stop-color="#1c0eac"/><stop offset="1" stop-color="#a91feb"/></linearGradient><path d="M1062 191.6l40.3-23.3V155l-40.3 23.2v13.4z" fill="url(#SVGID_56_)"/><path class="st28" d="M1058.6 171.9h17v20.4h-17v-20.4z"/><path class="st45" d="M1069 183.5l-3.8 2.1v-5l3.8-2.2v5.1z"/><path class="st28" d="M1023.5 156h42v37.7h-42V156z"/><path class="st45" d="M1030.2 162.8v7.6l28.7 16.6v-7.7l-28.7-16.5z"/><path class="st30" d="M1072 174.4v9.9m3-8.4l24.7-14.3v4.6l-24.7 14.3v-4.6z"/><linearGradient id="SVGID_57_" gradientUnits="userSpaceOnUse" x1="1027.1" y1="163.3" x2="1102.3" y2="163.3" gradientTransform="matrix(1 0 0 -1 0 302)"><stop offset="0" stop-color="#305eff"/><stop offset=".725" stop-color="#8731f1"/><stop offset="1" stop-color="#a91feb"/></linearGradient><path d="M1062 160.4l-34.9-20.2 40.3-23.2 34.9 20.1-40.3 23.3z" fill="url(#SVGID_57_)"/><path class="st25" d="M1062.9 153.4l-23.7-13.7 27.3-15.8 23.8 13.7-27.4 15.8z"/><linearGradient id="SVGID_58_" gradientUnits="userSpaceOnUse" x1="1067.407" y1="169.251" x2="1027.677" y2="127.184" gradientTransform="matrix(1 0 0 -1 0 302)"><stop offset="0" stop-color="#163fd0"/><stop offset="1" stop-color="#a91feb"/></linearGradient><path d="M1027.1 140.2v13.4l34.9 20.1v-13.3l-34.9-20.2z" fill="url(#SVGID_58_)"/><linearGradient id="SVGID_59_" gradientUnits="userSpaceOnUse" x1="1090.917" y1="132.429" x2="1072.737" y2="161.814" gradientTransform="matrix(1 0 0 -1 0 302)"><stop offset="0" stop-color="#1c0eac"/><stop offset="1" stop-color="#a91feb"/></linearGradient><path d="M1062 173.7l40.3-23.3v-13.3l-40.3 23.3v13.3z" fill="url(#SVGID_59_)"/><path class="st28" d="M1058.6 153.9h17v20.6h-17v-20.6z"/><path class="st45" d="M1069 165.6l-3.8 2.2v-5l3.8-2.2v5z"/><path class="st28" d="M1023.5 138.3h42V176h-42v-37.7z"/><path class="st45" d="M1030.2 144.9v7.7l28.7 16.6v-7.7l-28.7-16.6z"/><path class="st30" d="M1072 156.5v10m3-8.4l24.7-14.3v4.6l-24.7 14.3v-4.6z"/><linearGradient id="SVGID_60_" gradientUnits="userSpaceOnUse" x1="1027.1" y1="181.15" x2="1102.3" y2="181.15" gradientTransform="matrix(1 0 0 -1 0 302)"><stop offset="0" stop-color="#305eff"/><stop offset=".725" stop-color="#8731f1"/><stop offset="1" stop-color="#a91feb"/></linearGradient><path d="M1062 142.6l-34.9-20.2 40.3-23.3 34.9 20.2-40.3 23.3z" fill="url(#SVGID_60_)"/><path class="st25" d="M1062.9 135.6l-23.7-13.7 27.3-15.8 23.8 13.7-27.4 15.8z"/><linearGradient id="SVGID_61_" gradientUnits="userSpaceOnUse" x1="1067.429" y1="187.076" x2="1027.699" y2="145.009" gradientTransform="matrix(1 0 0 -1 0 302)"><stop offset="0" stop-color="#163fd0"/><stop offset="1" stop-color="#a91feb"/></linearGradient><path d="M1027.1 122.4v13.3l34.9 20.2v-13.3l-34.9-20.2z" fill="url(#SVGID_61_)"/><linearGradient id="SVGID_62_" gradientUnits="userSpaceOnUse" x1="1090.897" y1="150.263" x2="1072.717" y2="179.647" gradientTransform="matrix(1 0 0 -1 0 302)"><stop offset="0" stop-color="#1c0eac"/><stop offset="1" stop-color="#a91feb"/></linearGradient><path d="M1062 155.9l40.3-23.3v-13.3l-40.3 23.3v13.3z" fill="url(#SVGID_62_)"/><path class="st28" d="M1058.6 136.1h17v20.6h-17v-20.6z"/><path class="st45" d="M1069 147.8l-3.8 2.2v-5.1l3.8-2.1v5z"/><path class="st28" d="M1023.5 120.5h42V158h-42v-37.5z"/><path class="st45" d="M1030.2 127.1v7.7l28.7 16.5v-7.6l-28.7-16.6z"/><path class="st30" d="M1072 138.7v10m3-8.4l24.7-14.4v4.6l-24.7 14.3v-4.5z"/><linearGradient id="SVGID_63_" gradientUnits="userSpaceOnUse" x1="978.991" y1="100.233" x2="1050.45" y2="284.267" gradientTransform="matrix(1 0 0 -1 0 302)"><stop offset="0" stop-color="#63dcff"/><stop offset="1" stop-color="#63dcff" stop-opacity="0"/></linearGradient><path d="M1039.2 121.9L980.8-14.2h164.1l-54.6 134-27.4 15.8-23.7-13.7z" fill="url(#SVGID_63_)"/><linearGradient id="SVGID_64_" gradientUnits="userSpaceOnUse" x1="1186.686" y1="27.29" x2="1083.855" y2="293.117" gradientTransform="matrix(1 0 0 -1 0 302)"><stop offset="0" stop-color="#63dcff"/><stop offset="1" stop-color="#63dcff" stop-opacity="0"/></linearGradient><path d="M1062.9 135.6V-14.2h82l-54.6 134-27.4 15.8z" fill="url(#SVGID_64_)"/><linearGradient id="SVGID_65_" gradientUnits="userSpaceOnUse" x1="1070.5" y1="102.55" x2="1145.7" y2="102.55" gradientTransform="matrix(1 0 0 -1 0 302)"><stop offset="0" stop-color="#305eff"/><stop offset=".725" stop-color="#8731f1"/><stop offset="1" stop-color="#a91feb"/></linearGradient><path d="M1105.4 221.2l-34.9-20.2 40.3-23.3 34.9 20.2-40.3 23.3z" fill="url(#SVGID_65_)"/><path class="st25" d="M1106.3 214.2l-23.7-13.7 27.3-15.8 23.7 13.7-27.3 15.8z"/><linearGradient id="SVGID_66_" gradientUnits="userSpaceOnUse" x1="1110.83" y1="108.477" x2="1071.1" y2="66.409" gradientTransform="matrix(1 0 0 -1 0 302)"><stop offset="0" stop-color="#163fd0"/><stop offset="1" stop-color="#a91feb"/></linearGradient><path d="M1070.5 201v13.3l34.9 20.2v-13.3l-34.9-20.2z" fill="url(#SVGID_66_)"/><linearGradient id="SVGID_67_" gradientUnits="userSpaceOnUse" x1="1134.294" y1="71.667" x2="1116.114" y2="101.052" gradientTransform="matrix(1 0 0 -1 0 302)"><stop offset="0" stop-color="#1c0eac"/><stop offset="1" stop-color="#a91feb"/></linearGradient><path d="M1105.4 234.5l40.3-23.3v-13.3l-40.3 23.3v13.3z" fill="url(#SVGID_67_)"/><path class="st28" d="M1102 214.6h17v20.6h-17v-20.6z"/><path class="st29" d="M1112.4 226.4l-3.8 2.2v-5.1l3.8-2.1v5z"/><path class="st28" d="M1067 199h42v37.7h-42V199z"/><path class="st29" d="M1073.6 205.7v7.7l28.6 16.5v-7.6l-28.6-16.6z"/><path class="st30" d="M1115.4 217.3v10m2.9-8.4l24.8-14.4v4.6l-24.8 14.3v-4.5z"/><linearGradient id="SVGID_68_" gradientUnits="userSpaceOnUse" x1="1070.5" y1="120.4" x2="1145.7" y2="120.4" gradientTransform="matrix(1 0 0 -1 0 302)"><stop offset="0" stop-color="#305eff"/><stop offset=".725" stop-color="#8731f1"/><stop offset="1" stop-color="#a91feb"/></linearGradient><path d="M1105.4 203.3l-34.9-20.1 40.3-23.3 34.9 20.1-40.3 23.3z" fill="url(#SVGID_68_)"/><path class="st25" d="M1106.3 196.3l-23.7-13.6 27.3-15.9 23.7 13.7-27.3 15.8z"/><linearGradient id="SVGID_69_" gradientUnits="userSpaceOnUse" x1="1110.827" y1="126.323" x2="1071.097" y2="84.256" gradientTransform="matrix(1 0 0 -1 0 302)"><stop offset="0" stop-color="#163fd0"/><stop offset="1" stop-color="#a91feb"/></linearGradient><path d="M1070.5 183.2v13.3l34.9 20.1v-13.3l-34.9-20.1z" fill="url(#SVGID_69_)"/><linearGradient id="SVGID_70_" gradientUnits="userSpaceOnUse" x1="1134.319" y1="89.527" x2="1116.138" y2="118.912" gradientTransform="matrix(1 0 0 -1 0 302)"><stop offset="0" stop-color="#1c0eac"/><stop offset="1" stop-color="#a91feb"/></linearGradient><path d="M1105.4 216.6l40.3-23.2V180l-40.3 23.3v13.3z" fill="url(#SVGID_70_)"/><path class="st28" d="M1102 196.8h17v20.6h-17v-20.6z"/><path class="st29" d="M1112.4 208.5l-3.8 2.2v-5l3.8-2.2v5z"/><path class="st28" d="M1067 181.2h42v37.7h-42v-37.7z"/><path class="st29" d="M1073.6 187.9v7.6l28.6 16.6v-7.7l-28.6-16.5z"/><path class="st30" d="M1115.4 199.5v9.9m2.9-8.4l24.8-14.3v4.6l-24.8 14.3V201z"/><linearGradient id="SVGID_71_" gradientUnits="userSpaceOnUse" x1="1070.5" y1="138.25" x2="1145.7" y2="138.25" gradientTransform="matrix(1 0 0 -1 0 302)"><stop offset="0" stop-color="#305eff"/><stop offset=".725" stop-color="#8731f1"/><stop offset="1" stop-color="#a91feb"/></linearGradient><path d="M1105.4 185.5l-34.9-20.2 40.3-23.3 34.9 20.2-40.3 23.3z" fill="url(#SVGID_71_)"/><path class="st25" d="M1106.3 178.5l-23.7-13.7 27.3-15.8 23.7 13.7-27.3 15.8z"/><linearGradient id="SVGID_72_" gradientUnits="userSpaceOnUse" x1="1110.825" y1="144.17" x2="1071.095" y2="102.103" gradientTransform="matrix(1 0 0 -1 0 302)"><stop offset="0" stop-color="#163fd0"/><stop offset="1" stop-color="#a91feb"/></linearGradient><path d="M1070.5 165.3v13.3l34.9 20.2v-13.3l-34.9-20.2z" fill="url(#SVGID_72_)"/><linearGradient id="SVGID_73_" gradientUnits="userSpaceOnUse" x1="1134.298" y1="107.36" x2="1116.118" y2="136.745" gradientTransform="matrix(1 0 0 -1 0 302)"><stop offset="0" stop-color="#1c0eac"/><stop offset="1" stop-color="#a91feb"/></linearGradient><path d="M1105.4 198.8l40.3-23.3v-13.3l-40.3 23.3v13.3z" fill="url(#SVGID_73_)"/><path class="st28" d="M1102 179.1h17v20.6h-17v-20.6z"/><path class="st29" d="M1112.4 190.7l-3.8 2.2v-5.1l3.8-2.1v5z"/><path class="st28" d="M1067 163.2h42v37.7h-42v-37.7z"/><path class="st29" d="M1073.6 170v7.7l28.6 16.5v-7.6l-28.6-16.6z"/><path class="st30" d="M1115.4 181.6v10m2.9-8.4l24.8-14.4v4.6l-24.8 14.3v-4.5z"/><linearGradient id="SVGID_74_" gradientUnits="userSpaceOnUse" x1="1070.5" y1="156.1" x2="1145.7" y2="156.1" gradientTransform="matrix(1 0 0 -1 0 302)"><stop offset="0" stop-color="#305eff"/><stop offset=".725" stop-color="#8731f1"/><stop offset="1" stop-color="#a91feb"/></linearGradient><path d="M1105.4 167.6l-34.9-20.1 40.3-23.3 34.9 20.1-40.3 23.3z" fill="url(#SVGID_74_)"/><path class="st25" d="M1106.3 160.7l-23.7-13.7 27.3-15.8 23.7 13.6-27.3 15.9z"/><linearGradient id="SVGID_75_" gradientUnits="userSpaceOnUse" x1="1110.822" y1="162.018" x2="1071.092" y2="119.951" gradientTransform="matrix(1 0 0 -1 0 302)"><stop offset="0" stop-color="#163fd0"/><stop offset="1" stop-color="#a91feb"/></linearGradient><path d="M1070.5 147.5v13.3l34.9 20.1v-13.3l-34.9-20.1z" fill="url(#SVGID_75_)"/><linearGradient id="SVGID_76_" gradientUnits="userSpaceOnUse" x1="1134.323" y1="125.22" x2="1116.143" y2="154.605" gradientTransform="matrix(1 0 0 -1 0 302)"><stop offset="0" stop-color="#1c0eac"/><stop offset="1" stop-color="#a91feb"/></linearGradient><path d="M1105.4 180.9l40.3-23.2v-13.4l-40.3 23.3v13.3z" fill="url(#SVGID_76_)"/><path class="st28" d="M1102 161.1h17v20.6h-17v-20.6z"/><path class="st29" d="M1112.4 172.8l-3.8 2.2v-5l3.8-2.2v5z"/><path class="st28" d="M1067 145.5h42v37.7h-42v-37.7z"/><path class="st29" d="M1073.6 152.2v7.6l28.6 16.6v-7.7l-28.6-16.5z"/><path class="st30" d="M1115.4 163.8v9.9m2.9-8.4l24.8-14.3v4.6l-24.8 14.3v-4.6z"/><linearGradient id="SVGID_77_" gradientUnits="userSpaceOnUse" x1="1025.91" y1="84.196" x2="1097.37" y2="268.23" gradientTransform="matrix(1 0 0 -1 0 302)"><stop offset="0" stop-color="#fdde10"/><stop offset="1" stop-color="#fdde10" stop-opacity="0"/></linearGradient><path d="M1082.6 147l-58.4-136.1h164.1l-54.7 133.9-27.3 15.9-23.7-13.7z" fill="url(#SVGID_77_)"/><linearGradient id="SVGID_78_" gradientUnits="userSpaceOnUse" x1="1230.98" y1="-.122" x2="1128.15" y2="265.705" gradientTransform="matrix(1 0 0 -1 0 302)"><stop offset="0" stop-color="#fdde10"/><stop offset="1" stop-color="#fdde10" stop-opacity="0"/></linearGradient><path d="M1106.3 160.7V10.9h82l-54.7 133.9-27.3 15.9z" fill="url(#SVGID_78_)"/><linearGradient id="SVGID_79_" gradientUnits="userSpaceOnUse" x1="1080.255" y1="191.043" x2="1140.645" y2="86.456" gradientTransform="matrix(1 0 0 -1 0 302)"><stop offset="0" stop-color="#a91feb"/><stop offset=".275" stop-color="#8731f1"/><stop offset="1" stop-color="#305eff"/></linearGradient><path d="M1224.4 149.8c6.3 3.6 6.3 12.7 0 16.3L1117.2 228c-9.9 5.7-22 5.7-31.9 0l-88.8-51.3c-6.3-3.6-6.3-12.7 0-16.3" fill="none" stroke="url(#SVGID_79_)" stroke-width="2.188" stroke-miterlimit="10"/><path class="st21" d="M1261.6 243l-25 14.4-7.3-4.4 25-14.3 7.3 4.3z"/><linearGradient id="SVGID_80_" gradientUnits="userSpaceOnUse" x1="1217.37" y1="16.87" x2="1268.8" y2="157.44" gradientTransform="matrix(1 0 0 -1 0 302)"><stop offset="0" stop-color="#305eff"/><stop offset=".725" stop-color="#8731f1"/><stop offset="1" stop-color="#a91feb"/></linearGradient><path d="M1235 199.8l14.4-8.3c.7-.4 1.5-.3 2.1 0l3.3 1.9-2.4 6.6v29.5c0 2.1-1.1 4-2.9 5.1l-12.1 7-1.1 3.1-3.2-1.8c-.6-.3-1-1-1-1.7v-36.3c-.1-2.1 1.1-4.1 2.9-5.1z" fill="url(#SVGID_80_)"/><linearGradient id="SVGID_81_" gradientUnits="userSpaceOnUse" x1="1228.372" y1="13.942" x2="1263.842" y2="157.369" gradientTransform="matrix(1 0 0 -1 0 302)"><stop offset="0" stop-color="#1c0eac"/><stop offset="1" stop-color="#a91feb"/></linearGradient><path d="M1238.3 244.7l14.4-8.3c1.8-1 2.9-3 2.9-5.1V195c0-1.5-1.7-2.5-3-1.7l-14.4 8.3c-1.8 1-2.9 3-2.9 5.1V243c0 1.5 1.7 2.5 3 1.7z" fill="url(#SVGID_81_)"/><path class="st28" d="M1232 191.2h27.8v52.1H1232v-52.1z"/><path class="st45" d="M1239.7 204.5l.9.3c.9.3 1.8.2 2.6-.3l5.9-3.4c.7-.4 1.3-1 1.7-1.8l1-1.9.8-.5c.6-.3 1.3.1 1.3.8v29.7c0 .7-.4 1.4-1 1.7l-14.2 8.2c-.6.3-1.3-.1-1.3-.8V207c0-.7.4-1.4 1-1.7l1.3-.8z"/><path class="st21" d="M1242.6 202l4.5-2.6c.2-.1.5 0 .5.3 0 .4-.2.8-.6 1l-4.5 2.6c-.2.1-.5 0-.5-.3 0-.4.2-.8.6-1z"/><path class="st28" d="M1244.2 193.4h10.1v10.8h-10.1v-10.8z"/><path class="st45" d="M1248.6 199.1c0 .5.3.7.6.5.3-.2.6-.7.6-1.2s-.3-.7-.6-.5c-.3.2-.6.7-.6 1.2z"/><path class="st21" d="M1246.4 238.6l1.2-.7c.5-.3.8-.8.8-1.4v-1.9c0-.5-.5-.8-.9-.5l-1.2.7c-.5.3-.8.8-.8 1.4v1.9c0 .5.5.8.9.5z"/><linearGradient id="SVGID_82_" gradientUnits="userSpaceOnUse" x1="1251.395" y1="71.817" x2="1241.935" y2="87.11" gradientTransform="matrix(1 0 0 -1 0 302)"><stop offset="0" stop-color="#a91feb"/><stop offset="1" stop-color="#fff"/></linearGradient><path d="M1254 207.4l-15 29.9 14.1-8.1c.6-.4 1-1 1-1.7l-.1-20.1z" opacity=".2" fill="url(#SVGID_82_)"/><linearGradient id="SVGID_83_" gradientUnits="userSpaceOnUse" x1="1249.591" y1="82.524" x2="1240.141" y2="97.809" gradientTransform="matrix(1 0 0 -1 0 302)"><stop offset="0" stop-color="#a91feb"/><stop offset="1" stop-color="#fff"/></linearGradient><path d="M1252.5 197.1l-.7.4-1 1.9c-.4.7-1 1.4-1.7 1.8l-5.9 3.4c-.8.4-1.7.6-2.6.3l-.9-.3-1.2.7c-.6.4-1 1-1 1.7v20l15-29.9z" opacity=".2" fill="url(#SVGID_83_)"/><path class="st21" d="M1007.5 270.1l37.2 21.5 6.5-3.8-37.1-21.6-6.6 3.9z"/><linearGradient id="SVGID_84_" gradientUnits="userSpaceOnUse" x1="1064.693" y1="-31.155" x2="1002.323" y2="139.293" gradientTransform="matrix(1 0 0 -1 0 302)"><stop offset="0" stop-color="#305eff"/><stop offset=".725" stop-color="#8731f1"/><stop offset="1" stop-color="#a91feb"/></linearGradient><path d="M1050.7 241.1l-32.2-19c-.6-.4-1.3-.3-1.8 0l-3 1.7 2.2 6v26.4c0 1.9 1 3.6 2.6 4.5l30.1 17.8 1 2.8 2.8-1.6c.5-.3.9-.9.9-1.5v-32.5c0-2-1-3.7-2.6-4.6z" fill="url(#SVGID_84_)"/><linearGradient id="SVGID_85_" gradientUnits="userSpaceOnUse" x1="1051.901" y1="-32.449" x2="1009.812" y2="137.767" gradientTransform="matrix(1 0 0 -1 0 302)"><stop offset="0" stop-color="#1c0eac"/><stop offset="1" stop-color="#a91feb"/></linearGradient><path d="M1047.7 281.3l-32.2-19c-1.6-.9-2.6-2.7-2.6-4.5v-32.5c0-1.4 1.5-2.2 2.7-1.5l32.2 19c1.6.9 2.6 2.7 2.6 4.5v32.5c0 1.3-1.5 2.2-2.7 1.5z" fill="url(#SVGID_85_)"/><path class="st28" d="M1007.8 219.2h43.9v64.3h-43.9v-64.3z"/><path class="st45" d="M1016.1 226.4c-.5-.3-1.2.1-1.2.7v31.5c0 .6.3 1.2.9 1.6l27.6 16.4c.5.3 1.2-.1 1.2-.7v-31.5c0-.6-.3-1.2-.9-1.6l-27.6-16.4z"/><path class="st21" d="M1013.6 240.6v5.3c0 .3.2.7.4.8.3.2.5 0 .5-.4V241c0-.3-.2-.7-.4-.8-.4-.2-.5 0-.5.4z"/><path class="st28" d="M1006.3 240.8h15.1v15.8h-15.1v-15.8z"/><path class="st45" d="M1013.9 248c.3.2.6.6.6 1.1 0 .4-.2.6-.6.4-.3-.2-.6-.6-.6-1.1s.3-.6.6-.4z"/><path class="st21" d="M1047.9 264.8l-1.1-.6c-.4-.3-.7-.7-.7-1.2v-1.7c0-.4.5-.7.8-.5l1.1.6c.4.3.7.7.7 1.2v1.7c0 .5-.5.7-.8.5z"/><linearGradient id="SVGID_86_" gradientUnits="userSpaceOnUse" x1="1014.9" y1="55.85" x2="1043.87" y2="55.85" gradientTransform="matrix(1 0 0 -1 0 302)"><stop offset="0" stop-color="#a91feb"/><stop offset="1" stop-color="#fff"/></linearGradient><path d="M1043.7 242.8l-20.7-12.3-8.1 6.1v21.9c0 .6.3 1.2.9 1.6l2.9 1.7 25.1-19h-.1z" opacity=".2" fill="url(#SVGID_86_)"/><linearGradient id="SVGID_87_" gradientUnits="userSpaceOnUse" x1="1026.22" y1="38.5" x2="1044.62" y2="38.5" gradientTransform="matrix(1 0 0 -1 0 302)"><stop offset="0" stop-color="#a91feb"/><stop offset="1" stop-color="#fff"/></linearGradient><path d="M1044.6 271.2v-18.8l-18.4 13.9 14 8.3 4.4-3.4z" opacity=".2" fill="url(#SVGID_87_)"/><path class="st21" d="M1158.4 283.4l26.6 15.4 39.2-22.7-26.6-15.4-39.2 22.7z"/><linearGradient id="SVGID_88_" gradientUnits="userSpaceOnUse" x1="1197.414" y1="30.08" x2="1161.054" y2="88.875" gradientTransform="matrix(1 0 0 -1 0 302)"><stop offset="0" stop-color="#1c0eac"/><stop offset="1" stop-color="#a91feb"/></linearGradient><path d="M1160.3 269.1v-28.3l39.2-22.7v28.4l-39.2 22.6z" fill="url(#SVGID_88_)"/><linearGradient id="SVGID_89_" gradientUnits="userSpaceOnUse" x1="1181.223" y1="69.428" x2="1176.493" y2="77.069" gradientTransform="matrix(1 0 0 -1 0 302)"><stop offset="0" stop-color="#305eff"/><stop offset=".725" stop-color="#8731f1"/><stop offset="1" stop-color="#a91feb"/></linearGradient><path d="M1199.5 218.1l-1.9-1.1-39.2 22.7 1.9 1.1 39.2-22.7z" fill="url(#SVGID_89_)"/><linearGradient id="SVGID_90_" gradientUnits="userSpaceOnUse" x1="1210.458" y1="7.662" x2="1172.658" y2="68.774" gradientTransform="matrix(1 0 0 -1 0 302)"><stop offset="0" stop-color="#305eff"/><stop offset=".725" stop-color="#8731f1"/><stop offset="1" stop-color="#a91feb"/></linearGradient><path d="M1160.3 269.1l24.7 14.3 39.2-22.7-24.7-14.2-39.2 22.6z" fill="url(#SVGID_90_)"/><linearGradient id="SVGID_91_" gradientUnits="userSpaceOnUse" x1="1191.798" y1="-7.493" x2="1150.038" y2="60.023" gradientTransform="matrix(1 0 0 -1 0 302)"><stop offset="0" stop-color="#1c0eac"/><stop offset="1" stop-color="#a91feb"/></linearGradient><path d="M1158.4 270.6L1185 286v-2.6l-26.6-15.4v2.6z" fill="url(#SVGID_91_)"/><linearGradient id="SVGID_92_" gradientUnits="userSpaceOnUse" x1="1207.059" y1="24.673" x2="1201.949" y2="32.938" gradientTransform="matrix(1 0 0 -1 0 302)"><stop offset="0" stop-color="#1c0eac"/><stop offset="1" stop-color="#a91feb"/></linearGradient><path d="M1185 286l39.2-22.7v-2.6l-39.2 22.7v2.6z" fill="url(#SVGID_92_)"/><path class="st28" d="M1155.3 215.3h49v55.4h-49v-55.4z"/><path class="st29" d="M1162 242.5l35.5-20.5v21.6l-35.5 20.5v-21.6z"/><path class="st21" d="M1166.2 268.7l32.8-19 2.4 1.4-32.9 18.9-2.3-1.3zm3.2 1.8l32.8-18.9 2.4 1.4-32.9 18.9-2.3-1.4zm3.2 1.9l32.8-19 2.4 1.4-32.8 18.9-2.4-1.3zm3.2 1.8l32.8-18.9 2.4 1.3-32.8 19-2.4-1.4zm25.2-10.1l-9.2 5.3 5.2 3 9.2-5.3-5.2-3z"/><linearGradient id="SVGID_93_" gradientUnits="userSpaceOnUse" x1="1194.778" y1="56.693" x2="1185.119" y2="72.325" gradientTransform="matrix(1 0 0 -1 0 302)"><stop offset="0" stop-color="#a91feb"/><stop offset="1" stop-color="#fff"/></linearGradient><path d="M1197.5 222l-15.4 30.5 15.4-8.9V222z" opacity=".2" fill="url(#SVGID_93_)"/><linearGradient id="SVGID_94_" gradientUnits="userSpaceOnUse" x1="1179.958" y1="48.532" x2="1170.09" y2="64.475" gradientTransform="matrix(1 0 0 -1 0 302)"><stop offset="0" stop-color="#a91feb"/><stop offset="1" stop-color="#fff"/></linearGradient><path d="M1162.9 242l-.9 1.8v20.3l11-6.3 15.3-30.5-25.4 14.7z" opacity=".2" fill="url(#SVGID_94_)"/><linearGradient id="SVGID_95_" gradientUnits="userSpaceOnUse" x1="1178.753" y1="14.924" x2="1138.433" y2="80.123" gradientTransform="matrix(1 0 0 -1 0 302)"><stop offset="0" stop-color="#1c0eac"/><stop offset="1" stop-color="#a91feb"/></linearGradient><path d="M1158.4 239.7v30.9l1.9 1.1v-30.9l-1.9-1.1z" fill="url(#SVGID_95_)"/><path class="st21" d="M992.2 241l-26.6 15.4-39.2-22.7 26.6-15.3 39.2 22.6z"/><linearGradient id="SVGID_96_" gradientUnits="userSpaceOnUse" x1="953.207" y1="72.415" x2="989.571" y2="131.212" gradientTransform="matrix(1 0 0 -1 0 302)"><stop offset="0" stop-color="#1c0eac"/><stop offset="1" stop-color="#a91feb"/></linearGradient><path d="M990.3 226.8v-28.4l-39.2-22.6v28.3l39.2 22.7z" fill="url(#SVGID_96_)"/><linearGradient id="SVGID_97_" gradientUnits="userSpaceOnUse" x1="969.38" y1="111.779" x2="974.106" y2="119.421" gradientTransform="matrix(1 0 0 -1 0 302)"><stop offset="0" stop-color="#305eff"/><stop offset=".725" stop-color="#8731f1"/><stop offset="1" stop-color="#a91feb"/></linearGradient><path d="M951.1 175.8l1.9-1.2 39.2 22.7-1.9 1.1-39.2-22.6z" fill="url(#SVGID_97_)"/><linearGradient id="SVGID_98_" gradientUnits="userSpaceOnUse" x1="940.166" y1="49.999" x2="977.962" y2="111.11" gradientTransform="matrix(1 0 0 -1 0 302)"><stop offset="0" stop-color="#305eff"/><stop offset=".725" stop-color="#8731f1"/><stop offset="1" stop-color="#a91feb"/></linearGradient><path d="M990.3 226.8L965.6 241l-39.2-22.6 24.7-14.3 39.2 22.7z" fill="url(#SVGID_98_)"/><linearGradient id="SVGID_99_" gradientUnits="userSpaceOnUse" x1="958.803" y1="34.856" x2="1000.561" y2="102.372" gradientTransform="matrix(1 0 0 -1 0 302)"><stop offset="0" stop-color="#1c0eac"/><stop offset="1" stop-color="#a91feb"/></linearGradient><path d="M992.2 228.3l-26.6 15.3V241l26.6-15.3v2.6z" fill="url(#SVGID_99_)"/><linearGradient id="SVGID_100_" gradientUnits="userSpaceOnUse" x1="943.541" y1="67.024" x2="948.653" y2="75.289" gradientTransform="matrix(1 0 0 -1 0 302)"><stop offset="0" stop-color="#1c0eac"/><stop offset="1" stop-color="#a91feb"/></linearGradient><path d="M965.6 243.6L926.4 221v-2.6l39.2 22.6v2.6z" fill="url(#SVGID_100_)"/><path class="st28" d="M946.5 172.8h48.7v55.7h-48.7v-55.7z"/><path class="st29" d="M988.6 200.1l-35.5-20.5v21.7l35.5 20.4v-21.6z"/><path class="st21" d="M984.4 226.3l-32.8-18.9-2.4 1.3 32.8 19 2.4-1.4zm-3.2 1.9l-32.8-19-2.4 1.4 32.8 18.9 2.4-1.3zM978 230l-32.8-19-2.4 1.4 32.8 19 2.4-1.4zm-3.2 1.9l-32.8-19-2.4 1.4 32.8 18.9 2.4-1.3zm-25.2-10.2l9.2 5.4-5.2 2.9-9.2-5.3 5.2-3z"/><linearGradient id="SVGID_101_" gradientUnits="userSpaceOnUse" x1="971.846" y1="57.272" x2="1012.166" y2="122.472" gradientTransform="matrix(1 0 0 -1 0 302)"><stop offset="0" stop-color="#1c0eac"/><stop offset="1" stop-color="#a91feb"/></linearGradient><path d="M992.2 197.3v31l-1.9 1.1v-31l1.9-1.1z" fill="url(#SVGID_101_)"/><linearGradient id="SVGID_102_" gradientUnits="userSpaceOnUse" x1="969.862" y1="93.25" x2="988.562" y2="93.25" gradientTransform="matrix(1 0 0 -1 0 302)"><stop offset="0" stop-color="#a91feb"/><stop offset="1" stop-color="#fff"/></linearGradient><path d="M983.6 218.9l5-3.9v-14.9l-2.7-1.5-16 12.4 13.7 7.9z" opacity=".2" fill="url(#SVGID_102_)"/><linearGradient id="SVGID_103_" gradientUnits="userSpaceOnUse" x1="953.066" y1="107.35" x2="978.766" y2="107.35" gradientTransform="matrix(1 0 0 -1 0 302)"><stop offset="0" stop-color="#a91feb"/><stop offset="1" stop-color="#fff"/></linearGradient><path d="M978.8 194.5l-20.6-11.9-5.1 4v14.7l9.5 5.4 16.2-12.2z" opacity=".2" fill="url(#SVGID_103_)"/><linearGradient id="SVGID_104_" gradientUnits="userSpaceOnUse" x1="1240.055" y1="26.985" x2="1307.065" y2="-13.277" gradientTransform="matrix(1 0 0 -1 0 302)"><stop offset=".124" stop-color="#a91feb" stop-opacity="0"/><stop offset=".505" stop-color="#a91feb"/><stop offset=".796" stop-color="#a91feb" stop-opacity="0"/></linearGradient><path d="M1244.2 275.9l63.2 36.7-3.7 2.1-63.3-36.6 3.8-2.2z" fill="url(#SVGID_104_)"/><linearGradient id="SVGID_105_" gradientUnits="userSpaceOnUse" x1="1261.925" y1="18.281" x2="1282.175" y2="-2.693" gradientTransform="matrix(1 0 0 -1 0 302)"><stop offset=".124" stop-color="#f7e041" stop-opacity="0"/><stop offset=".468" stop-color="#f7e041"/><stop offset=".796" stop-color="#f7e041" stop-opacity="0"/></linearGradient><path d="M1262.6 286.4l22.4 13.1-3.8 2.2-22.4-13.1 3.8-2.2z" fill="url(#SVGID_105_)"/><linearGradient id="SVGID_106_" gradientUnits="userSpaceOnUse" x1="1113.422" y1="23.328" x2="1180.422" y2="-16.934" gradientTransform="matrix(1 0 0 -1 0 302)"><stop offset=".124" stop-color="#a91feb" stop-opacity="0"/><stop offset=".505" stop-color="#a91feb"/><stop offset=".796" stop-color="#a91feb" stop-opacity="0"/></linearGradient><path d="M1117.5 279.6l63.3 36.6-3.8 2.2-63.3-36.6 3.8-2.2z" fill="url(#SVGID_106_)"/><linearGradient id="SVGID_107_" gradientUnits="userSpaceOnUse" x1="1135.29" y1="14.618" x2="1155.54" y2="-6.356" gradientTransform="matrix(1 0 0 -1 0 302)"><stop offset=".124" stop-color="#f7e041" stop-opacity="0"/><stop offset=".468" stop-color="#f7e041"/><stop offset=".796" stop-color="#f7e041" stop-opacity="0"/></linearGradient><path d="M1136 290.1l22.4 13.1-3.8 2.2-22.4-13.1 3.8-2.2z" fill="url(#SVGID_107_)"/><linearGradient id="SVGID_108_" gradientUnits="userSpaceOnUse" x1="1118.161" y1="133.771" x2="1156.941" y2="99.679" gradientTransform="matrix(1 0 0 -1 0 302)"><stop offset=".124" stop-color="#a91feb" stop-opacity="0"/><stop offset=".505" stop-color="#a91feb"/><stop offset=".796" stop-color="#a91feb" stop-opacity="0"/></linearGradient><path d="M1139.7 147.7l-.1 73.3-3.8 2.2.1-73.3 3.8-2.2z" fill="url(#SVGID_108_)"/><linearGradient id="SVGID_109_" gradientUnits="userSpaceOnUse" x1="1130.43" y1="127.552" x2="1145.44" y2="110.252" gradientTransform="matrix(1 0 0 -1 0 302)"><stop offset=".124" stop-color="#f7e041" stop-opacity="0"/><stop offset=".468" stop-color="#f7e041"/><stop offset=".796" stop-color="#f7e041" stop-opacity="0"/></linearGradient><path d="M1139.8 168.9l-.1 26-3.8 2.2.1-26 3.8-2.2z" fill="url(#SVGID_109_)"/><linearGradient id="SVGID_110_" gradientUnits="userSpaceOnUse" x1="1123.534" y1="162.705" x2="1162.304" y2="128.614" gradientTransform="matrix(1 0 0 -1 0 302)"><stop offset=".124" stop-color="#a91feb" stop-opacity="0"/><stop offset=".505" stop-color="#a91feb"/><stop offset=".796" stop-color="#a91feb" stop-opacity="0"/></linearGradient><path d="M1145.1 118.8l-.2 73.3-3.8 2.1.2-73.2 3.8-2.2z" fill="url(#SVGID_110_)"/><linearGradient id="SVGID_111_" gradientUnits="userSpaceOnUse" x1="1135.767" y1="156.46" x2="1150.777" y2="139.16" gradientTransform="matrix(1 0 0 -1 0 302)"><stop offset=".124" stop-color="#f7e041" stop-opacity="0"/><stop offset=".468" stop-color="#f7e041"/><stop offset=".796" stop-color="#f7e041" stop-opacity="0"/></linearGradient><path d="M1145.1 139.9l-.1 26.1-3.8 2.2.2-26.1 3.7-2.2z" fill="url(#SVGID_111_)"/><linearGradient id="SVGID_112_" gradientUnits="userSpaceOnUse" x1="1101.455" y1="120.43" x2="1140.225" y2="86.338" gradientTransform="matrix(1 0 0 -1 0 302)"><stop offset=".124" stop-color="#a91feb" stop-opacity="0"/><stop offset=".505" stop-color="#a91feb"/><stop offset=".796" stop-color="#a91feb" stop-opacity="0"/></linearGradient><path d="M1123 161.1l-.1 73.2-3.8 2.2.1-73.3 3.8-2.1z" fill="url(#SVGID_112_)"/><linearGradient id="SVGID_113_" gradientUnits="userSpaceOnUse" x1="1113.743" y1="114.237" x2="1128.753" y2="96.937" gradientTransform="matrix(1 0 0 -1 0 302)"><stop offset=".124" stop-color="#f7e041" stop-opacity="0"/><stop offset=".468" stop-color="#f7e041"/><stop offset=".796" stop-color="#f7e041" stop-opacity="0"/></linearGradient><path d="M1123.1 182.2l-.1 26.1-3.8 2.1.1-26 3.8-2.2z" fill="url(#SVGID_113_)"/><linearGradient id="SVGID_114_" gradientUnits="userSpaceOnUse" x1="1039.227" y1="165.165" x2="1000.457" y2="131.073" gradientTransform="matrix(1 0 0 -1 0 302)"><stop offset=".124" stop-color="#a91feb" stop-opacity="0"/><stop offset=".505" stop-color="#a91feb"/><stop offset=".796" stop-color="#a91feb" stop-opacity="0"/></linearGradient><path d="M1017.7 116.3l.1 73.3 3.8 2.2-.1-73.3-3.8-2.2z" fill="url(#SVGID_114_)"/><linearGradient id="SVGID_115_" gradientUnits="userSpaceOnUse" x1="1026.964" y1="158.945" x2="1011.954" y2="141.645" gradientTransform="matrix(1 0 0 -1 0 302)"><stop offset=".124" stop-color="#63dcff" stop-opacity="0"/><stop offset=".468" stop-color="#63dcff"/><stop offset=".801" stop-color="#63dcff" stop-opacity="0"/></linearGradient><path d="M1017.6 137.5l.1 26 3.8 2.2-.1-26-3.8-2.2z" fill="url(#SVGID_115_)"/><linearGradient id="SVGID_116_" gradientUnits="userSpaceOnUse" x1="1166.572" y1="195.716" x2="1205.342" y2="161.624" gradientTransform="matrix(1 0 0 -1 0 302)"><stop offset=".124" stop-color="#a91feb" stop-opacity="0"/><stop offset=".505" stop-color="#a91feb"/><stop offset=".796" stop-color="#a91feb" stop-opacity="0"/></linearGradient><path d="M1188.1 85.8l-.1 73.3-3.8 2.1.1-73.2 3.8-2.2z" fill="url(#SVGID_116_)"/><linearGradient id="SVGID_117_" gradientUnits="userSpaceOnUse" x1="1178.836" y1="189.495" x2="1193.846" y2="172.195" gradientTransform="matrix(1 0 0 -1 0 302)"><stop offset=".124" stop-color="#63dcff" stop-opacity="0"/><stop offset=".468" stop-color="#63dcff"/><stop offset=".801" stop-color="#63dcff" stop-opacity="0"/></linearGradient><path d="M1188.2 106.9l-.1 26.1-3.8 2.2.1-26.1 3.8-2.2z" fill="url(#SVGID_117_)"/><linearGradient id="SVGID_118_" gradientUnits="userSpaceOnUse" x1="1161.597" y1="149.793" x2="1200.367" y2="115.701" gradientTransform="matrix(1 0 0 -1 0 302)"><stop offset=".124" stop-color="#a91feb" stop-opacity="0"/><stop offset=".505" stop-color="#a91feb"/><stop offset=".796" stop-color="#a91feb" stop-opacity="0"/></linearGradient><path d="M1183.1 131.7l-.1 73.3-3.8 2.1.1-73.2 3.8-2.2z" fill="url(#SVGID_118_)"/><linearGradient id="SVGID_119_" gradientUnits="userSpaceOnUse" x1="1173.855" y1="143.573" x2="1188.865" y2="126.273" gradientTransform="matrix(1 0 0 -1 0 302)"><stop offset=".124" stop-color="#63dcff" stop-opacity="0"/><stop offset=".468" stop-color="#63dcff"/><stop offset=".801" stop-color="#63dcff" stop-opacity="0"/></linearGradient><path d="M1183.2 152.8l-.1 26.1-3.8 2.2.1-26.1 3.8-2.2z" fill="url(#SVGID_119_)"/><linearGradient id="SVGID_120_" gradientUnits="userSpaceOnUse" x1="1148.081" y1="167.608" x2="1186.851" y2="133.516" gradientTransform="matrix(1 0 0 -1 0 302)"><stop offset=".124" stop-color="#a91feb" stop-opacity="0"/><stop offset=".505" stop-color="#a91feb"/><stop offset=".796" stop-color="#a91feb" stop-opacity="0"/></linearGradient><path d="M1169.6 113.9l-.1 73.2-3.8 2.2.2-73.3 3.7-2.1z" fill="url(#SVGID_120_)"/><linearGradient id="SVGID_121_" gradientUnits="userSpaceOnUse" x1="1160.362" y1="161.41" x2="1175.382" y2="144.109" gradientTransform="matrix(1 0 0 -1 0 302)"><stop offset=".124" stop-color="#63dcff" stop-opacity="0"/><stop offset=".468" stop-color="#63dcff"/><stop offset=".801" stop-color="#63dcff" stop-opacity="0"/></linearGradient><path d="M1169.7 135l-.1 26.1-3.8 2.1.1-26 3.8-2.2z" fill="url(#SVGID_121_)"/><g><linearGradient id="SVGID_122_" gradientUnits="userSpaceOnUse" x1="1074.831" y1="128.118" x2="1036.061" y2="94.026" gradientTransform="matrix(1 0 0 -1 0 302)"><stop offset=".124" stop-color="#a91feb" stop-opacity="0"/><stop offset=".505" stop-color="#a91feb"/><stop offset=".796" stop-color="#a91feb" stop-opacity="0"/></linearGradient><path d="M1053.3 153.4l.1 73.2 3.8 2.2-.1-73.2-3.8-2.2z" fill="url(#SVGID_122_)"/><linearGradient id="SVGID_123_" gradientUnits="userSpaceOnUse" x1="1062.568" y1="121.899" x2="1047.557" y2="104.599" gradientTransform="matrix(1 0 0 -1 0 302)"><stop offset=".124" stop-color="#63dcff" stop-opacity="0"/><stop offset=".468" stop-color="#63dcff"/><stop offset=".801" stop-color="#63dcff" stop-opacity="0"/></linearGradient><path d="M1053.2 174.5l.1 26.1 3.8 2.2-.1-26.1-3.8-2.2z" fill="url(#SVGID_123_)"/></g><g><linearGradient id="SVGID_124_" gradientUnits="userSpaceOnUse" x1="1054.607" y1="199.197" x2="1015.836" y2="165.105" gradientTransform="matrix(1 0 0 -1 0 302)"><stop offset=".124" stop-color="#a91feb" stop-opacity="0"/><stop offset=".505" stop-color="#a91feb"/><stop offset=".796" stop-color="#a91feb" stop-opacity="0"/></linearGradient><path d="M1033.1 82.3l.1 73.3 3.8 2.1-.1-73.2-3.8-2.2z" fill="url(#SVGID_124_)"/><linearGradient id="SVGID_125_" gradientUnits="userSpaceOnUse" x1="1042.348" y1="192.971" x2="1027.328" y2="175.671" gradientTransform="matrix(1 0 0 -1 0 302)"><stop offset=".124" stop-color="#63dcff" stop-opacity="0"/><stop offset=".468" stop-color="#63dcff"/><stop offset=".801" stop-color="#63dcff" stop-opacity="0"/></linearGradient><path d="M1033 103.4l.1 26.1 3.8 2.2-.1-26.1-3.8-2.2z" fill="url(#SVGID_125_)"/></g><g><linearGradient id="SVGID_126_" gradientUnits="userSpaceOnUse" x1="0" y1="2" x2="0" y2="2" gradientTransform="matrix(1 0 0 -1 0 302)"><stop offset="0" stop-color="#fff"/><stop offset="1" stop-color="#fff" stop-opacity="0"/></linearGradient><linearGradient id="SVGID_127_" gradientUnits="userSpaceOnUse" x1="0" y1="2" x2="0" y2="2" gradientTransform="matrix(1 0 0 -1 0 302)"><stop offset="0" stop-color="#fff"/><stop offset="1" stop-color="#fff" stop-opacity="0"/></linearGradient><linearGradient id="SVGID_128_" gradientUnits="userSpaceOnUse" x1="0" y1="2" x2="0" y2="2" gradientTransform="matrix(1 0 0 -1 0 302)"><stop offset="0" stop-color="#fff"/><stop offset="1" stop-color="#fff" stop-opacity="0"/></linearGradient></g><path d="M67.5 161.2H50.6l-3.2 7.8h-8.6L55 132.6h8.3L79.6 169h-8.8l-3.3-7.8zm-2.6-6.4l-5.8-13.9-5.8 13.9h11.6zm33.6-.5h-5.8V169h-8.4v-36.4h8.4v14.7h6l9.6-14.7h8.9l-11.9 17.6 12.3 18.8H108l-9.5-14.7zm61.2 7.8v14.6H152V169h-30.4v-36.4h8.4v29.5h16.2v-29.5h8.4v29.5h5.1zm5.5-29.5h8.4v23.7l17.4-23.7h7.9V169h-8.3v-23.7L173.2 169h-8v-36.4zm71.8 0V169h-8.3v-9.7H221l-6.4 9.7h-8.9l7.6-11c-2.5-1-4.4-2.5-5.7-4.5-1.3-2-2-4.5-2-7.3s.6-5.2 1.9-7.2c1.3-2 3.1-3.6 5.5-4.7s5.1-1.7 8.3-1.7H237zm-15.5 6.9c-2.4 0-4.2.6-5.5 1.7-1.2 1.1-1.9 2.8-1.9 4.9 0 2.1.6 3.7 1.8 4.9 1.2 1.1 3 1.7 5.4 1.7h7.4v-13.2h-7.2zm22.8-6.9h9.7l-1.6 23.8H246l-1.7-23.8zm4.8 36.8c-1.4 0-2.6-.5-3.6-1.4-.9-.9-1.4-2.1-1.4-3.4s.5-2.4 1.4-3.3c.9-.9 2.1-1.4 3.6-1.4s2.7.5 3.6 1.4c.9.9 1.4 2 1.4 3.3s-.5 2.4-1.5 3.4c-.9 1-2 1.4-3.5 1.4z"/></g><path class="st135" d="M430.2 59.8v45.5h-10.5V68.4h-20.5v36.9h-10.5V59.8h41.5zm41.5 2c3 1.3 5.3 3.2 6.9 5.7 1.6 2.5 2.4 5.4 2.4 8.8 0 3.3-.8 6.3-2.4 8.7-1.6 2.5-3.9 4.4-6.9 5.7-3 1.3-6.5 2-10.5 2H452v12.5h-10.5V59.8h19.7c4.1 0 7.6.7 10.5 2zm-3.8 20.3c1.6-1.4 2.5-3.3 2.5-5.8 0-2.6-.8-4.5-2.5-5.9-1.6-1.4-4.1-2-7.2-2h-8.6v15.8h8.6c3.1 0 5.5-.7 7.2-2.1zM488 59.8h10.5v29.6l21.7-29.6h9.9v45.5h-10.4V75.7L498 105.3h-10V59.8zm103.8 26c1.5 1.9 2.2 4.2 2.2 6.7 0 2.8-.9 5.2-2.7 7.2-1.8 2-4.3 3.6-7.4 4.7-3.1 1.1-6.5 1.6-10.2 1.6-3.1 0-6.2-.4-9.3-1.2-3.1-.8-6-2-8.8-3.6l3.2-7.5c2 1.2 4.2 2.1 6.6 2.8 2.4.6 4.8.9 7.1.9 3.1 0 5.7-.6 7.8-1.7 2.1-1.1 3.1-2.7 3.1-4.7 0-1.7-.7-3-2.1-3.8-1.4-.9-3.3-1.3-5.8-1.3h-11.1V78h10.3c2.1 0 3.8-.4 5-1.3 1.2-.9 1.8-2.1 1.8-3.6 0-1.8-.9-3.2-2.6-4.2-1.7-1-3.9-1.5-6.6-1.5-2 0-4.1.3-6.2.8-2.1.5-4.1 1.4-6 2.4l-3.2-8.2c4.8-2.5 10-3.7 15.6-3.7 3.6 0 6.8.5 9.8 1.6 3 1 5.4 2.6 7.1 4.5 1.8 2 2.7 4.3 2.7 7 0 2.2-.6 4.1-1.8 5.8s-2.8 3-4.8 3.9c2.7 1 4.8 2.4 6.3 4.3zm41.4 9.7H612l-4 9.8h-10.8l20.3-45.5h10.4l20.3 45.5h-11.1l-3.9-9.8zm-3.3-8l-7.2-17.4-7.2 17.4h14.4zm42-.5h-7.3v18.3h-10.5V59.8h10.5v18.4h7.5l12-18.4h11.1l-14.9 22 15.3 23.5h-12L671.9 87z"/><path class="st135" d="M730.5 95.5h-21.1l-4 9.8h-10.8l20.3-45.5h10.4l20.3 45.5h-11l-4.1-9.8zm-3.3-8L720 70.1l-7.2 17.4h14.4zm56.5-1.7c1.5 1.9 2.2 4.2 2.2 6.7 0 2.8-.9 5.2-2.7 7.2-1.8 2-4.3 3.6-7.4 4.7-3.1 1.1-6.5 1.6-10.2 1.6-3.1 0-6.2-.4-9.3-1.2-3.1-.8-6-2-8.8-3.6l3.2-7.5c2 1.2 4.2 2.1 6.6 2.8 2.4.6 4.8.9 7.1.9 3.1 0 5.7-.6 7.8-1.7 2.1-1.1 3.1-2.7 3.1-4.7 0-1.7-.7-3-2.1-3.8-1.4-.9-3.3-1.3-5.8-1.3h-11.1V78h10.3c2.1 0 3.8-.4 5-1.3 1.2-.9 1.8-2.1 1.8-3.6 0-1.8-.9-3.2-2.6-4.2-1.7-1-3.9-1.5-6.6-1.5-2 0-4.1.3-6.2.8-2.1.5-4.1 1.4-6 2.4l-3.2-8.2c4.8-2.5 10-3.7 15.6-3.7 3.6 0 6.8.5 9.8 1.6 3 1 5.4 2.6 7.1 4.5 1.8 2 2.7 4.3 2.7 7 0 2.2-.6 4.1-1.8 5.8s-2.8 3-4.8 3.9c2.8 1 4.8 2.4 6.3 4.3zm45.8 11v8.5h-35.2V59.8h34.4v8.5h-23.9v9.9h21.1v8.2h-21.1v10.5h24.7zM373.8 142c-1.8-1-3.2-2.4-4.2-4.1-1-1.7-1.5-3.7-1.5-5.8 0-2.1.5-4.1 1.5-5.8 1-1.7 2.4-3.1 4.2-4.1 1.8-1 3.8-1.5 6-1.5s4.2.5 6 1.5c1.8 1 3.2 2.3 4.2 4.1 1 1.7 1.5 3.7 1.5 5.8 0 2.2-.5 4.1-1.5 5.8s-2.4 3.1-4.2 4.1c-1.8 1-3.8 1.5-6 1.5s-4.2-.5-6-1.5zm11.1-1.3c1.5-.9 2.7-2 3.6-3.5.9-1.5 1.3-3.2 1.3-5 0-1.9-.4-3.5-1.3-5s-2.1-2.7-3.6-3.5c-1.5-.9-3.2-1.3-5.1-1.3-1.9 0-3.6.4-5.1 1.3-1.5.9-2.7 2-3.6 3.5-.9 1.5-1.3 3.2-1.3 5 0 1.9.4 3.5 1.3 5s2.1 2.7 3.6 3.5c1.5.9 3.2 1.3 5.1 1.3 1.9-.1 3.6-.5 5.1-1.3zm31.9 1.1v6.6h-1.6v-5.1h-20.5v5.1h-1.6v-6.6h1.2c1.5-.1 2.5-1.4 3.1-3.7s.9-5.6 1.1-9.9l.2-7.4h14.6v20.9h3.5zm-17.6-4.5c-.4 2.3-1.2 3.8-2.2 4.5h14.7v-19.5h-11.5l-.2 6c-.1 3.7-.4 6.7-.8 9zm41-16.4v22.4h-1.6v-10.7h-15v10.7H422v-22.4h1.6v10.3h15v-10.3h1.6zM452 142c-1.8-1-3.2-2.4-4.2-4.1-1-1.7-1.5-3.7-1.5-5.8 0-2.1.5-4.1 1.5-5.8 1-1.7 2.4-3.1 4.2-4.1 1.8-1 3.8-1.5 6-1.5s4.2.5 6 1.5c1.8 1 3.2 2.3 4.2 4.1 1 1.7 1.5 3.7 1.5 5.8 0 2.2-.5 4.1-1.5 5.8s-2.4 3.1-4.2 4.1c-1.8 1-3.8 1.5-6 1.5s-4.3-.5-6-1.5zm11-1.3c1.5-.9 2.7-2 3.6-3.5.9-1.5 1.3-3.2 1.3-5 0-1.9-.4-3.5-1.3-5s-2.1-2.7-3.6-3.5c-1.5-.9-3.2-1.3-5.1-1.3-1.9 0-3.6.4-5.1 1.3-1.5.9-2.7 2-3.6 3.5-.9 1.5-1.3 3.2-1.3 5 0 1.9.4 3.5 1.3 5s2.1 2.7 3.6 3.5c1.5.9 3.2 1.3 5.1 1.3 1.9-.1 3.6-.5 5.1-1.3zm16.3 1.3c-1.8-1-3.1-2.3-4.2-4.1-1-1.7-1.5-3.7-1.5-5.8 0-2.2.5-4.1 1.5-5.8 1-1.7 2.4-3.1 4.2-4.1 1.8-1 3.7-1.5 5.9-1.5 1.6 0 3.1.3 4.5.8s2.5 1.3 3.5 2.3l-1 1.1c-1.8-1.8-4.1-2.7-6.9-2.7-1.9 0-3.6.4-5.1 1.3-1.5.9-2.7 2-3.6 3.5-.9 1.5-1.3 3.2-1.3 5 0 1.9.4 3.5 1.3 5s2.1 2.7 3.6 3.5c1.5.9 3.2 1.3 5.1 1.3 2.8 0 5.1-.9 6.9-2.7l1 1.1c-1 1-2.1 1.8-3.5 2.3s-2.9.8-4.5.8c-2.2.1-4.2-.3-5.9-1.3zm32.9-19.6h-8.1v20.9h-1.6v-20.9h-8.1v-1.5h17.8v1.5zm19 .5c1.6 1.3 2.4 3.2 2.4 5.6 0 2.3-.8 4.2-2.4 5.5-1.6 1.3-3.8 2-6.6 2h-6.4v7.3h-1.6v-22.4h8c2.8 0 5 .7 6.6 2zm-1.1 10c1.3-1 1.9-2.5 1.9-4.5s-.6-3.4-1.9-4.5c-1.3-1.1-3.1-1.6-5.5-1.6h-6.4v12.1h6.4c2.4.1 4.2-.4 5.5-1.5zm21.8 4.1h-13l-2.8 6.3h-1.8l10.3-22.4h1.6l10.3 22.4h-1.8l-2.8-6.3zm-.6-1.4l-5.9-12.9-5.9 12.9h11.8zm28.1-14.7v22.4h-1.6v-10.7h-15v10.7h-1.6v-22.4h1.6v10.3h15v-10.3h1.6zm8.1 0h1.6v19.6l15.3-19.6h1.4v22.4h-1.6v-19.6l-15.3 19.6h-1.4v-22.4zm40.9 0v22.4h-1.6v-9.6c-2.6 1.1-5.1 1.7-7.5 1.7-2.5 0-4.5-.6-5.9-1.8-1.4-1.2-2.1-2.9-2.1-5.2v-7.5h1.6v7.3c0 1.8.6 3.2 1.7 4.2 1.2 1 2.8 1.5 4.8 1.5 2.3 0 4.7-.6 7.3-1.7v-11.3h1.7zm26.3 0v22.4h-1.6v-10.7h-15v10.7h-1.6v-22.4h1.6v10.3h15v-10.3h1.6zm11.7 21.1c-1.8-1-3.2-2.4-4.2-4.1-1-1.7-1.5-3.7-1.5-5.8 0-2.1.5-4.1 1.5-5.8 1-1.7 2.4-3.1 4.2-4.1s3.8-1.5 6-1.5 4.2.5 6 1.5 3.2 2.3 4.2 4.1c1 1.7 1.5 3.7 1.5 5.8 0 2.2-.5 4.1-1.5 5.8s-2.4 3.1-4.2 4.1-3.8 1.5-6 1.5-4.2-.5-6-1.5zm11.1-1.3c1.5-.9 2.7-2 3.6-3.5s1.3-3.2 1.3-5c0-1.9-.4-3.5-1.3-5s-2.1-2.7-3.6-3.5c-1.5-.9-3.2-1.3-5.1-1.3s-3.6.4-5.1 1.3c-1.5.9-2.7 2-3.6 3.5s-1.3 3.2-1.3 5c0 1.9.4 3.5 1.3 5s2.1 2.7 3.6 3.5c1.5.9 3.2 1.3 5.1 1.3s3.5-.5 5.1-1.3zm26.4-18.3h-12.2v20.9h-1.6v-22.4H704v1.5zm4.8 19.6c-1.8-1-3.2-2.4-4.2-4.1-1-1.7-1.5-3.7-1.5-5.8 0-2.1.5-4.1 1.5-5.8 1-1.7 2.4-3.1 4.2-4.1s3.8-1.5 6-1.5 4.2.5 6 1.5 3.2 2.3 4.2 4.1c1 1.7 1.5 3.7 1.5 5.8 0 2.2-.5 4.1-1.5 5.8s-2.4 3.1-4.2 4.1-3.8 1.5-6 1.5-4.3-.5-6-1.5zm11-1.3c1.5-.9 2.7-2 3.6-3.5s1.3-3.2 1.3-5c0-1.9-.4-3.5-1.3-5s-2.1-2.7-3.6-3.5c-1.5-.9-3.2-1.3-5.1-1.3s-3.6.4-5.1 1.3c-1.5.9-2.7 2-3.6 3.5s-1.3 3.2-1.3 5c0 1.9.4 3.5 1.3 5s2.1 2.7 3.6 3.5c1.5.9 3.2 1.3 5.1 1.3s3.6-.5 5.1-1.3zm24.5 1.3c-1.8-1-3.1-2.3-4.2-4.1-1-1.7-1.5-3.7-1.5-5.8 0-2.2.5-4.1 1.5-5.8 1-1.7 2.4-3.1 4.2-4.1 1.8-1 3.7-1.5 5.9-1.5 1.6 0 3.1.3 4.5.8s2.5 1.3 3.5 2.3l-1 1.1c-1.8-1.8-4.1-2.7-6.9-2.7-1.9 0-3.6.4-5.1 1.3-1.5.9-2.7 2-3.6 3.5s-1.3 3.2-1.3 5c0 1.9.4 3.5 1.3 5s2.1 2.7 3.6 3.5c1.5.9 3.2 1.3 5.1 1.3 2.8 0 5.1-.9 6.9-2.7l1 1.1c-1 1-2.1 1.8-3.5 2.3s-2.9.8-4.5.8c-2.2.1-4.1-.3-5.9-1.3zm32.7-5h-13l-2.8 6.3h-1.8l10.3-22.4h1.6l10.3 22.4h-1.8l-2.8-6.3zm-.6-1.4l-5.9-12.9-5.9 12.9h11.8zm9.9-14.7h1.6v19.6l15.3-19.6h1.4v22.4h-1.6v-19.6l-15.3 19.6h-1.4v-22.4zm5.5-2.7c-.9-.7-1.4-1.6-1.4-2.9h1.3c0 .9.4 1.6 1 2.1.7.5 1.6.8 2.6.8 1.1 0 1.9-.3 2.6-.8.7-.5 1-1.2 1-2.1h1.3c0 1.2-.5 2.2-1.4 2.9-.9.7-2.1 1-3.6 1-1.3 0-2.5-.4-3.4-1zm35 4.2h-8.1v20.9H817v-20.9h-8.1v-1.5h17.8v1.5zm17.4 14.6h-13l-2.8 6.3h-1.8l10.3-22.4h1.6l10.3 22.4H847l-2.9-6.3zm-.6-1.4l-5.9-12.9-5.9 12.9h11.8z"/><path class="st136" d="M409.3 185.5v12.2h-6.6v-6.4H381v6.4h-6.6v-12.2h1.2c1.8-.1 3.2-1.4 3.9-4 .8-2.6 1.2-6.4 1.4-11.3l.4-9.6H405v25h4.3zm-23-5.5c-.5 2.5-1.2 4.3-2.2 5.5h13.8v-19.2h-10.6l-.1 4.5c-.1 3.7-.4 6.7-.9 9.2zm33.8 9.7c-2.6-1.4-4.6-3.3-6-5.7-1.5-2.4-2.2-5.1-2.2-8.2 0-3 .7-5.7 2.2-8.2 1.5-2.4 3.5-4.3 6-5.7 2.6-1.4 5.4-2.1 8.6-2.1 3.2 0 6.1.7 8.6 2.1 2.6 1.4 4.6 3.3 6 5.7 1.5 2.4 2.2 5.1 2.2 8.2 0 3-.7 5.7-2.2 8.2s-3.5 4.3-6 5.7c-2.6 1.4-5.4 2.1-8.6 2.1-3.1 0-6-.7-8.6-2.1zm13.6-5.2c1.5-.8 2.6-2 3.5-3.5.8-1.5 1.3-3.2 1.3-5.1 0-1.9-.4-3.6-1.3-5.1-.8-1.5-2-2.7-3.5-3.5-1.5-.8-3.1-1.3-4.9-1.3-1.8 0-3.5.4-4.9 1.3-1.5.8-2.6 2-3.5 3.5s-1.3 3.2-1.3 5.1c0 1.9.4 3.6 1.3 5.1s2 2.7 3.5 3.5c1.5.8 3.1 1.3 4.9 1.3 1.8-.1 3.4-.5 4.9-1.3zm45.5 6.8v-18.4l-9.1 15.2h-3.2l-9.1-14.8v18.1h-6.7v-30.8h5.9l11.5 19.1 11.4-19.1h5.9v30.8h-6.6zm38.2-5.7v5.7h-23.8v-30.8h23.3v5.7h-16.2v6.7H515v5.5h-14.3v7.1h16.7zm34-25.1v30.8h-7.1v-12.6h-14v12.6h-7.1v-30.8h7.1v12.1h14v-12.1h7.1z"/><path class="st135" d="M571.5 160.5h7.1v20.1l14.7-20.1h6.7v30.8h-7v-20l-14.7 20h-6.7v-30.8z"/><path class="st136" d="M625.6 160.5l6.4 9.3 6.4-9.3h8.4l-10.3 14.7 11.1 16.1h-8.4l-7.2-10.2-7.1 10.2h-8.2l11-15.8-10.3-15h8.2zm31.2 29.2c-2.6-1.4-4.6-3.3-6-5.7-1.5-2.4-2.2-5.1-2.2-8.2 0-3 .7-5.7 2.2-8.2 1.5-2.4 3.5-4.3 6-5.7 2.6-1.4 5.4-2.1 8.6-2.1 3.2 0 6.1.7 8.6 2.1 2.6 1.4 4.6 3.3 6 5.7 1.5 2.4 2.2 5.1 2.2 8.2 0 3-.7 5.7-2.2 8.2s-3.5 4.3-6 5.7c-2.6 1.4-5.4 2.1-8.6 2.1-3.1 0-6-.7-8.6-2.1zm13.6-5.2c1.5-.8 2.6-2 3.5-3.5s1.3-3.2 1.3-5.1c0-1.9-.4-3.6-1.3-5.1s-2-2.7-3.5-3.5c-1.5-.8-3.1-1.3-4.9-1.3-1.8 0-3.5.4-4.9 1.3s-2.6 2-3.5 3.5-1.3 3.2-1.3 5.1c0 1.9.4 3.6 1.3 5.1s2 2.7 3.5 3.5 3.1 1.3 4.9 1.3c1.8-.1 3.4-.5 4.9-1.3zm23.5 5.3c-2.5-1.4-4.5-3.3-6-5.7-1.5-2.4-2.2-5.2-2.2-8.2 0-3 .7-5.8 2.2-8.2 1.5-2.4 3.4-4.3 6-5.7s5.4-2 8.6-2c2.7 0 5.1.5 7.2 1.4 2.2.9 4 2.3 5.4 4l-4.6 4.2c-2.1-2.4-4.7-3.6-7.7-3.6-1.9 0-3.6.4-5.1 1.3-1.5.8-2.7 2-3.5 3.5-.8 1.5-1.3 3.2-1.3 5.1 0 1.9.4 3.6 1.3 5.1.8 1.5 2 2.7 3.5 3.5 1.5.8 3.2 1.3 5.1 1.3 3.1 0 5.7-1.2 7.7-3.7l4.6 4.2c-1.5 1.8-3.3 3.2-5.5 4.1-2.2.9-4.6 1.4-7.3 1.4-3.1 0-5.9-.7-8.4-2zm49.1-23.5h-9.9v25h-7v-25h-9.8v-5.8H743v5.8zm4.5-5.8h7.1v20.1l14.7-20.1h6.7v30.8h-7v-20l-14.7 20h-6.7v-30.8zm64.3 0v30.8h-7.1v-12.6h-14v12.6h-7.1v-30.8h7.1v12.1h14v-12.1h7.1zm29.4 5.8h-14.7v25h-7.1v-30.8h21.7l.1 5.8z"/><path class="st135" d="M492.1 230.8c1 1.3 1.5 2.8 1.5 4.7 0 2.7-1 4.9-3.1 6.4s-5 2.3-8.9 2.3h-15.2v-30.8h14.3c3.6 0 6.4.7 8.4 2.1 2 1.4 3 3.3 3 5.9 0 1.5-.4 2.9-1.1 4-.8 1.2-1.8 2.1-3.2 2.8 1.8.4 3.3 1.3 4.3 2.6zm-18.6-4.8h6.6c1.6 0 2.7-.3 3.5-.9.8-.6 1.2-1.6 1.2-2.8 0-1.2-.4-2.1-1.2-2.8-.8-.6-2-1-3.5-1h-6.6v7.5zm12.8 8.8c0-2.6-1.7-3.8-5-3.8h-7.8v7.8h7.8c3.4 0 5-1.3 5-4zm53.4-21.5v30.8h-7.1v-25h-13.9v25h-7.1v-30.8h28.1zm13.7 29.2c-2.6-1.4-4.6-3.3-6-5.7-1.5-2.4-2.2-5.1-2.2-8.2 0-3 .7-5.7 2.2-8.2 1.5-2.4 3.5-4.3 6-5.7 2.6-1.4 5.4-2.1 8.6-2.1 3.2 0 6.1.7 8.6 2.1 2.6 1.4 4.6 3.3 6 5.7 1.5 2.4 2.2 5.1 2.2 8.2 0 3-.7 5.7-2.2 8.2s-3.5 4.3-6 5.7c-2.6 1.4-5.4 2.1-8.6 2.1-3.1 0-6-.7-8.6-2.1zm13.6-5.2c1.5-.8 2.6-2 3.5-3.5.8-1.5 1.3-3.2 1.3-5.1 0-1.9-.4-3.6-1.3-5.1-.8-1.5-2-2.7-3.5-3.5-1.5-.8-3.1-1.3-4.9-1.3-1.8 0-3.5.4-4.9 1.3-1.5.8-2.6 2-3.5 3.5s-1.3 3.2-1.3 5.1c0 1.9.4 3.6 1.3 5.1s2 2.7 3.5 3.5c1.5.8 3.1 1.3 4.9 1.3 1.8-.1 3.4-.5 4.9-1.3zm48.3 1v12.2h-6.6v-6.4H587v6.4h-6.6v-12.2h1.2c1.8-.1 3.2-1.4 3.9-4 .8-2.6 1.2-6.4 1.4-11.3l.4-9.6H611v25h4.3zm-23-5.5c-.5 2.5-1.2 4.3-2.2 5.5h13.8v-19.2h-10.6l-.1 4.5c-.1 3.7-.4 6.7-.9 9.2zm48.9 4.7h-14.3l-2.7 6.6h-7.3l13.7-30.8h7l13.8 30.8h-7.5l-2.7-6.6zm-2.2-5.4l-4.9-11.8-4.9 11.8h9.8zm37-17.4c2 .9 3.6 2.2 4.6 3.9 1.1 1.7 1.6 3.7 1.6 5.9 0 2.3-.5 4.2-1.6 5.9-1.1 1.7-2.6 3-4.6 3.9-2 .9-4.4 1.3-7.1 1.3h-6.2v8.5h-7.1v-30.8h13.3c2.7 0 5 .4 7.1 1.4zm-2.7 13.7c1.1-.9 1.7-2.2 1.7-3.9 0-1.7-.6-3.1-1.7-4-1.1-.9-2.7-1.4-4.9-1.4h-5.8v10.7h5.8c2.2 0 3.8-.5 4.9-1.4zm20.1 14.1c-2.6-1.4-4.6-3.3-6-5.7-1.5-2.4-2.2-5.1-2.2-8.2 0-3 .7-5.7 2.2-8.2 1.5-2.4 3.5-4.3 6-5.7 2.6-1.4 5.4-2.1 8.6-2.1 3.2 0 6.1.7 8.6 2.1 2.6 1.4 4.6 3.3 6 5.7 1.5 2.4 2.2 5.1 2.2 8.2 0 3-.7 5.7-2.2 8.2s-3.5 4.3-6 5.7c-2.6 1.4-5.4 2.1-8.6 2.1-3.1 0-6-.7-8.6-2.1zm13.6-5.2c1.5-.8 2.6-2 3.5-3.5s1.3-3.2 1.3-5.1c0-1.9-.4-3.6-1.3-5.1s-2-2.7-3.5-3.5c-1.5-.8-3.1-1.3-4.9-1.3-1.8 0-3.5.4-4.9 1.3s-2.6 2-3.5 3.5-1.3 3.2-1.3 5.1c0 1.9.4 3.6 1.3 5.1s2 2.7 3.5 3.5 3.1 1.3 4.9 1.3c1.8-.1 3.4-.5 4.9-1.3zm29.3-5.6h-4.9v12.4h-7.1v-30.8h7.1v12.5h5.1l8.1-12.5h7.5L742 228.2l10.4 15.9h-8.1l-8-12.4z"/></svg>