<svg viewBox="0 0 1326 381" fill="none" xmlns="http://www.w3.org/2000/svg"><path d="M441.875 84.71l-69.548 217.214h-78.54L258.732 185.87 221.78 301.924h-78.469L73.763 84.71h75.449l37.865 123.5 39.972-123.5h67.37l37.865 125.046L372.327 84.71h69.548zm196.7 179.349h-82.544l-14.612 37.865h-74.465L561.932 84.71h72.007l94.978 217.214h-75.73l-14.612-37.865zm-20.161-52.758l-21.076-54.655-21.075 54.655h42.151zm198.949-69.829h-63.647V84.71H954.21v56.762h-63.647v160.452h-73.271V141.472h.071zm265.057 0h-63.65V84.71h200.49v56.762h-63.64v160.452h-73.27V141.472h.07z" fill="#FC6"/><g opacity=".33" fill="#000"><path opacity=".5" d="M76.8 17.8H94c3.9 0 7.3.7 10.3 2.1 3 1.4 5.3 3.4 7 6.1 1.7 2.7 2.5 5.7 2.5 9.3 0 3.6-.8 6.7-2.5 9.3-1.6 2.6-4 4.7-7 6.1-3 1.4-6.4 2.1-10.3 2.1H76.8v-35zm16.7 25.8c2.5 0 4.6-.7 6.1-2.2 1.5-1.5 2.3-3.5 2.3-6.1 0-2.6-.8-4.7-2.3-6.1-1.5-1.5-3.6-2.2-6.1-2.2h-5v16.6h5zm39.6.4h-3.2v8.8h-11.8v-35H135c3.2 0 6 .5 8.4 1.6 2.4 1.1 4.2 2.6 5.5 4.6 1.3 2 1.9 4.3 1.9 7 0 2.5-.6 4.7-1.7 6.5-1.1 1.9-2.8 3.4-4.9 4.5l7.4 10.8H139l-5.9-8.8zm4.7-16c-.8-.7-2-1.1-3.6-1.1h-4.3v8.2h4.3c1.6 0 2.8-.4 3.6-1.1.8-.7 1.2-1.7 1.2-3s-.4-2.3-1.2-3zm21.7 21.2c-3-2.9-4.5-7-4.5-12.2V17.8h11.8v18.9c0 2.6.5 4.4 1.4 5.6.9 1.2 2.2 1.8 4 1.8 1.7 0 3.1-.6 4-1.8.9-1.2 1.4-3 1.4-5.6V17.8h11.6V37c0 5.2-1.5 9.3-4.5 12.2-3 2.9-7.2 4.3-12.6 4.3-5.4 0-9.6-1.3-12.6-4.3zm60.3-29.8c2.4 1.1 4.2 2.6 5.5 4.6 1.3 2 2 4.3 2 7s-.7 5-2 7-3.2 3.5-5.5 4.6c-2.4 1.1-5.2 1.6-8.5 1.6h-5v8.6h-11.8v-35h16.9c3.2 0 6 .5 8.4 1.6zM214.2 34c.8-.7 1.2-1.7 1.2-3s-.4-2.3-1.2-3c-.8-.7-2-1.1-3.6-1.1h-4.3v8.2h4.3c1.6 0 2.8-.4 3.6-1.1zm39.1 12.7H240l-2.4 6.1h-12l15.3-35h11.6l15.3 35h-12.2l-2.3-6.1zm-3.3-8.5l-3.4-8.8-3.4 8.8h6.8zm19.7-20.4h11.8v25.9h15.8v9.1h-27.6v-35zm252.8 0l-11.2 35h-12.6L493 34.1l-6 18.7h-12.6l-11.2-35h12.2l6.1 19.9 6.5-19.9h10.8l6.1 20.1 6.4-20.1h11.2zm2.6 0h11.8v35h-11.8v-35zm39.6 35l-6-9.4-5.9 9.4h-13.5L552 35.2l-12.2-17.4H553l6 8.8 5.8-8.8h12.7l-12.2 16.9 12.9 18.1h-13.5zm212.2 0l-.1-16-7.6 12.8H764l-7.6-12.2v15.4h-10.8v-35h9.7l11.4 18.6 11.1-18.6h9.7l.1 35h-10.7zm24.7-1.6c-3-1.6-5.3-3.7-7-6.5-1.7-2.8-2.5-5.9-2.5-9.4s.8-6.6 2.5-9.4c1.7-2.8 4-5 7-6.5 3-1.6 6.4-2.3 10.2-2.3 3.8 0 7.1.8 10.1 2.3 3 1.6 5.4 3.7 7.1 6.5 1.7 2.8 2.5 5.9 2.5 9.4s-.9 6.6-2.5 9.4c-1.7 2.8-4.1 5-7.1 6.5s-6.4 2.3-10.1 2.3c-3.8.1-7.2-.7-10.2-2.3zm14.1-8.2c1.2-.7 2.1-1.7 2.8-3 .7-1.3 1-2.9 1-4.6 0-1.7-.3-3.3-1-4.6-.7-1.3-1.6-2.3-2.8-3-1.2-.7-2.5-1.1-4-1.1s-2.8.4-4 1.1c-1.2.7-2.1 1.7-2.8 3-.7 1.3-1.1 2.9-1.1 4.6 0 1.7.4 3.3 1.1 4.6.7 1.3 1.6 2.3 2.8 3 1.2.7 2.5 1.1 4 1.1 1.5-.1 2.8-.4 4-1.1zm20.1-25.2H853c3.9 0 7.3.7 10.3 2.1 3 1.4 5.3 3.4 7 6.1 1.7 2.7 2.5 5.7 2.5 9.3 0 3.6-.8 6.7-2.5 9.3-1.7 2.6-4 4.7-7 6.1-3 1.4-6.4 2.1-10.3 2.1h-17.2v-35zm16.7 25.8c2.5 0 4.6-.7 6.1-2.2 1.5-1.5 2.3-3.5 2.3-6.1 0-2.6-.8-4.7-2.3-6.1-1.5-1.4-3.5-2.2-6.1-2.2h-4.9v16.6h4.9z"/><path opacity=".5" d="M898 52.8l-6-9.4-5.9 9.4h-13.5l12.7-17.6L873 17.8h13.2l6 8.8 5.8-8.8h12.7l-12.2 16.9 12.9 18.1H898zm188.5-25.9h-10.2v-9.1h32.3v9.1h-10.2v25.9h-11.8V26.9h-.1z"/><path opacity=".5" d="M1131.4 40.1v12.7h-11.8V39.9l-13.2-22.1h12.4l7.2 12.1 7.2-12.1h11.4l-13.2 22.3zm40-20.7c2.4 1.1 4.2 2.6 5.5 4.6 1.3 2 2 4.3 2 7s-.7 5-2 7-3.2 3.5-5.5 4.6c-2.4 1.1-5.2 1.6-8.5 1.6h-5v8.6h-11.8v-35h16.9c3.2 0 6 .5 8.4 1.6zm-5.6 14.6c.8-.7 1.2-1.7 1.2-3s-.4-2.3-1.2-3c-.8-.7-2-1.1-3.6-1.1h-4.3v8.2h4.3c1.6 0 2.8-.4 3.6-1.1zm25.7 17.2c-3-1.6-5.3-3.7-7-6.5-1.7-2.8-2.5-5.9-2.5-9.4s.8-6.6 2.5-9.4c1.7-2.8 4-5 7-6.5 3-1.6 6.4-2.3 10.2-2.3 3.8 0 7.1.8 10.1 2.3 3 1.6 5.4 3.7 7.1 6.5 1.7 2.8 2.5 5.9 2.5 9.4s-.9 6.6-2.5 9.4c-1.7 2.8-4.1 5-7.1 6.5s-6.4 2.3-10.1 2.3c-3.9.1-7.2-.7-10.2-2.3zm14.1-8.2c1.2-.7 2.1-1.7 2.8-3 .7-1.3 1-2.9 1-4.6 0-1.7-.3-3.3-1-4.6-.7-1.3-1.6-2.3-2.8-3-1.2-.7-2.5-1.1-4-1.1s-2.8.4-4 1.1c-1.2.7-2.1 1.7-2.8 3-.7 1.3-1.1 2.9-1.1 4.6 0 1.7.4 3.3 1.1 4.6.7 1.3 1.6 2.3 2.8 3 1.2.7 2.5 1.1 4 1.1 1.5-.1 2.8-.4 4-1.1zm43.8-7.7c1.5 1.8 2.2 3.9 2.2 6.3 0 2.1-.6 4.1-1.7 5.9-1.2 1.8-2.9 3.3-5.3 4.4-2.4 1.1-5.4 1.7-9 1.7-2.5 0-4.9-.3-7.4-.8s-4.6-1.3-6.4-2.4l4-8.7c1.4.8 3 1.5 4.6 1.9 1.6.4 3.2.6 4.8.6 1.4 0 2.5-.2 3.3-.7.8-.5 1.2-1.1 1.2-2 0-1.6-1.4-2.4-4.2-2.4h-4.7v-7.2l5.2-5.2h-12.5v-8.9h26.1V25l-6.5 6.6c2.8.7 4.8 1.9 6.3 3.7zM217.1 130.6c-2.8-.7-5-1.5-6.8-2.6l3.8-8.6c1.7 1 3.5 1.7 5.6 2.3 2.1.6 4 .9 6 .9 1.6 0 2.8-.2 3.5-.5.7-.3 1-.8 1-1.4 0-.7-.5-1.3-1.4-1.6-.9-.4-2.4-.8-4.5-1.2-2.7-.6-5-1.2-6.8-1.8-1.8-.7-3.4-1.7-4.7-3.2-1.3-1.5-2-3.5-2-6 0-2.2.6-4.2 1.8-6 1.2-1.8 3.1-3.2 5.5-4.2 2.5-1 5.4-1.5 8.9-1.5 2.4 0 4.8.3 7.1.8s4.4 1.3 6.1 2.3l-3.5 8.5c-3.4-1.7-6.7-2.6-9.8-2.6-3 0-4.6.7-4.6 2.2 0 .7.5 1.2 1.4 1.6.9.3 2.4.7 4.5 1.1 2.7.5 4.9 1.1 6.8 1.7 1.8.7 3.4 1.7 4.8 3.2 1.4 1.5 2 3.5 2 6 0 2.2-.6 4.2-1.9 6-1.3 1.8-3.1 3.2-5.5 4.2-2.5 1-5.4 1.6-8.9 1.6-2.9-.2-5.7-.5-8.4-1.2zm57.3-8.7v8.9h-29.1v-35h28.5v8.9H257v4.1h14.8v8.5H257v4.6h17.4zm19.6.1h-3.2v8.8H279v-35h16.9c3.2 0 6 .5 8.5 1.6 2.4 1.1 4.2 2.6 5.5 4.6 1.3 2 2 4.3 2 7 0 2.5-.6 4.7-1.7 6.5-1.1 1.9-2.8 3.4-4.9 4.5l7.4 10.8h-12.6L294 122zm4.7-16c-.8-.7-2-1.1-3.6-1.1h-4.3v8.2h4.3c1.6 0 2.8-.4 3.6-1.1.8-.7 1.2-1.7 1.2-3s-.4-2.3-1.2-3zm46.6 15.9v8.9h-29.1v-35h28.5v8.9h-16.8v4.1h14.8v8.5h-14.8v4.6h17.4zm39.1-26.1v35h-9.7l-13.3-15.9v15.9h-11.5v-35h9.7l13.3 15.9V95.8h11.5zm5.7 0h17.2c3.9 0 7.3.7 10.3 2.1 3 1.4 5.3 3.4 7 6.1 1.7 2.7 2.5 5.7 2.5 9.3 0 3.6-.8 6.7-2.5 9.3-1.7 2.6-4 4.7-7 6.1-3 1.4-6.4 2.1-10.3 2.1h-17.2v-35zm16.7 25.8c2.5 0 4.6-.7 6.1-2.2 1.5-1.5 2.3-3.5 2.3-6.1 0-2.6-.8-4.7-2.3-6.1-1.5-1.4-3.5-2.2-6.1-2.2h-4.9v16.6h4.9zm24.6-25.8h11.8v35h-11.8v-35zm42.8 1.6c2.4 1.1 4.2 2.6 5.5 4.6 1.3 2 2 4.3 2 7s-.7 5-2 7-3.2 3.5-5.5 4.6c-2.4 1.1-5.2 1.6-8.5 1.6h-5v8.6h-11.8v-35h16.9c3.2 0 6 .5 8.4 1.6zm-5.6 14.6c.8-.7 1.2-1.7 1.2-3s-.4-2.3-1.2-3c-.8-.7-2-1.1-3.6-1.1h-4.3v8.2h4.3c1.6 0 2.8-.4 3.6-1.1zm16.9-16.2h11.8v35h-11.8v-35zm25.1 9.1h-10.2v-9.1h32.3v9.1h-10.2v25.9h-11.8v-25.9h-.1z"/><path opacity=".5" d="M555.5 118.1v12.7h-11.8v-12.9l-13.2-22.1H543l7.2 12.1 7.2-12.1h11.4l-13.3 22.3zm269.7-22.3h17.2c3.9 0 7.3.7 10.3 2.1 3 1.4 5.3 3.4 7 6.1 1.7 2.7 2.5 5.7 2.5 9.3 0 3.6-.8 6.7-2.5 9.3-1.7 2.6-4 4.7-7 6.1-3 1.4-6.4 2.1-10.3 2.1h-17.2v-35zm16.8 25.8c2.5 0 4.6-.7 6.1-2.2 1.5-1.5 2.3-3.5 2.3-6.1 0-2.6-.8-4.7-2.3-6.1-1.5-1.4-3.6-2.2-6.1-2.2h-5v16.6h5zm32.7 7.6c-3-1.6-5.3-3.7-7-6.5-1.7-2.8-2.5-5.9-2.5-9.4s.8-6.6 2.5-9.4c1.7-2.8 4-5 7-6.5 3-1.6 6.4-2.3 10.2-2.3 3.8 0 7.1.8 10.1 2.3 3 1.6 5.4 3.7 7.1 6.5 1.7 2.8 2.5 5.9 2.5 9.4s-.9 6.6-2.5 9.4c-1.7 2.8-4.1 5-7.1 6.5s-6.4 2.3-10.1 2.3c-3.8.1-7.2-.7-10.2-2.3zm14.2-8.2c1.2-.7 2.1-1.7 2.8-3 .7-1.3 1-2.9 1-4.6 0-1.7-.3-3.3-1-4.6-.7-1.3-1.6-2.3-2.8-3-1.2-.7-2.5-1.1-4-1.1s-2.8.4-4 1.1c-1.2.7-2.1 1.7-2.8 3-.7 1.3-1.1 2.9-1.1 4.6 0 1.7.4 3.3 1.1 4.6.7 1.3 1.6 2.3 2.8 3 1.2.7 2.5 1.1 4 1.1 1.4-.1 2.8-.4 4-1.1zm27.1-16.1h-10.2v-9.1h32.3v9.1h-10.2v25.9H916v-25.9zm32.7 24.4c-3-1.6-5.3-3.7-7-6.5-1.7-2.8-2.5-5.9-2.5-9.5 0-3.5.8-6.7 2.5-9.5s4-4.9 7-6.5c3-1.5 6.3-2.3 10-2.3 3.4 0 6.4.6 9.1 1.8 2.7 1.2 4.9 2.9 6.6 5.2l-7.5 6.7c-2.2-2.7-4.7-4.1-7.7-4.1-2.5 0-4.5.8-6 2.4-1.5 1.6-2.2 3.7-2.2 6.4s.8 4.8 2.2 6.4c1.4 1.6 3.5 2.4 6 2.4 2.9 0 5.5-1.4 7.7-4.1l7.5 6.7c-1.7 2.3-3.9 4-6.6 5.2-2.7 1.2-5.7 1.8-9.1 1.8-3.7-.2-7-1-10-2.5zm29.1-33.5h11.8v25.9h15.8v9.1h-27.6v-35zm60 26.1v8.9h-29.1v-35h28.5v8.9h-16.8v4.1h14.8v8.5h-14.8v4.6h17.4zm28.4 2.8h-13.3l-2.4 6.1h-12l15.3-35h11.6l15.3 35h-12.2l-2.3-6.1zm-3.3-8.5l-3.4-8.8-3.4 8.8h6.8zm34.7 5.8h-3.2v8.8h-11.8v-35h16.9c3.2 0 6 .5 8.5 1.6 2.4 1.1 4.2 2.6 5.5 4.6 1.3 2 2 4.3 2 7 0 2.5-.6 4.7-1.7 6.5-1.1 1.9-2.8 3.4-4.9 4.5l7.4 10.8h-12.6l-6.1-8.8zm4.7-16c-.8-.7-2-1.1-3.6-1.1h-4.3v8.2h4.3c1.6 0 2.8-.4 3.6-1.1.8-.7 1.2-1.7 1.2-3s-.4-2.3-1.2-3zm-896.2 67.8h11.8v35h-11.8v-35zm48.8 35l-.1-16-7.6 12.8H242l-7.6-12.2v15.4h-10.8v-35h9.7l11.4 18.6 11.1-18.6h9.7l.1 35h-10.7zm41.7-33.4c2.4 1.1 4.2 2.6 5.5 4.6 1.3 2 2 4.3 2 7s-.7 5-2 7-3.2 3.5-5.5 4.6c-2.4 1.1-5.2 1.6-8.5 1.6h-5v8.6h-11.8v-35h16.9c3.2 0 6 .5 8.4 1.6zM291 190c.8-.7 1.2-1.7 1.2-3s-.4-2.3-1.2-3c-.8-.7-2-1.1-3.6-1.1h-4.3v8.2h4.3c1.6 0 2.8-.4 3.6-1.1zm32 10h-3.2v8.8H308v-35h16.9c3.2 0 6 .5 8.5 1.6 2.4 1.1 4.2 2.6 5.5 4.6 1.3 2 2 4.3 2 7 0 2.5-.6 4.7-1.7 6.5-1.1 1.9-2.8 3.4-4.9 4.5l7.4 10.8h-12.6L323 200zm4.7-16c-.8-.7-2-1.1-3.6-1.1h-4.3v8.2h4.3c1.6 0 2.8-.4 3.6-1.1.8-.7 1.2-1.7 1.2-3s-.4-2.3-1.2-3zm46.6 15.9v8.9h-29.1v-35h28.5v8.9h-16.8v4.1h14.8v8.5h-14.8v4.6h17.4zm9.2 8.7c-2.8-.7-5-1.5-6.8-2.6l3.8-8.6c1.7 1 3.5 1.7 5.6 2.3 2.1.6 4 .9 6 .9 1.6 0 2.8-.2 3.5-.5.7-.3 1-.8 1-1.4 0-.7-.5-1.3-1.4-1.6-.9-.4-2.4-.8-4.5-1.2-2.7-.6-5-1.2-6.8-1.8-1.8-.7-3.4-1.7-4.7-3.2-1.3-1.5-2-3.5-2-6 0-2.2.6-4.2 1.8-6 1.2-1.8 3.1-3.2 5.5-4.2 2.5-1 5.4-1.5 8.9-1.5 2.4 0 4.8.3 7.1.8s4.4 1.3 6.1 2.3l-3.5 8.5c-3.4-1.7-6.7-2.6-9.8-2.6-3 0-4.6.7-4.6 2.2 0 .7.5 1.2 1.4 1.6.9.3 2.4.7 4.5 1.1 2.7.5 4.9 1.1 6.8 1.7 1.8.7 3.4 1.7 4.8 3.2 1.4 1.5 2 3.5 2 6 0 2.2-.6 4.2-1.9 6-1.3 1.8-3.1 3.2-5.5 4.2-2.5 1-5.4 1.6-8.9 1.6-2.9-.2-5.7-.5-8.4-1.2zm32.8 0c-2.8-.7-5-1.5-6.8-2.6l3.8-8.6c1.7 1 3.5 1.7 5.6 2.3 2.1.6 4 .9 6 .9 1.6 0 2.8-.2 3.5-.5.7-.3 1-.8 1-1.4 0-.7-.5-1.3-1.4-1.6-.9-.4-2.4-.8-4.5-1.2-2.7-.6-5-1.2-6.8-1.8-1.8-.7-3.4-1.7-4.7-3.2-1.3-1.5-2-3.5-2-6 0-2.2.6-4.2 1.8-6 1.2-1.8 3.1-3.2 5.5-4.2 2.5-1 5.4-1.5 8.9-1.5 2.4 0 4.8.3 7.1.8s4.4 1.3 6.1 2.3l-3.5 8.5c-3.4-1.7-6.7-2.6-9.8-2.6-3 0-4.6.7-4.6 2.2 0 .7.5 1.2 1.4 1.6.9.3 2.4.7 4.5 1.1 2.7.5 4.9 1.1 6.8 1.7 1.8.7 3.4 1.7 4.8 3.2 1.4 1.5 2 3.5 2 6 0 2.2-.6 4.2-1.9 6-1.3 1.8-3.1 3.2-5.5 4.2-2.5 1-5.4 1.6-8.9 1.6-2.8-.2-5.6-.5-8.4-1.2zm53.6-33.2c2.4 1.1 4.2 2.6 5.5 4.6 1.3 2 2 4.3 2 7s-.7 5-2 7-3.2 3.5-5.5 4.6c-2.4 1.1-5.2 1.6-8.5 1.6h-5v8.6h-11.8v-35h16.9c3.2 0 6 .5 8.4 1.6zm-5.6 14.6c.8-.7 1.2-1.7 1.2-3s-.4-2.3-1.2-3c-.8-.7-2-1.1-3.6-1.1h-4.3v8.2h4.3c1.6 0 2.8-.4 3.6-1.1zm39 12.7H490l-2.4 6.1h-12l15.3-35h11.6l15.3 35h-12.2l-2.3-6.1zm-3.2-8.5l-3.4-8.8-3.4 8.8h6.8zm42.3-3.9h10.2v14.8c-2.1 1.4-4.5 2.5-7.2 3.3-2.7.8-5.4 1.2-8 1.2-3.7 0-7.1-.8-10-2.3-3-1.6-5.3-3.7-7-6.5-1.7-2.8-2.5-5.9-2.5-9.5 0-3.5.8-6.7 2.5-9.5s4-4.9 7.1-6.5c3-1.5 6.4-2.3 10.2-2.3 3.4 0 6.5.6 9.2 1.7 2.7 1.1 5 2.8 6.8 5l-7.5 6.7c-2.2-2.6-4.8-3.9-7.9-3.9-2.6 0-4.7.8-6.2 2.4-1.5 1.6-2.3 3.7-2.3 6.4 0 2.6.8 4.8 2.3 6.4 1.5 1.6 3.5 2.4 6.1 2.4 1.5 0 2.9-.3 4.3-.9v-8.9h-.1zm44.4 9.6v8.9h-29.1v-35h28.5v8.9h-16.8v4.1h14.8v8.5h-14.8v4.6h17.4zm9.2 8.7c-2.8-.7-5-1.5-6.8-2.6l3.8-8.6c1.7 1 3.5 1.7 5.6 2.3 2.1.6 4 .9 6 .9 1.6 0 2.8-.2 3.5-.5.7-.3 1-.8 1-1.4 0-.7-.5-1.3-1.4-1.6-.9-.4-2.4-.8-4.5-1.2-2.7-.6-5-1.2-6.8-1.8-1.8-.7-3.4-1.7-4.7-3.2-1.3-1.5-2-3.5-2-6 0-2.2.6-4.2 1.8-6 1.2-1.8 3.1-3.2 5.5-4.2 2.5-1 5.4-1.5 8.9-1.5 2.4 0 4.8.3 7.1.8s4.4 1.3 6.1 2.3l-3.5 8.5c-3.4-1.7-6.7-2.6-9.8-2.6-3 0-4.6.7-4.6 2.2 0 .7.5 1.2 1.4 1.6.9.3 2.4.7 4.5 1.1 2.7.5 4.9 1.1 6.8 1.7 1.8.7 3.4 1.7 4.8 3.2 1.4 1.5 2 3.5 2 6 0 2.2-.6 4.2-1.9 6-1.3 1.8-3.1 3.2-5.5 4.2-2.5 1-5.4 1.6-8.9 1.6-2.9-.2-5.7-.5-8.4-1.2zm167.8 0c-2.8-.7-5-1.5-6.8-2.6l3.8-8.6c1.7 1 3.5 1.7 5.6 2.3 2.1.6 4 .9 6 .9 1.6 0 2.8-.2 3.5-.5.7-.3 1-.8 1-1.4 0-.7-.5-1.3-1.4-1.6-.9-.4-2.4-.8-4.5-1.2-2.7-.6-5-1.2-6.8-1.8-1.8-.7-3.4-1.7-4.7-3.2-1.3-1.5-2-3.5-2-6 0-2.2.6-4.2 1.8-6 1.2-1.8 3.1-3.2 5.5-4.2 2.5-1 5.4-1.5 8.9-1.5 2.4 0 4.8.3 7.1.8s4.4 1.3 6.1 2.3l-3.5 8.5c-3.4-1.7-6.7-2.6-9.8-2.6-3 0-4.6.7-4.6 2.2 0 .7.5 1.2 1.4 1.6.9.3 2.4.7 4.5 1.1 2.7.5 4.9 1.1 6.8 1.7 1.8.7 3.4 1.7 4.8 3.2 1.4 1.5 2 3.5 2 6 0 2.2-.6 4.2-1.9 6-1.3 1.8-3.1 3.2-5.5 4.2-2.5 1-5.4 1.6-8.9 1.6-2.8-.2-5.6-.5-8.4-1.2zm62.8-34.8v35h-11.8v-12.9h-10.9v12.9h-11.8v-35h11.8v12.4h10.9v-12.4h11.8zm13.9 33.4c-3-1.6-5.3-3.7-7-6.5-1.7-2.8-2.5-5.9-2.5-9.4s.8-6.6 2.5-9.4c1.7-2.8 4-5 7-6.5 3-1.6 6.4-2.3 10.2-2.3 3.8 0 7.1.8 10.1 2.3 3 1.6 5.4 3.7 7.1 6.5 1.7 2.8 2.5 5.9 2.5 9.4s-.9 6.6-2.5 9.4c-1.7 2.8-4.1 5-7.1 6.5s-6.4 2.3-10.1 2.3c-3.8.1-7.2-.7-10.2-2.3zm14.1-8.2c1.2-.7 2.1-1.7 2.8-3 .7-1.3 1-2.9 1-4.6 0-1.7-.3-3.3-1-4.6-.7-1.3-1.6-2.3-2.8-3-1.2-.7-2.5-1.1-4-1.1s-2.8.4-4 1.1c-1.2.7-2.1 1.7-2.8 3-.7 1.3-1.1 2.9-1.1 4.6 0 1.7.4 3.3 1.1 4.6.7 1.3 1.6 2.3 2.8 3 1.2.7 2.5 1.1 4 1.1 1.5-.1 2.8-.4 4-1.1zm45.4-23.6c2.4 1.1 4.2 2.6 5.5 4.6 1.3 2 2 4.3 2 7s-.7 5-2 7-3.2 3.5-5.5 4.6c-2.4 1.1-5.2 1.6-8.5 1.6h-5v8.6h-11.8v-35h16.9c3.2 0 6 .5 8.4 1.6zm-5.6 14.6c.8-.7 1.2-1.7 1.2-3s-.4-2.3-1.2-3c-.8-.7-2-1.1-3.6-1.1h-4.3v8.2h4.3c1.6 0 2.8-.4 3.6-1.1zm17.8-3.2h15v8.5h-15v-8.5zm25.2 21.8c-2.8-.7-5-1.5-6.8-2.6l3.8-8.6c1.7 1 3.5 1.7 5.6 2.3 2.1.6 4 .9 6 .9 1.6 0 2.8-.2 3.5-.5.7-.3 1-.8 1-1.4 0-.7-.5-1.3-1.4-1.6-.9-.4-2.4-.8-4.5-1.2-2.7-.6-5-1.2-6.8-1.8-1.8-.7-3.4-1.7-4.7-3.2-1.3-1.5-2-3.5-2-6 0-2.2.6-4.2 1.8-6 1.2-1.8 3.1-3.2 5.5-4.2 2.5-1 5.4-1.5 8.9-1.5 2.4 0 4.8.3 7.1.8s4.4 1.3 6.1 2.3l-3.5 8.5c-3.4-1.7-6.7-2.6-9.8-2.6-3 0-4.6.7-4.6 2.2 0 .7.5 1.2 1.4 1.6.9.3 2.4.7 4.5 1.1 2.7.5 4.9 1.1 6.8 1.7 1.8.7 3.4 1.7 4.8 3.2 1.4 1.5 2 3.5 2 6 0 2.2-.6 4.2-1.9 6-1.3 1.8-3.1 3.2-5.5 4.2-2.5 1-5.4 1.6-8.9 1.6-2.8-.2-5.6-.5-8.4-1.2zm36.4-1.3c-3-1.6-5.3-3.7-7-6.5-1.7-2.8-2.5-5.9-2.5-9.5 0-3.5.8-6.7 2.5-9.5s4-4.9 7-6.5c3-1.5 6.3-2.3 10-2.3 3.4 0 6.4.6 9.1 1.8 2.7 1.2 4.9 2.9 6.6 5.2l-7.5 6.7c-2.2-2.7-4.7-4.1-7.7-4.1-2.5 0-4.5.8-6 2.4-1.5 1.6-2.2 3.7-2.2 6.4s.8 4.8 2.2 6.4c1.4 1.6 3.5 2.4 6 2.4 2.9 0 5.5-1.4 7.7-4.1l7.5 6.7c-1.7 2.3-3.9 4-6.6 5.2-2.7 1.2-5.7 1.8-9.1 1.8-3.7-.2-7.1-1-10-2.5zm44.1-7.3h-3.2v8.8h-11.8v-35h16.9c3.2 0 6 .5 8.5 1.6 2.4 1.1 4.2 2.6 5.5 4.6 1.3 2 2 4.3 2 7 0 2.5-.6 4.7-1.7 6.5-1.1 1.9-2.8 3.4-4.9 4.5l7.4 10.8H1024l-6.1-8.8zm4.7-16c-.8-.7-2-1.1-3.6-1.1h-4.3v8.2h4.3c1.6 0 2.8-.4 3.6-1.1.8-.7 1.2-1.7 1.2-3s-.4-2.3-1.2-3zm17.5-10.2h11.8v35h-11.8v-35zm42.8 1.6c2.4 1.1 4.2 2.6 5.5 4.6 1.3 2 2 4.3 2 7s-.7 5-2 7-3.2 3.5-5.5 4.6c-2.4 1.1-5.2 1.6-8.5 1.6h-5v8.6h-11.8v-35h16.9c3.2 0 6 .5 8.4 1.6zm-5.6 14.6c.8-.7 1.2-1.7 1.2-3s-.4-2.3-1.2-3c-.8-.7-2-1.1-3.6-1.1h-4.3v8.2h4.3c1.6 0 2.8-.4 3.6-1.1zm23.8-7.1h-10.2v-9.1h32.3v9.1H1113v25.9h-11.8v-25.9h-.1zM173.3 285.3c-3-1.6-5.3-3.7-7-6.5-1.7-2.8-2.5-5.9-2.5-9.5 0-3.5.8-6.7 2.5-9.5s4-4.9 7-6.5c3-1.5 6.3-2.3 10-2.3 3.4 0 6.4.6 9.1 1.8 2.7 1.2 4.9 2.9 6.6 5.2l-7.5 6.7c-2.2-2.7-4.7-4.1-7.7-4.1-2.5 0-4.5.8-6 2.4-1.5 1.6-2.2 3.7-2.2 6.4s.8 4.8 2.2 6.4c1.4 1.6 3.5 2.4 6 2.4 2.9 0 5.5-1.4 7.7-4.1l7.5 6.7c-1.7 2.3-3.9 4-6.6 5.2-2.7 1.2-5.7 1.8-9.1 1.8-3.7-.2-7-1-10-2.5zm33.2 1.3c-2.8-.7-5-1.5-6.8-2.6l3.8-8.6c1.7 1 3.5 1.7 5.6 2.3 2.1.6 4 .9 6 .9 1.6 0 2.8-.2 3.5-.5.7-.3 1-.8 1-1.4 0-.7-.5-1.3-1.4-1.6-.9-.4-2.4-.8-4.5-1.2-2.7-.6-5-1.2-6.8-1.8-1.8-.7-3.4-1.7-4.7-3.2-1.3-1.5-2-3.5-2-6 0-2.2.6-4.2 1.8-6 1.2-1.8 3.1-3.2 5.5-4.2 2.5-1 5.4-1.5 8.9-1.5 2.4 0 4.8.3 7.1.8s4.4 1.3 6.1 2.3l-3.5 8.5c-3.4-1.7-6.7-2.6-9.8-2.6-3 0-4.6.7-4.6 2.2 0 .7.5 1.2 1.4 1.6.9.3 2.4.7 4.5 1.1 2.7.5 4.9 1.1 6.8 1.7 1.8.7 3.4 1.7 4.8 3.2 1.4 1.5 2 3.5 2 6 0 2.2-.6 4.2-1.9 6-1.3 1.8-3.1 3.2-5.5 4.2-2.5 1-5.4 1.6-8.9 1.6-2.8-.2-5.6-.5-8.4-1.2zm28.2-21.8h15v8.5h-15v-8.5zm28.7 20.5c-3-1.6-5.3-3.7-7-6.5-1.7-2.8-2.5-5.9-2.5-9.5 0-3.5.8-6.7 2.5-9.5s4-4.9 7-6.5c3-1.5 6.3-2.3 10-2.3 3.4 0 6.4.6 9.1 1.8 2.7 1.2 4.9 2.9 6.6 5.2l-7.5 6.7c-2.2-2.7-4.7-4.1-7.7-4.1-2.5 0-4.5.8-6 2.4-1.5 1.6-2.2 3.7-2.2 6.4s.8 4.8 2.2 6.4c1.4 1.6 3.5 2.4 6 2.4 2.9 0 5.5-1.4 7.7-4.1l7.5 6.7c-1.7 2.3-3.9 4-6.6 5.2-2.7 1.2-5.7 1.8-9.1 1.8-3.7-.2-7-1-10-2.5zm52.4-4.6h-13.3l-2.4 6.1h-12l15.3-35H315l15.3 35h-12.2l-2.3-6.1zm-3.2-8.5l-3.4-8.8-3.4 8.8h6.8zm34.7 5.8h-3.2v8.8h-11.8v-35h16.9c3.2 0 6 .5 8.5 1.6 2.4 1.1 4.2 2.6 5.5 4.6 1.3 2 2 4.3 2 7 0 2.5-.6 4.7-1.7 6.5-1.1 1.9-2.8 3.4-4.9 4.5l7.4 10.8h-12.6l-6.1-8.8zm4.7-16c-.8-.7-2-1.1-3.6-1.1h-4.3v8.2h4.3c1.6 0 2.8-.4 3.6-1.1.8-.7 1.2-1.7 1.2-3s-.4-2.3-1.2-3zm24.6-1.1h-10.2v-9.1h32.3v9.1h-10.2v25.9h-11.8v-25.9h-.1zm44.3 22.3c-3-2.9-4.5-7-4.5-12.2v-19.2h11.8v18.9c0 2.6.5 4.4 1.4 5.6.9 1.2 2.2 1.8 4 1.8 1.7 0 3.1-.6 4-1.8.9-1.2 1.4-3 1.4-5.6v-18.9h11.6V271c0 5.2-1.5 9.3-4.5 12.2-3 2.9-7.2 4.3-12.6 4.3-5.4 0-9.6-1.3-12.6-4.3zm66.3 3.6l-.1-16-7.6 12.8h-5.2l-7.6-12.2v15.4h-10.8v-35h9.7l11.4 18.6 11.1-18.6h9.7l.1 35h-10.7zm16.4-35h11.8v35h-11.8v-35zm17.6 33.7c-1.2-1.2-1.9-2.8-1.9-4.7 0-1.9.6-3.4 1.9-4.6 1.2-1.2 2.8-1.8 4.7-1.8 1.9 0 3.5.6 4.7 1.8 1.2 1.2 1.9 2.7 1.9 4.6 0 1.9-.6 3.5-1.9 4.7-1.3 1.2-2.8 1.8-4.7 1.8-1.9 0-3.5-.6-4.7-1.8zm22.2-.2c-3-1.6-5.3-3.7-7-6.5-1.7-2.8-2.5-5.9-2.5-9.5 0-3.5.8-6.7 2.5-9.5s4-4.9 7-6.5c3-1.5 6.3-2.3 10-2.3 3.4 0 6.4.6 9.1 1.8 2.7 1.2 4.9 2.9 6.6 5.2l-7.5 6.7c-2.2-2.7-4.7-4.1-7.7-4.1-2.5 0-4.5.8-6 2.4-1.5 1.6-2.2 3.7-2.2 6.4s.8 4.8 2.2 6.4c1.4 1.6 3.5 2.4 6 2.4 2.9 0 5.5-1.4 7.7-4.1l7.5 6.7c-1.7 2.3-3.9 4-6.6 5.2-2.7 1.2-5.7 1.8-9.1 1.8-3.7-.2-7-1-10-2.5zm60.4 1.5l-.1-16-7.6 12.8h-5.2l-7.6-12.2v15.4h-10.8v-35h9.7l11.4 18.6 11.1-18.6h9.7l.1 35h-10.7zm21-.2c-2.8-.7-5-1.5-6.8-2.6l3.8-8.6c1.7 1 3.5 1.7 5.6 2.3 2.1.6 4 .9 6 .9 1.6 0 2.8-.2 3.5-.5.7-.3 1-.8 1-1.4 0-.7-.5-1.3-1.4-1.6-.9-.4-2.4-.8-4.5-1.2-2.7-.6-5-1.2-6.8-1.8-1.8-.7-3.4-1.7-4.7-3.2-1.3-1.5-2-3.5-2-6 0-2.2.6-4.2 1.8-6 1.2-1.8 3.1-3.2 5.5-4.2 2.5-1 5.4-1.5 8.9-1.5 2.4 0 4.8.3 7.1.8s4.4 1.3 6.1 2.3l-3.5 8.5c-3.4-1.7-6.7-2.6-9.8-2.6-3 0-4.6.7-4.6 2.2 0 .7.5 1.2 1.4 1.6.9.3 2.4.7 4.5 1.1 2.7.5 4.9 1.1 6.8 1.7 1.8.7 3.4 1.7 4.8 3.2 1.4 1.5 2 3.5 2 6 0 2.2-.6 4.2-1.9 6-1.3 1.8-3.1 3.2-5.5 4.2-2.5 1-5.4 1.6-8.9 1.6-2.8-.2-5.6-.5-8.4-1.2zM920 251.8l-11.2 35h-12.6l-5.7-18.7-6 18.7h-12.6l-11.2-35h12.2l6.1 19.9 6.5-19.9h10.8l6.1 20.1 6.4-20.1H920zm31.7 26.1v8.9h-29.1v-35h28.5v8.9h-16.8v4.1H949v8.5h-14.8v4.6h17.5zm37.4-6.1c1.1 1.5 1.7 3.2 1.7 5.3 0 3.1-1.3 5.4-3.8 7.1-2.5 1.7-6.2 2.5-11 2.5h-19.7v-35H975c4.7 0 8.2.8 10.6 2.5 2.4 1.7 3.6 3.9 3.6 6.6 0 1.6-.4 3.1-1.2 4.4-.8 1.3-2 2.3-3.6 3.2 1.9.9 3.5 2 4.7 3.4zM967.9 260v5.2h5.5c2.6 0 3.8-.9 3.8-2.6 0-1.7-1.3-2.6-3.8-2.6h-5.5zm11 15.8c0-1.8-1.3-2.8-3.9-2.8h-7.1v5.5h7.1c2.6 0 3.9-.9 3.9-2.7zm39.9 4.9h-13.3l-2.4 6.1h-12l15.3-35h11.6l15.3 35h-12.2l-2.3-6.1zm-3.3-8.5l-3.4-8.8-3.4 8.8h6.8zm24.3 14.4c-2.8-.7-5-1.5-6.8-2.6l3.8-8.6c1.7 1 3.5 1.7 5.6 2.3 2.1.6 4 .9 6 .9 1.6 0 2.8-.2 3.5-.5.7-.3 1-.8 1-1.4 0-.7-.5-1.3-1.4-1.6-.9-.4-2.4-.8-4.5-1.2-2.7-.6-5-1.2-6.8-1.8-1.8-.7-3.4-1.7-4.7-3.2-1.3-1.5-2-3.5-2-6 0-2.2.6-4.2 1.8-6 1.2-1.8 3.1-3.2 5.5-4.2 2.5-1 5.4-1.5 8.9-1.5 2.4 0 4.8.3 7.1.8s4.4 1.3 6.1 2.3l-3.5 8.5c-3.4-1.7-6.7-2.6-9.8-2.6-3 0-4.6.7-4.6 2.2 0 .7.5 1.2 1.4 1.6.9.3 2.4.7 4.5 1.1 2.7.5 4.9 1.1 6.8 1.7 1.8.7 3.4 1.7 4.8 3.2 1.4 1.5 2 3.5 2 6 0 2.2-.6 4.2-1.9 6-1.3 1.8-3.1 3.2-5.5 4.2-2.5 1-5.4 1.6-8.9 1.6-2.8-.2-5.6-.5-8.4-1.2zm48.3-12.5v12.7h-11.8v-12.9l-13.2-22.1h12.4l7.2 12.1 7.2-12.1h11.4l-13.2 22.3zm18.6 12.5c-2.8-.7-5-1.5-6.8-2.6l3.8-8.6c1.7 1 3.5 1.7 5.6 2.3 2.1.6 4 .9 6 .9 1.6 0 2.8-.2 3.5-.5.7-.3 1-.8 1-1.4 0-.7-.5-1.3-1.4-1.6-.9-.4-2.4-.8-4.5-1.2-2.7-.6-5-1.2-6.8-1.8-1.8-.7-3.4-1.7-4.7-3.2-1.3-1.5-2-3.5-2-6 0-2.2.6-4.2 1.8-6 1.2-1.8 3.1-3.2 5.5-4.2 2.5-1 5.4-1.5 8.9-1.5 2.4 0 4.8.3 7.1.8s4.4 1.3 6.1 2.3l-3.5 8.5c-3.4-1.7-6.7-2.6-9.8-2.6-3 0-4.6.7-4.6 2.2 0 .7.5 1.2 1.4 1.6.9.3 2.4.7 4.5 1.1 2.7.5 4.9 1.1 6.8 1.7 1.8.7 3.4 1.7 4.8 3.2 1.4 1.5 2 3.5 2 6 0 2.2-.6 4.2-1.9 6-1.3 1.8-3.1 3.2-5.5 4.2-2.5 1-5.4 1.6-8.9 1.6-2.9-.2-5.7-.5-8.4-1.2zm35.3-25.7h-10.2v-9.1h32.3v9.1h-10.2v25.9H1142v-25.9zM97.2 329.8l-14.8 35H70.8l-14.8-35h12.7l8.4 20.5 8.5-20.5h11.6zm23.8 28.9h-13.3l-2.4 6.1h-12l15.3-35h11.6l15.3 35h-12.2l-2.3-6.1zm-3.3-8.5l-3.4-8.8-3.4 8.8h6.8zm50.9 14.6l-.1-16-7.6 12.8h-5.2l-7.6-12.2v15.4h-10.7v-35h9.7l11.4 18.6 11.1-18.6h9.7l.1 35h-10.8zm21.1-.2c-2.8-.7-5-1.5-6.8-2.6l3.8-8.6c1.7 1 3.5 1.7 5.6 2.3 2.1.6 4 .9 6 .9 1.6 0 2.8-.2 3.5-.5.7-.3 1-.8 1-1.4 0-.7-.5-1.3-1.4-1.6-.9-.4-2.4-.8-4.5-1.2-2.7-.6-5-1.2-6.8-1.8-1.8-.7-3.4-1.7-4.7-3.2-1.3-1.5-2-3.5-2-6 0-2.2.6-4.2 1.8-6 1.2-1.8 3.1-3.2 5.5-4.2 2.5-1 5.4-1.5 8.9-1.5 2.4 0 4.8.3 7.1.8s4.4 1.3 6.1 2.3l-3.5 8.5c-3.4-1.7-6.7-2.6-9.8-2.6-3 0-4.6.7-4.6 2.2 0 .7.5 1.2 1.4 1.6.9.3 2.4.7 4.5 1.1 2.7.5 4.9 1.1 6.8 1.7 1.8.7 3.4 1.7 4.8 3.2 1.4 1.5 2 3.5 2 6 0 2.2-.6 4.2-1.9 6-1.3 1.8-3.1 3.2-5.5 4.2-2.5 1-5.4 1.6-8.9 1.6-2.9-.2-5.7-.5-8.4-1.2zm62.7-34.8v35h-11.8v-12.9h-10.9v12.9h-11.8v-35h11.8v12.4h10.9v-12.4h11.8zm13.9 33.4c-3-1.6-5.3-3.7-7-6.5-1.7-2.8-2.5-5.9-2.5-9.4s.8-6.6 2.5-9.4c1.7-2.8 4-5 7-6.5 3-1.6 6.4-2.3 10.2-2.3 3.8 0 7.1.8 10.1 2.3 3 1.6 5.4 3.7 7.1 6.5 1.7 2.8 2.5 5.9 2.5 9.4s-.9 6.6-2.5 9.4c-1.7 2.8-4.1 5-7.1 6.5s-6.4 2.3-10.1 2.3c-3.8.1-7.2-.7-10.2-2.3zm14.2-8.2c1.2-.7 2.1-1.7 2.8-3 .7-1.3 1-2.9 1-4.6 0-1.7-.3-3.3-1-4.6-.7-1.3-1.6-2.3-2.8-3-1.2-.7-2.5-1.1-4-1.1s-2.8.4-4 1.1c-1.2.7-2.1 1.7-2.8 3-.7 1.3-1.1 2.9-1.1 4.6 0 1.7.4 3.3 1.1 4.6.7 1.3 1.6 2.3 2.8 3 1.2.7 2.5 1.1 4 1.1 1.5-.1 2.8-.4 4-1.1zm45.3-23.6c2.4 1.1 4.2 2.6 5.5 4.6 1.3 2 2 4.3 2 7s-.7 5-2 7-3.2 3.5-5.5 4.6c-2.4 1.1-5.2 1.6-8.5 1.6h-5v8.6h-11.8v-35h16.9c3.2 0 6 .5 8.4 1.6zm-5.6 14.6c.8-.7 1.2-1.7 1.2-3s-.4-2.3-1.2-3c-.8-.7-2-1.1-3.6-1.1h-4.3v8.2h4.3c1.6 0 2.8-.4 3.6-1.1zM558 331.4c2.4 1.1 4.2 2.6 5.5 4.6 1.3 2 2 4.3 2 7s-.7 5-2 7-3.2 3.5-5.5 4.6c-2.4 1.1-5.2 1.6-8.5 1.6h-5v8.6h-11.8v-35h16.9c3.2 0 6 .5 8.4 1.6zm-5.6 14.6c.8-.7 1.2-1.7 1.2-3s-.4-2.3-1.2-3c-.8-.7-2-1.1-3.6-1.1h-4.3v8.2h4.3c1.6 0 2.8-.4 3.6-1.1zm51.4-16.2v35H592v-12.9h-10.9v12.9h-11.8v-35h11.8v12.4H592v-12.4h11.8zm31 1.6c2.4 1.1 4.2 2.6 5.5 4.6 1.3 2 2 4.3 2 7s-.7 5-2 7-3.2 3.5-5.5 4.6c-2.4 1.1-5.2 1.6-8.5 1.6h-5v8.6h-11.8v-35h16.9c3.2 0 6 .5 8.4 1.6zm-5.6 14.6c.8-.7 1.2-1.7 1.2-3s-.4-2.3-1.2-3c-.8-.7-2-1.1-3.6-1.1h-4.3v8.2h4.3c1.6 0 2.8-.4 3.6-1.1zm22.1 18.6c-2.8-.7-5-1.5-6.8-2.6l3.8-8.6c1.7 1 3.5 1.7 5.6 2.3 2.1.6 4 .9 6 .9 1.6 0 2.8-.2 3.5-.5.7-.3 1-.8 1-1.4 0-.7-.5-1.3-1.4-1.6-.9-.4-2.4-.8-4.5-1.2-2.7-.6-5-1.2-6.8-1.8-1.8-.7-3.4-1.7-4.7-3.2-1.3-1.5-2-3.5-2-6 0-2.2.6-4.2 1.8-6 1.2-1.8 3.1-3.2 5.5-4.2 2.5-1 5.4-1.5 8.9-1.5 2.4 0 4.8.3 7.1.8s4.4 1.3 6.1 2.3l-3.5 8.5c-3.4-1.7-6.7-2.6-9.8-2.6-3 0-4.6.7-4.6 2.2 0 .7.5 1.2 1.4 1.6.9.3 2.4.7 4.5 1.1 2.7.5 4.9 1.1 6.8 1.7 1.8.7 3.4 1.7 4.8 3.2 1.4 1.5 2 3.5 2 6 0 2.2-.6 4.2-1.9 6-1.3 1.8-3.1 3.2-5.5 4.2-2.5 1-5.4 1.6-8.9 1.6-2.9-.2-5.7-.5-8.4-1.2zm62.7-34.8v35h-11.8v-12.9h-10.9v12.9h-11.8v-35h11.8v12.4h10.9v-12.4H714zm13.9 33.4c-3-1.6-5.3-3.7-7-6.5-1.7-2.8-2.5-5.9-2.5-9.4s.8-6.6 2.5-9.4c1.7-2.8 4-5 7-6.5 3-1.6 6.4-2.3 10.2-2.3 3.8 0 7.1.8 10.1 2.3 3 1.6 5.4 3.7 7.1 6.5 1.7 2.8 2.5 5.9 2.5 9.4s-.9 6.6-2.5 9.4c-1.7 2.8-4.1 5-7.1 6.5s-6.4 2.3-10.1 2.3c-3.8.1-7.2-.7-10.2-2.3zm14.2-8.2c1.2-.7 2.1-1.7 2.8-3 .7-1.3 1-2.9 1-4.6 0-1.7-.3-3.3-1-4.6-.7-1.3-1.6-2.3-2.8-3-1.2-.7-2.5-1.1-4-1.1s-2.8.4-4 1.1c-1.2.7-2.1 1.7-2.8 3-.7 1.3-1.1 2.9-1.1 4.6 0 1.7.4 3.3 1.1 4.6.7 1.3 1.6 2.3 2.8 3 1.2.7 2.5 1.1 4 1.1 1.4-.1 2.8-.4 4-1.1zm45.3-23.6c2.4 1.1 4.2 2.6 5.5 4.6 1.3 2 2 4.3 2 7s-.7 5-2 7-3.2 3.5-5.5 4.6c-2.4 1.1-5.2 1.6-8.5 1.6h-5v8.6h-11.8v-35H779c3.2 0 6 .5 8.4 1.6zm-5.6 14.6c.8-.7 1.2-1.7 1.2-3s-.4-2.3-1.2-3c-.8-.7-2-1.1-3.6-1.1h-4.3v8.2h4.3c1.6 0 2.8-.4 3.6-1.1zm217 18.6c-2.8-.7-5-1.5-6.8-2.6l3.8-8.6c1.7 1 3.5 1.7 5.6 2.3 2.1.6 4 .9 6 .9 1.6 0 2.8-.2 3.5-.5.7-.3 1-.8 1-1.4 0-.7-.5-1.3-1.4-1.6-.9-.4-2.4-.8-4.5-1.2-2.7-.6-5-1.2-6.8-1.8-1.8-.7-3.4-1.7-4.7-3.2-1.3-1.5-2-3.5-2-6 0-2.2.6-4.2 1.8-6 1.2-1.8 3.1-3.2 5.5-4.2 2.5-1 5.4-1.5 8.9-1.5 2.4 0 4.8.3 7.1.8s4.4 1.3 6.1 2.3l-3.5 8.5c-3.4-1.7-6.7-2.6-9.8-2.6-3 0-4.6.7-4.6 2.2 0 .7.5 1.2 1.4 1.6.9.3 2.4.7 4.5 1.1 2.7.5 4.9 1.1 6.8 1.7 1.8.7 3.4 1.7 4.8 3.2 1.4 1.5 2 3.5 2 6 0 2.2-.6 4.2-1.9 6-1.3 1.8-3.1 3.2-5.5 4.2-2.5 1-5.4 1.6-8.9 1.6-2.8-.2-5.6-.5-8.4-1.2zm57.4-8.7v8.9h-29.1v-35h28.5v8.9h-16.8v4.1h14.8v8.5h-14.8v4.6h17.4zm35.8 8.9l-.1-16-7.6 12.8h-5.2l-7.6-12.2v15.4h-10.8v-35h9.7l11.4 18.6 11.1-18.6h9.7l.1 35H1092zm40.3-6.1H1119l-2.4 6.1h-12l15.3-35h11.6l15.3 35h-12.2l-2.3-6.1zm-3.2-8.5l-3.4-8.8-3.4 8.8h6.8zm25.5-11.3h-10.2v-9.1h32.3v9.1h-10.2v25.9h-11.8v-25.9h-.1zm40.1 17.1h-3.2v8.8h-11.8v-35h16.9c3.2 0 6 .5 8.5 1.6 2.4 1.1 4.2 2.6 5.5 4.6 1.3 2 2 4.3 2 7 0 2.5-.6 4.7-1.7 6.5-1.1 1.9-2.8 3.4-4.9 4.5l7.4 10.8h-12.6l-6.1-8.8zm4.7-16c-.8-.7-2-1.1-3.6-1.1h-4.3v8.2h4.3c1.6 0 2.8-.4 3.6-1.1.8-.7 1.2-1.7 1.2-3s-.4-2.3-1.2-3zm17.6-10.2h11.8v35H1217v-35zm39.6 35l-6-9.4-5.9 9.4h-13.5l12.7-17.6-12.2-17.4h13.2l6 8.8 5.8-8.8h12.7l-12.2 16.9 12.9 18.1h-13.5z"/></g><path d="M630.988 24.154v25.08h-5.83V28.79h-4.988v-4.636h10.818zm11.03 23.815c-2.038-1.124-3.724-2.67-4.848-4.637-1.194-1.967-1.756-4.215-1.756-6.674 0-2.458.562-4.706 1.756-6.673a12.809 12.809 0 014.848-4.637c2.037-1.124 4.425-1.686 6.954-1.686 2.178 0 4.145.352 5.901 1.124a12.208 12.208 0 014.426 3.302l-3.723 3.442c-1.686-1.967-3.794-2.95-6.323-2.95-1.545 0-2.95.351-4.144 1.054-1.195.702-2.178 1.615-2.881 2.88-.702 1.194-1.053 2.599-1.053 4.144 0 1.546.351 2.951 1.053 4.145.703 1.195 1.616 2.178 2.881 2.88 1.194.703 2.599 1.054 4.144 1.054 2.529 0 4.637-.983 6.323-2.95l3.723 3.442c-1.194 1.475-2.669 2.6-4.426 3.302-1.756.773-3.723 1.124-5.901 1.124-2.599 0-4.917-.562-6.954-1.686zm31.472-23.815h20.232v4.637H679.25v5.128h6.955c3.021 0 5.339.632 6.955 1.897 1.616 1.264 2.388 3.09 2.388 5.479 0 2.529-.913 4.426-2.669 5.83-1.756 1.406-4.285 2.108-7.517 2.108H673.49v-25.08zm11.521 20.794c1.475 0 2.599-.281 3.372-.843.773-.562 1.194-1.405 1.194-2.529 0-2.178-1.545-3.302-4.566-3.302h-5.831v6.744h5.831v-.07zm14.893-20.794h5.761v16.298l11.942-16.368h5.48v25.079h-5.761V32.935l-11.942 16.298h-5.48v-25.08zm48.613 4.707h-8.079v20.372h-5.76V28.861h-8.009v-4.707h21.778v4.707h.07zm20.303-3.583c1.615.773 2.88 1.756 3.793 3.161.913 1.335 1.335 2.95 1.335 4.847 0 1.827-.422 3.443-1.335 4.848-.913 1.405-2.178 2.459-3.793 3.161-1.616.703-3.583 1.124-5.761 1.124h-5.058v6.885h-5.831v-25.15h10.889c2.178 0 4.075.351 5.761 1.124zm-2.178 11.17c.913-.773 1.334-1.827 1.334-3.232 0-1.405-.421-2.459-1.334-3.231-.913-.773-2.248-1.124-4.005-1.124h-4.706v8.71h4.706c1.827 0 3.092-.35 4.005-1.123zm11.099-12.294h5.761v16.298l11.943-16.368h5.479v25.079h-5.76V32.935l-11.943 16.298h-5.48v-25.08zm39.13 14.963h-4.005v10.116h-5.76v-25.08h5.76V34.27h4.145l6.604-10.116h6.112l-8.22 12.083 8.43 12.996h-6.603l-6.463-10.116zm20.653 8.852c-2.037-1.124-3.723-2.67-4.847-4.637a13.318 13.318 0 01-1.756-6.674c0-2.458.562-4.706 1.756-6.673a12.806 12.806 0 014.847-4.637c2.038-1.124 4.356-1.686 6.955-1.686 2.178 0 4.145.352 5.901 1.124a12.217 12.217 0 014.426 3.302l-3.723 3.442c-1.686-1.967-3.794-2.95-6.323-2.95-1.545 0-2.95.351-4.145 1.054-1.194.702-2.177 1.615-2.88 2.88-.702 1.194-1.054 2.599-1.054 4.144 0 1.546.352 2.951 1.054 4.145.703 1.195 1.616 2.178 2.88 2.88 1.195.703 2.6 1.054 4.145 1.054 2.529 0 4.637-.983 6.323-2.95l3.723 3.442c-1.194 1.475-2.67 2.6-4.426 3.302-1.756.773-3.723 1.124-5.901 1.124-2.599 0-4.917-.562-6.955-1.686zM285.357 321.383h5.831v20.372h12.575v4.707h-18.406v-25.079zm38.427 19.74h-11.662l-2.248 5.339h-5.971l11.17-25.079h5.76l11.24 25.079h-6.111l-2.178-5.339zm-1.827-4.425l-4.004-9.625-4.004 9.625h8.008zm28.733 9.764l-4.847-6.954h-5.339v6.954h-5.831v-25.079h10.889c2.248 0 4.144.351 5.76 1.124 1.616.773 2.88 1.756 3.794 3.161.913 1.335 1.334 2.951 1.334 4.848 0 1.896-.421 3.442-1.334 4.847-.914 1.335-2.178 2.388-3.794 3.091l5.62 8.079h-6.252v-.071zm-1.475-19.248c-.914-.773-2.248-1.124-4.005-1.124h-4.706v8.711h4.706c1.757 0 3.091-.351 4.005-1.124.913-.773 1.334-1.827 1.334-3.232 0-1.334-.421-2.458-1.334-3.231zm28.31 13.909h-11.661l-2.248 5.339h-5.971l11.169-25.079h5.761l11.24 25.079h-6.112l-2.178-5.339zm-1.826-4.425l-4.004-9.625-4.005 9.625h8.009zm35.547-15.315l-10.889 25.079h-5.761l-10.818-25.079h6.252l7.657 17.914 7.728-17.914h5.831zm21.496 20.443v4.636h-19.389v-25.079h18.968v4.637h-13.207v5.479h11.661v4.496h-11.661v5.831h13.628zm4.637-20.443h5.83v20.373h12.575v4.706h-18.405v-25.079zm329.685-170.427v14.19h-9.274v-14.331l-15.525-25.782h9.835l10.749 17.844 10.748-17.844h9.132l-15.665 25.923zm19.107-25.923h9.273v40.113h-9.273v-40.113zm18.828 0h9.273v40.113h-9.273v-40.113zM125.256 267.641c2.248 1.054 4.005 2.459 5.199 4.356 1.194 1.897 1.827 4.074 1.827 6.674 0 2.529-.633 4.777-1.827 6.603-1.194 1.897-2.951 3.372-5.199 4.356-2.248.983-4.917 1.475-7.938 1.475h-6.955v9.554h-8.008v-34.563h14.963c3.021 0 5.69.492 7.938 1.545zm-2.88 15.385c1.265-1.053 1.897-2.529 1.897-4.426 0-1.967-.632-3.442-1.897-4.496-1.264-1.053-3.091-1.545-5.479-1.545h-6.534v12.013h6.534c2.388.07 4.215-.492 5.479-1.546zm47.279-16.93v34.563h-8.009v-14.19H145.98v14.19h-8.008v-34.563h8.008v13.629h15.666v-13.629h8.009zm31.121 1.545c2.248 1.054 4.004 2.459 5.198 4.356 1.194 1.897 1.827 4.074 1.827 6.674 0 2.529-.633 4.777-1.827 6.603-1.194 1.897-2.95 3.372-5.198 4.356-2.248.983-4.918 1.475-7.939 1.475h-6.954v9.554h-8.009v-34.563h14.963c3.021 0 5.691.492 7.939 1.545zm-2.951 15.385c1.265-1.053 1.897-2.529 1.897-4.426 0-1.967-.632-3.442-1.897-4.496-1.264-1.053-3.091-1.545-5.479-1.545h-6.534v12.013h6.534c2.388.07 4.215-.492 5.479-1.546zm296.035-33.72c-2.108-1.124-3.723-2.669-4.918-4.636-1.194-1.967-1.756-4.215-1.756-6.674 0-2.459.562-4.707 1.756-6.674 1.195-1.967 2.81-3.512 4.918-4.636 2.107-1.124 4.426-1.686 7.025-1.686s4.917.562 7.025 1.686c2.107 1.124 3.723 2.669 4.917 4.636 1.195 1.967 1.827 4.215 1.827 6.674 0 2.459-.632 4.707-1.827 6.674-1.194 1.967-2.81 3.512-4.917 4.636-2.108 1.124-4.426 1.686-7.025 1.686s-4.918-.562-7.025-1.686zm11.029-4.285a7.393 7.393 0 002.81-2.88c.703-1.195 1.054-2.6 1.054-4.145 0-1.546-.351-2.951-1.054-4.145-.702-1.194-1.616-2.178-2.81-2.88-1.194-.703-2.529-1.054-4.004-1.054-1.475 0-2.81.351-4.004 1.054a7.38 7.38 0 00-2.81 2.88c-.703 1.194-1.054 2.599-1.054 4.145 0 1.545.351 2.95 1.054 4.145.702 1.194 1.615 2.177 2.81 2.88 1.194.702 2.529 1.054 4.004 1.054 1.475 0 2.81-.352 4.004-1.054zm30.77-18.406c1.616.773 2.88 1.756 3.793 3.161.914 1.405 1.335 2.951 1.335 4.848 0 1.826-.421 3.442-1.335 4.847-.913 1.405-2.177 2.459-3.793 3.161-1.616.703-3.583 1.124-5.761 1.124h-5.128v6.885h-5.831v-25.08h10.889c2.248-.07 4.145.281 5.831 1.054zm-2.178 11.17c.913-.773 1.335-1.827 1.335-3.232 0-1.405-.422-2.458-1.335-3.231-.913-.773-2.248-1.124-4.004-1.124h-4.707v8.711h4.707c1.756 0 3.091-.351 4.004-1.124zm30.77 8.149v4.637h-19.389v-25.08h18.967v4.637h-13.207v5.409h11.662v4.496h-11.662v5.831h13.629v.07zm27.678-20.443v25.08h-4.777l-12.504-15.245v15.245h-5.761v-25.08h4.777l12.435 15.245v-15.245h5.83zm10.959 23.815c-2.037-1.124-3.723-2.669-4.847-4.636a13.318 13.318 0 01-1.756-6.674c0-2.459.562-4.707 1.756-6.674 1.194-1.967 2.81-3.512 4.847-4.636 2.038-1.124 4.356-1.686 6.955-1.686 2.178 0 4.145.351 5.901 1.123a12.211 12.211 0 014.426 3.302l-3.723 3.443c-1.686-1.967-3.794-2.951-6.323-2.951-1.545 0-2.95.351-4.145 1.054-1.194.702-2.177 1.616-2.88 2.88-.702 1.194-1.054 2.599-1.054 4.145 0 1.545.352 2.95 1.054 4.145.703 1.194 1.616 2.177 2.88 2.88 1.195.702 2.6 1.054 4.145 1.054 2.529 0 4.637-.984 6.323-2.951l3.723 3.442c-1.194 1.476-2.669 2.6-4.426 3.302-1.756.773-3.723 1.124-5.901 1.124-2.529 0-4.847-.562-6.955-1.686zm37.233-4.145H628.46l-2.248 5.339h-5.901l11.169-25.079h5.761l11.24 25.079h-6.112l-2.248-5.339zm-1.826-4.355l-4.005-9.625-4.004 9.625h8.009zm28.732 9.765l-4.847-6.955h-5.339v6.955h-5.831v-25.08h10.889c2.248 0 4.144.351 5.76 1.124 1.616.773 2.88 1.756 3.794 3.161.913 1.405 1.334 2.951 1.334 4.848 0 1.897-.421 3.442-1.334 4.847-.914 1.335-2.178 2.389-3.794 3.091l5.62 8.079h-6.252v-.07zm-1.475-19.249c-.914-.773-2.248-1.124-4.005-1.124h-4.706v8.711h4.706c1.757 0 3.091-.351 4.005-1.124.913-.773 1.334-1.826 1.334-3.232.071-1.405-.421-2.458-1.334-3.231zm16.649-1.124h-8.009v-4.707h21.848v4.707h-8.008v20.373h-5.831v-20.373zm460.069 3.653c-.56 1.826-1.26 3.372-2.11 4.496l-4.35-1.967c.77-1.054 1.4-2.318 1.89-3.864.5-1.475.71-2.95.71-4.426 0-1.615-.21-2.88-.71-3.653-.49-.772-1.12-1.194-1.96-1.194-.64 0-1.13.211-1.48.703-.42.491-.7 1.053-.91 1.756-.21.702-.49 1.686-.77 2.95-.43 1.897-.92 3.443-1.34 4.707-.42 1.194-1.19 2.248-2.18 3.161-.98.914-2.31 1.335-4 1.335-1.48 0-2.81-.421-3.94-1.194-1.19-.773-2.1-1.967-2.81-3.583-.7-1.616-1.05-3.512-1.05-5.831 0-1.615.21-3.161.56-4.706.35-1.546.92-2.881 1.62-4.005l4.42 1.757c-1.33 2.318-1.96 4.636-1.96 6.954 0 1.616.28 2.81.77 3.583.56.773 1.19 1.194 2.11 1.194.91 0 1.47-.421 1.89-1.334.43-.914.85-2.248 1.27-4.075.42-1.897.91-3.442 1.33-4.707.43-1.194 1.2-2.248 2.18-3.161.99-.843 2.32-1.335 4.01-1.335 1.4 0 2.74.422 3.93 1.195 1.19.772 2.11 1.967 2.81 3.582.7 1.616 1.05 3.513 1.05 5.831-.14 2.108-.42 4.004-.98 5.831zm-8.5-31.823h8.92v5.83h-8.99l-16.16 9.695v-6.182l11.17-6.674-11.17-6.674v-5.69l16.23 9.695zm8.92-34.774l-15.03.07 12.36 7.376v2.599l-12.08 7.377h14.75v5.409h-25.08v-4.777l15.6-9.414-15.6-9.273v-4.777l25.08-.07v5.48zm-20.44-17.212h6.6v-11.591h4.64v11.591h9.13v5.831h-25.08v-18.967h4.64v13.136h.07zm19.18-21.918c-1.13 2.108-2.67 3.723-4.64 4.918-1.97 1.194-4.21 1.756-6.67 1.756s-4.71-.562-6.68-1.756a12.52 12.52 0 01-4.63-4.918c-1.13-2.107-1.69-4.426-1.69-7.025s.56-4.917 1.69-7.025a12.518 12.518 0 014.63-4.917c1.97-1.195 4.22-1.827 6.68-1.827s4.7.632 6.67 1.827c1.97 1.194 3.51 2.81 4.64 4.917 1.12 2.108 1.68 4.426 1.68 7.025 0 2.529-.56 4.918-1.68 7.025zm-4.29-11.099a7.327 7.327 0 00-2.88-2.81c-1.19-.703-2.6-1.054-4.14-1.054-1.55 0-2.95.351-4.15 1.054-1.19.702-2.18 1.615-2.88 2.81-.7 1.194-1.05 2.529-1.05 4.004 0 1.475.35 2.81 1.05 4.004a7.4 7.4 0 002.88 2.81c1.2.703 2.6 1.054 4.15 1.054 1.54 0 2.95-.351 4.14-1.054 1.2-.702 2.18-1.616 2.88-2.81.7-1.194 1.06-2.529 1.06-4.004-.07-1.475-.36-2.81-1.06-4.004zm-19.53-37.093h25.08v4.778l-15.24 12.504h15.24v5.761h-25.08v-4.777l15.25-12.435h-15.25v-5.83zm16.16-17.984h8.92v5.831h-8.99l-16.16 9.695v-6.182l11.17-6.674-11.17-6.674v-5.69l16.23 9.694zm4.14-28.943h4.71v18.968h-3.79l-9.13-9.695c-.99-1.053-1.83-1.686-2.53-2.107-.71-.352-1.41-.562-2.11-.562-.98 0-1.76.351-2.32 1.053-.56.703-.77 1.687-.77 3.021 0 1.124.21 2.108.63 2.95a6.299 6.299 0 001.9 2.249l-2.74 4.215c-1.48-.984-2.6-2.318-3.44-4.075-.85-1.686-1.27-3.723-1.27-5.9 0-1.898.28-3.513.91-4.918.64-1.405 1.48-2.459 2.6-3.232 1.13-.773 2.39-1.194 3.94-1.194 1.33 0 2.67.281 3.86.843 1.2.562 2.53 1.686 4.08 3.302l5.47 5.76V33.005zm59.65 308.821l-.07-15.034-7.38 12.364h-2.6l-7.37-12.083v14.753h-5.48v-25.08h4.77l9.42 15.596 9.27-15.596h4.78l.07 25.08h-5.41zm16.51-1.265c-2.11-1.124-3.73-2.669-4.92-4.636-1.2-1.967-1.76-4.215-1.76-6.674 0-2.459.56-4.707 1.76-6.674 1.19-1.967 2.81-3.512 4.92-4.636 2.1-1.124 4.42-1.686 7.02-1.686 2.6 0 4.92.562 7.03 1.686 2.1 1.124 3.72 2.669 4.91 4.636 1.2 1.967 1.76 4.215 1.76 6.674 0 2.459-.63 4.707-1.76 6.674-1.19 1.967-2.81 3.512-4.91 4.636-2.11 1.124-4.43 1.686-7.03 1.686-2.6 0-4.92-.562-7.02-1.686zm11.1-4.285c1.19-.703 2.1-1.616 2.81-2.88.7-1.195 1.05-2.6 1.05-4.145 0-1.546-.35-2.951-1.05-4.145-.71-1.194-1.62-2.178-2.81-2.88-1.2-.703-2.53-1.054-4.01-1.054-1.47 0-2.81.351-4 1.054a7.332 7.332 0 00-2.81 2.88c-.71 1.194-1.06 2.599-1.06 4.145 0 1.545.35 2.95 1.06 4.145.7 1.194 1.61 2.177 2.81 2.88 1.19.702 2.53 1.054 4 1.054 1.48 0 2.81-.352 4.01-1.054zm14.05-19.53h11.38c2.74 0 5.12.492 7.23 1.546 2.11 1.054 3.73 2.529 4.85 4.355 1.12 1.897 1.76 4.075 1.76 6.604s-.57 4.707-1.76 6.603c-1.19 1.897-2.81 3.372-4.85 4.356-2.11 1.054-4.49 1.545-7.23 1.545h-11.38v-25.009zm11.1 20.303c2.52 0 4.49-.703 5.97-2.108 1.47-1.405 2.24-3.302 2.24-5.69 0-2.389-.77-4.285-2.24-5.69-1.48-1.405-3.52-2.108-5.97-2.108h-5.27v15.525h5.27v.071zm33.36 4.777l-6.04-8.711-5.97 8.711H1265l9.27-12.786-8.78-12.294h6.6l5.76 8.149 5.69-8.149h6.26l-8.71 12.083 9.34 12.997h-6.75zM9.835 82.321c-1.405-.632-2.6-1.546-3.512-2.74l3.231-3.864c1.335 1.827 2.88 2.74 4.636 2.74 2.39 0 3.513-1.405 3.513-4.144V62.37H8.922v-4.637h14.612v16.298c0 3.091-.773 5.41-2.318 6.955-1.546 1.546-3.794 2.319-6.745 2.319a11.19 11.19 0 01-4.636-.984zm24.517-.702c-2.107-1.124-3.723-2.67-4.917-4.637-1.194-1.967-1.756-4.215-1.756-6.674 0-2.458.562-4.706 1.756-6.674 1.194-1.967 2.81-3.512 4.918-4.636 2.107-1.124 4.425-1.686 7.024-1.686 2.6 0 4.918.562 7.026 1.686 2.107 1.124 3.723 2.67 4.917 4.637 1.194 1.967 1.827 4.215 1.827 6.673 0 2.46-.633 4.707-1.827 6.674-1.194 1.967-2.81 3.513-4.917 4.637-2.108 1.124-4.426 1.686-7.026 1.686-2.599 0-4.917-.562-7.025-1.686zm11.03-4.286a7.39 7.39 0 002.81-2.88c.702-1.194 1.054-2.6 1.054-4.145 0-1.545-.352-2.95-1.054-4.144-.703-1.195-1.616-2.178-2.81-2.88-1.194-.703-2.53-1.054-4.005-1.054s-2.81.35-4.004 1.053a7.388 7.388 0 00-2.81 2.88c-.702 1.195-1.053 2.6-1.053 4.145 0 1.546.35 2.95 1.053 4.145.703 1.194 1.616 2.178 2.81 2.88 1.195.703 2.53 1.054 4.005 1.054s2.81-.421 4.004-1.054zM64.63 81.62c-2.107-1.124-3.723-2.67-4.917-4.637-1.194-1.967-1.757-4.215-1.757-6.674 0-2.458.563-4.706 1.757-6.674 1.194-1.967 2.81-3.512 4.917-4.636 2.108-1.124 4.426-1.686 7.025-1.686 2.6 0 4.918.562 7.025 1.686 2.108 1.124 3.724 2.67 4.918 4.637 1.194 1.967 1.826 4.215 1.826 6.673 0 2.46-.632 4.707-1.826 6.674-1.194 1.967-2.81 3.513-4.918 4.637-2.107 1.124-4.425 1.686-7.025 1.686-2.599 0-4.987-.562-7.025-1.686zm11.03-4.286a7.389 7.389 0 002.81-2.88c.702-1.194 1.053-2.6 1.053-4.145 0-1.545-.35-2.95-1.053-4.144-.703-1.195-1.616-2.178-2.81-2.88-1.195-.703-2.53-1.054-4.005-1.054s-2.81.35-4.004 1.053a7.388 7.388 0 00-2.81 2.88c-.702 1.195-1.054 2.6-1.054 4.145 0 1.546.352 2.95 1.054 4.145.703 1.194 1.616 2.178 2.81 2.88 1.194.703 2.53 1.054 4.004 1.054 1.476 0 2.81-.421 4.005-1.054zm36.881 5.48l-.07-15.034-7.377 12.364h-2.599L95.119 68.06v14.753h-5.48v-25.08h4.777l9.414 15.596 9.273-15.596h4.777l.07 25.08h-5.409zm11.381-25.08h5.83v20.373h12.575v4.707h-18.405v-25.08zm38.427 19.74h-11.662l-2.248 5.34h-5.971l11.17-25.08h5.76l11.24 25.08h-6.112l-2.177-5.34zm-1.827-4.425l-4.004-9.624-4.004 9.624h8.008zm686.767 243.277h11.381c2.74 0 5.128.492 7.236 1.546 2.107 1.053 3.723 2.529 4.847 4.355 1.194 1.897 1.756 4.075 1.756 6.604s-.562 4.707-1.756 6.603c-1.124 1.897-2.81 3.372-4.847 4.356-2.108 1.054-4.496 1.545-7.236 1.545h-11.381v-25.009zm11.1 20.373c2.529 0 4.496-.703 5.971-2.108 1.475-1.405 2.248-3.301 2.248-5.69 0-2.389-.773-4.285-2.248-5.69-1.475-1.405-3.512-2.108-5.971-2.108h-5.339v15.526h5.339v.07zm34.493 4.706l-4.847-6.954h-5.339v6.954h-5.831v-25.079h10.889c2.248 0 4.144.351 5.76 1.124 1.616.773 2.88 1.756 3.794 3.161.913 1.405 1.334 2.951 1.334 4.847 0 1.897-.421 3.443-1.334 4.848-.914 1.405-2.178 2.388-3.794 3.091l5.62 8.079h-6.252v-.071zm-1.475-19.178c-.914-.773-2.248-1.124-4.005-1.124h-4.706v8.711h4.706c1.757 0 3.091-.351 4.005-1.124.913-.773 1.334-1.826 1.334-3.232 0-1.405-.421-2.458-1.334-3.231zm14.612 16.649c-1.967-1.967-3.021-4.777-3.021-8.5v-14.05h5.831v13.839c0 4.496 1.896 6.744 5.62 6.744 1.826 0 3.231-.562 4.144-1.615.984-1.054 1.405-2.81 1.405-5.129v-13.839h5.761v14.05c0 3.653-.984 6.533-3.021 8.5-1.967 1.967-4.777 2.951-8.36 2.951-3.582.07-6.392-.984-8.359-2.951zm42.08-21.426c1.615.773 2.88 1.756 3.793 3.161.913 1.405 1.335 2.951 1.335 4.847 0 1.827-.422 3.443-1.335 4.848-.913 1.405-2.178 2.458-3.793 3.161-1.616.702-3.583 1.124-5.761 1.124h-5.058v6.884h-5.831v-25.079h10.889c2.178-.07 4.145.351 5.761 1.054zm-2.178 11.24c.913-.773 1.335-1.827 1.335-3.232 0-1.405-.422-2.458-1.335-3.231-.913-.773-2.248-1.124-4.004-1.124h-4.707v8.711h4.707c1.826 0 3.161-.422 4.004-1.124zm26.625 7.376h-11.662l-2.248 5.339h-5.971l11.17-25.079h5.76l11.24 25.079h-6.112l-2.177-5.339zm-1.827-4.425l-4.004-9.625-4.004 9.625h8.008zm12.786-15.315h5.83v20.373h12.575v4.706h-18.405v-25.079zm-911.83-84.069c0-1.827.282-2.881.984-3.513.562-.562 1.827-.632 3.302-.351 1.616.281 2.81.913 3.512 1.897.633.913 1.054 2.318 1.054 4.144v2.811l-8.922-1.687c.07-.07.07-3.301.07-3.301zm17.844 11.31v-4.636l-5.69-1.054v-4.005c0-1.826-.14-3.091-.492-4.355a6.898 6.898 0 00-1.897-3.021c-.632-.773-1.545-1.405-2.388-1.967-.843-.421-1.897-.843-2.81-.983-2.53-.422-4.426-.141-5.901 1.053-1.405 1.195-2.108 3.091-2.108 5.831v8.922l21.286 4.215zm-26.906-24.658v-4.636l5.69 1.053v-4.074c0-2.529.422-4.426 1.406-5.269.913-.983 2.388-1.335 4.425-.843l9.906 1.967v4.707l-9.344-1.897c-1.053-.211-1.826-.14-2.177.211-.352.351-.562 1.124-.562 2.318v3.653l12.153 2.389v4.636l-21.497-4.215zm9.063-23.955c0-1.827.28-2.88.983-3.513.562-.562 1.827-.632 3.302-.351 1.616.281 2.81.913 3.512 1.897.633.913 1.054 2.318 1.054 4.145v2.81l-8.922-1.686c.07-.141.07-3.302.07-3.302zm17.843 11.24v-4.637l-5.69-1.053v-4.005c0-1.826-.14-3.091-.492-4.355a6.898 6.898 0 00-1.897-3.021c-.632-.773-1.545-1.405-2.388-1.967-.843-.421-1.897-.843-2.81-.983-2.53-.422-4.426-.141-5.901 1.053-1.405 1.195-2.108 3.091-2.108 5.831v8.922l21.286 4.215zM1318.18 298.13l-20.38-12.856-3.72 6.042h-32.03l13.56-21.707.42-.071 37.02-8.57-.77 1.194 5.9 3.864v32.104zm-18.06-13.839l15.88 9.975V267.08l-3.72-2.389-12.16 19.6zm-34.35 4.917h27.12l15.66-25.079-31.61 7.306-11.17 17.773zm10.82-20.161l-7.24-4.567v-32.174l20.45 12.855 3.65-6.041h32.03l-12.71 20.513 1.19.773-37.37 8.641zm-5.13-5.691l5.48 3.443 31.68-7.306-37.16-23.324v27.187zm20.86-18.265l19.46 12.224 9.98-16.088h-27.12l-2.32 3.864zM216.722 73.47l-1.334.28-.211-1.334c-.351-2.107-2.108-3.653-4.285-3.653-2.389 0-4.286 1.967-4.286 4.356 0 2.037 1.405 3.793 3.372 4.215l1.335.28-.351 1.265c-.843 2.81-.07 5.901 1.967 7.938l8.36 8.43 2.318-2.318-8.36-8.36a4.665 4.665 0 010-6.603c1.546-1.546 4.215-1.756 5.971-.492l2.389-2.388c-1.897-1.616-4.426-2.248-6.885-1.616z" fill="#000"/><path d="M221.57 86.325l8.359-8.36c.914-.913 2.038-1.404 3.302-1.404 1.265 0 2.389.491 3.302 1.334 1.616 1.616 1.826 4.145.492 5.972l2.388 2.388c1.616-2.037 2.248-4.707 1.475-7.236l-.421-1.405 1.475-.21c2.108-.281 3.723-2.108 3.723-4.286 0-2.388-1.967-4.355-4.285-4.355-2.178 0-4.004 1.615-4.285 3.723l-.211 1.475-1.405-.421a7.791 7.791 0 00-7.868 2.037l-8.43 8.36 2.389 2.388z" fill="#000"/><path d="M235.549 103.537l1.335-.422.281 1.335a4.285 4.285 0 004.215 3.442c2.389 0 4.285-1.967 4.285-4.355 0-2.178-1.615-4.005-3.723-4.286l-1.405-.21.351-1.335c.633-2.74-.14-5.55-2.107-7.517l-8.36-8.36-2.318 2.319 8.36 8.36a4.665 4.665 0 010 6.603c-.914.913-2.038 1.335-3.302 1.335-.984 0-1.897-.281-2.67-.843l-2.388 2.388c2.107 1.756 4.917 2.318 7.446 1.546z" fill="#000"/><path d="M210.891 107.892c2.038 0 3.724-1.405 4.215-3.372l.281-1.264 1.265.281c2.74.702 5.55-.071 7.587-2.108l8.36-8.36-2.318-2.318-8.36 8.36c-.913.913-2.037 1.335-3.302 1.335-1.264 0-2.459-.492-3.302-1.405-1.616-1.616-1.826-4.145-.492-5.972l-2.388-2.388c-1.546 1.967-2.178 4.566-1.546 7.025l.281 1.264-1.264.281c-1.967.492-3.302 2.178-3.302 4.215 0 2.529 1.897 4.426 4.285 4.426zm612.794 149.704c-4.847-4.707-9.413-9.273-10.748-14.472-1.335 5.199-5.971 9.765-10.748 14.472-7.166 7.165-15.315 15.314-15.315 27.608-.351 14.331 11.17 26.344 25.501 26.625 14.331.281 26.344-11.17 26.625-25.501v-1.124c0-12.224-8.149-20.373-15.315-27.608zm-23.534 29.996c-.772.984-1.475 2.108-1.967 3.232-.14.14-.281.351-.491.351h-.141c-.632 0-1.264-1.124-1.264-1.124a9.212 9.212 0 00-.492-.843l-.141-.281c-1.615-3.442-.281-8.289-.281-8.289.633-2.319 1.757-4.707 3.091-6.674.843-1.265 1.827-2.459 2.881-3.723l1.264 1.264 5.831 5.971c.281.281.281.633 0 .843l-6.042 6.815-2.248 2.458zm12.997 17.071c-4.918 0-9.063-4.074-8.922-9.062 0-2.248.843-4.355 2.248-5.971 1.826-2.248 4.215-4.426 6.814-7.447 2.951 3.232 4.918 5.339 6.814 7.798.141.141.281.351.352.632.983 1.476 1.615 3.232 1.615 5.058.141 4.988-3.934 8.992-8.921 8.992zm17-14.401c-.14.351-.491.632-.843.773h-.14a1.92 1.92 0 01-.843-.633c-1.616-2.318-3.372-4.566-5.339-6.533l-2.319-2.459-7.938-8.149c-1.616-1.475-3.231-3.231-4.707-4.847 0-.14-.14-.14-.14-.14a3.564 3.564 0 01-.632-1.265v-.281c-.281-1.335.281-2.74 1.264-3.723 1.475-1.475 3.091-3.091 4.566-4.707 1.616 1.756 3.372 3.442 5.058 5.199 3.443 3.231 6.534 6.814 9.414 10.607 2.318 3.372 3.583 7.166 3.583 11.24-.281 1.616-.492 3.372-.984 4.918zM1235.35 44.035c-4.28.14-8.08 2.529-10.89 5.83-3.09 3.583-5.13 7.868-6.67 12.224-2.67-2.178-4.71-4.988-8.99-6.252-3.3-.914-6.75-.562-9.91 1.826-1.47 1.124-2.53 2.81-3.02 4.426-1.26 4.145 1.34 7.868 2.53 9.203l2.6 2.81c.56.562 1.83 1.967 1.19 4.004-.7 2.248-3.37 3.653-6.11 2.81-1.19-.351-3.02-1.264-2.6-2.6.14-.561.56-.912.78-1.404.21-.422.28-.703.35-.843.49-1.616-.21-3.794-1.97-4.285-1.62-.492-3.3-.07-3.93 2.037-.78 2.388.42 6.744 6.53 8.64 7.23 2.249 13.28-1.685 14.12-6.814.56-3.231-.91-5.55-3.58-8.64l-2.18-2.389c-1.34-1.335-1.76-3.512-.42-5.269 1.12-1.475 2.74-2.037 5.41-1.334 3.86 1.053 5.62 3.723 8.5 5.9-1.2 3.935-1.97 7.869-2.67 11.381l-.42 2.6c-2.04 10.818-3.66 16.79-7.73 20.231-.84.562-2.04 1.476-3.8 1.546-.91 0-1.26-.632-1.26-.913 0-.633.56-.984.91-1.265.57-.28 1.41-.773 1.34-2.388-.07-1.897-1.62-3.513-3.87-3.443-1.68.07-4.21 1.616-4.14 4.567.07 3.02 2.88 5.268 7.1 5.128 2.24-.07 7.3-.984 12.22-6.885 5.76-6.744 7.37-14.471 8.57-20.162l1.33-7.446c.78.07 1.55.14 2.46.14 7.17.141 10.75-3.582 10.82-6.252.07-1.615-1.05-3.231-2.6-3.231-1.12 0-2.53.772-2.81 2.318-.35 1.475 2.32 2.88.21 4.215-1.47.913-4.07 1.616-7.72 1.054l.63-3.653c1.33-6.955 3.02-15.526 9.41-15.736.49 0 2.18 0 2.18 1.124 0 .35-.07.491-.49 1.334-.42.703-.64 1.265-.57 1.897.08 1.756 1.41 2.95 3.38 2.88 2.6-.07 3.37-2.67 3.3-3.934.07-3.16-3.23-5.128-7.52-4.987zm-674.276 22.36c-5.83-1.194-11.31-3.933-15.595-7.727-11.029-9.765-14.401-25.15-8.571-38.848 1.405-3.372 3.724-6.744 6.604-9.695l2.529-2.6.211 15.245c.14 14.612.21 15.385.913 17.211 1.405 3.654 2.88 6.042 5.409 8.571 6.604 6.604 16.298 8.22 24.518 4.145 7.727-3.794 12.574-12.083 12.012-20.513-.351-5.62-2.248-9.765-6.392-13.84-3.091-3.09-6.744-5.128-10.678-5.97-4.005-.844-3.864-.984-3.864 2.458v2.95l2.178.422c8.57 1.545 14.19 9.975 12.434 18.476-.562 2.74-1.827 5.128-3.864 7.306-3.091 3.372-7.446 4.917-11.24 4.917-6.323 0-11.521-3.582-14.12-8.851 0 0-.633-1.546-.914-2.46-1.264-5.479-.421-17.07-.421-17.07l-.07-16.93.983-.492c.562-.281 1.054-.492 1.194-.492.141 0 .211 7.798.281 17.282 0 0-1.194 12.434.281 17.211.211.703.633 1.897.633 1.897 1.334 2.67 3.442 5.058 6.182 6.323 2.107.983 3.091 1.404 6.182 1.404 2.037 0 3.793-.632 5.831-1.545 2.388-1.124 5.198-4.075 6.182-6.744 2.81-7.376-1.124-15.315-8.641-17.563-3.091-.913-3.021-.983-3.021 2.389v2.95l1.475.422c5.339 1.405 6.955 8.57 2.81 12.294-1.475 1.264-2.81 1.897-5.128 1.897-2.529 0-4.918-1.476-6.112-3.794-.773-1.405-.773-2.74-.773-3.302 0-5.55-.14-15.595-.14-15.595l-.07-17.212.772-.21c.422-.07 2.108-.352 3.794-.562 5.62-.703 13.98 1.124 19.6 4.355 7.657 4.356 13.418 11.872 15.806 20.513.843 2.95.913 3.864.913 8.64 0 4.778-.07 5.691-.913 8.572-3.302 11.802-11.591 20.232-23.463 23.814-2.529.773-3.653.914-8.079.984-3.724-.21-6.042-.281-7.658-.632z" fill="#000"/><path fill-rule="evenodd" clip-rule="evenodd" d="M406.89 236.24c0 .14.07.21.07.351v17.844c0 .491-.281.913-.632 1.124l-14.964 8.64v17.071c0 .492-.28.913-.632 1.124l-31.191 17.984c-.07.071-.14.071-.211.071 0 0-.07 0-.07.07a.977.977 0 01-.632 0c-.07 0-.07 0-.07-.07-.071 0-.141-.071-.211-.071l-31.191-17.984c-.422-.211-.633-.632-.633-1.124v-53.46c0-.141 0-.211.071-.352 0-.07 0-.07.07-.14 0-.07.07-.141.07-.211s.07-.07.07-.14c.071-.071.071-.141.141-.141.07-.07.07-.07.14-.07l.141-.141 15.596-8.992c.421-.21.913-.21 1.264 0l15.596 8.992c.07 0 .07.071.14.141.07 0 .07.07.141.07l.14.141c0 .07.07.07.07.14.071.07.071.141.071.211s.07.07.07.14c0 .141.07.211.07.352v33.369l12.996-7.517v-17.071c0-.141 0-.211.071-.351 0-.071 0-.071.07-.141 0-.07.07-.14.07-.211 0-.07.07-.07.07-.14.071-.07.071-.141.141-.141.07-.07.07-.07.14-.07l.141-.14 15.595-8.992c.422-.211.914-.211 1.265 0l15.596 8.992c.07 0 .07.07.14.14.07 0 .07.07.141.07l.14.141c0 .07.07.07.07.14.071.071.071.141.071.211-.211.07-.211.141-.211.141zm-2.529 17.422v-14.823l-5.48 3.161-7.517 4.356v14.823l12.997-7.517zm-15.596 26.835v-14.822l-7.446 4.215-21.216 12.083v14.963c.07 0 28.662-16.439 28.662-16.439zm-59.853-50.439v50.439l28.592 16.439v-14.963l-14.963-8.43c-.071 0-.071-.071-.141-.141-.07 0-.07-.07-.14-.07l-.141-.141c0-.07-.07-.07-.07-.14s-.07-.141-.07-.141c0-.07-.071-.07-.071-.14v-35.196l-7.517-4.355-5.479-3.161zm14.331-9.765l-12.996 7.517 12.996 7.516 12.996-7.516-12.996-7.517zm6.744 46.716l7.517-4.355v-32.596l-5.48 3.161-7.516 4.355v32.597c.07 0 5.479-3.162 5.479-3.162zm40.043-37.865l-12.997 7.517 12.997 7.517 12.996-7.517c0-.07-12.996-7.517-12.996-7.517zm-1.265 17.212L381.248 242l-5.479-3.161v14.823l7.517 4.355 5.479 3.162v-14.823zm-29.926 33.369l19.037-10.889 9.554-5.409-12.996-7.517-14.963 8.641-13.629 7.868 12.997 7.306z" fill="#000"/><path d="M700.466 301.502c6.393-6.393 15.174-12.013 19.53-18.335a2.65 2.65 0 00-1.476-4.075c-2.318-.632-6.112-1.264-11.942-1.264-11.521 0-47.138 2.248-52.337-10.046 0 0 3.091 13.348 25.642 14.472 22.55 1.124 21.285-.352 28.24.983 6.534 1.265 3.864 5.269 1.054 8.079-2.88 2.81-7.376 6.533-8.711 10.186zm-7.306 13.348a4.636 4.636 0 100-9.272 4.636 4.636 0 000 9.272zm-21.778 0a4.637 4.637 0 100-9.274 4.637 4.637 0 000 9.274z" fill="#000"/><path d="M22.69 247.128v2.178c6.113.984 11.662 5.761 11.943 14.331v12.926H5.971v-12.926c.281-8.641 5.831-13.347 11.943-14.331v-2.178c-6.112-.983-11.662-5.69-11.943-14.331v-15.033h28.662v15.033c-.28 8.571-5.76 13.348-11.942 14.331z" fill="#fff"/><path d="M34.633 278.038H5.971a1.484 1.484 0 01-1.475-1.475v-12.926c.281-9.203 6.112-13.91 11.521-15.385-5.48-1.475-11.24-6.182-11.52-15.385v-15.103c0-.773.631-1.476 1.474-1.476h28.662c.773 0 1.476.633 1.476 1.476v15.033c-.211 7.728-4.707 13.629-11.521 15.385 6.814 1.827 11.24 7.657 11.52 15.385v12.996c0 .843-.702 1.475-1.474 1.475zm-27.186-2.88h25.781v-11.521c-.28-8.219-5.69-12.083-10.678-12.926-.702-.141-1.194-.703-1.194-1.405v-2.178c0-.702.492-1.335 1.194-1.405 4.988-.843 10.468-4.636 10.678-12.926v-13.558H7.447v13.628c.28 8.29 5.69 12.083 10.748 12.926.702.141 1.194.703 1.194 1.405v2.178c0 .703-.492 1.335-1.194 1.405-4.988.773-10.467 4.637-10.748 12.926v11.451z" fill="#5F5269"/><path d="M29.856 269.046H10.748a1.44 1.44 0 01-1.334-.913 1.53 1.53 0 01.35-1.616l9.625-9.202a1.442 1.442 0 012.037 0l9.484 9.202a1.53 1.53 0 01.351 1.616c-.28.562-.843.913-1.405.913zm-15.455-2.88h11.943l-5.901-5.69-6.042 5.69zm5.972-24.517h-.211l-1.265-.211c-2.037-.351-6.884-1.827-7.095-8.781v-.843c0-.773.632-1.476 1.475-1.476.773 0 1.476.633 1.476 1.476v.772c.14 3.443 1.686 5.48 4.636 5.972l1.054.14.983-.14c.773-.141 1.546.421 1.686 1.194.14.773-.421 1.545-1.194 1.686l-1.194.211h-.351z" fill="#5F5269"/><path d="M37.163 217.764H3.513v8.149h33.65v-8.149z" fill="#fff"/><path d="M37.092 227.388H3.512a1.484 1.484 0 01-1.475-1.475v-8.149c0-.773.632-1.476 1.475-1.476h33.65c.773 0 1.476.633 1.476 1.476v8.149c-.07.843-.703 1.475-1.546 1.475zm-32.175-2.88h30.7v-5.269h-30.7v5.269z" fill="#5F5269"/><path d="M37.163 268.484H3.513v8.149h33.65v-8.149z" fill="#fff"/><path d="M37.092 278.038H3.512a1.484 1.484 0 01-1.475-1.475v-8.149c0-.773.633-1.475 1.476-1.475h33.65c.772 0 1.475.632 1.475 1.475v8.149c-.07.843-.703 1.475-1.546 1.475zm-32.174-2.88h30.699v-5.269h-30.7v5.269z" fill="#5F5269"/><path d="M1316.35 177.721c0 15.666-12.71 28.451-28.38 28.451-15.67 0-28.45-12.715-28.45-28.381s12.71-28.451 28.38-28.451c15.74 0 28.45 12.715 28.45 28.381z" fill="#fff"/><path d="M1287.97 207.577c-16.44 0-29.86-13.418-29.86-29.856 0-8.009 3.09-15.455 8.71-21.146 5.62-5.62 13.14-8.781 21.15-8.781 16.51 0 29.86 13.418 29.86 29.857 0 8.008-3.1 15.455-8.72 21.145-5.62 5.69-13.13 8.781-21.14 8.781zm0-56.832c-7.24 0-13.98 2.81-19.11 7.938-5.06 5.128-7.87 11.872-7.87 19.038 0 14.893 12.09 26.976 26.98 26.976v1.475-1.475c7.16 0 13.98-2.81 19.04-7.938 5.06-5.129 7.87-11.873 7.87-19.038.07-14.893-12.02-26.976-26.91-26.976z" fill="#5F5269"/><path d="M1287.97 179.196c-.28 0-.63-.07-.91-.281-.43-.351-.64-.913-.57-1.405l5.2-27.959c.14-.773.92-1.335 1.69-1.195.77.141 1.33.914 1.12 1.686l-4.7 25.15 23.11-10.959c.7-.351 1.61 0 1.9.702.35.703 0 1.616-.71 1.967l-25.71 12.154c0 .07-.21.14-.42.14z" fill="#5F5269"/><path d="M1307.5 199.85c-.35 0-.77-.141-1.05-.422l-19.46-20.653c-.57-.562-.5-1.476.07-2.038.56-.562 1.47-.491 2.03.071l19.46 20.653c.56.562.49 1.475-.07 2.037-.28.211-.63.352-.98.352z" fill="#5F5269"/><path d="M1300.97 177.721c0 7.166-5.84 12.996-13 12.996-7.17 0-13-5.83-13.07-12.996 0-7.165 5.83-12.996 13-12.996 7.23 0 13.07 5.831 13.07 12.996z" fill="#fff"/><path d="M1287.97 192.192c-7.94 0-14.47-6.463-14.47-14.471 0-8.009 6.46-14.472 14.47-14.472 8.01 0 14.47 6.463 14.47 14.472 0 8.008-6.46 14.471-14.47 14.471zm0-25.992c-6.39 0-11.59 5.198-11.59 11.591 0 6.393 5.2 11.591 11.59 11.591v1.476-1.476c6.39 0 11.59-5.198 11.59-11.591 0-6.463-5.2-11.591-11.59-11.591z" fill="#5F5269"/><path d="M1202.47 173.787l-13.2 13.277-13.21-13.277 5.06-5.058 8.15 8.079 8.15-8.079 5.05 5.058z" fill="#fff"/><path d="M1189.27 188.469c-.35 0-.77-.14-1.06-.421l-13.2-13.207a1.428 1.428 0 010-2.038l5.13-5.128a1.433 1.433 0 012.03 0l7.1 7.095 7.09-7.095c.28-.281.64-.421 1.06-.421.35 0 .77.14 1.05.421l5.13 5.128c.56.562.56 1.476 0 2.038l-13.21 13.207c-.35.281-.7.421-1.12.421zm-11.17-14.682l11.17 11.17 11.17-11.17-3.02-3.091-7.1 7.095c-.56.562-1.47.562-2.04 0l-7.09-7.095-3.09 3.091z" fill="#5F5269"/><path d="M1202.47 194.23l-13.2 13.207-13.21-13.207 5.06-5.128 8.15 8.149 8.15-8.149 5.05 5.128z" fill="#fff"/><path d="M1189.27 208.912c-.35 0-.77-.14-1.06-.421l-13.2-13.207a1.427 1.427 0 010-2.037l5.13-5.129c.28-.281.63-.421 1.05-.421.35 0 .77.14 1.05.421l7.1 7.096 7.09-7.096c.28-.281.64-.421 1.06-.421.35 0 .77.14 1.05.421l5.13 5.129c.56.562.56 1.475 0 2.037l-13.21 13.207c-.42.281-.84.421-1.19.421zm-11.17-14.682l11.17 11.17 11.17-11.17-3.02-3.091-7.1 7.095c-.56.562-1.47.562-2.04 0l-7.09-7.095-3.09 3.091zm-168.32 52.547h-.28c-2.32-.421-4.36-1.335-6.19-2.599a1.666 1.666 0 01-.63-1.054c-.07-.421.14-.843.42-1.124l.64-.632a14.45 14.45 0 01-2.11-2.108l-.07.071-.56.562c-.28.281-.71.421-1.127.421-.422-.07-.843-.281-1.054-.632-1.265-1.756-2.108-3.934-2.599-6.182-.071-.422 0-.843.281-1.195a1.467 1.467 0 011.124-.562h.913c-.07-.491-.07-.983-.07-1.475 0-.492 0-.983.07-1.475h-.913c-.422 0-.843-.211-1.124-.562-.281-.351-.422-.773-.281-1.194.421-2.248 1.264-4.356 2.599-6.182.211-.352.632-.562 1.054-.633.417-.07.847.141 1.127.422l.63.632c.63-.773 1.33-1.475 2.11-2.107l-.07-.071-.57-.562c-.28-.281-.49-.702-.42-1.194.07-.421.28-.843.63-1.054 1.83-1.264 3.94-2.107 6.19-2.529.42-.07.84 0 1.19.281s.56.703.56 1.124v.843c1.06-.14 1.97-.14 3.02 0v-.913c0-.421.21-.843.5-1.124.35-.281.77-.421 1.19-.281 2.25.422 4.29 1.265 6.18 2.529.35.211.56.632.63 1.054.07.421-.14.843-.42 1.194l-.63.632c.77.633 1.48 1.335 2.11 2.108l.07-.07.56-.562c.28-.281.7-.422 1.19-.422.43.07.85.281 1.06.632a15.949 15.949 0 012.46 5.831c.07.211.14.422.14.632 0 .773-.63 1.476-1.48 1.476h-.91c.07.491.07.983.07 1.475 0 .492 0 .983-.07 1.475h.84c.42 0 .85.211 1.13.562.28.351.42.773.28 1.194-.42 2.249-1.34 4.356-2.53 6.183-.21.351-.63.562-1.06.632-.42.07-.84-.141-1.12-.422l-.63-.632c-.63.773-1.34 1.475-2.11 2.108 0 0 .07.07.07.14l.49.492c.28.281.49.702.42 1.124-.07.421-.28.843-.63 1.054-1.82 1.264-3.93 2.107-6.18 2.599-.42.07-.84 0-1.19-.281-.36-.281-.5-.703-.5-1.124v-.913c-1.05.14-1.96.14-3.02 0v.913c0 .421-.21.843-.56 1.124-.21.211-.49.351-.84.351zm-3.44-4.145c.7.352 1.4.633 2.1.843.14-.491.28-.913.57-1.334 0-.071.07-.071.07-.141.35-.421.91-.702 1.47-.562 1.55.281 2.81.281 4.29 0 .56-.14 1.12.141 1.47.632 0 0 0 .071.07.071.28.491.49.913.56 1.405.71-.211 1.41-.492 2.11-.843-.21-.352-.42-.703-.49-1.054-.07-.07-.07-.211-.14-.351v-.211c-.07-.492.21-.984.63-1.335 1.2-.843 2.25-1.826 3.09-3.091.35-.492.99-.773 1.55-.562.14 0 .21.07.28.07.42.141.77.281 1.12.492.35-.703.63-1.405.85-2.108-.5-.14-.92-.281-1.34-.562-.07-.07-.14-.07-.21-.14-.49-.351-.63-.843-.56-1.405.14-.773.21-1.475.21-2.178 0-.702-.07-1.405-.21-2.178-.14-.562.14-1.194.63-1.475a7.64 7.64 0 011.41-.632c-.22-.703-.5-1.405-.85-2.108-.42.281-.84.422-1.33.562-.07 0-.14 0-.21.071-.57.14-1.06-.141-1.41-.633-.84-1.194-1.82-2.248-3.09-3.091-.42-.281-.7-.843-.63-1.334 0-.071 0-.211.07-.281.14-.492.28-.914.56-1.335-.7-.351-1.4-.632-2.11-.843-.14.492-.28.913-.56 1.335 0 .07-.07.07-.07.14-.35.492-.91.773-1.47.632-1.55-.281-2.74-.281-4.29 0-.35.071-.77 0-1.05-.21l-.42-.422c-.07-.07-.08-.07-.08-.14-.21-.422-.42-.843-.49-1.265-.7.211-1.4.492-2.1.843.28.422.42.843.56 1.335 0 .14.07.281.07.351 0 .492-.21.984-.63 1.265-1.2.843-2.25 1.826-3.1 3.091-.35.491-.91.702-1.47.632h-.14c-.42-.07-.91-.281-1.34-.562a13.589 13.589 0 00-.839 2.107c.492.141.909.281 1.339.562.07.071.21.141.28.211.35.351.56.843.49 1.405-.14.703-.21 1.475-.21 2.178 0 .702.07 1.405.21 2.178.07.421-.07.913-.35 1.264-.07.141-.28.211-.35.281-.43.211-.85.422-1.339.562.211.703.559 1.476.839 2.108.5-.281.92-.492 1.41-.562h.28c.49 0 .98.211 1.26.632.85 1.194 1.83 2.248 3.03 3.021.49.351.7.843.63 1.405-.14.281-.35.773-.63 1.264z" fill="#5F5269"/><path d="M1012.73 235.818c-3.09 0-5.55-2.529-5.55-5.55 0-3.091 2.53-5.55 5.55-5.55 3.09 0 5.55 2.529 5.55 5.55s-2.46 5.55-5.55 5.55zm0-8.29a2.666 2.666 0 00-2.67 2.67 2.665 2.665 0 002.67 2.669c1.47 0 2.67-1.194 2.67-2.669 0-1.405-1.2-2.67-2.67-2.67zm-27.75 51.002c-.352 0-.633-.14-.914-.351a1.468 1.468 0 01-.562-1.124v-1.335c0-.211-.07-.421-.14-.632a16.572 16.572 0 01-5.269 0c-.07.281-.14.562-.14.843v1.124c0 .421-.211.843-.562 1.124-.352.281-.773.351-1.195.281-3.231-.632-6.111-1.827-8.64-3.583-.352-.211-.562-.632-.633-1.054-.07-.421.141-.843.422-1.124l.913-.913c.141-.14.211-.351.351-.562a18.708 18.708 0 01-3.723-3.723c-.211.14-.421.281-.702.421l-.773.773c-.281.281-.703.422-1.124.422-.422-.071-.843-.281-1.054-.633-1.756-2.529-2.95-5.409-3.583-8.64-.07-.422 0-.843.281-1.195a1.468 1.468 0 011.124-.562h1.335c.211 0 .422-.07.632-.14-.14-.913-.21-1.827-.21-2.67s.07-1.686.21-2.599c-.281-.07-.562-.14-.843-.14h-1.124c-.421 0-.843-.211-1.124-.562-.281-.352-.421-.773-.281-1.195.633-3.161 1.827-6.041 3.583-8.64.211-.352.632-.562 1.054-.633.421-.07.843.141 1.124.422l.913.913c.141.141.351.281.562.351 1.054-1.405 2.318-2.669 3.723-3.793l-.421-.632-.843-.843c-.281-.281-.492-.703-.422-1.124.071-.422.281-.843.633-1.054a24.211 24.211 0 018.64-3.583c.422-.07.843 0 1.195.281.351.281.562.702.562 1.124v1.335c0 .21.07.421.14.632a16.572 16.572 0 015.269 0c.07-.281.14-.492.14-.773v-1.124c0-.421.211-.843.562-1.124.352-.281.773-.421 1.195-.281 3.091.632 6.041 1.827 8.57 3.513.351.211.562.632.632 1.054.071.421-.14.843-.421 1.194l-.913.913a1.536 1.536 0 00-.352.562c1.405 1.124 2.67 2.318 3.794 3.794l.632-.422.843-.843c.281-.281.703-.492 1.195-.421.421.07.839.281 1.049.632 1.69 2.529 2.88 5.269 3.52 8.289.07.211.14.352.14.633 0 .772-.63 1.475-1.48 1.475h-1.33c-.21 0-.42.07-.64.14a15.814 15.814 0 010 5.269c.29.07.5.141.78.141h1.12c.42 0 .84.21 1.13.562.28.351.42.772.28 1.194-.64 3.091-1.83 6.112-3.59 8.57-.21.352-.628.562-1.05.633-.421.07-.843-.141-1.194-.422l-.913-.913a1.53 1.53 0 00-.562-.351 19.417 19.417 0 01-3.794 3.793c.141.211.281.422.492.703l.843.772c.281.281.421.703.421 1.124-.07.422-.281.843-.632 1.054-2.599 1.756-5.479 2.951-8.641 3.583-.07 0-.14.07-.21.07zm-14.331-5.128a18.894 18.894 0 004.425 1.826 6.03 6.03 0 01.843-2.388c.071-.07.141-.211.211-.351.351-.352.843-.562 1.335-.422 2.248.422 4.145.422 6.393 0 .562-.14 1.124.141 1.475.632.492.843.843 1.686.983 2.529 1.546-.421 3.021-1.053 4.426-1.826-.491-.703-.843-1.335-1.053-2.037-.071-.071-.071-.211-.071-.281 0-.071 0-.141-.07-.211-.07-.562.14-1.124.632-1.405a15.706 15.706 0 004.566-4.566 1.547 1.547 0 011.476-.633c.07 0 .14 0 .211.071.772.21 1.545.562 2.247 1.053.773-1.405 1.402-2.88 1.822-4.425a6.459 6.459 0 01-2.383-.843c-.071-.071-.141-.071-.211-.141a1.524 1.524 0 01-.562-1.405c.21-1.194.351-2.248.351-3.231 0-.984-.141-2.038-.351-3.232-.071-.562.14-1.124.562-1.405.07-.07.14-.07.211-.14.702-.422 1.545-.703 2.383-.843-.42-1.546-1.049-3.021-1.822-4.426-.702.562-1.475.913-2.318 1.124-.07 0-.14 0-.211.07-.562.07-1.124-.14-1.405-.632a15.694 15.694 0 00-4.566-4.566 1.382 1.382 0 01-.632-1.195c0-.14 0-.351.07-.491.211-.843.562-1.616 1.124-2.248-1.405-.773-2.88-1.405-4.426-1.827a6.428 6.428 0 01-.843 2.389c-.07.07-.14.21-.21.281-.352.421-.843.562-1.405.491-2.248-.421-4.145-.421-6.393 0-.562.141-1.054-.07-1.405-.491-.07-.071-.211-.281-.211-.352a7.088 7.088 0 01-.773-2.248c-1.545.422-3.02 1.054-4.425 1.827.562.702.913 1.475 1.124 2.318 0 .07 0 .141.07.211a1.546 1.546 0 01-.632 1.475 15.722 15.722 0 00-4.567 4.566c-.351.492-.913.703-1.405.633-.07 0-.21 0-.21-.071-.703-.14-1.546-.491-2.319-1.053-.772 1.405-1.405 2.88-1.826 4.425a6.03 6.03 0 012.388.843c.071.071.141.071.141.141.562.281.702.843.562 1.475-.211 1.124-.351 2.178-.351 3.232 0 .983.14 2.037.351 3.231a1.529 1.529 0 01-.562 1.405c-.07.07-.141.141-.211.141-.702.421-1.545.702-2.388.843.421 1.545 1.053 3.02 1.826 4.425.843-.632 1.616-.983 2.318-1.124.071 0 .211 0 .281-.07.562-.07.984.141 1.335.632 1.194 1.827 2.74 3.302 4.566 4.567.422.281.703.843.633 1.405 0 .14-.071.281-.071.351-.07.421-.421 1.194-1.053 1.967z" fill="#5F5269"/><path d="M980.695 267.782c-6.815 0-12.435-5.55-12.435-12.434 0-6.815 5.55-12.435 12.435-12.435 6.814 0 12.434 5.55 12.434 12.435 0 6.884-5.55 12.434-12.434 12.434zm0-21.918c-5.269 0-9.484 4.285-9.484 9.484 0 5.268 4.285 9.483 9.484 9.483 5.268 0 9.483-4.285 9.483-9.483.071-5.199-4.215-9.484-9.483-9.484zm83.595-81.631c-.77 0-1.47-.632-1.47-1.475a4.71 4.71 0 00-4.71-4.707h-62.522a1.483 1.483 0 01-1.475-1.475c0-.773.632-1.476 1.475-1.476h62.522c4.22 0 7.59 3.443 7.59 7.587.07.914-.63 1.546-1.41 1.546z" fill="#5F5269"/><path d="M1005.42 171.96c-5.13 0-11.168-1.405-11.168-5.269v-10.045c0-.773.633-1.476 1.476-1.476h19.462c.77 0 1.47.633 1.47 1.476v4.566c0 5.831-4.7 10.608-10.54 10.748h-.7zm-8.358-13.909v8.64c0 .984 3.158 2.389 8.288 2.389h.63c4.22-.07 7.66-3.653 7.66-7.868v-3.161h-16.578zm35.338 13.909h-.7c-5.76-.14-10.54-4.987-10.54-10.748v-4.566c0-.773.63-1.475 1.47-1.475h19.46c.78 0 1.48.632 1.48 1.475v10.046c.07 3.863-5.97 5.268-11.17 5.268zm-8.29-13.909v3.091c0 4.215 3.44 7.798 7.66 7.868h.63c5.13 0 8.29-1.405 8.29-2.389v-8.64h-16.58v.07z" fill="#5F5269"/><path d="M1000.29 166.06a1.484 1.484 0 01-1.471-1.476v-3.442c0-.773.633-1.475 1.471-1.475h3.52c.77 0 1.47.632 1.47 1.475 0 .773-.63 1.475-1.47 1.475h-2.04v2.038c-.07.702-.7 1.405-1.48 1.405zm-72.143-41.448h-23.674a1.484 1.484 0 01-1.475-1.476c0-.772.632-1.475 1.475-1.475h23.674c.773 0 1.476.632 1.476 1.475 0 .843-.633 1.476-1.476 1.476zm0 8.43h-23.674a1.483 1.483 0 01-1.475-1.475c0-.773.632-1.476 1.475-1.476h23.674c.773 0 1.475.633 1.475 1.476 0 .772-.632 1.475-1.475 1.475zm-9.905 8.359h-13.769a1.483 1.483 0 01-1.475-1.475c0-.773.632-1.475 1.475-1.475h13.769c.773 0 1.475.632 1.475 1.475-.07.773-.702 1.475-1.475 1.475z" fill="#5F5269"/><path d="M584.693 347.586h-81.139v-27.959h48.754l20.864-12.435v12.435h11.521v27.959z" fill="#fff"/><path d="M584.693 349.061h-81.139a1.483 1.483 0 01-1.475-1.475v-27.959c0-.843.703-1.476 1.475-1.476h48.403l20.443-12.223c.491-.281 1.053-.281 1.475 0 .492.281.773.773.773 1.264l.07 10.959h9.975c.843 0 1.476.703 1.476 1.476v27.959c0 .843-.633 1.475-1.476 1.475zm-79.663-2.95h78.188v-24.939h-9.975c-.843 0-1.476-.632-1.476-1.475l-.07-9.835-18.546 11.099a1.413 1.413 0 01-.773.211H505.1v24.939h-.07z" fill="#5F5269"/><path d="M523.225 328.337h-11.311v11.311h11.311v-11.311z" fill="#fff"/><path d="M523.295 341.123h-11.31a1.484 1.484 0 01-1.476-1.475v-11.31c0-.843.703-1.476 1.476-1.476h11.31c.843 0 1.475.703 1.475 1.476v11.31c0 .843-.702 1.475-1.475 1.475zm-9.835-2.95h8.36v-8.36h-8.36v8.36zm56.13-7.587h-38.146a1.484 1.484 0 01-1.475-1.476c0-.843.702-1.475 1.475-1.475h38.146c.843 0 1.475.703 1.475 1.475 0 .843-.632 1.476-1.475 1.476zm-26.906 8.359h-11.24a1.483 1.483 0 01-1.476-1.475c0-.843.703-1.475 1.476-1.475h11.24c.843 0 1.475.702 1.475 1.475 0 .773-.703 1.475-1.475 1.475zm14.331 0h-5.62a1.484 1.484 0 01-1.476-1.475c0-.843.703-1.475 1.476-1.475h5.62c.843 0 1.475.702 1.475 1.475.07.773-.632 1.475-1.475 1.475zm154.761-130.314c-12.856 0-23.393-10.467-23.393-23.393 0-12.856 10.467-23.394 23.393-23.394 12.856 0 23.394 10.468 23.394 23.394 0 12.926-10.468 23.393-23.394 23.393zm0-44.539c-11.661 0-21.145 9.484-21.145 21.146 0 11.661 9.484 21.145 21.145 21.145 11.662 0 21.146-9.484 21.146-21.145 0-11.662-9.484-21.146-21.146-21.146z" fill="#5F5269"/><path d="M711.776 201.395c-8.851 0-16.087-7.235-16.087-16.087s7.236-16.087 16.087-16.087c8.852 0 16.088 7.235 16.088 16.087s-7.236 16.087-16.088 16.087zm0-29.997c-7.657 0-13.909 6.253-13.909 13.91s6.252 13.91 13.909 13.91c7.658 0 13.91-6.253 13.91-13.91s-6.252-13.91-13.91-13.91z" fill="#5F5269"/><path d="M703.346 186.362a1.11 1.11 0 01-1.124-1.124c0-5.269 4.285-9.554 9.554-9.554a1.11 1.11 0 011.124 1.124 1.11 1.11 0 01-1.124 1.124c-4.074 0-7.306 3.301-7.306 7.306a1.11 1.11 0 01-1.124 1.124z" fill="#5F5269"/><path d="M727.512 201.044l6.604 6.604-6.604-6.604z" fill="#fff"/><path d="M734.186 208.771c-.281 0-.562-.14-.773-.351l-6.603-6.603a1.102 1.102 0 010-1.546 1.103 1.103 0 011.545 0l6.604 6.604a1.103 1.103 0 010 1.545c-.211.211-.492.351-.773.351z" fill="#5F5269"/><path d="M736.926 200.201l12.434 12.364a7.209 7.209 0 010 10.187c-1.405 1.405-3.231 2.107-5.128 2.107-1.826 0-3.723-.702-5.128-2.107l-12.435-12.365 10.257-10.186z" fill="#fff"/><path d="M744.232 225.983c-2.248 0-4.286-.843-5.901-2.459l-12.435-12.364c-.21-.211-.351-.492-.351-.773s.141-.562.351-.772l10.187-10.187a1.103 1.103 0 011.545 0l12.434 12.364c3.232 3.232 3.232 8.501 0 11.803-1.545 1.545-3.653 2.388-5.83 2.388zm-16.017-15.596l11.661 11.592a6.165 6.165 0 004.356 1.826c1.615 0 3.161-.632 4.355-1.826a6.105 6.105 0 000-8.641l-11.591-11.591-8.781 8.64zm233.231-46.505a1.43 1.43 0 01-1.054-.422l-5.901-5.901-4.707 4.707c-.351.351-.843.492-1.405.421-.491-.07-.913-.421-1.124-.913l-10.888-27.257a1.528 1.528 0 011.967-1.967l27.327 10.889c.492.211.843.632.913 1.124.07.492-.07 1.054-.421 1.405l-4.707 4.707 5.901 5.901c.562.562.562 1.545 0 2.177l-4.847 4.848c-.211.07-.633.281-1.054.281zm-6.955-10.046c.422 0 .773.14 1.054.421l5.901 5.901 2.74-2.739-5.901-5.901c-.562-.562-.562-1.546 0-2.178l4.144-4.145-21.847-8.711 8.781 21.848 4.145-4.145c.14-.211.562-.351.983-.351z" fill="#5F5269"/><path d="M862.815 166.34c0-9.413-11.943-9.413-11.943 0v62.664l5.971 23.463 5.972-23.463V166.34z" fill="#fff"/><path d="M856.843 254.013c-.702 0-1.264-.492-1.475-1.124l-5.971-23.464c0-.14-.071-.211-.071-.351v-62.663c0-5.62 3.724-8.571 7.447-8.571 1.967 0 3.793.773 5.198 2.248 1.476 1.546 2.248 3.723 2.248 6.323v62.663c0 .14 0 .281-.07.351l-5.971 23.464c-.07.632-.703 1.124-1.335 1.124zm-4.496-25.15l4.496 17.563 4.496-17.563V166.34c0-1.756-.492-3.231-1.475-4.285-2.318-2.459-7.517-1.545-7.517 4.285v62.523z" fill="#5F5269"/><path d="M862.815 174.068h-11.943a1.484 1.484 0 01-1.475-1.476c0-.843.702-1.475 1.475-1.475h11.943c.843 0 1.475.703 1.475 1.475 0 .773-.703 1.476-1.475 1.476zm0 6.393h-11.943a1.484 1.484 0 01-1.475-1.476c0-.843.702-1.475 1.475-1.475h11.943c.843 0 1.475.703 1.475 1.475 0 .843-.703 1.476-1.475 1.476zm-3.162 59.783h-5.69a1.484 1.484 0 01-1.475-1.476c0-.843.702-1.475 1.475-1.475h5.69c.843 0 1.476.703 1.476 1.475 0 .843-.633 1.476-1.476 1.476zm3.162-10.046h-11.943a1.484 1.484 0 01-1.475-1.475c0-.843.702-1.476 1.475-1.476h11.943c.843 0 1.475.703 1.475 1.476 0 .772-.703 1.475-1.475 1.475z" fill="#5F5269"/><path d="M855.017 224.508a1.484 1.484 0 01-1.475-1.476v-43.274c0-.843.702-1.475 1.475-1.475.843 0 1.475.702 1.475 1.475v43.274c.07.843-.632 1.476-1.475 1.476zm68.986-1.757h-12.505a1.483 1.483 0 01-1.475-1.475v-9.554c0-.843.702-1.475 1.475-1.475h12.505c.843 0 1.475.702 1.475 1.475v9.554c0 .773-.703 1.475-1.475 1.475zm-11.03-3.02h9.554v-6.534h-9.554v6.534zm11.03 18.897h-12.505a1.484 1.484 0 01-1.475-1.475v-9.554c0-.843.702-1.476 1.475-1.476h12.505c.843 0 1.475.703 1.475 1.476v9.554c0 .843-.703 1.475-1.475 1.475zm-11.03-2.951h9.554v-6.533h-9.554v6.533zm11.03 18.898h-12.505a1.484 1.484 0 01-1.475-1.475v-9.554c0-.843.702-1.476 1.475-1.476h12.505c.843 0 1.475.703 1.475 1.476v9.554c0 .843-.703 1.475-1.475 1.475zm-11.03-2.951h9.554v-6.533h-9.554v6.533zm-722.314-3.934H182.3c-.984 0-1.827-.843-1.827-1.826v-25.361c0-.983.843-1.826 1.827-1.826h8.359c.984 0 1.827.843 1.827 1.826v25.361c0 .983-.773 1.826-1.827 1.826zm-6.533-3.653h4.777V222.33h-4.777v21.707zm23.815 3.653h-8.43c-.984 0-1.827-.843-1.827-1.826v-25.361c0-.983.843-1.826 1.827-1.826h8.43c.984 0 1.827.843 1.827 1.826v25.361c0 .983-.843 1.826-1.827 1.826zm-6.604-3.653h4.777V222.33h-4.777v21.707zm23.815 3.653h-8.36c-.983 0-1.826-.843-1.826-1.826v-25.361c0-.983.843-1.826 1.826-1.826h8.36c.984 0 1.827.843 1.827 1.826v25.361c0 .983-.773 1.826-1.827 1.826zm-6.533-3.653h4.777V222.33h-4.777v21.707zm104.884 130.947h-1.897c-.773 0-1.475-.632-1.405-1.476 0-.772.632-1.475 1.475-1.405h1.897c.773 0 1.475.633 1.405 1.476-.07.773-.703 1.405-1.475 1.405zm-11.381-.07h-1.897c-.772 0-1.475-.633-1.405-1.476 0-.772.633-1.475 1.476-1.405h1.896c.773 0 1.476.633 1.405 1.476-.07.772-.702 1.405-1.475 1.405zm-11.38-.071h-1.897c-.773 0-1.475-.632-1.405-1.475 0-.773.632-1.475 1.475-1.475h1.897c.773 0 1.475.632 1.405 1.475-.07.843-.703 1.475-1.475 1.475zm-11.381-.14h-1.897c-.772 0-1.475-.632-1.405-1.475 0-.773.633-1.476 1.476-1.405h1.896c.773 0 1.476.632 1.405 1.475-.07.773-.702 1.475-1.475 1.405zm-11.38-.07h-1.897c-.773 0-1.475-.633-1.405-1.476 0-.772.632-1.475 1.475-1.405h1.897c.773 0 1.475.633 1.405 1.476-.07.772-.703 1.405-1.475 1.405zm-11.381-.071h-1.897c-.772 0-1.475-.632-1.405-1.475 0-.773.633-1.475 1.476-1.475h1.896c.773 0 1.476.632 1.405 1.475-.07.843-.702 1.475-1.475 1.475zm-11.381-.07h-1.896c-.773 0-1.476-.632-1.405-1.475 0-.773.632-1.475 1.475-1.405h1.897c.772 0 1.475.632 1.405 1.475-.071.773-.703 1.405-1.476 1.405zm-11.38-.07h-1.897c-.773 0-1.475-.632-1.405-1.475 0-.773.632-1.476 1.475-1.476h1.897c.773 0 1.475.633 1.405 1.476 0 .843-.702 1.475-1.475 1.475zm-11.381-.07h-1.896a1.485 1.485 0 01-1.476-1.476c0-.772.633-1.475 1.476-1.405h1.896c.773 0 1.476.633 1.405 1.476.071.772-.632 1.405-1.405 1.405zm-11.38-.071h-1.897a1.483 1.483 0 01-1.475-1.475c0-.773.632-1.475 1.475-1.475h1.897c.773 0 1.475.632 1.405 1.475.07.843-.632 1.475-1.405 1.475zm-11.381-.07H207.8a1.484 1.484 0 01-1.475-1.475c0-.773.632-1.475 1.475-1.405h1.897c.773 0 1.475.632 1.405 1.475.07.703-.632 1.405-1.405 1.405zm-11.38-.14h-1.897c-.773 0-1.475-.633-1.405-1.476 0-.772.632-1.475 1.475-1.405h1.897c.773 0 1.475.633 1.405 1.476 0 .772-.703 1.475-1.475 1.405zm-11.381-.07h-1.897a1.485 1.485 0 01-1.475-1.476c0-.772.632-1.475 1.475-1.475h1.897c.773 0 1.475.632 1.405 1.475.07.843-.632 1.476-1.405 1.476zm-11.38-.071h-1.897a1.483 1.483 0 01-1.475-1.475c0-.773.632-1.475 1.475-1.405h1.897c.772 0 1.475.632 1.475 1.475 0 .773-.703 1.405-1.475 1.405zm-11.381-.07h-1.897c-.772 0-1.475-.632-1.405-1.475 0-.773.633-1.476 1.476-1.476h1.896c.773 0 1.476.633 1.476 1.476-.071.843-.773 1.475-1.546 1.475zm-11.381-.07h-1.896c-.773 0-1.476-.633-1.405-1.476 0-.772.632-1.475 1.475-1.405h1.897c.772 0 1.475.633 1.475 1.476-.07.772-.773 1.405-1.546 1.405zm640.473-186.796h31.191c.773 0 1.475.632 1.475 1.475 0 .773-.632 1.475-1.475 1.475h-31.191a1.483 1.483 0 01-1.475-1.475c.07-.843.702-1.475 1.475-1.475zm0 8.36h31.191c.773 0 1.475.632 1.475 1.475 0 .773-.632 1.475-1.475 1.475h-31.191a1.483 1.483 0 01-1.475-1.475c.07-.843.702-1.475 1.475-1.475zm0 8.289h13.699c.772 0 1.475.633 1.475 1.476 0 .772-.632 1.475-1.475 1.475h-13.699a1.483 1.483 0 01-1.475-1.475c.07-.843.702-1.476 1.475-1.476zm-785.89.422A1.484 1.484 0 015.9 202.59v-49.386c0-10.397 8.43-18.828 18.827-18.828H36.53c.773 0 1.475.633 1.475 1.476 0 .772-.632 1.475-1.475 1.475H24.798c-8.781 0-15.946 7.166-15.946 15.947v49.386c0 .773-.633 1.405-1.476 1.405zm46.926 123.5h-1.896a1.484 1.484 0 01-1.476-1.475c0-.773.633-1.476 1.476-1.476h1.896c.773 0 1.476.633 1.476 1.476s-.703 1.475-1.476 1.475zm-11.38 0h-1.897a1.484 1.484 0 01-1.475-1.475c0-.773.632-1.476 1.475-1.476h1.897c.773 0 1.475.633 1.475 1.476s-.632 1.475-1.475 1.475zm-11.31-.843c-.14 0-.281 0-.422-.07-.632-.211-1.264-.492-1.897-.773-.702-.351-1.053-1.194-.702-1.897.351-.702 1.194-1.054 1.897-.702.491.21 1.053.421 1.615.632.773.281 1.195 1.054.914 1.826a1.529 1.529 0 01-1.405.984zm-8.922-6.674a1.38 1.38 0 01-1.194-.632 8.962 8.962 0 01-1.054-1.756c-.352-.703-.14-1.616.562-1.967.702-.352 1.616-.141 1.967.562.28.491.562.983.913 1.475.421.632.281 1.545-.351 2.037a1.348 1.348 0 01-.843.281zm-3.091-9.273a1.484 1.484 0 01-1.476-1.475v-1.897c0-.773.633-1.475 1.476-1.475.772 0 1.475.632 1.475 1.405v1.897c0 .913-.632 1.545-1.475 1.545zm-.07-11.38a1.485 1.485 0 01-1.476-1.476v-1.896c0-.773.633-1.476 1.476-1.476.772.071 1.475.633 1.475 1.405v1.897c0 .913-.633 1.546-1.476 1.546zm-.07-11.381a1.484 1.484 0 01-1.476-1.475v-1.897c0-.773.632-1.475 1.475-1.475.843 0 1.476.632 1.476 1.405v1.897c0 .913-.633 1.545-1.476 1.545zm26.484-144.575c-.281 0-.633-.07-.843-.281-.633-.492-.773-1.405-.281-2.037l3.934-5.269-3.934-5.269c-.492-.632-.352-1.545.28-2.037.633-.492 1.546-.351 2.038.281l4.566 6.112c.422.491.422 1.194 0 1.756l-4.566 6.112a1.47 1.47 0 01-1.194.632zm12.996 0c-.28 0-.632-.07-.843-.281-.632-.492-.773-1.405-.28-2.037l3.933-5.269-3.934-5.269c-.492-.632-.351-1.546.281-2.037.632-.492 1.546-.352 2.037.281l4.567 6.111c.421.492.421 1.195 0 1.757l-4.567 6.112c-.35.421-.772.632-1.194.632zm12.996 0c-.28 0-.632-.07-.843-.281-.632-.492-.772-1.405-.28-2.037l3.933-5.269-3.934-5.269c-.491-.632-.35-1.546.281-2.037.633-.492 1.546-.352 2.038.281l4.566 6.111c.421.492.421 1.195 0 1.757l-4.566 6.112c-.352.421-.773.632-1.195.632zM1287.9 86.817c-.28 0-.63-.07-.84-.281l-6.12-4.566c-.63-.492-.77-1.405-.28-2.038.5-.632 1.41-.772 2.04-.28l5.27 3.933 5.27-3.934c.63-.491 1.54-.35 2.04.281.49.633.35 1.546-.29 2.038l-6.11 4.566c-.35.21-.63.281-.98.281zm0 12.996c-.28 0-.63-.07-.84-.28l-6.12-4.567c-.63-.492-.77-1.405-.28-2.037.5-.633 1.41-.773 2.04-.281l5.27 3.934 5.27-3.934c.63-.492 1.54-.352 2.04.28.49.633.35 1.546-.29 2.038l-6.11 4.566c-.35.211-.63.281-.98.281zm0 12.997c-.28 0-.63-.071-.84-.281l-6.12-4.567c-.63-.491-.77-1.405-.28-2.037.5-.632 1.41-.773 2.04-.281l5.27 3.934 5.27-3.934c.63-.492 1.54-.351 2.04.281.49.632.35 1.546-.29 2.037l-6.11 4.567c-.35.14-.63.281-.98.281zm-579.285 26.203v-1.897c0-.772.632-1.475 1.475-1.475.773 0 1.476.632 1.476 1.475v1.897c0 .773-.633 1.475-1.476 1.475a1.483 1.483 0 01-1.475-1.475zm0-11.38v-1.897c0-.773.632-1.476 1.475-1.476.773 0 1.476.633 1.476 1.476v1.897c0 .772-.633 1.475-1.476 1.475a1.484 1.484 0 01-1.475-1.475zm0-11.381v-1.897c0-.773.632-1.475 1.475-1.475.773 0 1.476.632 1.476 1.475v1.897c0 .773-.633 1.475-1.476 1.475a1.483 1.483 0 01-1.475-1.475zm0-11.381v-1.896c0-.773.632-1.476 1.475-1.476.773 0 1.476.633 1.476 1.476v1.896c0 .773-.633 1.476-1.476 1.476a1.484 1.484 0 01-1.475-1.476z" fill="#5F5269"/><path d="M715.289 84.92a5.187 5.187 0 01-5.199 5.199 5.187 5.187 0 01-5.198-5.199 5.187 5.187 0 015.198-5.198c2.81-.07 5.199 2.318 5.199 5.198z" fill="#fff"/><path d="M710.02 91.594c-3.653 0-6.674-3.02-6.674-6.674 0-3.653 3.021-6.674 6.674-6.674 3.653 0 6.674 3.021 6.674 6.674 0 3.653-2.951 6.674-6.674 6.674zm0-10.467a3.778 3.778 0 00-3.794 3.793 3.778 3.778 0 003.794 3.794 3.778 3.778 0 003.793-3.794 3.778 3.778 0 00-3.793-3.793z" fill="#5F5269"/><path d="M336.218 378.777a5.186 5.186 0 01-5.198-5.198 5.186 5.186 0 015.198-5.199 5.187 5.187 0 015.199 5.199c0 2.81-2.319 5.198-5.199 5.198z" fill="#fff"/><path d="M329.544 373.508c0-3.653 3.021-6.673 6.674-6.673 3.653 0 6.674 3.02 6.674 6.673 0 3.654-3.021 6.674-6.674 6.674a6.627 6.627 0 01-6.674-6.674zm10.397 0a3.778 3.778 0 00-3.793-3.793 3.778 3.778 0 00-3.794 3.793 3.778 3.778 0 003.794 3.794 3.778 3.778 0 003.793-3.794z" fill="#5F5269"/><path d="M140.501 377.513a5.199 5.199 0 10-.001-10.397 5.199 5.199 0 00.001 10.397z" fill="#fff"/><path d="M133.827 372.314c0-3.653 3.021-6.673 6.674-6.673 3.653 0 6.673 3.02 6.673 6.673s-3.02 6.674-6.673 6.674c-3.724 0-6.674-3.021-6.674-6.674zm10.397 0a3.778 3.778 0 00-3.794-3.793 3.778 3.778 0 00-3.793 3.793 3.778 3.778 0 003.793 3.794 3.778 3.778 0 003.794-3.794zm292.874-67.37c-.281 0-.633-.07-.843-.281l-5.269-3.934-5.269 3.934c-.632.492-1.546.352-2.037-.281-.492-.632-.352-1.545.281-2.037l6.112-4.566c.491-.422 1.194-.422 1.756 0l6.112 4.566c.632.492.772 1.405.281 2.037-.211.352-.633.562-1.124.562zm-12.224-12.996c-.422 0-.843-.211-1.194-.562-.492-.632-.352-1.546.281-2.037l6.112-4.567c.491-.421 1.194-.421 1.756 0l6.112 4.567c.632.491.772 1.405.281 2.037-.492.632-1.405.773-2.038.281l-5.268-3.934-5.269 3.934c-.141.211-.422.281-.773.281zm12.224-12.996c-.281 0-.633-.071-.843-.281l-5.269-3.934-5.269 3.934c-.632.491-1.545.351-2.037-.281-.492-.633-.351-1.546.281-2.038l6.112-4.566c.491-.421 1.194-.421 1.756 0l6.112 4.566c.632.492.772 1.405.281 2.038-.211.351-.633.562-1.124.562zm-155.675.562c-.422 0-.843-.211-1.124-.492l-8.29-9.554c-.351-.422-.492-1.054-.211-1.546.211-.491.773-.843 1.335-.843h16.79c.562 0 1.054.352 1.335.843.211.492.14 1.124-.211 1.546l-8.36 9.554c-.421.351-.843.492-1.264.492zm-5.129-9.554l5.199 5.901 5.198-5.901h-10.397zm5.129-8.149c-.422 0-.843-.211-1.124-.492l-8.36-9.554c-.351-.422-.492-1.054-.211-1.546.211-.492.773-.843 1.335-.843h16.79c.562 0 1.054.351 1.335.843.21.492.14 1.124-.211 1.546l-8.36 9.554c-.351.281-.773.492-1.194.492zm-5.129-9.625l5.199 5.901 5.199-5.901h-10.398zM566.92 140.207v-1.897c0-.772.703-1.475 1.476-1.405.772 0 1.475.703 1.405 1.476v1.897c0 .772-.703 1.475-1.476 1.405-.772 0-1.475-.633-1.405-1.476zm.141-11.31V127c0-.773.703-1.475 1.475-1.405.773 0 1.476.703 1.405 1.475v1.897c0 .773-.702 1.475-1.475 1.405-.773-.07-1.405-.702-1.405-1.475zm.14-11.381v-1.896c0-.773.703-1.476 1.476-1.405.772 0 1.475.702 1.405 1.475v1.897c0 .772-.703 1.475-1.476 1.405-.772-.071-1.405-.703-1.405-1.476zm.141-11.38v-1.897c0-.773.702-1.475 1.475-1.405.773 0 1.475.703 1.405 1.475v1.897c0 .773-.702 1.475-1.475 1.405-.773-.07-1.405-.702-1.405-1.475zm.14-11.38v-1.897c0-.773.703-1.476 1.476-1.405.772 0 1.475.702 1.405 1.475v1.897c0 .772-.703 1.475-1.476 1.405-.772-.07-1.405-.703-1.405-1.476zm558.768 257.607c-3.65 0-7.3-3.161-7.3-9.273v-1.054h-10.75c-.84 0-1.55-.702-1.55-1.545v-11.662c0-.843.71-1.545 1.55-1.545h1.9c4.28 0 6.18-2.248 6.18-4.285 0-2.108-1.97-4.286-6.18-4.286h-1.9c-.84 0-1.55-.702-1.55-1.545v-11.662c0-.843.71-1.545 1.55-1.545h12.22c.85 0 1.55.702 1.55 1.545v1.335c0 4.285 2.25 6.252 4.28 6.252 2.04 0 4.29-1.967 4.29-6.252v-1.335c0-.843.7-1.545 1.54-1.545h12.3c.84 0 1.54.702 1.54 1.545v11.732c0 .843-.7 1.546-1.54 1.546h-1.97c-2.04 0-3.65.491-4.78 1.475-.91.773-1.4 1.756-1.4 2.88 0 2.037 1.9 4.285 6.11 4.285h2.04c.84 0 1.54.703 1.54 1.546v11.661c0 .843-.7 1.546-1.54 1.546h-10.75v1.054c0 5.971-3.72 9.132-7.38 9.132zm-16.51-13.347h10.75c.85 0 1.55.702 1.55 1.545v2.599c0 4.286 2.25 6.182 4.28 6.182 2.04 0 4.29-1.967 4.29-6.182v-2.599c0-.843.7-1.545 1.54-1.545h10.82v-8.641h-.42c-6.04 0-9.2-3.653-9.2-7.306 0-1.967.91-3.864 2.46-5.128 1.68-1.406 4-2.178 6.74-2.178h.42v-8.641h-9.27c-.07 5.971-3.72 9.062-7.31 9.062-3.58 0-7.23-3.091-7.3-9.062h-9.2v8.641h.35c6.04 0 9.2 3.723 9.2 7.376 0 3.653-3.16 7.306-9.2 7.306h-.43v8.571h-.07zM405.625 134.095c-3.653 0-7.376-3.161-7.376-9.273v-1.053h-10.748a1.56 1.56 0 01-1.546-1.546v-10.116h-.492c-6.041 0-9.273-3.723-9.273-7.376 0-3.653 3.162-7.376 9.273-7.376h.492V87.237a1.56 1.56 0 011.546-1.545h12.223a1.56 1.56 0 011.546 1.546v1.334c0 4.286 2.248 6.182 4.285 6.182 2.108 0 4.285-1.967 4.285-6.182V87.24a1.56 1.56 0 011.546-1.546h12.294a1.56 1.56 0 011.545 1.546V98.9a1.56 1.56 0 01-1.545 1.546h-1.967c-4.286 0-6.182 2.248-6.182 4.285 0 2.107 1.967 4.285 6.182 4.285h1.967a1.56 1.56 0 011.545 1.546v11.661a1.56 1.56 0 01-1.545 1.546h-10.819v1.053c.141 6.112-3.583 9.273-7.236 9.273zm-16.508-13.347h10.748c.843 0 1.545.702 1.545 1.545v2.6c0 4.285 2.248 6.182 4.286 6.182 2.107 0 4.285-1.967 4.285-6.182v-2.6c0-.843.702-1.545 1.545-1.545h10.819v-8.641h-.422c-6.041 0-9.273-3.723-9.273-7.376 0-3.653 3.162-7.376 9.273-7.376h.422v-8.571h-9.273c-.07 5.971-3.723 9.062-7.376 9.062-3.583 0-7.236-3.09-7.377-9.062h-9.202V98.9a1.56 1.56 0 01-1.546 1.546h-2.037c-4.286 0-6.182 2.248-6.182 4.285 0 2.107 1.967 4.285 6.182 4.285h2.037a1.56 1.56 0 011.546 1.546v10.186zm700.743 221.359h-36.18c-.84 0-1.54-.703-1.54-1.546V328.9c0-.843.7-1.546 1.54-1.546h1.9c4.29 0 6.18-2.248 6.18-4.285s-1.96-4.285-6.18-4.285h-1.9c-.84 0-1.54-.703-1.54-1.546v-11.661c0-.844.7-1.546 1.54-1.546h12.23c.84 0 1.54.702 1.54 1.546v1.334c0 4.286 2.25 6.182 4.29 6.182s4.28-1.967 4.28-6.182v-1.334c0-.844.71-1.546 1.55-1.546h12.29c.85 0 1.55.702 1.55 1.546v10.186h.42c6.11 0 9.27 3.653 9.27 7.306s-3.16 7.376-9.27 7.376h-.42v10.186c0 .773-.7 1.476-1.55 1.476zm-34.63-3.091h33.16v-10.187c0-.843.7-1.545 1.54-1.545h1.97c4.29 0 6.18-2.248 6.18-4.285 0-2.038-1.89-4.286-6.18-4.286h-1.97c-.84 0-1.54-.702-1.54-1.545v-10.186h-9.27c-.07 5.971-3.73 9.062-7.31 9.062-3.58 0-7.24-3.091-7.31-9.062h-9.2v8.64h.35c6.04 0 9.2 3.724 9.2 7.306 0 3.653-3.16 7.306-9.2 7.306h-.35v8.782h-.07z" fill="#5F5269"/><path d="M149.774 324.123a6.596 6.596 0 01-6.604 6.603 6.595 6.595 0 01-6.603-6.603 6.596 6.596 0 016.603-6.604 6.597 6.597 0 016.604 6.604z" fill="#fff"/><path d="M143.17 332.201c-4.426 0-8.079-3.653-8.079-8.079 0-4.425 3.653-8.078 8.079-8.078s8.079 3.653 8.079 8.078c0 4.497-3.653 8.079-8.079 8.079zm0-13.277a5.186 5.186 0 00-5.198 5.198 5.186 5.186 0 005.198 5.199 5.187 5.187 0 005.199-5.199c-.071-2.88-2.389-5.198-5.199-5.198z" fill="#5F5269"/><path d="M67.09 330.726a6.603 6.603 0 100-13.207 6.604 6.604 0 000 13.207z" fill="#fff"/><path d="M67.089 332.201c-4.426 0-8.079-3.653-8.079-8.079 0-4.425 3.653-8.078 8.079-8.078s8.079 3.653 8.079 8.078c.07 4.497-3.583 8.079-8.079 8.079zm0-13.277a5.187 5.187 0 00-5.198 5.198 5.187 5.187 0 005.198 5.199 5.187 5.187 0 005.199-5.199 5.187 5.187 0 00-5.199-5.198z" fill="#5F5269"/><path d="M575.772 156.716a6.597 6.597 0 01-6.604 6.604 6.597 6.597 0 01-6.604-6.604 6.596 6.596 0 016.604-6.603c3.653-.071 6.604 2.95 6.604 6.603z" fill="#fff"/><path d="M569.168 164.795c-4.426 0-8.079-3.653-8.079-8.079s3.653-8.079 8.079-8.079 8.079 3.653 8.079 8.079-3.653 8.079-8.079 8.079zm0-13.278a5.187 5.187 0 00-5.198 5.199 5.187 5.187 0 005.198 5.199 5.188 5.188 0 005.199-5.199 5.188 5.188 0 00-5.199-5.199z" fill="#5F5269"/><path d="M14.753 206.172a6.596 6.596 0 01-6.604 6.604 6.596 6.596 0 01-6.603-6.604 6.595 6.595 0 016.603-6.603c3.583-.07 6.604 2.95 6.604 6.603z" fill="#fff"/><path d="M8.079 214.251c-4.426 0-8.079-3.653-8.079-8.079 0-4.425 3.653-8.078 8.079-8.078s8.079 3.582 8.079 8.078c0 4.426-3.583 8.079-8.08 8.079zm0-13.277a5.187 5.187 0 00-5.199 5.198 5.187 5.187 0 005.199 5.199 5.187 5.187 0 005.198-5.199 5.186 5.186 0 00-5.198-5.198zm152.935 121.182h1.896c.773 0 1.476.632 1.476 1.475 0 .773-.633 1.475-1.476 1.475h-1.896a1.484 1.484 0 01-1.476-1.475c.071-.843.703-1.475 1.476-1.475zm11.38 0h1.897c.773 0 1.475.632 1.475 1.475 0 .773-.632 1.475-1.475 1.475h-1.897a1.484 1.484 0 01-1.475-1.475c.07-.843.703-1.475 1.475-1.475zm11.381 0h1.897c.772 0 1.475.632 1.475 1.475 0 .773-.632 1.475-1.475 1.475h-1.897a1.483 1.483 0 01-1.475-1.475c.07-.843.702-1.475 1.475-1.475zm11.38 0h1.897c.773 0 1.475.632 1.475 1.475 0 .773-.632 1.475-1.475 1.475h-1.897a1.484 1.484 0 01-1.475-1.475c.07-.843.703-1.475 1.475-1.475zm11.381 0h1.897c.772 0 1.475.632 1.475 1.475 0 .773-.632 1.475-1.475 1.475h-1.897a1.483 1.483 0 01-1.475-1.475c.07-.843.702-1.475 1.475-1.475zm11.381 0h1.896c.773 0 1.476.632 1.476 1.475 0 .773-.633 1.475-1.476 1.475h-1.896a1.484 1.484 0 01-1.476-1.475c.071-.843.703-1.475 1.476-1.475zm218.829-110.434h-7.657a1.56 1.56 0 01-1.546-1.545v-7.658a1.56 1.56 0 011.546-1.545h7.657a1.56 1.56 0 011.546 1.545v7.658c-.07.843-.773 1.545-1.546 1.545zm-6.182-3.091h4.567v-4.566h-4.567v4.566zm20.864 3.091h-7.657a1.558 1.558 0 01-1.545-1.545v-7.658c0-.843.702-1.545 1.545-1.545h7.657a1.56 1.56 0 011.546 1.545v7.658c-.07.843-.773 1.545-1.546 1.545zm-6.182-3.091h4.567v-4.566h-4.567v4.566zm20.865-6.112h-7.657v7.658h7.657v-7.658z" fill="#5F5269"/><path d="M466.041 211.722h-7.658a1.558 1.558 0 01-1.545-1.545v-7.658c0-.843.702-1.545 1.545-1.545h7.658c.843 0 1.545.702 1.545 1.545v7.658c0 .843-.702 1.545-1.545 1.545zm-6.112-3.091h4.566v-4.566h-4.566v4.566zm-23.183 17.914h-7.657a1.56 1.56 0 01-1.546-1.546v-7.657a1.56 1.56 0 011.546-1.545h7.657a1.56 1.56 0 011.546 1.545v7.657c-.07.914-.773 1.546-1.546 1.546zm-6.182-3.021h4.567v-4.566h-4.567v4.566zm20.864 3.021h-7.657a1.56 1.56 0 01-1.545-1.546v-7.657c0-.843.702-1.545 1.545-1.545h7.657a1.56 1.56 0 011.546 1.545v7.657c-.07.914-.773 1.546-1.546 1.546zm-6.182-3.021h4.567v-4.566h-4.567v4.566zm20.795 3.021h-7.658a1.56 1.56 0 01-1.545-1.546v-7.657c0-.843.702-1.545 1.545-1.545h7.658c.843 0 1.545.702 1.545 1.545v7.657c0 .914-.702 1.546-1.545 1.546zm-6.112-3.021h4.566v-4.566h-4.566v4.566zm-23.183 17.914h-7.657a1.56 1.56 0 01-1.546-1.546v-7.657a1.56 1.56 0 011.546-1.545h7.657a1.56 1.56 0 011.546 1.545v7.728c-.07.843-.773 1.475-1.546 1.475zm-6.182-3.021h4.567v-4.566h-4.567v4.566zm20.865-6.112h-7.658v7.658h7.658v-7.658z" fill="#5F5269"/><path d="M451.428 241.438h-7.657a1.56 1.56 0 01-1.545-1.546v-7.657c0-.843.702-1.545 1.545-1.545h7.657a1.56 1.56 0 011.546 1.545v7.728c-.07.843-.773 1.475-1.546 1.475zm-6.182-3.021h4.567v-4.566h-4.567v4.566z" fill="#5F5269"/><path d="M942.9 71.713c-.983-13.91-12.575-24.939-26.765-24.939-14.331 0-25.993 11.24-26.836 25.36-2.318-1.475-5.128-2.247-8.079-2.247-8.43 0-15.314 6.884-15.314 15.314s6.884 15.315 15.314 15.315h68.986c8.43 0 15.315-6.885 15.315-15.315 0-8.5-6.885-15.314-15.315-15.314-2.599 0-5.058.632-7.306 1.826z" fill="#fff"/><path d="M950.346 101.991h-68.985c-9.273 0-16.861-7.587-16.861-16.86s7.588-16.86 16.861-16.86c2.318 0 4.636.492 6.744 1.405 1.896-13.91 13.839-24.447 28.1-24.447 14.12 0 25.992 10.467 28.03 24.166 1.896-.773 4.004-1.124 6.111-1.124 9.273 0 16.861 7.587 16.861 16.86-.071 9.343-7.588 16.86-16.861 16.86zm-69.056-30.63c-7.587 0-13.769 6.183-13.769 13.77S873.703 98.9 881.29 98.9h68.986c7.587 0 13.769-6.182 13.769-13.77 0-7.586-6.182-13.768-13.769-13.768-2.318 0-4.636.562-6.674 1.686-.421.28-.983.28-1.475 0-.421-.281-.773-.703-.773-1.194-.913-13.207-12.012-23.534-25.29-23.534-13.418 0-24.517 10.467-25.29 23.885 0 .562-.351.983-.843 1.264s-1.054.211-1.475-.07c-2.037-1.335-4.566-2.037-7.166-2.037z" fill="#5F5269"/><path d="M898.994 71.362c-.141 0-.281 0-.492-.07-.773-.281-1.265-1.124-.984-1.897 2.248-7.095 7.868-12.505 15.034-14.542.773-.21 1.616.21 1.897 1.054.21.773-.211 1.616-1.054 1.897-6.182 1.756-11.029 6.392-12.926 12.504-.211.632-.843 1.054-1.475 1.054zm-23.745 15.174a1.559 1.559 0 01-1.545-1.545c0-4.496 3.653-8.15 8.149-8.15a1.56 1.56 0 011.545 1.546 1.56 1.56 0 01-1.545 1.546 5.037 5.037 0 00-5.058 5.058c-.071.913-.703 1.545-1.546 1.545zM525.754 72.205a1.56 1.56 0 01-1.546-1.546c0-7.727-6.322-14.05-14.05-14.05-2.388 0-4.707.562-6.744 1.757-.422.28-.984.28-1.475 0-.422-.281-.773-.703-.773-1.195-.913-13.417-12.224-23.885-25.641-23.885a25.746 25.746 0 00-16.65 6.112c-.351.281-.772.421-1.194.351a1.667 1.667 0 01-1.054-.632c-5.76-8.29-15.244-13.207-25.29-13.207-16.368 0-29.927 12.786-30.84 29.154 0 .562-.351.983-.843 1.264-.491.281-1.054.211-1.475-.07-2.67-1.616-5.761-2.529-8.922-2.529-9.343 0-16.93 7.587-16.93 16.93a1.56 1.56 0 01-1.546 1.546 1.559 1.559 0 01-1.545-1.546c0-11.029 8.992-20.02 20.021-20.02 2.951 0 5.831.631 8.43 1.826 2.108-16.79 16.439-29.646 33.65-29.646a33.913 33.913 0 0126.836 13.207c4.988-3.723 11.029-5.83 17.352-5.83 14.331 0 26.414 10.607 28.451 24.517 1.967-.773 4.075-1.124 6.182-1.124 9.414 0 17.071 7.657 17.071 17.07.07.843-.632 1.546-1.475 1.546z" fill="#5F5269"/><path d="M410.684 53.729c-.141 0-.281 0-.492-.07-.773-.281-1.265-1.124-.984-1.897 2.67-8.43 9.344-14.963 17.914-17.352.773-.21 1.616.21 1.897 1.054.211.773-.211 1.616-1.054 1.897-7.517 2.107-13.488 7.868-15.806 15.314-.211.633-.843 1.054-1.475 1.054zm340.643 285.287c-8.289 0-15.033-6.745-15.033-15.034v-10.538c0-.843.702-1.545 1.545-1.545a1.56 1.56 0 011.546 1.545v10.538c0 6.603 5.409 12.013 12.013 12.013 6.533 0 11.872-5.339 11.872-11.873v-55.146a1.56 1.56 0 011.545-1.546 1.56 1.56 0 011.546 1.546v55.146c-.141 8.22-6.814 14.894-15.034 14.894z" fill="#5F5269"/><path d="M737.769 317.238a4.215 4.215 0 100-8.43 4.215 4.215 0 000 8.43z" fill="#fff"/><path d="M737.769 318.713a5.666 5.666 0 01-5.69-5.69 5.666 5.666 0 015.69-5.69 5.666 5.666 0 015.69 5.69c0 3.091-2.529 5.69-5.69 5.69zm0-8.5a2.818 2.818 0 00-2.81 2.81 2.818 2.818 0 002.81 2.81 2.818 2.818 0 002.81-2.81 2.819 2.819 0 00-2.81-2.81z" fill="#5F5269"/><path d="M720.909 308.808a4.228 4.228 0 014.215 4.215 4.228 4.228 0 01-4.215 4.215 4.228 4.228 0 01-4.215-4.215c0-2.318 1.826-4.215 4.215-4.215z" fill="#fff"/><path d="M720.909 318.713a5.666 5.666 0 01-5.69-5.69 5.666 5.666 0 015.69-5.69 5.666 5.666 0 015.69 5.69c0 3.091-2.599 5.69-5.69 5.69zm0-8.5a2.818 2.818 0 00-2.81 2.81 2.818 2.818 0 002.81 2.81 2.818 2.818 0 002.81-2.81c-.07-1.545-1.265-2.81-2.81-2.81z" fill="#5F5269"/><path d="M764.745 264.691a4.228 4.228 0 014.215 4.215 4.228 4.228 0 01-4.215 4.215 4.228 4.228 0 01-4.215-4.215 4.228 4.228 0 014.215-4.215z" fill="#fff"/><path d="M764.745 274.596a5.666 5.666 0 01-5.69-5.69 5.666 5.666 0 015.69-5.69 5.666 5.666 0 015.69 5.69 5.666 5.666 0 01-5.69 5.69zm0-8.43a2.818 2.818 0 00-2.81 2.81 2.818 2.818 0 002.81 2.81 2.818 2.818 0 002.81-2.81c0-1.616-1.265-2.81-2.81-2.81z" fill="#5F5269"/><path d="M764.745 249.376a4.228 4.228 0 014.215 4.215 4.227 4.227 0 01-4.215 4.215 4.227 4.227 0 01-4.215-4.215 4.228 4.228 0 014.215-4.215z" fill="#fff"/><path d="M764.745 259.281a5.666 5.666 0 01-5.69-5.69 5.666 5.666 0 015.69-5.69 5.666 5.666 0 015.69 5.69 5.666 5.666 0 01-5.69 5.69zm0-8.43a2.818 2.818 0 00-2.81 2.81 2.818 2.818 0 002.81 2.81 2.818 2.818 0 002.81-2.81 2.819 2.819 0 00-2.81-2.81z" fill="#5F5269"/><path d="M764.745 234.062a4.227 4.227 0 014.215 4.215 4.228 4.228 0 01-4.215 4.215 4.228 4.228 0 01-4.215-4.215 4.227 4.227 0 014.215-4.215z" fill="#fff"/><path d="M764.745 244.037a5.666 5.666 0 01-5.69-5.69 5.667 5.667 0 015.69-5.691c3.161 0 5.69 2.53 5.69 5.691 0 3.091-2.529 5.69-5.69 5.69zm0-8.5a2.818 2.818 0 00-2.81 2.81 2.818 2.818 0 002.81 2.81 2.819 2.819 0 002.81-2.81 2.818 2.818 0 00-2.81-2.81z" fill="#5F5269"/><path d="M618.835 160.58a3.48 3.48 0 003.513-3.513 3.478 3.478 0 00-3.513-3.512 3.478 3.478 0 00-3.512 3.512c-.07 1.967 1.545 3.513 3.512 3.513z" fill="#fff"/><path d="M618.835 162.055c-2.739 0-4.987-2.248-4.987-4.988 0-2.739 2.248-4.987 4.987-4.987 2.74 0 4.988 2.248 4.988 4.987-.07 2.74-2.248 4.988-4.988 4.988zm0-7.025a2.038 2.038 0 000 4.075 2.04 2.04 0 002.038-2.038 2.04 2.04 0 00-2.038-2.037z" fill="#5F5269"/><path d="M618.835 173.295a3.478 3.478 0 003.513-3.512 3.48 3.48 0 00-3.513-3.513 3.478 3.478 0 00-3.512 3.513c-.07 1.967 1.545 3.512 3.512 3.512z" fill="#fff"/><path d="M618.835 174.77c-2.74 0-4.988-2.248-4.988-4.987 0-2.74 2.248-4.988 4.988-4.988s4.988 2.248 4.988 4.988c0 2.739-2.248 4.987-4.988 4.987zm0-7.025a2.038 2.038 0 000 4.075 2.038 2.038 0 000-4.075z" fill="#5F5269"/><path d="M618.835 186.01a3.478 3.478 0 003.513-3.512 3.48 3.48 0 00-3.513-3.513 3.478 3.478 0 00-3.512 3.513c-.07 1.967 1.545 3.512 3.512 3.512z" fill="#fff"/><path d="M618.835 187.486c-2.74 0-4.988-2.248-4.988-4.988s2.248-4.988 4.988-4.988 4.988 2.248 4.988 4.988c-.07 2.74-2.248 4.988-4.988 4.988zm0-7.025a2.038 2.038 0 00-2.037 2.037c0 1.124.913 2.037 2.037 2.037a2.038 2.038 0 002.037-2.037 2.038 2.038 0 00-2.037-2.037zm600.575 88.796c-5.06 0-9.91-2.248-13.21-6.112-3.02-3.512-4.5-8.008-4.08-12.645a17.006 17.006 0 016.05-11.802c3.16-2.67 7.16-4.145 11.24-4.145 5.05 0 9.9 2.248 13.2 6.112 6.18 7.306 5.34 18.265-1.96 24.447-3.1 2.67-7.1 4.145-11.24 4.145zm0-31.753c-3.45 0-6.75 1.194-9.35 3.442-2.95 2.529-4.7 5.971-5.06 9.835-.28 3.864.92 7.587 3.45 10.538 2.74 3.231 6.74 5.058 11.03 5.058 3.44 0 6.74-1.265 9.34-3.443 6.04-5.198 6.81-14.331 1.61-20.372-2.81-3.232-6.81-5.058-11.02-5.058z" fill="#5F5269"/><path d="M1233.88 259.914c-.21 0-.42-.07-.57-.141l-14.47-6.533a1.389 1.389 0 01-.84-1.265c0-.562.28-1.053.7-1.334l13.77-7.939c.7-.421 1.55-.14 1.97.562.42.703.14 1.616-.56 1.967l-11.31 6.534 11.94 5.339c.7.351 1.05 1.194.7 1.897-.21.632-.77.913-1.33.913z" fill="#5F5269"/><path d="M1217.65 269.187h-.14c-.77-.071-1.41-.773-1.27-1.616l1.76-15.806c.07-.773.77-1.405 1.62-1.265.77.07 1.4.773 1.26 1.616l-1.76 15.806c-.07.703-.7 1.265-1.47 1.265z" fill="#5F5269"/><path d="M1224.11 257.455c-3.09 2.599-7.66 2.248-10.26-.843-2.59-3.091-2.24-7.658.85-10.257 3.09-2.599 7.66-2.248 10.25.843 2.6 3.091 2.25 7.657-.84 10.257z" fill="#fff"/><path d="M1219.4 260.686c-2.59 0-4.98-1.124-6.67-3.091-1.54-1.756-2.25-4.004-2.04-6.392a8.987 8.987 0 013.02-5.972 8.78 8.78 0 015.69-2.107c2.53 0 4.99 1.124 6.68 3.091 3.09 3.653 2.67 9.203-.98 12.294-1.62 1.405-3.59 2.177-5.7 2.177zm0-14.612c-1.4 0-2.73.492-3.79 1.405-1.19.984-1.9 2.459-2.04 4.005-.14 1.545.36 3.091 1.41 4.215 2.04 2.388 5.83 2.669 8.22.632a5.801 5.801 0 00.63-8.219c-1.12-1.265-2.74-2.038-4.43-2.038zm-760.806-99.755h-4.355a1.484 1.484 0 01-1.476-1.475v-4.356c0-.773.633-1.475 1.476-1.475h4.355c.773 0 1.475.632 1.475 1.475v4.356c-.07.843-.702 1.475-1.475 1.475zm-2.95-2.88h1.475v-1.476h-1.475v1.476zm32.666 8.57h-25.29a1.483 1.483 0 01-1.475-1.475V132.55c0-.773.632-1.475 1.475-1.475h25.29c.773 0 1.475.632 1.475 1.475v17.984c-.07.843-.702 1.475-1.475 1.475zm-23.815-2.88h22.34v-15.104h-22.41v15.104h.07z" fill="#5F5269"/><path d="M483.182 139.716h-14.12a1.485 1.485 0 01-1.476-1.476c0-.772.633-1.475 1.476-1.475h14.12c.773 0 1.475.632 1.475 1.475-.07.773-.702 1.476-1.475 1.476zm-8.992 5.69h-5.128a1.484 1.484 0 01-1.476-1.475c0-.773.633-1.476 1.476-1.476h5.128c.773 0 1.475.633 1.475 1.476-.07.772-.702 1.475-1.475 1.475zm-2.6 16.228h-14.05a1.484 1.484 0 01-1.475-1.475V155.1c0-.772.632-1.475 1.475-1.475h14.05c.773 0 1.476.632 1.476 1.475v5.059c0 .772-.633 1.475-1.476 1.475zm-12.574-2.951h11.169v-2.177h-11.169v2.177zm36.108-22.621a1.484 1.484 0 01-1.475-1.475v-7.446h-7.446a1.485 1.485 0 01-1.476-1.476c0-.772.633-1.475 1.476-1.475h8.921c.773 0 1.476.632 1.476 1.475v8.922c0 .843-.703 1.475-1.476 1.475zm583.496 84.652c-.28 0-.63-.07-.84-.281l-6.11-4.566c-.63-.492-.77-1.405-.28-2.037.49-.633 1.4-.773 2.04-.281l5.26 3.934 5.27-3.934c.64-.492 1.55-.352 2.04.281.49.632.35 1.545-.28 2.037l-6.11 4.566c-.35.141-.63.281-.99.281zm0 12.926c-.28 0-.63-.07-.84-.281l-6.11-4.566c-.63-.492-.77-1.405-.28-2.037.49-.633 1.4-.773 2.04-.281l5.26 3.934 5.27-3.934c.64-.492 1.55-.352 2.04.281.49.632.35 1.545-.28 2.037l-6.11 4.566c-.35.211-.63.281-.99.281zm0 12.997c-.28 0-.63-.071-.84-.281l-6.11-4.567c-.63-.491-.77-1.405-.28-2.037.49-.632 1.4-.773 2.04-.281l5.26 3.934 5.27-3.934c.64-.492 1.55-.351 2.04.281s.35 1.546-.28 2.037l-6.11 4.567c-.35.21-.63.281-.99.281zm-450.582 28.17h-20.303a1.484 1.484 0 01-1.475-1.475c0-.773.632-1.476 1.475-1.476h20.303c.773 0 1.475.633 1.475 1.476 0 .772-.702 1.475-1.475 1.475zm0 8.57h-20.303a1.484 1.484 0 01-1.475-1.475c0-.773.632-1.475 1.475-1.475h20.303c.773 0 1.475.632 1.475 1.475 0 .843-.702 1.475-1.475 1.475zm0 8.641h-20.303a1.484 1.484 0 01-1.475-1.475c0-.773.632-1.475 1.475-1.475h20.303c.773 0 1.475.632 1.475 1.475 0 .773-.702 1.475-1.475 1.475zm-10.748 8.571h-9.555a1.485 1.485 0 01-1.475-1.476c0-.772.632-1.475 1.475-1.475h9.555c.772 0 1.475.632 1.475 1.475 0 .843-.703 1.476-1.475 1.476z" fill="#5F5269"/><path d="M629.513 103.396h-10.889v13.91h10.889v-13.91z" fill="#fff"/><path d="M629.443 118.711h-10.889a1.484 1.484 0 01-1.475-1.476v-13.909c0-.773.632-1.475 1.475-1.475h10.889c.773 0 1.475.632 1.475 1.475v13.909c0 .843-.632 1.476-1.475 1.476zm-9.414-2.881h8.009v-10.959H620.1v10.959h-.071z" fill="#5F5269"/><path d="M648.902 103.396h-10.889v13.91h10.889v-13.91z" fill="#fff"/><path d="M648.902 118.711h-10.889a1.485 1.485 0 01-1.475-1.476v-13.909c0-.773.632-1.475 1.475-1.475h10.889c.773 0 1.475.632 1.475 1.475v13.909c0 .843-.702 1.476-1.475 1.476zm-9.413-2.881h7.938v-10.959h-7.938v10.959z" fill="#5F5269"/><path d="M668.362 103.396h-10.889v13.91h10.889v-13.91z" fill="#fff"/><path d="M668.362 118.711h-10.889a1.484 1.484 0 01-1.475-1.476v-13.909c0-.773.632-1.475 1.475-1.475h10.889c.772 0 1.475.632 1.475 1.475v13.909c-.07.843-.703 1.476-1.475 1.476zm-9.414-2.881h7.938v-10.959h-7.938v10.959z" fill="#5F5269"/><path d="M1016.17 35.394h85.36v42.01h-51.99l-21.5 12.855V77.403h-11.87v-42.01z" fill="#fff"/><path d="M1028.04 91.734c-.28 0-.49-.07-.7-.21-.49-.281-.77-.773-.77-1.265l-.07-11.31h-10.33c-.84 0-1.47-.703-1.47-1.475v-42.08c0-.843.7-1.475 1.47-1.475h85.36c.84 0 1.47.702 1.47 1.475v42.08c0 .843-.7 1.475-1.47 1.475h-51.64l-21.07 12.645c-.21.07-.5.14-.78.14zm-10.39-15.806h10.32c.85 0 1.48.632 1.48 1.475l.07 10.187 19.18-11.451c.21-.14.49-.21.77-.21h50.51v-39.06h-82.33v39.06z" fill="#5F5269"/><path d="M1072.72 65.742h-8.71c-.84 0-1.47-.703-1.47-1.476 0-.843.7-1.475 1.47-1.475h8.71c.85 0 1.48.703 1.48 1.475.07.843-.63 1.476-1.48 1.476zm8.08-8.57h-16.79c-.84 0-1.47-.703-1.47-1.476 0-.843.7-1.475 1.47-1.475h16.79c.84 0 1.48.702 1.48 1.475 0 .843-.64 1.475-1.48 1.475zm12.44-8.43h-29.23c-.84 0-1.47-.703-1.47-1.476 0-.843.7-1.475 1.47-1.475h29.23c.84 0 1.47.702 1.47 1.475.07.843-.63 1.475-1.47 1.475zm0 8.43h-4.85a1.49 1.49 0 01-1.48-1.476c0-.843.71-1.475 1.48-1.475h4.85c.84 0 1.47.702 1.47 1.475.07.843-.63 1.475-1.47 1.475z" fill="#5F5269"/><path d="M1038.79 44.034c.21-.421.7-.702 1.2-.702.49 0 .91.28 1.19.702l3.3 6.674 7.38 1.054c.49.07.91.422 1.05.913.14.492 0 .984-.35 1.335l-5.34 5.199 1.27 7.376c.07.492-.14.983-.5 1.264-.42.281-.91.352-1.33.07l-6.6-3.442-6.61 3.442c-.42.211-.98.211-1.33-.07-.42-.28-.63-.773-.49-1.264l1.26-7.376-5.34-5.199a1.341 1.341 0 01-.35-1.335c.14-.491.56-.843 1.05-.913l7.38-1.054 3.16-6.674z" fill="#fff"/><path d="M1047.15 69.606c-.42 0-.91-.141-1.26-.352l-5.9-3.09-5.91 3.09c-.91.492-2.1.422-2.95-.21-.84-.633-1.26-1.686-1.12-2.74l1.12-6.604-4.77-4.636c-.78-.773-1.06-1.827-.71-2.88.36-1.054 1.2-1.757 2.25-1.897l6.61-.984 2.95-5.971c.49-.984 1.4-1.546 2.53-1.546 1.05 0 2.03.562 2.52 1.546l2.96 5.971 6.6.984c1.05.14 1.9.913 2.25 1.896.35.984.07 2.108-.71 2.88l-4.77 4.637 1.12 6.604c.21 1.053-.21 2.107-1.12 2.74a2.88 2.88 0 01-1.69.562zm-18.4-16.369l5.05 4.918c.36.351.5.843.43 1.334l-1.2 6.955 6.25-3.302c.42-.21.99-.21 1.41 0l6.25 3.302-1.19-6.955c-.07-.491.07-.983.42-1.334l5.06-4.918-6.96-.983c-.49-.07-.91-.352-1.12-.843l-3.09-6.323-3.09 6.323c-.22.421-.64.772-1.13.843l-7.09.983zM801.697 99.532h-32.316a1.484 1.484 0 01-1.475-1.475V59.209c0-.562.352-1.054.843-1.335.492-.211 1.124-.14 1.546.21l10.046 8.5h21.285c.773 0 1.476.633 1.476 1.476v30.067a1.41 1.41 0 01-1.405 1.405zm-30.84-2.88h29.364V69.465h-20.372c-.351 0-.703-.14-.913-.351l-8.079-6.814v34.352z" fill="#5F5269"/><path d="M792.986 90.4h-14.753a1.484 1.484 0 01-1.475-1.476c0-.772.632-1.475 1.475-1.475h14.753c.773 0 1.475.633 1.475 1.475-.07.843-.702 1.476-1.475 1.476zm-8.079-7.025h-6.744a1.483 1.483 0 01-1.475-1.475c0-.773.632-1.476 1.475-1.476h6.744c.773 0 1.475.632 1.475 1.475 0 .844-.632 1.476-1.475 1.476z" fill="#5F5269"/></svg>