<svg xmlns="http://www.w3.org/2000/svg" viewBox="0 0 551 342"><path d="M202.384 169.093l-51.8-109.625-63.848 71.075L63.847 90.79 0 161.865l70.278 120.093 76.691-87.567 68.824 147.318L351.417 0 202.384 169.093z" fill="#fa0"/><path d="M292.733 212.46l-12.649-32.568-12.649 32.569h25.298v-.001zm11.806 29.687h-49.03l-6.987 17.354h-35.9L265.629 138.1h30.96l50.115 121.402h-35.177l-6.987-17.354-.001-.001zM326.127 138.1h112.259l-10.591 32.624h-28.263V259.5h-35.126v-88.777h-38.279V138.1zm123.029-.001l-10.297 32.626h37.993V259.5h35.124v-88.776h38.28v-32.626l-101.1.001z" fill="#fff"/></svg>