<svg viewBox="0 0 629 629" fill="none" xmlns="http://www.w3.org/2000/svg"><g opacity=".1" fill="#000"><path d="M368.167 394.966h-43.525a139.699 139.699 0 00-13.455-32.481l30.778-30.777a8.978 8.978 0 000-12.695l-40.107-40.106a8.977 8.977 0 00-12.693 0l-30.778 30.778a139.692 139.692 0 00-32.481-13.456v-43.525a8.974 8.974 0 00-8.975-8.975h-56.719a8.976 8.976 0 00-8.976 8.975v43.525a139.641 139.641 0 00-32.479 13.456l-30.778-30.778c-3.506-3.503-9.188-3.505-12.693 0l-40.108 40.106a8.98 8.98 0 000 12.695l30.778 30.777A139.785 139.785 0 0052.5 394.966H8.977A8.975 8.975 0 000 403.941v56.72a8.975 8.975 0 008.976 8.975H52.5a139.62 139.62 0 0013.456 32.48l-30.779 30.776a8.977 8.977 0 000 12.694l40.107 40.108a8.98 8.98 0 0012.694 0l30.777-30.778a139.7 139.7 0 0032.48 13.454v43.526a8.974 8.974 0 008.975 8.975h56.72a8.975 8.975 0 008.975-8.975v-43.524a139.735 139.735 0 0032.481-13.455l30.778 30.778a8.977 8.977 0 0012.693 0l40.107-40.107a8.976 8.976 0 000-12.695l-30.778-30.777a139.745 139.745 0 0013.455-32.48h43.525a8.975 8.975 0 008.975-8.975v-56.72c.002-4.958-4.017-8.975-8.974-8.975zm-8.974 56.717h-41.584a8.974 8.974 0 00-8.768 7.057 122.046 122.046 0 01-16.531 39.904 8.975 8.975 0 001.21 11.19l29.405 29.405-27.413 27.413-29.405-29.405a8.975 8.975 0 00-11.189-1.21 122.024 122.024 0 01-39.905 16.53 8.977 8.977 0 00-7.058 8.769v41.583h-38.768v-41.583a8.979 8.979 0 00-7.058-8.769 122.013 122.013 0 01-39.903-16.53 8.979 8.979 0 00-11.189 1.21l-29.405 29.405-27.413-27.413 29.405-29.405a8.976 8.976 0 001.21-11.191 122.044 122.044 0 01-16.531-39.903 8.975 8.975 0 00-8.768-7.057H17.951v-38.767h41.583a8.976 8.976 0 008.768-7.058 122.055 122.055 0 0116.53-39.905 8.975 8.975 0 00-1.21-11.19L54.219 325.36l27.413-27.412 29.404 29.404a8.98 8.98 0 0011.191 1.21 122.052 122.052 0 0139.903-16.531 8.974 8.974 0 007.058-8.768v-41.582h38.768v41.582a8.98 8.98 0 007.058 8.77 122.035 122.035 0 0139.905 16.53 8.975 8.975 0 0011.19-1.21l29.405-29.404 27.413 27.412-29.405 29.403a8.976 8.976 0 00-1.21 11.191 122.025 122.025 0 0116.531 39.904 8.976 8.976 0 008.768 7.058h41.583v38.766z"/><path d="M269.709 415.504c-5.962-28.925-27.121-52.639-55.218-61.892-4.708-1.549-9.783 1.009-11.333 5.718-1.55 4.709 1.009 9.783 5.718 11.333 22.01 7.247 38.582 25.818 43.251 48.465a8.98 8.98 0 008.781 7.166c.601 0 1.21-.06 1.822-.187 4.855-1 7.979-5.748 6.979-10.603zm-8.804 34.31c-4.642-1.741-9.814.612-11.555 5.254-9.445 25.198-33.869 42.127-60.778 42.127-35.783 0-64.895-29.112-64.895-64.896 0-29.912 20.257-55.812 49.26-62.987a8.974 8.974 0 006.557-10.867c-1.19-4.814-6.062-7.746-10.868-6.558-37.036 9.16-62.901 42.226-62.901 80.412 0 45.682 37.165 82.847 82.847 82.847 34.352 0 65.531-21.612 77.588-53.779a8.975 8.975 0 00-5.255-11.553zm359.118-215.016h-31.657a108.974 108.974 0 00-9.253-22.341l22.384-22.384a8.98 8.98 0 000-12.695L570.85 146.73a8.977 8.977 0 00-12.693 0l-22.385 22.385a108.895 108.895 0 00-22.341-9.253v-31.658a8.974 8.974 0 00-8.975-8.975h-43.343a8.976 8.976 0 00-8.976 8.975v31.658a108.753 108.753 0 00-22.34 9.253l-22.385-22.385a8.977 8.977 0 00-12.693 0l-30.648 30.648a8.98 8.98 0 000 12.695l22.385 22.384a108.817 108.817 0 00-9.253 22.341h-31.658a8.976 8.976 0 00-8.975 8.976v43.343a8.975 8.975 0 008.975 8.976h31.658a108.84 108.84 0 009.253 22.341l-22.385 22.384a8.975 8.975 0 000 12.694l30.648 30.649a8.974 8.974 0 0012.693 0l22.385-22.385a108.86 108.86 0 0022.34 9.252v31.658a8.975 8.975 0 008.976 8.975h43.343a8.975 8.975 0 008.975-8.975v-31.658a108.719 108.719 0 0022.341-9.253l22.385 22.386a8.974 8.974 0 0012.693 0l30.647-30.649a8.977 8.977 0 000-12.694l-22.383-22.385a108.822 108.822 0 009.253-22.34h31.658a8.976 8.976 0 008.975-8.976v-43.342a8.978 8.978 0 00-8.977-8.977zm-38.635 43.344a8.974 8.974 0 00-8.768 7.057 91.151 91.151 0 01-12.344 29.804 8.972 8.972 0 001.21 11.189l20.972 20.974-17.955 17.954-20.972-20.973a8.977 8.977 0 00-11.189-1.21 91.133 91.133 0 01-29.804 12.343 8.977 8.977 0 00-7.058 8.769v29.661h-25.391v-29.661a8.979 8.979 0 00-7.057-8.769 91.087 91.087 0 01-29.803-12.343 8.98 8.98 0 00-11.19 1.21l-20.972 20.973-17.955-17.954 20.972-20.972a8.977 8.977 0 001.21-11.192 91.15 91.15 0 01-12.344-29.804 8.977 8.977 0 00-8.768-7.056h-29.66v-25.391h29.66a8.978 8.978 0 008.768-7.057 91.168 91.168 0 0112.344-29.804 8.976 8.976 0 00-1.21-11.191l-20.972-20.972 17.955-17.954 20.972 20.972a8.975 8.975 0 0011.189 1.21 91.186 91.186 0 0129.805-12.344 8.973 8.973 0 007.056-8.768v-29.66h25.391v29.66a8.975 8.975 0 007.057 8.768 91.212 91.212 0 0129.805 12.344 8.973 8.973 0 0011.189-1.21l20.972-20.972 17.955 17.954-20.972 20.972a8.975 8.975 0 00-1.21 11.191 91.159 91.159 0 0112.344 29.803 8.977 8.977 0 008.768 7.058h29.66v25.391h-29.66z"/><path d="M538.648 277.515c-4.623-1.789-9.821.501-11.613 5.125a47.086 47.086 0 01-10.682 16.374c-18.51 18.51-48.627 18.51-67.137 0-8.967-8.967-13.905-20.887-13.905-33.568 0-12.681 4.939-24.601 13.905-33.568 18.509-18.51 48.627-18.511 67.137 0a47.105 47.105 0 0110.673 16.353 8.973 8.973 0 0011.616 5.118 8.975 8.975 0 005.118-11.616 64.953 64.953 0 00-14.714-22.549c-25.509-25.508-67.014-25.51-92.524 0-12.358 12.356-19.163 28.786-19.163 46.262s6.806 33.906 19.163 46.262c12.755 12.756 29.506 19.133 46.262 19.131 16.752-.002 33.509-6.378 46.262-19.131a64.928 64.928 0 0014.725-22.58c1.792-4.62-.502-9.819-5.123-11.613zM365.188 98.991h-23.459a87.387 87.387 0 00-6.338-15.3l16.589-16.587a8.98 8.98 0 000-12.696l-24.096-24.096a8.975 8.975 0 00-12.693 0l-16.589 16.589a87.526 87.526 0 00-15.299-6.338V17.104a8.975 8.975 0 00-8.976-8.975h-34.076a8.975 8.975 0 00-8.976 8.976v23.458a87.504 87.504 0 00-15.3 6.338l-16.589-16.589a8.973 8.973 0 00-12.693 0l-24.096 24.096a8.98 8.98 0 000 12.696l16.589 16.587a87.422 87.422 0 00-6.338 15.3h-23.461a8.975 8.975 0 00-8.975 8.976v34.077a8.976 8.976 0 008.975 8.976h23.459a87.295 87.295 0 006.338 15.3l-16.589 16.587a8.98 8.98 0 000 12.696l24.096 24.096a8.976 8.976 0 0012.693 0l16.589-16.589a87.48 87.48 0 0015.3 6.338v23.458a8.974 8.974 0 008.975 8.976h34.079a8.976 8.976 0 008.976-8.976v-23.458a87.47 87.47 0 0015.299-6.338l16.589 16.589a8.976 8.976 0 0012.693 0l24.096-24.096a8.982 8.982 0 000-12.696l-16.589-16.587a87.372 87.372 0 006.338-15.3h23.459a8.976 8.976 0 008.975-8.976v-34.077a8.974 8.974 0 00-8.975-8.976zm-8.976 34.077h-21.399a8.976 8.976 0 00-8.768 7.057 69.799 69.799 0 01-9.447 22.807 8.974 8.974 0 001.21 11.19l15.133 15.132-11.403 11.403-15.133-15.134a8.975 8.975 0 00-11.191-1.21 69.774 69.774 0 01-22.806 9.448 8.977 8.977 0 00-7.058 8.769v21.4h-16.125v-21.4a8.98 8.98 0 00-7.058-8.769 69.71 69.71 0 01-22.806-9.448 8.977 8.977 0 00-11.191 1.21l-15.132 15.134-11.404-11.403 15.133-15.132a8.974 8.974 0 001.21-11.19 69.799 69.799 0 01-9.447-22.807 8.976 8.976 0 00-8.768-7.057h-21.399v-16.126h21.399a8.976 8.976 0 008.768-7.056 69.77 69.77 0 019.447-22.808 8.974 8.974 0 00-1.21-11.19l-15.133-15.132 11.404-11.403 15.132 15.134a8.976 8.976 0 0011.191 1.21 69.73 69.73 0 0122.806-9.448 8.977 8.977 0 007.058-8.77V26.08h16.125v21.4a8.98 8.98 0 007.058 8.769 69.756 69.756 0 0122.806 9.448 8.976 8.976 0 0011.191-1.21l15.133-15.134 11.403 11.403-15.133 15.132a8.974 8.974 0 00-1.21 11.19 69.776 69.776 0 019.447 22.808 8.976 8.976 0 008.768 7.056h21.399v16.126z"/><path d="M257.287 79.88c-24.882 0-45.125 20.243-45.125 45.126 0 24.884 20.243 45.126 45.125 45.126 24.883 0 45.127-20.244 45.127-45.127 0-24.884-20.244-45.126-45.127-45.126zm0 72.3c-14.984 0-27.174-12.191-27.174-27.175s12.19-27.175 27.174-27.175c14.985 0 27.175 12.191 27.175 27.175 0 14.983-12.19 27.175-27.175 27.175zM417.918 51.418h-.026a8.977 8.977 0 00-8.975 8.95l-.016 5.509a8.974 8.974 0 008.95 9h.025a8.977 8.977 0 008.976-8.949l.016-5.508a8.975 8.975 0 00-8.95-9.002zm-.107 36.362h-.026a8.976 8.976 0 00-8.975 8.95l-.016 5.507a8.974 8.974 0 008.95 9.001h.025a8.976 8.976 0 008.976-8.949l.016-5.508a8.973 8.973 0 00-8.95-9.001zm20.981-15.367l-5.508-.016h-.027a8.976 8.976 0 00-.027 17.951l5.508.017h.027a8.975 8.975 0 008.975-8.949 8.974 8.974 0 00-8.948-9.003zm-36.361-.105l-5.507-.016h-.027a8.975 8.975 0 00-8.975 8.948 8.974 8.974 0 008.948 9.003l5.507.016h.027a8.977 8.977 0 00.027-17.951zM107.524 174.089h-.027a8.976 8.976 0 00-8.975 8.948l-.016 5.509a8.975 8.975 0 008.948 9.003h.027a8.977 8.977 0 008.976-8.949l.016-5.509a8.975 8.975 0 00-8.949-9.002zm-.106 36.361h-.026a8.977 8.977 0 00-8.976 8.95l-.016 5.509c-.013 4.958 3.993 8.988 8.95 9.001h.026a8.975 8.975 0 008.975-8.95l.016-5.508a8.974 8.974 0 00-8.949-9.002zm20.98-15.364l-5.507-.016h-.027a8.976 8.976 0 00-.027 17.951l5.507.016h.027a8.977 8.977 0 008.976-8.949 8.975 8.975 0 00-8.949-9.002zm-36.361-.107l-5.508-.016h-.027a8.976 8.976 0 00-.027 17.951l5.507.016h.028a8.977 8.977 0 008.975-8.949 8.974 8.974 0 00-8.948-9.002zm332.977 230.932h-.026a8.975 8.975 0 00-8.975 8.95l-.016 5.507a8.974 8.974 0 008.949 9.001h.026a8.976 8.976 0 008.976-8.949l.016-5.508c.013-4.959-3.993-8.988-8.95-9.001zm-.104 36.36h-.027a8.976 8.976 0 00-8.976 8.948l-.016 5.508a8.974 8.974 0 008.949 9.002h.027a8.976 8.976 0 008.975-8.948l.016-5.507a8.975 8.975 0 00-8.948-9.003zm20.978-15.366l-5.508-.016h-.027c-4.945 0-8.961 4.001-8.975 8.948a8.974 8.974 0 008.948 9.003l5.508.016h.027a8.976 8.976 0 008.975-8.949c.016-4.958-3.991-8.986-8.948-9.002zm-36.361-.106l-5.507-.016h-.027a8.976 8.976 0 00-.027 17.951l5.507.016h.027a8.976 8.976 0 00.027-17.951z"/></g></svg>