<svg xmlns="http://www.w3.org/2000/svg" xmlns:xlink="http://www.w3.org/1999/xlink">
<defs>
<path d="M20.6704-147.6241c-0.0003,0.0004-0.0007,0.0007-0.0011,0.0012l-6.0937,6.6973	c-0.4565,0.5017-0.4548,1.3133,0.004,1.8127c0.4587,0.4994,1.2007,0.4974,1.6572-0.0043l4.0913-4.4966v27.1446	c0,0.7079,0.5246,1.2817,1.1718,1.2817c0.6473,0,1.1719-0.5738,1.1719-1.2817v-27.1445l4.0913,4.4965	c0.4565,0.5017,1.1985,0.5037,1.6572,0.0043c0.4589-0.4994,0.4605-1.311,0.004-1.8127l-6.0937-6.6973	c-0.0004-0.0004-0.0008-0.0007-0.0011-0.0012C21.8714-148.1261,21.127-148.1245,20.6704-147.6241z" fill="#313131" id="reuse-1"/><path d="M38.9747,174.509l4.5253-3.674h-3.9629	c0-8.968-0.0186-16.208-0.0186-23.919H20.2767H3.5906c0,17.485,0,4.453,0,23.919H-0.5l3.8094,3.099l18.2033,14.722L38.9747,174.509z" opacity=".2" fill="#e9a844" id="reuse-0"/>
</defs>
<symbol id="arrow-down" viewBox="0 0 44 41.7399"><use opacity=".2" xlink:href="#reuse-0"/><use xlink:href="#reuse-1"/><use opacity=".2" xlink:href="#reuse-0"/><use xlink:href="#reuse-1"/><path d="M38.9747,27.5092L43.5,23.8351h-3.9629	c0-8.968-0.0186-16.2082-0.0186-23.9192l-19.2418,0l-16.6861,0c0,17.4852,0,4.453,0,23.9192H-0.5l3.8094,3.0992l18.2033,14.7215	L38.9747,27.5092z" opacity=".2" fill="#e9a844"/>&lt;<g clip-path="url(#SVGID_2_1)"><path d="M20.6704,36.2491c-0.0003-0.0004-0.0007-0.0007-0.0011-0.0012l-6.0937-6.6973 c-0.4565-0.5018-0.4548-1.3133,0.0039-1.8127c0.4588-0.4994,1.2007-0.4975,1.6573,0.0043l4.0913,4.4966V5.0942 c0-0.7079,0.5246-1.2817,1.1718-1.2817c0.6473,0,1.1719,0.5738,1.1719,1.2817v27.1445l4.0913-4.4965 c0.4565-0.5017,1.1985-0.5036,1.6572-0.0043c0.4589,0.4995,0.4604,1.3111,0.004,1.8127l-6.0937,6.6974 c-0.0004,0.0004-0.0008,0.0007-0.0012,0.0011C21.8714,36.7511,21.127,36.7495,20.6704,36.2491z" fill="#313131"/></g></symbol>
<symbol id="arrow-up" viewBox="0 0 44 41.7399"><path d="M4.5253,14.1466L0,17.8207h3.9628	c0,8.968,0.0187,16.2082,0.0187,23.9192h19.2418h16.6861c0-17.4853,0-4.4529,0-23.9192H44l-3.8095-3.0993L21.9872,0L4.5253,14.1466z" opacity=".2" fill="#e9a844"/>&lt;<g clip-path="url(#SVGID_2_2)"><path d="M21.1704,6.3759c-0.0003,0.0004-0.0007,0.0007-0.0011,0.0012l-6.0937,6.6973 c-0.4565,0.5018-0.4548,1.3133,0.004,1.8127c0.4587,0.4994,1.2007,0.4975,1.6572-0.0043l4.0913-4.4966v27.1446 c0,0.7079,0.5246,1.2817,1.1718,1.2817c0.6473,0,1.1719-0.5738,1.1719-1.2817V10.3863l4.0913,4.4965 c0.4565,0.5017,1.1985,0.5036,1.6572,0.0043c0.4589-0.4995,0.4605-1.3111,0.004-1.8127L22.8306,6.377 c-0.0004-0.0004-0.0008-0.0007-0.0011-0.0011C22.3714,5.8739,21.627,5.8755,21.1704,6.3759z" fill="#313131"/></g></symbol>
<symbol id="logo-mono" viewBox="0 0 500 500"><path d="M324.5,95.3L191,246.8l-43-91l-53.3,59.3l-19-33l-57.9,64.5l62.1,106.1l63.3-72.3l58.3,124.8	l36.3-91.5h40.1l5.8,14.4h29.2l-41.2-99.8L324.5,95.3z M201,387.6l-56-119.8l-64,73.1l-54.6-93.3L74.5,194l19,33l52.7-58.7l43,91	L303.1,130l-38.6,97.2h-18.9l-44,100.8h23L201,387.6z M268.1,289.1h-20.5L258,263L268.1,289.1z M295.8,227.4H389l-8.8,27.1h-23.5	v73.7h-29.2v-73.7h-31.8v-27.1H295.8z M481.9,254.5h-31.8v73.7H421v-73.7h-31.5l8.5-27.1h83.9V254.5z" fill="#fff"/></symbol>
<symbol id="logo" viewBox="0 0 551 342"><path d="M202.384,169.093l-51.8-109.625l-63.848,71.075L63.847,90.79L0,161.865l70.278,120.093 l76.691-87.567l68.824,147.318L351.417,0L202.384,169.093z" fill="#fa0"/><path d="M292.733,212.46l-12.649-32.568l-12.649,32.569h25.298L292.733,212.46z M304.539,242.147h-49.03 l-6.987,17.354h-35.9L265.629,138.1h30.96l50.115,121.402h-35.177l-6.987-17.354L304.539,242.147z M326.127,138.1h112.259 l-10.591,32.624h-28.263V259.5h-35.126v-88.777h-38.279V138.1z M449.156,138.099l-10.297,32.626h37.993V259.5h35.124v-88.776h38.28 v-32.626L449.156,138.099z" fill="#fff"/></symbol>
<symbol id="map-marker" viewBox="0 0 86 102"><path d="M43.4097,101.7891c-0.7656,0-1.5317-0.2197-2.1987-0.6582	c-0.4097-0.2695-10.1367-6.7148-19.9824-16.9746C7.686,70.0449,0.8193,56.1182,0.8193,42.7627	c0-11.2534,4.4365-21.8315,12.4927-29.7847c8.0425-7.939,18.7314-12.311,30.0977-12.311c11.3667,0,22.0552,4.3721,30.0972,12.311	C81.5635,20.9307,86,31.5083,86,42.7627c0,13.3555-6.8662,27.2822-20.4092,41.3936c-9.8457,10.2598-19.5732,16.7051-19.9824,16.9746	C44.9414,101.5693,44.1758,101.7891,43.4097,101.7891z M43.4097,8.667c-9.249,0-17.9419,3.5527-24.4775,10.0044	c-6.5215,6.438-10.1128,14.9941-10.1128,24.0913c0,23.1875,26.6548,44.3496,34.5903,50.1348C51.3438,87.1133,78,65.9502,78,42.7627	c0-9.0977-3.5918-17.6538-10.1133-24.0913C61.3516,12.2197,52.6582,8.667,43.4097,8.667z" fill="#ffc313"/><linearGradient id="SVGID_1_" gradientUnits="userSpaceOnUse" x1="-4.2896" y1="66.8971" x2="91.5062" y2="40.0595" gradientTransform="matrix(1 0 0 -1 0 104)"><stop offset="0" stop-color="#fff"/><stop offset="1" stop-color="#fff" stop-opacity="0"/></linearGradient><path d="M43.4097,101.7891c-0.7656,0-1.5317-0.2197-2.1987-0.6582	c-0.4097-0.2695-10.1367-6.7148-19.9824-16.9746C7.686,70.0449,0.8193,56.1182,0.8193,42.7627	c0-11.2534,4.4365-21.8315,12.4927-29.7847c8.0425-7.939,18.7314-12.311,30.0977-12.311c11.3667,0,22.0552,4.3721,30.0972,12.311	C81.5635,20.9307,86,31.5083,86,42.7627c0,13.3555-6.8662,27.2822-20.4092,41.3936c-9.8457,10.2598-19.5732,16.7051-19.9824,16.9746	C44.9414,101.5693,44.1758,101.7891,43.4097,101.7891z M43.4097,8.667c-9.249,0-17.9419,3.5527-24.4775,10.0044	c-6.5215,6.438-10.1128,14.9941-10.1128,24.0913c0,23.1875,26.6548,44.3496,34.5903,50.1348C51.3438,87.1133,78,65.9502,78,42.7627	c0-9.0977-3.5918-17.6538-10.1133-24.0913C61.3516,12.2197,52.6582,8.667,43.4097,8.667z" opacity=".4" fill="url(#SVGID_1_)"/><path d="M43.4097,59.4609c-9.2983,0-16.8633-7.4907-16.8633-16.6982S34.1113,26.064,43.4097,26.064	s16.8638,7.4912,16.8638,16.6987S52.708,59.4609,43.4097,59.4609z M43.4097,34.064c-4.8872,0-8.8633,3.9023-8.8633,8.6987	s3.9761,8.6982,8.8633,8.6982s8.8638-3.9019,8.8638-8.6982S48.2969,34.064,43.4097,34.064z" fill="#ffc313"/><linearGradient id="SVGID_2_" gradientUnits="userSpaceOnUse" x1="-2.2643" y1="74.0333" x2="93.4818" y2="47.2096" gradientTransform="matrix(1 0 0 -1 0 104)"><stop offset="0" stop-color="#fff"/><stop offset="1" stop-color="#fff" stop-opacity="0"/></linearGradient><path d="M43.4097,59.4609c-9.2983,0-16.8633-7.4907-16.8633-16.6982	S34.1113,26.064,43.4097,26.064s16.8638,7.4912,16.8638,16.6987S52.708,59.4609,43.4097,59.4609z M43.4097,34.064	c-4.8872,0-8.8633,3.9023-8.8633,8.6987s3.9761,8.6982,8.8633,8.6982s8.8638-3.9019,8.8638-8.6982S48.2969,34.064,43.4097,34.064z" opacity=".4" fill="url(#SVGID_2_)"/></symbol>
<symbol id="menu" viewBox="0 0 30 30"> <path d="M28.077 5.38448H1.92311C0.860742 5.38448 0 4.52374 0 3.46144C0 2.39913 0.860742 1.53833 1.92311 1.53833H28.077C29.1393 1.53833 30 2.39907 30 3.46144C30 4.5238 29.1393 5.38448 28.077 5.38448Z" fill="#FFAA00"/> <path d="M17.3077 16.9231H1.92311C0.860742 16.9231 0 16.0623 0 15C0 13.9377 0.860742 13.0769 1.92311 13.0769H17.3077C18.37 13.0769 19.2308 13.9376 19.2308 15C19.2308 16.0624 18.37 16.9231 17.3077 16.9231Z" fill="#FFAA00"/> <path d="M28.0769 16.923H25C23.9377 16.923 23.0769 16.0623 23.0769 14.9999C23.0769 13.9375 23.9376 13.0768 25 13.0768H28.0769C29.1392 13.0768 30 13.9375 30 14.9999C30 16.0623 29.1392 16.923 28.0769 16.923Z" fill="#FFC313"/> <path d="M28.077 28.4615H1.92311C0.860742 28.4615 0 27.6007 0 26.5384C0 25.4761 0.860742 24.6153 1.92311 24.6153H28.077C29.1393 24.6153 30 25.4761 30 26.5384C30 27.6007 29.1393 28.4615 28.077 28.4615Z" fill="#FFAA00"/> </symbol>
<symbol id="support-1" viewBox="0 0 264 200"><path d="M178.311 20.1464H86.2029V147.087H178.311V20.1464Z" fill="#FFB624"/><path d="M208.246 168.052H242.978C254.3 168.052 263.511 158.82 263.703 147.472V20.7234C263.703 9.37562 254.3 0.143555 242.978 0.143555H21.3432C10.0216 0.143555 0.810788 9.37562 0.618896 20.7234V147.472C0.618896 158.82 9.8297 168.052 21.3432 168.052H138.589L138.781 168.244L181.765 196.902C184.643 198.825 187.905 199.787 191.168 199.787C200.57 199.787 208.054 192.093 208.054 182.861V168.052H208.246ZM198.651 158.435V182.669C198.268 186.9 195.197 189.978 191.168 189.978C190.976 189.978 190.784 189.978 190.592 189.978C189.441 189.978 188.289 189.593 187.33 189.016L141.468 158.435H21.3432C15.2027 158.435 10.4054 153.434 10.2135 147.472V20.7234C10.2135 14.5687 15.2027 9.76028 21.1513 9.76028H242.787C248.927 9.76028 253.724 14.761 253.916 20.7234V147.472C253.916 153.626 248.927 158.435 242.978 158.435H198.651Z" fill="rgba(25, 25, 25, 0.5)"/><path d="M47.0567 60.152C47.0567 69.1917 40.1486 76.8851 31.3215 77.8467V89.9638C40.1486 90.9255 47.0567 98.4265 47.0567 107.659 47.0567 123.43 59.3378 136.316 74.881 137.278V125.161C66.054 124.199 59.1459 116.698 59.1459 107.466 59.1459 98.8112 55.308 90.7332 48.7837 85.1554L47.0567 83.6168 48.7837 82.0781C55.308 76.5004 58.954 68.4224 59.1459 59.7673 59.1459 50.7276 66.054 43.0342 74.881 42.0725V29.9554C59.3378 31.4941 47.0567 44.3805 47.0567 60.152zM217.265 107.659C217.265 98.6189 224.173 90.9255 233 89.9638V77.8468C224.173 76.8851 217.265 69.384 217.265 60.152 217.265 44.3806 204.984 31.4941 189.44 30.5325V42.6495C198.267 43.6112 205.176 51.1122 205.367 60.3443 205.367 68.9994 209.205 77.0774 215.73 82.6551L217.457 84.1938 215.73 85.7325C209.205 91.3102 205.559 99.3882 205.367 108.043 205.367 117.083 198.459 124.776 189.44 125.738V137.855C204.984 136.316 217.265 123.43 217.265 107.659zM169.867 30.3402H94.4539V42.2649H169.867V30.3402zM169.867 62.0754H94.4539V74.0002H169.867V62.0754zM106.543 93.8105H94.4539V105.735H106.543V93.8105zM169.867 93.8105H126.116V105.735H169.867V93.8105zM169.867 125.546H94.4539V137.47H169.867V125.546z" fill="rgba(25, 25, 25, 0.5)"/></symbol>
<symbol id="support-2" viewBox="0 0 337.0645 278.2856"><path d="M152.9135,106.4286H84.4448v94.286h68.4687V106.4286z" fill="#edb244"/><path d="M175.1655,216.2856h25.818c8.416,0,15.263-6.857,15.406-15.286v-94.142 c0-8.429-6.99-15.2862-15.406-15.2862H36.2313c-8.4159,0-15.2627,6.8572-15.4054,15.2862v94.142 c0,8.429,6.8469,15.286,15.4054,15.286h87.1552l0.142,0.143l31.952,21.286c2.14,1.428,4.565,2.143,6.99,2.143 c6.989,0,12.552-5.715,12.552-12.572v-11H175.1655z M168.0335,209.1426v18c-0.286,3.143-2.568,5.429-5.563,5.429 c-0.143,0-0.286,0-0.428,0c-0.856,0-1.712-0.286-2.425-0.714l-34.092-22.715H36.2313c-4.5645,0-8.1306-3.714-8.2732-8.143v-94.142 c0-4.572,3.7087-8.1433,8.1306-8.1433h164.7528c4.564,0,8.13,3.7143,8.273,8.1433v94.142c0,4.572-3.709,8.143-8.131,8.143H168.0335z" fill="#313131"/><path d="M55.3454 136.1426c0 6.715-5.1351 12.429-11.6967 13.143v9c6.5616.714 11.6967 6.286 11.6967 13.143 0 11.714 9.1291 21.286 20.6832 22v-9c-6.5616-.714-11.6967-6.286-11.6967-13.143 0-6.428-2.8529-12.428-7.7027-16.571l-1.2838-1.143 1.2838-1.143c4.8498-4.143 7.56-10.143 7.7027-16.571 0-6.715 5.1351-12.429 11.6967-13.143v-9C64.4745 114.8576 55.3454 124.4286 55.3454 136.1426zM181.8695 171.4286c0-6.714 5.135-12.429 11.697-13.143v-9c-6.562-.714-11.697-6.286-11.697-13.143 0-11.714-9.129-21.285-20.683-22v9c6.561.715 11.697 6.286 11.839 13.143 0 6.429 2.853 12.429 7.703 16.572l1.284 1.142-1.284 1.143c-4.85 4.143-7.56 10.143-7.703 16.572 0 6.714-5.135 12.428-11.839 13.143v9C172.7405 192.7146 181.8695 183.1426 181.8695 171.4286zM146.6365 114.0006H90.5781v8.857h56.0584V114.0006zM146.6365 137.5716H90.5781v8.857h56.0584V137.5716zM99.5646 161.1426h-8.9865v8.858h8.9865V161.1426zM146.6365 161.1426h-32.522v8.858h32.522V161.1426zM146.6365 184.7146H90.5781v8.857h56.0584V184.7146z" fill="#313131"/><path d="M319.0915,88.5714h-89.864v112.8572h89.864V88.5714z" fill="#edb244"/><path d="M321.5165,0H15.5481C6.9895,0,0,7,0,15.5714v247.1432c0,8.571,6.9895,15.428,15.5481,15.571h321.5164 V15.4286C337.0645,6.8571,330.0755,0,321.5165,0z M329.5045,220.7146v32.143v17.714h-112.117H15.5481c-4.422,0-7.988-3.572-7.988-8 V78h322.0874l-0.143,121.2856V220.7146z M329.5045,70.5714H7.5601V15.4286c0-4.4286,3.566-8,7.988-8h305.9684 c4.422,0,7.988,3.5714,7.988,8V70.5714z" fill="#313131"/><path d="M243.6335 116.8576h-8.986v8.857h8.986V116.8576zM314.2415 116.8576h-56.058v8.857h56.058V116.8576zM314.2415 140.4286h-79.594v8.857h79.594V140.4286zM255.3305 164.0006h-20.683v8.857h20.683V164.0006zM278.8675 164.0006h-8.844v8.857h8.844V164.0006zM314.2425 164.0006h-20.683v8.857h20.683V164.0006zM314.2415 187.5716h-79.594v8.857h79.594V187.5716zM314.2415 93.4286h-79.594v8.857h79.594V93.4286zM49.6397 59.7144H33.2358c-6.1337 0-11.1262-5-11.1262-11.1429V32.2858c0-6.1428 4.9925-11.1428 11.1262-11.1428h16.4039c6.1336 0 11.1261 5 11.1261 11.1428v16.4286C60.7658 54.8572 55.7733 59.7144 49.6397 59.7144zM33.2358 26.8572c-2.9955 0-5.4205 2.4286-5.4205 5.4286v16.4286c0 3 2.425 5.4286 5.4205 5.4286h16.4039c2.9955 0 5.4204-2.4286 5.4204-5.4286V32.2858c0-3-2.4249-5.4286-5.4204-5.4286H33.2358zM32.9816 253.8576h-6.481c-2.0032 0-3.535-1.535-3.535-3.541v-6.491c0-2.006 1.5318-3.54 3.535-3.54h6.481c2.0032 0 3.535 1.534 3.535 3.54v6.491C36.5166 252.2046 34.9848 253.8576 32.9816 253.8576zM101.7045 59.7144h-16.404c-6.1337 0-11.1262-5-11.1262-11.1429V32.2858c0-6.1428 4.9925-11.1428 11.1262-11.1428h16.404c6.134 0 11.126 5 11.126 11.1428v16.4286C112.8305 54.8572 107.8385 59.7144 101.7045 59.7144zM85.3005 26.8572c-2.9955 0-5.4205 2.4286-5.4205 5.4286v16.4286c0 3 2.425 5.4286 5.4205 5.4286h16.404c2.995 0 5.42-2.4286 5.42-5.4286V32.2858c0-3-2.425-5.4286-5.42-5.4286H85.3005zM154.4815 59.7144h-16.403c-6.134 0-11.127-5-11.127-11.1429V32.2858c0-6.1428 4.993-11.1428 11.127-11.1428h16.403c6.134 0 11.127 5 11.127 11.1428v16.4286C165.6085 54.8572 160.6155 59.7144 154.4815 59.7144zM138.0785 26.8572c-2.996 0-5.421 2.4286-5.421 5.4286v16.4286c0 3 2.425 5.4286 5.421 5.4286h16.403c2.996 0 5.421-2.4286 5.421-5.4286V32.2858c0-3-2.425-5.4286-5.421-5.4286H138.0785zM54.9484 253.9996h-6.481c-2.0032 0-3.535-1.534-3.535-3.54v-6.491c0-2.006 1.5318-3.54 3.535-3.54h6.481c2.0032 0 3.535 1.534 3.535 3.54v6.491C58.4834 252.4656 56.8338 253.9996 54.9484 253.9996zM76.7731 253.9996h-6.4809c-2.0032 0-3.5351-1.534-3.5351-3.54v-6.491c0-2.006 1.5319-3.54 3.5351-3.54h6.4809c2.0032 0 3.5351 1.534 3.5351 3.54v6.491C80.3082 252.3476 78.6585 253.9996 76.7731 253.9996zM98.5973 254.1426h-6.4809c-2.0032 0-3.5351-1.534-3.5351-3.54v-6.491c0-2.006 1.5319-3.54 3.5351-3.54h6.4809c2.0032 0 3.5352 1.534 3.5352 3.54v6.491C102.1325 252.6086 100.6005 254.1426 98.5973 254.1426z" fill="#313131"/></symbol>
<symbol id="support-3" viewBox="0 0 301.4978 284.3846"><path d="M124.2628,86.4408h-55.64v76.5788h55.64V86.4408z" fill="#ffb624"/><path d="M142.3448,175.6666h20.981c6.839,0,12.403-5.57,12.519-12.415V86.7889	c0-6.8456-5.68-12.415-12.519-12.415H29.443c-6.839,0-12.403,5.5694-12.5189,12.415v76.4627c0,6.845,5.564,12.415,12.5189,12.415	h70.8248l0.116,0.116l25.965,17.288c1.739,1.16,3.709,1.74,5.68,1.74c5.68,0,10.2-4.641,10.2-10.21v-8.934H142.3448z M136.5498,169.8646v14.62c-0.232,2.552-2.087,4.409-4.521,4.409c-0.116,0-0.232,0-0.348,0c-0.695,0-1.391-0.232-1.97-0.58	l-27.704-18.449H29.443c-3.7093,0-6.6072-3.016-6.7231-6.613V86.7889c0-3.7129,3.0138-6.6136,6.6072-6.6136h133.8827	c3.71,0,6.607,3.0167,6.723,6.6136v76.4627c0,3.713-3.013,6.613-6.607,6.613H136.5498z" fill="#333"/><path d="M44.9759 110.5746c0 5.453-4.173 10.094-9.5052 10.675v7.309c5.3322.581 9.5052 5.106 9.5052 10.675 0 9.514 7.4186 17.288 16.8078 17.868v-7.309c-5.3322-.581-9.5051-5.106-9.5051-10.675 0-5.221-2.3184-10.094-6.2595-13.459l-1.0432-.929 1.0432-.928c3.9411-3.365 6.1435-8.238 6.2595-13.459 0-5.453 4.1729-10.094 9.5051-10.675v-7.3093C52.3945 93.2865 44.9759 101.0606 44.9759 110.5746zM147.7928 139.2336c0-5.453 4.173-10.094 9.506-10.675v-7.309c-5.333-.58-9.506-5.106-9.506-10.675 0-9.514-7.418-17.288-16.807-17.8682v7.3102c5.332.58 9.505 5.105 9.621 10.674 0 5.221 2.318 10.095 6.259 13.459l1.043.929-1.043.928c-3.941 3.365-6.143 8.238-6.259 13.459 0 5.453-4.173 10.094-9.621 10.675v7.309C140.3748 156.5216 147.7928 148.7476 147.7928 139.2336zM119.1618 92.5903H73.607v7.1933h45.5548V92.5903zM119.1618 111.7346H73.607v7.194h45.5548V111.7346zM80.9097 130.8796H73.607v7.194h7.3027V130.8796zM119.1618 130.8796H92.733v7.194h26.4288V130.8796zM119.1618 150.0246H73.607v7.193h45.5548V150.0246z" fill="#333"/><path d="M259.3038,71.9373h-73.027v91.6623h73.027V71.9373z" fill="#ffb624"/><path d="M261.2747,0H12.6349C5.6799,0,0,5.6854,0,12.6471v200.7285c0,6.961,5.6799,12.531,12.6349,12.647	h261.2749V12.531C273.9098,5.5693,268.2298,0,261.2747,0z M267.7657,179.2626v26.107v14.387h-91.11H12.6349	c-3.5934,0-6.4913-2.9-6.4913-6.497V63.3512h261.7382l-0.116,98.5074V179.2626z M267.7657,57.3178H6.1435V12.531	c0-3.5968,2.8979-6.4975,6.4913-6.4975h248.6399c3.593,0,6.491,2.9007,6.491,6.4975V57.3178z" fill="#333"/><path d="M197.9848 94.9109h-7.303v7.1937h7.303V94.9109zM255.3628 94.9109h-45.555v7.1937h45.555V94.9109zM255.3628 114.0556h-64.681v7.194h64.681V114.0556zM207.4898 133.1996h-16.808v7.194h16.808V133.1996zM226.6158 133.1996h-7.187v7.194h7.187V133.1996zM255.3628 133.1996h-16.807v7.194h16.807V133.1996zM255.3628 152.3446h-64.681v7.194h64.681V152.3446zM255.3628 75.8822h-64.681v7.1937h64.681V75.8822zM40.3389 48.4997H27.0085c-4.9844 0-9.0414-4.061-9.0414-9.0502V26.2223c0-4.9892 4.057-9.0502 9.0414-9.0502h13.3304c4.9844 0 9.0414 4.061 9.0414 9.0502v13.3432C49.3803 44.5547 45.3233 48.4997 40.3389 48.4997zM27.0085 21.8132c-2.4342 0-4.4048 1.9725-4.4048 4.4091v13.3432c0 2.4366 1.9706 4.4091 4.4048 4.4091h13.3304c2.4342 0 4.4048-1.9725 4.4048-4.4091V26.2223c0-2.4366-1.9706-4.4091-4.4048-4.4091H27.0085zM26.802 206.1816h-5.2667c-1.6278 0-2.8727-1.246-2.8727-2.876v-5.271c0-1.63 1.2449-2.876 2.8727-2.876h5.2667c1.6278 0 2.8727 1.246 2.8727 2.876v5.271C29.6747 204.8396 28.4298 206.1816 26.802 206.1816zM82.6482 48.4997H69.3178c-4.9843 0-9.0414-4.061-9.0414-9.0502V26.2223c0-4.9892 4.0571-9.0502 9.0414-9.0502h13.3304c4.9844 0 9.0414 4.061 9.0414 9.0502v13.3432C91.6896 44.5547 87.6326 48.4997 82.6482 48.4997zM69.3178 21.8132c-2.4342 0-4.4048 1.9725-4.4048 4.4091v13.3432c0 2.4366 1.9706 4.4091 4.4048 4.4091h13.3304c2.4342 0 4.4048-1.9725 4.4048-4.4091V26.2223c0-2.4366-1.9706-4.4091-4.4048-4.4091H69.3178zM125.5368 48.4997h-13.33c-4.984 0-9.041-4.061-9.041-9.0502V26.2223c0-4.9892 4.057-9.0502 9.041-9.0502h13.33c4.985 0 9.042 4.061 9.042 9.0502v13.3432C134.5788 44.5547 130.5218 48.4997 125.5368 48.4997zM112.2068 21.8132c-2.434 0-4.405 1.9725-4.405 4.4091v13.3432c0 2.4366 1.971 4.4091 4.405 4.4091h13.33c2.435 0 4.405-1.9725 4.405-4.4091V26.2223c0-2.4366-1.97-4.4091-4.405-4.4091H112.2068zM44.6528 206.2976h-5.2666c-1.6279 0-2.8727-1.246-2.8727-2.875v-5.272c0-1.63 1.2448-2.876 2.8727-2.876h5.2666c1.6278 0 2.8727 1.246 2.8727 2.876v5.272C47.5255 205.0516 46.1849 206.2976 44.6528 206.2976zM62.3884 206.2976h-5.2666c-1.6279 0-2.8727-1.246-2.8727-2.875v-5.272c0-1.63 1.2448-2.876 2.8727-2.876h5.2666c1.6278 0 2.8727 1.246 2.8727 2.876v5.272C65.2611 204.9556 63.9205 206.2976 62.3884 206.2976zM80.1232 206.4136h-5.2666c-1.6278 0-2.8727-1.246-2.8727-2.875v-5.272c0-1.63 1.2449-2.876 2.8727-2.876h5.2666c1.6279 0 2.8727 1.246 2.8727 2.876v5.272C82.9959 205.1676 81.7511 206.4136 80.1232 206.4136zM301.4978 225.6746v-4.758c0-5.801-3.709-11.022-9.273-12.879-1.739-.58-3.13-1.856-3.825-3.596-.116-.349-.232-.581-.348-.929s-.232-.58-.348-.928c-.695-1.624-.695-3.597.232-5.105 2.666-5.221 1.623-11.487-2.55-15.664l-3.362-3.365c-4.173-4.177-10.432-5.221-15.648-2.552-1.623.812-3.478.928-5.217.232l-1.738-.696c-1.739-.697-3.014-2.089-3.594-3.829-1.854-5.57-6.955-9.283-12.751-9.283h-4.752c-5.796 0-11.012 3.713-12.867 9.283-.579 1.74-1.854 3.132-3.477 3.829-.696.232-1.275.464-1.855.812-1.623.696-3.593.696-5.216-.232-5.216-2.669-11.592-1.625-15.649 2.552l-3.361 3.365c-4.173 4.177-5.217 10.443-2.551 15.664.812 1.624.928 3.481.232 5.105-.347.58-.579 1.16-.811 1.857-.696 1.74-2.087 3.016-3.825 3.596-5.564 1.857-9.274 6.962-9.274 12.88v4.757c0 5.801 3.71 11.022 9.274 12.879 1.738.58 3.129 1.856 3.825 3.597.116.464.348.812.464 1.16.115.232.231.348.231.58.696 1.624.696 3.481-.231 5.105-2.666 5.222-1.623 11.487 2.55 15.664l3.361 3.365c4.173 4.177 10.433 5.105 15.649 2.552.927-.464 1.855-.696 2.782-.696.811 0 1.623.116 2.434.464.58.349 1.159.581 1.855.813 1.739.696 3.014 2.088 3.593 3.829 1.855 5.569 6.955 9.282 12.751 9.282h4.753c5.911 0 11.127-3.829 12.982-9.282.58-1.741 1.855-3.133 3.594-3.829.231-.116.579-.232.811-.348.348-.117.58-.233.927-.349 1.623-.696 3.594-.696 5.101.232 5.216 2.669 11.475 1.625 15.648-2.552l3.362-3.365c4.173-4.177 5.216-10.442 2.55-15.664-.811-1.624-.927-3.481-.232-5.105.348-.58.58-1.16.812-1.856.695-1.741 2.086-3.017 3.825-3.597C297.6728 236.6966 301.4978 231.4756 301.4978 225.6746zM273.3307 191.4456l.347-.348.348.348-.116-.464.116.348-.116-.348.116.464.464-.232-.116.116.116-.116-.464.232h.58v.465l-.928.232L273.3307 191.4456zM283.7628 223.8176c-5.1 2.553-9.041 6.846-11.244 12.067-.116.348-.348.812-.464 1.276-2.202 5.222-2.434 11.023-.695 16.476l.348 1.161-1.159-.348c-5.333-1.857-11.128-1.625-16.345.696l-1.275.58c-5.332 2.088-9.737 6.033-12.171 11.139l-.579 1.044-.58-1.044c-2.55-5.106-6.839-9.167-12.171-11.139-.464-.116-.812-.348-1.275-.464-2.782-1.277-5.912-1.857-9.042-1.857-2.55 0-5.1.348-7.534 1.161l-1.044.348.348-1.045c1.855-5.337 1.623-11.138-.695-16.36l-.58-1.276c-2.086-5.337-6.027-9.746-11.244-12.183l-1.043-.58 1.043-.58c5.101-2.437 9.158-6.846 11.244-12.067l.58-1.276c2.202-5.221 2.434-11.023.695-16.476l-.348-1.16 1.16.348c5.332 1.856 11.243 1.624 16.46-.697.232-.116.463-.232.695-.232.116-.116.348-.116.464-.232 5.332-2.088 9.737-6.033 12.171-11.138l.58-1.045.579 1.045c2.55 5.105 6.839 9.166 12.171 11.138.348.116.812.232 1.275.464 5.217 2.321 11.012 2.553 16.461.581l1.159-.348-.348 1.16c-1.855 5.337-1.623 11.138.695 16.36l.58 1.276c2.087 5.337 6.028 9.746 11.244 12.183l1.043.464L283.7628 223.8176z" fill="#333"/><path d="M289.4427,214.4196c-3.593-1.16-6.491-3.945-7.882-7.426c-0.116-0.464-0.348-0.928-0.58-1.392	l-0.116-0.348c-1.507-3.481-1.391-7.426,0.348-10.791c1.275-2.669,0.811-5.917-1.275-8.006l-3.362-3.365	c-2.086-2.088-5.332-2.668-7.998-1.276c-3.361,1.741-7.303,1.857-10.78,0.348c-0.58-0.232-1.159-0.464-1.739-0.696	c-3.593-1.392-6.259-4.293-7.418-7.89c-0.928-2.785-3.594-4.757-6.492-4.757h-4.868c-2.898,0-5.564,1.856-6.491,4.757	c-1.16,3.597-3.942,6.498-7.419,7.89c-0.348,0.116-0.58,0.232-0.927,0.348c-0.232,0.116-0.464,0.232-0.696,0.232h-0.116	c-3.477,1.508-7.418,1.392-10.896-0.348c-2.666-1.276-5.912-0.812-7.998,1.276l-3.362,3.365c-2.086,2.089-2.666,5.337-1.275,8.006	c1.739,3.365,1.855,7.31,0.348,10.791c-0.232,0.58-0.464,1.16-0.58,1.624c-1.391,3.597-4.288,6.266-7.998,7.426	c-2.782,0.928-4.752,3.597-4.752,6.497v4.758c0,3.016,1.854,5.569,4.752,6.497c3.594,1.16,6.491,3.945,7.882,7.426	c0.116,0.464,0.348,0.928,0.58,1.392l0.116,0.348c1.507,3.481,1.391,7.426-0.348,10.791c-1.275,2.669-0.811,5.917,1.275,8.006	l3.362,3.365c2.086,2.088,5.332,2.668,7.998,1.276c3.362-1.74,7.303-1.856,10.78-0.348c0.58,0.232,1.044,0.464,1.623,0.696	c3.593,1.392,6.26,4.293,7.419,8.006c0.927,2.785,3.593,4.757,6.491,4.757h4.753c2.897,0,5.564-1.856,6.491-4.757	c1.159-3.597,3.941-6.498,7.418-7.89c0.464-0.116,0.928-0.348,1.391-0.58l0.348-0.116c3.478-1.508,7.419-1.392,10.896,0.348	c2.666,1.276,5.912,0.812,7.999-1.276l3.361-3.365c2.087-2.089,2.666-5.337,1.275-8.006c-1.739-3.365-1.855-7.31-0.348-10.791	c0.232-0.58,0.464-1.044,0.696-1.624c1.391-3.597,4.289-6.266,7.998-7.426c2.782-0.928,4.753-3.597,4.753-6.497v-4.758	C294.0798,217.9006,292.2248,215.3476,289.4427,214.4196z" fill="#ffb624"/><path d="M240.9908 190.5176l-9.274 64.628 7.187 1.044 9.273-64.628L240.9908 190.5176zM273.6778 223.2376l-16.112-16.128-5.1 5.221 10.896 10.907-10.896 10.907 5.1 5.105L273.6778 223.2376zM227.1958 234.2606l-10.896-10.907 10.896-11.023-5.1-5.221-16.112 16.128 16.112 16.128L227.1958 234.2606z" fill="#333"/></symbol>
<symbol id="support-4" viewBox="0 0 330.0001 285.001"><path d="M173.1219,193.357h18.125c5.906-0.011,10.729-4.829,10.75-10.737v-65.898	c-0.027-5.919-4.865-10.734-10.786-10.734H75.6919c-5.907,0.012-10.73,4.829-10.75,10.737v65.901	c0.021,5.904,4.845,10.72,10.753,10.731h61.123l0.124,0.08l22.41,14.919c1.463,0.965,3.168,1.477,4.929,1.479	c4.867,0,8.833-3.961,8.841-8.83V193.357z M168.0699,188.369v12.639c-0.151,2.169-1.843,3.778-3.936,3.778	c-0.093,0-0.188-0.003-0.283-0.01c-0.579-0.042-1.154-0.215-1.662-0.502l-23.874-15.905h-62.623c-3.16-0.007-5.739-2.58-5.75-5.737	V116.72c0.011-3.162,2.589-5.738,5.746-5.745h115.513c3.159,0.007,5.738,2.581,5.75,5.738v65.919	c-0.012,3.157-2.59,5.73-5.747,5.737H168.0699z" fill="#191919"/><path fill="#ffb624" d="M109.5007 116.5005H157.5007V182.5005H109.5007z"/><path d="M89.0675 137.3167v.002c-.017 4.744-3.635 8.67-8.25 9.179v6.35c4.615.509 8.233 4.434 8.25 9.177.03 8.181 6.447 14.911 14.5 15.448v-6.26c-4.615-.51-8.233-4.437-8.25-9.18-.008-4.473-1.966-8.701-5.372-11.598l-.89-.758.887-.762c3.385-2.912 5.345-7.142 5.375-11.606.017-4.741 3.635-8.667 8.25-9.177v-6.262C95.4965 122.3877 89.0785 129.1177 89.0675 137.3167M177.8199 162.0252c.018-4.743 3.635-8.669 8.25-9.178v-6.349c-4.615-.509-8.232-4.435-8.25-9.18-.03-8.179-6.446-14.909-14.5-15.446v6.26c4.614.51 8.232 4.435 8.251 9.179.008 4.474 1.966 8.701 5.371 11.6l.89.758-.886.762c-3.387 2.91-5.346 7.141-5.375 11.605-.019 4.74-3.637 8.667-8.251 9.177v6.259C171.3739 176.9352 177.7899 170.2062 177.8199 162.0252M113.8177 121.8385H153.0697V128.0765H113.8177zM113.8177 138.3155H153.0697V144.55349999999999H113.8177zM113.8177 154.7925H120.0687V161.02949999999998H113.8177zM130.3187 154.7925H153.0687V161.02949999999998H130.3187zM113.8177 171.2685H153.0697V177.5065H113.8177z" fill="#191919"/><path fill="#ffb624" d="M206.5007 102.5005H274.5007V185.5005H206.5007z"/><path d="M273.6968,39.9566H59.1918c-5.975,0.012-10.855,4.884-10.876,10.862v172.995	c0.02,5.972,4.9,10.846,10.878,10.858l225.379,0.003V50.8136C284.5528,44.8426,279.6738,39.9696,273.6968,39.9566 M279.3228,227.8846h-3h-75.641v1.5h-141.49c-3.092-0.007-5.614-2.525-5.625-5.613V94.5726h225.756V227.8846z M279.3258,89.3856	H53.5668v-38.578c0.011-3.088,2.533-5.606,5.621-5.613h214.513c3.091,0.007,5.613,2.524,5.625,5.613V89.3856z" fill="#191919"/><path fill="#191919" d="M212.8207 121.8385H219.0717V128.0765H212.8207zM229.3207 121.8385H268.5727V128.0765H229.3207zM212.8207 138.3155H268.5727V144.55349999999999H212.8207zM212.8207 154.7925H227.3207V161.02949999999998H212.8207zM237.5717 154.7925H243.8217V161.02949999999998H237.5717zM254.0717 154.7925H268.57169999999996V161.02949999999998H254.0717zM212.8207 171.2685H268.5727V177.5065H212.8207zM212.8207 105.3625H268.5727V111.6005H212.8207zM308.361 234.475v-4.12c.006-5.046-3.213-9.489-8.009-11.057-1.513-.472-2.719-1.593-3.301-3.073-.1-.251-.214-.504-.329-.757-.118-.261-.235-.523-.34-.784-.627-1.426-.564-3.05.177-4.439 2.272-4.494 1.399-9.911-2.178-13.47l-2.889-2.885c-3.564-3.592-8.986-4.466-13.497-2.173-1.399.737-3.04.799-4.498.168l-1.534-.612c-1.479-.58-2.602-1.784-3.077-3.302-1.573-4.779-6.012-7.991-11.049-7.991h-.022-4.126-.022c-5.039 0-9.479 3.211-11.055 7.997-.466 1.49-1.566 2.693-3.015 3.293-.606.221-1.105.423-1.636.663-1.449.636-3.075.575-4.464-.17-4.512-2.268-9.956-1.393-13.538 2.18l-2.889 2.882c-3.607 3.555-4.481 8.97-2.176 13.476.739 1.381.801 3.005.165 4.446-.252.518-.47 1.037-.655 1.563-.588 1.498-1.794 2.62-3.314 3.093-4.789 1.567-8.007 6.01-8.002 11.055v4.119c-.005 5.047 3.213 9.49 8.009 11.059 1.514.471 2.719 1.592 3.301 3.073.111.366.255.693.397 1.021.076.174.151.347.22.52.628 1.426.566 3.049-.178 4.438-2.268 4.493-1.394 9.909 2.181 13.467l2.888 2.884c3.567 3.569 8.993 4.44 13.499 2.173.757-.4 1.586-.6 2.419-.6.704 0 1.41.144 2.079.433.521.254 1.042.471 1.566.656 1.498.586 2.621 1.789 3.097 3.309 1.573 4.779 6.013 7.991 11.049 7.991h.022 4.124c5.065-.017 9.558-3.252 11.18-8.05.473-1.508 1.595-2.712 3.075-3.291.244-.097.49-.208.737-.319.27-.121.54-.243.809-.349 1.425-.629 3.052-.566 4.441.178 4.496 2.263 9.921 1.391 13.488-2.179l2.888-2.883c3.607-3.554 4.481-8.969 2.176-13.475-.739-1.381-.802-3.004-.167-4.446.254-.518.472-1.038.657-1.563.588-1.498 1.794-2.619 3.314-3.093C305.148 243.964 308.367 239.52 308.361 234.475M284.085 204.952l.311-.295.287.304-.097-.379.085.321-.079-.326.149.445.403-.206-.134.076.141-.067-.37.198h.451v.391l-.762.233-.005-.007-.008.001-.372-.665.008-.008L284.085 204.952zM293.149 232.869c-4.422 2.157-7.85 5.866-9.653 10.443-.107.347-.253.73-.422 1.105-1.94 4.488-2.136 9.516-.551 14.151l.331.966-.966-.331c-4.623-1.582-9.641-1.387-14.129.553l-1.084.464c-4.634 1.774-8.366 5.196-10.523 9.643l-.45.928-.45-.927c-2.151-4.432-5.865-7.854-10.457-9.639-.352-.103-.727-.252-1.077-.431-2.446-1.053-5.068-1.594-7.764-1.594-2.193.006-4.364.343-6.452 1.003l-.946.299.322-.938c1.585-4.618 1.389-9.629-.553-14.107l-.464-1.083c-1.781-4.634-5.208-8.359-9.659-10.508l-.932-.45.932-.45c4.436-2.144 7.864-5.852 9.652-10.442l.471-1.096c1.941-4.498 2.137-9.527.553-14.162l-.33-.963.964.328c4.642 1.583 9.678 1.385 14.183-.553.17-.085.383-.165.603-.246.141-.051.286-.104.43-.165 4.634-1.774 8.365-5.196 10.523-9.645l.45-.927.45.926c2.151 4.432 5.866 7.854 10.458 9.636.342.1.717.248 1.076.43 4.474 1.953 9.51 2.151 14.151.541l.971-.336-.334.971c-1.588 4.62-1.391 9.632.553 14.114l.464 1.084c1.779 4.633 5.207 8.358 9.658 10.509l.927.448L293.149 232.869z"/><path d="M297.9801,224.7576c-3.146-1.013-5.643-3.357-6.823-6.36c-0.135-0.4-0.299-0.767-0.474-1.151	l-0.137-0.301c-1.286-3.013-1.17-6.416,0.324-9.346c1.145-2.293,0.703-5.056-1.108-6.882l-2.888-2.885	c-1.825-1.818-4.594-2.261-6.895-1.097c-2.925,1.485-6.336,1.601-9.31,0.336c-0.476-0.221-0.972-0.413-1.476-0.57	c-3.053-1.211-5.382-3.694-6.397-6.834c-0.811-2.432-3.076-4.063-5.634-4.063h-0.016h-4.134c-2.547,0.015-4.812,1.643-5.648,4.077	c-1.016,3.142-3.363,5.636-6.368,6.813c-0.267,0.088-0.519,0.191-0.771,0.294c-0.187,0.077-0.374,0.156-0.572,0.221l-0.111,0.042	c-3.02,1.285-6.432,1.168-9.366-0.321c-2.292-1.145-5.056-0.704-6.885,1.103l-2.889,2.885c-1.821,1.82-2.265,4.588-1.101,6.892	c1.489,2.918,1.605,6.321,0.335,9.294c-0.216,0.469-0.408,0.952-0.549,1.369c-1.208,3.075-3.705,5.42-6.861,6.436	c-2.44,0.809-4.076,3.078-4.071,5.646v4.127c0.012,2.552,1.646,4.819,4.086,5.645c3.144,1.013,5.641,3.358,6.822,6.357	c0.142,0.427,0.312,0.8,0.477,1.161l0.133,0.295c1.286,3.013,1.171,6.417-0.321,9.345c-1.149,2.293-0.707,5.057,1.106,6.882	l2.888,2.885c1.823,1.817,4.593,2.26,6.908,1.092c2.914-1.518,6.316-1.632,9.3-0.329c0.463,0.213,0.946,0.406,1.372,0.55	c3.077,1.203,5.425,3.695,6.446,6.852c0.812,2.433,3.076,4.063,5.633,4.063h0.019h4.133c2.548-0.012,4.814-1.641,5.647-4.077	c1.016-3.143,3.364-5.635,6.371-6.812c0.404-0.136,0.775-0.302,1.162-0.479l0.289-0.131c3.02-1.285,6.431-1.167,9.366,0.323	c2.293,1.144,5.058,0.701,6.885-1.105l2.889-2.883c1.821-1.82,2.265-4.588,1.101-6.892c-1.489-2.919-1.605-6.321-0.336-9.295	c0.213-0.46,0.405-0.941,0.552-1.369c1.206-3.075,3.702-5.42,6.86-6.437c2.439-0.807,4.075-3.078,4.07-5.627l0.05-4.098	C302.0471,227.8496,300.4161,225.5856,297.9801,224.7576" fill="#ffb624"/><path fill="#191919" d="M256.2369 204.2L248.2219 259.888 254.3909 260.785 262.4059 205.096zM284.4 232.3631L270.506 218.4901 266.083 222.9861 275.525 232.4161 266.088 241.8381 270.501 246.2421zM244.3346 241.8895L234.8986 232.4665 244.3406 223.0385 239.9166 218.5425 226.0236 232.4155 239.9226 246.2945z"/><path d="M34.9322 269.5076c.645.639 1.5.995 2.41 1.004.891-.003 1.737-.358 2.377-1.001.638-.643.988-1.495.986-2.401-.002-.898-.353-1.744-.986-2.381l-7.659-7.65 7.663-7.652c1.279-1.307 1.259-3.427-.048-4.722-1.324-1.322-3.473-1.32-4.795-.004l-7.663 7.654-7.609-7.658c-1.273-1.275-3.504-1.276-4.78-.001-.64.639-.993 1.488-.993 2.391-.001.904.35 1.754.989 2.393l7.665 7.655-7.671 7.601c-1.299 1.294-1.312 3.421-.03 4.739l-.318.387.352-.355c.645.64 1.501.996 2.41 1.005.882 0 1.748-.363 2.373-.996l7.667-7.656L34.9322 269.5076zM39.7848 35.701c.64.635 1.495.991 2.405 1 1.857-.005 3.369-1.53 3.365-3.4-.002-.899-.353-1.746-.988-2.384l-7.663-7.592 7.667-7.657c.637-.638.988-1.488.987-2.391 0-.903-.353-1.752-.992-2.391-1.281-1.279-3.51-1.273-4.783.003l-7.662 7.651-7.609-7.597c-1.319-1.321-3.466-1.323-4.785-.005-.639.638-.992 1.487-.993 2.391 0 .903.351 1.753.989 2.393l7.666 7.655-7.671 7.6c-.629.621-.978 1.451-.983 2.337-.005.88.33 1.709.943 2.336l.042.041c.646.642 1.503 1 2.413 1.01.882 0 1.746-.363 2.371-.996l7.672-7.662L39.7848 35.701zM174.6709 0h-.025c-8.557.013-15.519 6.986-15.519 15.543.033 8.549 7.017 15.522 15.57 15.543 8.566-.013 15.528-6.996 15.516-15.566-.006-4.151-1.628-8.052-4.569-10.984C182.7099 1.611 178.8129 0 174.6709 0M180.9049 21.783c-1.663 1.658-3.872 2.571-6.221 2.571-4.865-.007-8.811-3.96-8.811-8.811.022-4.845 3.978-8.797 8.817-8.812l.1.01h.002c4.764 0 8.71 3.958 8.703 8.816-.003 2.352-.923 4.564-2.591 6.226H180.9049zM26.592 179.8459c-2.937-2.945-6.844-4.57-11.001-4.576-4.173 0-8.077 1.614-11.016 4.544-2.944 2.936-4.569 6.843-4.575 11.001-.013 8.584 6.961 15.579 15.544 15.591 8.58-.004 15.575-6.977 15.592-15.546C31.142 186.7019 29.528 182.7909 26.592 179.8459M21.815 197.0809c-1.664 1.67-3.878 2.591-6.234 2.594-4.823-.017-8.767-3.922-8.833-8.724l-.002-.085c-.008-4.864 3.944-8.828 8.808-8.836 4.87 0 8.828 3.951 8.836 8.809C24.393 193.1949 23.479 195.4119 21.815 197.0809M330.0001 149.6725c-.015-8.566-7-15.539-15.567-15.543-8.569.012-15.531 6.995-15.518 15.566.005 4.152 1.627 8.052 4.568 10.983 2.933 2.926 6.831 4.537 10.975 4.537C323.0391 165.2035 330.0001 158.2315 330.0001 149.6725M314.4371 158.4325l-1.505.004v-.137c-4.197-.725-7.307-4.387-7.302-8.694.007-4.853 3.961-8.8 8.813-8.8h.011c4.853.006 8.8 3.959 8.8 8.812C323.2351 154.4635 319.2791 158.4165 314.4371 158.4325M302.0621 2.9481c-1.999.028-3.582 1.612-3.609 3.605v6.827c.007 2.006 1.649 3.644 3.658 3.65 2.007-.006 3.647-1.645 3.654-3.655v-6.843c-.013-.96-.406-1.868-1.106-2.549-.687-.668-1.592-1.035-2.548-1.035v-.5L302.0621 2.9481zM302.0621 37.2401c-1.999.028-3.582 1.612-3.609 3.605v6.827c-.004.988.374 1.915 1.065 2.612.692.698 1.614 1.084 2.596 1.089 2.005-.006 3.644-1.645 3.651-3.654v-6.895c-.013-.96-.406-1.868-1.106-2.549-.687-.668-1.592-1.035-2.548-1.035v-.5L302.0621 37.2401zM322.735 23.4774h-6.858c-2.013 0-3.651 1.637-3.651 3.65s1.638 3.65 3.651 3.65h6.858c2.013 0 3.649-1.637 3.649-3.65S324.748 23.4774 322.735 23.4774M288.3414 23.4774h-6.857c-2.013 0-3.651 1.637-3.651 3.65s1.638 3.65 3.651 3.65h6.857c2.013 0 3.65-1.637 3.65-3.65S290.3544 23.4774 288.3414 23.4774M172.4117 267.2664c1.899 1.302 4.127 2.101 6.455 2.313l.002-5.269c-1.436-.21-2.793-.78-3.948-1.662-4.823-3.205-11.112-3.19-15.997.056-1.512 1.111-3.481 1.715-5.397 1.692-1.897.086-3.835-.538-5.419-1.748-4.826-3.204-11.115-3.187-15.998.056-1.55 1.139-3.478 1.741-5.398 1.692-1.904.073-3.837-.542-5.417-1.748-4.824-3.202-11.115-3.187-15.998.056-1.552 1.14-3.48 1.734-5.4 1.692-1.91.071-3.838-.544-5.415-1.748-1.902-1.304-4.13-2.104-6.459-2.316v5.269c1.437.21 2.794.781 3.95 1.665 4.823 3.199 11.113 3.186 15.996-.058 1.511-1.109 3.465-1.683 5.391-1.693.077-.004.18-.006.283-.006 1.836 0 3.663.624 5.143 1.757 4.824 3.2 11.113 3.185 15.997-.059 1.509-1.108 3.43-1.709 5.39-1.692.104-.004.208-.006.311-.006 1.815 0 3.627.618 5.116 1.757 4.823 3.2 11.111 3.186 15.996-.058 1.518-1.115 3.494-1.725 5.397-1.693C168.8577 265.4374 170.8547 266.0764 172.4117 267.2664" fill="#333"/><path d="M83.1038,81.847h-11.466c-4.283,0-7.767-3.484-7.767-7.767V62.615c0-4.284,3.484-7.768,7.767-7.768h11.466	c4.283,0,7.767,3.484,7.767,7.768V74.08C90.8708,78.363,87.3868,81.847,83.1038,81.847 M71.6378,58.847	c-2.077,0-3.767,1.69-3.767,3.768V74.08c0,2.077,1.69,3.767,3.767,3.767h11.466c2.077,0,3.767-1.69,3.767-3.767V62.615	c0-2.078-1.69-3.768-3.767-3.768H71.6378z"/><path d="M72.8995,219.6805h-5.523c-1.66,0-3.006-1.346-3.006-3.006v-5.522c0-1.66,1.346-3.006,3.006-3.006	h5.523c1.66,0,3.006,1.346,3.006,3.006v5.522C75.9055,218.3345,74.5595,219.6805,72.8995,219.6805" fill="#191919"/><path d="M119.6038 81.847h-11.466c-4.283 0-7.767-3.484-7.767-7.767V62.615c0-4.284 3.484-7.768 7.767-7.768h11.466c4.283 0 7.767 3.484 7.767 7.768V74.08C127.3708 78.363 123.8868 81.847 119.6038 81.847M108.1378 58.847c-2.077 0-3.767 1.69-3.767 3.768V74.08c0 2.077 1.69 3.767 3.767 3.767h11.466c2.077 0 3.767-1.69 3.767-3.767V62.615c0-2.078-1.69-3.768-3.767-3.768H108.1378zM156.6028 81.847h-11.465c-4.283 0-7.767-3.484-7.767-7.767V62.615c0-4.284 3.484-7.768 7.767-7.768h11.465c4.284 0 7.768 3.484 7.768 7.768V74.08C164.3708 78.363 160.8868 81.847 156.6028 81.847M145.1378 58.847c-2.077 0-3.767 1.69-3.767 3.768V74.08c0 2.077 1.69 3.767 3.767 3.767h11.465c2.077 0 3.768-1.69 3.768-3.767V62.615c0-2.078-1.691-3.768-3.768-3.768H145.1378z"/><path d="M88.2516 219.8319h-5.523c-1.66 0-3.006-1.346-3.006-3.006v-5.522c0-1.66 1.346-3.006 3.006-3.006h5.523c1.66 0 3.006 1.346 3.006 3.006v5.522C91.2576 218.4859 89.9116 219.8319 88.2516 219.8319M103.5753 219.7557h-5.522c-1.661 0-3.006-1.346-3.006-3.006v-5.522c0-1.66 1.345-3.006 3.006-3.006h5.522c1.66 0 3.006 1.346 3.006 3.006v5.522C106.5813 218.4097 105.2353 219.7557 103.5753 219.7557M118.9273 219.9071h-5.522c-1.661 0-3.006-1.346-3.006-3.006v-5.522c0-1.66 1.345-3.006 3.006-3.006h5.522c1.66 0 3.006 1.346 3.006 3.006v5.522C121.9333 218.5611 120.5873 219.9071 118.9273 219.9071" fill="#191919"/></symbol>
<symbol id="telegram" viewBox="0 0 42 42">&lt;<g clip-path="url(#SVGID_2_3)"><path d="M20.9998,42c11.5978,0,20.9997-9.4019,20.9997-20.9998c0-11.5978-9.4019-20.9997-20.9997-20.9997 C9.4019,0.0005,0,9.4024,0,21.0002C0,32.5981,9.4019,42,20.9998,42z" fill="#41b4e6"/><path d="M42,21c0-0.5117-0.0193-1.0187-0.0552-1.5213l-8.7034-8.7033L8.7587,20.4058l9.3672,9.3673 l0.1229,0.4423l0.159-0.1604l0.0007,0.0007l-0.1597,0.1597l10.3619,10.3619C36.4463,37.5291,42,29.9135,42,21z" fill="#0091c8"/><path d="M18.9605,24.0595l9.4903,7.1652l4.7906-20.4493L8.7586,20.4058l7.4498,2.4676l13.5961-9.1199 L18.9605,24.0595z" fill="#fff"/><path d="M16.2084,22.8733l2.0403,7.3421l0.7118-6.1559l10.844-10.3061L16.2084,22.8733z" fill="#d2d2d7"/><path d="M22.045,26.3888l-3.7962,3.8272l0.7118-6.1559L22.045,26.3888z" fill="#b9b9be"/></g></symbol>
<symbol id="viber" viewBox="0 0 42 42">&lt;<g clip-path="url(#SVGID_2_4)"><path d="M25.2006,0h-8.4011C8.6928,0,2.0976,6.5951,2.0976,14.7019v6.3008 c0,5.6914,3.2824,10.8563,8.4011,13.2859v7.0167c0,0.6092,0.7622,0.9278,1.1951,0.495l6.0957-6.0957h7.411 c8.1067,0,14.7019-6.5952,14.7019-14.7019v-6.3008C39.9024,6.5951,33.3072,0,25.2006,0z" fill="#665cac"/><path d="M12.599,34.2885c-5.1187-2.4296-8.4011-7.5945-8.4011-13.2859v-6.3008 C4.1979,6.5951,10.7931,0,18.8998,0h-2.1003C8.6928,0,2.0976,6.5951,2.0976,14.7019v6.3008 c0,5.6914,3.2824,10.8563,8.4011,13.2859v7.0167c0,0.6092,0.7622,0.9278,1.1951,0.495l0.9052-0.9051V34.2885z" fill="#523494"/><path d="M31.5697,26.0942l-0.6294-3.4097c-0.0521-0.2817-0.2703-0.5032-0.5512-0.5594l-4.9503-0.9901 c-0.23-0.0457-0.4669,0.026-0.6325,0.1915l-2.0112,2.0112c-3.3885-1.5183-5.2692-3.403-6.9239-6.937l2.0047-2.0046 c0.1655-0.1655,0.2373-0.4029,0.1915-0.6325l-0.9901-4.9504c-0.0562-0.2808-0.2777-0.4992-0.5594-0.5512l-3.4097-0.6293 c-0.0934-0.0171-0.1895-0.0153-0.2822,0.0057c-0.9003,0.2045-1.7218,0.6581-2.3757,1.3122 c-1.1322,1.1322-1.5649,2.7843-1.2512,4.7778c0.5266,3.3473,2.1665,8.0057,5.1923,11.0436l0.0413,0.041 c3.0355,3.0236,7.694,4.6637,11.0415,5.1904c0.4217,0.0664,0.8279,0.0993,1.2173,0.0993c1.4516,0,2.6677-0.4579,3.5606-1.3506 c0.6539-0.654,1.1077-1.4755,1.3121-2.3756C31.585,26.2837,31.5869,26.1878,31.5697,26.0942z" fill="#fff"/><path d="M17.1914 15.0808l.6845-.6846.0007-.0007-.6853.6852L17.1914 15.0808zM24.8063 21.3259l-.6911.6912.0001.0001.6912-.6912L24.8063 21.3259z" fill="#e5e5e5"/><path d="M28.0115,28.7825c-0.3895,0-0.7957-0.0329-1.2174-0.0993 c-3.3474-0.5267-8.0059-2.1668-11.0415-5.1904l-0.0413-0.041c-3.0257-3.0379-4.6657-7.6962-5.1923-11.0436 c-0.2534-1.6105-0.0191-2.9981,0.6773-4.0688c-0.2667,0.1779-0.517,0.382-0.7462,0.6113 c-1.1322,1.1321-1.565,2.7843-1.2513,4.7778c0.5266,3.3474,2.1666,8.0058,5.1923,11.0436l0.0413,0.041 c3.0355,3.0236,7.694,4.6638,11.0415,5.1904c0.4217,0.0664,0.8279,0.0993,1.2174,0.0993c1.4515,0,2.6676-0.4578,3.5605-1.3506 c0.2292-0.2293,0.4333-0.4795,0.6112-0.7462C30.0725,28.5201,29.1095,28.7825,28.0115,28.7825z" fill="#e5e5e5"/><path d="M22.4002,11.9014c-0.3867,0-0.7001,0.3134-0.7001,0.7c0,0.3866,0.3134,0.7001,0.7001,0.7001 c1.5441,0,2.8003,1.2562,2.8003,2.8004c0,0.3814,0.3186,0.7,0.7001,0.7c0.3814,0,0.7-0.3186,0.7-0.7 C26.6007,13.7856,24.7164,11.9014,22.4002,11.9014z" fill="#fff"/><path d="M22.4002,9.1011c-0.259,0-0.5204,0.0144-0.7769,0.0427c-0.3844,0.0424-0.6615,0.3883-0.6191,0.7727 c0.0424,0.3844,0.389,0.6608,0.7727,0.6191c0.2057-0.0228,0.4154-0.0343,0.6233-0.0343c3.0882,0,5.6006,2.5124,5.6006,5.6006 c0,0.208-0.0115,0.4177-0.0342,0.6234c-0.0419,0.3791,0.2398,0.731,0.619,0.7727c0.3792,0.0418,0.7309-0.2398,0.7728-0.6191 c0.0283-0.2565,0.0426-0.5179,0.0426-0.777C29.401,12.2417,26.2605,9.1011,22.4002,9.1011z" fill="#fff"/><path d="M22.4006,6.3008c-0.2502,0-0.5036,0.0095-0.753,0.0285c-0.3855,0.0292-0.6745,0.3655-0.6452,0.751 c0.0291,0.3856,0.3666,0.6745,0.7509,0.6453c0.2144-0.0163,0.4322-0.0245,0.6473-0.0245c4.6324,0,8.401,3.7687,8.401,8.401 c0,0.6555-0.0756,1.3079-0.2247,1.9393c-0.0856,0.3617,0.1372,0.7377,0.4959,0.836c0.3775,0.1034,0.7768-0.1333,0.8667-0.514 c0.1741-0.7367,0.2623-1.4975,0.2623-2.2613C32.2018,10.6976,27.805,6.3008,22.4006,6.3008z" fill="#fff"/></g></symbol>
<symbol id="whatsapp" viewBox="0 0 42 42"><path d="M21.0052,0h-0.0104C9.4159,0,0,9.4185,0,21c0,4.5938,1.4805,8.8515,3.9979,12.3086l-2.6171,7.8015	l8.0719-2.5803C12.7733,40.7295,16.7344,42,21.0052,42C32.5841,42,42,32.5789,42,21C42,9.4211,32.5841,0,21.0052,0z" fill="#4caf50"/><path d="M33.2246,29.6547c-0.5066,1.4307-2.5173,2.6172-4.1212,2.9637	c-1.0973,0.2336-2.5305,0.42-7.3553-1.5803c-6.1713-2.5567-10.1456-8.8279-10.4553-9.2347	c-0.2966-0.4069-2.4938-3.3207-2.4938-6.3342s1.5304-4.4808,2.1473-5.1108c0.5066-0.5172,1.344-0.7534,2.1472-0.7534	c0.2599,0,0.4935,0.0131,0.7035,0.0236c0.6169,0.0262,0.9267,0.063,1.3335,1.0369c0.5067,1.2206,1.7404,4.2341,1.8874,4.5439	c0.1496,0.3097,0.2993,0.7297,0.0893,1.1366c-0.1969,0.42-0.3702,0.6064-0.6799,0.9634c-0.3098,0.357-0.6038,0.63-0.9135,1.0132	c-0.2835,0.3334-0.6038,0.6904-0.2468,1.3073c0.357,0.6037,1.5908,2.6171,3.4073,4.2341c2.3441,2.0869,4.2446,2.7536,4.9245,3.0371	c0.5066,0.21,1.1103,0.1601,1.4805-0.2336c0.4698-0.5066,1.05-1.3466,1.6406-2.1735c0.42-0.5933,0.9503-0.6668,1.5068-0.4568	c0.5669,0.1969,3.5673,1.68,4.1842,1.9872c0.6169,0.3097,1.0237,0.4567,1.1734,0.7166	C33.7313,27.0009,33.7313,28.2215,33.2246,29.6547z" fill="#fafafa"/></symbol>
</svg>