<svg viewBox="0 0 1320 615" fill="none" xmlns="http://www.w3.org/2000/svg"><g clip-path="url(#clip0)"><path d="M523.03 190.171L485 124.24l38.03-65.931h76.239l38.03 65.931-38.03 65.931H523.03zm711.31-14.216l-38.04-65.932 38.04-65.931h76.06l38.03 65.931-38.03 65.932h-76.06zm-683.102 353.47l-22.036-37.853 22.036-38.03h43.718l22.036 38.03-22.036 37.853h-43.718zm702.412 63.102l-67-115.868 67-116.046h133.82l66.99 116.046-66.99 115.868h-133.82zm-495.835-21.453l-66.998-116.046 66.998-115.868h133.817l66.998 115.868-66.998 116.046H757.815z" fill="#EAEAEA"/><path d="M748.247 517.295c0 .26.208.479.476.479h4.926v-.948h-4.926a.47.47 0 00-.476.469zm0-93.859c0 .259.208.479.476.479h4.926v-.948h-4.926a.47.47 0 00-.476.469zm.476-282.324a.478.478 0 000 .957h4.926v-.947h-4.926v-.01zm-.476 188.465c0 .259.208.478.476.478h4.926v-.947h-4.926a.47.47 0 00-.476.469zm0-94.128v.08c.04.23.238.399.466.399h4.926v-.948h-4.926a.46.46 0 00-.466.469zm-457.011-.588a.68.68 0 00-.247-.05h-4.014v-4.093l4.093-1.025h-4.837l-.475.099v.06l-2.875 1.006h2.825v3.953h-4.054a.638.638 0 00-.634.628.65.65 0 00.178.458.638.638 0 00.456.189h4.054v4.073c0 .349.278.627.654.637a.63.63 0 00.615-.637v-4.073h4.014c.089 0 .178-.02.257-.05h.516l-.01-1.175h-.516zm275.981-.05v-4.312a.626.626 0 00-.634-.627.632.632 0 00-.635.627v4.312h-4.053c-.347 0-.635.289-.635.727.04.319.317.558.635.558h4.053v4.073c0 .349.288.627.635.627a.625.625 0 00.634-.627v-4.073h4.014c.079 0 .168-.02.248-.05l.812-.338-.089-.09 1.983-.797h-6.968v-.01zm-93.414 0v-4.312a.626.626 0 00-.634-.627.632.632 0 00-.635.627v4.312h-4.054c-.346 0-.634.289-.634.727.04.319.317.558.634.558h4.054v4.073c0 .349.288.627.635.627a.625.625 0 00.634-.627v-4.073h4.014c.089 0 .178-.02.268-.06l.763-.348-.119-.12 1.486-.747h-6.412v-.01zm191.09.05a.686.686 0 00-.248-.05h-4.014v-4.312a.631.631 0 00-.634-.627.632.632 0 00-.635.627v4.312h-4.053c-.347 0-.635.289-.625.737.05.309.317.538.625.538h4.053v4.073c0 .349.288.627.635.627a.63.63 0 00.634-.627v-4.073h4.014a.74.74 0 00.258-.05h.525l-.01-1.175h-.525zm-284.504-.05v-4.312a.626.626 0 00-.635-.627.632.632 0 00-.634.627v4.312h-4.054c-.347 0-.634.289-.624.737.05.309.317.538.624.538h4.054v4.073c0 .349.288.627.634.627a.625.625 0 00.635-.627v-4.073h4.014c.089 0 .178-.02.267-.06l.774-.348-.119-.12 1.486-.747h-6.422zm-89.4 187.987h-4.014v-4.312a.625.625 0 00-.635-.627.63.63 0 00-.634.627v4.312h-4.054a.64.64 0 00-.634.637.64.64 0 00.634.638h4.054v3.804c0 .348.268.627.664.637a.637.637 0 00.615-.637v-3.804h4.014a.64.64 0 00.634-.638.649.649 0 00-.644-.637zm93.414 0h-4.014v-4.312a.632.632 0 00-.635-.627.631.631 0 00-.634.627v4.312h-4.054a.64.64 0 00-.634.637.64.64 0 00.634.638h4.054v3.804c0 .348.288.627.634.627a.632.632 0 00.635-.627v-3.804h4.014a.64.64 0 00.634-.638.634.634 0 00-.634-.637zm186.828 0h-4.014v-4.312a.631.631 0 00-.634-.627.632.632 0 00-.635.627v4.312h-4.053a.64.64 0 00-.635.637c0 .349.288.638.635.638h4.053v3.804c0 .348.288.627.635.627a.632.632 0 00.634-.627v-3.804h4.014a.64.64 0 00.634-.638.634.634 0 00-.634-.637zm-93.414 0h-4.014v-4.312a.632.632 0 00-.635-.627.631.631 0 00-.634.627v4.312h-4.054a.64.64 0 00-.634.637.64.64 0 00.634.638h4.054v3.804c0 .348.288.627.634.627a.632.632 0 00.635-.627v-3.804h4.014a.64.64 0 00.634-.638.634.634 0 00-.634-.637zm186.828 0h-4.014v-4.312a.63.63 0 00-.634-.627.632.632 0 00-.635.627v4.312h-4.053a.64.64 0 00-.635.637c0 .349.288.638.635.638h4.053v3.804c0 .348.288.627.635.627a.631.631 0 00.634-.627v-3.804h4.014a.64.64 0 00.634-.638.634.634 0 00-.634-.637zm0-93.859h-4.014v-4.581a.631.631 0 00-.634-.627.632.632 0 00-.635.627v4.581h-4.053a.64.64 0 00-.635.637c0 .349.288.638.635.638h4.053v3.804c0 .348.288.627.635.627a.626.626 0 00.634-.627v-3.804h4.014a.64.64 0 00.634-.638.634.634 0 00-.634-.637zm-280.242 0h-4.014v-4.581a.62.62 0 00-.635-.627.632.632 0 00-.634.627v4.581h-4.054a.64.64 0 00-.634.637.64.64 0 00.634.638h4.054v3.804c0 .348.288.627.634.627a.626.626 0 00.635-.627v-3.804h4.014a.64.64 0 00.634-.638.634.634 0 00-.634-.637zm-93.414 0h-4.014v-4.581a.632.632 0 00-.635-.627.631.631 0 00-.634.627v4.581h-4.054a.64.64 0 00-.634.637.64.64 0 00.634.638h4.054v3.804a.64.64 0 00.634.637.64.64 0 00.635-.637v-3.804h4.014a.64.64 0 00.634-.638.634.634 0 00-.634-.637zm186.828 0h-4.014v-4.581a.632.632 0 00-.635-.627.632.632 0 00-.634.627v4.581h-4.054a.64.64 0 00-.634.637.64.64 0 00.634.638h4.054v3.804c0 .348.288.627.634.627a.626.626 0 00.635-.627v-3.804h4.014a.64.64 0 00.634-.638.634.634 0 00-.634-.637zm93.414 0h-4.014v-4.581a.632.632 0 00-.634-.627.632.632 0 00-.635.627v4.581h-4.053a.64.64 0 00-.635.637c0 .349.288.638.635.638h4.053v3.804c0 .348.288.627.635.627a.626.626 0 00.634-.627v-3.804h4.014a.64.64 0 00.634-.638.634.634 0 00-.634-.637zm93.414 187.718h-4.014v-4.312a.632.632 0 00-.634-.628.633.633 0 00-.635.628v4.312h-4.053a.64.64 0 00-.635.637.64.64 0 00.635.637h4.053v3.805c0 .348.288.627.635.627a.631.631 0 00.634-.627v-3.805h4.014a.64.64 0 00.634-.637.634.634 0 00-.634-.637zm-93.414 0h-4.014v-4.312a.626.626 0 00-.634-.628.633.633 0 00-.635.628v4.312h-4.053a.64.64 0 00-.635.637.64.64 0 00.635.637h4.053v3.805c0 .348.288.627.635.627a.632.632 0 00.634-.627v-3.805h4.014a.627.627 0 00.634-.637.634.634 0 00-.634-.637zm-186.828 0h-4.014v-4.312a.626.626 0 00-.635-.628.632.632 0 00-.634.628v4.312h-4.054a.64.64 0 00-.634.637.64.64 0 00.634.637h4.054v3.805c0 .348.288.627.634.627a.632.632 0 00.635-.627v-3.805h4.014a.627.627 0 00.634-.637.634.634 0 00-.634-.637zm93.414 0h-4.014v-4.312a.626.626 0 00-.635-.628.632.632 0 00-.634.628v4.312h-4.054a.64.64 0 00-.634.637c0 .359.278.637.634.637h4.054v3.805c0 .348.288.627.634.627a.632.632 0 00.635-.627v-3.805h4.014a.627.627 0 00.634-.637.634.634 0 00-.634-.637zm-186.828 0h-4.014v-4.312c0-.349-.268-.628-.664-.638a.63.63 0 00-.615.638v4.312h-4.054a.64.64 0 00-.634.637.64.64 0 00.634.637h4.054v3.805c0 .348.288.627.634.627a.632.632 0 00.635-.627v-3.805h4.014a.64.64 0 00.634-.637.619.619 0 00-.624-.637zM104.161 234.811h-4.015v-4.312a.631.631 0 00-.634-.627.632.632 0 00-.634.627v4.312h-4.054a.628.628 0 00-.634.638c0 .169.06.338.178.458a.637.637 0 00.456.189h4.054v4.073a.63.63 0 00.634.627.63.63 0 00.634-.627v-4.073h4.015a.64.64 0 00.535-.289l.089-.249.04-.03-.07-.289a.61.61 0 00-.594-.428zm-93.415 0H6.732v-4.312a.632.632 0 00-.634-.627.632.632 0 00-.634.627v4.312H1.41a.634.634 0 00-.634.638c0 .169.06.338.178.458a.637.637 0 00.456.189h4.054v4.073a.63.63 0 00.634.627.631.631 0 00.634-.627v-4.073h4.014c.218 0 .417-.11.536-.289l.138-.448-.069-.1a.625.625 0 00-.605-.448zm186.829 0h-4.014v-4.312a.632.632 0 00-.635-.627.625.625 0 00-.634.627v4.312h-4.054a.638.638 0 00-.634.628c0 .169.059.328.178.458a.655.655 0 00.456.189h4.054v4.073c0 .359.277.627.634.627a.632.632 0 00.635-.627v-4.073h4.014a.64.64 0 00.535-.289l.119-.378-.05-.18a.632.632 0 00-.604-.428zm-93.414 187.987h-4.015v-4.312a.63.63 0 00-.634-.627.631.631 0 00-.634.627v4.312h-4.054a.64.64 0 00-.634.637.64.64 0 00.634.638h4.054v3.804c0 .348.287.627.634.627a.631.631 0 00.634-.627v-3.804h4.015a.64.64 0 00.634-.638.628.628 0 00-.634-.637zm-93.415 0H6.732v-4.312a.631.631 0 00-.634-.627.631.631 0 00-.634.627v4.312H1.41a.64.64 0 00-.634.637.64.64 0 00.634.638h4.054v3.804c0 .348.287.627.634.627a.632.632 0 00.634-.627v-3.804h4.014a.64.64 0 00.635-.638.628.628 0 00-.635-.637zm186.829 0h-4.014v-4.312a.632.632 0 00-.635-.627.63.63 0 00-.634.627v4.312h-4.054a.64.64 0 00-.634.637.64.64 0 00.634.638h4.054v3.804c0 .348.287.627.634.627a.632.632 0 00.635-.627v-3.804h4.014a.64.64 0 00.634-.638.628.628 0 00-.634-.637zm0-93.859h-4.014v-4.581a.632.632 0 00-.635-.627.631.631 0 00-.634.627v4.581h-4.054a.64.64 0 00-.634.637.64.64 0 00.634.638h4.054v3.804c0 .348.277.627.634.627a.632.632 0 00.635-.627v-3.804h4.014a.64.64 0 00.634-.638.628.628 0 00-.634-.637zm-186.828 0H6.731v-4.581a.632.632 0 00-.634-.627.632.632 0 00-.634.627v4.581H1.41a.64.64 0 00-.634.637.64.64 0 00.634.638h4.054v3.804c0 .348.287.627.634.627a.632.632 0 00.634-.627v-3.804h4.014a.64.64 0 00.635-.638.628.628 0 00-.635-.637zm93.414 0h-4.015v-4.581a.631.631 0 00-.634-.627.632.632 0 00-.634.627v4.581h-4.054a.64.64 0 00-.634.637.64.64 0 00.634.638h4.054v3.804c0 .348.287.627.634.627a.631.631 0 00.634-.627v-3.804h4.015a.64.64 0 00.634-.638.628.628 0 00-.634-.637zm93.414 187.718h-4.014v-4.312a.633.633 0 00-.635-.628.625.625 0 00-.634.628v4.312h-4.054a.64.64 0 00-.634.637.64.64 0 00.634.637h4.054v3.805c0 .348.287.627.634.627a.632.632 0 00.635-.627v-3.805h4.014a.64.64 0 00.634-.637.628.628 0 00-.634-.637zm-93.414 0h-4.015v-4.312a.632.632 0 00-.634-.628.632.632 0 00-.634.628v4.312h-4.054a.64.64 0 00-.634.637.64.64 0 00.634.637h4.054v3.805c0 .348.287.627.634.627a.631.631 0 00.634-.627v-3.805h4.015a.64.64 0 00.634-.637.628.628 0 00-.634-.637zm-93.415 0H6.732v-4.312a.632.632 0 00-.634-.628.632.632 0 00-.634.628v4.312H1.41a.64.64 0 00-.634.637.64.64 0 00.634.637h4.054v3.805c0 .348.287.627.634.627a.632.632 0 00.634-.627v-3.805h4.014a.64.64 0 00.635-.637.628.628 0 00-.635-.637zm644.563-374.43h4.053v3.804c0 .349.278.627.635.627a.63.63 0 00.634-.627v-3.804h4.014a.64.64 0 00.634-.637.64.64 0 00-.634-.638h-4.014v-4.312a.631.631 0 00-.634-.627.626.626 0 00-.635.627v4.312h-4.053a.641.641 0 00-.635.638.628.628 0 00.635.637zm-93.414 0h4.053v3.804c0 .349.288.627.635.627a.625.625 0 00.634-.627v-3.804h4.014a.64.64 0 00.634-.637.64.64 0 00-.634-.638h-4.014v-4.312a.632.632 0 00-.634-.627.632.632 0 00-.635.627v4.312h-4.053a.641.641 0 00-.635.638.628.628 0 00.635.637zm-186.829 0h4.054v3.804c0 .349.288.627.634.627a.625.625 0 00.635-.627v-3.804h4.014a.64.64 0 00.634-.637.64.64 0 00-.634-.638h-4.014v-4.312a.62.62 0 00-.635-.627.632.632 0 00-.634.627v4.312h-4.054a.64.64 0 00-.634.638.628.628 0 00.634.637zm93.414 0h4.054v3.804c0 .349.288.627.635.627a.625.625 0 00.634-.627v-3.804h4.014a.64.64 0 00.634-.637.64.64 0 00-.634-.638h-4.014v-4.312a.632.632 0 00-.634-.627.632.632 0 00-.635.627v4.312h-4.054a.64.64 0 00-.634.638.628.628 0 00.634.637zm-186.828 0h4.054v3.804c0 .349.277.627.654.637a.63.63 0 00.615-.637v-3.804h4.014a.64.64 0 00.634-.637.64.64 0 00-.634-.638h-4.014v-4.312c0-.349-.278-.627-.664-.637a.636.636 0 00-.615.637v4.312h-4.054a.64.64 0 00-.634.638c.01.348.297.637.644.637zm-93.414 0h4.054v3.804c0 .349.277.627.634.627a.632.632 0 00.635-.627v-3.804h4.014a.64.64 0 00.634-.637.64.64 0 00-.634-.638h-4.014v-4.312a.632.632 0 00-.635-.627.631.631 0 00-.634.627v4.312h-4.054a.64.64 0 00-.634.638c0 .348.277.637.634.637zm-93.414 0h4.054v3.804a.63.63 0 00.634.627.63.63 0 00.634-.627v-3.804h4.015a.64.64 0 00.634-.637.64.64 0 00-.634-.638h-4.015v-4.312a.634.634 0 00-1.02-.498.615.615 0 00-.248.498v4.312h-4.054a.64.64 0 00-.634.638c0 .348.277.637.634.637zm-93.414-.001h4.054v3.804c0 .349.287.628.634.628a.632.632 0 00.634-.628v-3.804h4.014a.64.64 0 00.635-.637.64.64 0 00-.635-.638H6.732v-4.312a.626.626 0 00-.257-.498.654.654 0 00-.763.01.615.615 0 00-.248.498v4.312H1.41a.64.64 0 00-.634.638c0 .338.277.627.634.627z" fill="#828282"/><path d="M756.087 234.861a.686.686 0 00-.248-.05h-4.014v-4.312a.631.631 0 00-.634-.627.632.632 0 00-.635.627v4.312h-4.053c-.347 0-.635.289-.625.737.05.309.317.538.625.538h4.053v4.073c0 .349.288.627.635.627a.63.63 0 00.634-.627v-4.073h4.014c.089 0 .178-.02.258-.05h.525l-.01-1.175h-.525zm-.248 187.937h-4.014v-4.312a.63.63 0 00-.634-.627.632.632 0 00-.635.627v4.312h-4.053a.64.64 0 00-.635.637c0 .349.288.638.635.638h4.053v3.804c0 .348.288.627.635.627a.631.631 0 00.634-.627v-3.804h4.014a.64.64 0 00.634-.638.627.627 0 00-.634-.637zm0-93.859h-4.014v-4.581a.631.631 0 00-.634-.627.632.632 0 00-.635.627v4.581h-4.053a.64.64 0 00-.635.637c0 .349.288.638.635.638h4.053v3.804c0 .348.288.627.635.627a.626.626 0 00.634-.627v-3.804h4.014a.64.64 0 00.634-.638.634.634 0 00-.634-.637zm0 187.718h-4.014v-4.312a.632.632 0 00-.634-.628.633.633 0 00-.635.628v4.312h-4.053a.64.64 0 00-.635.637.64.64 0 00.635.637h4.053v3.805c0 .348.288.627.635.627a.631.631 0 00.634-.627v-3.805h4.014a.64.64 0 00.634-.637.627.627 0 00-.634-.637zm-9.336-374.43h4.053v3.804c0 .349.278.627.635.627a.63.63 0 00.634-.627v-3.804h4.014a.64.64 0 00.634-.637.64.64 0 00-.634-.638h-4.014v-4.312a.631.631 0 00-.634-.627.626.626 0 00-.635.627v4.312h-4.053a.641.641 0 00-.635.638c0 .348.278.637.635.637zm383.107 92.654a.604.604 0 00-.24-.05h-4.02v-4.093l4.1-1.026h-4.84l-.48.1v.06l-2.87 1.006h2.82v3.953h-4.05c-.35 0-.63.289-.63.627 0 .17.06.339.17.459.12.119.28.189.46.189h4.05v4.073c0 .348.28.627.66.637a.63.63 0 00.61-.637v-4.073h4.02c.09 0 .18-.02.25-.05h.52l-.01-1.175h-.52zm182.57-.05v-4.312a.626.626 0 00-.63-.627c-.35 0-.64.279-.64.627v4.312h-4.05c-.35 0-.64.289-.64.727.04.319.32.558.64.558h4.05v4.073c0 .348.29.627.64.627.35 0 .63-.279.63-.627v-4.073h4.01c.09 0 .18-.02.27-.06l.77-.348-.12-.12 1.48-.747h-6.41v-.01zm-93.41 0v-4.312a.628.628 0 00-.64-.627c-.34 0-.63.279-.63.627v4.312h-4.06c-.34 0-.63.289-.62.737a.64.64 0 00.62.538h4.06v4.073c0 .348.29.627.63.627.36 0 .64-.279.64-.627v-4.073h4.01c.09 0 .18-.02.27-.06l.77-.348-.12-.12 1.49-.747h-6.42zm-89.4 187.987h-4.02v-4.312a.626.626 0 00-.63-.627c-.35 0-.64.279-.64.627v4.312h-4.05c-.35 0-.63.289-.63.637 0 .349.28.638.63.638h4.05v3.804c0 .348.27.627.67.637.34-.01.61-.299.61-.637v-3.804h4.02c.34 0 .63-.289.63-.638a.65.65 0 00-.64-.637zm93.41 0h-4.01v-4.312a.634.634 0 00-.64-.627c-.34 0-.63.278-.63.627v4.312h-4.06c-.34 0-.63.289-.63.637 0 .349.29.638.63.638h4.06v3.804a.635.635 0 001.27 0v-3.804h4.01a.637.637 0 100-1.275zm93.41 0h-4.01v-4.312a.632.632 0 00-.63-.627c-.35 0-.64.278-.64.627v4.312h-4.05c-.35 0-.64.289-.64.637 0 .349.29.638.64.638h4.05v3.804a.635.635 0 001.27 0v-3.804h4.01a.637.637 0 100-1.275zm-93.41-93.859h-4.01v-4.581a.622.622 0 00-.64-.628c-.34 0-.63.279-.63.628v4.581h-4.06c-.34 0-.63.289-.63.637 0 .349.29.638.63.638h4.06v3.804c0 .348.29.627.63.627.36 0 .64-.279.64-.627v-3.804h4.01a.637.637 0 100-1.275zm-93.41 0h-4.02v-4.581a.635.635 0 00-1.27 0v4.581h-4.05c-.35 0-.63.289-.63.637 0 .349.28.638.63.638h4.05v3.804c0 .348.28.627.64.637.34 0 .63-.289.63-.637v-3.804h4.02c.34 0 .63-.289.63-.638a.635.635 0 00-.63-.637zm186.82 0h-4.01v-4.581a.635.635 0 00-1.27 0v4.581h-4.05c-.35 0-.64.289-.64.637 0 .349.29.638.64.638h4.05v3.804c0 .348.29.627.64.627.35 0 .63-.279.63-.627v-3.804h4.01a.637.637 0 100-1.275zm-93.41 187.718h-4.01v-4.312a.628.628 0 00-.64-.627c-.34 0-.63.278-.63.627v4.312h-4.06c-.34 0-.63.289-.63.637 0 .349.29.638.63.638h4.06v3.804a.635.635 0 001.27 0v-3.804h4.01a.63.63 0 00.64-.638.637.637 0 00-.64-.637zm93.41 0h-4.01v-4.312a.625.625 0 00-.63-.627c-.35 0-.64.278-.64.627v4.312h-4.05c-.35 0-.64.289-.64.637 0 .359.28.638.64.638h4.05v3.804a.635.635 0 001.27 0v-3.804h4.01a.63.63 0 00.64-.638.637.637 0 00-.64-.637zm-186.82 0h-4.02v-4.312c0-.349-.27-.628-.66-.638a.633.633 0 00-.62.638v4.312h-4.05c-.35 0-.63.289-.63.637 0 .349.28.637.63.637h4.05v3.805c0 .348.29.627.64.627.35 0 .63-.279.63-.627v-3.805h4.02a.64.64 0 00.63-.637.62.62 0 00-.62-.637zM942.538 234.831h-4.014v-4.312a.631.631 0 00-.634-.627.631.631 0 00-.634.627v4.312h-4.054a.628.628 0 00-.634.638.65.65 0 00.178.458.638.638 0 00.456.189h4.054v4.073c0 .348.287.627.634.627a.631.631 0 00.634-.627v-4.073h4.014c.218 0 .417-.11.536-.289l.089-.249.039-.03-.069-.289a.61.61 0 00-.595-.428zm-93.414 0h-4.014v-4.312a.631.631 0 00-.634-.627.631.631 0 00-.634.627v4.312h-4.054a.628.628 0 00-.634.638.65.65 0 00.178.458.636.636 0 00.456.189h4.054v4.073c0 .348.287.627.634.627a.631.631 0 00.634-.627v-4.073h4.014c.218 0 .417-.11.536-.289l.138-.448-.069-.1a.616.616 0 00-.605-.448zm186.826 0h-4.01v-4.312a.635.635 0 00-.64-.627c-.35 0-.63.279-.63.627v4.312h-4.05a.641.641 0 00-.46 1.086c.12.119.29.189.46.189h4.05v4.073c0 .348.28.627.63.627s.64-.279.64-.627v-4.073h4.01c.22 0 .42-.11.54-.289l.12-.378-.05-.18a.637.637 0 00-.61-.428zm-93.412 187.987h-4.014v-4.312a.63.63 0 00-.634-.627.63.63 0 00-.634.627v4.312h-4.054a.64.64 0 00-.634.637.64.64 0 00.634.638h4.054v3.804c0 .348.287.627.634.627a.631.631 0 00.634-.627v-3.804h4.014a.641.641 0 00.635-.638.628.628 0 00-.635-.637zm-93.414 0h-4.014v-4.312a.63.63 0 00-.634-.627.632.632 0 00-.635.627v4.312h-4.053a.64.64 0 00-.634.637.64.64 0 00.634.638h4.053v3.804c0 .348.288.627.635.627a.631.631 0 00.634-.627v-3.804h4.014a.641.641 0 00.635-.638.629.629 0 00-.635-.637zm186.826 0h-4.01v-4.312a.634.634 0 00-.64-.627c-.34 0-.63.278-.63.627v4.312h-4.05c-.35 0-.64.289-.64.637 0 .349.29.638.64.638h4.05v3.804a.635.635 0 001.27 0v-3.804h4.01c.35 0 .64-.289.64-.638a.63.63 0 00-.64-.637zm0-93.859h-4.01v-4.581a.635.635 0 00-1.27 0v4.581h-4.05c-.35 0-.64.289-.64.637 0 .349.29.638.64.638h4.05v3.804c0 .348.28.627.63.627s.64-.279.64-.627v-3.804h4.01a.637.637 0 100-1.275zm-186.826 0h-4.014v-4.581a.632.632 0 00-.634-.628.632.632 0 00-.634.628v4.581h-4.054a.64.64 0 00-.634.637.64.64 0 00.634.638h4.054v3.804c0 .348.287.627.634.627a.631.631 0 00.634-.627v-3.804h4.014a.641.641 0 00.635-.638.634.634 0 00-.635-.637zm93.414 0h-4.014v-4.581a.632.632 0 00-.634-.628.632.632 0 00-.634.628v4.581h-4.054a.64.64 0 00-.634.637.64.64 0 00.634.638h4.054v3.804c0 .348.287.627.634.627a.631.631 0 00.634-.627v-3.804h4.014a.641.641 0 00.635-.638.634.634 0 00-.635-.637zm93.412 187.718h-4.01v-4.312a.634.634 0 00-.64-.627c-.35 0-.63.278-.63.627v4.312h-4.05c-.35 0-.64.289-.64.637 0 .349.29.638.64.638h4.05v3.804a.635.635 0 001.27 0v-3.804h4.01c.35 0 .64-.289.64-.638a.63.63 0 00-.64-.637zm-93.412 0h-4.014v-4.312a.63.63 0 00-.634-.627.63.63 0 00-.634.627v4.312h-4.054a.64.64 0 00-.634.637.64.64 0 00.634.638h4.054v3.804c0 .348.287.627.634.627a.631.631 0 00.634-.627v-3.804h4.014a.641.641 0 00.635-.638.628.628 0 00-.635-.637zm-93.414 0h-4.014v-4.312a.63.63 0 00-.634-.627.632.632 0 00-.635.627v4.312h-4.053a.64.64 0 00-.634.637.64.64 0 00.634.638h4.053v3.804c0 .348.288.627.635.627a.631.631 0 00.634-.627v-3.804h4.014a.641.641 0 00.635-.638.629.629 0 00-.635-.637zm364.316-374.43h4.06v3.804c0 .348.29.627.63.627.36 0 .64-.279.64-.627v-3.804h4.01c.35 0 .64-.289.64-.638a.643.643 0 00-.64-.637h-4.01v-4.312a.622.622 0 00-.64-.628c-.34 0-.63.279-.63.628v4.312h-4.06c-.34 0-.63.289-.63.637-.01.349.28.638.63.638zm93.42 0h4.05v3.804c0 .348.29.627.64.627.35 0 .63-.279.63-.627v-3.804h4.01c.35 0 .64-.289.64-.638a.643.643 0 00-.64-.637h-4.01v-4.312a.635.635 0 00-1.27 0v4.312h-4.05c-.35 0-.64.289-.64.637a.63.63 0 00.64.638zm-186.83 0h4.05v3.804c0 .348.28.627.66.637a.63.63 0 00.61-.637v-3.804h4.02c.34 0 .63-.289.63-.638a.641.641 0 00-.63-.637h-4.02v-4.312c0-.349-.27-.628-.65-.638a.64.64 0 00-.62.638v4.312h-4.05c-.35 0-.63.289-.63.637 0 .349.28.638.63.638zm-93.41 0h4.05v3.804c0 .348.28.627.63.627s.64-.279.64-.627v-3.804h4.01c.35 0 .64-.289.64-.638a.643.643 0 00-.64-.637h-4.01v-4.312a.635.635 0 00-1.27 0v4.312h-4.05a.637.637 0 100 1.275zm-93.418 0h4.054v3.804c0 .348.287.627.634.627a.631.631 0 00.634-.627v-3.804h4.014a.641.641 0 00.635-.638.64.64 0 00-.635-.637h-4.014v-4.312a.634.634 0 00-1.021-.498.615.615 0 00-.247.498v4.312h-4.054a.64.64 0 00-.634.637c0 .349.277.638.634.638zm-93.414-.001h4.054v3.805c0 .348.287.627.634.627a.631.631 0 00.634-.627v-3.805h4.014a.64.64 0 00.635-.637.64.64 0 00-.635-.637h-4.014v-4.312c0-.2-.099-.379-.257-.498a.652.652 0 00-.764.01.613.613 0 00-.247.498v4.302h-4.054a.64.64 0 00-.634.637.64.64 0 00.634.637z" fill="#828282"/><path opacity=".3" d="M101.741 750.428V304.561c-51.134 0-51.134-78.568-101.741-78.568v524.435h101.741z" fill="url(#paint0_linear)"/><path opacity=".41" d="M406.438 752.428V185.699c-50.607 0-50.607 315.854-101.741 315.854v250.875h101.741z" fill="url(#paint1_linear)"/><path opacity=".3" d="M710.607 750.428V112.623c-50.607 0-50.607 68.022-101.741 68.022v569.783h101.741z" fill="url(#paint2_linear)"/><path opacity=".3" d="M507.652 543.428V260.267c-50.607 0-50.607-78.04-101.741-78.04v567.729h101.741V543.428z" fill="url(#paint3_linear)"/><path opacity=".41" d="M609.393 751.428V180.645c-50.607 0-50.607 79.622-101.741 79.622v491.161h101.741z" fill="url(#paint4_linear)"/><path opacity=".41" d="M202.955 695.428V164.825c-50.607 0-50.607 139.735-101.741 139.735v390.868h101.741z" fill="url(#paint5_linear)"/><path opacity=".3" d="M313.658 548.428v-46.93c-55.351 0-55.351-338.528-110.703-338.528V750.9h110.703V548.428z" fill="url(#paint6_linear)"/><path opacity=".41" d="M1218.79 751.428V258.685c-50.61 0-50.61 45.876-101.75 45.876v446.867h101.75z" fill="url(#paint7_linear)"/><path opacity=".41" d="M812.349 751.428V37.218c-50.608 0-50.608 75.405-101.742 75.932v638.805h101.742v-.527z" fill="url(#paint8_linear)"/><path opacity=".3" d="M1117.05 751.428V304.561c-50.61 0-50.61-137.099-101.75-137.099v583.966h101.75z" fill="url(#paint9_linear)"/><path opacity=".3" d="M1320 753.428V304.561c-50.61 0-50.61-45.876-101.74-45.876v494.743H1320z" fill="url(#paint10_linear)"/><path opacity=".3" d="M914.09 750.428V340.945c-50.607 0-50.607-303.726-101.741-303.726v713.209H914.09z" fill="url(#paint11_linear)"/><path opacity=".41" d="M1015.3 752.428V167.462c-50.603 0-50.603 173.482-101.737 173.482v411.484H1015.3z" fill="url(#paint12_linear)"/><g opacity=".4"><path d="M1320 309.033c0-2.109-1.58-3.691-3.69-3.691-21.61-1.055-32.68-11.073-44.28-21.619-13.18-11.601-26.36-23.729-53.24-23.729-26.89 0-40.6 12.128-53.25 23.729-12.65 11.073-24.25 21.619-47.97 21.619-22.67 0-35.32-33.747-46.91-65.913-13.18-34.802-26.36-71.186-54.3-71.186-28.469 0-41.12 43.239-54.299 89.642-12.125 41.129-24.777 83.841-46.917 83.841-22.141 0-35.847-82.259-46.917-148.699C852.939 109.713 840.815 38 812.348 38c-27.412 0-41.118 20.038-53.77 39.548-12.652 18.455-24.249 35.856-47.444 35.856-27.412 0-40.591 17.928-53.77 35.329-12.652 16.874-24.249 32.166-47.444 32.166-27.412 0-41.118 21.092-54.297 41.657-12.652 19.51-24.249 37.965-47.444 37.965-23.195 0-34.792-17.928-47.444-37.438-13.179-20.038-26.358-41.13-54.297-41.13-28.467 0-40.591 74.877-54.825 161.355-11.07 69.076-24.776 154.499-46.917 154.499-22.14 0-35.846-90.169-46.916-162.936-13.706-90.169-25.831-169.264-54.825-169.264-27.939 0-41.645 36.911-54.297 72.24-12.124 33.22-24.249 66.968-46.917 66.968-23.195 0-34.792-17.929-47.444-37.439C41.118 247.339 27.94 226.247 0 226.247v7.909c23.195 0 34.792 17.928 47.444 37.439 13.179 20.037 26.358 41.129 54.297 41.129 27.94 0 41.646-36.911 54.297-72.24 12.125-33.22 24.25-66.968 46.917-66.968 22.141 0 35.847 90.169 46.917 162.937 13.706 91.223 25.831 169.791 54.824 169.791 28.467 0 40.592-74.877 54.825-161.355 11.07-69.076 24.776-154.499 46.917-154.499 23.195 0 34.792 17.928 47.444 37.439 13.179 20.037 26.358 41.129 54.297 41.129 27.412 0 41.118-21.092 54.297-41.657 12.652-19.51 24.249-37.965 47.444-37.965 27.412 0 41.118-17.929 53.77-35.33 12.652-16.873 24.249-32.165 47.444-32.165 27.412 0 41.118-20.038 53.77-39.548 12.652-18.455 24.249-35.856 47.444-35.856 22.141 0 35.847 82.259 46.917 148.699 13.706 83.314 25.831 155.027 54.824 155.027 28.467 0 41.119-43.767 54.298-89.642 12.124-41.129 24.776-83.841 46.913-83.841 22.67 0 35.32 33.748 46.92 65.913 13.18 34.802 26.36 71.186 54.3 71.186 26.88 0 40.59-12.128 53.24-23.729 12.65-11.073 24.25-21.619 47.97-21.619s35.85 10.546 47.97 21.619c12.13 11.073 25.31 22.674 49.56 23.729 3.16-.528 4.74-2.11 4.74-4.746z" fill="#FFC313"/><path d="M1320 309.033c0-2.109-1.58-3.691-3.69-3.691-21.61-1.055-32.68-11.073-44.28-21.619-13.18-11.601-26.36-23.729-53.24-23.729-26.89 0-40.6 12.128-53.25 23.729-12.65 11.073-24.25 21.619-47.97 21.619-22.67 0-35.32-33.747-46.91-65.913-13.18-34.802-26.36-71.186-54.3-71.186-28.469 0-41.12 43.239-54.299 89.642-12.125 41.129-24.777 83.841-46.917 83.841-22.141 0-35.847-82.259-46.917-148.699C852.939 109.713 840.815 38 812.348 38c-27.412 0-41.118 20.038-53.77 39.548-12.652 18.455-24.249 35.856-47.444 35.856-27.412 0-40.591 17.928-53.77 35.329-12.652 16.874-24.249 32.166-47.444 32.166-27.412 0-41.118 21.092-54.297 41.657-12.652 19.51-24.249 37.965-47.444 37.965-23.195 0-34.792-17.928-47.444-37.438-13.179-20.038-26.358-41.13-54.297-41.13-28.467 0-40.591 74.877-54.825 161.355-11.07 69.076-24.776 154.499-46.917 154.499-22.14 0-35.846-90.169-46.916-162.936-13.706-90.169-25.831-169.264-54.825-169.264-27.939 0-41.645 36.911-54.297 72.24-12.124 33.22-24.249 66.968-46.917 66.968-23.195 0-34.792-17.929-47.444-37.439C41.118 247.339 27.94 226.247 0 226.247v7.909c23.195 0 34.792 17.928 47.444 37.439 13.179 20.037 26.358 41.129 54.297 41.129 27.94 0 41.646-36.911 54.297-72.24 12.125-33.22 24.25-66.968 46.917-66.968 22.141 0 35.847 90.169 46.917 162.937 13.706 91.223 25.831 169.791 54.824 169.791 28.467 0 40.592-74.877 54.825-161.355 11.07-69.076 24.776-154.499 46.917-154.499 23.195 0 34.792 17.928 47.444 37.439 13.179 20.037 26.358 41.129 54.297 41.129 27.412 0 41.118-21.092 54.297-41.657 12.652-19.51 24.249-37.965 47.444-37.965 27.412 0 41.118-17.929 53.77-35.33 12.652-16.873 24.249-32.165 47.444-32.165 27.412 0 41.118-20.038 53.77-39.548 12.652-18.455 24.249-35.856 47.444-35.856 22.141 0 35.847 82.259 46.917 148.699 13.706 83.314 25.831 155.027 54.824 155.027 28.467 0 41.119-43.767 54.298-89.642 12.124-41.129 24.776-83.841 46.913-83.841 22.67 0 35.32 33.748 46.92 65.913 13.18 34.802 26.36 71.186 54.3 71.186 26.88 0 40.59-12.128 53.24-23.729 12.65-11.073 24.25-21.619 47.97-21.619s35.85 10.546 47.97 21.619c12.13 11.073 25.31 22.674 49.56 23.729 3.16-.528 4.74-2.11 4.74-4.746z" fill="url(#paint13_linear)" fill-opacity=".4"/></g></g><defs><linearGradient id="paint0_linear" x1="50.775" y1="680.114" x2="50.775" y2="105.408" gradientUnits="userSpaceOnUse"><stop stop-color="#FDFEFF" stop-opacity="0"/><stop offset="1" stop-color="#FDFEFF"/></linearGradient><linearGradient id="paint1_linear" x1="355.423" y1="599.224" x2="355.423" y2="270.407" gradientUnits="userSpaceOnUse"><stop stop-color="#FDFEFF" stop-opacity="0"/><stop offset="1" stop-color="#FDFEFF"/></linearGradient><linearGradient id="paint2_linear" x1="660.071" y1="680.114" x2="660.071" y2="105.407" gradientUnits="userSpaceOnUse"><stop stop-color="#FDFEFF" stop-opacity="0"/><stop offset="1" stop-color="#FDFEFF"/></linearGradient><linearGradient id="paint3_linear" x1="456.973" y1="680.113" x2="456.973" y2="105.408" gradientUnits="userSpaceOnUse"><stop stop-color="#FDFEFF" stop-opacity="0"/><stop offset="1" stop-color="#FDFEFF"/></linearGradient><linearGradient id="paint4_linear" x1="558.522" y1="599.224" x2="558.522" y2="270.408" gradientUnits="userSpaceOnUse"><stop stop-color="#FDFEFF" stop-opacity="0"/><stop offset="1" stop-color="#FDFEFF"/></linearGradient><linearGradient id="paint5_linear" x1="152.324" y1="599.224" x2="152.324" y2="270.408" gradientUnits="userSpaceOnUse"><stop stop-color="#FDFEFF" stop-opacity="0"/><stop offset="1" stop-color="#FDFEFF"/></linearGradient><linearGradient id="paint6_linear" x1="258.501" y1="687.47" x2="258.501" y2="102.859" gradientUnits="userSpaceOnUse"><stop stop-color="#FDFEFF" stop-opacity="0"/><stop offset="1" stop-color="#FDFEFF"/></linearGradient><linearGradient id="paint7_linear" x1="1167.82" y1="599.224" x2="1167.82" y2="270.408" gradientUnits="userSpaceOnUse"><stop stop-color="#FDFEFF" stop-opacity="0"/><stop offset="1" stop-color="#FDFEFF"/></linearGradient><linearGradient id="paint8_linear" x1="761.621" y1="599.224" x2="761.621" y2="270.408" gradientUnits="userSpaceOnUse"><stop stop-color="#FDFEFF" stop-opacity="0"/><stop offset="1" stop-color="#FDFEFF"/></linearGradient><linearGradient id="paint9_linear" x1="1066.27" y1="680.114" x2="1066.27" y2="105.41" gradientUnits="userSpaceOnUse"><stop stop-color="#FDFEFF" stop-opacity="0"/><stop offset="1" stop-color="#FDFEFF"/></linearGradient><linearGradient id="paint10_linear" x1="1269.37" y1="680.113" x2="1269.37" y2="105.408" gradientUnits="userSpaceOnUse"><stop stop-color="#FDFEFF" stop-opacity="0"/><stop offset="1" stop-color="#FDFEFF"/></linearGradient><linearGradient id="paint11_linear" x1="863.17" y1="680.114" x2="863.17" y2="105.406" gradientUnits="userSpaceOnUse"><stop stop-color="#FDFEFF" stop-opacity="0"/><stop offset="1" stop-color="#FDFEFF"/></linearGradient><linearGradient id="paint12_linear" x1="964.72" y1="599.224" x2="964.72" y2="270.408" gradientUnits="userSpaceOnUse"><stop stop-color="#FDFEFF" stop-opacity="0"/><stop offset="1" stop-color="#FDFEFF"/></linearGradient><linearGradient id="paint13_linear" x1="0" y1="38" x2="925.67" y2="920.067" gradientUnits="userSpaceOnUse"><stop stop-color="#fff"/><stop offset="1" stop-color="#fff" stop-opacity="0"/></linearGradient><clipPath id="clip0"><path fill="#fff" d="M0 0h1320v615H0z"/></clipPath></defs></svg>