<svg viewBox="0 0 1245 530" fill="none" xmlns="http://www.w3.org/2000/svg"><g opacity=".5" fill="#828282"><path d="M988.26 195.499a.608.608 0 00-.217-.043h-3.512v-3.581l3.581-.897h-4.231l-.416.087v.052l-2.514.88h2.471v3.459h-3.547a.558.558 0 000 1.115h3.547v3.563c0 .304.242.548.572.557a.551.551 0 00.537-.557v-3.563h3.512a.648.648 0 00.225-.044h.451l-.008-1.028h-.451zm159.7-.043v-3.772a.55.55 0 00-1.1 0v3.772h-3.55c-.3 0-.56.252-.56.636.04.279.28.488.56.488h3.55v3.563a.55.55 0 001.1 0v-3.563h3.52c.07 0 .15-.018.23-.053l.67-.305-.11-.104 1.3-.653h-5.61v-.009zm-81.71 0v-3.772a.547.547 0 00-.56-.549.55.55 0 00-.55.549v3.772h-3.55c-.3 0-.55.252-.54.644.04.271.27.471.54.471h3.55v3.563c0 .305.25.549.55.549.32 0 .56-.244.56-.549v-3.563h3.51a.53.53 0 00.23-.052l.68-.305-.1-.105 1.3-.653h-5.62zm-78.207 164.447h-3.512v-3.772a.547.547 0 00-.554-.549.552.552 0 00-.555.549v3.772h-3.547a.56.56 0 00-.555.557.56.56 0 00.555.558h3.547v3.327c0 .305.234.549.581.558a.557.557 0 00.537-.558v-3.327h3.512a.56.56 0 00.555-.558.568.568 0 00-.564-.557zm81.717 0h-3.51v-3.772a.553.553 0 00-.56-.549.55.55 0 00-.55.549v3.772h-3.55a.558.558 0 000 1.115h3.55v3.327c0 .305.25.549.55.549.31 0 .56-.244.56-.549v-3.327h3.51a.559.559 0 000-1.115zm81.72 0h-3.52v-3.772a.55.55 0 00-1.1 0v3.772h-3.55c-.3 0-.56.252-.56.557 0 .305.26.558.56.558h3.55v3.327a.55.55 0 001.1 0v-3.327h3.52a.559.559 0 000-1.115zm-81.72-82.106h-3.51v-4.008a.542.542 0 00-.56-.549.55.55 0 00-.55.549v4.008h-3.55a.558.558 0 000 1.115h3.55v3.328c0 .305.25.549.55.549.32 0 .56-.244.56-.549v-3.328h3.51a.559.559 0 000-1.115zm-81.717 0h-3.512v-4.008a.552.552 0 00-.555-.549.552.552 0 00-.554.549v4.008h-3.547a.56.56 0 00-.555.557.56.56 0 00.555.558h3.547v3.328c0 .305.242.549.554.557a.56.56 0 00.555-.557v-3.328h3.512a.56.56 0 00.555-.558.554.554 0 00-.555-.557zm163.437 0h-3.52v-4.008a.55.55 0 00-1.1 0v4.008h-3.55c-.3 0-.56.252-.56.557 0 .305.26.558.56.558h3.55v3.328a.55.55 0 001.1 0v-3.328h3.52a.559.559 0 000-1.115zm-81.72 164.211h-3.51v-3.772a.546.546 0 00-.56-.548.55.55 0 00-.55.548v3.772h-3.55a.559.559 0 000 1.115h3.55v3.328c0 .305.25.549.55.549.31 0 .56-.244.56-.549v-3.328h3.51c.31 0 .55-.244.55-.557a.552.552 0 00-.55-.558zm81.72 0h-3.52v-3.772a.544.544 0 00-.55-.548.55.55 0 00-.55.548v3.772h-3.55c-.3 0-.56.253-.56.558 0 .313.25.557.56.557h3.55v3.328a.55.55 0 001.1 0v-3.328h3.52c.31 0 .55-.244.55-.557a.552.552 0 00-.55-.558zm-163.437 0h-3.512v-3.772c0-.305-.234-.549-.58-.558a.552.552 0 00-.538.558v3.772h-3.546a.56.56 0 00-.555.558.56.56 0 00.555.557h3.546v3.328c0 .305.252.549.555.549a.553.553 0 00.555-.549v-3.328h3.511a.56.56 0 00.555-.557.542.542 0 00-.546-.558zM824.61 195.456h-3.512v-3.772a.552.552 0 00-.555-.549.553.553 0 00-.555.549v3.772h-3.546a.55.55 0 00-.555.557c0 .148.052.297.156.401a.554.554 0 00.399.166h3.546v3.563c0 .304.252.548.555.548a.552.552 0 00.555-.548v-3.563h3.512a.56.56 0 00.468-.253l.078-.218.034-.026-.06-.253a.535.535 0 00-.52-.374zm-81.717 0h-3.512v-3.772a.552.552 0 00-.554-.549.552.552 0 00-.555.549v3.772h-3.546a.549.549 0 00-.555.557c0 .148.052.297.156.401a.553.553 0 00.399.166h3.546v3.563c0 .304.251.548.555.548a.552.552 0 00.554-.548v-3.563h3.512a.56.56 0 00.468-.253l.121-.392-.06-.087a.54.54 0 00-.529-.392zm163.433 0h-3.511v-3.772a.553.553 0 00-.555-.549.547.547 0 00-.555.549v3.772h-3.546a.558.558 0 00-.555.549c0 .148.052.287.156.4a.568.568 0 00.399.166h3.546v3.563c0 .305.243.549.555.549a.553.553 0 00.555-.549v-3.563h3.511a.56.56 0 00.468-.253l.105-.331-.044-.157a.552.552 0 00-.529-.374zM824.61 359.903h-3.512v-3.772a.552.552 0 00-.555-.549.553.553 0 00-.555.549v3.772h-3.546a.56.56 0 00-.555.557.56.56 0 00.555.558h3.546v3.327c0 .305.252.549.555.549a.552.552 0 00.555-.549v-3.327h3.512a.56.56 0 00.554-.558.548.548 0 00-.554-.557zm-81.717 0h-3.512v-3.772a.552.552 0 00-.554-.549.552.552 0 00-.555.549v3.772h-3.546a.56.56 0 00-.555.557.56.56 0 00.555.558h3.546v3.327c0 .305.251.549.555.549a.552.552 0 00.554-.549v-3.327h3.512a.56.56 0 00.555-.558.55.55 0 00-.555-.557zm163.433 0h-3.511v-3.772a.553.553 0 00-.555-.549.552.552 0 00-.555.549v3.772h-3.546a.56.56 0 00-.555.557.56.56 0 00.555.558h3.546v3.327c0 .305.251.549.555.549a.553.553 0 00.555-.549v-3.327h3.511a.56.56 0 00.555-.558.549.549 0 00-.555-.557zm0-82.106h-3.511v-4.008a.553.553 0 00-.555-.549.552.552 0 00-.555.549v4.008h-3.546a.56.56 0 00-.555.557.56.56 0 00.555.558h3.546v3.328c0 .305.243.549.555.549a.553.553 0 00.555-.549v-3.328h3.511a.56.56 0 00.555-.558.554.554 0 00-.555-.557zm-163.433 0h-3.512v-4.008a.552.552 0 00-.554-.549.552.552 0 00-.555.549v4.008h-3.546a.56.56 0 00-.555.557.56.56 0 00.555.558h3.546v3.328c0 .305.251.549.555.549a.552.552 0 00.554-.549v-3.328h3.512a.56.56 0 00.555-.558.554.554 0 00-.555-.557zm81.717 0h-3.512v-4.008a.552.552 0 00-.555-.549.553.553 0 00-.555.549v4.008h-3.546a.56.56 0 00-.555.557.56.56 0 00.555.558h3.546v3.328c0 .305.252.549.555.549a.552.552 0 00.555-.549v-3.328h3.512a.56.56 0 00.554-.558.553.553 0 00-.554-.557zm81.716 164.211h-3.511v-3.772a.552.552 0 00-.555-.548.547.547 0 00-.555.548v3.772h-3.546a.56.56 0 00-.555.558.56.56 0 00.555.557h3.546v3.328c0 .305.251.549.555.549a.553.553 0 00.555-.549v-3.328h3.511a.56.56 0 00.555-.557.55.55 0 00-.555-.558zm-81.716 0h-3.512v-3.772a.552.552 0 00-.555-.548.552.552 0 00-.555.548v3.772h-3.546a.56.56 0 00-.555.558.56.56 0 00.555.557h3.546v3.328c0 .305.252.549.555.549a.552.552 0 00.555-.549v-3.328h3.512a.56.56 0 00.554-.557.549.549 0 00-.554-.558zm-81.717 0h-3.512v-3.772a.551.551 0 00-.554-.548.552.552 0 00-.555.548v3.772h-3.546a.56.56 0 00-.555.558.56.56 0 00.555.557h3.546v3.328c0 .305.251.549.555.549a.552.552 0 00.554-.549v-3.328h3.512a.56.56 0 00.555-.557.55.55 0 00-.555-.558zm318.697-327.543h3.55v3.327c0 .305.25.549.55.549.32 0 .56-.244.56-.549v-3.327h3.51a.559.559 0 000-1.115h-3.51v-3.773a.541.541 0 00-.56-.548.55.55 0 00-.55.548v3.773h-3.55c-.3 0-.55.252-.55.557-.01.305.24.558.55.558zm81.72 0h3.55v3.327a.55.55 0 001.1 0v-3.327h3.52a.559.559 0 000-1.115h-3.52v-3.773a.55.55 0 00-1.1 0v3.773h-3.55c-.3 0-.56.252-.56.557 0 .305.25.558.56.558zm-163.435 0h3.547v3.328c0 .305.242.548.572.557a.55.55 0 00.537-.557v-3.328h3.512a.56.56 0 00.555-.558.56.56 0 00-.555-.557h-3.512v-3.772c0-.305-.242-.549-.572-.558a.557.557 0 00-.537.558v3.772h-3.547a.56.56 0 00-.554.557.56.56 0 00.554.558zm-81.716 0h3.546v3.327c0 .305.243.549.555.549a.553.553 0 00.555-.549v-3.327h3.511a.56.56 0 00.555-.558.56.56 0 00-.555-.557h-3.511v-3.773a.552.552 0 00-.555-.548.552.552 0 00-.555.548v3.773h-3.546a.56.56 0 00-.555.557c0 .305.243.558.555.558zm-81.717 0h3.546v3.327c0 .305.252.549.555.549a.552.552 0 00.555-.549v-3.327h3.512a.56.56 0 00.554-.558.56.56 0 00-.554-.557h-3.512v-3.773a.553.553 0 00-.563-.548.555.555 0 00-.547.548v3.773h-3.546a.56.56 0 00-.555.557c0 .305.243.558.555.558zm-81.716.001h3.546v3.327c0 .305.251.549.555.549a.552.552 0 00.554-.549v-3.327h3.512a.56.56 0 00.555-.558.56.56 0 00-.555-.558h-3.512v-3.772a.543.543 0 00-.225-.435.57.57 0 00-.668.008.54.54 0 00-.216.436v3.763h-3.546a.56.56 0 00-.555.558.56.56 0 00.555.558zm-80.078 328.083c0 .227.182.419.416.419h4.309v-.829h-4.309a.41.41 0 00-.416.41zm0-82.106c0 .227.182.419.416.419h4.309v-.829h-4.309a.41.41 0 00-.416.41zm.416-246.971a.417.417 0 00-.416.419c0 .226.182.418.416.418h4.309v-.828h-4.309v-.009zm-.416 164.865c0 .227.182.419.416.419h4.309v-.829h-4.309a.41.41 0 00-.416.41zm0-82.341v.07a.417.417 0 00.407.349h4.309v-.829h-4.309c-.225-.009-.407.184-.407.41zm-399.783-.514a.609.609 0 00-.217-.044h-3.512v-3.58l3.581-.897h-4.231l-.416.087v.052l-2.514.88h2.471v3.458h-3.546a.558.558 0 00-.555.549.57.57 0 00.156.401.552.552 0 00.399.165h3.546v3.563c0 .305.242.549.572.558a.551.551 0 00.537-.558v-3.563h3.512a.647.647 0 00.225-.043h.451l-.009-1.028h-.45zm241.421-.044v-3.772a.547.547 0 00-.555-.549.553.553 0 00-.555.549v3.772h-3.546c-.303 0-.554.253-.554.636a.56.56 0 00.554.488h3.546v3.563c0 .305.252.549.555.549a.547.547 0 00.555-.549v-3.563h3.512a.639.639 0 00.216-.043l.711-.297-.078-.078 1.734-.697h-6.095v-.009zm-81.716 0v-3.772a.547.547 0 00-.555-.549.552.552 0 00-.555.549v3.772h-3.546c-.304 0-.555.253-.555.636a.561.561 0 00.555.488h3.546v3.563c0 .305.251.549.555.549a.547.547 0 00.555-.549v-3.563h3.511a.567.567 0 00.234-.052l.668-.305-.104-.105 1.3-.653h-5.609v-.009zm167.161.044a.6.6 0 00-.217-.044h-3.511v-3.772a.552.552 0 00-.555-.549.553.553 0 00-.555.549v3.772h-3.546c-.303 0-.555.253-.546.645.043.27.277.47.546.47h3.546v3.563c0 .305.252.549.555.549a.552.552 0 00.555-.549v-3.563h3.511a.649.649 0 00.226-.043h.459l-.008-1.028h-.46zm-248.878-.044v-3.772a.547.547 0 00-.555-.549.553.553 0 00-.555.549v3.772h-3.546c-.303 0-.555.253-.546.645.043.27.277.47.546.47h3.546v3.563c0 .305.252.549.555.549a.547.547 0 00.555-.549v-3.563h3.511a.575.575 0 00.235-.052l.676-.305-.104-.104 1.3-.654h-5.618zm-78.205 164.447h-3.512v-3.772a.547.547 0 00-.554-.549.552.552 0 00-.555.549v3.772h-3.546a.56.56 0 00-.555.558.56.56 0 00.555.557h3.546v3.328c0 .305.234.549.581.557a.556.556 0 00.537-.557V361h3.511a.56.56 0 00.555-.557.567.567 0 00-.563-.558zm81.717 0h-3.512v-3.772a.552.552 0 00-.555-.549.553.553 0 00-.555.549v3.772h-3.546a.56.56 0 00-.555.558.56.56 0 00.555.557h3.546v3.328c0 .305.252.549.555.549a.552.552 0 00.555-.549V361h3.512a.56.56 0 00.554-.557.554.554 0 00-.554-.558zm163.433 0h-3.512v-3.772a.552.552 0 00-.555-.549.553.553 0 00-.555.549v3.772h-3.546a.56.56 0 00-.554.558.56.56 0 00.554.557h3.546v3.328c0 .305.252.549.555.549a.552.552 0 00.555-.549V361h3.512a.56.56 0 00.555-.557.555.555 0 00-.555-.558zm-81.717 0h-3.511v-3.772a.553.553 0 00-.555-.549.552.552 0 00-.555.549v3.772h-3.546a.56.56 0 00-.555.558.56.56 0 00.555.557h3.546v3.328c0 .305.251.549.555.549a.553.553 0 00.555-.549V361h3.511a.56.56 0 00.555-.557.555.555 0 00-.555-.558zm163.433 0h-3.511v-3.772a.552.552 0 00-.555-.549.553.553 0 00-.555.549v3.772h-3.546a.56.56 0 00-.555.558.56.56 0 00.555.557h3.546v3.328c0 .305.252.549.555.549a.552.552 0 00.555-.549V361h3.511a.56.56 0 00.555-.557.554.554 0 00-.555-.558zm0-82.106h-3.511v-4.007a.552.552 0 00-.555-.549.553.553 0 00-.555.549v4.007h-3.546a.56.56 0 00-.555.558.56.56 0 00.555.557h3.546v3.328c0 .305.252.549.555.549a.547.547 0 00.555-.549v-3.328h3.511a.56.56 0 00.555-.557.554.554 0 00-.555-.558zm-245.149 0h-3.512v-4.007a.542.542 0 00-.555-.549.553.553 0 00-.555.549v4.007h-3.546a.56.56 0 00-.555.558.56.56 0 00.555.557h3.546v3.328c0 .305.252.549.555.549a.547.547 0 00.555-.549v-3.328h3.512a.56.56 0 00.554-.557.554.554 0 00-.554-.558zm-81.717 0h-3.512v-4.007a.552.552 0 00-.554-.549.552.552 0 00-.555.549v4.007h-3.546a.56.56 0 00-.555.558.56.56 0 00.555.557h3.546v3.328a.56.56 0 00.555.558.56.56 0 00.554-.558v-3.328h3.512a.56.56 0 00.555-.557.555.555 0 00-.555-.558zm163.433 0h-3.511v-4.007a.553.553 0 00-.555-.549.552.552 0 00-.555.549v4.007h-3.546a.56.56 0 00-.555.558.56.56 0 00.555.557h3.546v3.328c0 .305.251.549.555.549a.547.547 0 00.555-.549v-3.328h3.511a.56.56 0 00.555-.557.555.555 0 00-.555-.558zm81.717 0h-3.512v-4.007a.552.552 0 00-.555-.549.553.553 0 00-.555.549v4.007h-3.546a.56.56 0 00-.554.558.56.56 0 00.554.557h3.546v3.328c0 .305.252.549.555.549a.547.547 0 00.555-.549v-3.328h3.512a.56.56 0 00.555-.557.555.555 0 00-.555-.558zm81.716 164.212h-3.511v-3.772a.552.552 0 00-.555-.549.553.553 0 00-.555.549v3.772h-3.546a.56.56 0 00-.555.557.56.56 0 00.555.558h3.546v3.328c0 .304.252.548.555.548a.552.552 0 00.555-.548v-3.328h3.511a.56.56 0 00.555-.558.554.554 0 00-.555-.557zm-81.716 0h-3.512v-3.772a.547.547 0 00-.555-.549.553.553 0 00-.555.549v3.772h-3.546a.56.56 0 00-.554.557.56.56 0 00.554.558h3.546v3.328c0 .304.252.548.555.548a.552.552 0 00.555-.548v-3.328h3.512a.55.55 0 00.555-.558.554.554 0 00-.555-.557zm-163.433 0h-3.512v-3.772a.547.547 0 00-.555-.549.553.553 0 00-.555.549v3.772h-3.546a.56.56 0 00-.555.557.56.56 0 00.555.558h3.546v3.328c0 .304.252.548.555.548a.552.552 0 00.555-.548v-3.328h3.512a.549.549 0 00.554-.558.553.553 0 00-.554-.557zm81.716 0h-3.511v-3.772a.547.547 0 00-.555-.549.552.552 0 00-.555.549v3.772h-3.546a.56.56 0 00-.555.557.55.55 0 00.555.558h3.546v3.328c0 .304.251.548.555.548a.553.553 0 00.555-.548v-3.328h3.511a.55.55 0 00.555-.558.554.554 0 00-.555-.557zm-163.433 0h-3.512v-3.772c0-.305-.234-.549-.58-.558a.552.552 0 00-.538.558v3.772h-3.546a.56.56 0 00-.555.557.56.56 0 00.555.558h3.546v3.328c0 .305.251.549.555.549a.553.553 0 00.555-.549v-3.328h3.511a.56.56 0 00.555-.558.541.541 0 00-.546-.557zM91.215 195.438h-3.512v-3.772a.553.553 0 00-.555-.549.553.553 0 00-.555.549v3.772h-3.546a.55.55 0 00-.555.558.57.57 0 00.156.401.557.557 0 00.4.165h3.545v3.563c0 .305.252.549.555.549a.553.553 0 00.555-.549v-3.563h3.511a.563.563 0 00.469-.252l.078-.218.034-.026-.06-.253a.533.533 0 00-.52-.375zm-81.717 0H5.986v-3.772a.553.553 0 00-.554-.549.553.553 0 00-.555.549v3.772H1.33a.555.555 0 00-.555.558.57.57 0 00.156.401.557.557 0 00.399.165h3.546v3.563c0 .305.251.549.555.549a.553.553 0 00.554-.549v-3.563h3.512c.19 0 .364-.096.468-.252l.121-.393-.06-.087a.546.546 0 00-.53-.392zm163.433 0h-3.511v-3.772a.553.553 0 00-.555-.549.547.547 0 00-.555.549v3.772h-3.546a.558.558 0 00-.555.549c0 .148.052.288.156.401a.571.571 0 00.399.165h3.546v3.563c0 .314.243.549.555.549a.553.553 0 00.555-.549v-3.563h3.511a.558.558 0 00.468-.252l.104-.331-.043-.157a.552.552 0 00-.529-.375zM91.214 359.885h-3.51v-3.772a.553.553 0 00-.556-.549.553.553 0 00-.555.549v3.772h-3.546a.56.56 0 00-.555.558.56.56 0 00.555.557h3.546v3.328c0 .305.252.549.555.549a.553.553 0 00.555-.549V361h3.511a.56.56 0 00.555-.557.55.55 0 00-.555-.558zm-81.716 0H5.986v-3.772a.553.553 0 00-.554-.549.553.553 0 00-.555.549v3.772H1.33a.56.56 0 00-.555.558.56.56 0 00.555.557h3.546v3.328c0 .305.251.549.555.549a.553.553 0 00.554-.549V361h3.512a.56.56 0 00.555-.557.55.55 0 00-.555-.558zm163.433 0h-3.511v-3.772a.553.553 0 00-.555-.549.552.552 0 00-.555.549v3.772h-3.546a.56.56 0 00-.555.558.56.56 0 00.555.557h3.546v3.328c0 .305.251.549.555.549a.553.553 0 00.555-.549V361h3.511a.56.56 0 00.555-.557.55.55 0 00-.555-.558zm0-82.106h-3.511v-4.007a.553.553 0 00-.555-.549.552.552 0 00-.555.549v4.007h-3.546a.56.56 0 00-.555.558.56.56 0 00.555.557h3.546v3.328c0 .305.243.549.555.549a.553.553 0 00.555-.549v-3.328h3.511a.56.56 0 00.555-.557.55.55 0 00-.555-.558zm-163.433 0H5.986v-4.007a.553.553 0 00-.554-.549.553.553 0 00-.555.549v4.007H1.33a.56.56 0 00-.555.558.56.56 0 00.555.557h3.546v3.328c0 .305.251.549.555.549a.553.553 0 00.554-.549v-3.328h3.512a.56.56 0 00.555-.557.55.55 0 00-.555-.558zm81.716 0h-3.51v-4.007a.553.553 0 00-.556-.549.553.553 0 00-.555.549v4.007h-3.546a.56.56 0 00-.555.558.56.56 0 00.555.557h3.546v3.328c0 .305.252.549.555.549a.553.553 0 00.555-.549v-3.328h3.511a.56.56 0 00.555-.557.55.55 0 00-.555-.558zm81.717 164.212h-3.511v-3.772a.553.553 0 00-.555-.549.547.547 0 00-.555.549v3.772h-3.546a.56.56 0 00-.555.557.56.56 0 00.555.558h3.546v3.328c0 .304.251.548.555.548a.553.553 0 00.555-.548v-3.328h3.511a.56.56 0 00.555-.558.549.549 0 00-.555-.557zm-81.717 0h-3.51v-3.772a.553.553 0 00-.556-.549.553.553 0 00-.555.549v3.772h-3.546a.56.56 0 00-.555.557.56.56 0 00.555.558h3.546v3.328c0 .304.252.548.555.548a.553.553 0 00.555-.548v-3.328h3.511a.56.56 0 00.555-.558.549.549 0 00-.555-.557zm-81.716 0H5.986v-3.772a.553.553 0 00-.554-.549.553.553 0 00-.555.549v3.772H1.33a.56.56 0 00-.555.557.56.56 0 00.555.558h3.546v3.328c0 .304.251.548.555.548a.553.553 0 00.554-.548v-3.328h3.512a.56.56 0 00.555-.558.549.549 0 00-.555-.557zm563.849-327.544h3.546v3.328c0 .305.243.549.555.549a.552.552 0 00.555-.549v-3.328h3.511a.56.56 0 00.555-.557.56.56 0 00-.555-.558h-3.511v-3.772a.552.552 0 00-.555-.549.547.547 0 00-.555.549v3.772h-3.546a.56.56 0 00-.555.558.55.55 0 00.555.557zm-81.717 0h3.547v3.328c0 .305.251.549.554.549a.547.547 0 00.555-.549v-3.328h3.512a.56.56 0 00.555-.557.56.56 0 00-.555-.558h-3.512v-3.772a.552.552 0 00-.555-.549.552.552 0 00-.554.549v3.772h-3.547a.56.56 0 00-.554.558.548.548 0 00.554.557zm-163.433 0h3.546v3.328c0 .305.252.549.555.549a.547.547 0 00.555-.549v-3.328h3.511a.56.56 0 00.555-.557.56.56 0 00-.555-.558h-3.511v-3.772a.543.543 0 00-.555-.549.553.553 0 00-.555.549v3.772h-3.546a.56.56 0 00-.555.558.55.55 0 00.555.557zm81.717 0h3.546v3.328c0 .305.251.549.555.549a.547.547 0 00.555-.549v-3.328h3.511a.56.56 0 00.555-.557.56.56 0 00-.555-.558h-3.511v-3.772a.553.553 0 00-.555-.549.552.552 0 00-.555.549v3.772h-3.546a.56.56 0 00-.555.558.549.549 0 00.555.557zm-163.433 0h3.546v3.328c0 .305.242.549.572.558a.551.551 0 00.537-.558v-3.328h3.512a.56.56 0 00.555-.557.56.56 0 00-.555-.558h-3.512v-3.772c0-.305-.242-.549-.58-.557a.556.556 0 00-.538.557v3.772h-3.546a.56.56 0 00-.555.558c.009.305.26.557.564.557zm-81.717 0h3.546v3.328c0 .305.243.549.555.549a.553.553 0 00.555-.549v-3.328h3.511a.56.56 0 00.555-.557.56.56 0 00-.555-.558h-3.511v-3.772a.553.553 0 00-.555-.549.552.552 0 00-.555.549v3.772h-3.546a.56.56 0 00-.555.558c0 .305.243.557.555.557zm-81.717 0h3.546v3.328c0 .305.252.549.555.549a.553.553 0 00.555-.549v-3.328h3.511a.56.56 0 00.555-.557.56.56 0 00-.555-.558h-3.51v-3.772a.555.555 0 00-.894-.435.536.536 0 00-.217.435v3.772h-3.546a.56.56 0 00-.555.558c0 .305.243.557.555.557zm-81.716 0h3.546v3.328c0 .305.251.549.555.549a.553.553 0 00.554-.549v-3.328h3.512a.56.56 0 00.555-.558.56.56 0 00-.555-.557H5.986v-3.772a.546.546 0 00-.225-.436.572.572 0 00-.668.009.536.536 0 00-.216.435v3.772H1.33a.553.553 0 100 1.107z"/><path d="M661.506 195.482a.609.609 0 00-.217-.044h-3.511v-3.772a.553.553 0 00-.555-.549.552.552 0 00-.555.549v3.772h-3.546c-.304 0-.555.253-.547.645a.56.56 0 00.547.47h3.546v3.563c0 .305.251.549.555.549a.553.553 0 00.555-.549v-3.563h3.511a.647.647 0 00.225-.043h.46l-.009-1.028h-.459zm-.217 164.403h-3.511v-3.772a.553.553 0 00-.555-.549.552.552 0 00-.555.549v3.772h-3.546a.56.56 0 00-.555.558.56.56 0 00.555.557h3.546v3.328c0 .305.251.549.555.549a.553.553 0 00.555-.549V361h3.511a.56.56 0 00.555-.557.55.55 0 00-.555-.558zm0-82.106h-3.511v-4.007a.553.553 0 00-.555-.549.552.552 0 00-.555.549v4.007h-3.546a.56.56 0 00-.555.558.56.56 0 00.555.557h3.546v3.328c0 .305.251.549.555.549a.547.547 0 00.555-.549v-3.328h3.511a.56.56 0 00.555-.557.555.555 0 00-.555-.558zm0 164.212h-3.511v-3.772a.553.553 0 00-.555-.549.552.552 0 00-.555.549v3.772h-3.546a.56.56 0 00-.555.557.56.56 0 00.555.558h3.546v3.328c0 .304.251.548.555.548a.553.553 0 00.555-.548v-3.328h3.511a.56.56 0 00.555-.558.55.55 0 00-.555-.557zm-8.167-327.544h3.546v3.328c0 .305.242.549.555.549a.553.553 0 00.555-.549v-3.328h3.511a.56.56 0 00.555-.557.56.56 0 00-.555-.558h-3.511v-3.772a.553.553 0 00-.555-.549.547.547 0 00-.555.549v3.772h-3.546a.56.56 0 00-.555.558c0 .305.242.557.555.557z"/></g><path fill="url(#paint0_linear)" d="M109 107h1136v340H109z"/><path d="M92.358 663.594l-10.426-40.265 22.729 16.403c20.49-45.916 28.401-97.959 19.761-151.409-1.62-10.022-3.851-19.781-6.374-29.331l117.973 69.402 101.553-115.988c3.273 13.183 6.07 26.442 8.281 40.123 18.514 114.534-4.257 226.112-57.328 319.898l18.294 13.203-27.136 1.774-152.456 10.117-34.87-133.927z" fill="#DDD"/><path d="M117.889 459.017l-37.166-21.904 28.315-4.578c-23.473-59.376-67.11-107.169-121.46-136.416l135.041-35.051-10.173-151.795c104.787 62.556 185.73 163.408 220.73 287.031l21.317-3.446-16.944 19.389-101.553 115.988-118.107-69.218z" fill="#FA0"/><path d="M-12.397 296.277l-39.178 10.088 15.47-21.436c-44.283-18.469-94.187-25.256-145.091-17.028-13.362 2.16-26.252 5.223-38.67 9.189l73.356-124.814-111.398-97.398c13.342-3.3 27.078-6.173 40.918-8.41 112.148-18.129 221.56 3.36 313.98 54.041l13.603-18.849 1.877 27.773 10.173 151.793-135.04 35.051z" fill="#777"/><path d="M199.036 374.257c22.97-10.023 33.466-36.769 23.443-59.739s-36.769-33.466-59.739-23.443-33.466 36.769-23.443 59.739 36.769 33.466 59.739 23.443zm56.525-12.289l-32.483-12.747" stroke="#fff" stroke-width="7" stroke-linecap="round" stroke-linejoin="round"/><defs><linearGradient id="paint0_linear" x1="78.435" y1="434.371" x2="853.646" y2="502.879" gradientUnits="userSpaceOnUse"><stop stop-color="#FA0"/><stop offset=".49" stop-color="#fff" stop-opacity="0"/></linearGradient></defs></svg>