<svg width="146" height="30" xmlns="http://www.w3.org/2000/svg" xmlns:xlink="http://www.w3.org/1999/xlink"><use xlink:href="#path0_fill" transform="translate(0 8)" fill="#FFF"/><use xlink:href="#path1_fill" transform="translate(14.564 8)" fill="#FFF"/><use xlink:href="#path2_fill" transform="translate(28.676 8)" fill="#FFF"/><use xlink:href="#path3_fill" transform="translate(41.417 8)" fill="#FFF"/><use xlink:href="#path4_fill" transform="translate(58.225 8)" fill="#FFF"/><use xlink:href="#path5_fill" transform="translate(72.466 8)" fill="#FFF"/><use xlink:href="#path6_fill" transform="translate(86.318 7.73)" fill="#FFF"/><use xlink:href="#path7_fill" transform="translate(105.133 8)" fill="#FFF"/><g transform="translate(192 -6188)"><use xlink:href="#path8_fill" transform="translate(-61.697 6188)" fill="#00B4FF"/></g><defs><path id="path0_fill" d="M0 0h5.75c5.103 0 8.361 2.986 8.361 8.122 0 5.135-3.258 8.186-8.36 8.186H0V0zm5.6 12.888c2.74 0 4.423-1.64 4.423-4.766 0-3.106-1.748-4.702-4.424-4.702H3.97v9.468H5.6z"/><path id="path1_fill" d="M5.513 0h4.164l5.502 16.308h-4.078l-.992-3.42h-5.05l-.97 3.42H0L5.513 0zM9.18 9.696l-.906-3.17c-.292-1.032-.658-2.802-.658-2.802h-.044s-.366 1.78-.658 2.802l-.927 3.17H9.18z"/><path id="path2_fill" d="M4.92 3.42H0V0h13.798v3.42h-4.92v12.888h-3.97V3.42h.012z"/><path id="path3_fill" d="M5.502 0h4.164l5.503 16.308H11.09l-.992-3.42H5.049l-.971 3.42H0L5.502 0zM9.17 9.696l-.906-3.17c-.291-1.032-.658-2.802-.658-2.802h-.043s-.367 1.78-.658 2.802l-.928 3.17H9.17z"/><path id="path4_fill" d="M0 0h6.732c3.15 0 5.276 2.324 5.276 5.613 0 3.28-2.126 5.657-5.276 5.657H3.97v5.038H0V0zm5.912 7.85c1.381 0 2.06-.934 2.06-2.237 0-1.302-.679-2.193-1.995-2.193H3.959v4.43h1.953z"/><path id="path5_fill" d="M.01 0h5.643c1.65 0 2.45.109 3.15.39 1.834.707 2.989 2.368 2.989 4.746 0 1.737-.82 3.626-2.428 4.451v.044s.227.293.615.977l3.15 5.7H8.707l-2.88-5.494H3.97v5.494H0V0h.01zm5.686 7.394c1.273 0 2.06-.706 2.06-2.009 0-.825-.204-1.433-.948-1.737-.367-.163-.842-.228-1.5-.228H3.97v3.963h1.726v.011z"/><path id="path6_fill" d="M8.469 0c5.027 0 8.469 3.648 8.469 8.328 0 4.788-3.442 8.523-8.47 8.523C3.443 16.851 0 13.116 0 8.328 0 3.648 3.442 0 8.469 0zm0 13.203c2.557 0 4.37-2.095 4.37-4.875 0-2.671-1.813-4.68-4.37-4.68-2.557 0-4.37 2.009-4.37 4.68 0 2.78 1.813 4.875 4.37 4.875z"/><path id="path7_fill" d="M1.349 0h4.304l2.352 6.884c.367 1.053.82 2.693.82 2.693h.043s.453-1.64.82-2.693L12.04 0h4.305l1.316 16.308h-3.97l-.497-7.34c-.086-1.226 0-2.736 0-2.736h-.043s-.54 1.716-.906 2.737l-1.705 4.723H7.142L5.437 8.969a106.473 106.473 0 0 1-.906-2.737h-.043s.086 1.51 0 2.737l-.496 7.34H0L1.349 0z"/><path id="path8_fill" d="M0 4.701L7.466 0l8.231 17.622L4.682 30H0l7.854-12.443L0 4.701z"/></defs></svg>