<svg data-name="Слой 1" xmlns="http://www.w3.org/2000/svg" viewBox="0 0 84.28 71.92"><circle cx="35.96" cy="35.96" r="35.96" fill="#ffe400"/><path d="M30 16.07a4.4 4.4 0 0 1 4.63-4.47 4.39 4.39 0 0 1 4.62 4.47 4.39 4.39 0 0 1-4.62 4.47A4.4 4.4 0 0 1 30 16.07zm7 0a2.36 2.36 0 1 0-4.71 0 2.36 2.36 0 1 0 4.71 0zM47.36 20.39v-8.65h4.33a2.79 2.79 0 0 1 3 2.88 2.79 2.79 0 0 1-3 2.87h-2.1v2.91zm5.07-5.77a.93.93 0 0 0-1-.93h-1.8v1.85h1.8a.93.93 0 0 0 1-.92zM65.41 20.39v-6.7H63v-1.95h7.07v1.95h-2.43v6.71zM78.9 20.39v-8.65h2.23v8.65zM38 40.28v-5.63l-2.19 5.63h-1l-2.18-5.63v5.63h-2.21v-8.65h3.1l1.8 4.69 1.82-4.69h3.1v8.65zM49.31 40.28v-8.65h2.23v8.65zM60.35 40.28V38.5L64 33.57h-3.65v-1.94H67v1.77l-3.7 4.93h3.79v1.95zM81.75 40.28L81.32 39h-3.41l-.43 1.25H75l3.26-8.65H81l3.27 8.65zm-2.14-6.45l-1.1 3.26h2.21zM33.13 60.16v-6.7H30.7v-1.95h7.07v1.95h-2.41v6.71zM46.36 60.16v-8.65h2.23v8.65zM57.23 55.84a4.63 4.63 0 1 1 4.63 4.47 4.4 4.4 0 0 1-4.63-4.47zm7 0a2.36 2.36 0 1 0-2.35 2.5 2.33 2.33 0 0 0 2.32-2.5zM81 60.16l-3.66-5v5h-2.22v-8.65h2.3l3.5 4.76v-4.76h2.24v8.65z"/></svg>