<svg xmlns="http://www.w3.org/2000/svg">
<symbol id="art-director" viewBox="0 0 112 112"><path d="M110.1 0H1.9C.8 0 0 .8 0 1.9v22.4c0 1 .8 1.9 1.9 1.9h108.3c1 0 1.9-.8 1.9-1.9V1.9c-.1-1.1-.9-1.9-2-1.9zM91.9 3.7L56 11.2 20.1 3.7h71.8zm-88.2.5l43.1 8.9L3.7 22V4.2zm16.4 18.2L56 15l35.9 7.4H20.1zm88.2-.4l-43.1-8.9 43.1-8.9V22zM110.1 29.9H1.9c-1 0-1.9.8-1.9 1.9v14.9c0 1 .8 1.9 1.9 1.9h108.3c1 0 1.9-.8 1.9-1.9v-15c-.1-1-.9-1.8-2-1.8zm-1.8 14.9H3.7V33.6h104.5v11.2zM1.9 112h50.4c1 0 1.9-.8 1.9-1.9v-56c0-1-.8-1.9-1.9-1.9H1.9c-1 0-1.9.8-1.9 1.9v56c0 1.1.8 1.9 1.9 1.9zm4.2-3.7l21-23.3 21 23.3h-42zm44.3-3L29.6 82.1 50.4 59v46.3zM48.1 56l-21 23.3L6.1 56h42zM3.7 59l20.8 23.1-20.8 23.2V59zM110.1 52.3H59.7c-1 0-1.9.8-1.9 1.9v24.3c0 1 .8 1.9 1.9 1.9h50.4c1 0 1.9-.8 1.9-1.9V54.1c0-1-.8-1.8-1.9-1.8zM102 56l-17 8.2L68 56h34zm-40.4 1.1l19 9.2-19 9.2V57.1zm6.3 19.4l17-8.2 17 8.2h-34zm40.4-1.1l-19-9.2 19-9.2v18.4zM82.1 112c1 0 1.9-.8 1.9-1.9V85.9c0-1-.8-1.9-1.9-1.9H59.7c-1 0-1.9.8-1.9 1.9v24.3c0 1 .8 1.9 1.9 1.9h22.4zM61.6 87.7h18.7v20.5H61.6V87.7zM110.1 84H89.6c-1 0-1.9.8-1.9 1.9v24.3c0 1 .8 1.9 1.9 1.9h20.5c1 0 1.9-.8 1.9-1.9V85.9c0-1.1-.8-1.9-1.9-1.9zm-1.8 24.3H91.5V87.7h16.8v20.6z"/><path d="M9.3 37.3H13V41H9.3zM16.8 37.3h3.7V41h-3.7zM24.3 37.3H28V41h-3.7zM31.7 37.3h3.7V41h-3.7zM39.2 37.3h3.7V41h-3.7zM46.7 37.3h3.7V41h-3.7zM54.1 37.3h3.7V41h-3.7zM61.6 37.3h3.7V41h-3.7zM69.1 37.3h3.7V41h-3.7zM76.5 37.3h3.7V41h-3.7zM84 37.3h3.7V41H84zM91.5 37.3h3.7V41h-3.7zM98.9 37.3h3.7V41h-3.7z"/></symbol>
<symbol id="back-end" viewBox="0 0 112 112"><path d="M110.1 28H98.9V1.9c0-1-.8-1.9-1.9-1.9H1.9C.8 0 0 .8 0 1.9V84c0 1 .8 1.9 1.9 1.9h16.8v24.3c0 1 .8 1.9 1.9 1.9h82.1c5.1 0 9.3-4.2 9.3-9.3V29.9c0-1.1-.8-1.9-1.9-1.9zM3.7 3.7h91.5v11.2H3.7V3.7zm15 26.2v52.3h-15V18.7h91.5V28H20.5c-1 0-1.8.8-1.8 1.9zm89.6 72.8c0 3.1-2.5 5.6-5.6 5.6H22.4V42.9h85.9v59.8zm0-63.5H22.4v-7.5h85.9v7.5z"/><path d="M7.5 7.5h3.7v3.7H7.5zM14.9 7.5h3.7v3.7h-3.7zM22.4 7.5h3.7v3.7h-3.7zM54.1 104.5h26.1c5.1 0 9.3-4.2 9.3-9.3v-28c0-1-.8-1.9-1.9-1.9H84v-1.9c0-9.3-7.5-16.8-16.8-16.8s-16.8 7.5-16.8 16.8v1.9h-3.7c-1 0-1.9.8-1.9 1.9v28c0 5.1 4.2 9.3 9.3 9.3zm0-41c0-7.2 5.9-13.1 13.1-13.1 7.2 0 13.1 5.9 13.1 13.1v1.9H54.1v-1.9zm-5.6 5.6h37.3v26.1c0 3.1-2.5 5.6-5.6 5.6H54.1c-3.1 0-5.6-2.5-5.6-5.6V69.1z"/><path d="M65.3 89.3v5.9H69v-5.9c3.2-.8 5.6-3.7 5.6-7.2 0-4.1-3.3-7.5-7.5-7.5s-7.5 3.3-7.5 7.5c.1 3.5 2.5 6.4 5.7 7.2zm1.9-10.9c2.1 0 3.7 1.7 3.7 3.7 0 2.1-1.7 3.7-3.7 3.7-2.1 0-3.7-1.7-3.7-3.7s1.6-3.7 3.7-3.7zM26.1 100.8h3.7v3.7h-3.7zM26.1 93.3h3.7V97h-3.7zM26.1 85.9h3.7v3.7h-3.7z"/></symbol>
<symbol id="dash" viewBox="0 0 80 4"><path class="st0" d="M0 0h80v4H0z"/></symbol>
<symbol id="designer" viewBox="0 0 112 112"><path d="M1.9 75.3h7.5v11c0 1 .8 1.8 1.9 1.8h89.6c1 0 1.9-.8 1.9-1.8V12.9c0-1-.8-1.8-1.9-1.8H89.6V1.8c0-1-.8-1.8-1.9-1.8H1.9C.8 0 0 .8 0 1.8v71.6c0 1.1.8 1.9 1.9 1.9zm87.7-1.9V14.7h9.3v69.8H13.1v-9.2h74.7c1 0 1.8-.8 1.8-1.9zM3.7 3.7h82.1v67.9H3.7V3.7z"/><path d="M50.9 20.7L33.6 37.8l-5.2-5.1c-.7-.7-1.9-.7-2.6 0L6.1 51.9l2.6 2.6 18.3-18 18.3 18 2.6-2.6-11.7-11.5 16-15.8 28.5 28.1 2.6-2.6-29.7-29.4c-.7-.7-1.9-.7-2.7 0zM18.7 27.5c5.1 0 9.3-4.1 9.3-9.2s-4.2-9.2-9.3-9.2-9.3 4.1-9.3 9.2 4.1 9.2 9.3 9.2zm0-14.6c3.1 0 5.6 2.5 5.6 5.5s-2.5 5.5-5.6 5.5-5.6-2.5-5.6-5.5 2.5-5.5 5.6-5.5zM72.8 64.3c-1.7 0-2.4-.6-3.5-1.4-1.3-1-2.8-2.2-5.8-2.2s-4.6 1.2-5.8 2.2c-1.1.9-1.8 1.4-3.5 1.4s-2.4-.6-3.5-1.4c-1.3-1-2.8-2.2-5.8-2.2s-4.6 1.2-5.8 2.2c-1.1.9-1.8 1.4-3.5 1.4s-2.4-.6-3.5-1.4c-1.3-1-2.8-2.2-5.8-2.2s-4.6 1.2-5.8 2.2c-1.1.9-1.8 1.4-3.5 1.4s-2.4-.6-3.5-1.4c-1.3-1-2.8-2.2-5.8-2.2v3.7c1.7 0 2.4.6 3.5 1.4 1.3 1 2.8 2.2 5.8 2.2s4.6-1.2 5.8-2.2c1.1-.9 1.8-1.4 3.5-1.4s2.4.6 3.5 1.4c1.3 1 2.8 2.2 5.8 2.2s4.6-1.2 5.8-2.2c1.1-.9 1.8-1.4 3.5-1.4s2.4.6 3.5 1.4c1.3 1 2.8 2.2 5.8 2.2s4.6-1.2 5.8-2.2c1.1-.9 1.8-1.4 3.5-1.4s2.4.6 3.5 1.4c1.3 1 2.8 2.2 5.8 2.2s4.6-1.2 5.8-2.2c1.1-.8 1.8-1.4 3.5-1.4v-3.7c-3 0-4.6 1.2-5.8 2.2-1.1.8-1.8 1.4-3.5 1.4zM16.3 111.5l6.1-6 4.3 4.2c.4.3.8.5 1.3.5.2 0 .3 0 .5-.1.6-.2 1.1-.7 1.3-1.3l3.7-14.7c.2-.6 0-1.3-.5-1.7s-1.1-.6-1.8-.5l-14.9 3.7c-.7.2-1.2.7-1.3 1.3-.2.6 0 1.3.5 1.8l4.3 4.2-6.1 6 2.6 2.6zm12.9-15.3l-2.2 8.6-6.5-6.4 8.7-2.2zM48.5 74.5h3.7v3.7h-3.7zM56 74.5h3.7v3.7H56zM63.5 74.5h3.7v3.7h-3.7zM70.9 74.5h3.7v3.7h-3.7zM78.4 74.5h3.7v3.7h-3.7zM85.9 74.5h3.7v3.7h-3.7zM93.3 74.5H97v3.7h-3.7zM100.8 74.5h3.7v3.7h-3.7zM108.3 74.5h3.7v3.7h-3.7zM108.3 67.1h3.7v3.7h-3.7zM108.3 59.8h3.7v3.7h-3.7zM108.3 52.5h3.7v3.7h-3.7zM108.3 45.1h3.7v3.7h-3.7zM108.3 37.8h3.7v3.7h-3.7zM108.3 30.4h3.7v3.7h-3.7zM108.3 23.1h3.7v3.7h-3.7zM108.3 15.7h3.7v3.7h-3.7z"/></symbol>
<symbol id="front-end" viewBox="0 0 112 112"><path d="M110.1 28H98.9V1.9c0-1-.8-1.9-1.9-1.9H1.9C.8 0 0 .8 0 1.9V84c0 1 .8 1.9 1.9 1.9h16.8v24.3c0 1 .8 1.9 1.9 1.9h82.1c5.1 0 9.3-4.2 9.3-9.3V29.9c0-1.1-.8-1.9-1.9-1.9zM3.7 3.7h91.5v7.5H3.7V3.7zm15 26.2v52.3h-15V14.9h91.5V28H20.5c-1 0-1.8.8-1.8 1.9zm89.6 72.8c0 3.1-2.5 5.6-5.6 5.6H22.4V42.9h85.9v59.8zm0-63.5H22.4v-7.5h85.9v7.5z"/><path d="M41.6 92.8l2.6-2.6-11.7-11.8 11.7-11.7-2.6-2.7-13.1 13.1c-.7.7-.7 1.9 0 2.6l13.1 13.1zM77.9 92.8L91 79.7c.7-.7.7-1.9 0-2.6L77.9 64l-2.6 2.6L87 78.4 75.2 90.1l2.7 2.7zM50.6 92.5l16.8-33.6 3.3 1.7-16.8 33.6zM85.9 89.6h3.7v3.7h-3.7zM93.3 89.6H97v3.7h-3.7zM100.8 89.6h3.7v3.7h-3.7zM28 54.1h3.7v3.7H28zM35.5 54.1h3.7v3.7h-3.7zM42.9 54.1h3.7v3.7h-3.7zM28 46.7h3.7v3.7H28zM35.5 46.7h3.7v3.7h-3.7zM42.9 46.7h3.7v3.7h-3.7z"/></symbol>
<symbol id="manager" viewBox="0 0 112 112"><path d="M102.7 0H9.3C4.2 0 0 4.2 0 9.3V69c0 5.1 4.2 9.3 9.3 9.3h33.2l-3 14.9h-2.2c-3.1 0-5.6 2.5-5.6 5.6 0 3.1 2.5 5.6 5.6 5.6h35.5v3.7h-7.5v3.7h9.3c1 0 1.9-.8 1.9-1.9v-5.6h26.1c.4 0 .8-.1 1.1-.4l4.5-3.4v9.3h3.7V9.3c.1-5.1-4.1-9.3-9.2-9.3zM9.3 74.7c-3.1 0-5.6-2.5-5.6-5.6v-3.7H54.1v9.3H9.3zm63.5 26.1H37.3c-1 0-1.9-.8-1.9-1.9 0-1 .8-1.9 1.9-1.9h35.5v3.8zm0-7.5H43.3l3-14.9h7.8v9.3c0 1 .8 1.9 1.9 1.9h16.8v3.7zm35.5-16.8v19.6l-6.2 4.7H76.5V87.7c0-1-.8-1.9-1.9-1.9H57.9v-7.6c6.3-.9 11.2-6.3 11.2-12.9h-3.7c0 4.5-3.2 8.3-7.5 9.1v-11c0-1-.8-1.9-1.9-1.9h-9.3v-14c0-17 13.8-30.8 30.8-30.8s30.8 13.8 30.8 30.8v29zm0-44.4c-5.7-11.3-17.3-19-30.8-19-19 0-34.5 15.5-34.5 34.5v14H3.7V9.3c0-3.1 2.5-5.6 5.6-5.6h93.3c3.1 0 5.6 2.5 5.6 5.6v22.8z"/><path d="M60.6 43.5L58 46.1c2.5 2.5 5.9 3.8 9.2 3.8 3.3 0 6.7-1.3 9.2-3.8l-2.6-2.6c-3.6 3.6-9.6 3.6-13.2 0zM9.3 11.2v46.7H13V22.4h35.5v-3.7H13.1v-5.6h46.7V9.3H11.2c-1 0-1.9.9-1.9 1.9z"/><path d="M31.7 26.1h11.2v3.7H31.7zM31.7 33.6H41v3.7h-9.3zM31.7 41.1h7.5v3.7h-7.5zM26.1 26.1h-7.5c-1 0-1.9.8-1.9 1.9v14.9c0 1 .8 1.9 1.9 1.9h7.5c1 0 1.9-.8 1.9-1.9V28c0-1-.8-1.9-1.9-1.9zm-1.8 15h-3.7V29.9h3.7v11.2zM26.1 48.5h-7.5c-1 0-1.9.8-1.9 1.9v7.5h3.7v-5.6h3.7v5.6H28v-7.5c0-1-.8-1.9-1.9-1.9zM31.7 48.5h7.5v3.7h-7.5zM91.5 48.5c-1 0-1.9.8-1.9 1.9v14.9c0 1 .8 1.9 1.9 1.9h3.7c5.1 0 9.3-4.2 9.3-9.3s-4.2-9.3-9.3-9.3h-3.7zm9.3 9.4c0 3.1-2.5 5.6-5.6 5.6h-1.9V52.3h1.9c3.1 0 5.6 2.5 5.6 5.6z"/></symbol>
<symbol id="qa" viewBox="0 0 112 112"><path d="M102.7 0H20.5c-5.1 0-9.3 4.2-9.3 9.3v37.3H5.6c-3.1 0-5.6 2.5-5.6 5.6v54.1c0 3.1 2.5 5.6 5.6 5.6h39.2c3.1 0 5.6-2.5 5.6-5.6V95.2H56v11.2c0 3.1 2.5 5.6 5.6 5.6h44.8c3.1 0 5.6-2.5 5.6-5.6V85.9c0-3.1-2.5-5.6-5.6-5.6H83.5L81 72.8h21.7c5.1 0 9.3-4.2 9.3-9.3V9.3c0-5.1-4.2-9.3-9.3-9.3zm-56 106.4c0 1-.8 1.9-1.9 1.9H5.6c-1 0-1.9-.8-1.9-1.9v-3.7h42.9v3.7zm0-7.5h-43V59.7h42.9v39.2zm0-42.9h-43v-3.7c0-1 .8-1.9 1.9-1.9h39.2c1 0 1.9.8 1.9 1.9V56zM56 91.5h-5.6v-3.7H56v3.7zm.3-7.5h-5.9V72.8h26.7l2.5 7.5h-18c-2.4 0-4.5 1.5-5.3 3.7zm7.2 24.3h-1.9c-1 0-1.9-.8-1.9-1.9V85.9c0-1 .8-1.9 1.9-1.9h1.9v24.3zm41-24.3h1.9c1 0 1.9.8 1.9 1.9v20.5c0 1-.8 1.9-1.9 1.9h-1.9V84zm-3.7 0v24.3H67.2V84h33.6zm7.5-20.5c0 3.1-2.5 5.6-5.6 5.6H50.4v-9.3h57.9v3.7zm0-7.5H50.4v-3.7c0-3.1-2.5-5.6-5.6-5.6H14.9V9.3c0-3.1 2.5-5.6 5.6-5.6h82.1c3.1 0 5.6 2.5 5.6 5.6V56z"/><path d="M39.7 37.9l22.4-22.4 2.7 2.6-22.4 22.4zM62.1 37.9l22.4-22.4 2.7 2.6-22.4 22.4zM9.9 82.7l14.9-15 2.7 2.7-15 14.9zM21.1 86.4L36 71.5l2.7 2.6-15 15zM71.5 99.5l11.2-11.2 2.6 2.6-11.2 11.2zM82.7 99.5l11.2-11.2 2.6 2.6-11.2 11.2zM100.8 48.5h3.7v3.7h-3.7zM93.3 48.5H97v3.7h-3.7zM85.9 48.5h3.7v3.7h-3.7z"/></symbol>
<symbol id="strategist" viewBox="0 0 112 112"><path d="M110.1 28H98.9V1.9c0-1-.8-1.9-1.9-1.9H1.9C.8 0 0 .8 0 1.9V84c0 1 .8 1.9 1.9 1.9h16.8v24.3c0 1 .8 1.9 1.9 1.9h82.1c5.1 0 9.3-4.2 9.3-9.3V29.9c0-1.1-.8-1.9-1.9-1.9zM3.7 3.7h91.5v11.2H3.7V3.7zm15 26.2v52.3h-15V18.7h91.5V28H20.5c-1 0-1.8.8-1.8 1.9zm89.6 72.8c0 3.1-2.5 5.6-5.6 5.6H22.4V42.9h85.9v59.8zm0-63.5H22.4v-7.5h85.9v7.5z"/><path d="M41.1 76.5c1 0 1.9-.8 1.9-1.9V63.5h11.2c1 0 1.9-.8 1.9-1.9 0-8.2-6.7-14.9-14.9-14.9s-14.9 6.7-14.9 14.9 6.5 14.9 14.8 14.9zm0-26.1c5.5 0 10.2 4 11 9.3h-11c-1 0-1.9.8-1.9 1.9v11c-5.3-.9-9.3-5.5-9.3-11 0-6.2 5-11.2 11.2-11.2z"/><path d="M46.7 69.1v11.2c0 1 .8 1.9 1.9 1.9 7.2 0 13.1-5.9 13.1-13.1 0-1-.8-1.9-1.9-1.9H48.5c-1 0-1.8.8-1.8 1.9zm3.7 1.8h7.3c-.7 3.7-3.6 6.5-7.3 7.3v-7.3zM26.1 100.8h76.5v3.7H26.1z"/><path d="M81.4 69.4c-.5-.3-1-.5-1.6-.3-.5.1-1 .5-1.2 1l-8.3 18.3-7.5-6c-.8-.6-1.9-.5-2.6.3l-8.3 10-8-4.8c-.5-.3-1.2-.4-1.8-.1l-11.2 5.6 1.7 3.3 10.3-5.1 8.5 5.1c.3.2.6.3 1 .3.5 0 1.1-.2 1.4-.7l8.2-9.8 7.9 6.3c.4.4 1 .5 1.6.4.6-.1 1-.5 1.3-1L81 73.8l5.6 4.2c.4.3.9.4 1.5.3.5-.1 1-.4 1.2-.8L102.4 57l-3.2-2-12 18.8-5.8-4.4zM59.7 48.5h13.1v3.7H59.7zM76.5 48.5h3.7v3.7h-3.7zM84 48.5h3.7v3.7H84zM59.7 56h3.7v3.7h-3.7zM67.2 56h3.7v3.7h-3.7zM74.7 56H84v3.7h-9.3zM7.5 7.5h3.7v3.7H7.5zM14.9 7.5h3.7v3.7h-3.7zM22.4 7.5h3.7v3.7h-3.7z"/></symbol>
</svg>