<svg xmlns="http://www.w3.org/2000/svg" xmlns:xlink="http://www.w3.org/1999/xlink" viewBox="0 0 235.74 43.24"><defs><path id="a" d="M34 34h10v9.238H34z"/></defs><clipPath id="b"><use xlink:href="#a" overflow="visible"/></clipPath><g clip-path="url(#b)"><path d="M34.035 38.629c0-2.527 1.985-4.61 4.66-4.61 2.63 0 4.563 2.083 4.563 4.61 0 2.578-1.934 4.61-4.563 4.61-2.675 0-4.66-2.032-4.66-4.61" fill="#855fa8"/></g><path d="M38.648.473c2.528 0 4.61 1.984 4.61 4.66 0 2.625-2.082 4.562-4.61 4.562-2.578 0-4.613-1.937-4.613-4.562 0-2.676 2.035-4.66 4.613-4.66" fill="#ff5e52"/><defs><path id="c" d="M17 34h10v9.238H17z"/></defs><clipPath id="d"><use xlink:href="#c" overflow="visible"/></clipPath><g clip-path="url(#d)"><path d="M17.262 38.629c0-2.527 1.984-4.61 4.66-4.61 2.629 0 4.562 2.083 4.562 4.61 0 2.578-1.933 4.61-4.562 4.61-2.676 0-4.66-2.032-4.66-4.61" fill="#ff5e52"/></g><defs><path id="e" d="M0 34h10v9.238H0z"/></defs><clipPath id="f"><use xlink:href="#e" overflow="visible"/></clipPath><g clip-path="url(#f)"><path d="M.488 38.629c0-2.527 1.985-4.61 4.66-4.61 2.63 0 4.563 2.083 4.563 4.61 0 2.578-1.934 4.61-4.563 4.61-2.675 0-4.66-2.032-4.66-4.61" fill="#fcc244"/></g><path d="M.488 21.855c0-2.527 1.985-4.609 4.66-4.609 2.63 0 4.563 2.082 4.563 4.61 0 2.578-1.934 4.609-4.563 4.609-2.675 0-4.66-2.031-4.66-4.61" fill="#ff5e52"/><defs><path id="g" d="M55 0h9v43.238h-9z"/></defs><clipPath id="h"><use xlink:href="#g" overflow="visible"/></clipPath><g clip-path="url(#h)"><path d="M59.555-.004c-2.383 0-4.184 1.82-4.184 4.238V38.91c0 2.418 1.8 4.239 4.184 4.239 2.316 0 4.125-1.864 4.125-4.239V4.234c0-2.375-1.809-4.238-4.125-4.238"/></g><defs><path id="i" d="M67 13h29v30.238H67z"/></defs><clipPath id="j"><use xlink:href="#i" overflow="visible"/></clipPath><g clip-path="url(#j)"><path d="M87.457 25.086H75.723c.914-3.055 3.18-4.863 6.129-4.863 3.125 0 5.332 1.937 5.605 4.863M82.019 13.37c-8.421 0-14.777 6.398-14.777 14.887 0 8.492 6.692 14.89 15.563 14.89 3.3 0 6.414-.914 9.007-2.64 1.45-.969 2.07-1.965 2.07-3.336 0-1.938-1.484-3.399-3.452-3.399-.618 0-1.176.172-1.825.563-1.597 1.012-3.574 1.566-5.574 1.566-3.683 0-6.32-1.722-7.3-4.75h15.312c2.703 0 4.52-1.703 4.52-4.238v-.168c0-7.75-5.696-13.375-13.544-13.375"/></g><defs><path id="k" d="M128 0h26v43.238h-26z"/></defs><clipPath id="l"><use xlink:href="#k" overflow="visible"/></clipPath><g clip-path="url(#l)"><path d="M144.73 28.082l6.516-7.656c.902-1.07 1.32-2.035 1.32-3.04a4.02 4.02 0 00-4.015-4.015c-1.324 0-2.488.59-3.371 1.707l-8.239 10.195-.23.282V4.235c0-2.458-1.735-4.239-4.125-4.239-2.383 0-4.184 1.82-4.184 4.238V38.91c0 2.418 1.801 4.239 4.184 4.239 2.351 0 4.125-1.82 4.125-4.239v-8l.238.285 8.902 10.13c.926 1.175 2.06 1.769 3.375 1.769a4.019 4.019 0 004.012-4.016c0-1.004-.418-1.973-1.328-3.05"/></g><defs><path id="m" d="M157 13h9v30.238h-9z"/></defs><clipPath id="n"><use xlink:href="#m" overflow="visible"/></clipPath><g clip-path="url(#n)"><path d="M161.445 13.371c-2.382 0-4.183 1.797-4.183 4.184V38.91c0 2.375 1.812 4.239 4.129 4.239 2.382 0 4.18-1.82 4.18-4.239V17.555c0-2.387-1.774-4.184-4.126-4.184"/></g><path d="M176.629 33.344c-2.688 0-4.793 2.082-4.793 4.746 0 2.707 2.058 4.746 4.793 4.746 2.68 0 4.7-2.04 4.7-4.746 0-2.664-2.063-4.746-4.7-4.746M161.465-.004c-2.688 0-4.793 2.086-4.793 4.746 0 2.707 2.058 4.746 4.793 4.746 2.68 0 4.699-2.039 4.699-4.746 0-2.66-2.062-4.746-4.7-4.746"/><defs><path id="o" d="M187 13h20v30.238h-20z"/></defs><clipPath id="p"><use xlink:href="#o" overflow="visible"/></clipPath><g clip-path="url(#p)"><path d="M202.523 13.688c-2.449 0-4.746.96-6.546 2.722-.465-1.777-2-3-3.883-3-2.352 0-4.125 1.797-4.125 4.18v21.355c0 2.418 1.797 4.243 4.183 4.243 2.352 0 4.125-1.825 4.125-4.243V28.297c0-3.992 2.301-6.54 6.172-6.809 2.348-.246 3.864-1.82 3.864-4.007 0-2.27-1.524-3.794-3.79-3.794"/></g><defs><path id="q" d="M209 13h26.738v30.238H209z"/></defs><clipPath id="r"><use xlink:href="#q" overflow="visible"/></clipPath><g clip-path="url(#r)"><path d="M231.617 13.41c-2.426 0-4.183 1.758-4.183 4.18v12.95c0 2.917-1.97 4.952-4.786 4.952-2.886 0-4.902-2.035-4.902-4.953V17.59c0-2.382-1.773-4.179-4.125-4.179-2.383 0-4.184 1.797-4.184 4.18v12.332c0 7.812 5.434 13.265 13.211 13.265 7.707 0 13.094-5.453 13.094-13.265V17.59c0-2.383-1.773-4.18-4.125-4.18"/></g><defs><path id="s" d="M99 0h27v43.238H99z"/></defs><clipPath id="t"><use xlink:href="#s" overflow="visible"/></clipPath><g clip-path="url(#t)"><path d="M116.027 27.906l7.164-7.703c1.567-1.687 1.512-4.2-.128-5.727-.82-.761-1.86-1.16-2.93-1.101-1.063.05-2.066.527-2.828 1.348l-6.864 7.382-2.847 3.063V4.234c0-2.457-1.738-4.238-4.13-4.238-2.382 0-4.179 1.824-4.179 4.238V38.91c0 2.418 1.797 4.239 4.18 4.239 2.351 0 4.129-1.82 4.129-4.239v-8.168l2.949 3.063V33.8l7.762 8.062c.824.856 1.875 1.29 2.926 1.29.984 0 1.964-.38 2.757-1.145 1.664-1.602 1.707-4.063.11-5.723"/></g><path d="M39.531 26.086H20.988c-2.441 0-4.32-1.816-4.32-4.262 0-2.379 1.879-4.195 4.32-4.195h18.543c2.442 0 4.32 1.816 4.32 4.195 0 2.445-1.878 4.262-4.32 4.262" fill="#855fa8"/><path d="M30.262 17.629h-9.274c-2.441 0-4.32 1.816-4.32 4.195 0 2.445 1.879 4.262 4.32 4.262h9.274" fill="#ff5e52"/><path d="M22.863 8.953H4.32C1.88 8.953 0 7.137 0 4.695 0 2.312 1.879.496 4.32.496h18.543c2.442 0 4.32 1.816 4.32 4.2 0 2.44-1.878 4.257-4.32 4.257" fill="#855fa8"/><path d="M13.594.496H4.32C1.88.496 0 2.313 0 4.696c0 2.44 1.879 4.257 4.32 4.257h9.274" fill="#fcc244"/></svg>