<svg xmlns="http://www.w3.org/2000/svg">
<symbol id="fb" viewBox="0 0 40 40"> <circle cx="20" cy="20" r="20" fill="#3B5998"/> <path fill-rule="evenodd" clip-rule="evenodd" d="M21.7887 32V21.6267H25.327L25.857 17.4986H21.7887V14.8635C21.7887 13.6694 22.1194 12.8553 23.825 12.8553L26 12.8539V9.16251C25.6231 9.11173 24.3319 9 22.83 9C19.6946 9 17.547 10.9226 17.547 14.4558V17.4986H14V21.6267H17.547V32H21.7887Z" fill="#EBE2CE"/> </symbol>
<symbol id="insta" viewBox="0 0 692.4581 689.95"><linearGradient id="c" gradientUnits="userSpaceOnUse" x1="-56.4401" y1="1.1801" x2="-55.9773" y2="2.9705" gradientTransform="matrix(512 0 0 512 29140 -655)"><stop offset="0" stop-color="#4e60d3"/><stop offset="0.1428" stop-color="#913baf"/><stop offset="0.7615" stop-color="#d52d88"/><stop offset="1" stop-color="#f26d4f"/></linearGradient><path d="M689.95,0L689.95,0v689.95l0,0H0c0,0,0-64.6828,0-164.4022V0l0,0 H689.95z" clip-path="url(#b)" fill="url(#c)"/><g><radialGradient id="f" cx="-55.4367" cy="3.9994" r="1.8256" gradientTransform="matrix(322.7142 140.569 -101.163 232.247 18505 7606)" gradientUnits="userSpaceOnUse"><stop offset="0" stop-color="#fed276"/><stop offset="0.1702" stop-color="#fdbd61" stop-opacity=".975"/><stop offset="0.4541" stop-color="#f6804d"/><stop offset="1" stop-color="#e83d5c" stop-opacity="0"/></radialGradient><path d="M684.7066,572.3099c-3.8542,86.0842,5.2433,117.64,5.2433,117.64H0 l0,0V240.6081c54.8635-16.1755,114.0878-24.9988,175.8564-24.9988C434.7575,215.6094,648.9589,370.6214,684.7066,572.3099 L684.7066,572.3099z" clip-path="url(#e)" fill="url(#f)"/></g><g><path d="M425.975,534.475h-161c-59.8271,0-108.5-48.6729-108.5-108.5v-159 c0-59.8271,48.6729-108.5,108.5-108.5h161c59.8271,0,108.5,48.6729,108.5,108.5v159 C534.475,485.8021,485.8021,534.475,425.975,534.475z M264.975,193.475c-40.5278,0-73.5,32.9722-73.5,73.5v159 c0,40.5283,32.9722,73.5,73.5,73.5h161c40.5283,0,73.5-32.9717,73.5-73.5v-159c0-40.5278-32.9717-73.5-73.5-73.5 C425.975,193.475,264.975,193.475,264.975,193.475z" fill="#EBE2CE"/><path d="M345.975,447.475c-54.8643,0-99.5-44.6357-99.5-99.5s44.6357-99.5,99.5-99.5s99.5,44.6357,99.5,99.5 S400.8392,447.475,345.975,447.475z M345.975,283.475c-35.5654,0-64.5,28.9346-64.5,64.5s28.9346,64.5,64.5,64.5 s64.5-28.9346,64.5-64.5S381.5404,283.475,345.975,283.475z" fill="#EBE2CE"/><circle cx="446.475" cy="245.975" r="24"/><circle cx="446.475" cy="245.975" r="24" fill="#EBE2CE"/></g></symbol>
<symbol id="vk" viewBox="0 0 40 40"> <circle cx="20" cy="20" r="20" fill="#4D7198"/> <path fill-rule="evenodd" clip-rule="evenodd" d="M27.9365 20.864C27.9365 20.864 31.1 16.4195 31.4135 14.9594C31.5185 14.4379 31.2875 14.1465 30.743 14.1465C30.743 14.1465 28.922 14.1465 27.9995 14.1465C27.371 14.1465 27.1415 14.417 26.9525 14.813C26.9525 14.813 25.469 17.9618 23.6645 19.9464C23.0855 20.5875 22.7915 20.7803 22.4705 20.7803C22.2125 20.7803 22.094 20.5666 22.094 19.9883V14.9176C22.094 14.2092 22.01 14 21.4235 14H17.027C16.691 14 16.481 14.1943 16.481 14.4588C16.481 15.1268 17.5085 15.2778 17.5085 17.0875V20.8222C17.5085 21.5739 17.4665 21.8653 17.1095 21.8653C16.1675 21.8653 13.9265 18.6313 12.6695 14.9594C12.419 14.2092 12.146 14 11.435 14H8.6915C8.2925 14 8 14.2705 8 14.668C8 15.3973 8.85801 18.7778 12.23 23.3059C14.492 26.3516 17.4665 28 20.147 28C21.7805 28 22.178 27.7295 22.178 27.0406V24.7032C22.178 24.1189 22.409 23.8693 22.7435 23.8693C23.12 23.8693 23.786 23.9889 25.34 25.5177C27.1835 27.2692 27.3095 28 28.3145 28H31.3925C31.7075 28 32 27.8535 32 27.332C32 26.6445 31.1 25.4131 29.717 23.953C29.1515 23.2013 28.2305 22.3868 27.9365 22.0117C27.518 21.5739 27.644 21.3228 27.9365 20.864Z" fill="#EBE2CE"/> </symbol>
<symbol id="youtube" viewBox="0 0 40 40"> <circle cx="20" cy="20" r="20" fill="#C4302B"/> <path d="M9.36199 15.4019C9.65392 13.3238 11.3207 11.7448 13.4051 11.5017C15.5211 11.2549 18.2145 11 20.3125 11C22.4105 11 25.1039 11.2549 27.2199 11.5017C29.3043 11.7448 30.9711 13.3238 31.263 15.4019C31.4571 16.7835 31.625 18.3465 31.625 19.619C31.625 20.8916 31.4571 22.4546 31.263 23.8362C30.9711 25.9143 29.3043 27.4933 27.2199 27.7364C25.1039 27.9832 22.4105 28.2381 20.3125 28.2381C18.2145 28.2381 15.5211 27.9832 13.4051 27.7364C11.3207 27.4933 9.65392 25.9143 9.36199 23.8362C9.1679 22.4546 9 20.8916 9 19.619C9 18.3465 9.1679 16.7835 9.36199 15.4019Z" fill="#EBE2CE"/> <path d="M24.084 19.6191L17.6197 23.3513L17.6197 15.8869L24.084 19.6191Z" fill="#C4302B"/> </symbol>
</svg>