<?xml version="1.0" encoding="UTF-8"?>
<svg width="311px" height="42px" viewBox="0 0 311 42" version="1.1" xmlns="http://www.w3.org/2000/svg" xmlns:xlink="http://www.w3.org/1999/xlink">
    <!-- Generator: sketchtool 46 (44423) - http://www.bohemiancoding.com/sketch -->
    <title>772C46B5-00F2-4D56-8254-EE191219AA9D</title>
    <desc>Created with sketchtool.</desc>
    <defs>
        <rect id="path-1" x="0" y="0" width="312" height="75"></rect>
    </defs>
    <g id="Web" stroke="none" stroke-width="1" fill="none" fill-rule="evenodd">
        <g id="Focused-—-Main" transform="translate(-793.000000, -2604.000000)">
            <g id="Clients" transform="translate(205.000000, 2236.000000)">
                <g id="kimberly-clark-logo" transform="translate(588.000000, 350.000000)">
                    <g id="Rectangle-2" opacity="0">
                        <use fill="#D8D8D8" fill-rule="evenodd" xlink:href="#path-1"></use>
                        <rect stroke="#979797" stroke-width="1" x="0.5" y="0.5" width="311" height="74"></rect>
                    </g>
                    <g transform="translate(0.000000, 15.000000)" id="Group" fill-rule="nonzero" fill="#000000">
                        <g transform="translate(156.000000, 22.711122) scale(-1, 1) rotate(-180.000000) translate(-156.000000, -22.711122) translate(0.000000, 0.504225)">
                            <g id="Shape" transform="translate(0.045667, 0.003485)">
                                <polyline points="85.9161301 35.6269218 92.4454159 35.6269218 92.1148057 30.8255022 85.584457 30.8255022 85.9161301 35.6269218"></polyline>
                                <path d="M263.138081,12.4953645 C266.36658,12.4953645 266.57175,15.5446226 266.743965,18.0209963 C265.288642,18.0209963 263.90986,18.0955795 262.931849,17.6156537 C261.879423,17.0968149 261.092763,16.2083038 261.003466,14.9144498 C260.912044,13.5838448 261.829459,12.4953645 263.138081,12.4953645 L263.138081,12.4953645 Z M266.138023,11.233938 L266.065736,11.233938 C264.582774,9.83523546 263.181666,8.81701458 260.513398,8.81701458 C256.185699,8.81701458 254.366812,11.3204111 254.366812,14.6020657 C254.366812,18.2998721 258.093883,20.6746399 264.715656,20.6746399 L266.900233,20.6746399 C267.011854,22.3003344 267.568896,24.9831626 264.826213,24.9831626 C262.879759,24.9831626 262.406698,23.1034534 262.367366,22.1976475 L256.077268,22.1976475 C256.22078,24.6188947 257.249817,26.2359419 259.163318,27.0866211 C261.117213,27.9718895 263.495268,28.1945578 265.534208,28.1945578 C269.24427,28.1945578 273.796274,26.3180914 273.489051,21.7166409 L272.972405,12.7915349 C272.920317,12.0154388 272.909685,11.2025915 273.011739,8.98455624 L266.490958,8.98455624 L266.138023,11.233938 L266.138023,11.233938 Z"></path>
                                <path d="M295.752619,19.3159312 L302.292535,27.5849225 L310.142135,27.5849225 L303.099393,19.7223549 L309.775381,8.96726162 L301.268811,8.96726162 L295.752619,19.3159312 L295.752619,19.3159312 Z M288.126259,8.96726162 L289.964282,35.6323263 L296.878394,35.6323263 L295.040371,8.96726162 L288.126259,8.96726162 L288.126259,8.96726162 Z"></path>
                                <path d="M176.052589,24.8177828 L176.124878,24.8177828 C177.899118,27.138505 179.942309,27.5243912 182.192798,27.5243912 L181.783521,21.5739603 C181.317903,21.6096305 180.845906,21.6096305 180.371783,21.6096305 C175.815529,21.6096305 175.675205,18.9581486 175.506179,15.8851105 L175.09584,8.96509978 L168.003135,8.96509978 L168.951381,22.7510754 C169.06619,24.4156828 169.106586,25.5236196 169.061938,27.5708706 L175.821908,27.5708706 L176.052589,24.8177828"></path>
                                <polyline points="181.676152 8.97158527 183.513112 35.63665 190.203983 35.63665 188.368086 8.97158527 181.676152 8.97158527"></polyline>
                                <path d="M133.264614,18.0080254 C133.158308,15.740268 133.719601,12.5386011 136.223097,12.5386011 C139.405884,12.5386011 140.189356,15.7597245 140.307355,18.3387849 C140.411535,20.6184325 139.968241,23.999531 137.267017,23.9908838 C133.818466,23.9811556 133.380487,20.4714281 133.264614,18.0080254 L133.264614,18.0080254 Z M127.782437,35.6344882 L134.634892,35.6344882 L133.900321,25.004781 L134.033203,25.004781 C135.419427,26.6683074 137.34462,28.0572817 139.811971,28.0572817 C145.415336,28.0572817 147.573338,23.046165 147.268241,18.5225404 C146.958892,13.9286564 144.596783,8.69919497 138.338577,8.69919497 C136.229475,8.69919497 134.179904,9.87847202 133.231659,11.2555563 L133.08602,11.2555563 L132.675681,8.98887989 L125.945478,8.98887989 L127.782437,35.6344882 L127.782437,35.6344882 Z"></path>
                                <path d="M161.339905,20.5589821 C161.40794,21.5577466 161.185761,22.5554301 160.693567,23.3315263 C160.201372,24.1076224 159.455107,24.5875482 158.394179,24.5129652 C155.985295,24.4027119 155.343209,22.6656833 155.017914,20.5589821 L161.339905,20.5589821 L161.339905,20.5589821 Z M154.69262,17.0535784 C154.490639,14.4874888 155.067878,12.4186197 157.65004,12.4186197 C159.579486,12.4186197 160.794557,13.7232827 160.794557,14.9360681 L167.199465,14.9360681 C167.055952,12.6769581 165.504955,10.9193921 163.687131,9.88495751 C162.014945,8.84944199 160.097193,8.66676756 158.043371,8.66676756 C150.582848,8.66676756 147.698779,11.811146 148.160145,18.8619474 C148.543908,24.7399571 153.203279,28.2150952 158.69715,28.1264603 C166.047113,28.0075597 168.410285,23.6125639 167.709731,17.0535784 L154.69262,17.0535784 L154.69262,17.0535784 Z"></path>
                                <polyline points="58.7125449 35.6269218 66.40375 35.6269218 64.5614752 8.96942345 56.87027 8.96942345 58.7125449 35.6269218"></polyline>
                                <polyline points="74.9135077 35.6269218 65.7191424 23.7833483 73.9121097 8.96942345 83.1256099 8.96942345 73.9418751 24.1703155 83.606111 35.6269218 74.9135077 35.6269218"></polyline>
                                <polyline points="85.278297 27.5741133 91.8075828 27.5741133 90.5266011 8.97482802 83.9973153 8.97482802 85.278297 27.5741133"></polyline>
                                <path d="M100.076027,27.5741133 L100.073901,25.0609884 L100.146189,25.0609884 C102.184066,27.7697587 104.988406,28.0129644 106.711618,28.0129644 C109.206609,28.0129644 111.759005,26.609938 112.273524,24.7280671 C113.685261,26.9525878 116.204702,28.0507964 118.981403,28.1242985 C122.975301,28.1242985 125.752002,25.5301052 125.464977,21.4150659 L124.596461,8.97266618 L117.571791,8.97266618 L118.335065,19.8942201 C118.427551,21.6658379 118.287227,23.6763378 115.994217,23.6763378 C112.629647,23.6763378 112.761466,19.8574691 112.726385,19.6348008 L112.005634,8.96834252 L104.960766,8.96834252 L105.739986,19.8942201 C105.77294,21.7101554 105.540131,23.6763378 103.31303,23.6763378 C99.7624256,23.6763378 99.8379026,19.8574691 99.8410917,19.6348008 L99.1118358,8.96185705 L91.8681769,8.96185705 L93.1406541,27.5719514 L100.076027,27.5741133"></path>
                                <polyline points="199.078367 0.0216182777 192.722361 0.0216182777 196.819375 8.6700103 190.108308 27.5741133 197.900503 27.5741133 200.925958 16.0310339 205.732031 27.5741133 212.16139 27.5741133 199.078367 0.0216182777"></polyline>
                                <polyline points="212.36656 23.8341512 221.21862 23.8341512 218.388768 18.0145108 209.536706 18.0145108 212.36656 23.8341512"></polyline>
                                <path d="M235.43486,36.3403249 C240.843686,36.3403249 246.371572,33.9396152 246.131323,27.2649718 L238.680368,27.2649718 C238.680368,29.0149714 237.676844,31.0081766 235.154213,31.0081766 C232.629457,31.0081766 229.664595,29.0971209 229.146887,23.56068 C228.62599,18.0264008 229.305283,13.8356978 233.711646,13.8356978 C237.517385,13.8356978 238.279596,17.1724789 238.358262,17.823189 L245.750748,17.823189 C245.750748,14.8517568 243.325919,8.70676137 233.310875,8.70676137 C222.7356,8.70676137 220.851868,16.5206879 221.732077,23.8060475 C222.471963,29.9056445 226.742256,36.3403249 235.43486,36.3403249"></path>
                                <polyline points="246.267394 8.97158527 248.105415 35.63665 254.797349 35.63665 252.959326 8.97158527 246.267394 8.97158527"></polyline>
                                <path d="M282.219924,24.8177828 L282.292212,24.8177828 C284.067514,27.138505 286.109643,27.5243912 288.40159,27.5243912 L287.991251,21.5739603 C287.484174,21.6096305 287.011113,21.6096305 286.539118,21.6096305 C281.982862,21.6096305 281.843603,18.9581486 281.673514,15.8851105 L281.262111,8.96509978 L274.17047,8.96509978 L275.118714,22.7510754 C275.233524,24.4156828 275.272858,25.5236196 275.227146,27.5708706 L281.989241,27.5708706 L282.219924,24.8177828"></path>
                                <path d="M22.1328115,4.48579263 C10.97392,4.48579263 1.96984148,12.3483603 1.96984148,22.0863134 C1.96984148,31.8264284 10.97392,39.6889962 22.1328115,39.6889962 C33.2906401,39.6889962 42.2957816,31.8264284 42.2957816,22.0863134 C42.2957816,12.3483603 33.2906401,4.48579263 22.1328115,4.48579263 L22.1328115,4.48579263 Z M0.212611062,22.0830707 C0.212611062,11.3787805 10.0224855,2.70228472 22.1243072,2.70228472 C34.2261287,2.70228472 44.0370662,11.3787805 44.0370662,22.0830707 C44.0370662,32.787361 34.2261287,41.4649377 22.1243072,41.4649377 C9.99697213,41.4649377 0.212611062,32.787361 0.212611062,22.0830707 L0.212611062,22.0830707 Z"></path>
                                <path d="M24.9605387,10.7875206 L24.9605387,19.3461968 C26.5338606,15.7672909 29.3158763,14.9782237 31.5706167,14.9782237 L37.8277602,14.9782237 L37.8277602,18.8133062 L33.4479723,18.8133062 C31.1900428,18.8133062 30.483111,20.5168266 30.483111,21.4961345 C30.483111,23.8676596 32.3753496,25.6727857 35.1945722,28.2075288 L30.2024644,28.2075288 C28.0433991,26.7688325 25.9342974,24.489185 24.9658539,21.9306618 L24.9658539,33.7807208 L19.2965801,33.7807208 L19.2965801,21.9306618 C18.3281366,24.489185 16.2190348,26.7688325 14.0599695,28.2075288 L9.0678618,28.2075288 C11.8881475,25.6727857 13.7793229,23.8676596 13.7793229,21.4961345 C13.7793229,20.5179074 13.0723912,18.8143872 10.8144617,18.8143872 L6.43573685,18.8143872 L6.43573685,14.9793047 L12.6928804,14.9793047 C14.9465577,14.9793047 17.7264472,15.7672909 19.3018953,19.3461968 L19.3018953,10.7875206 L24.9605387,10.7875206 L24.9605387,10.7875206 Z M17.4830077,8.94456243 L17.4830077,14.3383227 C17.0354613,14.0313432 15.9235055,13.1417511 13.6315582,13.1417511 L4.62854282,13.1417511 L4.62854282,20.6627498 L10.1840699,20.6627498 C11.5745462,20.6627498 11.6627798,21.5047817 11.6627798,21.7598774 C11.6627798,23.9325144 7.99098678,26.9385359 3.91629576,30.0569725 L14.8359999,30.0775099 C15.5035986,29.5781277 16.5538973,28.821488 17.489386,27.7513831 L17.489386,35.6507019 L26.7730481,35.6507019 L26.7730481,27.7513831 C27.7085367,28.821488 28.7588352,29.5781277 29.4264341,30.0775099 L40.3472013,30.0569725 C36.2703841,26.937455 32.5996542,23.9325144 32.5996542,21.7598774 C32.5996542,21.5047817 32.6878878,20.6627498 34.0783641,20.6627498 L39.6338912,20.6627498 L39.6338912,13.1417511 L30.6308757,13.1417511 C28.3389285,13.1417511 27.2269727,14.0313432 26.7794263,14.3372418 L26.7794263,8.94456243 L17.4830077,8.94456243 L17.4830077,8.94456243 Z"></path>
                            </g>
                        </g>
                    </g>
                </g>
            </g>
        </g>
    </g>
</svg>