<?xml version="1.0" encoding="UTF-8"?>
<svg width="64px" height="82px" viewBox="0 0 64 82" version="1.1" xmlns="http://www.w3.org/2000/svg" xmlns:xlink="http://www.w3.org/1999/xlink">
    <!-- Generator: sketchtool 46 (44423) - http://www.bohemiancoding.com/sketch -->
    <title>7D784C11-3123-4A58-819A-75E25765232F</title>
    <desc>Created with sketchtool.</desc>
    <defs>
        <rect id="path-1" x="0" y="0" width="170" height="170"></rect>
    </defs>
    <g id="Web" stroke="none" stroke-width="1" fill="none" fill-rule="evenodd">
        <g id="Focused-—-Main" transform="translate(-1118.000000, -2396.000000)">
            <g id="Clients" transform="translate(205.000000, 2236.000000)">
                <g id="target-logo" transform="translate(860.000000, 110.000000)">
                    <g id="Rectangle-Copy-2" opacity="0">
                        <use fill="#D8D8D8" fill-rule="evenodd" xlink:href="#path-1"></use>
                        <rect stroke="#979797" stroke-width="1" x="0.5" y="0.5" width="169" height="169"></rect>
                    </g>
                    <g id="Group-6" transform="translate(53.000000, 50.000000)" fill-rule="nonzero" fill="#000000">
                        <g id="target-logo" transform="translate(0.018100, 0.000000)">
                            <path d="M32.1662476,52.6376756 C20.5386797,52.6376756 11.1024919,43.2291373 11.1024919,31.6152054 C11.1024919,19.9802465 20.5386797,10.5785542 32.1662476,10.5785542 C43.8039351,10.5785542 53.228371,19.9802465 53.228371,31.6152054 C53.228371,43.2291373 43.8039351,52.6376756 32.1662476,52.6376756 L32.1662476,52.6376756 Z M32.1662476,0.0748171217 C14.7350969,0.0748171217 0.599830317,14.1947151 0.599830317,31.6152054 C0.599830317,49.0223297 14.7350969,63.1378266 32.1662476,63.1378266 C49.6049063,63.1378266 63.7623707,49.0223297 63.7623707,31.6152054 C63.7623707,14.1947151 49.6049063,0.0748171217 32.1662476,0.0748171217 L32.1662476,0.0748171217 Z" id="Shape"></path>
                            <path d="M32.1662476,20.8071468 C26.1912847,20.8071468 21.350042,25.6301617 21.350042,31.6152054 C21.350042,37.5805261 26.1911216,42.4178849 32.1662476,42.4178849 C38.1469231,42.4178849 42.9986118,37.5803631 42.9986118,31.6152054 C42.9986118,25.6303247 38.1469231,20.8071468 32.1662476,20.8071468" id="Shape"></path>
                            <polyline id="Shape" points="3.61579347 71.3641241 0.134166128 71.3641241 0.134166128 69.2183886 9.65212667 69.2183886 9.65212667 71.3641241 6.17049935 71.3641241 6.17049935 80.8207474 3.61579347 80.8207474 3.61579347 71.3641241"></polyline>
                            <path d="M8.54582739,80.8207474 L11.1317081,80.8207474 L12.0436134,78.2363782 L16.3880171,78.2363782 L17.2669522,80.8207474 L19.9186102,80.8207474 L15.5742065,69.2183886 L12.9551923,69.2183886 L8.54582739,80.8207474 L8.54582739,80.8207474 Z M14.2240578,72.0772502 L14.2560488,72.0772502 L15.719798,76.3353061 L12.7118326,76.3353061 L14.2240578,72.0772502 L14.2240578,72.0772502 Z" id="Shape"></path>
                            <path d="M20.9261619,80.8207474 L23.4820103,80.8207474 L23.4820103,76.287384 L26.0349208,76.287384 C27.3215773,76.287384 27.7924645,76.8231659 27.9710262,78.0412669 C28.102744,78.9677604 28.0696106,80.0892025 28.3790741,80.8209103 L30.9321477,80.8209103 C30.4770928,80.1711915 30.4939044,78.8044341 30.4444489,78.0735409 C30.3626761,76.9018951 30.0062055,75.684609 28.7523561,75.3599125 L28.7523561,75.3278015 C30.039339,74.8081566 30.591999,73.785656 30.591999,72.4188987 C30.591999,70.6653419 29.2730252,69.2190406 27.1910019,69.2190406 L20.9263251,69.2190406 L20.9261619,80.8207474 L20.9261619,80.8207474 Z M23.4820103,71.2007978 L26.2810552,71.2007978 C27.418203,71.2007978 28.0369667,71.6884945 28.0369667,72.8084694 C28.0369667,73.9778333 27.418203,74.4661821 26.2810552,74.4661821 L23.4820103,74.4661821 L23.4820103,71.2007978 L23.4820103,71.2007978 Z" id="Shape"></path>
                            <path d="M40.7434131,79.5037053 C39.8476665,80.6590511 38.6782014,81.0993152 37.5549273,81.0993152 C33.9598626,81.0993152 31.844053,78.4138855 31.844053,75.0663491 C31.844053,71.6232945 33.9596995,68.9434071 37.5549273,68.9434071 C39.9297657,68.9434071 42.1759874,70.4056825 42.4532967,73.0358548 L40.0113752,73.0358548 C39.7179073,71.7509237 38.7581788,71.0871866 37.5549273,71.0871866 C35.2605559,71.0871866 34.3969634,73.0358548 34.3969634,75.0663491 C34.3969634,77.0009992 35.2605559,78.9499934 37.5549273,78.9499934 C39.2150291,78.9499934 40.1729622,78.0569149 40.3201858,76.4472873 L37.7506271,76.4472873 L37.7506271,74.5483342 L42.6307159,74.5483342 L42.6307159,80.8205844 L41.0024418,80.8205844 L40.7434131,79.5037053" id="Shape"></path>
                            <polyline id="Shape" points="44.3722641 69.2183886 53.057807 69.2183886 53.057807 71.3641241 46.9264803 71.3641241 46.9264803 73.8490631 52.5549289 73.8490631 52.5549289 75.8332653 46.9264803 75.8332653 46.9264803 78.675012 53.1895249 78.675012 53.1895249 80.8207474 44.3722641 80.8207474 44.3722641 69.2183886"></polyline>
                            <polyline id="Shape" points="57.8102586 71.3641241 54.328468 71.3641241 54.328468 69.2183886 63.8477343 69.2183886 63.8477343 71.3641241 60.3641483 71.3641241 60.3641483 80.8207474 57.8102586 80.8207474 57.8102586 71.3641241"></polyline>
                        </g>
                    </g>
                </g>
            </g>
        </g>
    </g>
</svg>