<svg viewBox="0 0 222.8 217.2" xmlns="http://www.w3.org/2000/svg"><path d="m20.7 217.2v-20.2l-20.7 20.2zm183.3-217h18.8zm18.8 20.5v-20.5l-21.1 20.5z" fill="#b2423d"/><path d="m129.4 0-129.4 130.7v86.5l20.7-20.2 181-176.3 21.1-20.5h-18.8z" fill="#dd5347"/><path d="m52.6 135.1a12.69 12.69 0 0 1 -3.2 4.7 9.75 9.75 0 0 1 -6.9 3.2 9.75 9.75 0 0 1 -6.9-3.2 10.53 10.53 0 0 1 -3.4-7.5 10.39 10.39 0 0 1 3.3-7.5 14.12 14.12 0 0 1 4-2.9l3 3a8.3 8.3 0 0 0 -4 2.4 6 6 0 0 0 -1.9 4.4 6.81 6.81 0 0 0 2.1 4.5 6.57 6.57 0 0 0 4.4 2.1 5.91 5.91 0 0 0 4.3-1.9 8.76 8.76 0 0 0 2.4-4.3zm12.5-11.6-3.7 3.7-8-1.7 4.9 4.9-3.1 3.1-10-9.9 3.1-3.1 4.7 4.7-1.6-7.7 3.6-3.7 1.1 8.4zm11.1-11.2-2.8 2.8-6.5-6.5a9 9 0 0 1 .6 2.2l1.7 8.5-2.9 2.9-10-9.9 2.8-2.8 6.3 6.3a13.32 13.32 0 0 1 -.5-1.9l-1.7-8.5 3-3zm16.7-9.5-2.5 2.5-3.7-3.6-6.7 6.7 3.6 3.6-2.5 2.5-5.8-5.8.9-.9a20.8 20.8 0 0 0 -5.6-10l7-7 7.8 7.8 1.6-1.6zm-10.4-1.2-5.7-5.6-1.5 1.5a18.67 18.67 0 0 1 4 7.3zm18.5-14.2-3.7 3.7-8-1.7 4.9 4.9-3.1 3.1-10-9.9 3.1-3.1 4.7 4.7-1.6-7.7 3.6-3.7 1.1 8.3zm9.5-9.5-2.9 2.9-1.4-1.4a4.45 4.45 0 0 1 -1.4 4.7 4.59 4.59 0 0 1 -3.1 1.5 4.05 4.05 0 0 1 -3-1.4c-1.9-1.9-1.9-4.2.1-6.8l2.3-3.1c-1.1-1.1-2.2-1-3.4.1a8.54 8.54 0 0 0 -2.3 4.4l-2.3-2.3a10.08 10.08 0 0 1 1.2-2.3 13 13 0 0 1 1.8-2.3c2.8-2.8 5.7-2.8 8.5 0zm-7-1.2-.7-.7-1.6 2c-.9 1.1-.9 2.1-.1 2.9a1.85 1.85 0 0 0 1.2.5 1.71 1.71 0 0 0 1.3-.7 2.44 2.44 0 0 0 .8-2 2.67 2.67 0 0 0 -.9-2zm19.7-21a7.33 7.33 0 0 1 1.6 2.3 7.6 7.6 0 0 1 .6 2.6 8 8 0 0 1 -.5 2.6 7.64 7.64 0 0 1 -4.1 4 6.72 6.72 0 0 1 -2.8.3 7.61 7.61 0 0 1 -3-1 18.31 18.31 0 0 1 -3.1-2.4 14.45 14.45 0 0 1 -2.8-3.7 10.1 10.1 0 0 1 -1.3-3.8 7.44 7.44 0 0 1 .4-3.6 8.25 8.25 0 0 1 2-3.2 8.64 8.64 0 0 1 2.9-2.1l2.6 2.6a6.57 6.57 0 0 0 -2.9 1.7 4.52 4.52 0 0 0 -1.1 1.7 4.13 4.13 0 0 0 -.2 1.9 6.64 6.64 0 0 0 .6 2 9.51 9.51 0 0 0 1.5 2l.1-.1a4.74 4.74 0 0 1 1.6-4.3 6.41 6.41 0 0 1 1.9-1.3 3.86 3.86 0 0 1 2.1-.3 7.27 7.27 0 0 1 2.1.6 20.34 20.34 0 0 1 1.8 1.5zm-2.8 3.3c-1.5-1.5-2.9-1.6-4.1-.4a2.36 2.36 0 0 0 -.6.9 1.73 1.73 0 0 0 -.1 1 1.93 1.93 0 0 0 .3 1 3.59 3.59 0 0 0 .7 1 4.44 4.44 0 0 0 1.1.8 5.64 5.64 0 0 0 1.2.4 2 2 0 0 0 1.1-.1 2.07 2.07 0 0 0 1-.6 2.36 2.36 0 0 0 .6-.9 3.75 3.75 0 0 0 .1-1.1 3.58 3.58 0 0 0 -.4-1.1zm14-4.8c-3.3 3.3-7.3 2.7-12-2q-3.6-3.6-4.2-6.9a6.23 6.23 0 0 1 2-5.8c3.2-3.3 7.2-2.5 12 2.2 2.4 2.4 3.7 4.6 4.1 6.8a6.08 6.08 0 0 1 -1.9 5.7zm-12-12.2c-1.3 1.3-.3 3.7 3 7 3.2 3.1 5.4 4.1 6.7 2.8s.3-3.6-3-6.8-5.4-4.1-6.7-3zm14.8-4.8a4.4 4.4 0 0 1 -6.7-.1 5.45 5.45 0 0 1 -1.8-3.7 4.51 4.51 0 0 1 1.6-3.6 4.27 4.27 0 0 1 3.3-1.5 5.31 5.31 0 0 1 3.5 1.7 5.26 5.26 0 0 1 1.8 3.7 5.79 5.79 0 0 1 -1.7 3.5zm3.1-17.3 4.9 23-2.4 2.4-4.9-23zm-8.5 11.5c-.9 1-.8 2.1.6 3.4s2.4 1.5 3.2.5.7-2-.6-3.3-2.3-1.5-3.2-.6zm21.2 4.1a4.82 4.82 0 0 1 -3.3 1.5 5.2 5.2 0 0 1 -3.5-1.6 5.45 5.45 0 0 1 -1.8-3.7 4.51 4.51 0 0 1 1.6-3.6 4.27 4.27 0 0 1 3.3-1.5 4.83 4.83 0 0 1 3.5 1.8 5.45 5.45 0 0 1 1.8 3.7 4.75 4.75 0 0 1 -1.6 3.4zm-5.4-5.7c-.9.9-.8 2.1.6 3.4s2.4 1.5 3.2.5.7-2.1-.6-3.3a3.25 3.25 0 0 0 -1.8-1 1.49 1.49 0 0 0 -1.4.4z" fill="#fff"/></svg>